<?xml version="1.0" encoding="utf-8"?>
<!-- Generator: Adobe Illustrator 19.2.1, SVG Export Plug-In . SVG Version: 6.00 Build 0)  -->
<svg version="1.1" id="Capa_1" xmlns="http://www.w3.org/2000/svg" xmlns:xlink="http://www.w3.org/1999/xlink" x="0px" y="0px"
	 viewBox="0 0 123.9 12.4" style="enable-background:new 0 0 123.9 12.4;" xml:space="preserve">
<style type="text/css">
	.st0{fill:#444444;}
</style>
<g>
	<path class="st0" d="M65.9,8.8V4h0.6l0.1,0.7h0c0.1-0.2,0.4-0.4,0.6-0.5s0.6-0.2,0.9-0.2c0.6,0,1,0.1,1.3,0.4S70,5,70,5.7v3.1h-0.7
		V5.7c0-0.4-0.1-0.7-0.3-0.9s-0.5-0.3-0.8-0.3c-0.5,0-0.9,0.1-1.1,0.4s-0.4,0.7-0.4,1.4v2.5H65.9z"/>
	<path class="st0" d="M71.1,7.5c0-1,0.8-1.5,2.3-1.5l0.8,0V5.6c0-0.4-0.1-0.7-0.2-0.8c-0.2-0.2-0.4-0.3-0.8-0.3
		c-0.4,0-0.9,0.1-1.4,0.4l-0.2-0.6c0.2-0.1,0.5-0.2,0.8-0.3c0.3-0.1,0.6-0.1,0.8-0.1c0.6,0,1,0.1,1.3,0.4S75,5,75,5.5v3.3h-0.5
		l-0.1-0.7h0c-0.2,0.3-0.5,0.5-0.7,0.6c-0.2,0.1-0.5,0.2-0.9,0.2c-0.5,0-0.9-0.1-1.1-0.4C71.2,8.3,71.1,7.9,71.1,7.5z M71.9,7.5
		c0,0.3,0.1,0.5,0.2,0.6s0.4,0.2,0.7,0.2c0.5,0,0.8-0.1,1.1-0.4c0.3-0.2,0.4-0.6,0.4-1.1V6.4l-0.7,0c-0.6,0-1,0.1-1.3,0.3
		C72,6.9,71.9,7.1,71.9,7.5z"/>
	<path class="st0" d="M76.5,8.8V2h0.7v1.7c0,0.4,0,0.7,0,1h0c0.3-0.5,0.8-0.7,1.5-0.7c0.6,0,1.1,0.2,1.5,0.6s0.5,1,0.5,1.8
		s-0.2,1.4-0.5,1.8c-0.4,0.4-0.8,0.7-1.5,0.7c-0.3,0-0.6-0.1-0.9-0.2c-0.3-0.1-0.5-0.3-0.7-0.5h-0.1L77,8.8H76.5z M77.2,6.4
		c0,0.7,0.1,1.2,0.3,1.5c0.2,0.3,0.6,0.4,1.1,0.4c0.4,0,0.8-0.2,1-0.5S80,7,80,6.4c0-0.6-0.1-1.1-0.3-1.4s-0.6-0.5-1-0.5
		c-0.5,0-0.9,0.1-1.1,0.4C77.3,5.2,77.2,5.7,77.2,6.4z"/>
	<path class="st0" d="M81.9,2.7c0-0.2,0-0.3,0.1-0.4c0.1-0.1,0.2-0.1,0.3-0.1c0.1,0,0.2,0,0.3,0.1c0.1,0.1,0.1,0.2,0.1,0.4
		s0,0.3-0.1,0.4c-0.1,0.1-0.2,0.1-0.3,0.1c-0.1,0-0.2,0-0.3-0.1C82,3,81.9,2.8,81.9,2.7z M82,8.8V4h0.7v4.8H82z"/>
	<path class="st0" d="M84,6.4c0-0.8,0.2-1.4,0.6-1.8c0.4-0.4,0.9-0.7,1.6-0.7c0.7,0,1.2,0.2,1.6,0.7c0.4,0.4,0.6,1.1,0.6,1.8
		c0,0.8-0.2,1.4-0.6,1.8c-0.4,0.4-0.9,0.7-1.6,0.7c-0.4,0-0.8-0.1-1.1-0.3s-0.6-0.5-0.8-0.9C84.1,7.3,84,6.9,84,6.4z M84.7,6.4
		c0,0.6,0.1,1.1,0.4,1.4c0.2,0.3,0.6,0.5,1.1,0.5s0.8-0.2,1.1-0.5c0.2-0.3,0.4-0.8,0.4-1.4c0-0.6-0.1-1.1-0.4-1.4
		c-0.2-0.3-0.6-0.5-1.1-0.5c-0.5,0-0.8,0.2-1.1,0.5C84.9,5.3,84.7,5.8,84.7,6.4z"/>
	<path class="st0" d="M89.6,8.3c0-0.2,0-0.3,0.1-0.4c0.1-0.1,0.2-0.2,0.4-0.2c0.2,0,0.3,0.1,0.4,0.2c0.1,0.1,0.1,0.2,0.1,0.4
		c0,0.2,0,0.3-0.1,0.4s-0.2,0.2-0.4,0.2c-0.1,0-0.3,0-0.4-0.1C89.6,8.7,89.6,8.6,89.6,8.3z"/>
	<path class="st0" d="M91.5,9.6c0-0.3,0.1-0.5,0.3-0.8s0.4-0.4,0.8-0.4c-0.1-0.1-0.2-0.1-0.3-0.3c-0.1-0.1-0.1-0.3-0.1-0.4
		c0-0.2,0-0.3,0.1-0.5s0.2-0.3,0.4-0.4c-0.3-0.1-0.5-0.3-0.6-0.5s-0.2-0.5-0.2-0.8c0-0.5,0.2-0.9,0.5-1.2c0.3-0.3,0.8-0.4,1.3-0.4
		c0.3,0,0.5,0,0.7,0.1H96v0.5l-0.9,0.1c0.1,0.1,0.2,0.2,0.2,0.4c0.1,0.2,0.1,0.4,0.1,0.6c0,0.5-0.2,0.8-0.5,1.1s-0.8,0.4-1.3,0.4
		c-0.1,0-0.3,0-0.4,0c-0.3,0.2-0.5,0.4-0.5,0.6c0,0.1,0.1,0.2,0.2,0.3S93.2,8,93.5,8h0.9c0.5,0,0.9,0.1,1.2,0.3
		C95.8,8.6,96,8.9,96,9.3c0,0.5-0.2,0.9-0.6,1.2s-1,0.4-1.9,0.4c-0.6,0-1.1-0.1-1.4-0.4C91.7,10.4,91.5,10,91.5,9.6z M92.2,9.6
		c0,0.3,0.1,0.5,0.3,0.6c0.2,0.1,0.5,0.2,0.9,0.2c0.6,0,1.1-0.1,1.4-0.3s0.4-0.4,0.4-0.7c0-0.3-0.1-0.4-0.2-0.5
		c-0.2-0.1-0.5-0.2-0.9-0.2h-0.9c-0.3,0-0.6,0.1-0.8,0.2C92.3,9.1,92.2,9.3,92.2,9.6z M92.6,5.5c0,0.3,0.1,0.6,0.3,0.8
		c0.2,0.2,0.5,0.3,0.8,0.3c0.7,0,1.1-0.3,1.1-1c0-0.7-0.4-1.1-1.1-1.1c-0.3,0-0.6,0.1-0.8,0.3C92.7,4.9,92.6,5.2,92.6,5.5z"/>
</g>
</svg>
