<?xml version="1.0" encoding="utf-8"?>
<!-- Generator: Adobe Illustrator 19.2.1, SVG Export Plug-In . SVG Version: 6.00 Build 0)  -->
<svg version="1.1" id="Capa_1" xmlns="http://www.w3.org/2000/svg" xmlns:xlink="http://www.w3.org/1999/xlink" x="0px" y="0px"
	 viewBox="0 0 123.9 12.4" style="enable-background:new 0 0 123.9 12.4;" xml:space="preserve">
<style type="text/css">
	.st0{fill:#444444;}
</style>
<g>
	<path class="st0" d="M35.3,2.7c0-0.2,0-0.3,0.1-0.4s0.2-0.1,0.3-0.1c0.1,0,0.2,0,0.3,0.1c0.1,0.1,0.1,0.2,0.1,0.4s0,0.3-0.1,0.4
		c-0.1,0.1-0.2,0.1-0.3,0.1c-0.1,0-0.2,0-0.3-0.1C35.3,3,35.3,2.8,35.3,2.7z M35.3,8.8V4H36v4.8H35.3z"/>
	<path class="st0" d="M37.3,6.4c0-0.8,0.2-1.4,0.5-1.9c0.3-0.4,0.8-0.7,1.5-0.7c0.7,0,1.2,0.2,1.5,0.7h0.1l0-0.3l0-0.3V2h0.7v6.8H41
		l-0.1-0.6h0c-0.3,0.5-0.8,0.7-1.5,0.7c-0.6,0-1.1-0.2-1.5-0.6C37.5,7.8,37.3,7.2,37.3,6.4z M38.1,6.4c0,0.6,0.1,1.1,0.3,1.4
		c0.2,0.3,0.6,0.5,1,0.5c0.5,0,0.9-0.1,1.1-0.4c0.2-0.3,0.3-0.7,0.3-1.3V6.4c0-0.7-0.1-1.2-0.3-1.5c-0.2-0.3-0.6-0.4-1.1-0.4
		c-0.4,0-0.8,0.2-1,0.5C38.2,5.3,38.1,5.8,38.1,6.4z"/>
	<path class="st0" d="M42.8,7.5c0-1,0.8-1.5,2.3-1.5l0.8,0V5.6c0-0.4-0.1-0.7-0.2-0.8c-0.2-0.2-0.4-0.3-0.8-0.3
		c-0.4,0-0.9,0.1-1.4,0.4l-0.2-0.6c0.2-0.1,0.5-0.2,0.8-0.3c0.3-0.1,0.6-0.1,0.8-0.1c0.6,0,1,0.1,1.3,0.4s0.4,0.7,0.4,1.2v3.3h-0.5
		l-0.1-0.7h0c-0.2,0.3-0.5,0.5-0.7,0.6c-0.2,0.1-0.5,0.2-0.9,0.2c-0.5,0-0.9-0.1-1.1-0.4C42.9,8.3,42.8,7.9,42.8,7.5z M43.5,7.5
		c0,0.3,0.1,0.5,0.2,0.6s0.4,0.2,0.7,0.2c0.5,0,0.8-0.1,1.1-0.4c0.3-0.2,0.4-0.6,0.4-1.1V6.4l-0.7,0c-0.6,0-1,0.1-1.3,0.3
		C43.7,6.9,43.5,7.1,43.5,7.5z"/>
	<path class="st0" d="M47.9,6.3c0-0.8,0.2-1.4,0.5-2c0.3-0.6,0.8-1.1,1.3-1.4s1.2-0.5,2-0.5c0.6,0,1.2,0.1,1.7,0.4
		c0.5,0.3,0.9,0.6,1.1,1.1c0.3,0.5,0.4,1.1,0.4,1.7c0,0.4-0.1,0.8-0.2,1.1s-0.3,0.6-0.5,0.8c-0.2,0.2-0.5,0.3-0.8,0.3
		c-0.3,0-0.5-0.1-0.6-0.2S52.4,7.3,52.4,7h0c-0.1,0.3-0.3,0.4-0.5,0.6s-0.5,0.2-0.8,0.2c-0.4,0-0.8-0.1-1-0.4s-0.4-0.7-0.4-1.2
		c0-0.6,0.2-1.1,0.5-1.5c0.3-0.4,0.8-0.6,1.4-0.6c0.2,0,0.4,0,0.7,0.1c0.3,0,0.5,0.1,0.7,0.1l-0.1,2.1v0.1c0,0.5,0.2,0.8,0.6,0.8
		c0.3,0,0.5-0.2,0.7-0.5s0.3-0.7,0.3-1.2c0-0.5-0.1-1-0.3-1.4c-0.2-0.4-0.5-0.7-0.9-0.9C52.6,3.1,52.2,3,51.7,3
		C51,3,50.5,3.1,50,3.4S49.1,4,48.9,4.5c-0.3,0.5-0.4,1.1-0.4,1.7c0,0.9,0.2,1.6,0.7,2.1c0.5,0.5,1.1,0.7,2,0.7
		c0.6,0,1.3-0.1,1.9-0.4v0.6c-0.6,0.2-1.2,0.4-1.9,0.4c-1.1,0-1.9-0.3-2.5-0.9S47.9,7.3,47.9,6.3z M50.3,6.2c0,0.7,0.3,1.1,0.9,1.1
		c0.6,0,0.9-0.5,1-1.4l0.1-1.2c-0.2-0.1-0.4-0.1-0.7-0.1c-0.4,0-0.7,0.1-0.9,0.4S50.3,5.7,50.3,6.2z"/>
	<path class="st0" d="M56,6.4c0-0.8,0.2-1.4,0.6-1.9c0.4-0.4,0.9-0.7,1.7-0.7c0.2,0,0.5,0,0.7,0.1s0.4,0.1,0.5,0.2l-0.2,0.6
		c-0.2-0.1-0.3-0.1-0.5-0.2s-0.4-0.1-0.5-0.1c-1,0-1.5,0.6-1.5,1.9c0,0.6,0.1,1,0.4,1.4c0.2,0.3,0.6,0.5,1.1,0.5
		c0.4,0,0.8-0.1,1.2-0.3v0.6c-0.3,0.2-0.7,0.3-1.2,0.3c-0.7,0-1.2-0.2-1.6-0.6C56.1,7.8,56,7.2,56,6.4z"/>
	<path class="st0" d="M60.2,6.4c0-0.8,0.2-1.4,0.6-1.8c0.4-0.4,0.9-0.7,1.6-0.7c0.7,0,1.2,0.2,1.6,0.7c0.4,0.4,0.6,1.1,0.6,1.8
		c0,0.8-0.2,1.4-0.6,1.8c-0.4,0.4-0.9,0.7-1.6,0.7c-0.4,0-0.8-0.1-1.1-0.3s-0.6-0.5-0.8-0.9C60.3,7.3,60.2,6.9,60.2,6.4z M61,6.4
		c0,0.6,0.1,1.1,0.4,1.4c0.2,0.3,0.6,0.5,1.1,0.5s0.8-0.2,1.1-0.5c0.2-0.3,0.4-0.8,0.4-1.4c0-0.6-0.1-1.1-0.4-1.4
		c-0.2-0.3-0.6-0.5-1.1-0.5c-0.5,0-0.8,0.2-1.1,0.5C61.1,5.3,61,5.8,61,6.4z"/>
</g>
</svg>
