<?xml version="1.0" encoding="utf-8"?>
<!-- Generator: Adobe Illustrator 19.2.1, SVG Export Plug-In . SVG Version: 6.00 Build 0)  -->
<svg version="1.1" id="Capa_1" xmlns="http://www.w3.org/2000/svg" xmlns:xlink="http://www.w3.org/1999/xlink" x="0px" y="0px"
	 viewBox="0 0 123.9 12.4" style="enable-background:new 0 0 123.9 12.4;" xml:space="preserve">
<style type="text/css">
	.st0{fill:#444444;}
</style>
<g>
	<path class="st0" d="M1.6,6.4c0-0.8,0.2-1.4,0.6-1.9c0.4-0.5,0.9-0.7,1.5-0.7c0.6,0,1.1,0.2,1.4,0.6c0.4,0.4,0.5,0.9,0.5,1.6v0.5
		H2.4c0,0.6,0.2,1,0.4,1.3s0.7,0.4,1.1,0.4c0.5,0,1-0.1,1.5-0.3v0.7C5.2,8.7,5,8.8,4.7,8.8c-0.2,0-0.5,0.1-0.8,0.1
		c-0.7,0-1.3-0.2-1.7-0.7S1.6,7.2,1.6,6.4z M2.4,5.9h2.5c0-0.5-0.1-0.8-0.3-1.1C4.4,4.6,4.1,4.5,3.7,4.5C3.3,4.5,3,4.6,2.8,4.9
		S2.4,5.5,2.4,5.9z"/>
	<path class="st0" d="M6.9,8.8V4h0.6l0.1,0.7h0C7.8,4.4,8,4.2,8.3,4.1s0.6-0.2,0.9-0.2c0.6,0,1,0.1,1.3,0.4s0.4,0.7,0.4,1.3v3.1
		h-0.7V5.7c0-0.4-0.1-0.7-0.3-0.9S9.5,4.5,9.1,4.5C8.6,4.5,8.2,4.6,8,4.9S7.7,5.6,7.7,6.3v2.5H6.9z"/>
	<path class="st0" d="M12.2,6.4c0-0.8,0.2-1.4,0.6-1.9s0.9-0.7,1.7-0.7c0.2,0,0.5,0,0.7,0.1s0.4,0.1,0.5,0.2l-0.2,0.6
		c-0.2-0.1-0.3-0.1-0.5-0.2s-0.4-0.1-0.5-0.1c-1,0-1.5,0.6-1.5,1.9c0,0.6,0.1,1,0.4,1.4s0.6,0.5,1.1,0.5c0.4,0,0.8-0.1,1.2-0.3v0.6
		c-0.3,0.2-0.7,0.3-1.2,0.3c-0.7,0-1.2-0.2-1.6-0.6S12.2,7.2,12.2,6.4z"/>
	<path class="st0" d="M16.7,2.7c0-0.2,0-0.3,0.1-0.4s0.2-0.1,0.3-0.1c0.1,0,0.2,0,0.3,0.1c0.1,0.1,0.1,0.2,0.1,0.4s0,0.3-0.1,0.4
		c-0.1,0.1-0.2,0.1-0.3,0.1c-0.1,0-0.2,0-0.3-0.1C16.7,3,16.7,2.8,16.7,2.7z M16.7,8.8V4h0.7v4.8H16.7z"/>
	<path class="st0" d="M18.7,6.4c0-0.8,0.2-1.4,0.6-1.9s0.9-0.7,1.7-0.7c0.2,0,0.5,0,0.7,0.1s0.4,0.1,0.5,0.2L22,4.8
		c-0.2-0.1-0.3-0.1-0.5-0.2S21.1,4.5,21,4.5c-1,0-1.5,0.6-1.5,1.9c0,0.6,0.1,1,0.4,1.4s0.6,0.5,1.1,0.5c0.4,0,0.8-0.1,1.2-0.3v0.6
		c-0.3,0.2-0.7,0.3-1.2,0.3c-0.7,0-1.2-0.2-1.6-0.6S18.7,7.2,18.7,6.4z"/>
	<path class="st0" d="M23.3,8.8V2H24v6.8H23.3z"/>
	<path class="st0" d="M25.3,6.4c0-0.8,0.2-1.4,0.6-1.8c0.4-0.4,0.9-0.7,1.6-0.7c0.7,0,1.2,0.2,1.6,0.7c0.4,0.4,0.6,1.1,0.6,1.8
		c0,0.8-0.2,1.4-0.6,1.8c-0.4,0.4-0.9,0.7-1.6,0.7c-0.4,0-0.8-0.1-1.1-0.3c-0.3-0.2-0.6-0.5-0.8-0.9C25.4,7.3,25.3,6.9,25.3,6.4z
		 M26,6.4c0,0.6,0.1,1.1,0.4,1.4c0.2,0.3,0.6,0.5,1.1,0.5c0.5,0,0.8-0.2,1.1-0.5C28.8,7.5,29,7,29,6.4c0-0.6-0.1-1.1-0.4-1.4
		c-0.2-0.3-0.6-0.5-1.1-0.5c-0.5,0-0.8,0.2-1.1,0.5C26.2,5.3,26,5.8,26,6.4z"/>
	<path class="st0" d="M30.1,4h0.8l1,2.9c0.2,0.7,0.4,1.1,0.4,1.3h0c0-0.2,0.1-0.5,0.3-1c0.2-0.5,0.6-1.6,1.2-3.2h0.8l-1.8,4.8h-0.9
		L30.1,4z"/>	
</g>
</svg>
