<?xml version="1.0" encoding="utf-8"?>
<!-- Generator: Adobe Illustrator 22.1.0, SVG Export Plug-In . SVG Version: 6.00 Build 0)  -->
<svg version="1.1"
	 id="svg8" inkscape:version="0.92.4 (5da689c313, 2019-01-14)" sodipodi:docname="annelida.svg" xmlns:cc="http://creativecommons.org/ns#" xmlns:dc="http://purl.org/dc/elements/1.1/" xmlns:inkscape="http://www.inkscape.org/namespaces/inkscape" xmlns:rdf="http://www.w3.org/1999/02/22-rdf-syntax-ns#" xmlns:sodipodi="http://sodipodi.sourceforge.net/DTD/sodipodi-0.dtd" xmlns:svg="http://www.w3.org/2000/svg"
	 xmlns="http://www.w3.org/2000/svg" xmlns:xlink="http://www.w3.org/1999/xlink" x="0px" y="0px" viewBox="0 0 2267.7 2267.7"
	 style="enable-background:new 0 0 2267.7 2267.7;" xml:space="preserve">
<style type="text/css">
	.st0{fill:none;stroke:#000000;stroke-width:0.2646;}
</style>
<sodipodi:namedview  bordercolor="#666666" borderopacity="1.0" id="base" inkscape:current-layer="layer1" inkscape:cx="1480.0147" inkscape:cy="690.1654" inkscape:document-units="mm" inkscape:pageopacity="0.0" inkscape:pageshadow="2" inkscape:window-height="962" inkscape:window-maximized="1" inkscape:window-width="1280" inkscape:window-x="-8" inkscape:window-y="-8" inkscape:zoom="0.1400905" pagecolor="#ffffff" showgrid="false">
	</sodipodi:namedview>
<path id="path3713" inkscape:connector-curvature="0" class="st0" d="M2228.3,1863.5c-49.6,176.4-242.7,279.7-415.7,283
	c-120,0-242.6-20.4-353-56.8c-155.7-54.5-289-148.8-349.9-321.5c-57.5-159.8-57.7-317.4-29.7-481.4c15.7-85.6,13-83.4-65.5-75.7
	c-35.4,3.1-66.5,11.7-98.8,30.1c-59.1,32.6-124.1,32-189.6,36.2c-87.7,1.5-179.5,15-270-1.3c-34.2-6.8-70.8-13.9-105-20.7
	c-48.9-8.6-43.4-53-51.7-86.5c-6.5-28.3,1.2-49.9,31.4-71.1c97.9-62.8,202-114.7,310-158.7c118.5-47.7,249-51.3,377.4-37.7
	c14.8,1.9,29.5,3.7,41.9,5.2c39.1,7.4,44.6-16.9,32.6-40.9C1040,769,1058.5,641.3,988.6,560c-272.3-321.8-592.5-61.8-620.2-40.3
	c-83.8,69.5-171.8,133.5-270.3,181.2c-28.9,11.4-48.9,11.4-72-4C3,681.5,3.3,659,11.3,635c29-111.4,92.4-198.5,170-278.8
	c71.4-71.1,146.9-134.2,245.4-161.8c36.3-10.5,66.2-29.2,98.2-45.2c50.8-26.1,104.4-34.4,157.6-20.3
	c93.9,29.3,193.3,34.2,284.1,68.1c133.9,49.3,205.6,155.8,265.2,278.4c57.5,119.8,107,243.5,115,379.6c1.5,27.7,15.4,36.9,43.4,33
	c98.5-7.7,199.5,5,294.6,24.4c112,24.1,215.1,79.5,312.1,144.2C2258.4,1224.4,2302.6,1610.1,2228.3,1863.5z M816.4,996.1
	c-20.6-15.1-109,11.3-169.6,16.2c-61,7.4-75.4,23.1-127.5,39c-54.2,13.2-130.5,63.7-130.5,63.7c-21,47.4,17.5,79.7,17.5,79.7
	s83.4,13,130.5,16.4c47.4,0.9,114.2-13.2,114.2-13.2s169-31.3,187.8-41.5C860.1,1146.6,837.3,1008.7,816.4,996.1z M1408.9,1077.9
	c0,0,112.3,21.6,136,32.1c26.2,10.8,87.4,41,108.6,51.1c18.8,9.9,90.5,36.4,111.1,51.4c23.4,12.9,36.3,29.6,52,44
	c18.5,12.3,93.3-5.8,113-23.4c22.5-19.7,41.3-69.9,41.3-69.9s-39.7-42.5-55.4-57c-16-12-83.4-53-123.4-73
	c-37.9-17.3-41.2-30.2-205.6-55.8c-164.7-23.1-189-8.7-189-8.7C1386.2,980,1408.9,1077.9,1408.9,1077.9z M1996,1621.7
	c-49.5-83.7-96.9-164.7-168.6-231.2c-49.2-46.2-107.4-81-160-120.1c-73.5-51.7-156.6-87.2-243.4-113.1c-33.9-9.2-52.9,3.4-57.3,37.8
	c-4.3,34.5-8.6,68.9-17.9,102.8c-21.6,112.3-31.2,228.7,2.6,338c26.4,88.4,75.7,174.6,180.3,197.7c78.2,14.8,373.3,94.3,466.1-166.7
	C2006.3,1645.4,1996,1621.7,1996,1621.7z"/>
</svg>
