<?xml version="1.0" encoding="utf-8"?>
<!-- Generator: Adobe Illustrator 22.1.0, SVG Export Plug-In . SVG Version: 6.00 Build 0)  -->
<svg version="1.1"
	 id="svg8" inkscape:version="0.92.4 (5da689c313, 2019-01-14)" sodipodi:docname="apendice-ii.svg" xmlns:cc="http://creativecommons.org/ns#" xmlns:dc="http://purl.org/dc/elements/1.1/" xmlns:inkscape="http://www.inkscape.org/namespaces/inkscape" xmlns:rdf="http://www.w3.org/1999/02/22-rdf-syntax-ns#" xmlns:sodipodi="http://sodipodi.sourceforge.net/DTD/sodipodi-0.dtd" xmlns:svg="http://www.w3.org/2000/svg"
	 xmlns="http://www.w3.org/2000/svg" xmlns:xlink="http://www.w3.org/1999/xlink" x="0px" y="0px" viewBox="0 0 2267.7 2267.7"
	 style="enable-background:new 0 0 2267.7 2267.7;" xml:space="preserve">
<style type="text/css">
	.st0{fill:none;stroke:#000000;stroke-width:0.2646;}
</style>
<sodipodi:namedview  bordercolor="#666666" borderopacity="1.0" id="base" inkscape:current-layer="layer1" inkscape:cx="1188.0825" inkscape:cy="940.52369" inkscape:document-units="mm" inkscape:pageopacity="0.0" inkscape:pageshadow="2" inkscape:window-height="962" inkscape:window-maximized="1" inkscape:window-width="1280" inkscape:window-x="-8" inkscape:window-y="-8" inkscape:zoom="0.1400905" pagecolor="#ffffff" showgrid="false">
	</sodipodi:namedview>
<path id="path3713" inkscape:connector-curvature="0" class="st0" d="M2263.6,1145.1c-5.1,295.3-120.7,570.1-333.8,775.5
	c-146.4,161.8-339,264.5-552.1,310.7c-359.5,82.2-731.9-12.8-1001.5-264.5c-179.8-154.1-300.5-359.5-346.7-590.6
	c-82.2-354.4,12.8-731.9,269.6-1001.5C460.9,195,671.5,66.6,910.3,20.3c51.4-5.1,107.9-12.8,166.9-12.8h1135
	c51.4,0,51.4,0,51.4,51.4C2263.6,426.1,2271.3,785.6,2263.6,1145.1z M1852.7,682.9h110.4V174.4h-110.4V682.9z M1621.6,682.9H1732
	V174.4h-110.4V682.9z M769,1003.9c30.8-20.5,69.3-25.7,102.7-25.7c30.8,5.1,64.2,12.8,89.9,30.8c18-56.5,38.5-115.6,56.5-179.8
	c-51.4-25.7-102.7-38.5-154.1-43.7c-56.5-7.7-115.6,0-172.1,18C594.4,837,525.1,901.2,486.6,991c-25.7,51.4-33.4,102.7-33.4,159.2
	c0,59.1,20.5,110.4,46.2,154.1c25.7,38.5,56.5,77,95,102.7c38.5,25.7,84.7,51.4,128.4,64.2c-43.7,20.5-95,25.7-141.2,25.7
	c-43.7,0-89.9-12.8-133.5-25.7c-71.9-30.8-141.2-69.3-200.3-120.7c77,115.6,200.3,197.7,333.8,223.4c46.2,12.8,84.7,12.8,128.4,7.7
	c38.5,0,71.9-12.8,110.4-25.7c56.5-20.5,115.6-46.2,159.2-84.7c7.7,0,12.8-12.8,12.8-18c-5.1,5.1-18,18-30.8,25.7
	c-46.2,25.7-84.7,43.7-128.4,64.2c-64.2,30.8-141.2,43.7-213.1,38.5c-38.5-7.7-69.3-12.8-102.7-25.7
	c-82.2-33.4-159.2-84.7-223.4-154.1c77,64.2,172.1,95,269.6,107.9c38.5,0,77-5.1,115.6-12.8c64.2-5.1,128.4-30.8,179.8-69.3
	c38.5-20.5,77-46.2,107.9-77c12.8-12.8,25.7-20.5,33.4-33.4c0-5.1,0-18,0-25.7v-77c-46.2,46.2-110.4,71.9-174.6,71.9
	c-30.8-7.7-64.2-20.5-89.9-38.5c-25.7-20.5-43.7-46.2-51.4-77C666.3,1106.6,697.1,1034.7,769,1003.9z M1321.2,1658.7h-123.3v-495.6
	h-95v629.2c69.3,0,146.4,0,218.3,0C1313.5,1740.9,1313.5,1697.2,1321.2,1658.7z M1475.2,1599.6c0-166.9,0-333.8,0-493
	c64.2,0,128.4,0,184.9,0c-18-64.2-43.7-136.1-64.2-200.3h-475.1c-25.7,64.2-43.7,136.1-64.2,200.3h192.6v493L1475.2,1599.6
	L1475.2,1599.6z M1801.4,1612.5c-51.4,0-107.9,0-166.9,0v-82.2h71.9l38.5-166.9h-102.7c0-25.7,0-51.4,0-77h179.8
	c-20.5-71.9-46.2-141.2-71.9-213.1h-51.4l7.7,12.8l18,64.2h-64.2h-141.2c0,51.4,0,97.6,0,141.2c0,102.7,0,205.4,0,308.2v46.2h-115.6
	v141.2h359.5C1770.6,1735.7,1788.5,1676.7,1801.4,1612.5z M2006.8,1568.8c7.7-25.7,12.8-51.4,20.5-84.7c0-30.8-7.7-64.2-25.7-95
	c-25.7-46.2-46.2-84.7-64.2-136.1c-20.5-25.7-25.7-51.4-25.7-82.2c5.1-20.5,30.8-38.5,56.5-38.5c20.5,0,33.4,5.1,46.2,18h5.1
	c-18-56.5-43.7-115.6-64.2-172.1c-38.5-20.5-77-25.7-115.6-25.7c-51.4,5.1-95,38.5-120.7,82.2h64.2l12.8,33.4l5.1,51.4
	c20.5,56.5,38.5,107.9,59.1,166.9l18,64.2h-89.9l-5.1,38.5l-7.7,12.8l7.7,5.1c5.1,12.8,5.1,20.5,12.8,33.4c5.1,18,0,43.7-20.5,51.4
	c-5.1,0-12.8,0-18,0l-12.8,56.5l-7.7,25.7h123.3l-12.8,59.1l-7.7,18C1911.8,1663.8,1976,1633,2006.8,1568.8"/>
</svg>
