<?xml version="1.0" encoding="utf-8"?>
<!-- Generator: Adobe Illustrator 22.1.0, SVG Export Plug-In . SVG Version: 6.00 Build 0)  -->
<svg version="1.1"
	 id="svg8" inkscape:version="0.92.4 (5da689c313, 2019-01-14)" sodipodi:docname="casi-amenazado-nt-evaluacion-conabio.svg" xmlns:cc="http://creativecommons.org/ns#" xmlns:dc="http://purl.org/dc/elements/1.1/" xmlns:inkscape="http://www.inkscape.org/namespaces/inkscape" xmlns:rdf="http://www.w3.org/1999/02/22-rdf-syntax-ns#" xmlns:sodipodi="http://sodipodi.sourceforge.net/DTD/sodipodi-0.dtd" xmlns:svg="http://www.w3.org/2000/svg"
	 xmlns="http://www.w3.org/2000/svg" xmlns:xlink="http://www.w3.org/1999/xlink" x="0px" y="0px" viewBox="0 0 2267.7 2267.7"
	 style="enable-background:new 0 0 2267.7 2267.7;" xml:space="preserve">
<style type="text/css">
	.st0{fill:none;stroke:#000000;stroke-width:0.2646;}
</style>
<sodipodi:namedview  bordercolor="#666666" borderopacity="1.0" id="base" inkscape:current-layer="layer1" inkscape:cx="1988.9756" inkscape:cy="1991.7351" inkscape:document-units="mm" inkscape:pageopacity="0.0" inkscape:pageshadow="2" inkscape:window-height="962" inkscape:window-maximized="1" inkscape:window-width="1280" inkscape:window-x="-8" inkscape:window-y="-8" inkscape:zoom="0.14369886" pagecolor="#ffffff" showgrid="false">
	</sodipodi:namedview>
<path class="st0" d="M1133.9,9.2C576.3,9.2,124.4,461.1,124.4,1018.8c0,246,88.1,471.5,234.4,646.6h-1.5
	c298,353.2,776.8,593.2,776.8,593.2s478.9-239.9,776.9-593.2h-1.9c146.3-175.1,234.3-400.6,234.3-646.6
	C2143.4,461.1,1691.4,9.2,1133.9,9.2z M1126.5,1471.9H944.3L650.2,960.5H646c5.9,90.3,8.8,154.7,8.8,193.3v318.1H526.8v-676h180.8
	l293.6,506.3h3.2c-4.6-87.9-6.9-150-6.9-186.4V795.9h129L1126.5,1471.9L1126.5,1471.9z M1741,915.1h-183.6v556.7h-143.3V915.1
	h-183.6V795.9H1741V915.1z"/>
</svg>
