<?xml version="1.0" encoding="utf-8"?>
<!-- Generator: Adobe Illustrator 14.0.0, SVG Export Plug-In . SVG Version: 6.00 Build 43363)  -->
<!DOCTYPE svg PUBLIC "-//W3C//DTD SVG 1.1//EN" "http://www.w3.org/Graphics/SVG/1.1/DTD/svg11.dtd">
<svg version="1.1"
	 id="svg8" sodipodi:docname="cnidaria.svg" inkscape:version="0.92.4 (5da689c313, 2019-01-14)" xmlns:dc="http://purl.org/dc/elements/1.1/" xmlns:cc="http://creativecommons.org/ns#" xmlns:rdf="http://www.w3.org/1999/02/22-rdf-syntax-ns#" xmlns:svg="http://www.w3.org/2000/svg" xmlns:sodipodi="http://sodipodi.sourceforge.net/DTD/sodipodi-0.dtd" xmlns:inkscape="http://www.inkscape.org/namespaces/inkscape"
	 xmlns="http://www.w3.org/2000/svg" xmlns:xlink="http://www.w3.org/1999/xlink" x="0px" y="0px" width="2267.717px"
	 height="2267.717px" viewBox="-274.513 -36.633 2267.717 2267.717" enable-background="new -274.513 -36.633 2267.717 2267.717"
	 xml:space="preserve">
<sodipodi:namedview  id="base" inkscape:window-height="962" inkscape:document-units="mm" inkscape:window-x="-8" inkscape:window-y="-8" inkscape:pageopacity="0.0" inkscape:pageshadow="2" inkscape:current-layer="layer1" inkscape:window-width="1280" inkscape:window-maximized="1" borderopacity="1.0" bordercolor="#666666" showgrid="false" pagecolor="#ffffff" inkscape:cy="790.30958" inkscape:cx="857.45673" inkscape:zoom="0.1400905">
	</sodipodi:namedview>
<g id="layer1" transform="translate(-237.73947,25.765715)" inkscape:groupmode="layer" inkscape:label="Capa 1">
	<path id="path3713_2_" inkscape:connector-curvature="0" fill="none" stroke="#000000" stroke-width="0.2646" d="M765.86,1610.867
		c-60.258-20.394-138.005-28.799-163.326-121.989c-22.177-77.354-76.03-148.412-152.525-196.24
		c-38.521-22.439-65.955-6.204-93.389,10.032c-30.932,18.634-42.328,47.012-30.69,82.742
		c10.538,41.622,27.521,81.398,38.608,120.074c21.625,80.299,0.836,109.977-80.762,122.209
		c-18.788,2.595-40.523,4.641-56.914,10.733c-45.671,15.885-94.292,31.22-125.025,65.144
		c-37.73,38.718-31.043,100.979,2.529,149.951c30.624,48.421,79.045,17.797,113.124,15.003
		c93.389-10.032,178.639-58.188,278.671-54.778c103.533,1.015,201.717-2.023,289.101,69.19
		c16.038,12.146,37.971,25.388,59.158,26.291c57.111,4.554,96.38,39.336,138.599,74.669c26.179,23.188,55.307,46.925,82.036,67.166
		c68.947,55.571,148.19,88.659,226.334,127.643c33.176,18.393,67.451,30.889,91.937,14.104
		c31.481-21.581,23.893-62.655,12.256-98.384c-40.26-111.23-80.52-222.462-127.223-331.846
		c-12.188-32.779-47.014-42.327-52.206-79.902c-17.028-88.596-33.504-180.138-73.368-260.787
		c-10.89-23.386-22.33-43.825-30.271-66.66c-12.386-48.071,6.203-65.955,52.073-66.55c48.817-0.044,97.834,15.203,146.103,18.106
		c92.485,11.154,184.777,7.02,271.322-31.744c69.608-29.721,134.971-69.387,200.333-109.051
		c20.987-14.39,32.779-12.189,51.766,0.506c21.385,16.191,29.325,39.028,47.21,57.618c17.886,18.588,40.567,44.175,70.399,31.438
		c29.831-12.738,32.385-42.768,29.041-73.897c-3.894-28.182-4.291-58.763-17.579-85.646c-8.49-19.888-5.189-37.575,15.246-49.016
		c51.922-33.021,63.473-94.928,91.059-144.692c12.695-18.985,0.155-33.527-6.49-46.971c-11.988-17.489-29.479-5.499-39.421-1.254
		c-36.28,14.586-58.919,37.819-83.204,69.894c-2.047-21.735-8.689-35.177-5.941-49.917c7.151-38.323-6.137-65.208-45.012-69.41
		c-38.873-4.203-60.961,16.082-70.509,50.907c-23.145,74.998-43.34,150.545-133.584,176.417
		c-60.961,16.08-112.135,61.445-182.137,60.585c33.439-97.479,82.367-179.868,123.002-266.856
		c75.569-159.786,150.591-316.622,239.8-467.761c62.175-104.324,116.602-216.191,89.038-346.409
		c-8.69-35.178-17.932-67.408-60.302-69.212c-38.875-4.203-50.822,27.126-57.422,62.501c-3.85,20.635-7.699,41.271-12.1,64.855
		c-18.15,97.284-41.536,108.173-131.471,66.989c-86.987-40.634-175.074-75.373-276.561-54.649
		c-15.84,3.146-30.58,0.396-33.881,18.084c-6.246,17.138,2.794,34.077,14.036,39.226c39.073,19.491,68.397,58.521,110.22,63.271
		c61.907,11.55,103.575,49.831,148.741,85.712c32.074,24.289,32.471,54.868,10.581,90.442
		c-73.768,117.413-152.878,230.777-210.056,357.387c-38.788,93.433-85.868,182.267-129.999,271.652
		c-8.647,13.642-9.9,53.066-43.078,34.672c-42.02-20.043-84.39-21.845-125.662-29.545c-29.479-5.5-39.07-19.493-39.468-50.072
		c-4.641-40.524,12.454-83.095,4.313-121.219c-24.022-83.798-10.47-172.787-4.463-254.033
		c6.557-84.194-1.079-174.085,23.717-257.925c15.247-49.016-14.079-88.043-57.947-114.532
		c-32.625-21.34-66.352-36.785-105.379-7.459c-42.526,31.725-76.758,68.045-60.126,126.06
		c11.836,51.018-28.292,86.239-45.386,128.809c-1.65,8.843-21.538,17.335-44.572,9.987c-31.328-11.947-69.652-19.096-105.027-25.697
		c-38.323-7.149-111.98,27.918-122.825,53.35c-15.796,51.964,4.135,92.289,65.691,122.078c44.417,23.54,85.888,46.53,126.807,72.468
		c24.882,13.795,41.667,38.28,30.272,66.66c-14.894,30.777-26.291,59.157-26.994,95.633c3.146,15.84-7.349,23.033-18.041,14.938
		c-46.815-27.038-103.18-19.25-148.146-39.843c-36.674-15.995-88.439-16.501-105.973-53.328
		c-27.874-63.162-84.084-88.901-135.695-122.937c-37.972-25.388-69.652-19.096-102.784,11.33
		c-39.578,32.275-27.39,65.054-15.752,100.782c10.34,26.333,31.724,42.526,49.608,61.116c20.835,19.14,31.174,45.474,12.584,63.36
		c-36.08,29.875-48.379,79.442-78.563,110.417c-22.088,20.282-27.588,49.764-13.75,73.699c14.938,18.039,36.871,31.283,68.001,27.94
		c48.818-0.044,84.348-26.972,121.726-47.455c17.491-11.99,33.88-18.083,53.966-11.286c85.139,34.188,175.427,57.135,264.614,85.978
		c31.878,8.998,62.105,26.84,75.042,71.962c7.391,25.784-2.355,45.319,5.587,68.155c34.012,128.37,55.13,260.434,73.851,389.003
		C902.962,1660.853,735.919,1601.155,765.86,1610.867z"/>
</g>
</svg>
