<?xml version="1.0" encoding="utf-8"?>
<!-- Generator: Adobe Illustrator 14.0.0, SVG Export Plug-In . SVG Version: 6.00 Build 43363)  -->
<!DOCTYPE svg PUBLIC "-//W3C//DTD SVG 1.1//EN" "http://www.w3.org/Graphics/SVG/1.1/DTD/svg11.dtd">
<svg version="1.1"
	 id="svg8" sodipodi:docname="conabio.svg" inkscape:version="0.92.4 (5da689c313, 2019-01-14)" xmlns:dc="http://purl.org/dc/elements/1.1/" xmlns:cc="http://creativecommons.org/ns#" xmlns:rdf="http://www.w3.org/1999/02/22-rdf-syntax-ns#" xmlns:svg="http://www.w3.org/2000/svg" xmlns:sodipodi="http://sodipodi.sourceforge.net/DTD/sodipodi-0.dtd" xmlns:inkscape="http://www.inkscape.org/namespaces/inkscape"
	 xmlns="http://www.w3.org/2000/svg" xmlns:xlink="http://www.w3.org/1999/xlink" x="0px" y="0px" width="2267.717px"
	 height="2267.717px" viewBox="650.926 156.5 2267.717 2267.717" enable-background="new 650.926 156.5 2267.717 2267.717"
	 xml:space="preserve">
<sodipodi:namedview  id="base" inkscape:window-height="962" inkscape:document-units="mm" inkscape:window-x="-8" inkscape:window-y="-8" inkscape:pageopacity="0.0" inkscape:pageshadow="2" inkscape:current-layer="layer1" inkscape:window-width="1280" inkscape:window-maximized="1" borderopacity="1.0" bordercolor="#666666" showgrid="false" pagecolor="#ffffff" inkscape:cy="1005.3593" inkscape:cx="1330.9248" inkscape:zoom="0.1400905">
	</sodipodi:namedview>
<g id="layer1" transform="translate(-20.867708,105.1327)" inkscape:groupmode="layer" inkscape:label="Capa 1">
	<path id="path3713" inkscape:connector-curvature="0" fill="none" stroke="#000000" stroke-width="0.2646" d="M1726.055,1999.208
		v-21.466h-579.529c-230.739,0-416.759,3.579-416.759,8.944c0,7.154,186.021,10.732,416.759,10.732L1726.055,1999.208z
		 M1887.035,1974.167v23.252h577.742c230.738,0,418.549-5.365,418.549-10.732c0-5.365-187.811-10.73-418.549-10.73
		L1887.035,1974.167z M955.139,1900.831c8.944-19.676,14.31-55.448,14.31-73.335h-12.521
		c-10.732,39.351-37.562,71.546-94.799,71.546c-73.335,0-128.784-53.659-128.784-143.095c0-87.644,46.505-143.092,125.207-143.092
		c57.236,0,94.799,25.041,94.799,89.433h14.31c0-8.943,5.366-48.293,5.366-71.546c0-8.943-1.789-23.252-1.789-28.62
		c-21.464,0-67.969-12.52-110.897-12.52c-109.109,0-180.656,62.603-180.656,166.345c0,112.688,78.702,166.347,175.289,166.347
		C896.113,1922.294,931.888,1911.561,955.139,1900.831z M1196.61,1922.294c96.588,0,171.712-66.181,171.712-169.923
		c0-94.798-66.181-162.769-168.135-162.769c-94.799,0-169.923,64.393-169.923,168.134
		C1030.263,1854.324,1094.655,1922.294,1196.61,1922.294z M1203.764,1899.042c-82.279,0-119.841-69.757-119.841-146.671
		c0-80.489,35.773-141.305,110.897-141.305c82.278,0,118.052,71.546,118.052,144.881
		C1312.873,1832.861,1278.888,1899.042,1203.764,1899.042z M1701.014,1918.719c7.155,0,14.31-1.789,19.676-3.579v-230.738
		c0-62.603,1.788-73.335,25.041-75.125l17.886-1.786v-10.733h-118.051v10.733l21.464,1.786c19.675,1.79,25.042,8.944,25.042,66.182
		l1.789,150.249l-3.578,1.789c-57.237-69.76-130.573-157.403-180.655-211.065c-10.732-12.519-21.464-19.674-28.619-19.674h-78.701
		v10.733h14.31c23.253,3.576,35.773,14.309,35.773,41.137l-1.788,178.869c0,66.181-3.578,75.124-25.042,75.124l-21.464,3.576v8.943
		h123.418v-8.943l-23.253-3.576c-19.676,0-25.042-7.156-25.042-75.124l-1.788-168.137l3.577-1.786
		C1570.441,1759.526,1638.411,1836.439,1701.014,1918.719z M1890.613,1913.35v-10.73c-32.196-3.578-41.14-5.367-41.14-17.887
		c0-8.943,8.943-35.774,16.098-53.661l10.733-26.831c10.73,0,94.799,0,105.53,0l14.31,37.563
		c8.944,23.252,12.521,35.774,12.521,42.929c0,12.52-7.155,17.887-26.831,17.887l-17.887,1.787v10.732h139.518v-10.732
		c-16.1-1.787-23.254-5.365-33.985-21.463c-17.887-28.62-101.955-241.472-121.63-293.342c-1.788,0-7.154,1.79-10.731,3.576
		l-114.476,268.303c-14.31,33.982-23.252,37.561-50.083,44.715v8.943L1890.613,1913.35z M1974.68,1784.567l-91.222-1.789
		c14.31-32.196,30.407-73.336,44.716-105.531h3.577L1974.68,1784.567z M2130.297,1915.139h123.418
		c76.911,0,123.416-37.561,123.416-94.798c0-44.718-33.982-71.549-80.49-78.703v-1.789c32.196-8.943,59.027-33.982,59.027-71.546
		c0-44.716-35.774-73.336-103.742-73.336c-30.407,0-87.645,1.789-121.629,1.789v10.733l23.252,3.576
		c17.887,0,21.463,10.732,21.463,73.335v141.306c0,64.392-3.576,75.124-21.463,76.913l-23.252,1.787V1915.139z M2225.094,1736.273
		v-114.475c7.154-3.578,19.677-5.368,30.407-5.368c28.619,0,48.293,19.677,48.293,59.027c0,32.195-17.885,57.237-53.658,59.026
		L2225.094,1736.273z M2259.08,1895.464c-30.407,0-35.774-3.576-35.774-69.757v-73.336l32.196,1.79
		c44.718,0,67.97,35.771,67.97,76.911C2323.471,1875.79,2293.064,1895.464,2259.08,1895.464z M2552.421,1915.139v-8.943
		l-21.463-3.576c-17.887-1.789-21.466-10.732-21.466-75.124v-143.095c0-64.392,1.789-73.335,21.466-75.125l21.463-1.786v-10.733
		h-135.938v10.733l21.463,1.786c19.677,1.79,23.252,10.733,23.252,75.125v141.306c0,64.392-1.786,73.335-23.252,76.913
		l-21.463,1.787v10.732H2552.421z M2761.697,1922.294c96.587,0,169.922-66.181,169.922-169.923
		c0-94.798-66.181-162.769-166.347-162.769c-96.587,0-171.712,64.393-171.712,168.134
		C2593.56,1854.324,2659.741,1922.294,2761.697,1922.294z M2768.851,1899.042c-84.068,0-121.632-69.757-121.632-146.671
		c0-80.489,37.563-141.305,112.688-141.305c80.49,0,118.051,71.546,118.051,144.881
		C2877.958,1832.861,2843.975,1899.042,2768.851,1899.042z M2099.886,596.891c-3.575,7.155-8.943,14.309-16.098,19.676
		c-5.366,5.365-37.563,16.098-46.504,17.886c-8.945,0-32.196,5.366-39.352,5.366c-7.154-1.789-53.66-23.252-55.448-21.464
		c-3.579,1.788-10.733,16.098-10.733,16.098s-26.829-14.31-25.041-44.717c1.789-30.408,10.732-39.35,14.31-42.929
		c3.577-3.577,10.731-7.154,12.521-10.733c3.578-7.154,7.155-16.098,17.887-23.252c10.732-7.154,42.929-8.944,57.238-1.788
		c16.098,5.366,39.351,14.31,50.082,19.675c8.943,8.943,39.353,33.985,41.139,41.139
		C2101.677,579.004,2103.466,589.737,2099.886,596.891z M1997.933,553.962c0-7.154-7.154-10.731-14.309-10.731
		s-12.521,3.577-12.521,10.731c0,5.367,5.367,10.733,12.521,10.733S1997.933,559.329,1997.933,553.962z M2082,630.876
		c-21.463,16.098-26.829,17.887-53.66,23.252c-7.153,0-14.309,0-21.463-1.79c-5.366-1.788-10.732-1.788-12.521-1.788
		c0,1.788-3.577,8.942-3.577,21.464c0,5.365,3.577,21.463,10.731,44.717c7.155,17.886,17.887,42.927,30.407,67.969
		c5.367,14.309,12.52,26.831,19.676,42.929c32.195,59.027,84.068,123.418,139.516,160.979c7.154,5.366,12.522-7.154,14.309-10.731
		c1.79-3.577,3.579-42.928,8.944-80.491c7.156-51.87,0-112.686-3.576-126.994c-5.368-28.62-33.985-76.914-50.083-98.377
		c-7.154-10.732-16.098-26.831-28.617-39.35c-10.733-12.522-26.831-23.253-26.831-23.253
		C2101.677,609.412,2094.522,623.722,2082,630.876 M2094.522,915.274c-5.366,1.79-8.944,23.252-16.1,46.506
		c-3.577,21.464-14.309,96.589-16.098,121.63c-1.788,25.04,3.577,42.926,3.577,78.7c0,37.562-8.942,100.166-12.52,134.151
		c-3.578,37.562-1.789,76.911,0,85.854c1.788,10.733,3.577,12.52,12.52,14.309c8.943,0,10.732-5.364,12.521-10.729
		c0-3.579,3.577-19.677,23.254-85.857c21.463-67.971,57.237-216.428,66.181-250.413c7.154-33.985,5.365-41.14,1.789-51.873
		c-3.578-8.943-12.521-17.887-17.887-26.831c-7.154-8.942-37.562-39.35-44.718-42.926
		C2101.677,920.64,2098.1,913.485,2094.522,915.274 M1840.529,663.072c0,10.733,26.831,12.52,35.775,16.098
		c12.521,3.577,10.73,8.944,10.73,8.944s-32.195-5.367-44.716-7.154c-10.731,0-19.676,0-30.408,3.576
		c-10.731,0-14.309,8.944-14.309,16.1c0,5.366,3.577,10.731,8.943,10.731c5.365,1.789,53.66,10.732,53.66,10.732
		s-35.774,1.79-53.66,1.79c-16.098,3.576-16.098,14.309-16.098,16.098c0,3.576-3.579,10.73,8.943,14.309
		c14.309,3.576,33.983,3.576,42.928,7.154c10.732,1.789,14.309,8.943,14.309,8.943s-16.099-3.579-32.196-3.579
		c-14.309,0-19.675,5.368-21.463,12.522c-1.789,7.154,0,12.52,12.521,17.886c12.52,3.577,12.52,7.156,25.04,14.31
		c10.733,8.943,33.985,42.927,78.702,46.504c44.717,3.579,64.394-23.252,71.548-30.407s23.252-30.408,23.252-32.196
		c0-3.579,0-14.31-8.942-37.563c-8.944-25.041-26.831-46.504-33.985-57.236c-8.943-10.732-26.83-30.408-32.197-33.985
		c-5.365-1.788-30.406-14.31-37.561-16.098c-7.154-3.577-21.465-5.366-37.563-3.577
		C1847.685,646.974,1840.529,650.551,1840.529,663.072 M1887.035,890.232c1.79,10.733,3.578,17.887,17.888,21.466
		c16.098,1.787,57.237-3.579,66.181-3.579c7.154,0,16.099-1.789,39.351-14.309c25.041-16.098,37.563-33.985,39.351-41.14
		c1.789-7.154,1.789-14.31-5.367-23.253c-5.365-8.942-12.52-7.154-19.674-5.366c-7.155,0-25.041,19.676-30.407,25.041
		c-7.154,5.367-12.521,7.156-16.099,8.944c-3.577,3.579-30.407,7.154-41.139,8.944c-12.521,0-44.717,7.154-46.506,8.943
		C1887.035,877.713,1887.035,881.289,1887.035,890.232 M1903.134,924.218c-14.309,0-12.521,23.252-12.521,33.985
		c1.789,12.52,30.407,16.098,37.562,16.098s26.83-3.579,46.506-7.154c19.676-5.367,55.448-8.944,73.336-26.831
		c19.675-17.887,19.675-33.985,19.675-42.929c-1.789-10.73-12.521-12.52-16.098-14.309c-3.577,0-28.619,17.887-41.14,25.042
		c-12.521,8.944-28.619,12.521-35.773,14.309C1967.525,924.218,1919.231,924.218,1903.134,924.218 M2051.594,967.146
		c-1.789,1.788-50.083,12.519-73.336,17.886c-23.253,3.577-57.237,3.577-67.969,3.577c-10.732,0-10.732,12.521-8.943,17.887
		c0,7.154,0,28.619,5.365,82.279c5.366,51.871,1.789,128.783,1.789,144.882c-1.789,16.098,10.731,8.943,12.521,8.943
		c3.577,0,28.619-8.943,39.351-14.309c10.732-3.579,44.718-23.253,50.083-30.407c3.577-7.157,30.408-109.109,37.563-141.305
		S2055.171,965.357,2051.594,967.146 M1566.864,1076.254c0,0-3.578,1.788-12.521,8.942c-7.155,7.156-25.041,12.522-39.351,14.312
		c-12.521,1.787-30.408,3.576-33.985,5.365c-1.789,0-7.154,8.944-8.943,14.309c-1.789,5.366-5.366,1.789,16.098,23.253
		c21.464,21.464,44.717,42.927,98.377,71.548c53.661,28.617,155.614,46.504,211.063,44.715c57.237,0,84.068-14.309,85.856-17.887
		c1.789-3.576,7.154-55.449,10.732-82.278c3.577-26.829,3.577-76.912-3.578-84.066c-3.578-3.579-17.887-5.368-30.407-3.579
		c-8.943,0-17.887,1.789-23.252,3.579c-16.1,3.576-23.254,14.309-26.831,25.042c-3.577,8.942-17.886,50.083-25.042,59.025
		c-7.154,7.156-28.619,23.254-94.799,8.942c-64.392-12.52-110.898-76.911-112.686-80.489
		C1574.018,1083.41,1568.653,1076.254,1566.864,1076.254 M2146.394,1222.924c-5.368-3.576,1.789-35.771,5.365-64.391
		c3.578-28.618,23.252-60.814,35.774-94.799c14.309-32.196,71.546-110.898,41.139-286.187
		c-30.409-177.077-175.29-271.878-227.162-286.187c-53.66-14.309-245.048-64.392-404.239-3.579
		c-159.191,60.816-209.274,178.868-221.795,293.342c-12.521,114.475,14.31,277.245,87.645,361.312
		c75.125,85.856,198.543,135.939,330.904,134.149c134.149-3.578,255.779-69.759,255.779-69.759l-10.732,85.857
		c0,0-91.222,73.335-268.301,62.603c-177.077-8.944-286.187-53.659-377.408-153.825c-87.646-100.166-103.743-275.454-107.32-339.846
		c-3.578-62.605,8.943-186.023,69.758-287.977c59.026-101.955,198.542-164.558,214.64-166.347
		c14.31-3.577,30.407-10.731,80.49-21.463c51.871-8.944,134.15-16.098,166.346-14.31c30.408,0,57.237-1.788,153.826,23.253
		c98.377,25.04,180.656,84.067,225.374,125.205c44.715,41.14,64.392,96.59,85.854,146.672
		c23.252,50.083,35.774,153.826,35.774,186.022s0,55.448-14.312,126.994c-16.098,71.547-59.023,148.46-67.967,162.77
		c-10.733,12.521-17.888,26.83-42.93,50.082C2167.857,1217.558,2151.76,1226.502,2146.394,1222.924 M1520.358,985.032
		c0,10.731-5.366,23.253-17.886,25.043c-14.31,1.786-35.773,1.786-39.351-8.945c-5.366-12.521,0-25.04,7.155-30.408
		c8.943-5.365,8.943-5.365,19.675-5.365C1500.683,963.568,1518.57,974.301,1520.358,985.032z M1861.994,1049.425
		c-8.942,10.731-19.675,12.519-30.406,16.098c-10.733,3.576-21.465,5.365-28.619,8.944c-5.366,7.154-16.099,26.828-19.675,48.293
		c-3.579,19.675-12.522,32.196-16.098,33.984c-3.579,1.789-62.604,5.366-93.012-5.366c-26.83-12.52-41.139-21.463-66.181-46.505
		c-25.041-25.041-35.773-41.139-35.773-41.139h-10.731c0,0-25.042,28.619-60.815,21.463c-35.774-5.365-94.799-26.828-93.011-98.376
		c1.789-71.546,48.294-78.701,51.871-82.278c1.789-5.367,3.577-10.731-7.155-10.731c-8.943,0-25.041,3.576-35.773,10.731
		c-8.943,5.366-26.83,19.675-28.619,7.156c-1.789-14.312,1.79-50.083,37.563-66.181c33.984-17.887,41.14-14.311,41.14-25.042
		c0-12.522-26.83-8.943-33.985-3.579c-8.943,3.579-28.619,12.521-30.407,14.309c0,1.789-14.31,12.522-14.31-3.576
		c0-14.31,5.367-42.929,33.985-59.026c28.619-17.887,59.025-10.733,60.814-21.464c0-10.732-12.521-14.309-23.253-12.521
		c-12.521,0-42.928,10.733-48.294,16.098c-5.366,3.579-16.098,5.368-12.521-8.944c1.789-14.309,14.309-48.293,50.083-60.813
		c35.773-8.944,64.393,8.943,67.97,3.576c3.576-7.154,0-17.886-14.31-25.042c-14.31-5.365-23.253-8.942-44.717-1.788
		c-21.464,5.366-25.042,3.577-21.464-5.367c3.578-8.944,14.31-50.082,64.393-50.082c50.083,0,62.603,46.506,75.124,42.927
		c12.521-3.577-5.366-41.139-14.309-57.237c-8.943-16.098-44.716-41.14-30.408-48.294c12.521-10.733,42.928-7.154,62.604,7.154
		c19.675,10.733,19.675,14.309,25.041,21.464c5.366,7.154,25.042,51.871,28.619,48.295c3.578,0,5.367-26.831,1.789-44.718
		c-3.577-17.887-28.619-59.026-35.773-66.181c-7.155-7.154-5.367-12.52,7.154-12.52c14.31-1.789,50.083,3.576,69.758,28.617
		c21.464,25.042,21.464,69.758,19.676,75.125c-3.578,7.155-1.789,23.252,7.154,14.309c7.155-10.73,26.83-41.14,32.196-71.546
		c7.154-30.407,7.154-62.603,16.098-62.603c8.943,0,26.831,39.35,28.619,62.603c3.577,23.252,8.943,57.237-7.156,101.954
		c-16.098,42.927-41.139,78.702-48.293,80.491c-8.944,1.79-16.099,1.79-16.099,1.79s-32.196-26.831-66.18-23.253
		c-35.774,1.788-62.604,14.309-93.012,39.351c-30.407,26.828-42.928,53.659-46.504,73.334c-3.577,19.675-3.577,53.661,5.366,71.547
		c8.943,17.887,12.521,16.098,12.521,16.098h5.366c1.789-3.579-16.098-55.448-5.366-89.433
		c10.732-32.196,25.041-62.604,84.067-87.644c53.661-23.253,78.702,10.73,93.011,23.251c14.31,10.731,26.831,17.887,35.773,23.253
		c10.732,7.154,64.392,42.927,87.646,69.758c23.252,26.83,25.041,28.619,23.252,37.562c-3.577,7.154-16.098,17.886-16.098,25.042
		c1.788,7.154,12.521,23.252,7.154,33.984s-8.944,14.31-25.042,21.464c-14.309,7.154-19.675,17.887-17.886,19.675
		c0,3.577,7.154,1.788,10.731,0c7.154,0,10.731-5.367,21.465-3.577c10.731,0,25.041,1.789,28.618,26.829
		C1870.937,1026.173,1870.937,1038.692,1861.994,1049.425z M1536.456,997.552c0-21.463-26.83-41.139-51.872-41.139
		c0,0-32.196,1.789-33.984,32.196c-3.578,32.196,28.618,42.929,50.083,44.718C1522.148,1035.115,1536.456,1020.805,1536.456,997.552
		z M1704.592,834.784c-1.789-1.789-25.041-7.154-41.14,7.154c-16.098,12.521-19.675,32.196-16.098,35.774
		c3.578,3.576,23.253,0,35.774-10.732c7.154-7.155,12.521-12.521,16.098-19.677C1704.592,841.938,1706.38,834.784,1704.592,834.784z
		 M1804.757,895.598c1.789-1.788,7.154-10.731,3.577-14.31c-3.577-3.576-7.154-3.576-12.521,0
		c-8.944,5.368-12.52,12.522-5.365,16.098"/>
</g>
</svg>
