<?xml version="1.0" encoding="utf-8"?>
<!-- Generator: Adobe Illustrator 22.1.0, SVG Export Plug-In . SVG Version: 6.00 Build 0)  -->
<svg version="1.1"
	 id="svg8" inkscape:version="0.92.4 (5da689c313, 2019-01-14)" sodipodi:docname="elasmobranchii.svg" xmlns:cc="http://creativecommons.org/ns#" xmlns:dc="http://purl.org/dc/elements/1.1/" xmlns:inkscape="http://www.inkscape.org/namespaces/inkscape" xmlns:rdf="http://www.w3.org/1999/02/22-rdf-syntax-ns#" xmlns:sodipodi="http://sodipodi.sourceforge.net/DTD/sodipodi-0.dtd" xmlns:svg="http://www.w3.org/2000/svg"
	 xmlns="http://www.w3.org/2000/svg" xmlns:xlink="http://www.w3.org/1999/xlink" x="0px" y="0px" viewBox="0 0 2267.7 2267.7"
	 style="enable-background:new 0 0 2267.7 2267.7;" xml:space="preserve">
<style type="text/css">
	.st0{fill:black;stroke:#000000;stroke-width:0.2646;}
</style>
<sodipodi:namedview  bordercolor="#666666" borderopacity="1.0" id="base" inkscape:current-layer="layer1" inkscape:cx="2223.2178" inkscape:cy="1376.823" inkscape:document-units="mm" inkscape:pageopacity="0.0" inkscape:pageshadow="2" inkscape:window-height="962" inkscape:window-maximized="1" inkscape:window-width="1280" inkscape:window-x="-8" inkscape:window-y="-8" inkscape:zoom="0.14369886" pagecolor="#ffffff" showgrid="false">
	</sodipodi:namedview>
<path class="st0" d="M1249.9,1271.8c-0.2-30.4,42.3-96.8,83.9-129.3c11.3-6.8,29.5-6.8,27.2-27.2c0-20.4-20.4-20.4-34-25
	c-81.9-19.5-165.5-30.8-249.5-34c-42-0.8-82.5-15.1-115.7-40.8C814.2,896.5,656.3,791,489.9,700.1
	C337.7,622.6,194.7,528.2,63.4,418.8c-13.6-11.3-27.2-25-47.6-15.9c-18.1,11.3-13.6,31.8-11.3,47.6c4.5,48.5,16.8,96,36.3,140.7
	c11.3,25,34,49.9,27.2,77.1c-13.6,59,13.6,99.8,43.1,142.9c16.3,22.1,33.7,43.3,52.2,63.5c70.3,79.4,115.7,179.2,195.1,249.5
	c75.8,59.6,124.8,147,136.1,242.7c11.9,71,42.4,137.5,88.5,192.8c6.8,11.3,13.6,27.2,29.5,25c18.1-4.5,13.6-22.7,15.9-34
	c9.1-38.6,20.4-79.4,29.5-118c4.5-22.7,13.6-25,36.3-11.3c88.5,61.3,176.9,122.5,267.7,179.2c30.2,17.3,51.1,47.3,56.7,81.7
	c8.9,37.3,21,73.7,36.3,108.9c13.6,31.8,31.8,34,56.7,11.3c31.8-27.2,63.5-56.7,97.5-83.9c41-26.2,94.6-20.5,129.3,13.6
	c63.5,61.3,65.8,63.5,129.3,2.3c14-16.3,36.8-21.7,56.7-13.6c19.3,6.3,31.6,25.2,29.5,45.4c0.2,22-1.3,44-4.5,65.8
	c-6.8,34,9.1,43.1,36.3,29.5c41.4-15.7,79.2-39.6,111.2-70.3c29.8-31.9,70-52.1,113.4-56.7c88-14.8,172.6-45.6,249.5-90.7
	c18.7-12.5,39.4-21.7,61.3-27.2c59-9.1,90.7-56.7,131.6-88.5c9.1-6.8,18.1-20.4,9.1-31.8c-11.3-11.3-22.7-2.3-34,2.3
	c-29.5,13.6-56.7,27.2-86.2,38.6c-162.5,65.8-340.8,82.4-512.7,47.6c-38.6-9.1-63.5-20.4-18.1-54.4c11.2-10.9,21.1-23.1,29.5-36.3
	c6.8-9.1,22.7-15.9,13.6-31.8c-11.3-18.1-27.2-6.8-38.6-4.5c-124.8,29.5-258.1-33.3-318.4-98
	C1275.4,1336.9,1250.2,1308.3,1249.9,1271.8z"/>
</svg>
