<?xml version="1.0" encoding="utf-8"?>
<!-- Generator: Adobe Illustrator 22.1.0, SVG Export Plug-In . SVG Version: 6.00 Build 0)  -->
<svg version="1.1"
	 id="svg8" inkscape:version="0.92.4 (5da689c313, 2019-01-14)" sodipodi:docname="en-peligro-en-evaluacion-conabio.svg" xmlns:cc="http://creativecommons.org/ns#" xmlns:dc="http://purl.org/dc/elements/1.1/" xmlns:inkscape="http://www.inkscape.org/namespaces/inkscape" xmlns:rdf="http://www.w3.org/1999/02/22-rdf-syntax-ns#" xmlns:sodipodi="http://sodipodi.sourceforge.net/DTD/sodipodi-0.dtd" xmlns:svg="http://www.w3.org/2000/svg"
	 xmlns="http://www.w3.org/2000/svg" xmlns:xlink="http://www.w3.org/1999/xlink" x="0px" y="0px" viewBox="0 0 2267.7 2267.7"
	 style="enable-background:new 0 0 2267.7 2267.7;" xml:space="preserve">
<style type="text/css">
	.st0{fill:none;stroke:#000000;stroke-width:0.2646;}
</style>
<sodipodi:namedview  bordercolor="#666666" borderopacity="1.0" id="base" inkscape:current-layer="layer1" inkscape:cx="1992.7552" inkscape:cy="1995.5144" inkscape:document-units="mm" inkscape:pageopacity="0.0" inkscape:pageshadow="2" inkscape:window-height="962" inkscape:window-maximized="1" inkscape:window-width="1280" inkscape:window-x="-8" inkscape:window-y="-8" inkscape:zoom="0.14369886" pagecolor="#ffffff" showgrid="false">
	</sodipodi:namedview>
<path class="st0" d="M2143.6,1018.3c0-555.7-450.4-1006.2-1006.1-1006.2c-555.7,0-1006.2,450.5-1006.2,1006.2
	c0,245.3,87.8,470,233.6,644.5h-1.5c297,352,774.3,591.2,774.3,591.2s477.3-239.2,774.3-591.2h-1.9
	C2055.8,1488.2,2143.6,1263.5,2143.6,1018.3z M962.3,913.2H717.1v148h228.1v117H717.1V1352h245.2v118h-388V796.1h388V913.2z
	 M1700.6,1469.9H1519l-293.1-509.7h-4.2c5.8,90.1,8.8,154.3,8.8,192.7v317.1h-127.7V796.1h180.2l292.7,504.6h3.2
	c-4.6-87.5-6.9-149.5-6.9-185.7V796.1h128.6V1469.9z"/>
</svg>
