<?xml version="1.0" encoding="utf-8"?>
<!-- Generator: Adobe Illustrator 22.1.0, SVG Export Plug-In . SVG Version: 6.00 Build 0)  -->
<svg version="1.1"
	 id="svg8" inkscape:version="0.92.4 (5da689c313, 2019-01-14)" sodipodi:docname="enciclo.svg" xmlns:cc="http://creativecommons.org/ns#" xmlns:dc="http://purl.org/dc/elements/1.1/" xmlns:inkscape="http://www.inkscape.org/namespaces/inkscape" xmlns:rdf="http://www.w3.org/1999/02/22-rdf-syntax-ns#" xmlns:sodipodi="http://sodipodi.sourceforge.net/DTD/sodipodi-0.dtd" xmlns:svg="http://www.w3.org/2000/svg"
	 xmlns="http://www.w3.org/2000/svg" xmlns:xlink="http://www.w3.org/1999/xlink" x="0px" y="0px" viewBox="0 0 2267.7 2267.7"
	 style="enable-background:new 0 0 2267.7 2267.7;" xml:space="preserve">
<style type="text/css">
	.st0{fill:none;stroke:#000000;stroke-miterlimit:10;}
</style>
<sodipodi:namedview  bordercolor="#666666" borderopacity="1.0" id="base" inkscape:current-layer="layer1" inkscape:cx="1346.0429" inkscape:cy="1106.8223" inkscape:document-units="mm" inkscape:pageopacity="0.0" inkscape:pageshadow="2" inkscape:window-height="962" inkscape:window-maximized="1" inkscape:window-width="1280" inkscape:window-x="-8" inkscape:window-y="-8" inkscape:zoom="0.1400905" pagecolor="#ffffff" showgrid="false">
	</sodipodi:namedview>
<g id="layer1" transform="translate(-16.867708,-379.86771)" inkscape:groupmode="layer" inkscape:label="Capa 1">
	<path id="path3713" inkscape:connector-curvature="0" class="st0" d="M54.7,1450.4c16.4-13.3,43.7-19.5,80.3-19.5
		c35.1,0,60,6.2,76.4,18.7c15.6,11.7,24.2,32.8,24.2,63.9v53H74.2v35.9c0,17.2,6.2,28.9,17.9,35.9c11.7,7.8,29.6,10.9,53,10.9
		c22.6,0,49.1-3.9,80.3-12.5v34.3c-29.6,7-59.3,10.1-86.6,10.1c-73.3,0-110.7-24.2-110.7-73.3v-94.4
		C28.1,1483.9,37.5,1462.8,54.7,1450.4z M74.2,1536.9h117v-37.4c0-14-4.7-24.2-14-29.6c-9.4-5.5-23.4-8.6-44.4-8.6
		c-19.5,0-35.1,3.1-44.4,8.6c-9.4,4.7-14,14.8-14,29.6V1536.9z M471.9,1677.3h-45.2v-173.9c0-5.5,0-10.1-0.8-14.8
		c-0.8-3.9-3.1-7.8-6.2-11.7c-3.1-4.7-8.6-7.8-15.6-10.1c-7.8-1.6-16.4-3.1-28.1-3.1c-25.7,0-43.7,2.3-52.2,7.8
		c-8.6,5.5-14,16.4-14,32v173.1h-44.4v-240.2h44.4v29.6c5.5-22.6,32-34.3,79.5-34.3c31.2,0,53,5.5,64.7,17.2s17.9,28.1,17.9,51.5
		v176.2V1677.3z M559.2,1435.5c9.4-0.8,17.9-1.6,25.7-2.3c7-0.8,17.2-0.8,29.6-0.8c23.4,0,45.2,2.3,68.6,7v32.8
		c-25.7-6.2-50.7-10.1-74.1-10.1c-24.2,0-40.6,3.1-48.3,9.4c-7,5.5-10.9,17.9-10.9,37.4v97.5c0,17.2,4.7,29.6,13.3,35.1
		c7.8,5.5,25.7,8.6,51.5,8.6c23.4,0,47.6-3.1,71.7-9.4v33.5c-21.1,4.7-47.6,7-76.4,7c-14,0-25.7,0-34.3-0.8
		c-7.8,0-17.2-1.6-27.3-4.7c-10.9-2.3-18.7-7-24.2-12.5c-5.5-5.5-10.1-12.5-14-22.6c-3.9-10.1-6.2-22.6-6.2-37.4v-88.9
		c0-12.5,0.8-24.2,3.1-33.5c3.1-9.4,6.2-17.2,11.7-23.4c5.5-6.2,10.9-10.9,16.4-14C540.5,1439.4,548.3,1437.1,559.2,1435.5z
		 M705,1396.5h45.2v-46.8H705V1396.5z M705,1676.5h45.2v-240.2H705V1676.5z M836,1435.5c9.4-0.8,18.7-1.6,25.7-2.3
		c7.8-0.8,17.9-0.8,30.4-0.8c22.6,0,45.2,2.3,68.6,7v32.8c-25.7-6.2-51.5-10.1-74.1-10.1c-25,0-41.3,3.1-48.3,9.4
		c-7.8,5.5-10.9,17.9-10.9,37.4v97.5c0,17.2,4.7,29.6,12.5,35.1c8.6,5.5,26.5,8.6,52.2,8.6c22.6,0,47.6-3.1,71.7-9.4v33.5
		c-21.8,4.7-47.6,7-76.4,7c-14.8,0-26.5,0-34.3-0.8c-7.8,0-17.9-1.6-28.1-4.7c-10.1-2.3-17.9-7-23.4-12.5
		c-5.5-5.5-10.1-12.5-14.8-22.6c-3.9-10.1-5.5-22.6-5.5-37.4v-88.9c0-12.5,0-24.2,3.1-33.5c2.3-9.4,6.2-17.2,11.7-23.4
		c5.5-6.2,10.9-10.9,16.4-14C818.1,1439.4,825.1,1437.1,836,1435.5z M982.6,1676.5h44.4v-347h-44.4V1676.5z M1237.6,1675.7
		c-10.1,3.1-20.3,4.7-29.6,5.5c-9.4,0.8-21.8,0.8-37.4,0.8c-19.5,0-35.1-0.8-46-2.3c-10.9-0.8-22.6-3.9-33.5-9.4
		c-10.9-4.7-18.7-13.3-23.4-24.2c-4.7-11.7-7.8-26.5-7.8-45.2v-83.4c0-15.6,1.6-29.6,5.5-40.6c3.1-10.9,8.6-18.7,13.3-25
		c5.5-6.2,13.3-10.1,24.2-13.3c10.1-3.1,20.3-4.7,28.9-5.5c9.4-0.8,21.8-0.8,37.4-0.8s28.9,0,37.4,0.8c9.4,0.8,18.7,1.6,29.6,5.5
		c10.1,3.1,17.9,7,23.4,13.3c5.5,6.2,10.1,14,14,25c3.1,10.9,5.5,25,5.5,40.6v83.4c0,14-2.3,27.3-5.5,37.4
		c-3.9,10.1-8.6,18.7-14,24.2C1254,1667.9,1246.2,1672.6,1237.6,1675.7z M1234.5,1607.1v-97.5c0-21.8-4.7-35.1-13.3-40.6
		c-9.4-5.5-26.5-7.8-52.2-7.8c-25.7,0-42.1,2.3-51.5,7.8c-8.6,4.7-13.3,18.7-13.3,40.6v97.5c0,10.1,0.8,18.7,3.1,25
		c2.3,6.2,7,10.9,13.3,14c6.2,2.3,11.7,4.7,18.7,5.5c7,0.8,16.4,0.8,29.6,0.8c12.5,0,21.8,0,28.9-0.8c6.2-0.8,13.3-3.1,18.7-5.5
		c6.2-3.1,10.9-7.8,13.3-14c2.3-6.2,3.1-14,3.1-25H1234.5z M1752.3,1593.8c-5.5,0-10.9-3.1-14.8-8.6
		c-2.3-4.7-72.5-118.5-191.1-118.5c-28.1,0-57.7,7-86.6,20.3l-8.6,3.1l7.8,4.7c5.5,3.1,14,8.6,22.6,15.6
		c48.3,40.6,76.4,88.9,82.7,141.9l0.8,3.1c2.3,7.8-2.3,17.2-10.1,19.5c-9.4,3.1-18.7-1.6-21.8-10.1c-1.6-2.3-1.6-4.7-2.3-8.6
		c-1.6-16.4-7.8-67.8-71-120.9c-8.6-7-18.7-12.5-25.7-17.2l-3.1-2.3c-1.6-0.8-2.3-1.6-3.9-2.3c-8.6-5.5-13.3-15.6-12.5-25.7
		c0.8-8.6,4.7-21.1,14.8-26.5c39.8-20.3,78.8-30.4,117-30.4c137.2,0,219.9,133.3,220.7,134.9c4.7,7.8,1.6,17.9-6.2,22.6
		C1757.8,1589.9,1755.4,1590.7,1752.3,1593.8z M2155.5,1660.9c-3.9,8.6-13.3,13.3-21.8,10.1c-8.6-3.1-12.5-11.7-10.1-20.3v-2.3
		c5.5-53,33.5-101.4,82.7-141.9c7.8-7,16.4-12.5,22.6-15.6l7-4.7l-7.8-3.9c-29.6-12.5-58.5-19.5-87.3-19.5c-17.2,0-35.9,3.1-53,8.6
		c-6.2,1.6-11.7,0.8-21.8-3.9l-6.2-3.1v7c0,7.8-3.1,12.5-10.1,16.4c-63.2,33.5-99,92.8-99,93.6c-2.3,4.7-7.8,7.8-14,7.8
		c-3.1,0-6.2-0.8-8.6-2.3c-8.6-4.7-10.9-14.8-6.2-23.4c0.8-1.6,35.1-58.5,97.5-97.5l3.9-2.3l-3.1-6.2c-6.2-14-10.1-23.4-7-33.5
		c1.6-4.7,4.7-7.8,10.1-10.1c11.7-5.5,24.2,3.1,42.9,14v0.8c4.7,2.3,10.1,6.2,14.8,7.8l0.8,0.8l2.3-0.8
		c56.1-15.6,115.4-7,174.7,23.4c10.9,4.7,14,17.2,14.8,25.7c0.8,10.9-3.9,20.3-11.7,25c-2.3,0.8-4.7,2.3-6.2,3.9h-1.6
		c-7.8,5.5-17.9,10.9-25.7,17.9c-63.2,53-69.4,103.7-71.7,120.1C2155.5,1657,2155.5,1658.6,2155.5,1660.9z M1594.8,1508.1
		c0-8.6-7-14.8-14.8-14.8c-7.8,0-14.8,6.2-14.8,14.8c0,7.8,7,14.8,14.8,14.8C1587.8,1522.9,1594,1516.6,1594.8,1508.1z
		 M2128.2,1508.1c0-8.6-7-14.8-14.8-14.8c-8.6,0-15.6,6.2-15.6,14.8c0,7.8,7,14.8,15.6,14.8
		C2121.2,1522.9,2128.2,1516.6,2128.2,1508.1z"/>
</g>
</svg>
