<?xml version="1.0" encoding="utf-8"?>
<!-- Generator: Adobe Illustrator 22.1.0, SVG Export Plug-In . SVG Version: 6.00 Build 0)  -->
<svg version="1.1"
	 id="svg8" inkscape:version="0.92.4 (5da689c313, 2019-01-14)" sodipodi:docname="extinto-ex-evaluacion-conabio.svg" xmlns:cc="http://creativecommons.org/ns#" xmlns:dc="http://purl.org/dc/elements/1.1/" xmlns:inkscape="http://www.inkscape.org/namespaces/inkscape" xmlns:rdf="http://www.w3.org/1999/02/22-rdf-syntax-ns#" xmlns:sodipodi="http://sodipodi.sourceforge.net/DTD/sodipodi-0.dtd" xmlns:svg="http://www.w3.org/2000/svg"
	 xmlns="http://www.w3.org/2000/svg" xmlns:xlink="http://www.w3.org/1999/xlink" x="0px" y="0px" viewBox="0 0 2267.7 2267.7"
	 style="enable-background:new 0 0 2267.7 2267.7;" xml:space="preserve">
<style type="text/css">
	.st0{fill:none;stroke:#000000;stroke-width:0.2646;}
</style>
<sodipodi:namedview  bordercolor="#666666" borderopacity="1.0" id="base" inkscape:current-layer="layer1" inkscape:cx="1996.5347" inkscape:cy="1999.2937" inkscape:document-units="mm" inkscape:pageopacity="0.0" inkscape:pageshadow="2" inkscape:window-height="962" inkscape:window-maximized="1" inkscape:window-width="1280" inkscape:window-x="-8" inkscape:window-y="-8" inkscape:zoom="0.14369886" pagecolor="#ffffff" showgrid="false">
	</sodipodi:namedview>
<path class="st0" d="M2143.7,1018.6c0-557.7-452.1-1009.8-1009.8-1009.8C576.1,8.9,124,460.9,124,1018.6
	c0,246.2,88.2,471.7,234.5,646.9h-1.6c298.1,353.2,777.2,593.3,777.2,593.3s479-240.1,777.1-593.3h-1.9
	C2055.6,1490.4,2143.7,1264.8,2143.7,1018.6z M984.7,915.3H738.6v148.5h229v117.5h-229v174.4h246.1V1474H595.2V797.8h389.5V915.3z
	 M1508.8,1474l-157.3-255.8L1194.2,1474h-153.6l224.3-348.8l-210-327.5h158.2l145.7,243.3l142.9-243.3h154.5L1444,1133.1
	l228.5,340.9H1508.8z"/>
</svg>
