<?xml version="1.0" encoding="utf-8"?>
<!-- Generator: Adobe Illustrator 22.1.0, SVG Export Plug-In . SVG Version: 6.00 Build 0)  -->
<svg version="1.1"
	 id="svg8" inkscape:version="0.92.4 (5da689c313, 2019-01-14)" sodipodi:docname="extinto-ex.svg" xmlns:cc="http://creativecommons.org/ns#" xmlns:dc="http://purl.org/dc/elements/1.1/" xmlns:inkscape="http://www.inkscape.org/namespaces/inkscape" xmlns:rdf="http://www.w3.org/1999/02/22-rdf-syntax-ns#" xmlns:sodipodi="http://sodipodi.sourceforge.net/DTD/sodipodi-0.dtd" xmlns:svg="http://www.w3.org/2000/svg"
	 xmlns="http://www.w3.org/2000/svg" xmlns:xlink="http://www.w3.org/1999/xlink" x="0px" y="0px" viewBox="0 0 2267.7 2267.7"
	 style="enable-background:new 0 0 2267.7 2267.7;" xml:space="preserve">
<style type="text/css">
	.st0{fill:black;stroke:#000000;stroke-width:0.2646;}
</style>
<sodipodi:namedview  bordercolor="#666666" borderopacity="1.0" id="base" inkscape:current-layer="layer1" inkscape:cx="1188.0825" inkscape:cy="940.52369" inkscape:document-units="mm" inkscape:pageopacity="0.0" inkscape:pageshadow="2" inkscape:window-height="962" inkscape:window-maximized="1" inkscape:window-width="1280" inkscape:window-x="-8" inkscape:window-y="-8" inkscape:zoom="0.1400905" pagecolor="#ffffff" showgrid="false">
	</sodipodi:namedview>
<g>
	<path class="st0" d="M2240.9,6.3H1065.6v2.2C474.6,43.8,6.3,534.1,6.3,1133.8c0,622.7,504.7,1127.6,1127.5,1127.6
		s1127.6-504.8,1127.6-1127.6V26.7C2261.4,15.4,2252.2,6.3,2240.9,6.3z M967.5,888H693.3v165.5h255.2v130.9H693.3v194.4h274.3v132
		H533.4V757h434.1V888z M1551.7,1510.7l-175.3-285.1l-175.3,285.1h-171.2l250-388.7l-234.1-365h176.3l162.4,271.2L1543.9,757h172.2
		l-236.7,373.8l254.7,380H1551.7z"/>
	<polygon class="st0" points="533.4,1510.7 967.5,1510.7 967.5,1378.8 693.3,1378.8 693.3,1184.4 948.5,1184.4 948.5,1053.5 
		693.3,1053.5 693.3,888 967.5,888 967.5,757 533.4,757 	"/>
	<polygon class="st0" points="1716.2,757 1543.9,757 1384.6,1028.2 1222.2,757 1045.9,757 1280,1122 1029.9,1510.7 1201.1,1510.7 
		1376.4,1225.6 1551.7,1510.7 1734.2,1510.7 1479.5,1130.8 	"/>
</g>
</svg>
