<?xml version="1.0" encoding="utf-8"?>
<!-- Generator: Adobe Illustrator 22.1.0, SVG Export Plug-In . SVG Version: 6.00 Build 0)  -->
<svg version="1.1"
	 id="svg8" inkscape:version="0.92.4 (5da689c313, 2019-01-14)" sodipodi:docname="importado.svg" xmlns:cc="http://creativecommons.org/ns#" xmlns:dc="http://purl.org/dc/elements/1.1/" xmlns:inkscape="http://www.inkscape.org/namespaces/inkscape" xmlns:rdf="http://www.w3.org/1999/02/22-rdf-syntax-ns#" xmlns:sodipodi="http://sodipodi.sourceforge.net/DTD/sodipodi-0.dtd" xmlns:svg="http://www.w3.org/2000/svg"
	 xmlns="http://www.w3.org/2000/svg" xmlns:xlink="http://www.w3.org/1999/xlink" x="0px" y="0px" viewBox="0 0 2267.7 2267.7"
	 style="enable-background:new 0 0 2267.7 2267.7;" xml:space="preserve">
<style type="text/css">
	.st0{fill:none;stroke:#000000;stroke-miterlimit:10;}
</style>
<sodipodi:namedview  bordercolor="#666666" borderopacity="1.0" id="base" inkscape:current-layer="layer1" inkscape:cx="5813.7979" inkscape:cy="1812.8711" inkscape:document-units="mm" inkscape:pageopacity="0.0" inkscape:pageshadow="2" inkscape:window-height="962" inkscape:window-maximized="1" inkscape:window-width="1280" inkscape:window-x="-8" inkscape:window-y="-8" inkscape:zoom="0.083651786" pagecolor="#ffffff" showgrid="false">
	</sodipodi:namedview>
<g id="layer1" transform="translate(-61.657008,150.01988)" inkscape:groupmode="layer" inkscape:label="Capa 1">
	<path id="path3713" inkscape:connector-curvature="0" class="st0" d="M1486.2-97.8c310.8,92.4,563.1,349.1,653.2,657.7
		c130.6,407.6-45.1,900.9-416.7,1119.4l-153.2-83.3c33.8-27,67.6-56.3,99.1-83.3c69.8-49.6,128.3-108.1,177.9-175.7
		c-42.8-11.3-83.3-20.3-126.1-29.3c-65.3-11.2-132.9-20.2-198.2-27c-18,90.1-42.8,180.2-69.8,268c-56.3-33.8-112.6-67.6-168.9-103.6
		c11.2-38.3,22.5-76.6,31.5-114.9c4.5-22.6,9-42.8,13.5-63.1c-90.1-4.5-180.2-2.3-270.3,4.5c15.8,103.6,33.8,207.2,47.3,308.6
		c-58.5,6.8-119.3-4.5-168.9-36c-27-83.4-49.5-164.5-65.3-247.8c-103.6,15.8-202.7,40.6-301.8,72.1
		c141.9,168.9,358.2,270.2,578.9,272.5c2.3-247.8,31.6-211.7,333.4-38.3c351.3,200.5,333.3,159.9-15.8,364.9
		c-299.6,173.4-317.6,214-317.6-29.3c-11.2-2.3-20.2-4.5-31.5-6.8c-301.8-65.3-576.6-254.5-747.8-509
		c-193.7-281.5-202.7-657.7-76.6-964C407.3,163.4,677.6-55.1,981.7-120.4l4.5-9c2.2,2.2,6.7,2.2,9,4.5c58.5-11.2,114.8-18,173.4-18
		c6.8,0,13.5,0,20.3,0C1290.3-142.9,1391.6-127.1,1486.2-97.8z M1116.8,35c-47.3,135.1-74.3,277-92.3,418.9
		c112.6,11.3,223,15.8,335.6,11.3c-15.8-123.9-40.6-247.8-76.6-369.4c-2.2-20.3-13.5-40.5-22.5-60.8c-22.6-2.2-45.1-4.5-67.6-4.5
		C1168.7,30.5,1141.6,32.8,1116.8,35z M1547.1,451.7c108.1-13.5,213.9-33.8,319.8-60.8C1770,249,1628.1,138.7,1468.2,80.1
		C1504.3,201.7,1529,325.6,1547.1,451.7z M538,352.5c15.8,4.5,31.5,11.3,47.3,15.8c83.3,24.8,168.9,45.1,254.5,58.6
		c15.8-114.9,40.6-229.7,72.1-344.6C765.5,136.4,634.8,231,538,352.5z M459.2,1197.3c123.8-45.1,250-78.9,378.4-101.4
		c-22.6-162.2-27.1-326.6-15.8-491C693.4,580.1,567.3,546.3,447.9,499C335.3,719.8,351,981,459.2,1197.3z M1898.5,573.3
		c-110.4,27-220.8,47.3-333.4,60.8c9,146.4,4.5,292.8-11.3,437c132.9,13.5,265.8,40.6,396.4,76.6c54-139.6,72-295,45-443.7
		c-9-49.5-22.5-99.1-40.5-146.4C1936.7,564.3,1916.5,568.8,1898.5,573.3z M1028.9,1068.9c69.8-6.8,141.9-11.3,211.7-11.3
		c40.6,0,78.9,0,119.4,0c15.8-135.1,20.3-272.5,15.8-409.9c-123.8,4.5-245.5,0-367.1-13.5C986.3,844.2,1029,1068.9,1028.9,1068.9z"
		/>
</g>
</svg>
