<?xml version="1.0" encoding="utf-8"?>
<!-- Generator: Adobe Illustrator 22.1.0, SVG Export Plug-In . SVG Version: 6.00 Build 0)  -->
<svg version="1.1"
	 id="svg8" inkscape:version="0.92.4 (5da689c313, 2019-01-14)" sodipodi:docname="naturalista-3.svg" xmlns:cc="http://creativecommons.org/ns#" xmlns:dc="http://purl.org/dc/elements/1.1/" xmlns:inkscape="http://www.inkscape.org/namespaces/inkscape" xmlns:rdf="http://www.w3.org/1999/02/22-rdf-syntax-ns#" xmlns:sodipodi="http://sodipodi.sourceforge.net/DTD/sodipodi-0.dtd" xmlns:svg="http://www.w3.org/2000/svg"
	 xmlns="http://www.w3.org/2000/svg" xmlns:xlink="http://www.w3.org/1999/xlink" x="0px" y="0px" viewBox="0 0 2267.7 2267.7"
	 style="enable-background:new 0 0 2267.7 2267.7;" xml:space="preserve">
<style type="text/css">
	.st0{fill:none;stroke:#000000;stroke-width:0.25;stroke-miterlimit:10;}
</style>
<path class="st0" d="M409.3,1000c-24.5-30.2-66.9-45.3-126.5-45.2c-26.6,0.1-50.8,4.5-72.4,13.3l2.9-13.4l-102.5,0.2L5.6,1460
	l102.1-0.2l70.4-336.8c19.8-84.6,65.3-94.7,98.2-94.9c21.4,0.1,36.4,5.1,44.8,15.4c11.1,13.7,13.1,39.8,5.6,75.5l-71,340.6
	l103.4-0.1l69.3-332.5C439.8,1072.1,433.3,1029.4,409.3,1000z M801.8,999.4c-24.6-30.2-67-45.6-126.4-45.5
	c-52.5,0.2-96,12.2-129.1,35.3l-16.1,11.2l53.4,76L600,1057c16.5-19.7,38.8-29.4,68.5-29.5c21.4-0.1,36.4,5.1,44.8,15.3
	c11,13.7,13.2,39.9,5.8,75.5l-0.5,2.7l-79,0.2c-112.2,0.5-183.4,57.5-205.6,164.8c-11.4,55.1-5.1,98.1,18.9,127.7
	c24.6,30.3,66.9,45.6,128.3,45.4c25.7-0.1,48.7-4.4,69.4-12.9l-2.7,12.9l103.3-0.3l69.3-332.4C832,1071.6,825.8,1028.9,801.8,999.4z
	 M534.6,1293.7c18.4-88.5,65.3-99,99-99.2l-0.2-19.5l0,0l0.6,19.6l69.1-0.2l-18.7,91c-18.8,89.5-65,100-98.5,100.1
	c-21.7,0.1-36.9-5.2-45.4-15.5C529.1,1356,527,1329.7,534.6,1293.7z M1044.7,1355.4c-16.3,19.7-38.5,29.3-68.5,29.4
	c-21.7,0.1-36.9-5.2-45.5-15.6c-11.2-13.9-13.3-40.2-5.7-76.1l55.5-266.1l132.5-0.2l62.3-73.7l-179.5,0.4l30.6-146.2l-110.6,39.4
	l-22.3,107l-31.2-0.1l-15.3,73.5l31.2-0.1l-53.8,258.1c-11.4,55.1-5,98.1,18.9,127.8c24.5,30.2,66.8,45.4,125.8,45.4l0.2-0.1
	c51.9-0.2,95.5-12.5,129.4-36.3l16.4-11.4l-54.5-74.4L1044.7,1355.4z M1464.1,952.6l-70.3,336.9c-18.8,84.4-64.2,94.4-97.1,94.6
	c-21.8,0-37-5.2-45.4-15.4c-11.4-13.9-13.3-40.2-5.8-76.3l70.8-339.6l-102.1,0.1l-69.3,331.7c-11.6,55.1-5.3,98.1,18.9,127.6
	c24.6,30.2,66.8,45.7,126.4,45.4c26.3,0,50.2-4.5,71.3-13.2l-2.8,13.2l103.5-0.3l105.5-505L1464.1,952.6z M1928.2,988.6
	c-25.4-24.4-65.4-36.7-121-36.7c-26.1,0.1-49.6,4.3-70.6,12.8l2.7-12.7l-102.3,0.1l-105.5,505.1l102.3-0.1l70.2-336.9
	c19.7-84.5,65.5-94.7,98.4-94.8c36.1-0.2,45.9,13.7,50.5,24.1l10.5,25.3l80.1-71.6L1928.2,988.6z M2238.7,996.7
	c-24.6-30.1-66.8-45.5-126.6-45.4c-52.3,0.2-95.6,11.9-128.8,35.1l-16,11.2l53.6,76.2l16.3-19.6c16.3-19.5,38.6-29.2,68.6-29.3
	c21.3-0.1,36.4,5.1,44.6,15.2c11.3,13.8,13.2,39.8,5.7,75.7l-0.6,2.4l-78.2,0.2c-112.6,0.4-183.8,57.5-206.2,164.8
	c-11.4,55.2-5.1,98.1,18.9,127.9c24.8,30.2,67,45.4,128.1,45.3c25.9-0.1,49.1-4.5,69.7-13l-2.7,12.9l102.9-0.2l69.7-332.7
	C2269.1,1068.9,2262.6,1026.1,2238.7,996.7z M1971.7,1291.1c18.5-88.5,65.2-99.1,98.9-99.3v-19.3l0,0l0.5,19.4l69.2-0.1l-19,90.9
	c-18.6,89.5-64.8,99.9-98.4,99.9c-21.7,0.1-37-5.2-45.4-15.3C1966.2,1353.4,1964.1,1327.1,1971.7,1291.1z"/>
</svg>
