<?xml version="1.0" encoding="utf-8"?>
<!-- Generator: Adobe Illustrator 22.1.0, SVG Export Plug-In . SVG Version: 6.00 Build 0)  -->
<svg version="1.1"
	 id="svg8" inkscape:version="0.92.4 (5da689c313, 2019-01-14)" sodipodi:docname="peces-mariscos-comerciales.svg" xmlns:cc="http://creativecommons.org/ns#" xmlns:dc="http://purl.org/dc/elements/1.1/" xmlns:inkscape="http://www.inkscape.org/namespaces/inkscape" xmlns:rdf="http://www.w3.org/1999/02/22-rdf-syntax-ns#" xmlns:sodipodi="http://sodipodi.sourceforge.net/DTD/sodipodi-0.dtd" xmlns:svg="http://www.w3.org/2000/svg"
	 xmlns="http://www.w3.org/2000/svg" xmlns:xlink="http://www.w3.org/1999/xlink" x="0px" y="0px" viewBox="0 0 2267.7 2267.7"
	 style="enable-background:new 0 0 2267.7 2267.7;" xml:space="preserve">
<style type="text/css">
	.st0{fill:none;stroke:#000000;stroke-miterlimit:10;}
</style>
<sodipodi:namedview  bordercolor="#666666" borderopacity="1.0" id="base" inkscape:current-layer="layer1" inkscape:cx="1258.6408" inkscape:cy="1130.3504" inkscape:document-units="mm" inkscape:pageopacity="0.0" inkscape:pageshadow="2" inkscape:window-height="962" inkscape:window-maximized="1" inkscape:window-width="1280" inkscape:window-x="-8" inkscape:window-y="-8" inkscape:zoom="0.1400905" pagecolor="#ffffff" showgrid="false">
	</sodipodi:namedview>
<g id="layer1" transform="translate(-39.992864,135.18128)" inkscape:groupmode="layer" inkscape:label="Capa 1">
	<path id="path3713" inkscape:connector-curvature="0" class="st0" d="M1971,1158.9l-4.5,9.1l4.5-2.3l106.7,27.2
		c6.8,2.3,11.3,4.5,13.6,9.1l122.6,124.8c4.5,6.8,6.8,13.6,6.8,22.7v122.6c0,18.2-15.9,31.8-31.8,31.8s-29.5-13.6-29.5-31.8v-111.2
		L2055,1251.9l-108.9-29.5c-9.1,13.6-18.2,27.2-29.5,40.9l104.4,54.5c6.8,4.5,11.3,9.1,13.6,15.9l59,122.6c4.5,9.1,4.5,20.4,0,27.2
		l-61.3,122.6c-9.1,15.9-27.2,22.7-40.9,13.6c-15.9-6.8-22.7-25-13.6-40.9l54.5-108.9l-47.7-99.9l-115.7-61.3
		c-20.4,13.6-40.9,27.2-61.3,36.3l97.6,102.1c6.8,4.5,9.1,13.6,9.1,20.4l-2.3,124.8c0,11.3-6.8,22.7-15.9,27.2l-90.8,43.1
		c-6.8-18.2-13.6-38.6-20.4-56.7l65.8-34l2.3-90.8l-111.2-113.5c-20.4,4.5-40.9,6.8-63.5,4.5h4.5c-4.5,0-6.8,0-9.1,0
		c-6.8,0-13.6,0-20.4,2.3c-18.2-25-38.6-49.9-61.3-72.6c-90.8-93.1-202-152.1-310.9-163.4l-25-2.3c-38.6-2.3-70.4,4.5-115.7,6.8
		c-43.1,2.3-88.5,11.3-129.4,11.3c-2.3-13.6-4.5-61.3-4.5-74.9c-84-22.7-81.7-22.7-84-25c-61.3-25-108.9-61.3-149.8-115.7
		c-36.3-49.9-59-106.7-70.4-174.8c-11.3-74.9,0-122.6,4.5-227c0,0,0-2.3,0-4.5c13.6-68.1,56.7-129.4,113.5-168l49.9-31.8
		c81.7-52.2,181.6-56.7,263.3-13.6l61.3,31.8C1129,394,995.1,480.3,972.4,496.2c-13.6,9.1-18.2,27.2-9.1,43.1
		c9.1,13.6,29.5,18.2,43.1,9.1l145.3-95.3c59,72.6,43.1,181.6-27.2,227l-65.8,43.1c-45.4,29.5-95.3,49.9-145.3,61.3
		c6.8,18.2,18.2,34,36.3,43.1l68.1,36.3c6.8-11.3,15.9-22.7,27.2-29.5c22.7-18.2,49.9-22.7,77.2-15.9
		c54.5,13.6,127.1,18.2,188.4-4.5c0-2.3,0-2.3,0-2.3l6.8-177c-29.5-6.8-49.9-34-49.9-63.5c2.3-34,29.5-63.5,63.5-61.3
		c34,0,63.5,29.5,61.3,63.5c0,29.5-20.4,54.5-49.9,61.3l-6.8,168c11.3-6.8,22.7-13.6,34-22.7l74.9-68.1
		c31.8-27.2,77.2-27.2,106.7,2.3l59,54.5c13.6,13.6,31.8,25,49.9,34l6.8-165.7c-29.5-4.5-49.9-31.8-49.9-61.3
		c2.3-34,29.5-61.3,63.5-61.3c36.3,0,63.5,29.5,63.5,63.5c-2.3,29.5-22.7,54.5-52.2,61.3l-6.8,174.8c56.7,25,122.6,29.5,181.6,15.9
		c27.2-6.8,56.7-2.3,79.4,15.9c11.3,9.1,20.4,20.4,27.2,31.8l68.1-34c18.2-9.1,31.8-25,38.6-45.4c-106.7-25-161.1-79.4-206.5-106.7
		c-120.3-84-72.6-186.1-36.3-233.8l11.3,6.8c59,43.1,122.6,86.2,136.2,97.6c15.9,9.1,34,6.8,43.1-9.1c11.3-13.6,6.8-34-6.8-43.1
		L1807.6,360l63.5-29.5c84-40.9,183.8-36.3,263.3,20.4l49.9,31.8c56.7,40.9,97.6,102.1,108.9,170.2c2.3,4.5,0,0,4.5,124.8
		c2.3,36.3,0,74.9-6.8,108.9c-11.3,65.8-36.3,122.6-74.9,170.2c-40.9,54.5-88.5,90.8-149.8,113.5c-4.5,2.3,0,0-86.2,20.4
		C1980.1,1115.8,1977.9,1138.5,1971,1158.9z M1165.3,1985c-31.8-90.8-52.2-188.4-52.2-290.5c0-172.5,52.2-333.6,138.4-467.5
		c6.8-2.3,15.9,2.3,22.7,2.3c0,0,0-2.3,0,0c122.6,38.6,233.8,97.6,326.8,190.6c84,86.2,136.2,190.6,161.1,306.4
		c4.5,20.4-11.3,52.2-29.5,68.1c-122.6,120.3-272.4,174.8-440.3,188.4c-13.6,0-25,2.3-38.6,0
		C1222.1,1980.5,1192.6,1980.5,1165.3,1985z M1333.3,1606c0,38.6,20.4,61.3,59,63.5c38.6,0,61.3-20.4,63.5-63.5
		c0-36.3-20.4-59-56.7-61.3C1358.3,1544.7,1333.3,1567.4,1333.3,1606z M1081.4,2021.3c-11.3,9.1-22.7,15.9-31.8,27.2
		c-52.2,54.5-129.4,61.3-202,49.9c-13.6-2.3-36.3-29.5-34-43.1c0-43.1,11.3-84,20.4-131.6c-15.9-6.8-34-11.3-49.9-20.4
		c-102.1-54.5-202-108.9-301.9-168c-25-15.9-43.1-27.2-74.9-15.9c-65.8,22.7-172.5,6.8-177-31.8c-4.5-49.9,22.7-102.1,36.3-161.1
		c-34-61.3-79.4-133.9-118-211.1C53.2,1127.1,35.1,927.4,57.8,723.1c11.3-86.2,27.2-172.5,54.5-254.2
		C184.9,251,341.5,105.8,527.6-14.5c56.7-34,115.7-63.5,177-88.5c20.4-9.1,49.9,6.8,77.2,9.1c-4.5,25-2.3,54.5-13.6,72.6
		c-31.8,43.1-70.4,81.7-104.4,122.6c-34,36.3-70.4,70.4-97.6,111.2c-43.1,61.3-49.9,124.8,2.3,186.1c6.8,9.1,11.3,18.2,18.2,25
		c36.3,61.3,22.7,111.2-45.4,136.2c-40.9,15.9-84,27.2-124.8,45.4c-120.3,52.2-197.5,174.8-190.6,299.6
		c4.5,70.4,36.3,122.6,99.9,152.1c15.9,6.8,31.8,11.3,47.7,13.6c102.1,63.5,360.9,190.6,767.1,165.7
		c-72.6,136.2-115.7,292.8-115.7,458.5C1030.6,1865.5,1081.4,2021.3,1081.4,2021.3z"/>
</g>
</svg>
