<?xml version="1.0" encoding="utf-8"?>
<!-- Generator: Adobe Illustrator 22.1.0, SVG Export Plug-In . SVG Version: 6.00 Build 0)  -->
<svg version="1.1"
	 id="svg8" inkscape:version="0.92.4 (5da689c313, 2019-01-14)" sodipodi:docname="protoctista.svg" xmlns:cc="http://creativecommons.org/ns#" xmlns:dc="http://purl.org/dc/elements/1.1/" xmlns:inkscape="http://www.inkscape.org/namespaces/inkscape" xmlns:rdf="http://www.w3.org/1999/02/22-rdf-syntax-ns#" xmlns:sodipodi="http://sodipodi.sourceforge.net/DTD/sodipodi-0.dtd" xmlns:svg="http://www.w3.org/2000/svg"
	 xmlns="http://www.w3.org/2000/svg" xmlns:xlink="http://www.w3.org/1999/xlink" x="0px" y="0px" viewBox="0 0 2267.7 2267.7"
	 style="enable-background:new 0 0 2267.7 2267.7;" xml:space="preserve">
<style type="text/css">
	.st0{fill:black;stroke:#000000;stroke-width:0.25;stroke-miterlimit:10;}
</style>
<sodipodi:namedview  bordercolor="#666666" borderopacity="1.0" id="base" inkscape:current-layer="layer1" inkscape:cx="1394.7511" inkscape:cy="566.19973" inkscape:document-units="mm" inkscape:pageopacity="0.0" inkscape:pageshadow="2" inkscape:window-height="962" inkscape:window-maximized="1" inkscape:window-width="1280" inkscape:window-x="-8" inkscape:window-y="-8" inkscape:zoom="0.1400905" pagecolor="#ffffff" showgrid="false">
	</sodipodi:namedview>
<g id="layer1" transform="translate(-95.580356,-10.850509)" inkscape:groupmode="layer" inkscape:label="Capa 1">
	<path id="path3713" inkscape:connector-curvature="0" class="st0" d="M1434.4,567.4L1434.4,567.4L1434.4,567.4L1434.4,567.4z
		 M2350.1,980.4c-12.4,10-27.4-5-37.3-12.4c-59.7-47.3-126.9-82.1-196.6-109.5c-89.6-34.8-131.9-17.4-174.2,64.7
		c-24.9,47.3-57.2,74.6-109.5,82.1c-47.3,7.5-99.5,5-129.4,54.7c-2.5,5-17.4,2.5-17.4,2.5c12.4-22.4-27.4-29.9-17.4-52.3
		c5-7.5,10-12.4,12.4-19.9c10-24.9,14.9-52.3,10-77.1c-7.5-44.8-42.3-10-62.2-19.9c-7.5-5-14.9-5-29.9-10
		c14.9,34.8,37.3,59.7,2.5,92.1c-29.9,24.9,0,32.3,29.9,32.3c-67.2,17.4-39.8,77.1-64.7,109.5c-12.4,14.9-10,39.8-32.3,49.8
		c42.3,19.9,79.6-10,116.9-12.4c2.5,0,5-7.5,7.5-12.4c29.9-72.2,77.1-92.1,146.8-59.7c136.9,62.2,263.8,144.3,385.7,231.4
		c47.3,29.9,79.6,77.1,112,121.9c7.5,10,17.4,22.4,5,34.8c-10,7.5-22.4,0-32.3-5c-114.5-79.6-253.8-97-383.2-141.8
		c-87.1-29.9-174.2-29.9-263.8,0c-24.9,7.5-54.7,10-82.1,14.9c-37.3,7.5-52.3,37.3-37.3,72.2c17.4,39.8,69.7,159.2,79.6,201.5
		c62.2,388.2-47.3,375.7-47.3,375.7c-32.3,0-82.1-273.7-89.6-296.1c-24.9-67.2-59.7-124.4-109.5-176.7
		c-14.9-17.4-34.8-34.8-57.2-29.9c-22.4,7.5-17.4,32.3-22.4,52.3c-12.4,59.7-24.9,119.4-22.4,181.6c0,12.4-5,24.9-7.5,34.8
		c-5,12.4-7.5,27.4-22.4,29.9c-17.4,2.5-22.4-14.9-29.9-27.4c-39.8-74.6-52.3-154.3-57.2-236.4c-5-57.2-29.9-74.6-84.6-59.7
		c-77.1,22.4-129.4,74.6-184.1,126.9c-97,94.6-136.9,223.9-191.6,343.4c-7.5,17.4-10,47.3-37.3,39.8c-24.9-5-22.4-32.3-24.9-52.3
		c-2.5-99.5,24.9-191.6,74.6-276.2c27.4-47.3,52.3-97,74.6-146.8c17.4-47.3,39.8-89.6,79.6-121.9c24.9-22.4,37.3-49.8,10-79.6
		c-5-7.5-5-14.9-10-22.4c-14.9-34.8,0-89.6-44.8-102c-64.7-19.9-131.9-32.3-201.5-10c-139.3,44.8-263.8,116.9-388.2,191.6
		c-27.4,17.4-67.2,42.3-89.6,17.4c-19.9-22.4,17.4-52.3,34.8-74.6c94.6-119.4,199.1-221.5,330.9-298.6
		c82.1-49.8,149.3-116.9,176.7-214c7.5-27.4,5-42.3-19.9-62.2c-107-77.1-102-196.6,12.4-266.2c121.9-74.6,258.8-104.5,400.6-119.4
		c79.6-7.5,159.2-27.4,238.9-27.4c102,0,206.5-14.9,308.5,7.5c77.1,14.9,141.8,57.2,204,99.5c29.9,19.9,42.3,49.8,19.9,84.6
		c-14.9,22.4-5,32.3,17.4,37.3c119.4,29.9,211.5,114.5,316,171.7c89.6,49.8,149.3,139.3,201.5,228.9
		C2355,948.1,2367.5,968,2350.1,980.4z M1626,771.4c-12.4-17.4-37.3,2.5-44.8-17.4c7.5-19.9,37.3-12.4,37.3-39.8
		c-59.7-7.5-92.1-47.3-116.9-97c-12.4-29.9-37.3-42.3-67.2-49.8c0-7.5-2.5-12.4-2.5-17.4c5-5,7.5-7.5,12.4-12.4
		c24.9,5,52.3-14.9,77.1,22.4c7.5,14.9,34.8,37.3,57.2,49.8c10,5,14.9,14.9,24.9,7.5c7.5-5,12.4-12.4,10-22.4
		c-2.5-17.4-12.4-5-19.9-2.5c-10,0-14.9-5-19.9-12.4c-39.8-49.8-92.1-74.6-151.8-92.1c-27.4-7.5-42.3-22.4-37.3-54.7
		c-14.9,32.3-37.3,39.8-67.2,39.8c-52.3,2.5-104.5,12.4-149.3,44.8c-47.3-24.9-97-17.4-146.8-19.9c-22.4,0-44.8,0-67.2-5
		c44.8-10,89.6-12.4,126.9-42.3l0,0l0,0c7.5,7.5,17.4,12.4,29.9,12.4c37.3,7.5,62.2-19.9,92.1-29.9c64.7-19.9,72.2-24.9,52.3-92.1
		c-12.4,12.4,7.5,32.3-10,42.3c-22.4-2.5-12.4-27.4-27.4-37.3c-5,12.4,10,32.3-5,37.3c-24.9,5-17.4-34.8-42.3-34.8
		c-17.4,24.9,17.4,49.8,0,77.1c-22.4-19.9-19.9-59.7-52.3-69.7c0,27.4,22.4,49.8,10,77.1c-22.4-14.9-17.4-52.3-47.3-59.7
		c-7.5,27.4,32.3,52.3,0,77.1l0,0l0,0c-7.5-22.4-12.4-47.3-37.3-62.2c-5,19.9,17.4,29.9,5,49.8c-39.8-54.7-22.4,19.9-42.3,17.4
		c-17.4-47.3-69.7-44.8-104.5-77.1c2.5,17.4,10,19.9,17.4,22.4c37.3,17.4,0,37.3-2.5,47.3c-7.5,17.4-19.9-5-27.4-10
		c-27.4-19.9-59.7-37.3-92.1-19.9C775,433,750.1,443,725.2,452.9c-54.7,27.4-84.6,67.2-74.6,104.5c7.5,22.4,14.9,49.8,32.3,62.2
		c42.3,34.8,27.4,47.3-12.4,59.7c-10,2.5-22.4,10-19.9,22.4c0,12.4,12.4,14.9,22.4,17.4c32.3,10,69.7,14.9,102,32.3
		c104.5,59.7,223.9,69.7,338.4,87.1c136.9,19.9,273.7-19.9,410.6-19.9C1561.3,816.2,1598.6,801.3,1626,771.4z M1076.1,741.5
		c-37.3,19.9-72.2,2.5-109.5,2.5c-84.6-5-154.3-37.3-199.1-112c-10-14.9-19.9-32.3-14.9-47.3c7.5-14.9,22.4,2.5,37.3-2.5
		c-29.9-27.4-14.9-32.3,12.4-29.9c12.4,2.5,24.9,2.5,37.3,5c59.7,14.9,116.9,0,174.2-7.5c72.2-12.4,107,0,126.9,62.2
		C1155.7,652,1120.9,716.7,1076.1,741.5z M1362.2,579.8c34.8,22.4,54.7,57.2,74.6,92.1c19.9,32.3,10,59.7-22.4,72.2
		c-34.8,14.9-67.2,12.4-102,12.4c-57.2,0-112,22.4-171.7,17.4c-12.4,0-29.9,5-39.8-7.5c-10-14.9,10-22.4,17.4-34.8
		c19.9-32.3,42.3-64.7,37.3-109.5c0-24.9,10-39.8,37.3-37.3C1193,584.8,1304.9,550.4,1362.2,579.8z"/>
</g>
</svg>
