<svg id="Capa_1" data-name="Capa 1" xmlns="http://www.w3.org/2000/svg" viewBox="0 0 136.48 100"><defs><style>.cls-1,.cls-2{fill:#fff;}.cls-2{fill-rule:evenodd;}</style></defs><title>conabio</title><path class="cls-1" d="M39.9,110c-14,0-25.36-.3-25.36-0.67s11.36-.67,25.36-0.67H75.08V110H39.9Z" transform="translate(-11.76 -10)"/><path class="cls-1" d="M120.07,108.67c14,0,25.39.3,25.39,0.67s-11.37.66-25.39,0.66H84.85v-1.33h35.22Z" transform="translate(-11.76 -10)"/><path class="cls-1" d="M22.31,104.34c-5.82,0-10.55-3.18-10.55-10C11.76,88,16,84.17,22.67,84.17c2.61,0,5.4.75,6.67,0.75a14.93,14.93,0,0,1,.16,1.68,30.49,30.49,0,0,1-.39,4.4H28.28c0-3.93-2.17-5.46-5.66-5.46-4.81,0-7.6,3.41-7.6,8.71s3.31,8.64,7.73,8.64a5.4,5.4,0,0,0,5.74-4.32h0.75a13.69,13.69,0,0,1-.83,4.37A12.23,12.23,0,0,1,22.31,104.34Z" transform="translate(-11.76 -10)"/><path class="cls-1" d="M33,94.41c0-6.28,4.52-10.24,10.37-10.24,6.13,0,10.13,4.09,10.13,10,0,6.26-4.55,10.21-10.34,10.21C37,104.34,33,100.3,33,94.41Zm17.19-.13c0-4.42-2.17-8.74-7.19-8.74-4.55,0-6.75,3.67-6.75,8.56,0,4.58,2.3,8.82,7.32,8.82C48.09,102.91,50.15,99,50.15,94.28Z" transform="translate(-11.76 -10)"/><path class="cls-1" d="M60.34,88.36l-0.18.05,0.05,10.13c0,4.16.28,4.52,1.55,4.63l1.37,0.13v0.65h-7.5V103.3l1.32-.13c1.29-.1,1.53-0.54,1.55-4.63l0.05-10.83a2.12,2.12,0,0,0-2.17-2.38l-0.88-.1V84.56h4.81A3.17,3.17,0,0,1,62,85.77c3,3.26,7.55,8.58,11,12.77l0.16-.05L73,89.31c0-3.39-.34-3.85-1.53-4l-1.27-.13V84.56h7.19v0.67l-1.14.13c-1.32.13-1.5,0.8-1.5,4.63v14a4.93,4.93,0,0,1-1.14.23C69.8,99.16,65.74,94.48,60.34,88.36Z" transform="translate(-11.76 -10)"/><path class="cls-1" d="M77.92,103.95v-0.59c1.6-.34,2.17-0.67,3-2.66l7-16.26a2.21,2.21,0,0,1,.62-0.13c1.16,3,6.26,16,7.29,17.71a2.29,2.29,0,0,0,2.07,1.27v0.67H89.58V103.3l1.06-.05c1.22-.08,1.6-0.34,1.6-1.06a9.27,9.27,0,0,0-.78-2.71l-0.85-2.25-6.44.05L83.5,98.93a14.58,14.58,0,0,0-1,3.21c0,0.75.57,1,2.51,1.16v0.65H77.92Zm9.62-14.45H87.38c-0.85,2-1.89,4.5-2.69,6.46L90.12,96Z" transform="translate(-11.76 -10)"/><path class="cls-1" d="M99.71,103.3l1.32-.13c1.16-.1,1.37-0.7,1.37-4.63V90c0-3.9-.21-4.45-1.37-4.55l-1.32-.13V84.66c2-.1,5.56-0.16,7.29-0.16,4.21,0,6.28,1.71,6.28,4.5a4.57,4.57,0,0,1-3.59,4.27V93.4c2.87,0.41,4.89,2,4.89,4.73,0,3.46-2.87,5.82-7.42,5.82H99.71V103.3ZM106.93,93c2.22-.08,3.18-1.6,3.18-3.62,0-2.33-1.14-3.54-2.92-3.54a5.72,5.72,0,0,0-1.86.31v6.93Zm4.4,5.77c0-2.46-1.42-4.58-4.11-4.63l-1.89-.05v4.4c0,4,.39,4.24,2.15,4.24A3.62,3.62,0,0,0,111.32,98.78Z" transform="translate(-11.76 -10)"/><path class="cls-1" d="M117,103.95V103.3l1.32-.13c1.19-.13,1.37-0.7,1.37-4.63V90c0-4-.21-4.5-1.37-4.63L117,85.23V84.56h8.3v0.67l-1.32.13c-1.19.13-1.37,0.67-1.37,4.63v8.56c0,3.93.18,4.5,1.37,4.63l1.32,0.13v0.65H117Z" transform="translate(-11.76 -10)"/><path class="cls-1" d="M127.74,94.41c0-6.28,4.52-10.24,10.37-10.24,6.13,0,10.13,4.09,10.13,10,0,6.26-4.55,10.21-10.34,10.21C131.74,104.34,127.74,100.3,127.74,94.41Zm17.19-.13c0-4.42-2.17-8.74-7.19-8.74-4.55,0-6.75,3.67-6.75,8.56,0,4.58,2.3,8.82,7.32,8.82C142.86,102.91,144.93,99,144.93,94.28Z" transform="translate(-11.76 -10)"/><path class="cls-2" d="M91.14,20.5a0.68,0.68,0,1,1-.8.67,0.75,0.75,0,0,1,.8-0.67m-2.06-1.84a5.87,5.87,0,0,1,3.61-.08,13.69,13.69,0,0,1,3,1.3,13.36,13.36,0,0,1,2.5,2.45,2.73,2.73,0,0,1,0,1.55,3.52,3.52,0,0,1-1,1.17,10.64,10.64,0,0,1-2.82,1,17.66,17.66,0,0,1-2.4.27C91.51,26.27,88.7,25,88.51,25a3.72,3.72,0,0,0-.67,1.07,3.06,3.06,0,0,1-1.47-2.74,3.62,3.62,0,0,1,.84-2.6A5.3,5.3,0,0,0,88.07,20,2.62,2.62,0,0,1,89.09,18.66Z" transform="translate(-11.76 -10)"/><path class="cls-2" d="M97.2,26c0.71-.51,1.22-1.34,1.36-1.34a6.37,6.37,0,0,1,1.69,1.45,23.29,23.29,0,0,1,1.69,2.36,23,23,0,0,1,3,6,29.51,29.51,0,0,1,.23,7.74c-0.29,2.37-.46,4.78-0.5,4.89s-0.47,1.06-.9.76a29.1,29.1,0,0,1-8.51-10c-0.47-.89-0.88-1.75-1.28-2.57a44.56,44.56,0,0,1-1.76-4.19,10.84,10.84,0,0,1-.71-2.77,1.84,1.84,0,0,1,.3-1.26,2.8,2.8,0,0,1,.76.07,9,9,0,0,0,1.31,0A5,5,0,0,0,97.2,26" transform="translate(-11.76 -10)"/><path class="cls-2" d="M97.83,43.3c0.26-.09.48,0.4,0.83,0.73s2.31,2.2,2.71,2.69a6,6,0,0,1,1.1,1.67c0.22,0.62.29,1.07-.18,3.13s-2.66,11.15-3.92,15.27-1.39,5-1.49,5.31a0.65,0.65,0,0,1-.72.57,0.74,0.74,0,0,1-.77-0.85,31.79,31.79,0,0,1,0-5.2c0.19-2.18.78-6,.78-8.19s-0.31-3.31-.23-4.85A69.47,69.47,0,0,1,97,46.11c0.32-1.36.56-2.72,0.81-2.81" transform="translate(-11.76 -10)"/><path class="cls-2" d="M82.39,27.81c0-.75.48-0.86,1.43-1a5.31,5.31,0,0,1,2.25.2,20.37,20.37,0,0,1,2.3,1.08,16.12,16.12,0,0,1,1.94,2,13.22,13.22,0,0,1,2.12,3.53,6.22,6.22,0,0,1,.53,2.3,8.47,8.47,0,0,1-1.35,1.94,5,5,0,0,1-4.41,1.93c-2.77-.21-4.07-2.38-4.78-2.85a7,7,0,0,0-1.57-1c-0.75-.3-0.83-0.59-0.73-1a1.11,1.11,0,0,1,1.33-.79,13.66,13.66,0,0,1,2,.28,1.56,1.56,0,0,0-.89-0.61c-0.63-.18-1.82-0.24-2.59-0.45s-0.6-.66-0.59-0.79a1,1,0,0,1,1.05-.94c1-.1,3.24-0.14,3.24-0.14s-2.92-.52-3.25-0.62a0.65,0.65,0,0,1-.48-0.73,1,1,0,0,1,.82-1,7.4,7.4,0,0,1,1.89-.18c0.72,0,2.74.4,2.74,0.4s0-.27-0.68-0.55-2.28-.35-2.27-1.1" transform="translate(-11.76 -10)"/><path class="cls-2" d="M85.25,41.8a0.9,0.9,0,0,1,.16-0.91,28.75,28.75,0,0,1,2.83-.59,14.94,14.94,0,0,0,2.54-.41,4.71,4.71,0,0,0,1-.6,8.43,8.43,0,0,1,1.93-1.56,0.89,0.89,0,0,1,1.17.37,1.5,1.5,0,0,1,.29,1.43A5.74,5.74,0,0,1,92.75,42a4.81,4.81,0,0,1-2.46.95,24.54,24.54,0,0,1-4,.12,1.1,1.1,0,0,1-1.08-1.23" transform="translate(-11.76 -10)"/><path class="cls-2" d="M86.22,43.87c0.94,0,3.88-.07,4.35-0.14a5.9,5.9,0,0,0,2.2-.79,15.29,15.29,0,0,1,2.5-1.55,1.08,1.08,0,0,1,.94.84,3.16,3.16,0,0,1-1.11,2.68C94,46,91.86,46.28,90.61,46.51a16,16,0,0,1-2.89.34c-0.44,0-2.18-.26-2.26-0.94s-0.17-2,.77-2" transform="translate(-11.76 -10)"/><path class="cls-2" d="M95.33,46.45A18,18,0,0,1,95,51.91c-0.46,2-2,8.2-2.27,8.66a12.57,12.57,0,0,1-3,1.85,23.15,23.15,0,0,1-2.38.88c-0.11,0-.89.37-0.85-0.61a84.66,84.66,0,0,0-.07-8.9c-0.29-3.24-.35-4.57-0.4-5s-0.11-1.08.56-1.1a33.17,33.17,0,0,0,4.2-.23c1.5-.24,4.4-0.95,4.58-1" transform="translate(-11.76 -10)"/><path class="cls-2" d="M65.67,53.14a2.84,2.84,0,0,1,.57.68c0.15,0.21,3,4.07,7,4.92s5.33-.13,5.75-0.62a19.23,19.23,0,0,0,1.51-3.59A2.23,2.23,0,0,1,82.13,53a8.51,8.51,0,0,1,1.41-.24,3.42,3.42,0,0,1,1.9.31c0.44,0.36.49,3.41,0.29,5.08S85.11,63,85,63.21s-1.73,1.07-5.16,1.15-9.65-1-13-2.8a21.64,21.64,0,0,1-6-4.36c-1.31-1.32-1-1.19-.93-1.51a1.79,1.79,0,0,1,.55-0.93c0.2,0,1.25-.12,2.07-0.3A6.37,6.37,0,0,0,65,53.62a1.38,1.38,0,0,1,.63-0.48" transform="translate(-11.76 -10)"/><path class="cls-2" d="M101.08,62.12c0.33,0.19,1.33-.31,2.82-1.79a17.51,17.51,0,0,0,2.58-3.12,35.31,35.31,0,0,0,4.17-9.93,30.25,30.25,0,0,0,.93-7.8,38.33,38.33,0,0,0-2.19-11.38c-1.35-3.06-2.58-6.51-5.31-9a34.19,34.19,0,0,0-13.71-7.65c-6-1.56-7.57-1.38-9.49-1.44a59.56,59.56,0,0,0-10.11.93c-3.15.63-4.14,1-5,1.26s-9.42,4-13.09,10.23a34.1,34.1,0,0,0-4.23,17.65c0.21,3.9,1.17,14.61,6.66,20.77s12.19,8.85,23,9.42,16.39-3.78,16.39-3.78l0.66-5.31s-7.44,4.08-15.61,4.23-15.69-3-20.26-8.1-6.09-15.12-5.37-22.18S57.78,20.93,67.5,17.24s21.43-.69,24.61.21S104.23,24.17,106,34.91s-1.68,15.58-2.52,17.56-2,4-2.19,5.73-0.57,3.72-.24,3.92" transform="translate(-11.76 -10)"/><path class="cls-2" d="M60.91,46.31a2,2,0,0,1,1.86,1.25A1.34,1.34,0,0,1,61.68,49c-0.82.14-2.11,0.17-2.42-.61a1.4,1.4,0,0,1,.49-1.77,1.94,1.94,0,0,1,1.16-.36m-0.33-.47c1.49,0,3.16,1.18,3.17,2.57a1.94,1.94,0,0,1-2.19,2.15c-1.36-.11-3.2-0.75-3.07-2.68A2.21,2.21,0,0,1,60.58,45.84Zm11-7.07a2.8,2.8,0,0,1,2.5-.46,1.41,1.41,0,0,1-.28.84,5.81,5.81,0,0,1-1,1.13,2.44,2.44,0,0,1-2.23.73C70.38,40.8,70.64,39.6,71.55,38.77Zm8.82,2.48a0.82,0.82,0,0,1-.25.83,0.76,0.76,0,0,1-.92.18c-0.35-.3-0.16-0.69.34-0.94S80.17,41.07,80.37,41.25ZM77.78,16.54c0.59,0,1.66,2.41,1.83,3.82a12.11,12.11,0,0,1-.44,6.2c-1,2.71-2.52,4.83-3,4.9l-1,.15a6.51,6.51,0,0,0-4.12-1.48,9,9,0,0,0-5.58,2.47A8,8,0,0,0,62.59,37a9,9,0,0,0,.35,4.37c0.49,1.08.71,0.91,0.71,0.91a0.46,0.46,0,0,0,.4,0c0.06-.13-1-3.36-0.34-5.4s1.55-3.85,5.18-5.39c3.3-1.41,4.77.66,5.67,1.31s1.62,1.1,2.21,1.46a31.9,31.9,0,0,1,5.29,4.23c1.39,1.61,1.55,1.72,1.39,2.3s-1,1.3-.93,1.72,0.76,1.43.44,2.06a2.57,2.57,0,0,1-1.48,1.34,2.08,2.08,0,0,0-1.22,1.17,0.81,0.81,0,0,0,.76,0,2.34,2.34,0,0,1,1.29-.33A1.68,1.68,0,0,1,84,48.46c0.26,1.52.26,2.27-.27,2.94a3.48,3.48,0,0,1-1.88,1,5,5,0,0,0-1.68.62A8.06,8.06,0,0,0,79,56a3.59,3.59,0,0,1-1,2.07,14.57,14.57,0,0,1-5.56-.36,10,10,0,0,1-4.09-2.82,20.94,20.94,0,0,1-2.19-2.45H65.44a4.55,4.55,0,0,1-3.72,1.37c-2.13-.35-5.75-1.65-5.69-6s3-4.79,3.14-5.07S59.38,42,58.76,42a4.84,4.84,0,0,0-2.15.69c-0.58.39-1.68,1.24-1.77,0.44a4.1,4.1,0,0,1,2.22-4c2.08-1,2.57-.82,2.53-1.59S58,37.1,57.48,37.3a11.11,11.11,0,0,0-1.79.93c-0.09.13-.89,0.73-0.89-0.16a4.23,4.23,0,0,1,2.06-3.67c1.75-1,3.59-.6,3.65-1.24s-0.73-.86-1.4-0.79a9.73,9.73,0,0,0-2.92,1c-0.37.31-1,.37-0.8-0.53a4.76,4.76,0,0,1,3.13-3.64c2.15-.62,3.87.51,4.07,0.13a1.21,1.21,0,0,0-.85-1.52,3.28,3.28,0,0,0-2.79-.18c-1.29.4-1.59,0.2-1.37-.29a4.08,4.08,0,0,1,4-3.07c3.08,0,3.86,2.83,4.59,2.63s-0.29-2.52-.89-3.47-2.68-2.45-1.89-3,2.7-.35,3.9.42a3.65,3.65,0,0,1,1.52,1.35c0.31,0.44,1.49,3.11,1.75,3s0.37-1.66.15-2.78a12.84,12.84,0,0,0-2.15-4c-0.46-.42-0.35-0.79.46-0.84a5.55,5.55,0,0,1,4.29,1.77A7,7,0,0,1,74.41,24c-0.15.38-.09,1.39,0.46,0.79a10.11,10.11,0,0,0,2-4.43C77.15,18.43,77.2,16.56,77.78,16.54Z" transform="translate(-11.76 -10)"/></svg>