<?xml version="1.0" encoding="utf-8"?>
<!-- Generator: Adobe Illustrator 16.0.0, SVG Export Plug-In . SVG Version: 6.00 Build 0)  -->
<!DOCTYPE svg PUBLIC "-//W3C//DTD SVG 1.1//EN" "http://www.w3.org/Graphics/SVG/1.1/DTD/svg11.dtd">
<svg version="1.1" id="Capa_1" xmlns="http://www.w3.org/2000/svg" xmlns:xlink="http://www.w3.org/1999/xlink" x="0px" y="0px"
	 width="270.335px" height="80px" viewBox="0 0 270.335 80" enable-background="new 0 0 270.335 80" xml:space="preserve">
<g>
	<g>
		<path fill="#FFFFFF" d="M127.797,43.06c-16.415,0-29.723-0.35-29.723-0.78c0-0.432,13.308-0.777,29.723-0.777h41.228v1.558
			H127.797z"/>
		<path fill="#FFFFFF" d="M221.753,41.502c16.436,0,29.758,0.351,29.758,0.779c0,0.431-13.322,0.778-29.758,0.778h-41.275v-1.558
			H221.753z"/>
	</g>
	<g>
		<path fill="#FFFFFF" d="M120.505,57.647c-1.624,0-2.945-0.888-2.945-2.793c0-1.769,1.191-2.837,3.046-2.837
			c0.729,0,1.508,0.209,1.863,0.209c0.014,0.109,0.042,0.325,0.042,0.469c0,0.405-0.072,1.076-0.108,1.229h-0.23
			c-0.008-1.099-0.606-1.523-1.581-1.523c-1.342,0-2.122,0.951-2.122,2.432c0,1.509,0.923,2.411,2.158,2.411
			c0.967,0,1.444-0.549,1.603-1.205h0.209c0,0.295-0.086,0.888-0.231,1.221C121.819,57.489,121.228,57.647,120.505,57.647z"/>
		<path fill="#FFFFFF" d="M123.119,54.876c0-1.755,1.263-2.858,2.894-2.858c1.711,0,2.83,1.142,2.83,2.779
			c0,1.746-1.271,2.851-2.887,2.851C124.238,57.647,123.119,56.521,123.119,54.876z M127.918,54.84c0-1.234-0.606-2.439-2.006-2.439
			c-1.27,0-1.884,1.024-1.884,2.389c0,1.277,0.643,2.461,2.042,2.461C127.342,57.25,127.918,56.153,127.918,54.84z"/>
		<path fill="#FFFFFF" d="M129.118,57.539v-0.181l0.346-0.035c0.326-0.037,0.412-0.196,0.477-0.745
			c0.036-0.339,0.289-2.886,0.368-3.788c-0.159-0.274-0.31-0.426-0.477-0.448l-0.31-0.035v-0.181h1.205
			c0.26,0,1.061,1.566,1.978,4.014h0.043c0.296-0.715,1.293-3.206,1.494-4.014h1.61v0.181l-0.318,0.035
			c-0.26,0.029-0.368,0.174-0.368,0.462c0,0.369,0.261,3.4,0.304,3.774c0.058,0.491,0.115,0.724,0.396,0.745l0.369,0.035v0.181
			h-2.281v-0.181l0.332-0.035c0.333-0.029,0.383-0.116,0.383-0.404c0-0.354-0.173-2.297-0.287-3.553h-0.052
			c-0.469,1.185-1.119,2.773-1.559,3.978c-0.08,0.009-0.339,0.037-0.426,0.037c-0.627-1.769-1.256-3.133-1.631-3.956h-0.043
			c-0.115,1.227-0.252,3.133-0.252,3.486c0,0.332,0.058,0.391,0.426,0.418l0.318,0.029v0.181H129.118z"/>
		<path fill="#FFFFFF" d="M136.446,57.539v-0.181l0.367-0.035c0.332-0.037,0.383-0.196,0.383-1.293v-2.39
			c0-1.104-0.057-1.256-0.383-1.291l-0.367-0.036v-0.188h2.316v0.188l-0.369,0.036c-0.332,0.035-0.383,0.188-0.383,1.291v2.39
			c0,1.097,0.051,1.256,0.383,1.293l0.369,0.035v0.181H136.446z"/>
		<path fill="#FFFFFF" d="M139.247,57.466c-0.053-0.273-0.094-0.894-0.094-1.27h0.201c0.174,0.715,0.629,1.09,1.328,1.09
			c0.541,0,1.012-0.302,1.012-0.845c0-0.461-0.262-0.751-0.68-1.054l-0.619-0.447c-0.594-0.434-1.113-0.88-1.113-1.522
			c0-0.888,0.723-1.4,1.594-1.4c0.629,0,1.025,0.181,1.432,0.194c0,0.419-0.043,0.938-0.137,1.344h-0.211
			c-0.043-0.787-0.441-1.185-1.061-1.185c-0.484,0-0.873,0.304-0.873,0.772c0,0.433,0.316,0.707,0.814,1.046l0.541,0.376
			c0.832,0.576,1.098,0.996,1.098,1.566c0,0.995-0.895,1.516-1.832,1.516C140.112,57.647,139.593,57.474,139.247,57.466z"/>
		<path fill="#FFFFFF" d="M142.942,57.539v-0.181l0.367-0.035c0.332-0.037,0.383-0.196,0.383-1.293v-2.39
			c0-1.104-0.057-1.256-0.383-1.291l-0.367-0.036v-0.188h2.316v0.188l-0.367,0.036c-0.332,0.035-0.383,0.188-0.383,1.291v2.39
			c0,1.097,0.051,1.256,0.383,1.293l0.367,0.035v0.181H142.942z"/>
		<path fill="#FFFFFF" d="M145.577,54.876c0-1.755,1.264-2.858,2.895-2.858c1.711,0,2.83,1.142,2.83,2.779
			c0,1.746-1.27,2.851-2.887,2.851C146.696,57.647,145.577,56.521,145.577,54.876z M150.378,54.84c0-1.234-0.607-2.439-2.008-2.439
			c-1.27,0-1.883,1.024-1.883,2.389c0,1.277,0.643,2.461,2.043,2.461C149.8,57.25,150.378,56.153,150.378,54.84z M147.743,51.439
			c0.447-0.188,1.176-0.577,1.479-0.865h0.029c0.123,0.079,0.326,0.331,0.326,0.462c0,0.267-1.301,0.534-1.834,0.549V51.439z"/>
		<path fill="#FFFFFF" d="M152.862,53.187l-0.051,0.015l0.014,2.829c0.008,1.162,0.08,1.264,0.434,1.293l0.381,0.035v0.181h-2.092
			v-0.181l0.367-0.035c0.361-0.029,0.426-0.152,0.434-1.293l0.014-3.024c0-0.434-0.217-0.621-0.605-0.664l-0.244-0.028v-0.188h1.342
			c0.121,0,0.287,0.145,0.469,0.339c0.836,0.909,2.107,2.396,3.068,3.565l0.043-0.014l-0.029-2.563
			c-0.008-0.946-0.094-1.075-0.426-1.104l-0.354-0.036v-0.188h2.006v0.188l-0.316,0.036c-0.369,0.035-0.42,0.223-0.42,1.291v3.906
			c-0.072,0.028-0.225,0.057-0.316,0.064C155.503,56.204,154.37,54.896,152.862,53.187z"/>
		<path fill="#FFFFFF" d="M160.925,53.187l-0.051,0.015l0.014,2.829c0.008,1.162,0.08,1.264,0.434,1.293l0.383,0.035v0.181h-2.094
			v-0.181l0.367-0.035c0.363-0.029,0.426-0.152,0.436-1.293l0.014-3.024c0-0.434-0.217-0.621-0.607-0.664l-0.244-0.028v-0.188h1.342
			c0.123,0,0.289,0.145,0.469,0.339c0.838,0.909,2.107,2.396,3.068,3.565l0.043-0.014l-0.029-2.563
			c-0.008-0.946-0.092-1.075-0.426-1.104l-0.354-0.036v-0.188h2.008v0.188l-0.318,0.036c-0.369,0.035-0.418,0.223-0.418,1.291v3.906
			c-0.072,0.028-0.225,0.057-0.318,0.064C163.567,56.204,162.433,54.896,160.925,53.187z"/>
		<path fill="#FFFFFF" d="M165.472,57.539v-0.166c0.449-0.094,0.607-0.188,0.846-0.743l1.957-4.541
			c0.064-0.021,0.129-0.036,0.174-0.036c0.322,0.846,1.746,4.469,2.033,4.945c0.174,0.281,0.326,0.325,0.578,0.354v0.187h-2.332
			v-0.181l0.297-0.015c0.338-0.021,0.447-0.094,0.447-0.296c0-0.137-0.064-0.36-0.217-0.758l-0.238-0.628
			c-0.201,0-1.631,0.015-1.797,0.015l-0.188,0.463c-0.115,0.287-0.281,0.735-0.281,0.894c0,0.21,0.158,0.269,0.699,0.325v0.181
			H165.472z M168.157,53.504h-0.043c-0.236,0.557-0.525,1.256-0.75,1.805l1.516,0.015L168.157,53.504z"/>
		<path fill="#FFFFFF" d="M173.999,57.647c-1.625,0-2.947-0.888-2.947-2.793c0-1.769,1.191-2.837,3.047-2.837
			c0.729,0,1.508,0.209,1.863,0.209c0.014,0.109,0.043,0.325,0.043,0.469c0,0.405-0.072,1.076-0.107,1.229h-0.232
			c-0.008-1.099-0.607-1.523-1.58-1.523c-1.342,0-2.123,0.951-2.123,2.432c0,1.509,0.924,2.411,2.158,2.411
			c0.967,0,1.443-0.549,1.604-1.205h0.209c0,0.295-0.086,0.888-0.232,1.221C175.312,57.489,174.72,57.647,173.999,57.647z"/>
		<path fill="#FFFFFF" d="M176.538,57.539v-0.181l0.369-0.035c0.332-0.037,0.383-0.196,0.383-1.293v-2.39
			c0-1.104-0.059-1.256-0.383-1.291l-0.369-0.036v-0.188h2.318v0.188l-0.369,0.036c-0.332,0.035-0.381,0.188-0.381,1.291v2.39
			c0,1.097,0.049,1.256,0.381,1.293l0.369,0.035v0.181H176.538z"/>
		<path fill="#FFFFFF" d="M179.175,54.876c0-1.755,1.262-2.858,2.895-2.858c1.709,0,2.828,1.142,2.828,2.779
			c0,1.746-1.27,2.851-2.887,2.851C180.292,57.647,179.175,56.521,179.175,54.876z M183.974,54.84c0-1.234-0.605-2.439-2.006-2.439
			c-1.27,0-1.885,1.024-1.885,2.389c0,1.277,0.645,2.461,2.043,2.461C183.396,57.25,183.974,56.153,183.974,54.84z"/>
		<path fill="#FFFFFF" d="M186.458,53.187l-0.051,0.015l0.016,2.829c0.006,1.162,0.078,1.264,0.432,1.293l0.383,0.035v0.181h-2.094
			v-0.181l0.369-0.035c0.361-0.029,0.426-0.152,0.434-1.293l0.014-3.024c0-0.434-0.217-0.621-0.605-0.664l-0.246-0.028v-0.188h1.342
			c0.123,0,0.289,0.145,0.471,0.339c0.836,0.909,2.105,2.396,3.066,3.565l0.043-0.014l-0.027-2.563
			c-0.008-0.946-0.094-1.075-0.428-1.104l-0.354-0.036v-0.188h2.008v0.188l-0.318,0.036c-0.367,0.035-0.418,0.223-0.418,1.291v3.906
			c-0.072,0.028-0.223,0.057-0.318,0.064C189.101,56.204,187.966,54.896,186.458,53.187z"/>
		<path fill="#FFFFFF" d="M191.007,57.539v-0.166c0.447-0.094,0.605-0.188,0.844-0.743l1.957-4.541
			c0.064-0.021,0.129-0.036,0.172-0.036c0.326,0.846,1.746,4.469,2.035,4.945c0.174,0.281,0.326,0.325,0.578,0.354v0.187h-2.33
			v-0.181l0.295-0.015c0.34-0.021,0.447-0.094,0.447-0.296c0-0.137-0.064-0.36-0.217-0.758l-0.238-0.628
			c-0.201,0-1.631,0.015-1.797,0.015l-0.188,0.463c-0.115,0.287-0.283,0.735-0.283,0.894c0,0.21,0.16,0.269,0.701,0.325v0.181
			H191.007z M193.69,53.504h-0.043c-0.238,0.557-0.525,1.256-0.75,1.805l1.516,0.015L193.69,53.504z"/>
		<path fill="#FFFFFF" d="M196.731,57.358l0.367-0.035c0.324-0.029,0.383-0.196,0.383-1.293v-2.39c0-1.104-0.059-1.262-0.383-1.291
			l-0.367-0.036v-0.188h2.33v0.188l-0.383,0.036c-0.33,0.029-0.381,0.188-0.381,1.291v2.318c0,1.14,0.057,1.24,0.504,1.24h0.613
			c0.557,0,0.861-0.417,1.041-1.089h0.201c0,0.346-0.094,1.061-0.201,1.429h-3.725V57.358z"/>
		<path fill="#FFFFFF" d="M202.78,57.539v-0.181l0.369-0.035c0.33-0.029,0.381-0.196,0.381-1.293v-2.39
			c0-1.089-0.057-1.24-0.381-1.27l-0.369-0.035v-0.181c0.57-0.029,1.639-0.044,2.057-0.044c1.322,0,1.971,0.548,1.971,1.458
			c0,1.062-0.975,1.695-2.029,1.695c-0.158,0-0.295-0.007-0.432-0.021v0.786c0,1.097,0.051,1.264,0.383,1.293l0.426,0.035v0.181
			H202.78z M205.95,53.699c0-0.729-0.406-1.213-1.033-1.213c-0.209,0-0.455,0.051-0.57,0.086v2.347
			c0.137,0.015,0.266,0.015,0.402,0.015C205.56,54.934,205.95,54.479,205.95,53.699z"/>
		<path fill="#FFFFFF" d="M206.366,57.539v-0.166c0.449-0.094,0.607-0.188,0.846-0.743l1.955-4.541
			c0.066-0.021,0.131-0.036,0.176-0.036c0.324,0.846,1.746,4.469,2.035,4.945c0.172,0.281,0.324,0.325,0.576,0.354v0.187h-2.33
			v-0.181l0.295-0.015c0.34-0.021,0.449-0.094,0.449-0.296c0-0.137-0.066-0.36-0.219-0.758l-0.236-0.628
			c-0.203,0-1.633,0.015-1.799,0.015l-0.188,0.463c-0.115,0.287-0.281,0.735-0.281,0.894c0,0.21,0.158,0.269,0.701,0.325v0.181
			H206.366z M209.054,53.504h-0.045c-0.238,0.557-0.525,1.256-0.75,1.805l1.516,0.015L209.054,53.504z"/>
		<path fill="#FFFFFF" d="M212.091,57.539v-0.181l0.369-0.035c0.332-0.029,0.383-0.196,0.383-1.293v-2.39
			c0-1.089-0.057-1.24-0.383-1.27l-0.369-0.035v-0.181c0.572-0.029,1.641-0.044,2.059-0.044c1.328,0,1.949,0.505,1.949,1.393
			c0,0.736-0.498,1.185-0.967,1.437c0.75,1.4,1.277,2.144,1.646,2.318c0.15,0.07,0.258,0.094,0.402,0.094v0.187
			c-0.629,0.058-0.945,0.079-1.074,0.079c-0.123,0-0.225-0.029-0.326-0.101c-0.324-0.253-0.736-1.01-1.168-1.884
			c-0.158-0.332-0.238-0.426-0.498-0.426h-0.455v0.845c0,1.097,0.049,1.241,0.383,1.271l0.426,0.035v0.181H212.091z M214.481,54.882
			c0.418,0,0.758-0.533,0.758-1.197c0-0.729-0.389-1.198-1.012-1.198c-0.209,0-0.455,0.051-0.568,0.086v2.31H214.481z"/>
		<path fill="#FFFFFF" d="M216.958,57.539v-0.166c0.447-0.094,0.605-0.188,0.846-0.743l1.955-4.541
			c0.064-0.021,0.129-0.036,0.174-0.036c0.324,0.846,1.746,4.469,2.035,4.945c0.172,0.281,0.324,0.325,0.576,0.354v0.187h-2.33
			v-0.181l0.297-0.015c0.338-0.021,0.445-0.094,0.445-0.296c0-0.137-0.064-0.36-0.215-0.758l-0.24-0.628
			c-0.201,0-1.629,0.015-1.795,0.015l-0.189,0.463c-0.115,0.287-0.279,0.735-0.279,0.894c0,0.21,0.158,0.269,0.699,0.325v0.181
			H216.958z M219.644,53.504h-0.043c-0.238,0.557-0.527,1.256-0.752,1.805l1.516,0.015L219.644,53.504z"/>
		<path fill="#FFFFFF" d="M224.487,57.539v-0.181l0.369-0.035c0.324-0.029,0.381-0.196,0.381-1.293v-2.39
			c0-1.104-0.057-1.262-0.381-1.291l-0.369-0.036v-0.188h3.545c0.014,0.107,0.021,0.224,0.021,0.331c0,0.34-0.043,0.702-0.109,0.976
			h-0.188c-0.043-0.629-0.188-0.938-0.809-0.938c-0.303,0-0.686,0.043-0.895,0.078v2.05h0.396c0.787,0,0.902-0.057,0.996-0.49h0.189
			l-0.066,1.545h-0.188l-0.051-0.296c-0.064-0.332-0.188-0.411-0.902-0.411h-0.375v1.047c0,1.11,0.102,1.183,0.584,1.183h0.404
			c0.635,0,0.875-0.324,1.047-0.931h0.195c-0.006,0.391-0.088,0.91-0.195,1.271H224.487z"/>
		<path fill="#FFFFFF" d="M228.675,57.358l0.367-0.035c0.326-0.029,0.383-0.196,0.383-1.293v-2.39c0-1.104-0.057-1.262-0.383-1.291
			l-0.367-0.036v-0.188h2.33v0.188l-0.383,0.036c-0.332,0.029-0.381,0.188-0.381,1.291v2.318c0,1.14,0.057,1.24,0.504,1.24h0.613
			c0.557,0,0.859-0.417,1.041-1.089h0.201c0,0.346-0.094,1.061-0.201,1.429h-3.725V57.358z"/>
		<path fill="#FFFFFF" d="M90.933,70.279c-1.624,0-2.945-0.888-2.945-2.792c0-1.77,1.191-2.838,3.046-2.838
			c0.729,0,1.508,0.21,1.862,0.21c0.015,0.107,0.043,0.324,0.043,0.469c0,0.404-0.072,1.075-0.108,1.228h-0.231
			c-0.007-1.097-0.606-1.524-1.581-1.524c-1.342,0-2.122,0.954-2.122,2.434c0,1.51,0.924,2.411,2.158,2.411
			c0.967,0,1.443-0.549,1.603-1.206h0.209c0,0.296-0.086,0.888-0.231,1.22C92.247,70.121,91.655,70.279,90.933,70.279z"/>
		<path fill="#FFFFFF" d="M93.547,67.508c0-1.754,1.263-2.858,2.895-2.858c1.711,0,2.83,1.141,2.83,2.779
			c0,1.747-1.271,2.851-2.887,2.851C94.666,70.279,93.547,69.154,93.547,67.508z M98.347,67.472c0-1.233-0.606-2.44-2.006-2.44
			c-1.271,0-1.884,1.026-1.884,2.391c0,1.277,0.643,2.461,2.042,2.461C97.769,69.883,98.347,68.786,98.347,67.472z"/>
		<path fill="#FFFFFF" d="M100.831,65.819l-0.051,0.014l0.014,2.83c0.007,1.162,0.08,1.263,0.434,1.291l0.382,0.036v0.181h-2.093
			V69.99l0.368-0.036c0.361-0.028,0.426-0.151,0.433-1.291l0.014-3.024c0-0.434-0.216-0.621-0.606-0.665l-0.246-0.029v-0.187h1.342
			c0.123,0,0.289,0.145,0.469,0.34c0.838,0.909,2.108,2.396,3.068,3.565l0.043-0.014l-0.028-2.563
			c-0.007-0.945-0.094-1.075-0.426-1.104l-0.354-0.038v-0.187h2.007v0.187l-0.317,0.038c-0.369,0.035-0.418,0.223-0.418,1.291v3.906
			c-0.073,0.028-0.225,0.057-0.318,0.064C103.473,68.837,102.339,67.529,100.831,65.819z"/>
		<path fill="#FFFFFF" d="M105.884,67.508c0-1.754,1.263-2.858,2.895-2.858c1.71,0,2.829,1.141,2.829,2.779
			c0,1.747-1.271,2.851-2.887,2.851C107.003,70.279,105.884,69.154,105.884,67.508z M110.685,67.472c0-1.233-0.607-2.44-2.007-2.44
			c-1.27,0-1.884,1.026-1.884,2.391c0,1.277,0.643,2.461,2.043,2.461C110.106,69.883,110.685,68.786,110.685,67.472z"/>
		<path fill="#FFFFFF" d="M115.232,70.279c-1.624,0-2.945-0.888-2.945-2.792c0-1.77,1.191-2.838,3.046-2.838
			c0.729,0,1.508,0.21,1.862,0.21c0.015,0.107,0.044,0.324,0.044,0.469c0,0.404-0.073,1.075-0.108,1.228h-0.232
			c-0.007-1.097-0.605-1.524-1.58-1.524c-1.342,0-2.122,0.954-2.122,2.434c0,1.51,0.924,2.411,2.158,2.411
			c0.967,0,1.443-0.549,1.603-1.206h0.209c0,0.296-0.086,0.888-0.231,1.22C116.546,70.121,115.954,70.279,115.232,70.279z"/>
		<path fill="#FFFFFF" d="M117.774,70.171V69.99l0.368-0.036c0.332-0.035,0.383-0.194,0.383-1.291v-2.39
			c0-1.104-0.058-1.256-0.383-1.291l-0.368-0.038v-0.187h2.317v0.187l-0.368,0.038c-0.332,0.035-0.383,0.187-0.383,1.291v2.39
			c0,1.097,0.051,1.256,0.383,1.291l0.368,0.036v0.181H117.774z"/>
		<path fill="#FFFFFF" d="M120.221,70.171V69.99l0.346-0.036c0.325-0.035,0.412-0.194,0.477-0.743
			c0.036-0.339,0.288-2.886,0.368-3.789c-0.159-0.274-0.31-0.426-0.477-0.448l-0.311-0.035v-0.181h1.206
			c0.259,0,1.061,1.567,1.978,4.013h0.042c0.296-0.714,1.292-3.204,1.495-4.013h1.609v0.181l-0.317,0.035
			c-0.26,0.029-0.368,0.174-0.368,0.463c0,0.369,0.26,3.4,0.302,3.774c0.058,0.491,0.116,0.722,0.397,0.743l0.368,0.036v0.181h-2.28
			V69.99l0.332-0.036c0.333-0.028,0.383-0.114,0.383-0.403c0-0.354-0.173-2.296-0.289-3.552h-0.051
			c-0.469,1.185-1.118,2.771-1.559,3.978c-0.079,0.007-0.339,0.036-0.425,0.036c-0.628-1.769-1.256-3.133-1.631-3.955h-0.043
			c-0.116,1.227-0.252,3.132-0.252,3.485c0,0.333,0.058,0.39,0.425,0.419l0.318,0.028v0.181H120.221z"/>
		<path fill="#FFFFFF" d="M127.548,70.171V69.99l0.368-0.036c0.332-0.035,0.383-0.194,0.383-1.291v-2.39
			c0-1.104-0.058-1.256-0.383-1.291l-0.368-0.038v-0.187h2.317v0.187l-0.368,0.038c-0.332,0.035-0.383,0.187-0.383,1.291v2.39
			c0,1.097,0.051,1.256,0.383,1.291l0.368,0.036v0.181H127.548z"/>
		<path fill="#FFFFFF" d="M130.255,70.171V69.99l0.368-0.036c0.325-0.028,0.383-0.194,0.383-1.291v-2.39
			c0-1.104-0.058-1.263-0.383-1.291l-0.368-0.038v-0.187h3.544c0.014,0.108,0.021,0.225,0.021,0.333
			c0,0.338-0.043,0.699-0.108,0.974h-0.188c-0.043-0.628-0.188-0.938-0.809-0.938c-0.303,0-0.686,0.043-0.895,0.079v2.05h0.397
			c0.787,0,0.903-0.058,0.996-0.491h0.188l-0.064,1.546h-0.188l-0.051-0.296c-0.065-0.333-0.188-0.412-0.902-0.412h-0.375v1.048
			c0,1.11,0.102,1.183,0.585,1.183h0.404c0.635,0,0.873-0.324,1.047-0.931h0.194c-0.007,0.391-0.086,0.91-0.194,1.27H130.255z"/>
		<path fill="#FFFFFF" d="M135.683,65.819l-0.05,0.014l0.015,2.83c0.007,1.162,0.079,1.263,0.433,1.291l0.383,0.036v0.181h-2.094
			V69.99l0.368-0.036c0.361-0.028,0.426-0.151,0.434-1.291l0.014-3.024c0-0.434-0.216-0.621-0.605-0.665l-0.246-0.029v-0.187h1.344
			c0.122,0,0.289,0.145,0.468,0.34c0.836,0.909,2.107,2.396,3.068,3.565l0.043-0.014l-0.029-2.563
			c-0.006-0.945-0.094-1.075-0.426-1.104l-0.354-0.038v-0.187h2.006v0.187l-0.316,0.038c-0.369,0.035-0.42,0.223-0.42,1.291v3.906
			c-0.072,0.028-0.223,0.057-0.316,0.064C138.325,68.837,137.192,67.529,135.683,65.819z"/>
		<path fill="#FFFFFF" d="M145.276,64.758c0.066,0.333,0.131,1.083,0.139,1.48h-0.217c-0.209-0.795-0.391-1.098-0.895-1.098
			c-0.275,0-0.666,0.022-0.875,0.058v3.486c0,1.141,0.051,1.227,0.412,1.264l0.389,0.042v0.181h-2.424V69.99l0.391-0.042
			c0.352-0.037,0.416-0.137,0.416-1.264v-3.486c-0.223-0.035-0.598-0.058-0.865-0.058c-0.533,0-0.707,0.303-0.9,1.098h-0.219
			c0.008-0.397,0.08-1.147,0.139-1.48H145.276z"/>
		<path fill="#FFFFFF" d="M145.804,67.508c0-1.754,1.266-2.858,2.896-2.858c1.709,0,2.828,1.141,2.828,2.779
			c0,1.747-1.27,2.851-2.887,2.851C146.923,70.279,145.804,69.154,145.804,67.508z M150.604,67.472c0-1.233-0.605-2.44-2.006-2.44
			c-1.271,0-1.885,1.026-1.885,2.391c0,1.277,0.643,2.461,2.043,2.461C150.026,69.883,150.604,68.786,150.604,67.472z"/>
		<path fill="#FFFFFF" d="M154.937,69.99l0.391-0.036c0.375-0.035,0.404-0.114,0.404-1.248v-0.932
			c-0.492-1.09-0.99-1.998-1.242-2.389c-0.215-0.332-0.412-0.447-0.838-0.447v-0.181h1.178c0.158,0,0.359,0.166,0.656,0.679
			c0.23,0.404,0.549,1.067,0.816,1.689h0.035c0.578-1.17,0.766-1.653,0.766-1.863c0-0.158-0.072-0.245-0.318-0.274l-0.367-0.05
			v-0.181h2.223v0.187c-0.469,0.059-0.6,0.103-0.787,0.313c-0.26,0.295-0.773,1.305-1.307,2.367v1.082
			c0,1.155,0.037,1.213,0.404,1.248l0.383,0.036v0.181h-2.396V69.99z"/>
		<path fill="#FFFFFF" d="M161.247,67.926v-1.659c0-1.141-0.08-1.264-0.377-1.293l-0.324-0.035v-0.181h2.316v0.181l-0.383,0.035
			c-0.354,0.029-0.412,0.195-0.412,1.293v1.53c0,1.457,0.471,2.093,1.525,2.093c1.053,0,1.465-0.772,1.465-2.05v-1.573
			c0-1.141-0.059-1.264-0.42-1.293l-0.375-0.035v-0.181h2.109v0.181l-0.297,0.035c-0.354,0.044-0.412,0.195-0.412,1.293v1.71
			c0,1.38-0.771,2.303-2.18,2.303C162.112,70.279,161.247,69.5,161.247,67.926z"/>
		<path fill="#FFFFFF" d="M166.64,70.099c-0.051-0.273-0.096-0.895-0.096-1.271h0.203c0.174,0.715,0.629,1.091,1.328,1.091
			c0.541,0,1.01-0.304,1.01-0.845c0-0.463-0.26-0.751-0.678-1.054l-0.621-0.447c-0.592-0.434-1.111-0.88-1.111-1.522
			c0-0.888,0.723-1.401,1.596-1.401c0.627,0,1.023,0.181,1.43,0.195c0,0.418-0.045,0.938-0.139,1.343h-0.207
			c-0.045-0.788-0.441-1.185-1.063-1.185c-0.482,0-0.873,0.303-0.873,0.773c0,0.433,0.316,0.707,0.814,1.046l0.543,0.375
			c0.828,0.577,1.096,0.997,1.096,1.566c0,0.996-0.895,1.516-1.832,1.516C167.505,70.279,166.985,70.107,166.64,70.099z"/>
		<path fill="#FFFFFF" d="M170.479,67.508c0-1.754,1.264-2.858,2.895-2.858c1.709,0,2.83,1.141,2.83,2.779
			c0,1.747-1.271,2.851-2.889,2.851C171.597,70.279,170.479,69.154,170.479,67.508z M175.28,67.472c0-1.233-0.607-2.44-2.008-2.44
			c-1.27,0-1.885,1.026-1.885,2.391c0,1.277,0.643,2.461,2.043,2.461C174.702,69.883,175.28,68.786,175.28,67.472z"/>
		<path fill="#FFFFFF" d="M178.542,69.99l0.369-0.036c0.332-0.028,0.383-0.194,0.383-1.291v-2.39c0-1.104-0.059-1.256-0.383-1.285
			l-0.369-0.035v-0.181c1.127-0.007,1.928-0.029,2.592-0.029c1.623,0,3.125,0.679,3.125,2.599c0,1.638-1.234,2.829-3.305,2.829
			h-2.412V69.99z M180.11,69.111c0,0.569,0.172,0.706,0.807,0.706c1.35,0,2.418-0.794,2.418-2.374c0-1.545-0.873-2.323-2.295-2.323
			c-0.252,0-0.635,0.021-0.93,0.093V69.111z"/>
		<path fill="#FFFFFF" d="M184.542,70.171V69.99l0.367-0.036c0.326-0.028,0.383-0.194,0.383-1.291v-2.39
			c0-1.104-0.057-1.263-0.383-1.291l-0.367-0.038v-0.187h3.543c0.016,0.108,0.023,0.225,0.023,0.333
			c0,0.338-0.045,0.699-0.109,0.974h-0.188c-0.043-0.628-0.188-0.938-0.809-0.938c-0.303,0-0.686,0.043-0.896,0.079v2.05h0.398
			c0.785,0,0.902-0.058,0.996-0.491h0.188l-0.064,1.546h-0.188l-0.051-0.296c-0.066-0.333-0.188-0.412-0.902-0.412h-0.377v1.048
			c0,1.11,0.104,1.183,0.586,1.183h0.404c0.635,0,0.875-0.324,1.047-0.931h0.195c-0.008,0.391-0.088,0.91-0.195,1.27H184.542z"/>
		<path fill="#FFFFFF" d="M190.532,69.99l0.369-0.036c0.324-0.028,0.381-0.194,0.381-1.291v-2.39c0-1.104-0.057-1.263-0.381-1.291
			l-0.369-0.038v-0.187h2.332v0.187l-0.381,0.038c-0.334,0.028-0.383,0.187-0.383,1.291v2.317c0,1.14,0.057,1.241,0.504,1.241h0.613
			c0.557,0,0.859-0.418,1.041-1.089h0.201c0,0.345-0.094,1.06-0.201,1.428h-3.727V69.99z"/>
		<path fill="#FFFFFF" d="M194.454,70.171v-0.166c0.447-0.094,0.605-0.188,0.844-0.742l1.957-4.54
			c0.063-0.022,0.129-0.037,0.172-0.037c0.324,0.846,1.746,4.469,2.035,4.945c0.174,0.28,0.324,0.323,0.578,0.353v0.188h-2.332
			V69.99l0.297-0.014c0.338-0.022,0.447-0.094,0.447-0.296c0-0.138-0.064-0.361-0.217-0.758l-0.238-0.629
			c-0.201,0-1.631,0.016-1.797,0.016l-0.188,0.461c-0.115,0.289-0.281,0.737-0.281,0.896c0,0.21,0.158,0.267,0.699,0.324v0.181
			H194.454z M197.138,66.136h-0.043c-0.236,0.558-0.527,1.257-0.752,1.806l1.518,0.014L197.138,66.136z"/>
		<path fill="#FFFFFF" d="M201.983,69.99l0.367-0.036c0.324-0.028,0.383-0.194,0.383-1.291v-2.39c0-1.09-0.059-1.242-0.383-1.271
			l-0.367-0.036v-0.181c0.563-0.028,1.551-0.043,2.035-0.043c1.176,0,1.754,0.477,1.754,1.256c0,0.606-0.463,1.039-1.004,1.191
			v0.036c0.801,0.115,1.363,0.57,1.363,1.321c0,0.967-0.801,1.623-2.07,1.623h-2.078V69.99z M203.997,67.118
			c0.619-0.021,0.887-0.447,0.887-1.012c0-0.647-0.318-0.986-0.816-0.986c-0.18,0-0.389,0.034-0.52,0.085v1.935L203.997,67.118z
			 M205.224,68.728c0-0.686-0.396-1.278-1.148-1.292l-0.527-0.014v1.228c0,1.104,0.107,1.183,0.6,1.183
			C204.733,69.832,205.224,69.485,205.224,68.728z"/>
		<path fill="#FFFFFF" d="M206.45,70.171V69.99l0.369-0.036c0.332-0.035,0.383-0.194,0.383-1.291v-2.39
			c0-1.104-0.059-1.256-0.383-1.291l-0.369-0.038v-0.187h2.318v0.187l-0.369,0.038c-0.332,0.035-0.383,0.187-0.383,1.291v2.39
			c0,1.097,0.051,1.256,0.383,1.291l0.369,0.036v0.181H206.45z"/>
		<path fill="#FFFFFF" d="M209.085,67.508c0-1.754,1.264-2.858,2.895-2.858c1.711,0,2.83,1.141,2.83,2.779
			c0,1.747-1.27,2.851-2.887,2.851C210.204,70.279,209.085,69.154,209.085,67.508z M213.886,67.472c0-1.233-0.605-2.44-2.008-2.44
			c-1.27,0-1.883,1.026-1.883,2.391c0,1.277,0.643,2.461,2.043,2.461C213.308,69.883,213.886,68.786,213.886,67.472z"/>
		<path fill="#FFFFFF" d="M215.128,69.99l0.367-0.036c0.332-0.028,0.383-0.194,0.383-1.291v-2.39c0-1.104-0.057-1.256-0.383-1.285
			l-0.367-0.035v-0.181c1.125-0.007,1.926-0.029,2.592-0.029c1.623,0,3.125,0.679,3.125,2.599c0,1.638-1.234,2.829-3.307,2.829
			h-2.41V69.99z M216.694,69.111c0,0.569,0.174,0.706,0.809,0.706c1.35,0,2.418-0.794,2.418-2.374c0-1.545-0.873-2.323-2.295-2.323
			c-0.254,0-0.637,0.021-0.932,0.093V69.111z"/>
		<path fill="#FFFFFF" d="M221.128,70.171V69.99l0.367-0.036c0.332-0.035,0.383-0.194,0.383-1.291v-2.39
			c0-1.104-0.059-1.256-0.383-1.291l-0.367-0.038v-0.187h2.316v0.187l-0.369,0.038c-0.332,0.035-0.383,0.187-0.383,1.291v2.39
			c0,1.097,0.051,1.256,0.383,1.291l0.369,0.036v0.181H221.128z"/>
		<path fill="#FFFFFF" d="M224.122,65.3c-0.166-0.289-0.316-0.326-0.576-0.355v-0.187h2.33v0.181l-0.295,0.015
			c-0.34,0.021-0.447,0.094-0.447,0.296c0,0.137,0.064,0.36,0.209,0.758c0.152,0.412,0.707,1.862,1.082,2.793h0.037
			c0.396-0.96,0.916-2.354,1.031-2.635c0.115-0.289,0.281-0.736,0.281-0.902c0-0.209-0.158-0.267-0.699-0.324v-0.181h1.969v0.173
			c-0.439,0.101-0.613,0.189-0.844,0.737l-1.896,4.547c-0.059,0.021-0.131,0.035-0.168,0.035
			C225.79,69.399,224.39,65.768,224.122,65.3z"/>
		<path fill="#FFFFFF" d="M229.147,70.171V69.99l0.367-0.036c0.324-0.028,0.383-0.194,0.383-1.291v-2.39
			c0-1.104-0.059-1.263-0.383-1.291l-0.367-0.038v-0.187h3.543c0.016,0.108,0.021,0.225,0.021,0.333
			c0,0.338-0.043,0.699-0.107,0.974h-0.188c-0.043-0.628-0.188-0.938-0.809-0.938c-0.303,0-0.686,0.043-0.895,0.079v2.05h0.396
			c0.787,0,0.902-0.058,0.996-0.491h0.188l-0.064,1.546h-0.188l-0.051-0.296c-0.064-0.333-0.188-0.412-0.902-0.412h-0.375v1.048
			c0,1.11,0.102,1.183,0.584,1.183h0.404c0.635,0,0.873-0.324,1.047-0.931h0.193c-0.006,0.391-0.084,0.91-0.193,1.27H229.147z"/>
		<path fill="#FFFFFF" d="M233.335,70.171V69.99l0.367-0.036c0.332-0.028,0.383-0.194,0.383-1.291v-2.39
			c0-1.09-0.059-1.242-0.383-1.271l-0.367-0.036v-0.181c0.568-0.028,1.637-0.043,2.057-0.043c1.326,0,1.947,0.506,1.947,1.393
			c0,0.736-0.498,1.185-0.967,1.438c0.752,1.401,1.279,2.144,1.646,2.316c0.152,0.072,0.26,0.094,0.404,0.094v0.188
			c-0.629,0.058-0.945,0.079-1.076,0.079c-0.123,0-0.223-0.028-0.324-0.1c-0.324-0.253-0.736-1.012-1.17-1.884
			c-0.158-0.333-0.236-0.427-0.498-0.427h-0.455v0.845c0,1.098,0.051,1.241,0.383,1.27l0.426,0.036v0.181H233.335z M235.724,67.516
			c0.418,0,0.758-0.534,0.758-1.199c0-0.729-0.391-1.196-1.012-1.196c-0.209,0-0.455,0.049-0.57,0.085v2.311H235.724z"/>
		<path fill="#FFFFFF" d="M238.618,70.099c-0.051-0.273-0.094-0.895-0.094-1.271h0.201c0.174,0.715,0.629,1.091,1.328,1.091
			c0.543,0,1.012-0.304,1.012-0.845c0-0.463-0.26-0.751-0.68-1.054l-0.619-0.447c-0.592-0.434-1.113-0.88-1.113-1.522
			c0-0.888,0.723-1.401,1.596-1.401c0.629,0,1.025,0.181,1.43,0.195c0,0.418-0.043,0.938-0.137,1.343h-0.209
			c-0.043-0.788-0.441-1.185-1.063-1.185c-0.482,0-0.873,0.303-0.873,0.773c0,0.433,0.318,0.707,0.816,1.046l0.541,0.375
			c0.83,0.577,1.098,0.997,1.098,1.566c0,0.996-0.896,1.516-1.834,1.516C239.485,70.279,238.966,70.107,238.618,70.099z"/>
		<path fill="#FFFFFF" d="M242.315,70.171V69.99l0.367-0.036c0.332-0.035,0.383-0.194,0.383-1.291v-2.39
			c0-1.104-0.059-1.256-0.383-1.291l-0.367-0.038v-0.187h2.316v0.187l-0.369,0.038c-0.332,0.035-0.383,0.187-0.383,1.291v2.39
			c0,1.097,0.051,1.256,0.383,1.291l0.369,0.036v0.181H242.315z"/>
		<path fill="#FFFFFF" d="M245.022,69.99l0.367-0.036c0.332-0.028,0.383-0.194,0.383-1.291v-2.39c0-1.104-0.059-1.256-0.383-1.285
			l-0.367-0.035v-0.181c1.125-0.007,1.926-0.029,2.59-0.029c1.625,0,3.125,0.679,3.125,2.599c0,1.638-1.234,2.829-3.305,2.829h-2.41
			V69.99z M246.587,69.111c0,0.569,0.176,0.706,0.809,0.706c1.35,0,2.418-0.794,2.418-2.374c0-1.545-0.873-2.323-2.295-2.323
			c-0.252,0-0.635,0.021-0.932,0.093V69.111z"/>
		<path fill="#FFFFFF" d="M250.55,70.171v-0.166c0.449-0.094,0.607-0.188,0.846-0.742l1.957-4.54
			c0.064-0.022,0.129-0.037,0.172-0.037c0.326,0.846,1.746,4.469,2.037,4.945c0.172,0.28,0.324,0.323,0.576,0.353v0.188h-2.332
			V69.99l0.297-0.014c0.34-0.022,0.447-0.094,0.447-0.296c0-0.138-0.064-0.361-0.217-0.758l-0.238-0.629
			c-0.201,0-1.631,0.016-1.797,0.016l-0.188,0.461c-0.115,0.289-0.281,0.737-0.281,0.896c0,0.21,0.158,0.267,0.701,0.324v0.181
			H250.55z M253.237,66.136h-0.045c-0.236,0.558-0.525,1.257-0.75,1.806l1.516,0.014L253.237,66.136z"/>
		<path fill="#FFFFFF" d="M256.276,69.99l0.367-0.036c0.332-0.028,0.383-0.194,0.383-1.291v-2.39c0-1.104-0.057-1.256-0.383-1.285
			l-0.367-0.035v-0.181c1.125-0.007,1.928-0.029,2.59-0.029c1.625,0,3.127,0.679,3.127,2.599c0,1.638-1.234,2.829-3.307,2.829h-2.41
			V69.99z M257.841,69.111c0,0.569,0.174,0.706,0.809,0.706c1.352,0,2.42-0.794,2.42-2.374c0-1.545-0.875-2.323-2.297-2.323
			c-0.252,0-0.635,0.021-0.932,0.093V69.111z"/>
	</g>
	<g>
		<path fill="#FFFFFF" d="M106.965,35.077c-6.839,0-12.402-3.739-12.402-11.763c0-7.448,5.016-11.946,12.828-11.946
			c3.07,0,6.353,0.881,7.843,0.881c0.06,0.456,0.182,1.368,0.182,1.976c0,1.703-0.304,4.529-0.456,5.168h-0.973
			c-0.03-4.621-2.553-6.414-6.657-6.414c-5.654,0-8.937,4.013-8.937,10.244c0,6.353,3.89,10.153,9.088,10.153
			c4.073,0,6.08-2.311,6.749-5.077h0.881c0,1.246-0.365,3.739-0.973,5.137C112.498,34.408,110.005,35.077,106.965,35.077z"/>
		<path fill="#FFFFFF" d="M119.488,23.405c0-7.387,5.319-12.037,12.189-12.037c7.203,0,11.916,4.803,11.916,11.703
			c0,7.356-5.35,12.006-12.159,12.006C124.199,35.077,119.488,30.335,119.488,23.405z M139.702,23.252
			c0-5.198-2.555-10.274-8.45-10.274c-5.351,0-7.934,4.316-7.934,10.062c0,5.38,2.706,10.365,8.603,10.365
			C137.271,33.405,139.702,28.785,139.702,23.252z"/>
		<path fill="#FFFFFF" d="M151.677,16.292l-0.213,0.061l0.063,11.916c0.029,4.894,0.332,5.319,1.822,5.441l1.611,0.152v0.76h-8.816
			v-0.76l1.551-0.152c1.521-0.122,1.795-0.638,1.824-5.441l0.063-12.736c0-1.824-0.912-2.614-2.555-2.796l-1.033-0.122v-0.791h5.654
			c0.516,0,1.215,0.608,1.975,1.429c3.525,3.83,8.877,10.092,12.918,15.016l0.184-0.061l-0.121-10.791
			c-0.031-3.982-0.395-4.529-1.795-4.651l-1.488-0.152v-0.791h8.451v0.791l-1.338,0.152c-1.551,0.152-1.764,0.942-1.764,5.441
			v16.444c-0.305,0.123-0.941,0.244-1.338,0.273C162.802,28.998,158.03,23.496,151.677,16.292z"/>
		<path fill="#FFFFFF" d="M172.347,34.621v-0.699c1.885-0.395,2.553-0.79,3.557-3.131l8.236-19.12
			c0.273-0.091,0.549-0.152,0.73-0.152c1.367,3.556,7.355,18.815,8.572,20.821c0.729,1.186,1.367,1.368,2.432,1.49v0.791h-9.818
			v-0.76l1.246-0.061c1.428-0.091,1.885-0.395,1.885-1.246c0-0.578-0.273-1.52-0.912-3.192l-1.004-2.645
			c-0.85,0-6.869,0.061-7.568,0.061l-0.791,1.946c-0.484,1.216-1.186,3.101-1.186,3.769c0,0.882,0.67,1.125,2.949,1.368v0.76
			H172.347z M183.653,17.629h-0.182c-1.004,2.34-2.219,5.289-3.162,7.599l6.383,0.061L183.653,17.629z"/>
		<path fill="#FFFFFF" d="M197.97,33.861l1.551-0.152c1.367-0.122,1.609-0.821,1.609-5.441V18.207c0-4.589-0.242-5.228-1.609-5.35
			l-1.551-0.152v-0.76c2.371-0.122,6.535-0.182,8.572-0.182c4.953,0,7.387,2.006,7.387,5.289c0,2.554-1.947,4.377-4.227,5.016v0.152
			c3.375,0.486,5.746,2.401,5.746,5.562c0,4.074-3.375,6.84-8.725,6.84h-8.754V33.861z M206.45,21.763
			c2.615-0.091,3.74-1.885,3.74-4.256c0-2.735-1.34-4.164-3.436-4.164c-0.76,0-1.643,0.151-2.189,0.364v8.146L206.45,21.763z
			 M211.618,28.542c0-2.888-1.672-5.38-4.834-5.441l-2.219-0.061v5.167c0,4.651,0.455,4.985,2.523,4.985
			C209.55,33.192,211.618,31.733,211.618,28.542z"/>
		<path fill="#FFFFFF" d="M218.304,34.621v-0.76l1.551-0.152c1.398-0.152,1.611-0.821,1.611-5.441V18.207
			c0-4.651-0.244-5.289-1.611-5.441l-1.551-0.152v-0.791h9.758v0.791l-1.551,0.152c-1.398,0.152-1.611,0.79-1.611,5.441v10.062
			c0,4.62,0.213,5.289,1.611,5.441l1.551,0.152v0.76H218.304z"/>
		<path fill="#FFFFFF" d="M230.917,23.405c0-7.387,5.32-12.037,12.189-12.037c7.205,0,11.916,4.803,11.916,11.703
			c0,7.356-5.35,12.006-12.158,12.006C235.63,35.077,230.917,30.335,230.917,23.405z M251.132,23.252
			c0-5.198-2.553-10.274-8.451-10.274c-5.35,0-7.934,4.316-7.934,10.062c0,5.38,2.705,10.365,8.604,10.365
			C248.7,33.405,251.132,28.785,251.132,23.252z"/>
	</g>
	<g>
		<path fill-rule="evenodd" clip-rule="evenodd" fill="#FFFFFF" d="M56.069,16.727c0.497,0,0.898,0.334,0.898,0.748
			c0,0.409-0.401,0.748-0.898,0.748c-0.489,0-0.892-0.338-0.892-0.748C55.178,17.061,55.581,16.727,56.069,16.727 M53.771,14.677
			c0.744-0.451,2.917-0.472,4.029-0.088c1.106,0.386,2.682,0.961,3.319,1.453c0.641,0.494,2.666,2.264,2.795,2.735
			c0.125,0.47,0.21,1.259,0,1.729c-0.217,0.47-0.623,0.939-1.068,1.303c-0.45,0.364-2.598,1.068-3.155,1.133
			c-0.554,0.064-2.153,0.362-2.684,0.299c-0.532-0.064-3.664-1.476-3.875-1.432c-0.215,0.042-0.749,1.197-0.749,1.197
			s-1.744-0.964-1.638-3.056c0.105-2.093,0.722-2.627,0.938-2.904c0.211-0.277,0.786-0.47,0.958-0.834
			C52.812,15.851,53.026,15.122,53.771,14.677z"/>
		<path fill-rule="evenodd" clip-rule="evenodd" fill="#FFFFFF" d="M62.839,22.825c0.789-0.568,1.368-1.5,1.518-1.498
			c0.122-0.005,1.043,0.666,1.888,1.618c0.743,0.835,1.396,1.916,1.889,2.631c1.058,1.53,2.975,4.776,3.392,6.655
			c0.227,1.032,0.68,5.139,0.252,8.646c-0.321,2.644-0.51,5.344-0.563,5.463c-0.125,0.272-0.521,1.186-1.007,0.846
			c-3.857-2.678-7.348-7.01-9.508-11.128c-0.52-0.99-0.983-1.959-1.428-2.866c-0.861-1.77-1.49-3.39-1.962-4.676
			c-0.594-1.621-0.795-2.745-0.798-3.089c-0.008-0.832,0.211-1.361,0.333-1.413c0.121-0.05,0.41,0.026,0.854,0.078
			c0.487,0.057,1.029,0.059,1.463,0.042C60.946,23.959,61.328,23.907,62.839,22.825"/>
		<path fill-rule="evenodd" clip-rule="evenodd" fill="#FFFFFF" d="M63.542,42.191c0.287-0.101,0.538,0.448,0.931,0.813
			c0.391,0.365,2.58,2.453,3.031,3c0.453,0.55,0.979,1.177,1.228,1.87s0.324,1.196-0.202,3.494
			c-0.528,2.297-2.97,12.455-4.377,17.059c-1.408,4.604-1.55,5.64-1.667,5.932c-0.113,0.295-0.215,0.686-0.806,0.637
			c-0.596-0.052-0.769-0.253-0.859-0.945c-0.084-0.695-0.224-3.368-0.01-5.809c0.214-2.437,0.869-6.691,0.869-9.151
			s-0.342-3.691-0.253-5.418c0.084-1.727,0.844-6.821,1.207-8.343C62.992,43.808,63.258,42.293,63.542,42.191"/>
		<path fill-rule="evenodd" clip-rule="evenodd" fill="#FFFFFF" d="M46.289,24.89c0.015-0.837,0.541-0.963,1.591-1.076
			c1.054-0.111,1.98,0.029,2.513,0.227c0.533,0.197,2.222,0.97,2.566,1.208c0.344,0.24,1.62,1.542,2.169,2.252
			c0.545,0.709,1.787,2.262,2.366,3.945c0.586,1.679,0.619,2.37,0.589,2.567c-0.025,0.196-0.995,1.693-1.505,2.165
			c-0.513,0.47-1.831,2.399-4.925,2.158c-3.091-0.237-4.546-2.656-5.334-3.179c-0.793-0.519-0.914-0.787-1.757-1.116
			c-0.839-0.332-0.932-0.661-0.811-1.132c0.119-0.472,0.484-0.936,1.487-0.887c1,0.051,2.183,0.317,2.183,0.317
			s-0.291-0.479-0.992-0.676c-0.701-0.197-2.034-0.266-2.888-0.5c-0.855-0.23-0.666-0.737-0.655-0.878
			c0.017-0.141,0.044-0.935,1.174-1.049c1.13-0.112,3.619-0.155,3.619-0.155s-3.264-0.576-3.631-0.694
			c-0.374-0.121-0.57-0.422-0.532-0.81c0.03-0.388,0.158-0.971,0.911-1.097c0.749-0.128,1.302-0.247,2.106-0.197
			c0.808,0.05,3.055,0.442,3.055,0.442s0.046-0.3-0.758-0.611C48.021,25.806,46.277,25.728,46.289,24.89"/>
		<path fill-rule="evenodd" clip-rule="evenodd" fill="#FFFFFF" d="M49.485,40.522c-0.063-0.688,0.025-0.935,0.176-1.011
			c0.146-0.075,2.322-0.55,3.157-0.661c0.835-0.114,2.566-0.275,2.839-0.462c0.276-0.188,0.648-0.262,1.093-0.673
			c0.449-0.411,1.644-1.635,2.157-1.746c0.508-0.113,0.896-0.213,1.308,0.411c0.408,0.624,0.508,1.099,0.322,1.598
			c-0.186,0.498-1.036,1.771-2.675,2.719c-1.644,0.949-2.129,1.036-2.75,1.062c-0.624,0.025-3.363,0.337-4.418,0.138
			C49.633,41.697,49.546,41.21,49.485,40.522"/>
		<path fill-rule="evenodd" clip-rule="evenodd" fill="#FFFFFF" d="M50.575,42.826c1.047,0,4.333-0.073,4.861-0.16
			c0.53-0.082,1.67-0.337,2.46-0.878c0.794-0.54,2.549-1.769,2.791-1.727c0.243,0.042,1.012,0.275,1.056,0.933
			c0.044,0.656,0.034,1.728-1.243,2.989c-1.282,1.261-3.628,1.536-5.029,1.8c-1.407,0.267-2.74,0.416-3.227,0.382
			c-0.486-0.03-2.432-0.285-2.525-1.049C49.623,44.354,49.529,42.826,50.575,42.826"/>
		<path fill-rule="evenodd" clip-rule="evenodd" fill="#FFFFFF" d="M60.748,45.712c0.198-0.096,0.146,3.815-0.368,6.104
			c-0.517,2.287-2.239,9.154-2.533,9.669c-0.296,0.518-2.656,1.724-3.395,2.069c-0.74,0.34-2.536,0.971-2.663,0.979
			c-0.125,0.006-0.993,0.417-0.954-0.682c0.036-1.099,0.243-6.327-0.076-9.945c-0.319-3.617-0.388-5.107-0.445-5.55
			c-0.053-0.439-0.125-1.208,0.63-1.233c0.757-0.023,3.011,0.019,4.689-0.252C57.304,46.599,60.551,45.813,60.748,45.712"/>
		<path fill-rule="evenodd" clip-rule="evenodd" fill="#FFFFFF" d="M27.62,53.182c0.098-0.004,0.476,0.528,0.638,0.761
			c0.164,0.235,3.314,4.549,7.778,5.492c4.462,0.946,5.949-0.148,6.422-0.696c0.47-0.548,1.461-3.296,1.683-4.015
			c0.226-0.721,0.771-1.463,1.861-1.729c0.423-0.103,1.042-0.242,1.574-0.272c0.914-0.056,1.812,0.095,2.124,0.346
			c0.495,0.399,0.547,3.804,0.322,5.67c-0.225,1.866-0.694,5.446-0.792,5.694c-0.102,0.25-1.932,1.192-5.77,1.283
			c-3.833,0.091-10.773-1.16-14.469-3.123c-3.692-1.963-5.206-3.405-6.669-4.873c-1.464-1.47-1.157-1.333-1.043-1.686
			c0.11-0.357,0.396-0.982,0.616-1.04c0.223-0.056,1.398-0.137,2.316-0.34c0.917-0.204,2.234-0.474,2.708-0.935
			C27.391,53.261,27.527,53.183,27.62,53.182"/>
		<path fill-rule="evenodd" clip-rule="evenodd" fill="#FFFFFF" d="M67.167,63.216c0.374,0.217,1.491-0.342,3.154-1.994
			c1.666-1.656,2.246-2.55,2.883-3.487c0.637-0.938,3.59-6.135,4.66-11.097c1.075-4.961,1.006-6.434,1.038-8.714
			c0.038-2.28-0.94-9.286-2.448-12.706c-1.507-3.419-2.883-7.271-5.932-10.055c-3.051-2.782-8.613-6.804-15.316-8.547
			c-6.705-1.742-8.45-1.542-10.596-1.609c-2.142-0.065-7.774,0.336-11.293,1.04c-3.519,0.702-4.625,1.172-5.598,1.407
			c-0.974,0.235-10.523,4.492-14.615,11.428c-4.088,6.941-4.96,15.354-4.726,19.713c0.235,4.356,1.308,16.322,7.44,23.195
			c6.135,6.87,13.611,9.888,25.708,10.524c12.104,0.638,18.302-4.226,18.302-4.226l0.74-5.931c0,0-8.314,4.56-17.432,4.728
			c-9.115,0.167-17.529-3.321-22.625-9.051c-5.093-5.731-6.804-16.894-5.999-24.773c0.806-7.876,4.289-15.854,15.148-19.977
			c10.862-4.122,23.936-0.772,27.489,0.234c3.553,1.006,13.542,7.509,15.553,19.509c2.011,12.001-1.877,17.398-2.814,19.61
			c-0.939,2.211-2.213,4.49-2.45,6.4C67.202,60.751,66.798,62.998,67.167,63.216"/>
		<path fill-rule="evenodd" clip-rule="evenodd" fill="#FFFFFF" d="M22.302,45.558c0.775-0.072,2.035,0.694,2.077,1.396
			c0.042,0.706-0.305,1.503-1.217,1.661c-0.914,0.156-2.357,0.188-2.702-0.683c-0.346-0.871,0-1.671,0.545-1.974
			C21.548,45.653,21.527,45.632,22.302,45.558 M21.937,45.032c1.667,0,3.53,1.322,3.541,2.867c0.011,1.544-0.931,2.528-2.449,2.405
			c-1.522-0.127-3.573-0.84-3.428-2.993C19.746,45.156,21.937,45.032,21.937,45.032z M34.183,37.136
			c1.005-0.924,2.683-0.613,2.79-0.518c0.055,0.049-0.039,0.471-0.315,0.937c-0.244,0.411-0.639,0.849-1.065,1.257
			c-0.913,0.873-2.274,1.03-2.489,0.811C32.884,39.404,33.173,38.062,34.183,37.136z M44.036,39.905
			c0.228,0.196-0.156,0.832-0.28,0.925c-0.123,0.093-0.631,0.531-1.027,0.197c-0.393-0.333-0.173-0.769,0.375-1.05
			C43.651,39.697,43.809,39.706,44.036,39.905z M41.145,12.31c0.657-0.02,1.857,2.696,2.039,4.269
			c0.181,1.573,0.613,3.901-0.487,6.925c-1.101,3.023-2.812,5.392-3.363,5.474c-0.548,0.082-1.081,0.164-1.081,0.164
			s-2.199-1.859-4.602-1.655s-4.153,0.96-6.232,2.758c-2.079,1.795-2.998,3.595-3.24,4.962c-0.244,1.369-0.164,3.678,0.387,4.883
			c0.553,1.206,0.794,1.021,0.794,1.021s0.387,0.102,0.448-0.041c0.063-0.144-1.16-3.759-0.384-6.027
			c0.771-2.267,1.729-4.295,5.782-6.023c3.69-1.575,5.329,0.734,6.337,1.469c0.98,0.715,1.813,1.227,2.466,1.635
			c0.649,0.409,4.355,2.92,5.908,4.72c1.548,1.795,1.729,1.917,1.548,2.572c-0.185,0.654-1.081,1.45-1.039,1.921
			c0.042,0.47,0.854,1.593,0.489,2.307c-0.369,0.716-0.653,1.003-1.649,1.492c-1.002,0.49-1.386,1.163-1.365,1.308
			c0.02,0.144,0.468,0.102,0.854-0.021c0.388-0.123,0.712-0.449,1.447-0.368c0.732,0.083,1.632,0.205,1.916,1.902
			c0.285,1.695,0.285,2.531-0.305,3.287c-0.59,0.755-1.344,0.817-2.098,1.103c-0.754,0.286-1.529,0.308-1.878,0.695
			c-0.345,0.388-1.081,1.858-1.365,3.288c-0.286,1.43-0.934,2.167-1.14,2.307c-0.202,0.145-4.258,0.329-6.213-0.406
			c-1.957-0.735-2.853-1.452-4.564-3.145c-1.71-1.696-2.444-2.739-2.444-2.739h-0.752c0,0-1.771,1.921-4.156,1.533
			c-2.382-0.389-6.417-1.838-6.354-6.741c0.059-4.902,3.339-5.352,3.503-5.658c0.161-0.308,0.244-0.755-0.448-0.737
			c-0.694,0.021-1.753,0.348-2.404,0.776c-0.651,0.431-1.875,1.39-1.974,0.491c-0.106-0.897,0.161-3.329,2.483-4.473
			c2.323-1.144,2.873-0.917,2.831-1.776c-0.041-0.858-1.814-0.49-2.364-0.266c-0.546,0.223-1.894,0.897-1.997,1.041
			c-0.1,0.144-0.997,0.818-0.997-0.184s0.346-2.941,2.301-4.104c1.955-1.166,4.014-0.673,4.074-1.39
			c0.063-0.715-0.814-0.959-1.567-0.877c-0.754,0.08-2.851,0.755-3.257,1.102c-0.412,0.347-1.081,0.41-0.897-0.593
			c0.181-1,1.099-3.37,3.5-4.063c2.404-0.696,4.322,0.57,4.544,0.142c0.224-0.428,0.042-1.247-0.955-1.695
			c-1-0.449-1.673-0.655-3.12-0.205c-1.444,0.451-1.772,0.225-1.53-0.326c0.247-0.552,1-3.41,4.447-3.43
			c3.44-0.022,4.316,3.166,5.13,2.94c0.814-0.225-0.324-2.819-0.999-3.88c-0.67-1.063-2.995-2.738-2.116-3.372
			c0.875-0.631,3.012-0.387,4.358,0.471c1.341,0.858,1.341,1.022,1.691,1.51c0.347,0.493,1.671,3.475,1.954,3.371
			c0.285-0.101,0.41-1.858,0.164-3.104c-0.244-1.247-1.895-4-2.404-4.473c-0.511-0.47-0.388-0.879,0.509-0.938
			c0.898-0.063,3.403,0.243,4.791,1.98c1.383,1.735,1.444,4.758,1.28,5.187c-0.164,0.429-0.098,1.552,0.512,0.878
			c0.611-0.673,1.893-2.819,2.218-4.942C40.436,14.414,40.495,12.332,41.145,12.31z"/>
	</g>
</g>
</svg>
