<?xml version="1.0" encoding="utf-8"?>
<!-- Generator: Adobe Illustrator 19.2.1, SVG Export Plug-In . SVG Version: 6.00 Build 0)  -->
<svg version="1.1" id="Capa_1" xmlns="http://www.w3.org/2000/svg" xmlns:xlink="http://www.w3.org/1999/xlink" x="0px" y="0px"
	 viewBox="0 0 123.9 12.4" style="enable-background:new 0 0 123.9 12.4;" xml:space="preserve">
<style type="text/css">
	.st0{fill:#444444;}
</style>
<g>
	<path class="st0" d="M96.8,6.4c0-0.8,0.2-1.4,0.6-1.8c0.4-0.4,0.9-0.7,1.6-0.7c0.7,0,1.2,0.2,1.6,0.7c0.4,0.4,0.6,1.1,0.6,1.8
		c0,0.8-0.2,1.4-0.6,1.8c-0.4,0.4-0.9,0.7-1.6,0.7c-0.4,0-0.8-0.1-1.1-0.3S97.2,8.1,97,7.7C96.8,7.3,96.8,6.9,96.8,6.4z M97.5,6.4
		c0,0.6,0.1,1.1,0.4,1.4c0.2,0.3,0.6,0.5,1.1,0.5s0.8-0.2,1.1-0.5c0.2-0.3,0.4-0.8,0.4-1.4c0-0.6-0.1-1.1-0.4-1.4
		c-0.2-0.3-0.6-0.5-1.1-0.5c-0.5,0-0.8,0.2-1.1,0.5C97.6,5.3,97.5,5.8,97.5,6.4z"/>
	<path class="st0" d="M102.5,8.8V2h0.7v1.7c0,0.4,0,0.7,0,1h0c0.3-0.5,0.8-0.7,1.5-0.7c0.6,0,1.1,0.2,1.5,0.6s0.5,1,0.5,1.8
		s-0.2,1.4-0.5,1.8c-0.4,0.4-0.8,0.7-1.5,0.7c-0.3,0-0.6-0.1-0.9-0.2c-0.3-0.1-0.5-0.3-0.7-0.5h-0.1L103,8.8H102.5z M103.2,6.4
		c0,0.7,0.1,1.2,0.3,1.5c0.2,0.3,0.6,0.4,1.1,0.4c0.4,0,0.8-0.2,1-0.5s0.3-0.8,0.3-1.4c0-0.6-0.1-1.1-0.3-1.4s-0.6-0.5-1-0.5
		c-0.5,0-0.9,0.1-1.1,0.4C103.3,5.2,103.2,5.7,103.2,6.4z"/>
	<path class="st0" d="M107.9,8.3c0-0.2,0-0.3,0.1-0.4c0.1-0.1,0.2-0.2,0.4-0.2c0.2,0,0.3,0.1,0.4,0.2c0.1,0.1,0.1,0.2,0.1,0.4
		c0,0.2,0,0.3-0.1,0.4s-0.2,0.2-0.4,0.2c-0.1,0-0.3,0-0.4-0.1C107.9,8.7,107.9,8.6,107.9,8.3z"/>
	<path class="st0" d="M110.4,8.8V4h0.6l0.1,0.7h0c0.1-0.2,0.3-0.4,0.6-0.5c0.3-0.1,0.5-0.2,0.8-0.2c0.8,0,1.2,0.3,1.5,0.8h0
		c0.1-0.2,0.4-0.4,0.6-0.6s0.6-0.2,0.9-0.2c0.5,0,1,0.1,1.2,0.4c0.3,0.3,0.4,0.7,0.4,1.3v3.1h-0.7V5.7c0-0.4-0.1-0.7-0.2-0.9
		s-0.4-0.3-0.8-0.3c-0.5,0-0.8,0.1-1,0.4s-0.3,0.7-0.3,1.2v2.7h-0.7V5.7c0-0.4-0.1-0.7-0.2-0.9s-0.4-0.3-0.8-0.3
		c-0.5,0-0.8,0.1-1,0.4c-0.2,0.3-0.3,0.7-0.3,1.3v2.5H110.4z"/>
	<path class="st0" d="M118.1,8.8l1.8-2.5L118.2,4h0.8l1.3,1.8l1.3-1.8h0.8l-1.7,2.4l1.8,2.5h-0.8l-1.3-2l-1.4,2H118.1z"/>
</g>
</svg>
