<?xml version="1.0" encoding="UTF-8" standalone="no"?>
<!-- Generator: Adobe Illustrator 19.2.1, SVG Export Plug-In . SVG Version: 6.00 Build 0)  -->

<svg
   xmlns:dc="http://purl.org/dc/elements/1.1/"
   xmlns:cc="http://creativecommons.org/ns#"
   xmlns:rdf="http://www.w3.org/1999/02/22-rdf-syntax-ns#"
   xmlns:svg="http://www.w3.org/2000/svg"
   xmlns="http://www.w3.org/2000/svg"
   xmlns:sodipodi="http://sodipodi.sourceforge.net/DTD/sodipodi-0.dtd"
   xmlns:inkscape="http://www.inkscape.org/namespaces/inkscape"
   version="1.1"
   x="0px"
   y="0px"
   viewBox="0 0 439.99999 170.91821"
   xml:space="preserve"
   id="svg2"
   inkscape:version="0.91 r13725"
   sodipodi:docname="logoEnciclovida.svg"
   width="440"
   height="170.91821"><metadata
     id="metadata228"><rdf:RDF><cc:Work
         rdf:about=""><dc:format>image/svg+xml</dc:format><dc:type
           rdf:resource="http://purl.org/dc/dcmitype/StillImage" /><dc:title></dc:title></cc:Work></rdf:RDF></metadata><defs
     id="defs226" /><sodipodi:namedview
     pagecolor="#ffffff"
     bordercolor="#666666"
     borderopacity="1"
     objecttolerance="10"
     gridtolerance="10"
     guidetolerance="10"
     inkscape:pageopacity="0"
     inkscape:pageshadow="2"
     inkscape:window-width="1389"
     inkscape:window-height="740"
     id="namedview224"
     showgrid="false"
     fit-margin-top="20"
     fit-margin-left="20"
     fit-margin-right="20"
     fit-margin-bottom="20"
     inkscape:zoom="0.71495765"
     inkscape:cx="-21.305106"
     inkscape:cy="72.399932"
     inkscape:window-x="385"
     inkscape:window-y="103"
     inkscape:window-maximized="0"
     inkscape:current-layer="svg2" /><style
     type="text/css"
     id="style4">
	.st0{fill:#829E3D;}
	.st1{fill:#58595B;}
	.st2{fill:#FFFFFF;stroke:#58595B;stroke-miterlimit:10;}
	.st3{fill:#FFFFFF;}
</style><g
     id="Imagotipo_x5F_positivo"
     transform="translate(6.6685798,12.715631)" /><g
     id="Monocromático"
     transform="translate(6.6685798,12.715631)" /><g
     id="Grises"
     transform="translate(6.6685798,12.715631)" /><g
     id="Negativo"
     transform="matrix(1.1794433,0,0,1.1794433,-44.043771,-83.908953)"><g
       id="g10"><g
         id="g12"><g
           id="g14"><path
             class="st0"
             d="m 89.5,163.8 c -1.4,2.7 -2.8,5.5 -4.2,8.2 -1.4,2.8 -2.7,5.2 -3.8,7.3 l -2.7,0 c -0.9,-1.7 -2,-3.8 -3.2,-6.3 -1.3,-2.4 -2.6,-5 -3.9,-7.6 -1.3,-2.6 -2.6,-5.2 -4,-7.7 -1.1,-2.2 -2.2,-4.2 -3.1,-6 l -7.6,0 23.2,44.8 23.3,-44.8 -7.8,0 c -0.6,1.1 -1.4,2.6 -2.3,4.4 -1.2,2.5 -2.5,5 -3.9,7.7 z"
             id="path16"
             inkscape:connector-curvature="0"
             style="fill:#829e3d" /><path
             class="st1"
             d="m 80.1,197.8 -24,-46.4 8.8,0 0.1,0.3 c 0.9,1.8 2,3.8 3.1,6 1.3,2.5 2.6,5.1 4,7.7 1.3,2.6 2.6,5.1 3.9,7.6 1.2,2.3 2.3,4.3 3.1,6 l 2.1,0 c 1.1,-2.1 2.3,-4.4 3.7,-7.1 1.4,-2.8 2.8,-5.5 4.2,-8.2 l 0,0 c 1.4,-2.7 2.7,-5.2 3.9,-7.6 0.9,-1.8 1.7,-3.3 2.3,-4.4 l 0.1,-0.3 8.9,0 -24.2,46.4 z m -22.3,-45.4 22.4,43.3 22.5,-43.3 -6.7,0 c -0.6,1.1 -1.3,2.5 -2.2,4.1 -1.2,2.3 -2.5,4.8 -3.9,7.6 l 0,0 c -1.4,2.7 -2.8,5.5 -4.2,8.2 -1.4,2.8 -2.7,5.2 -3.8,7.3 l -0.1,0.3 -3.3,0 -0.1,-0.3 c -0.9,-1.7 -2,-3.8 -3.2,-6.2 -1.3,-2.4 -2.6,-5 -3.9,-7.6 -1.3,-2.6 -2.6,-5.2 -4,-7.7 -1.1,-2.1 -2.1,-4 -3,-5.7 l -6.5,0 z"
             id="path18"
             inkscape:connector-curvature="0"
             style="fill:#58595b" /></g><g
           id="g20"><rect
             x="116"
             y="152.10001"
             class="st0"
             width="6.6999998"
             height="46.5"
             id="rect22"
             style="fill:#829e3d" /><path
             class="st1"
             d="m 123.2,199.1 -7.7,0 0,-47.5 7.7,0 0,47.5 z m -6.7,-1 5.7,0 0,-45.5 -5.7,0 0,45.5 z"
             id="path24"
             inkscape:connector-curvature="0"
             style="fill:#58595b" /></g><g
           id="g26"><path
             class="st0"
             d="m 194.7,166.2 c -1.2,2.8 -1.8,5.8 -1.8,9.1 0,3.2 0.6,6.2 1.8,9 1.2,2.8 2.9,5.3 5,7.5 2.1,2.1 4.6,3.8 7.5,5 2.8,1.2 5.8,1.8 9,1.8 l 23.2,0 0,-23.3 c 0,-3.2 -0.6,-6.3 -1.8,-9 -1.2,-2.8 -2.9,-5.3 -5,-7.4 -2.1,-2.1 -4.6,-3.8 -7.4,-5 -2.8,-1.2 -5.8,-1.8 -9,-1.8 -3.2,0 -6.2,0.6 -9,1.8 -2.8,1.2 -5.3,2.9 -7.5,5 -2.1,2.1 -3.8,4.6 -5,7.3 z m 9.8,-2.5 c 1.5,-1.5 3.3,-2.7 5.3,-3.5 4,-1.7 8.8,-1.7 12.8,0 2,0.8 3.7,2 5.2,3.5 1.5,1.5 2.7,3.2 3.5,5.2 0.8,2 1.3,4.1 1.3,6.4 l 0,15 -1.5,1.5 -14.9,0 c -2.2,0 -4.4,-0.4 -6.4,-1.3 -2,-0.8 -3.8,-2 -5.3,-3.5 -1.5,-1.5 -2.7,-3.3 -3.5,-5.3 -0.8,-2 -1.3,-4.2 -1.3,-6.4 0,-2.2 0.4,-4.4 1.3,-6.4 0.8,-2 2,-3.7 3.5,-5.2 z"
             id="path28"
             inkscape:connector-curvature="0"
             style="fill:#829e3d" /><path
             class="st1"
             d="m 239.9,199.1 -23.7,0 c -3.2,0 -6.3,-0.6 -9.2,-1.8 -2.9,-1.2 -5.4,-3 -7.6,-5.1 -2.2,-2.2 -3.9,-4.7 -5.1,-7.6 -1.2,-2.9 -1.8,-6 -1.8,-9.2 0,-3.3 0.6,-6.4 1.8,-9.2 1.2,-2.8 3,-5.4 5.1,-7.5 2.2,-2.1 4.7,-3.9 7.6,-5.1 2.9,-1.2 6,-1.8 9.2,-1.8 3.3,0 6.4,0.6 9.2,1.8 2.8,1.2 5.4,2.9 7.5,5.1 2.1,2.1 3.9,4.7 5.1,7.5 1.2,2.8 1.8,6 1.8,9.2 l 0,23.7 z m -23.7,-46.5 c -3.1,0 -6.1,0.6 -8.8,1.8 -2.8,1.2 -5.2,2.8 -7.3,4.9 -2.1,2.1 -3.7,4.5 -4.9,7.2 l 0,0 c -1.2,2.7 -1.8,5.7 -1.8,8.9 0,3.1 0.6,6.1 1.8,8.8 1.2,2.8 2.8,5.2 4.9,7.3 2.1,2.1 4.5,3.7 7.3,4.9 2.7,1.2 5.7,1.8 8.8,1.8 l 22.7,0 0,-22.8 c 0,-3.2 -0.6,-6.1 -1.8,-8.9 -1.2,-2.7 -2.8,-5.2 -4.9,-7.2 -2.1,-2.1 -4.5,-3.7 -7.2,-4.9 -2.7,-1.2 -5.7,-1.8 -8.8,-1.8 z m 15.1,39.7 -15.1,0 c -2.3,0 -4.5,-0.4 -6.6,-1.3 -2.1,-0.9 -3.9,-2.1 -5.4,-3.6 -1.5,-1.5 -2.8,-3.4 -3.6,-5.4 -0.9,-2.1 -1.3,-4.3 -1.3,-6.6 0,-2.3 0.4,-4.5 1.3,-6.6 0.9,-2 2.1,-3.8 3.6,-5.4 l 0,0 c 1.5,-1.5 3.4,-2.8 5.4,-3.6 4.2,-1.8 9.1,-1.7 13.2,0 2,0.9 3.8,2.1 5.4,3.6 1.5,1.5 2.8,3.3 3.6,5.4 0.9,2 1.3,4.3 1.3,6.6 l 0,15.2 -1.8,1.7 z m -26.5,-28.2 c -1.4,1.4 -2.6,3.1 -3.4,5.1 -0.8,1.9 -1.2,4 -1.2,6.2 0,2.2 0.4,4.3 1.2,6.2 0.8,2 2,3.7 3.4,5.1 1.4,1.4 3.2,2.6 5.1,3.4 2,0.8 4,1.2 6.2,1.2 l 14.7,0 1.2,-1.2 0,-14.8 c 0,-2.2 -0.4,-4.3 -1.2,-6.2 -0.8,-1.9 -2,-3.6 -3.4,-5.1 -1.4,-1.4 -3.1,-2.6 -5.1,-3.4 -3.9,-1.7 -8.5,-1.7 -12.4,0 -1.9,0.9 -3.6,2 -5.1,3.5 z"
             id="path30"
             inkscape:connector-curvature="0"
             style="fill:#58595b" /></g><g
           id="g32"><g
             id="g34"><path
               class="st0"
               d="m 175.1,132.9 c 0.4,0.3 1.7,0.9 6,0.9 l 0,-23.7 c -0.1,0 -0.1,0 -0.2,0 -4.5,0 -5.7,0.7 -5.9,0.9 -0.1,0.1 -0.5,0.6 -0.7,1.9 l 0,18.3 c 0.1,0.8 0.4,1.4 0.8,1.7 z"
               id="path36"
               inkscape:connector-curvature="0"
               style="fill:#829e3d" /><path
               class="st1"
               d="m 181.5,134.3 -0.5,0 c -4.2,0 -5.7,-0.6 -6.2,-1 l 0,0 c -0.5,-0.3 -0.9,-1 -1,-2 l 0,-18.4 c 0.2,-1.5 0.7,-2.1 0.9,-2.3 0.4,-0.3 1.7,-1 6.2,-1 l 0.6,0 0.1,0.5 0,24.2 z m -1,-23.7 c -4.3,0 -5.2,0.7 -5.3,0.8 0,0 -0.4,0.3 -0.6,1.6 l 0,18.3 c 0.2,0.8 0.5,1.2 0.6,1.3 l 0,0 c 0.3,0.2 1.4,0.7 5.2,0.8 l 0,-22.8 z"
               id="path38"
               inkscape:connector-curvature="0"
               style="fill:#58595b" /></g><g
             id="g40"><path
               class="st0"
               d="m 180.9,142.4 c -2.2,0 -3.9,0 -5.1,-0.1 -0.5,0 -1,-0.1 -1.6,-0.2 l 0,8.5 -1.5,1.5 -14.9,0 c -3.2,0 -6.2,0.6 -9,1.8 -2.8,1.2 -5.3,2.9 -7.5,5 -2.1,2.1 -3.8,4.6 -5,7.4 -1.2,2.8 -1.8,5.8 -1.8,9 0,3.2 0.6,6.2 1.8,9 1.2,2.8 2.9,5.3 5,7.5 2.1,2.1 4.6,3.8 7.5,5 2.8,1.2 5.8,1.8 9,1.8 3.2,0 6.2,-0.6 9,-1.8 2.8,-1.2 5.3,-2.9 7.4,-5 2.1,-2.1 3.8,-4.6 5,-7.5 1.2,-2.8 1.8,-5.8 1.8,-9 l 0,-32.9 c 0,0 -0.1,0 -0.1,0 z m -6.7,32.9 c 0,2.2 -0.4,4.4 -1.3,6.4 -0.8,2 -2,3.8 -3.5,5.3 -1.5,1.5 -3.2,2.7 -5.2,3.5 -2,0.8 -4.1,1.3 -6.4,1.3 -2.2,0 -4.4,-0.4 -6.4,-1.3 -2,-0.8 -3.8,-2 -5.3,-3.5 -1.5,-1.5 -2.7,-3.3 -3.5,-5.3 -0.8,-2 -1.3,-4.2 -1.3,-6.4 0,-2.2 0.4,-4.4 1.3,-6.4 0.8,-2 2,-3.7 3.5,-5.2 1.5,-1.5 3.3,-2.7 5.3,-3.5 2,-0.8 4.2,-1.3 6.4,-1.3 l 14.9,0 1.5,1.5 0,14.9 z"
               id="path42"
               inkscape:connector-curvature="0"
               style="fill:#829e3d" /><path
               class="st1"
               d="m 157.9,199.1 c -3.2,0 -6.3,-0.6 -9.2,-1.8 -2.9,-1.2 -5.4,-3 -7.6,-5.1 -2.2,-2.2 -3.9,-4.7 -5.1,-7.6 -1.2,-2.9 -1.8,-6 -1.8,-9.2 0,-3.3 0.6,-6.4 1.8,-9.2 1.2,-2.8 3,-5.4 5.1,-7.5 2.2,-2.1 4.7,-3.9 7.6,-5.1 2.9,-1.2 6,-1.8 9.2,-1.8 l 14.7,0 1.2,-1.2 0,-8.9 0.6,0.1 c 0.6,0.1 1.1,0.1 1.5,0.2 1.2,0.1 2.9,0.1 5.1,0.1 l 0,0.5 0.1,-0.5 0.5,0 0.1,0.5 0,32.9 c 0,3.2 -0.6,6.3 -1.8,9.2 -1.2,2.9 -2.9,5.4 -5.1,7.6 -2.1,2.2 -4.7,3.9 -7.6,5.1 -3,1.1 -6.1,1.7 -9.3,1.7 z m 0,-46.5 c -3.1,0 -6.1,0.6 -8.8,1.8 -2.8,1.2 -5.2,2.8 -7.3,4.9 -2.1,2.1 -3.7,4.5 -4.9,7.2 -1.2,2.7 -1.8,5.7 -1.8,8.9 0,3.1 0.6,6.1 1.8,8.8 1.2,2.8 2.8,5.2 4.9,7.3 2.1,2.1 4.5,3.7 7.3,4.9 2.7,1.2 5.7,1.8 8.8,1.8 3.1,0 6.1,-0.6 8.8,-1.8 2.8,-1.2 5.2,-2.8 7.2,-4.9 2.1,-2.1 3.7,-4.6 4.9,-7.3 1.2,-2.8 1.8,-5.7 1.8,-8.8 l 0,-32.4 c -2.1,0 -3.6,0 -4.8,-0.1 -0.3,0 -0.6,-0.1 -1,-0.1 l 0,8.1 -1.8,1.8 -15.1,0 z m 0,39.7 c -2.3,0 -4.5,-0.4 -6.6,-1.3 -2.1,-0.9 -3.9,-2.1 -5.4,-3.6 -1.5,-1.5 -2.8,-3.4 -3.6,-5.4 -0.9,-2.1 -1.3,-4.3 -1.3,-6.6 0,-2.3 0.4,-4.5 1.3,-6.6 0.9,-2 2.1,-3.8 3.6,-5.4 1.5,-1.5 3.4,-2.8 5.4,-3.6 2.1,-0.9 4.3,-1.3 6.6,-1.3 l 15.1,0 1.8,1.8 0,15.1 c 0,2.3 -0.4,4.5 -1.3,6.6 -0.9,2.1 -2.1,3.9 -3.6,5.4 -1.5,1.5 -3.3,2.8 -5.4,3.6 -2.1,0.8 -4.3,1.3 -6.6,1.3 z m 0,-32.9 c -2.2,0 -4.3,0.4 -6.2,1.2 -1.9,0.8 -3.7,2 -5.1,3.4 -1.4,1.4 -2.6,3.1 -3.4,5.1 -0.8,1.9 -1.2,4 -1.2,6.2 0,2.2 0.4,4.3 1.2,6.2 0.8,2 2,3.7 3.4,5.1 1.4,1.4 3.2,2.6 5.1,3.4 3.9,1.6 8.6,1.6 12.4,0 1.9,-0.8 3.6,-2 5.1,-3.4 1.4,-1.4 2.6,-3.2 3.4,-5.1 0.8,-2 1.2,-4 1.2,-6.2 l 0,-14.7 -1.2,-1.2 -14.7,0 z"
               id="path44"
               inkscape:connector-curvature="0"
               style="fill:#58595b" /></g></g></g><path
         class="st2"
         d="m 54.8,115.7 0,13.9 c 0,7.2 5.4,10.8 16.2,10.8 4.1,0 8.4,-0.5 12.8,-1.5 l 0,-5 c -4.6,1.2 -8.5,1.8 -11.9,1.8 -3.4,0 -6,-0.5 -7.8,-1.6 -1.7,-1 -2.6,-2.8 -2.6,-5.3 l 0,-5.3 23.7,0 0,-7.8 c 0,-4.5 -1.2,-7.6 -3.5,-9.4 -2.4,-1.8 -6.1,-2.7 -11.2,-2.7 -5.4,0 -9.4,0.9 -11.9,2.8 -2.6,1.9 -3.8,5 -3.8,9.3 z m 6.6,-2.1 c 0,-2.2 0.7,-3.7 2.1,-4.4 1.4,-0.8 3.6,-1.2 6.5,-1.2 3.1,0 5.2,0.4 6.6,1.2 1.3,0.8 2,2.3 2,4.4 l 0,5.5 -17.2,0 0,-5.5 z"
         id="path46"
         inkscape:connector-curvature="0"
         style="fill:#ffffff;stroke:#58595b;stroke-miterlimit:10" /><path
         class="st2"
         d="m 120,139.6 0,-25.9 c 0,-3.4 -0.9,-5.9 -2.6,-7.6 -1.7,-1.7 -5,-2.5 -9.6,-2.5 -7,0 -10.9,1.7 -11.6,5 l 0,-4.3 -6.6,0 0,35.3 6.6,0 0,-25.5 c 0,-2.2 0.7,-3.8 2,-4.6 1.3,-0.8 3.9,-1.2 7.7,-1.2 1.7,0 3,0.2 4.1,0.5 1.1,0.3 1.9,0.8 2.3,1.4 0.5,0.6 0.8,1.2 0.9,1.8 0.1,0.6 0.2,1.3 0.2,2.2 l 0,25.5 6.6,0 z"
         id="path48"
         inkscape:connector-curvature="0"
         style="fill:#ffffff;stroke:#58595b;stroke-miterlimit:10" /><path
         class="st2"
         d="m 129.2,105.3 c -0.8,0.5 -1.6,1.2 -2.4,2.1 -0.8,0.9 -1.3,2 -1.7,3.4 -0.4,1.4 -0.5,3.1 -0.5,5 l 0,13 c 0,2.2 0.3,4 0.9,5.5 0.6,1.5 1.3,2.6 2.1,3.4 0.8,0.8 2,1.4 3.5,1.8 1.5,0.4 2.9,0.7 4.1,0.7 1.2,0.1 2.9,0.1 5,0.1 4.3,0 8.1,-0.3 11.3,-1 l 0,-5 c -3.6,0.9 -7.2,1.4 -10.6,1.4 -3.8,0 -6.4,-0.4 -7.6,-1.3 -1.2,-0.8 -1.9,-2.6 -1.9,-5.1 l 0,-14.4 c 0,-2.8 0.5,-4.7 1.6,-5.5 1.1,-0.9 3.5,-1.3 7.1,-1.3 3.4,0 7.1,0.5 10.9,1.5 l 0,-4.8 c -3.4,-0.7 -6.7,-1.1 -10.1,-1.1 -1.8,0 -3.3,0 -4.4,0.1 -1.1,0.1 -2.4,0.2 -3.8,0.4 -1.5,0.2 -2.6,0.6 -3.5,1.1 z"
         id="path50"
         inkscape:connector-curvature="0"
         style="fill:#ffffff;stroke:#58595b;stroke-miterlimit:10" /><g
         id="g52"><rect
           x="154.2"
           y="91.599998"
           class="st2"
           width="6.5999999"
           height="6.8000002"
           id="rect54"
           style="fill:#ffffff;stroke:#58595b;stroke-miterlimit:10" /><rect
           x="154.2"
           y="104.4"
           class="st2"
           width="6.5999999"
           height="35.299999"
           id="rect56"
           style="fill:#ffffff;stroke:#58595b;stroke-miterlimit:10" /></g><path
         class="st2"
         d="m 170,105.3 c -0.8,0.5 -1.6,1.2 -2.4,2.1 -0.8,0.9 -1.3,2 -1.7,3.4 -0.4,1.4 -0.5,3.1 -0.5,5 l 0,13 c 0,2.2 0.3,4 0.9,5.5 0.6,1.5 1.3,2.6 2.1,3.4 0.8,0.8 2,1.4 3.5,1.8 1.5,0.4 2.9,0.7 4.1,0.7 1.2,0.1 2.9,0.1 5,0.1 4.3,0 8.1,-0.3 11.3,-1 l 0,-5 c -3.6,0.9 -7.2,1.4 -10.6,1.4 -3.8,0 -6.4,-0.4 -7.6,-1.3 -1.2,-0.8 -1.9,-2.6 -1.9,-5.1 l 0,-14.4 c 0,-2.8 0.5,-4.7 1.6,-5.5 1.1,-0.9 3.5,-1.3 7.1,-1.3 3.4,0 7.1,0.5 10.9,1.5 l 0,-4.8 c -3.4,-0.7 -6.7,-1.1 -10.1,-1.1 -1.8,0 -3.3,0 -4.4,0.1 -1.1,0.1 -2.4,0.2 -3.8,0.4 -1.5,0.2 -2.6,0.6 -3.5,1.1 z"
         id="path58"
         inkscape:connector-curvature="0"
         style="fill:#ffffff;stroke:#58595b;stroke-miterlimit:10" /><rect
         x="195"
         y="88.599998"
         class="st2"
         width="6.5999999"
         height="51"
         id="rect60"
         style="fill:#ffffff;stroke:#58595b;stroke-miterlimit:10" /><path
         class="st2"
         d="m 235.8,137.5 c 0.8,-0.8 1.5,-2 2,-3.5 0.5,-1.5 0.8,-3.4 0.8,-5.5 l 0,-12.2 c 0,-2.3 -0.3,-4.3 -0.8,-5.9 -0.6,-1.6 -1.2,-2.8 -2,-3.7 -0.8,-0.9 -2,-1.5 -3.5,-2 -1.6,-0.5 -3,-0.7 -4.3,-0.8 -1.3,-0.1 -3.2,-0.1 -5.5,-0.1 -2.3,0 -4.2,0 -5.5,0.1 -1.3,0.1 -2.8,0.4 -4.3,0.8 -1.6,0.5 -2.7,1.1 -3.5,2 -0.8,0.9 -1.5,2.1 -2,3.7 -0.6,1.6 -0.8,3.6 -0.8,5.9 l 0,12.2 c 0,2.7 0.4,4.9 1.1,6.6 0.7,1.7 1.9,2.9 3.5,3.6 1.6,0.8 3.3,1.2 4.9,1.4 1.6,0.2 3.9,0.3 6.8,0.3 2.3,0 4.1,0 5.5,-0.1 1.4,-0.1 2.8,-0.4 4.4,-0.8 1.2,-0.5 2.4,-1.1 3.2,-2 z m -3.8,-8.1 c 0,1.6 -0.2,2.8 -0.5,3.7 -0.3,0.9 -1,1.6 -1.9,2 -0.9,0.4 -1.9,0.7 -2.8,0.8 -1,0.1 -2.4,0.1 -4.3,0.1 -1.9,0 -3.3,0 -4.3,-0.1 -1,-0.1 -1.9,-0.4 -2.8,-0.8 -0.9,-0.4 -1.6,-1.1 -1.9,-2 -0.3,-0.9 -0.5,-2.2 -0.5,-3.7 l 0,-14.3 c 0,-3.3 0.7,-5.3 2,-6 1.3,-0.8 3.8,-1.2 7.6,-1.2 3.7,0 6.3,0.4 7.6,1.2 1.3,0.8 2,2.8 2,6 l 0,14.3 z"
         id="path62"
         inkscape:connector-curvature="0"
         style="fill:#ffffff;stroke:#58595b;stroke-miterlimit:10" /></g><g
       id="g64"><g
         id="g66"><path
           class="st0"
           d="m 298.5,167.2 c -1.8,-0.9 -3.7,-1.7 -5.7,-2.6 1.9,1.6 3.2,2.4 3.4,2.5 0.7,0.5 1.6,0.5 2.3,0.1 z"
           id="path68"
           inkscape:connector-curvature="0"
           style="fill:#829e3d" /><path
           class="st1"
           d="m 292.8,164.7 c 1.9,1.6 3.2,2.4 3.4,2.5 0.4,0.2 0.8,0.3 1.2,0.3 0.4,0 0.8,-0.1 1.1,-0.2 -1.8,-1 -3.7,-1.8 -5.7,-2.6 l 0,0 z"
           id="path70"
           inkscape:connector-curvature="0"
           style="fill:#58595b" /></g><g
         id="g72"><path
           class="st0"
           d="m 299.4,165.5 c -2.9,-1.4 -6,-2.7 -9.1,-3.9 -3.8,-3.8 -9,-10.4 -12.6,-20.4 0.2,0 0.5,0.1 0.7,0.1 0.5,0 1,-0.1 1.5,-0.3 0.6,-0.2 1.1,-0.5 1.5,-1 6.2,16.5 16.9,23.2 17.1,23.2 0.8,0.6 1.1,1.5 0.9,2.3 z"
           id="path74"
           inkscape:connector-curvature="0"
           style="fill:#829e3d" /><path
           class="st1"
           d="m 281.2,140.9 c 6.3,16.2 16.9,22.8 17,22.8 0.4,0.2 0.6,0.6 0.7,1 -2.7,-1.3 -5.5,-2.5 -8.4,-3.6 -3.6,-3.7 -8.6,-10 -12.2,-19.4 0.6,0 1.2,-0.1 1.7,-0.3 0.5,-0.1 0.9,-0.3 1.2,-0.5 m 0.4,-1.8 c -0.4,0.7 -1.1,1.2 -1.9,1.5 -0.4,0.2 -0.9,0.2 -1.3,0.2 -0.5,0 -1.1,-0.1 -1.6,-0.3 3.7,10.5 9,17.4 13.2,21.5 3.5,1.3 6.7,2.7 9.6,4.2 0.6,-1.2 0.3,-2.6 -0.9,-3.3 -0.1,-0.1 -11.1,-6.9 -17.1,-23.8 l 0,0 z"
           id="path76"
           inkscape:connector-curvature="0"
           style="fill:#58595b" /></g></g><g
       id="g78"><g
         id="g80"><path
           class="st0"
           d="m 365.9,157.2 c 8.3,-4.9 14.3,-13.1 18.1,-24.4 l -0.4,-0.7 c -2.8,-0.3 -5.5,-0.5 -8.1,-0.5 -1.7,0 -3.3,0.1 -4.8,0.3 0.7,-1.9 1.6,-3.8 2.9,-5.7 0.6,0 1.2,0 1.8,0 3.2,0 6.3,0.3 9.6,0.6 l 0.7,0.1 c 0.7,0.1 1.5,0.1 2.3,0.2 0.8,0.1 1.5,0.5 2,1.1 0.5,0.7 0.6,1.5 0.4,2.2 -2.7,10 -7.1,18.1 -12.9,24.3 -4,0.7 -7.9,1.5 -11.6,2.5 z"
           id="path82"
           inkscape:connector-curvature="0"
           style="fill:#829e3d" /><path
           class="st1"
           d="m 375.3,126.7 c 3.1,0 6.3,0.3 9.6,0.6 l 0.7,0.1 c 0.7,0.1 1.5,0.1 2.3,0.2 0.6,0.1 1.2,0.4 1.6,0.9 0.4,0.5 0.5,1.2 0.3,1.8 -2.7,9.8 -6.9,17.9 -12.7,23.9 -2.8,0.4 -5.6,1 -8.4,1.6 7.1,-5.1 12.4,-12.8 15.8,-23.1 l -0.9,-1.3 c -2.8,-0.3 -5.5,-0.5 -8.2,-0.5 -1.4,0 -2.8,0.1 -4,0.2 0.6,-1.5 1.4,-3.1 2.4,-4.6 0.5,0.2 1,0.2 1.5,0.2 m 0,-1 c -0.7,0 -1.4,0 -2,0 -1.8,2.6 -2.8,4.9 -3.4,6.8 1.9,-0.3 3.7,-0.4 5.5,-0.4 2.6,0 5.2,0.2 8.1,0.5 -4.5,13.6 -12.4,22.6 -23.3,26.7 5.3,-1.7 11.1,-3.1 17.3,-4.1 5.9,-6.2 10.4,-14.4 13.2,-24.6 0.2,-0.9 0.1,-1.9 -0.5,-2.6 -0.5,-0.8 -1.4,-1.3 -2.3,-1.4 -1,-0.1 -2,-0.2 -2.9,-0.3 -3.4,-0.3 -6.5,-0.6 -9.7,-0.6 l 0,0 z"
           id="path84"
           inkscape:connector-curvature="0"
           style="fill:#58595b" /></g></g><g
       id="g86"><g
         id="g88"><path
           class="st0"
           d="m 344.2,165.4 c -0.3,-0.9 0,-1.9 0.8,-2.4 0.1,-0.1 10.8,-6.6 17.1,-23.2 0.4,0.4 0.9,0.8 1.5,1 0.5,0.2 1,0.3 1.5,0.3 0.2,0 0.5,0 0.7,-0.1 -3.7,10 -8.9,16.6 -12.7,20.5 -2.9,1 -6,2.4 -8.9,3.9 z"
           id="path90"
           inkscape:connector-curvature="0"
           style="fill:#829e3d" /><path
           class="st1"
           d="m 362.3,140.5 c 0.3,0.2 0.7,0.5 1.1,0.6 0.6,0.2 1.1,0.3 1.7,0.3 -3.6,9.5 -8.6,15.8 -12.3,19.5 -2.8,1.1 -5.6,2.4 -8.3,3.7 0,-0.5 0.3,-1 0.7,-1.2 0.2,-0.1 10.8,-6.5 17.1,-22.9 m -0.3,-1.8 c -6.1,17.1 -17,23.7 -17.2,23.8 -1.2,0.7 -1.6,2.2 -0.9,3.4 0,0 0.1,0.1 0.1,0.1 2.9,-1.5 6.1,-2.9 9.5,-4.3 4.2,-4.2 9.5,-11.1 13.2,-21.6 -0.5,0.2 -1,0.3 -1.6,0.3 -0.5,0 -0.9,-0.1 -1.4,-0.2 -0.7,-0.3 -1.3,-0.8 -1.7,-1.5 l 0,0 z"
           id="path92"
           inkscape:connector-curvature="0"
           style="fill:#58595b" /></g></g><g
       id="g94"><g
         id="g96"><path
           class="st0"
           d="m 314.1,183 c -8.7,-6.7 -26.9,-18.3 -52.5,-21.1 -1.3,-0.1 -2.2,-1.3 -2,-2.5 0.1,-1.2 1.1,-2.1 2.3,-2.1 0.1,0 0.2,0 0.3,0 34.2,3.7 55.3,21.8 60.7,27 l -0.5,0.1 -8.3,-1.4 z"
           id="path98"
           inkscape:connector-curvature="0"
           style="fill:#829e3d" /><path
           class="st1"
           d="m 261.9,157.8 c 0.1,0 0.1,0 0.2,0 32.2,3.5 52.8,19.9 59.4,25.9 l -7.2,-1.2 c -8.7,-6.8 -27,-18.3 -52.7,-21.1 -1,-0.1 -1.7,-1 -1.6,-2 0.2,-0.9 1,-1.6 1.9,-1.6 m 0,-1 c -1.4,0 -2.6,1.1 -2.8,2.5 -0.2,1.5 1,2.9 2.5,3.1 25.3,2.7 43.3,14 52.3,21.1 l 8.4,1.4 1.6,-0.3 c -4.3,-4.2 -25.8,-23.9 -61.7,-27.8 -0.1,0 -0.2,0 -0.3,0 l 0,0 z"
           id="path100"
           inkscape:connector-curvature="0"
           style="fill:#58595b" /></g></g><g
       id="g102"><g
         id="g104"><path
           class="st0"
           d="m 321.3,184.2 c 4,-4 25.7,-23.8 61.4,-27.7 0.1,0 0.2,0 0.3,0 1.2,0 2.2,0.9 2.3,2.1 0.1,0.6 -0.1,1.2 -0.5,1.7 -0.4,0.5 -0.9,0.8 -1.6,0.8 -26.6,2.9 -45.1,15 -53.8,22.1 l -7.1,1.2 -1,-0.2 z"
           id="path106"
           inkscape:connector-curvature="0"
           style="fill:#829e3d" /><path
           class="st1"
           d="m 383,157 c 0.9,0 1.7,0.7 1.8,1.6 0.1,0.5 -0.1,1 -0.4,1.3 -0.3,0.4 -0.7,0.6 -1.2,0.7 -26.6,2.9 -45.2,15 -54,22.1 l -6.8,1.1 c 5.5,-5.2 26.6,-23.2 60.4,-26.8 0,0 0.1,0 0.2,0 m 0,-1 c -0.1,0 -0.2,0 -0.3,0 -38.8,4.2 -60.7,26.8 -62.4,28.5 l 2,0.3 7.3,-1.2 c 8.5,-6.9 27,-19.2 53.6,-22.1 0.7,-0.1 1.4,-0.4 1.9,-1 0.5,-0.6 0.7,-1.3 0.6,-2.1 -0.1,-1.3 -1.3,-2.4 -2.7,-2.4 l 0,0 z"
           id="path108"
           inkscape:connector-curvature="0"
           style="fill:#58595b" /></g></g><g
       id="g110"><g
         id="g112"><path
           class="st0"
           d="m 299.8,144.7 c -0.6,0 -1.1,-0.2 -1.6,-0.5 -6.1,-4.7 -11.2,-7.8 -15.8,-9.7 -0.3,-2.2 -0.9,-4.3 -1.8,-6.4 4.8,1.6 9.9,4.2 15.6,8.2 l 0.8,-0.4 c 0.3,-4.9 1.2,-10.1 2.6,-15 2.1,2.2 3.5,4.1 4.2,5.2 -1.9,8.7 -1.5,15.1 -1.5,15.9 0.1,1.1 -0.5,2.1 -1.4,2.6 -0.2,0 -0.6,0.1 -1.1,0.1 l 0,0 z"
           id="path114"
           inkscape:connector-curvature="0"
           style="fill:#829e3d" /><path
           class="st1"
           d="m 300,121.8 c 1.6,1.8 2.8,3.3 3.4,4.3 -1.9,8.6 -1.5,15.1 -1.4,15.8 0.1,0.9 -0.4,1.7 -1.1,2.1 -0.3,0.2 -0.7,0.3 -1,0.3 -0.5,0 -0.9,-0.2 -1.3,-0.4 -6.1,-4.6 -11,-7.7 -15.6,-9.7 -0.3,-1.8 -0.8,-3.5 -1.4,-5.2 4.4,1.6 9.2,4.1 14.5,7.8 l 1.6,-0.8 c 0.1,-4.7 1,-9.6 2.3,-14.2 m -0.5,-2 c -1.8,5.8 -2.7,11.3 -2.9,16 -6.6,-4.5 -12,-7.1 -16.8,-8.5 1.1,2.4 1.8,4.9 2.2,7.5 4.4,1.9 9.5,4.9 15.9,9.8 0.6,0.4 1.2,0.6 1.9,0.6 0.5,0 1,-0.1 1.5,-0.4 1.1,-0.6 1.7,-1.8 1.6,-3 0,-0.6 -0.5,-7.2 1.5,-15.9 -0.7,-1.1 -2.4,-3.5 -4.9,-6.1 l 0,0 z"
           id="path116"
           inkscape:connector-curvature="0"
           style="fill:#58595b" /></g><g
         id="g118"><path
           class="st0"
           d="m 307.1,116 c -1.3,-1.4 -2.7,-2.8 -4.1,-4 4,-8.8 9.8,-16.2 17.2,-22 0.5,-0.4 1,-0.6 1.7,-0.6 0.1,0 0.1,0 0.2,0 0.2,0 0.2,0 0.3,0 0.6,0 1.2,0.2 1.7,0.6 7.1,5.7 12.8,12.8 16.8,21.3 -1.4,1.2 -2.8,2.6 -4.1,4 -3.3,-7.7 -8.1,-14.3 -14.3,-19.6 l -0.7,0 c -6.4,5.4 -11.4,12.3 -14.7,20.3 z"
           id="path120"
           inkscape:connector-curvature="0"
           style="fill:#829e3d" /><path
           class="st1"
           d="m 322.4,89.9 c 0.5,0 1,0.2 1.3,0.5 7,5.5 12.5,12.5 16.5,20.8 -1.1,1 -2.2,2.1 -3.3,3.2 -3.3,-7.4 -8.1,-13.9 -14.2,-19.1 l -1.3,0 c -6.3,5.4 -11.2,12.1 -14.5,19.9 -1.1,-1.1 -2.2,-2.2 -3.3,-3.2 4,-8.6 9.7,-15.8 16.9,-21.5 0.4,-0.3 0.8,-0.5 1.3,-0.5 0.1,0 0.1,0 0.2,0 l 0.2,0 c 0,-0.1 0.1,-0.1 0.2,-0.1 m 0,-1 c -0.1,0 -0.2,0 -0.3,0 -0.1,0 -0.1,0 -0.2,0 -0.7,0 -1.4,0.2 -2,0.7 -8.3,6.6 -13.9,14.6 -17.5,22.6 1.9,1.7 3.5,3.3 4.8,4.8 2.8,-7 7.4,-14.5 14.8,-21 7.2,6.2 11.7,13.3 14.5,20.1 1.3,-1.5 2.9,-3.1 4.8,-4.8 -3.6,-7.7 -9.1,-15.4 -17.1,-21.8 -0.5,-0.4 -1.2,-0.6 -1.8,-0.6 l 0,0 z"
           id="path122"
           inkscape:connector-curvature="0"
           style="fill:#58595b" /></g><g
         id="g124"><path
           class="st0"
           d="m 344.4,144.7 c -0.4,0 -0.9,-0.1 -1.3,-0.3 -0.9,-0.5 -1.5,-1.5 -1.4,-2.6 0,-0.3 0.5,-7.5 -1.7,-16.8 0.9,-1.3 2.3,-3 4.2,-5 1.6,5.2 2.6,10.6 2.9,15.8 l 0.8,0.4 c 5.4,-3.7 10.2,-6.3 14.7,-7.9 -0.8,2.1 -1.3,4.2 -1.6,6.4 -4.3,2 -9.2,5.1 -15,9.4 -0.4,0.5 -1,0.6 -1.6,0.6 z"
           id="path126"
           inkscape:connector-curvature="0"
           style="fill:#829e3d" /><path
           class="st1"
           d="m 344,121 c 1.8,6.1 2.4,11.4 2.6,14.9 l 1.6,0.8 c 5,-3.4 9.4,-5.8 13.6,-7.4 -0.6,1.7 -1,3.5 -1.2,5.2 -4.3,2 -9.2,5.1 -14.8,9.3 -0.4,0.3 -0.8,0.4 -1.3,0.4 -0.4,0 -0.7,-0.1 -1,-0.3 -0.7,-0.4 -1.2,-1.2 -1.1,-2.1 0.1,-0.8 0.5,-7.6 -1.7,-16.8 0.7,-0.9 1.8,-2.4 3.3,-4 m 0.5,-1.9 c -2.4,2.3 -4,4.5 -5,5.8 2.3,9.2 1.8,16.3 1.7,16.9 -0.1,1.2 0.5,2.4 1.6,3 0.5,0.3 1,0.4 1.5,0.4 0.7,0 1.4,-0.2 1.9,-0.6 6,-4.6 10.9,-7.6 15.1,-9.5 0.3,-2.6 1,-5.1 2,-7.6 -4.6,1.5 -9.7,4 -15.8,8.3 -0.2,-4.8 -1.1,-10.6 -3,-16.7 l 0,0 z m 19,8.5 0,0 0,0 z"
           id="path128"
           inkscape:connector-curvature="0"
           style="fill:#58595b" /></g></g><g
       id="g130"><g
         id="g132"><path
           class="st3"
           d="m 278.4,138.9 c -0.8,0 -1.6,-0.5 -1.9,-1.3 -0.1,-0.3 -0.2,-0.6 -0.2,-1.2 -0.3,-2.5 -1.2,-10.1 -10.7,-18 -1.2,-1 -2.7,-1.9 -3.9,-2.6 0,0 -0.9,-0.5 -1.1,-0.7 -1,-0.6 -1.6,-1.8 -1.6,-3.2 0,-1.2 0.6,-2.7 1.9,-3.4 5.7,-3 11.4,-4.5 17,-4.5 19.9,0 31.9,19.4 32,19.6 0.6,0.9 0.3,2.2 -0.7,2.7 -0.3,0.2 -0.7,0.3 -1,0.3 -0.7,0 -1.3,-0.4 -1.7,-1 -0.4,-0.7 -10.8,-17.6 -28.5,-17.6 -4.3,0 -8.6,1 -13,2.9 l -1.2,0.5 -0.1,0.9 1.1,0.7 c 0.8,0.5 2.1,1.3 3.3,2.3 7.1,6 11.1,12.9 12.1,20.6 l 0.1,0.4 c 0.3,1 -0.3,2 -1.2,2.4 -0.3,0.2 -0.5,0.2 -0.7,0.2 z"
           id="path134"
           inkscape:connector-curvature="0"
           style="fill:#ffffff" /><path
           class="st1"
           d="m 278,104.5 c 19.6,0 31.5,19.1 31.6,19.3 0.4,0.7 0.2,1.6 -0.5,2 -0.2,0.1 -0.5,0.2 -0.8,0.2 -0.5,0 -1,-0.3 -1.3,-0.7 -0.4,-0.7 -11,-17.9 -29,-17.9 -4.3,0 -8.8,1 -13.2,3 l -1.2,0.5 -0.1,1.8 1.1,0.7 c 0.8,0.5 2,1.3 3.2,2.3 7,5.9 11,12.7 11.9,20.3 l 0.1,0.4 0,0.1 c 0.2,0.7 -0.2,1.5 -0.9,1.7 -0.2,0.1 -0.3,0.1 -0.5,0.1 -0.6,0 -1.2,-0.4 -1.4,-1 -0.1,-0.3 -0.1,-0.5 -0.2,-1 -0.3,-2.5 -1.2,-10.3 -10.8,-18.4 -1.3,-1.1 -2.7,-1.9 -3.9,-2.6 l -0.4,-0.3 c -0.2,-0.1 -0.4,-0.3 -0.6,-0.4 -0.9,-0.5 -1.4,-1.6 -1.3,-2.8 0,-1.1 0.6,-2.5 1.6,-3 5.5,-2.8 11.1,-4.3 16.6,-4.3 m 0,-1 c -5.6,0 -11.4,1.5 -17.2,4.5 -1.5,0.8 -2.1,2.6 -2.2,3.9 -0.1,1.5 0.6,2.9 1.8,3.7 0.2,0.1 0.4,0.3 0.6,0.4 l 0.4,0.3 c 1.1,0.7 2.6,1.5 3.8,2.6 9.3,7.8 10.2,15.3 10.5,17.7 0.1,0.6 0.1,0.9 0.3,1.3 0.4,1 1.3,1.6 2.4,1.6 0.3,0 0.6,0 0.8,-0.1 1.2,-0.4 1.9,-1.7 1.5,-2.9 l -0.1,-0.4 c -0.9,-7.9 -5,-14.9 -12.2,-20.9 -1.2,-1 -2.5,-1.8 -3.3,-2.3 l -1.1,-0.7 1.2,-0.5 c 4.3,-1.9 8.6,-2.9 12.8,-2.9 17.4,0 27.7,16.7 28.1,17.4 0.5,0.8 1.3,1.2 2.1,1.2 0.4,0 0.9,-0.1 1.3,-0.4 1.2,-0.7 1.6,-2.2 0.9,-3.4 -0.1,-0.5 -12.2,-20.1 -32.4,-20.1 l 0,0 z"
           id="path136"
           inkscape:connector-curvature="0"
           style="fill:#58595b" /></g></g><g
       id="g138"><g
         id="g140"><path
           class="st3"
           d="m 365.1,138.5 c -0.2,0 -0.5,0 -0.7,-0.1 -1,-0.4 -1.5,-1.4 -1.2,-2.4 l 0.1,-0.4 c 0.9,-7.7 5,-14.7 12.1,-20.6 1.2,-1 2.4,-1.8 3.3,-2.3 l 1.1,-0.7 -0.1,-0.9 -1.2,-0.5 c -4.4,-2 -8.8,-2.9 -13,-2.9 -2.7,0 -5.4,0.4 -8,1.2 -0.3,0.1 -0.5,0.1 -0.8,0.1 -0.6,0 -1.2,-0.2 -2.1,-0.6 l -1,-0.5 -0.7,0.4 0,1.1 c 0,0.9 -0.3,1.4 -1.1,1.9 -9.4,5.1 -14.8,14 -14.8,14 -0.4,0.6 -1,0.9 -1.7,0.9 -0.4,0 -0.7,-0.1 -1,-0.3 -0.9,-0.6 -1.2,-1.8 -0.7,-2.7 0.2,-0.3 5.2,-8.5 14.3,-14.3 l 0.5,-0.3 0.2,-0.6 -0.4,-0.9 c -0.9,-2.1 -1.5,-3.3 -1,-4.6 0.2,-0.6 0.6,-1 1.2,-1.2 0.3,-0.1 0.6,-0.2 1,-0.2 1.3,0 3,1 4.8,2.2 l 0.1,0.1 c 0.6,0.4 1.5,0.9 2.1,1.3 l 0.2,0.1 0.4,0 0.3,-0.1 c 2.7,-0.7 5.5,-1.1 8.3,-1.1 5.6,0 11.3,1.5 17,4.5 1.3,0.7 1.8,2.3 1.9,3.4 0.1,1.4 -0.5,2.6 -1.6,3.2 -0.3,0.2 -0.5,0.3 -0.8,0.5 l -0.2,0.1 c -1.2,0.7 -2.6,1.6 -3.9,2.6 -9.5,8 -10.4,15.6 -10.7,18.1 -0.1,0.5 -0.1,0.8 -0.2,1.2 -0.4,0.8 -1.1,1.3 -2,1.3 l 0,0 z"
           id="path142"
           inkscape:connector-curvature="0"
           style="fill:#ffffff" /><path
           class="st1"
           d="m 349.3,101.7 c 1.2,0 2.8,1 4.6,2.1 l 0.1,0.1 c 0.6,0.4 1.5,0.9 2.2,1.3 l 0.2,0.1 0.7,0.1 0.3,-0.1 c 2.7,-0.7 5.4,-1.1 8.1,-1.1 5.5,0 11.2,1.5 16.8,4.4 1.1,0.5 1.6,1.9 1.6,3 0,1.2 -0.4,2.2 -1.3,2.8 -0.3,0.2 -0.5,0.3 -0.9,0.5 l -0.2,0.1 c -1.2,0.7 -2.7,1.6 -3.9,2.6 -9.6,8.1 -10.5,15.8 -10.8,18.4 -0.1,0.5 -0.1,0.8 -0.2,1 -0.2,0.6 -0.8,1 -1.4,1 -0.2,0 -0.3,0 -0.5,-0.1 -0.7,-0.3 -1.1,-1 -0.9,-1.8 l 0,-0.1 0,-0.3 c 0.9,-7.6 4.9,-14.4 11.9,-20.3 1.1,-1 2.4,-1.7 3.2,-2.3 l 1.1,-0.7 -0.1,-1.8 -1.2,-0.5 c -4.4,-2 -8.9,-3 -13.2,-3 -2.7,0 -5.5,0.4 -8.1,1.2 -0.2,0.1 -0.4,0.1 -0.6,0.1 -0.5,0 -1.1,-0.2 -1.9,-0.6 l -1,-0.5 -1.4,0.9 0,1.1 c 0,0.7 -0.3,1.1 -0.9,1.4 -9.6,5.2 -15,14.2 -15,14.2 -0.3,0.5 -0.8,0.7 -1.3,0.7 -0.3,0 -0.5,-0.1 -0.8,-0.2 -0.7,-0.4 -0.9,-1.3 -0.5,-2 0.2,-0.3 5.1,-8.4 14.1,-14.1 l 0.5,-0.3 0.4,-1.2 -0.4,-0.9 c -1,-2.1 -1.4,-3.2 -1,-4.2 0.2,-0.4 0.5,-0.8 0.9,-1 0.3,0 0.5,0 0.8,0 l 0,0 m 0,-1 c -0.4,0 -0.8,0.1 -1.1,0.2 -0.7,0.3 -1.2,0.8 -1.4,1.5 -0.5,1.4 0.1,2.8 1,4.9 l 0.4,0.9 -0.5,0.3 c -9.2,5.8 -14.2,14.1 -14.4,14.4 -0.7,1.2 -0.3,2.7 0.9,3.4 0.4,0.2 0.8,0.4 1.3,0.4 0.9,0 1.7,-0.5 2.1,-1.2 0,-0.1 5.3,-8.8 14.6,-13.8 1,-0.5 1.4,-1.2 1.4,-2.3 l 0,-1.1 1,0.5 c 0.9,0.5 1.6,0.7 2.3,0.7 0.3,0 0.6,0 0.9,-0.1 2.5,-0.8 5.2,-1.2 7.8,-1.2 4.2,0 8.5,1 12.8,2.9 l 1.2,0.5 -1.1,0.7 c -0.9,0.5 -2.1,1.3 -3.3,2.3 -7.2,6 -11.3,13.1 -12.2,20.9 l 0,0.3 c -0.3,1.3 0.3,2.6 1.5,3 0.3,0.1 0.6,0.2 0.8,0.2 1,0 2,-0.6 2.3,-1.6 0.1,-0.4 0.2,-0.7 0.2,-1.3 0.3,-2.5 1.2,-9.9 10.5,-17.7 1.2,-1 2.6,-1.8 3.8,-2.6 l 0.2,-0.1 c 0.3,-0.2 0.6,-0.4 0.9,-0.5 1.2,-0.7 1.9,-2.1 1.8,-3.7 -0.1,-1.3 -0.6,-3.1 -2.2,-3.8 -5.8,-3 -11.6,-4.5 -17.3,-4.5 -2.8,0 -5.7,0.4 -8.4,1.1 l -0.3,0.1 -0.2,-0.1 c -0.6,-0.3 -1.5,-0.8 -2.1,-1.2 l -0.1,-0.1 c -2.1,-1.3 -3.7,-2.3 -5.1,-2.3 l 0,0 z"
           id="path144"
           inkscape:connector-curvature="0"
           style="fill:#58595b" /></g></g><g
       id="g146"><path
         class="st0"
         d="m 321.9,151.1 c -0.7,0 -1.4,-0.4 -1.8,-1.1 -0.1,-0.2 -0.2,-0.3 -0.3,-0.4 l -0.1,-0.1 c -0.5,-0.9 -0.9,-2.1 -1,-2.6 l 0,-0.1 c 0,-0.1 0,-0.1 0,-0.2 l 0,-0.1 c -2.8,-6.7 -6.1,-12.6 -9.8,-17.5 0.6,-0.1 1.1,-0.3 1.6,-0.6 0.7,-0.4 1.2,-1 1.6,-1.7 2.1,2.7 4,5.8 5.9,9.1 l 0.9,-0.3 c -0.3,-2.8 -0.5,-5.9 -0.5,-9 l 0,-0.1 c -0.4,-2 -1.6,-3.5 -3.6,-4.4 -0.6,-0.3 -0.9,-0.6 -0.8,-1.2 0,-0.4 0.3,-0.8 0.8,-1 0.1,0 0.2,-0.1 0.3,-0.1 0.2,0 0.4,0.1 0.6,0.2 0.9,0.4 1.6,0.9 2.2,1.4 l 0.8,-0.3 c 0.6,-8 2.1,-14 2.4,-15.1 0.1,-0.5 0.6,-0.8 1.1,-0.8 0.1,0 0.2,0 0.3,0 0.6,0.2 0.9,0.8 0.8,1.3 -0.2,0.7 -1.1,4.2 -1.7,9.2 l 0.8,0.4 c 1.7,-1.5 3.4,-2.7 4.2,-3.2 l 0.3,-0.2 c 0.3,-0.3 0.6,-0.4 0.8,-0.4 0.1,0 0.2,0 0.3,0.1 0.4,0.1 0.7,0.5 0.7,0.9 0.1,0.7 -0.3,1 -1.1,1.5 -1.4,0.9 -5.1,3.3 -6.6,6.2 0,0 0,0.1 -0.1,0.1 l -0.1,0.3 c -0.1,1.6 -0.2,3.3 -0.2,5 0.1,0.5 0.1,0.9 0.1,1.3 0,0.1 0,0.3 -0.1,0.4 l 0,0.2 c 0.1,4.4 0.5,8.5 1.3,12.2 l 0.9,0.1 c 2.5,-5.4 5.4,-10.2 8.5,-14.3 0.4,0.7 0.9,1.3 1.6,1.7 0.5,0.3 1,0.5 1.6,0.6 -4.2,5.5 -7.8,12.2 -10.8,20 l 0,0.2 c 0.1,0.4 0,0.7 -0.2,1.1 -0.2,0.5 -0.6,0.9 -1.1,1 0,0.2 -0.3,0.3 -0.5,0.3 l 0,0 z"
         id="path148"
         inkscape:connector-curvature="0"
         style="fill:#829e3d" /><path
         class="st1"
         d="m 322.2,105.6 c 0.1,0 0.1,0 0.2,0 0.3,0.1 0.5,0.4 0.4,0.8 -0.2,0.7 -1.1,4.2 -1.7,9.3 l 1.7,0.9 c 1.6,-1.5 3.4,-2.6 4.1,-3.1 l 0.2,-0.1 0.1,-0.1 0.2,-0.1 c 0.1,-0.1 0.3,-0.2 0.4,-0.2 0.1,0 0.1,0 0.2,0 0.2,0.1 0.4,0.3 0.4,0.5 0,0.3 0,0.5 -0.9,1 -1.4,0.9 -5.2,3.4 -6.7,6.4 l 0,0 0,0.1 -0.2,0.5 c -0.1,1.6 -0.2,3.3 -0.2,5 l 0,0.2 c 0.1,0.4 0.1,0.8 0.1,1.2 0,0.1 0,0.2 0,0.3 l -0.1,0.4 c 0.1,4.4 0.5,8.5 1.3,12.3 l 1.9,0.2 c 2.4,-5.1 5.1,-9.7 8,-13.7 0.4,0.5 0.8,0.9 1.4,1.3 0.3,0.2 0.7,0.3 1,0.5 -4,5.4 -7.5,11.9 -10.4,19.5 l -0.1,0.5 c 0,0.3 0,0.6 -0.1,0.8 -0.2,0.4 -0.5,0.6 -0.8,0.8 -0.2,0.1 -0.3,0.1 -0.5,0.1 -0.6,0 -1.1,-0.3 -1.4,-0.8 l -0.1,-0.1 c -0.1,-0.1 -0.1,-0.2 -0.2,-0.2 l 0,-0.1 -0.1,-0.1 c -0.5,-0.8 -0.8,-2.1 -1,-2.5 l 0,-0.1 c 0,0 0,-0.1 0,-0.2 l -0.1,-0.2 c -2.7,-6.5 -5.8,-12.2 -9.4,-16.9 0.4,-0.1 0.7,-0.3 1,-0.5 0.5,-0.3 1,-0.8 1.4,-1.3 1.9,2.6 3.7,5.4 5.4,8.5 l 1.9,-0.6 c -0.3,-2.8 -0.5,-5.8 -0.4,-8.9 l 0,-0.2 c -0.5,-2.2 -1.8,-3.8 -3.9,-4.7 -0.6,-0.3 -0.5,-0.5 -0.5,-0.7 0,-0.2 0.2,-0.5 0.4,-0.5 0.1,0 0.1,0 0.2,0 0.1,0 0.2,0 0.3,0.1 l 0.1,0.1 c 0.8,0.4 1.4,0.8 2,1.3 l 1.6,-0.7 c 0.6,-7.9 2.1,-13.9 2.4,-15 0,-0.8 0.2,-1 0.5,-1 l 0,0 m 0,-1 c -0.7,0 -1.3,0.5 -1.5,1.2 -0.1,0.5 -1.8,6.8 -2.4,15.2 -0.6,-0.5 -1.4,-1 -2.2,-1.4 -0.3,-0.2 -0.6,-0.3 -0.9,-0.3 -0.2,0 -0.3,0 -0.5,0.1 -0.6,0.2 -1.1,0.8 -1.1,1.4 0,0.5 0.1,1.2 1.1,1.6 1.9,0.9 3,2.2 3.4,4 0,2.9 0.1,5.9 0.5,9 -2,-3.6 -4.1,-6.9 -6.4,-9.9 -0.3,0.9 -0.8,1.8 -1.7,2.3 -0.6,0.4 -1.3,0.6 -2,0.6 -0.1,0 -0.2,0 -0.4,0 3.9,5 7.4,11.1 10.3,18.1 0,0.1 0,0.2 0.1,0.3 0.1,0.3 0.5,1.8 1.1,2.8 0,0 0,0.1 0,0.1 0.1,0.2 0.2,0.3 0.3,0.5 0.4,0.8 1.3,1.3 2.2,1.3 0.3,0 0.6,0 0.8,-0.1 0.6,-0.2 1.1,-0.7 1.4,-1.3 0.2,-0.4 0.3,-0.9 0.2,-1.4 3.1,-8.2 6.9,-15.1 11.3,-20.6 -0.1,0 -0.2,0 -0.4,0 -0.7,0 -1.4,-0.2 -2,-0.6 -0.9,-0.5 -1.5,-1.4 -1.7,-2.3 -3.4,4.3 -6.4,9.4 -9.1,15.1 -0.9,-4 -1.2,-8.2 -1.3,-12.1 0.1,-0.2 0.1,-0.4 0.1,-0.6 0,-0.4 0,-0.8 -0.1,-1.3 0,-1.7 0.1,-3.3 0.2,-4.9 0.1,-0.1 0.1,-0.1 0.2,-0.2 1.4,-2.7 5,-5.1 6.4,-6 0.7,-0.5 1.4,-0.9 1.3,-2 -0.1,-0.6 -0.5,-1.1 -1.1,-1.3 -0.2,-0.1 -0.3,-0.1 -0.5,-0.1 -0.4,0 -0.8,0.2 -1.1,0.5 -0.1,0.1 -0.2,0.1 -0.3,0.2 -0.9,0.6 -2.6,1.7 -4.2,3.2 0.7,-5.4 1.7,-9.1 1.7,-9.2 0.2,-0.8 -0.3,-1.7 -1.1,-2 -0.4,0.1 -0.5,0.1 -0.6,0.1 l 0,0 z m 13.4,23.5 0,0 0,0 z"
         id="path150"
         inkscape:connector-curvature="0"
         style="fill:#58595b" /></g><g
       id="g152"><path
         class="st0"
         d="m 322.3,198.2 c -1.3,0 -2.5,-0.5 -3.4,-1.4 -0.9,-0.9 -1.4,-2.2 -1.4,-3.5 0,0 0,-0.1 0,-0.2 l 0,-0.6 -0.5,-0.5 -61.6,-10.6 c -0.8,-0.1 -1.5,-0.6 -1.9,-1.2 -0.5,-0.7 -0.6,-1.5 -0.5,-2.2 0.2,-1.4 1.5,-2.5 3,-2.5 0.2,0 0.3,0 0.5,0 l 65.7,11.3 0.2,0 67.1,-11 c 0.2,0 0.3,0 0.5,0 1.5,0 2.7,1.1 3,2.5 0.3,1.6 -0.8,3.2 -2.5,3.5 l -63,10.2 -0.4,0.5 0,0.6 0,0.2 c 0.1,2.7 -2.1,4.9 -4.8,4.9 z"
         id="path154"
         inkscape:connector-curvature="0"
         style="fill:#829e3d" /><path
         class="st1"
         d="m 255.9,176 c 0.1,0 0.3,0 0.4,0 l 65.7,11.3 0.3,0 67.1,-11 c 0.1,0 0.3,0 0.4,0 1.2,0 2.3,0.9 2.5,2.1 0.2,1.4 -0.7,2.7 -2.1,2.9 l -62.8,10.3 -0.8,1 0,0.6 0,0.1 0,0.1 c 0,2.4 -2,4.3 -4.4,4.3 -1.2,0 -2.3,-0.5 -3.1,-1.3 -0.8,-0.8 -1.3,-1.9 -1.3,-3.1 0,-0.1 0,-0.2 0,-0.2 l 0,-0.6 -0.8,-1 -61.6,-10.6 c -0.7,-0.1 -1.2,-0.5 -1.6,-1 -0.4,-0.5 -0.5,-1.2 -0.4,-1.9 0.3,-1.2 1.3,-2 2.5,-2 m 0,-1 c -1.7,0 -3.2,1.2 -3.5,2.9 -0.2,0.9 0.1,1.9 0.6,2.6 0.5,0.8 1.3,1.3 2.3,1.4 l 61.6,10.6 0,0.6 c 0,0.1 0,0.1 0,0.2 0,3 2.4,5.4 5.4,5.4 3,0 5.4,-2.4 5.4,-5.4 l 0,-0.2 0,-0.6 62.8,-10.3 c 1.9,-0.3 3.2,-2.1 2.9,-4 -0.3,-1.7 -1.7,-2.9 -3.4,-2.9 -0.2,0 -0.4,0 -0.6,0 l -67.1,11 -65.8,-11.3 c -0.2,0 -0.4,0 -0.6,0 l 0,0 z"
         id="path156"
         inkscape:connector-curvature="0"
         style="fill:#58595b" /></g><g
       id="g158"><g
         id="g160"><path
           class="st0"
           d="m 298.5,167.2 c -1.8,-0.9 -3.7,-1.7 -5.7,-2.6 1.9,1.6 3.2,2.4 3.4,2.5 0.7,0.5 1.6,0.5 2.3,0.1 z"
           id="path162"
           inkscape:connector-curvature="0"
           style="fill:#829e3d" /><path
           class="st1"
           d="m 292.8,164.7 c 1.9,1.6 3.2,2.4 3.4,2.5 0.4,0.2 0.8,0.3 1.2,0.3 0.4,0 0.8,-0.1 1.1,-0.2 -1.8,-1 -3.7,-1.8 -5.7,-2.6 l 0,0 z"
           id="path164"
           inkscape:connector-curvature="0"
           style="fill:#58595b" /></g><g
         id="g166"><path
           class="st0"
           d="m 299.4,165.5 c -2.9,-1.4 -6,-2.7 -9.1,-3.9 -3.8,-3.8 -9,-10.4 -12.6,-20.4 0.2,0 0.5,0.1 0.7,0.1 0.5,0 1,-0.1 1.5,-0.3 0.6,-0.2 1.1,-0.5 1.5,-1 6.2,16.5 16.9,23.2 17.1,23.2 0.8,0.6 1.1,1.5 0.9,2.3 z"
           id="path168"
           inkscape:connector-curvature="0"
           style="fill:#829e3d" /><path
           class="st1"
           d="m 281.2,140.9 c 6.3,16.2 16.9,22.8 17,22.8 0.4,0.2 0.6,0.6 0.7,1 -2.7,-1.3 -5.5,-2.5 -8.4,-3.6 -3.6,-3.7 -8.6,-10 -12.2,-19.4 0.6,0 1.2,-0.1 1.7,-0.3 0.5,-0.1 0.9,-0.3 1.2,-0.5 m 0.4,-1.8 c -0.4,0.7 -1.1,1.2 -1.9,1.5 -0.4,0.2 -0.9,0.2 -1.3,0.2 -0.5,0 -1.1,-0.1 -1.6,-0.3 3.7,10.5 9,17.4 13.2,21.5 3.5,1.3 6.7,2.7 9.6,4.2 0.6,-1.2 0.3,-2.6 -0.9,-3.3 -0.1,-0.1 -11.1,-6.9 -17.1,-23.8 l 0,0 z"
           id="path170"
           inkscape:connector-curvature="0"
           style="fill:#58595b" /></g></g><g
       id="g172"><g
         id="g174"><path
           class="st0"
           d="m 365.9,157.3 c 8.3,-4.9 14.3,-13.1 18.1,-24.4 l -0.4,-0.7 c -2.8,-0.3 -5.5,-0.5 -8.1,-0.5 -1.7,0 -3.3,0.1 -4.8,0.3 0.7,-1.9 1.6,-3.8 2.9,-5.7 0.6,0 1.2,0 1.8,0 3.2,0 6.3,0.3 9.6,0.6 l 0.7,0.1 c 0.7,0.1 1.5,0.1 2.3,0.2 0.8,0.1 1.5,0.5 2,1.1 0.5,0.7 0.6,1.5 0.4,2.2 -2.7,10 -7.1,18.1 -12.9,24.3 -4,0.7 -7.9,1.5 -11.6,2.5 z"
           id="path176"
           inkscape:connector-curvature="0"
           style="fill:#829e3d" /><path
           class="st1"
           d="m 375.3,126.8 c 3.1,0 6.3,0.3 9.6,0.6 l 0.7,0.1 c 0.7,0.1 1.5,0.1 2.3,0.2 0.6,0.1 1.2,0.4 1.6,0.9 0.4,0.5 0.5,1.2 0.3,1.8 -2.7,9.8 -6.9,17.9 -12.7,23.9 -2.8,0.4 -5.6,1 -8.4,1.6 7.1,-5.1 12.4,-12.8 15.8,-23.1 l -0.9,-1.3 c -2.8,-0.3 -5.5,-0.5 -8.2,-0.5 -1.4,0 -2.8,0.1 -4,0.2 0.6,-1.5 1.4,-3.1 2.4,-4.6 0.5,0.2 1,0.2 1.5,0.2 m 0,-1 c -0.7,0 -1.4,0 -2,0 -1.8,2.6 -2.8,4.9 -3.4,6.8 1.9,-0.3 3.7,-0.4 5.5,-0.4 2.6,0 5.2,0.2 8.1,0.5 -4.5,13.6 -12.4,22.6 -23.3,26.7 5.3,-1.7 11.1,-3.1 17.3,-4.1 5.9,-6.2 10.4,-14.4 13.2,-24.6 0.2,-0.9 0.1,-1.9 -0.5,-2.6 -0.5,-0.8 -1.4,-1.3 -2.3,-1.4 -1,-0.1 -2,-0.2 -2.9,-0.3 -3.4,-0.2 -6.5,-0.6 -9.7,-0.6 l 0,0 z"
           id="path178"
           inkscape:connector-curvature="0"
           style="fill:#58595b" /></g></g><g
       id="g180"><g
         id="g182"><path
           class="st0"
           d="m 344.2,165.4 c -0.3,-0.9 0,-1.9 0.8,-2.4 0.1,-0.1 10.8,-6.6 17.1,-23.2 0.4,0.4 0.9,0.8 1.5,1 0.5,0.2 1,0.3 1.5,0.3 0.2,0 0.5,0 0.7,-0.1 -3.7,10 -8.9,16.6 -12.7,20.5 -2.9,1 -6,2.4 -8.9,3.9 z"
           id="path184"
           inkscape:connector-curvature="0"
           style="fill:#829e3d" /><path
           class="st1"
           d="m 362.3,140.5 c 0.3,0.2 0.7,0.5 1.1,0.6 0.6,0.2 1.1,0.3 1.7,0.3 -3.6,9.5 -8.6,15.8 -12.3,19.5 -2.8,1.1 -5.6,2.4 -8.3,3.7 0,-0.5 0.3,-1 0.7,-1.2 0.2,-0.1 10.8,-6.5 17.1,-22.9 m -0.3,-1.8 c -6.1,17.1 -17,23.7 -17.2,23.8 -1.2,0.7 -1.6,2.2 -0.9,3.4 0,0 0.1,0.1 0.1,0.1 2.9,-1.5 6.1,-2.9 9.5,-4.3 4.2,-4.2 9.5,-11.1 13.2,-21.6 -0.5,0.2 -1,0.3 -1.6,0.3 -0.5,0 -0.9,-0.1 -1.4,-0.2 -0.7,-0.3 -1.3,-0.8 -1.7,-1.5 l 0,0 z"
           id="path186"
           inkscape:connector-curvature="0"
           style="fill:#58595b" /></g></g><g
       id="g188"><path
         class="st0"
         d="m 314.1,183 c -8.7,-6.7 -26.9,-18.3 -52.5,-21.1 -1.3,-0.1 -2.2,-1.3 -2,-2.5 0.1,-1.2 1.1,-2.1 2.3,-2.1 0.1,0 0.2,0 0.3,0 31.9,3.4 52.2,19.3 59.5,25.9 l 0.7,0 c 5.6,-5.3 26.7,-23 60.4,-26.7 0.1,0 0.2,0 0.3,0 1.2,0 2.2,0.9 2.3,2.1 0.1,0.6 -0.1,1.2 -0.5,1.7 -0.4,0.5 -0.9,0.8 -1.5,0.8 -26.6,2.9 -45.1,15 -53.8,22.1 l -7.1,1.2 -8.4,-1.4 z"
         id="path190"
         inkscape:connector-curvature="0"
         style="fill:#829e3d" /><path
         class="st1"
         d="m 383,157 c 0.9,0 1.7,0.7 1.8,1.6 0.1,0.5 -0.1,1 -0.4,1.3 -0.3,0.4 -0.7,0.6 -1.2,0.7 -26.6,2.9 -45.2,15 -54,22.1 l -5.5,0.9 -1.4,0.2 -7.9,-1.4 c -8.7,-6.8 -27,-18.3 -52.7,-21.1 -1,-0.1 -1.7,-1 -1.6,-2 0.1,-0.9 0.9,-1.6 1.8,-1.6 0.1,0 0.1,0 0.2,0 31.7,3.4 52,19.2 59.3,25.8 l 1.4,0 c 5.6,-5.3 26.6,-22.9 60.1,-26.5 -0.1,0 0,0 0.1,0 m 0,-1 c -0.1,0 -0.2,0 -0.3,0 -33.7,3.6 -54.6,21.1 -60.7,26.8 -7,-6.4 -27.6,-22.6 -59.8,-26 -0.1,0 -0.2,0 -0.3,0 -1.4,0 -2.6,1.1 -2.8,2.5 -0.2,1.5 1,2.9 2.5,3.1 25.3,2.7 43.3,14 52.3,21.1 l 8.4,1.4 1.6,-0.3 0,0 5.7,-0.9 c 8.5,-6.9 27,-19.2 53.6,-22.1 0.7,-0.1 1.4,-0.4 1.9,-1 0.5,-0.6 0.7,-1.3 0.6,-2.1 -0.1,-1.4 -1.3,-2.5 -2.7,-2.5 l 0,0 z"
         id="path192"
         inkscape:connector-curvature="0"
         style="fill:#58595b" /></g><g
       id="g194"><g
         id="g196"><g
           id="g198"><path
             class="st1"
             d="m 282.5,117.1 c -1.2,0 -2.2,-1 -2.2,-2.1 0,-1.2 1,-2.2 2.1,-2.2 1.2,0 2.2,1 2.2,2.1 0.1,1.2 -0.9,2.2 -2.1,2.2 z m 0,-2.9 c -0.4,0 -0.7,0.3 -0.7,0.8 0,0.4 0.3,0.8 0.8,0.7 0.4,0 0.7,-0.3 0.7,-0.8 0,-0.4 -0.4,-0.7 -0.8,-0.7 z"
             id="path200"
             inkscape:connector-curvature="0"
             style="fill:#58595b" /></g><g
           id="g202"><circle
             class="st3"
             cx="282.5"
             cy="114.9"
             r="1.5"
             id="circle204"
             style="fill:#ffffff" /></g></g><g
         id="g206"><g
           id="g208"><path
             class="st1"
             d="m 361,117.1 c -1.2,0 -2.2,-1 -2.2,-2.1 0,-1.2 1,-2.2 2.1,-2.2 1.2,0 2.2,1 2.2,2.1 0.1,1.2 -0.9,2.2 -2.1,2.2 z m 0,-2.9 c -0.4,0 -0.7,0.3 -0.7,0.8 0,0.4 0.3,0.8 0.8,0.7 0.4,0 0.7,-0.3 0.7,-0.8 0,-0.4 -0.4,-0.7 -0.8,-0.7 z"
             id="path210"
             inkscape:connector-curvature="0"
             style="fill:#58595b" /></g><g
           id="g212"><circle
             class="st3"
             cx="361"
             cy="114.9"
             r="1.5"
             id="circle214"
             style="fill:#ffffff" /></g></g></g><g
       id="g216"><g
         id="g218"><path
           class="st0"
           d="m 277.9,157.3 c -3.8,-1 -7.6,-1.8 -11.4,-2.4 -5.9,-6.2 -10.2,-14.3 -12.9,-24.3 -0.2,-0.8 -0.1,-1.6 0.4,-2.2 0.5,-0.7 1.2,-1.1 2,-1.1 0.8,-0.1 1.5,-0.1 2.3,-0.2 L 259,127 c 3.3,-0.3 6.5,-0.6 9.6,-0.6 0.6,0 1.2,0 1.8,0 1.3,1.8 2.3,3.7 2.9,5.7 -1.5,-0.2 -3.1,-0.3 -4.8,-0.3 -2.6,0 -5.3,0.2 -8.1,0.5 L 260,133 c 3.6,11.2 9.6,19.4 17.9,24.3 z"
           id="path220"
           inkscape:connector-curvature="0"
           style="fill:#829e3d" /><path
           class="st1"
           d="m 268.4,126.8 0,0 c 0.5,0 1,0 1.5,0 1,1.5 1.8,3 2.4,4.6 -1.3,-0.1 -2.6,-0.2 -4,-0.2 -2.6,0 -5.4,0.2 -8.2,0.5 l -0.9,1.3 c 3.4,10.3 8.7,18 15.8,23.1 -2.8,-0.7 -5.6,-1.2 -8.4,-1.6 -5.8,-6.1 -10,-14.1 -12.7,-23.9 -0.2,-0.6 -0.1,-1.3 0.3,-1.8 0.4,-0.5 1,-0.9 1.6,-0.9 0.8,-0.1 1.5,-0.1 2.3,-0.2 l 0.7,-0.1 c 3.4,-0.4 6.5,-0.8 9.6,-0.8 m 0,-1 c -3.2,0 -6.3,0.3 -9.7,0.7 -0.9,0.1 -1.9,0.2 -2.9,0.3 -0.9,0.1 -1.8,0.6 -2.3,1.4 -0.5,0.8 -0.7,1.7 -0.5,2.6 2.8,10.2 7.2,18.4 13.2,24.6 6.3,1 12,2.4 17.3,4.1 -10.9,-4.1 -18.8,-13.2 -23.3,-26.7 2.9,-0.3 5.5,-0.5 8.1,-0.5 1.8,0 3.6,0.1 5.5,0.4 -0.6,-1.9 -1.6,-4.2 -3.4,-6.8 -0.6,0 -1.3,-0.1 -2,-0.1 l 0,0 z"
           id="path222"
           inkscape:connector-curvature="0"
           style="fill:#58595b" /></g></g></g></svg>