<?xml version="1.0" encoding="utf-8"?>
<!-- Generator: Adobe Illustrator 16.0.3, SVG Export Plug-In . SVG Version: 6.00 Build 0)  -->
<!DOCTYPE svg PUBLIC "-//W3C//DTD SVG 1.1//EN" "http://www.w3.org/Graphics/SVG/1.1/DTD/svg11.dtd">
<svg version="1.1" id="Capa_1" xmlns="http://www.w3.org/2000/svg" xmlns:xlink="http://www.w3.org/1999/xlink" x="0px" y="0px"
	 width="291.333px" height="80px" viewBox="0 0 291.333 80" enable-background="new 0 0 291.333 80" xml:space="preserve">
<g>
	<g>
		<g>
			<path fill="#0E4C5B" d="M132.73,55.909c0.021-0.613,0.037-1.244,0.048-1.896c0.011-0.65,0.017-1.347,0.017-2.089
				c0-0.945-0.023-2.008-0.068-3.186s-0.104-2.353-0.174-3.524c0.736,0.021,1.444,0.038,2.125,0.048
				c0.681,0.012,1.332,0.016,1.956,0.016c1.247,0,2.221-0.031,2.919-0.096c0.044,0.172,0.073,0.359,0.09,0.564
				c0.016,0.204,0.023,0.425,0.023,0.661c0,0.118-0.008,0.233-0.023,0.347c-0.017,0.113-0.024,0.305-0.024,0.572
				c-0.871-0.096-1.632-0.16-2.282-0.193c-0.651-0.032-1.25-0.049-1.799-0.049c-0.172,0-0.334,0.004-0.484,0.009
				s-0.312-0.003-0.484-0.024c-0.01,0.313-0.021,0.587-0.031,0.822c-0.011,0.237-0.016,0.453-0.016,0.646v0.548v0.259
				c0,0.107,0.005,0.188,0.016,0.241l0.402-0.032c0.549,0,1.213-0.006,1.992-0.016c0.78-0.012,1.605-0.027,2.477-0.049v0.242
				c-0.011,0.107-0.021,0.226-0.032,0.354s-0.017,0.237-0.017,0.322c0,0.28,0.033,0.646,0.098,1.097
				c-0.452-0.031-0.969-0.062-1.549-0.088c-0.581-0.027-1.119-0.041-1.613-0.041c-0.279,0-0.564,0.004-0.854,0.009
				s-0.597,0.003-0.919-0.009c0.01,0.215,0.013,0.409,0.008,0.582c-0.006,0.171-0.008,0.344-0.008,0.516
				c0,0.301,0.005,0.583,0.016,0.847c0.01,0.264,0.021,0.53,0.031,0.798c0.344-0.01,0.656-0.021,0.936-0.031
				c0.28-0.012,0.527-0.021,0.742-0.033c0.216-0.01,0.434-0.021,0.654-0.031c0.22-0.012,0.438-0.027,0.652-0.049
				c0.452-0.032,0.869-0.059,1.251-0.08c0.381-0.021,0.653-0.033,0.814-0.033c0.097,0.441,0.146,0.834,0.146,1.178
				c0,0.119-0.009,0.236-0.024,0.355c-0.017,0.117-0.024,0.301-0.024,0.548c-0.248-0.021-0.53-0.038-0.847-0.049
				c-0.317-0.011-0.734-0.015-1.25-0.015h-1.146c-0.871,0.021-1.512,0.021-1.92,0c-0.205,0-0.457,0.002-0.758,0.008
				C133.494,55.891,133.139,55.898,132.73,55.909z"/>
			<path fill="#0E4C5B" d="M150.764,55.86c-0.699,0.064-1.204,0.098-1.516,0.098c-0.313,0-0.693-0.033-1.146-0.098
				c-0.451-0.752-0.868-1.405-1.25-1.959c-0.382-0.555-0.724-1.057-1.024-1.508c-0.517,0.709-0.957,1.352-1.322,1.927
				s-0.688,1.138-0.969,1.686c-0.312-0.043-0.693-0.069-1.145-0.081c-0.451-0.01-0.951-0.016-1.5-0.016l2.339-2.71
				c0.333-0.376,0.643-0.728,0.927-1.057c0.285-0.328,0.551-0.632,0.799-0.911c-0.463-0.581-0.997-1.219-1.605-1.912
				c-0.607-0.693-1.319-1.496-2.137-2.411c0.162-0.043,0.355-0.077,0.581-0.104s0.489-0.046,0.79-0.057
				c0.301-0.021,0.592-0.035,0.871-0.041c0.279-0.005,0.549-0.002,0.807,0.009c0.279,0.581,0.575,1.112,0.887,1.597
				c0.313,0.484,0.651,0.99,1.018,1.517c0.408-0.624,0.778-1.199,1.112-1.726c0.333-0.527,0.624-1.006,0.871-1.436
				c0.322,0.053,0.612,0.086,0.87,0.096c0.055,0.011,0.141,0.017,0.259,0.017h0.339h0.984c-0.85,1.011-1.565,1.86-2.146,2.548
				c-0.58,0.689-1.048,1.259-1.402,1.711c0.344,0.451,0.672,0.879,0.983,1.281c0.312,0.404,0.612,0.789,0.903,1.154
				c0.29,0.365,0.589,0.742,0.895,1.129C150.144,54.989,150.452,55.409,150.764,55.86z"/>
			<path fill="#0E4C5B" d="M152.071,58.038c0.106-1.139,0.18-2.252,0.218-3.339c0.037-1.086,0.057-2.118,0.057-3.097
				c0-0.774-0.014-1.578-0.041-2.412c-0.027-0.833-0.063-1.604-0.104-2.314c0.247,0,0.542-0.008,0.887-0.024s0.721-0.051,1.13-0.104
				c-0.012,0.14-0.021,0.296-0.033,0.468c-0.01,0.172-0.027,0.36-0.048,0.564c0.172-0.226,0.354-0.411,0.548-0.557
				c0.194-0.146,0.398-0.258,0.613-0.339c0.215-0.08,0.449-0.135,0.702-0.161s0.529-0.04,0.831-0.04c0.58,0,1.112,0.121,1.597,0.363
				c0.483,0.241,0.896,0.58,1.233,1.016c0.339,0.436,0.603,0.957,0.79,1.564c0.189,0.607,0.283,1.271,0.283,1.992
				c0,0.646-0.1,1.236-0.299,1.775c-0.199,0.537-0.476,0.997-0.831,1.379c-0.354,0.381-0.781,0.68-1.281,0.895
				s-1.052,0.323-1.654,0.323c-1.011,0-1.881-0.398-2.613-1.194c0.011,0.398,0.021,0.753,0.033,1.064
				c0.01,0.313,0.025,0.576,0.048,0.791c0.021,0.226,0.046,0.451,0.072,0.678c0.026,0.225,0.062,0.451,0.104,0.678
				c-0.516-0.012-0.943-0.014-1.281-0.009C152.691,58.003,152.372,58.017,152.071,58.038z M154.184,51.393
				c0,0.495,0.076,0.919,0.227,1.274s0.347,0.648,0.588,0.879c0.242,0.231,0.512,0.404,0.808,0.516
				c0.295,0.113,0.589,0.17,0.878,0.17c1.367,0,2.049-1.037,2.049-3.113c0-1.764-0.752-2.645-2.258-2.645
				c-0.817,0-1.403,0.228-1.758,0.686C154.361,49.616,154.184,50.36,154.184,51.393z"/>
			<path fill="#0E4C5B" d="M164.282,55.909c-0.303,0-0.535,0.002-0.697,0.008c-0.163,0.006-0.326,0.008-0.489,0.008
				s-0.353-0.008-0.569-0.023s-0.422-0.023-0.615-0.023c0.117-0.785,0.201-1.635,0.25-2.55c0.048-0.914,0.072-1.908,0.072-2.983
				c0-0.818-0.021-1.684-0.064-2.598s-0.092-1.791-0.146-2.629h0.503c0.119,0,0.348-0.008,0.684-0.025
				c0.336-0.016,0.678-0.033,1.023-0.056c-0.097,0.871-0.161,1.731-0.193,2.581s-0.049,1.747-0.049,2.693
				C163.991,52.42,164.089,54.286,164.282,55.909z"/>
			<path fill="#0E4C5B" d="M174.315,51.231c0,1.559-0.355,2.748-1.064,3.564c-0.71,0.818-1.78,1.227-3.211,1.227
				c-3,0-4.5-1.42-4.5-4.259c0-1.785,0.352-3.079,1.057-3.88c0.703-0.801,1.804-1.201,3.299-1.201
				C172.842,46.683,174.315,48.198,174.315,51.231z M167.443,51.409c0,1.957,0.812,2.936,2.436,2.936
				c1.667,0,2.501-0.957,2.501-2.871c0-2.064-0.807-3.098-2.42-3.098c-0.495,0-0.903,0.052-1.227,0.153
				c-0.322,0.103-0.58,0.272-0.773,0.509s-0.328,0.548-0.404,0.936C167.481,50.36,167.443,50.839,167.443,51.409z"/>
			<path fill="#0E4C5B" d="M181.009,49.15c-0.301-0.462-0.752-0.694-1.355-0.694c-0.547,0-0.97,0.191-1.266,0.573
				c-0.295,0.382-0.454,0.997-0.475,1.847c0,0.119,0.004,0.305,0.016,0.557c0.01,0.254,0.021,0.539,0.031,0.855
				c0.011,0.316,0.024,0.645,0.041,0.983c0.016,0.339,0.029,0.659,0.04,0.96s0.021,0.56,0.032,0.774s0.016,0.354,0.016,0.419v0.371
				c-0.344,0.076-0.741,0.113-1.193,0.113c-0.408,0-0.773-0.017-1.097-0.049c0.107-0.526,0.188-1.137,0.242-1.83
				s0.081-1.492,0.081-2.396c0-1.042-0.035-1.943-0.105-2.701s-0.18-1.368-0.33-1.831c0.483-0.183,0.911-0.267,1.282-0.25
				c0.37,0.017,0.729,0.083,1.072,0.202c-0.043,0.086-0.077,0.183-0.104,0.29c-0.027,0.108-0.051,0.231-0.072,0.37
				c0.58-0.666,1.295-0.999,2.145-0.999c0.549,0,1.057,0.14,1.525,0.419c0.467,0.28,0.846,0.699,1.137,1.258
				C181.972,48.64,181.418,48.893,181.009,49.15z"/>
			<path fill="#0E4C5B" d="M185.268,49.989c-0.344-0.14-0.663-0.277-0.96-0.412c-0.295-0.134-0.562-0.26-0.798-0.379
				c0.688-1.612,2.064-2.419,4.129-2.419c0.754,0,1.385,0.083,1.896,0.25s0.923,0.446,1.234,0.839s0.534,0.914,0.669,1.564
				s0.202,1.455,0.202,2.412v1.08c0,0.527,0.026,1.038,0.081,1.533c0.053,0.494,0.123,0.967,0.209,1.42h-0.549
				c-0.182,0-0.4,0.004-0.652,0.015c-0.253,0.011-0.52,0.027-0.799,0.049c-0.075-0.106-0.129-0.224-0.162-0.347
				c-0.031-0.123-0.048-0.314-0.048-0.572c-0.333,0.387-0.723,0.647-1.169,0.781c-0.447,0.135-0.966,0.202-1.557,0.202
				c-1.279,0-2.227-0.226-2.839-0.678c-0.613-0.451-0.92-1.193-0.92-2.226c0-0.914,0.334-1.624,1-2.13
				c0.667-0.505,1.673-0.758,3.017-0.758c0.451,0,0.885,0.046,1.299,0.138s0.787,0.271,1.121,0.54
				c-0.043-0.548-0.103-0.968-0.178-1.258s-0.193-0.517-0.354-0.679c-0.161-0.171-0.374-0.289-0.638-0.354s-0.588-0.098-0.976-0.098
				c-0.226,0-0.438,0.014-0.638,0.041c-0.199,0.026-0.389,0.083-0.572,0.169c-0.172,0.087-0.339,0.21-0.5,0.371
				S185.472,49.548,185.268,49.989z M187.396,51.925c-0.312,0-0.599,0.016-0.862,0.049c-0.263,0.031-0.495,0.094-0.694,0.186
				c-0.198,0.092-0.357,0.217-0.476,0.379c-0.118,0.161-0.188,0.365-0.209,0.613c0.085,0.451,0.304,0.755,0.653,0.91
				c0.349,0.156,0.799,0.234,1.347,0.234c0.301,0,0.604-0.023,0.911-0.072s0.578-0.121,0.814-0.218s0.431-0.223,0.581-0.379
				c0.15-0.155,0.226-0.342,0.226-0.557c0-0.226-0.083-0.411-0.25-0.557c-0.166-0.146-0.371-0.263-0.613-0.354
				c-0.241-0.092-0.492-0.154-0.75-0.186C187.816,51.94,187.59,51.925,187.396,51.925z"/>
			<path fill="#0E4C5B" d="M201.721,55.86c-0.365,0-0.635,0.006-0.807,0.018c-0.172,0.01-0.359,0.015-0.564,0.015h-0.742
				c0.022-0.161,0.043-0.306,0.064-0.435c0.022-0.13,0.049-0.291,0.081-0.484c-0.376,0.43-0.769,0.719-1.177,0.863
				c-0.409,0.145-0.898,0.218-1.469,0.218c-0.613,0-1.166-0.116-1.661-0.347c-0.495-0.231-0.917-0.557-1.267-0.977
				c-0.35-0.419-0.618-0.919-0.807-1.5c-0.188-0.58-0.281-1.221-0.281-1.92c0-0.688,0.1-1.316,0.298-1.887s0.479-1.055,0.839-1.451
				c0.359-0.398,0.791-0.707,1.291-0.928s1.051-0.331,1.652-0.331c0.592,0,1.084,0.086,1.477,0.258s0.771,0.479,1.137,0.919
				l-0.016-0.289c0-0.409-0.02-0.817-0.057-1.227c-0.037-0.408-0.094-0.839-0.169-1.291c0.419,0.022,0.812,0.03,1.177,0.025
				c0.365-0.006,0.705-0.025,1.017-0.057c-0.081,1.172-0.144,2.316-0.189,3.436c-0.046,1.118-0.068,2.15-0.068,3.098
				c0,0.784,0.015,1.505,0.043,2.16C201.551,54.403,201.617,55.108,201.721,55.86z M197.357,48.569c-0.475,0-0.86,0.078-1.157,0.234
				c-0.296,0.156-0.528,0.365-0.696,0.629c-0.167,0.264-0.283,0.575-0.348,0.936s-0.098,0.75-0.098,1.17
				c0,1.817,0.82,2.727,2.461,2.727c1.468,0,2.201-0.909,2.201-2.727v-0.064C199.699,49.538,198.912,48.569,197.357,48.569z"/>
			<path fill="#0E4C5B" d="M211.705,51.231c0,1.559-0.354,2.748-1.064,3.564c-0.709,0.818-1.779,1.227-3.209,1.227
				c-3,0-4.501-1.42-4.501-4.259c0-1.785,0.353-3.079,1.057-3.88s1.804-1.201,3.3-1.201
				C210.232,46.683,211.705,48.198,211.705,51.231z M204.834,51.409c0,1.957,0.813,2.936,2.436,2.936
				c1.667,0,2.501-0.957,2.501-2.871c0-2.064-0.808-3.098-2.42-3.098c-0.495,0-0.903,0.052-1.226,0.153
				c-0.322,0.103-0.582,0.272-0.774,0.509c-0.194,0.236-0.328,0.548-0.403,0.936C204.871,50.36,204.834,50.839,204.834,51.409z"/>
			<path fill="#0E4C5B" d="M218.4,49.15c-0.301-0.462-0.752-0.694-1.354-0.694c-0.549,0-0.971,0.191-1.267,0.573
				c-0.297,0.382-0.455,0.997-0.477,1.847c0,0.119,0.006,0.305,0.017,0.557c0.011,0.254,0.022,0.539,0.032,0.855
				c0.012,0.316,0.024,0.645,0.04,0.983c0.017,0.339,0.03,0.659,0.041,0.96s0.021,0.56,0.032,0.774s0.016,0.354,0.016,0.419v0.371
				c-0.344,0.076-0.742,0.113-1.193,0.113c-0.408,0-0.774-0.017-1.097-0.049c0.106-0.526,0.188-1.137,0.242-1.83
				c0.054-0.693,0.08-1.492,0.08-2.396c0-1.042-0.034-1.943-0.104-2.701s-0.181-1.368-0.33-1.831c0.482-0.183,0.91-0.267,1.281-0.25
				s0.729,0.083,1.073,0.202c-0.044,0.086-0.078,0.183-0.104,0.29c-0.027,0.108-0.052,0.231-0.073,0.37
				c0.581-0.666,1.296-0.999,2.146-0.999c0.549,0,1.057,0.14,1.524,0.419c0.468,0.28,0.847,0.699,1.138,1.258
				C219.363,48.64,218.809,48.893,218.4,49.15z"/>
			<path fill="#0E4C5B" d="M233.305,55.86c-0.365,0-0.635,0.006-0.807,0.018c-0.172,0.01-0.36,0.015-0.564,0.015h-0.742
				c0.021-0.161,0.043-0.306,0.064-0.435c0.021-0.13,0.049-0.291,0.08-0.484c-0.375,0.43-0.769,0.719-1.176,0.863
				c-0.41,0.145-0.899,0.218-1.469,0.218c-0.613,0-1.167-0.116-1.661-0.347c-0.496-0.231-0.918-0.557-1.267-0.977
				c-0.35-0.419-0.619-0.919-0.807-1.5c-0.188-0.58-0.283-1.221-0.283-1.92c0-0.688,0.1-1.316,0.299-1.887s0.479-1.055,0.84-1.451
				c0.36-0.398,0.79-0.707,1.29-0.928s1.051-0.331,1.653-0.331c0.592,0,1.082,0.086,1.477,0.258
				c0.391,0.172,0.771,0.479,1.137,0.919l-0.017-0.289c0-0.409-0.019-0.817-0.056-1.227c-0.038-0.408-0.096-0.839-0.17-1.291
				c0.42,0.022,0.813,0.03,1.177,0.025c0.366-0.006,0.706-0.025,1.017-0.057c-0.08,1.172-0.143,2.316-0.188,3.436
				c-0.046,1.118-0.069,2.15-0.069,3.098c0,0.784,0.015,1.505,0.044,2.16C233.135,54.403,233.201,55.108,233.305,55.86z
				 M228.941,48.569c-0.475,0-0.861,0.078-1.157,0.234c-0.297,0.156-0.529,0.365-0.696,0.629s-0.284,0.575-0.349,0.936
				s-0.097,0.75-0.097,1.17c0,1.817,0.819,2.727,2.461,2.727c1.467,0,2.201-0.909,2.201-2.727v-0.064
				C231.283,49.538,230.495,48.569,228.941,48.569z"/>
			<path fill="#0E4C5B" d="M243.064,54.135c-0.764,1.259-2.098,1.888-4,1.888c-1.496,0-2.579-0.383-3.252-1.146
				c-0.671-0.764-1.008-1.914-1.008-3.452c0-1.43,0.264-2.506,0.791-3.227h-0.016c0.838-0.967,2.064-1.451,3.677-1.451
				c1.302,0,2.3,0.342,2.993,1.024s1.039,1.626,1.039,2.831c0,0.14-0.004,0.307-0.015,0.5c-0.012,0.193-0.043,0.398-0.098,0.612
				c-0.591-0.021-1.204-0.037-1.839-0.048c-0.634-0.011-1.227-0.016-1.774-0.016c-0.494,0-0.974,0.005-1.436,0.016
				s-0.925,0.021-1.388,0.032c0.012,0.925,0.211,1.581,0.598,1.968s0.994,0.58,1.822,0.58c0.549,0,0.995-0.104,1.339-0.314
				c0.345-0.209,0.575-0.491,0.694-0.846c0.301,0.086,0.591,0.198,0.871,0.338C242.344,53.565,242.678,53.802,243.064,54.135z
				 M239.145,48.44c-1.409,0-2.162,0.549-2.258,1.646h0.371h0.192c0.087,0,0.156,0.005,0.21,0.017h1.162h0.984h0.66
				c0.119,0,0.242,0,0.371,0c0.14,0,0.28-0.006,0.42-0.017C241.107,48.989,240.403,48.44,239.145,48.44z"/>
			<path fill="#0E4C5B" d="M140.748,67.718c-0.765,1.26-2.098,1.889-4.001,1.889c-1.495,0-2.579-0.382-3.251-1.146
				c-0.672-0.763-1.008-1.913-1.008-3.451c0-1.43,0.264-2.506,0.791-3.227h-0.017c0.839-0.967,2.064-1.451,3.678-1.451
				c1.302,0,2.299,0.342,2.992,1.023c0.693,0.684,1.04,1.627,1.04,2.832c0,0.14-0.005,0.307-0.016,0.5
				c-0.012,0.193-0.043,0.397-0.098,0.612c-0.591-0.021-1.203-0.037-1.838-0.048c-0.635-0.012-1.227-0.016-1.774-0.016
				c-0.495,0-0.974,0.004-1.436,0.016c-0.463,0.011-0.925,0.021-1.388,0.031c0.011,0.926,0.209,1.582,0.598,1.969
				c0.387,0.387,0.994,0.58,1.822,0.58c0.549,0,0.994-0.104,1.339-0.314c0.345-0.209,0.575-0.492,0.693-0.846
				c0.301,0.086,0.591,0.198,0.871,0.338S140.359,67.386,140.748,67.718z M136.827,62.024c-1.409,0-2.161,0.549-2.259,1.646h0.371
				h0.193c0.087,0,0.156,0.005,0.211,0.017h1.161h0.984h0.661c0.117,0,0.242,0,0.371,0c0.14,0,0.279-0.006,0.42-0.017
				C138.789,62.573,138.086,62.024,136.827,62.024z"/>
			<path fill="#0E4C5B" d="M144.038,66.751c0.43,0.817,1.241,1.227,2.435,1.227c1.323,0,1.984-0.404,1.984-1.211
				c0-0.397-0.168-0.683-0.508-0.854c-0.338-0.173-0.933-0.259-1.781-0.259c-0.549,0-1.061-0.059-1.533-0.177
				c-0.474-0.118-0.882-0.284-1.227-0.5c-0.344-0.216-0.613-0.476-0.807-0.782s-0.289-0.648-0.289-1.024
				c0-0.431,0.104-0.827,0.314-1.194c0.209-0.365,0.5-0.683,0.871-0.951c0.371-0.27,0.807-0.479,1.307-0.629
				c0.499-0.15,1.039-0.227,1.62-0.227c2.021,0,3.307,0.673,3.855,2.017c-0.258,0.151-0.544,0.269-0.854,0.354
				c-0.313,0.087-0.656,0.168-1.032,0.242c-0.366-0.655-1.087-0.983-2.161-0.983c-0.248,0-0.484,0.03-0.711,0.089
				c-0.225,0.059-0.428,0.143-0.605,0.25c-0.177,0.107-0.319,0.233-0.427,0.379c-0.107,0.145-0.161,0.299-0.161,0.459v0.033
				c0.021,0.322,0.25,0.575,0.686,0.758c0.436,0.184,0.977,0.274,1.621,0.274c1.388,0,2.393,0.21,3.017,0.629
				s0.936,1.092,0.936,2.017c0,0.946-0.357,1.669-1.073,2.169c-0.715,0.501-1.761,0.751-3.137,0.751
				c-0.957,0-1.807-0.173-2.549-0.517s-1.285-0.882-1.629-1.613c0.354-0.183,0.672-0.325,0.951-0.427
				C143.43,66.947,143.727,66.848,144.038,66.751z"/>
			<path fill="#0E4C5B" d="M151.975,71.622c0.106-1.14,0.18-2.253,0.217-3.339c0.038-1.086,0.057-2.118,0.057-3.097
				c0-0.774-0.014-1.578-0.04-2.412c-0.027-0.833-0.063-1.605-0.104-2.314c0.246,0,0.543-0.008,0.887-0.024s0.721-0.052,1.129-0.104
				c-0.011,0.14-0.021,0.295-0.032,0.468c-0.011,0.172-0.026,0.36-0.048,0.564c0.172-0.226,0.354-0.411,0.548-0.558
				c0.193-0.145,0.397-0.257,0.613-0.338c0.216-0.08,0.448-0.135,0.702-0.161c0.252-0.026,0.529-0.04,0.83-0.04
				c0.581,0,1.113,0.121,1.598,0.363c0.482,0.241,0.895,0.58,1.234,1.016c0.338,0.436,0.601,0.957,0.789,1.564
				s0.282,1.271,0.282,1.992c0,0.646-0.1,1.236-0.298,1.774c-0.199,0.538-0.476,0.998-0.831,1.379
				c-0.354,0.382-0.782,0.681-1.282,0.896s-1.051,0.322-1.652,0.322c-1.012,0-1.883-0.397-2.614-1.193
				c0.011,0.398,0.021,0.753,0.032,1.065c0.011,0.312,0.027,0.575,0.049,0.79c0.021,0.226,0.045,0.451,0.072,0.678
				c0.026,0.226,0.062,0.451,0.104,0.678c-0.517-0.012-0.943-0.015-1.282-0.01C152.595,71.587,152.275,71.601,151.975,71.622z
				 M154.087,64.977c0,0.495,0.075,0.919,0.226,1.274c0.15,0.354,0.348,0.648,0.59,0.879c0.241,0.231,0.51,0.403,0.807,0.517
				c0.295,0.112,0.588,0.169,0.878,0.169c1.366,0,2.049-1.038,2.049-3.113c0-1.764-0.753-2.646-2.259-2.646
				c-0.816,0-1.402,0.229-1.758,0.686C154.265,63.2,154.087,63.944,154.087,64.977z"/>
			<path fill="#0E4C5B" d="M170.104,67.718c-0.764,1.26-2.097,1.889-4,1.889c-1.494,0-2.578-0.382-3.25-1.146
				c-0.673-0.763-1.008-1.913-1.008-3.451c0-1.43,0.263-2.506,0.79-3.227h-0.017c0.839-0.967,2.064-1.451,3.678-1.451
				c1.301,0,2.299,0.342,2.992,1.023c0.693,0.684,1.041,1.627,1.041,2.832c0,0.14-0.006,0.307-0.016,0.5
				c-0.012,0.193-0.043,0.397-0.098,0.612c-0.592-0.021-1.204-0.037-1.839-0.048c-0.635-0.012-1.226-0.016-1.774-0.016
				c-0.494,0-0.973,0.004-1.436,0.016c-0.463,0.011-0.926,0.021-1.387,0.031c0.01,0.926,0.209,1.582,0.596,1.969
				c0.388,0.387,0.994,0.58,1.823,0.58c0.548,0,0.995-0.104,1.339-0.314c0.345-0.209,0.575-0.492,0.693-0.846
				c0.301,0.086,0.592,0.198,0.871,0.338S169.718,67.386,170.104,67.718z M166.185,62.024c-1.408,0-2.161,0.549-2.258,1.646h0.371
				h0.193c0.086,0,0.156,0.005,0.21,0.017h1.161h0.984h0.662c0.117,0,0.241,0,0.37,0c0.14,0,0.279-0.006,0.419-0.017
				C168.147,62.573,167.443,62.024,166.185,62.024z"/>
			<path fill="#0E4C5B" d="M179.768,67.767c-0.667,1.248-1.829,1.872-3.484,1.872c-0.796,0-1.485-0.089-2.066-0.267
				s-1.062-0.451-1.442-0.822c-0.379-0.371-0.658-0.85-0.837-1.436s-0.269-1.283-0.269-2.09c0-1.655,0.355-2.849,1.064-3.581
				c0.711-0.731,1.797-1.097,3.259-1.097c1.85,0,3.119,0.684,3.808,2.049c-0.236,0.193-0.498,0.352-0.783,0.476
				s-0.604,0.233-0.959,0.331c-0.451-0.774-1.193-1.162-2.227-1.162c-0.785,0-1.347,0.245-1.686,0.734
				c-0.338,0.49-0.508,1.293-0.508,2.412c0,0.483,0.043,0.893,0.129,1.226s0.23,0.604,0.436,0.814s0.468,0.36,0.79,0.452
				c0.323,0.092,0.727,0.137,1.21,0.137c0.914,0,1.586-0.377,2.016-1.129c0.345,0.15,0.641,0.287,0.889,0.411
				c0.247,0.124,0.457,0.255,0.629,0.396L179.768,67.767z"/>
			<path fill="#0E4C5B" d="M183.622,69.509c-0.408,0-0.691-0.008-0.848-0.023c-0.155-0.017-0.281-0.024-0.378-0.024
				c-0.151,0-0.331,0.011-0.54,0.032c-0.211,0.021-0.461,0.054-0.751,0.097c0.14-0.71,0.245-1.409,0.315-2.097
				c0.069-0.688,0.104-1.404,0.104-2.146c0-0.613-0.017-1.245-0.049-1.896s-0.097-1.379-0.193-2.186
				c0.483-0.011,0.903-0.006,1.259,0.016c0.354,0.021,0.677,0.017,0.967-0.016c-0.043,0.516-0.08,1.1-0.112,1.75
				s-0.048,1.282-0.048,1.895c0,0.775,0.013,1.522,0.039,2.242C183.415,67.874,183.493,68.659,183.622,69.509z M183.655,60.831
				c-0.162-0.011-0.311-0.014-0.444-0.008c-0.135,0.006-0.261,0.014-0.38,0.023c-0.031,0.012-0.09,0.017-0.177,0.017h-0.21h-0.483
				c-0.044-0.011-0.087-0.017-0.129-0.017c-0.044,0-0.087,0-0.13,0h-0.209c-0.15,0-0.236-0.005-0.258-0.016
				c-0.021-0.15-0.035-0.285-0.041-0.403s-0.014-0.231-0.023-0.339c-0.012-0.032-0.017-0.097-0.017-0.193v-0.274v-0.807
				c0.322-0.054,0.599-0.094,0.831-0.121c0.23-0.026,0.44-0.042,0.629-0.048c0.188-0.006,0.363,0.002,0.523,0.023
				c0.162,0.021,0.323,0.054,0.484,0.098c0.054,0.387,0.084,0.752,0.089,1.097C183.716,60.207,183.697,60.53,183.655,60.831z"/>
			<path fill="#0E4C5B" d="M193.413,67.718c-0.763,1.26-2.097,1.889-4,1.889c-1.495,0-2.579-0.382-3.251-1.146
				c-0.672-0.763-1.008-1.913-1.008-3.451c0-1.43,0.264-2.506,0.791-3.227h-0.017c0.839-0.967,2.064-1.451,3.678-1.451
				c1.301,0,2.299,0.342,2.992,1.023c0.694,0.684,1.041,1.627,1.041,2.832c0,0.14-0.007,0.307-0.017,0.5
				c-0.012,0.193-0.043,0.397-0.097,0.612c-0.592-0.021-1.204-0.037-1.839-0.048c-0.635-0.012-1.227-0.016-1.774-0.016
				c-0.495,0-0.974,0.004-1.436,0.016c-0.463,0.011-0.926,0.021-1.388,0.031c0.011,0.926,0.209,1.582,0.598,1.969
				c0.387,0.387,0.994,0.58,1.822,0.58c0.548,0,0.994-0.104,1.338-0.314c0.345-0.209,0.576-0.492,0.694-0.846
				c0.301,0.086,0.591,0.198,0.871,0.338S193.026,67.386,193.413,67.718z M189.493,62.024c-1.409,0-2.161,0.549-2.259,1.646h0.371
				h0.193c0.087,0,0.156,0.005,0.211,0.017h1.161h0.983h0.662c0.117,0,0.242,0,0.371,0c0.14,0,0.279-0.006,0.42-0.017
				C191.456,62.573,190.752,62.024,189.493,62.024z"/>
			<path fill="#0E4C5B" d="M196.704,66.751c0.43,0.817,1.241,1.227,2.436,1.227c1.322,0,1.983-0.404,1.983-1.211
				c0-0.397-0.169-0.683-0.508-0.854c-0.338-0.173-0.934-0.259-1.782-0.259c-0.548,0-1.06-0.059-1.532-0.177
				c-0.474-0.118-0.883-0.284-1.227-0.5s-0.612-0.476-0.807-0.782c-0.193-0.307-0.29-0.648-0.29-1.024
				c0-0.431,0.104-0.827,0.315-1.194c0.209-0.365,0.5-0.683,0.871-0.951c0.37-0.27,0.806-0.479,1.306-0.629s1.041-0.227,1.621-0.227
				c2.022,0,3.308,0.673,3.855,2.017c-0.258,0.151-0.543,0.269-0.854,0.354c-0.313,0.087-0.656,0.168-1.033,0.242
				c-0.365-0.655-1.086-0.983-2.161-0.983c-0.248,0-0.483,0.03-0.71,0.089c-0.226,0.059-0.428,0.143-0.604,0.25
				c-0.178,0.107-0.32,0.233-0.428,0.379c-0.108,0.145-0.161,0.299-0.161,0.459v0.033c0.021,0.322,0.25,0.575,0.686,0.758
				c0.436,0.184,0.977,0.274,1.621,0.274c1.387,0,2.393,0.21,3.017,0.629c0.623,0.419,0.936,1.092,0.936,2.017
				c0,0.946-0.358,1.669-1.073,2.169c-0.715,0.501-1.761,0.751-3.137,0.751c-0.957,0-1.807-0.173-2.549-0.517
				s-1.285-0.882-1.629-1.613c0.354-0.183,0.672-0.325,0.951-0.427C196.096,66.947,196.392,66.848,196.704,66.751z"/>
			<path fill="#0E4C5B" d="M216.979,69.445c-0.365,0-0.633,0.005-0.805,0.016c-0.173,0.011-0.361,0.017-0.564,0.017h-0.742
				c0.021-0.162,0.042-0.307,0.064-0.436c0.021-0.13,0.049-0.291,0.08-0.484c-0.376,0.43-0.77,0.718-1.177,0.863
				c-0.409,0.145-0.899,0.218-1.469,0.218c-0.612,0-1.167-0.116-1.661-0.347c-0.495-0.232-0.918-0.557-1.267-0.977
				c-0.35-0.42-0.618-0.92-0.807-1.5c-0.188-0.581-0.282-1.221-0.282-1.92c0-0.688,0.1-1.316,0.299-1.887
				c0.198-0.57,0.478-1.054,0.838-1.451c0.361-0.398,0.791-0.708,1.291-0.928c0.5-0.221,1.051-0.332,1.653-0.332
				c0.591,0,1.083,0.086,1.476,0.259c0.393,0.172,0.772,0.479,1.139,0.919l-0.018-0.289c0-0.409-0.019-0.818-0.056-1.227
				c-0.038-0.408-0.095-0.839-0.169-1.291c0.419,0.021,0.811,0.029,1.177,0.024s0.704-0.024,1.017-0.056
				c-0.08,1.172-0.144,2.316-0.189,3.436c-0.047,1.118-0.068,2.15-0.068,3.097c0,0.785,0.014,1.506,0.043,2.161
				C216.81,67.987,216.875,68.692,216.979,69.445z M212.617,62.153c-0.476,0-0.861,0.078-1.158,0.234s-0.529,0.365-0.696,0.629
				s-0.283,0.575-0.349,0.936c-0.064,0.36-0.096,0.75-0.096,1.17c0,1.816,0.818,2.726,2.46,2.726c1.468,0,2.202-0.909,2.202-2.726
				v-0.064C214.958,63.122,214.17,62.153,212.617,62.153z"/>
			<path fill="#0E4C5B" d="M226.739,67.718c-0.764,1.26-2.097,1.889-4,1.889c-1.495,0-2.579-0.382-3.251-1.146
				c-0.672-0.763-1.008-1.913-1.008-3.451c0-1.43,0.264-2.506,0.791-3.227h-0.018c0.84-0.967,2.066-1.451,3.678-1.451
				c1.303,0,2.3,0.342,2.992,1.023c0.694,0.684,1.041,1.627,1.041,2.832c0,0.14-0.005,0.307-0.016,0.5s-0.043,0.397-0.097,0.612
				c-0.592-0.021-1.205-0.037-1.839-0.048c-0.635-0.012-1.227-0.016-1.774-0.016c-0.495,0-0.974,0.004-1.437,0.016
				c-0.461,0.011-0.924,0.021-1.387,0.031c0.011,0.926,0.21,1.582,0.598,1.969c0.387,0.387,0.994,0.58,1.822,0.58
				c0.549,0,0.994-0.104,1.338-0.314c0.345-0.209,0.576-0.492,0.694-0.846c0.302,0.086,0.591,0.198,0.872,0.338
				C226.019,67.148,226.353,67.386,226.739,67.718z M222.82,62.024c-1.409,0-2.162,0.549-2.259,1.646h0.371h0.193
				c0.086,0,0.155,0.005,0.21,0.017h1.161h0.984h0.661c0.118,0,0.242,0,0.371,0c0.139,0,0.279-0.006,0.42-0.017
				C224.781,62.573,224.078,62.024,222.82,62.024z"/>
			<path fill="#0E4C5B" d="M237.224,69.235c-0.161-0.527-0.358-1.092-0.589-1.693c-0.231-0.604-0.48-1.216-0.75-1.84
				c-0.27-0.623-0.54-1.239-0.814-1.847c-0.275-0.608-0.535-1.181-0.783-1.718c-0.011,0.408-0.021,0.796-0.031,1.161
				c-0.012,0.366-0.017,0.753-0.017,1.161c0,0.883,0.022,1.745,0.065,2.59c0.043,0.844,0.106,1.669,0.192,2.476
				c-0.106-0.011-0.282-0.024-0.524-0.04c-0.241-0.017-0.432-0.024-0.572-0.024c-0.118,0-0.258,0.005-0.42,0.017
				c-0.16,0.01-0.301,0.021-0.418,0.031h-0.242c0.085-1.301,0.157-2.607,0.217-3.919s0.089-2.57,0.089-3.775
				c0-0.483-0.002-1.005-0.008-1.564s-0.019-1.069-0.04-1.532c0.129,0,0.236,0.005,0.322,0.016c0.086,0.012,0.156,0.017,0.21,0.017
				l1.903-0.032c0.409,1.27,0.879,2.524,1.411,3.767s1.153,2.567,1.864,3.976c0.58-1.15,1.123-2.347,1.629-3.589
				c0.505-1.241,0.994-2.626,1.468-4.153c0.15,0,0.293-0.01,0.428-0.033c0.134-0.021,0.287-0.039,0.459-0.056
				s0.377-0.021,0.613-0.017c0.236,0.006,0.533,0.041,0.888,0.105c-0.032,0.979-0.057,1.895-0.073,2.75
				c-0.016,0.855-0.023,1.595-0.023,2.219c0,1.107,0.023,2.145,0.071,3.113c0.049,0.967,0.127,1.871,0.234,2.709h-0.37
				c-0.087,0-0.173-0.002-0.259-0.008s-0.172-0.008-0.259-0.008h-0.482c-0.119,0-0.267,0.002-0.444,0.008s-0.325,0.008-0.443,0.008
				c0.042-1.011,0.074-1.951,0.097-2.822c0.021-0.871,0.031-1.603,0.031-2.193v-1.049v-0.533c0-0.086,0-0.172,0-0.258
				c0-0.097-0.005-0.188-0.016-0.273c-0.645,1.322-1.199,2.541-1.661,3.653c-0.463,1.113-0.854,2.218-1.178,3.314
				c-0.172,0.086-0.32,0.138-0.443,0.153c-0.124,0.016-0.234,0.024-0.33,0.024c-0.129,0-0.264-0.011-0.404-0.032
				c-0.14-0.021-0.295-0.064-0.467-0.129L237.224,69.235z"/>
			<path fill="#0E4C5B" d="M254.127,67.718c-0.762,1.26-2.096,1.889-3.998,1.889c-1.496,0-2.58-0.382-3.252-1.146
				c-0.671-0.763-1.008-1.913-1.008-3.451c0-1.43,0.264-2.506,0.791-3.227h-0.018c0.84-0.967,2.066-1.451,3.678-1.451
				c1.301,0,2.301,0.342,2.992,1.023c0.695,0.684,1.041,1.627,1.041,2.832c0,0.14-0.006,0.307-0.016,0.5
				c-0.012,0.193-0.043,0.397-0.098,0.612c-0.592-0.021-1.203-0.037-1.838-0.048c-0.637-0.012-1.227-0.016-1.775-0.016
				c-0.494,0-0.973,0.004-1.436,0.016c-0.463,0.011-0.924,0.021-1.387,0.031c0.012,0.926,0.209,1.582,0.598,1.969
				c0.387,0.387,0.994,0.58,1.822,0.58c0.549,0,0.994-0.104,1.338-0.314c0.346-0.209,0.576-0.492,0.695-0.846
				c0.299,0.086,0.59,0.198,0.869,0.338C253.408,67.148,253.74,67.386,254.127,67.718z M250.207,62.024
				c-1.408,0-2.16,0.549-2.258,1.646h0.373h0.191c0.086,0,0.156,0.005,0.211,0.017h1.16h0.984h0.662c0.117,0,0.242,0,0.371,0
				c0.139,0,0.279-0.006,0.42-0.017C252.17,62.573,251.467,62.024,250.207,62.024z M248.676,60.169
				c-0.076-0.193-0.141-0.362-0.193-0.508c-0.055-0.145-0.104-0.26-0.145-0.347c-0.045-0.085-0.096-0.19-0.154-0.314
				s-0.131-0.261-0.217-0.411c0.482-0.193,0.889-0.36,1.217-0.5s0.619-0.27,0.871-0.387c0.254-0.119,0.494-0.24,0.727-0.363
				c0.23-0.124,0.496-0.267,0.799-0.428c0.084,0.322,0.166,0.607,0.242,0.854c0.074,0.248,0.203,0.528,0.385,0.839
				c-0.418,0.141-0.766,0.261-1.039,0.363c-0.273,0.102-0.525,0.207-0.75,0.314c-0.227,0.097-0.451,0.21-0.678,0.339
				c-0.107,0.054-0.25,0.129-0.428,0.226S248.922,60.052,248.676,60.169z"/>
			<path fill="#0E4C5B" d="M264.855,69.445c-0.699,0.063-1.205,0.097-1.518,0.097c-0.311,0-0.693-0.033-1.145-0.097
				c-0.451-0.753-0.869-1.407-1.25-1.96c-0.383-0.555-0.725-1.057-1.025-1.508c-0.516,0.709-0.957,1.352-1.322,1.926
				c-0.365,0.576-0.688,1.139-0.967,1.687c-0.313-0.043-0.695-0.069-1.146-0.081c-0.451-0.011-0.951-0.016-1.5-0.016l2.34-2.71
				c0.334-0.376,0.643-0.729,0.928-1.058c0.283-0.327,0.551-0.631,0.797-0.91c-0.461-0.581-0.998-1.219-1.604-1.912
				c-0.607-0.693-1.32-1.497-2.139-2.411c0.162-0.043,0.355-0.077,0.58-0.104c0.229-0.027,0.49-0.047,0.791-0.057
				c0.303-0.021,0.592-0.035,0.871-0.041c0.279-0.005,0.549-0.002,0.807,0.008c0.279,0.581,0.576,1.113,0.889,1.598
				c0.311,0.484,0.648,0.989,1.016,1.517c0.408-0.624,0.779-1.199,1.113-1.726c0.332-0.527,0.623-1.006,0.871-1.437
				c0.322,0.054,0.611,0.087,0.871,0.097c0.053,0.012,0.139,0.017,0.258,0.017h0.338h0.984c-0.85,1.011-1.564,1.86-2.145,2.548
				c-0.582,0.689-1.049,1.258-1.404,1.711c0.344,0.451,0.672,0.879,0.984,1.281c0.313,0.404,0.613,0.789,0.902,1.154
				c0.291,0.365,0.59,0.742,0.896,1.129S264.543,68.993,264.855,69.445z"/>
			<path fill="#0E4C5B" d="M268.646,69.509c-0.41,0-0.691-0.008-0.848-0.023c-0.156-0.017-0.281-0.024-0.379-0.024
				c-0.15,0-0.33,0.011-0.541,0.032c-0.209,0.021-0.459,0.054-0.75,0.097c0.141-0.71,0.244-1.409,0.316-2.097
				c0.068-0.688,0.104-1.404,0.104-2.146c0-0.613-0.016-1.245-0.049-1.896c-0.031-0.65-0.096-1.379-0.193-2.186
				c0.484-0.011,0.904-0.006,1.258,0.016c0.355,0.021,0.678,0.017,0.969-0.016c-0.043,0.516-0.08,1.1-0.113,1.75
				s-0.049,1.282-0.049,1.895c0,0.775,0.014,1.522,0.041,2.242C268.439,67.874,268.518,68.659,268.646,69.509z M268.678,60.831
				c-0.16-0.011-0.309-0.014-0.443-0.008s-0.26,0.014-0.379,0.023c-0.033,0.012-0.092,0.017-0.178,0.017h-0.209h-0.484
				c-0.043-0.011-0.086-0.017-0.129-0.017s-0.086,0-0.129,0h-0.211c-0.148,0-0.236-0.005-0.258-0.016
				c-0.02-0.15-0.033-0.285-0.039-0.403s-0.014-0.231-0.025-0.339c-0.01-0.032-0.016-0.097-0.016-0.193v-0.274v-0.807
				c0.322-0.054,0.6-0.094,0.83-0.121c0.232-0.026,0.441-0.042,0.631-0.048c0.188-0.006,0.361,0.002,0.523,0.023
				c0.16,0.021,0.322,0.054,0.484,0.098c0.053,0.387,0.084,0.752,0.088,1.097C268.74,60.207,268.721,60.53,268.678,60.831z"/>
			<path fill="#0E4C5B" d="M278.26,67.767c-0.668,1.248-1.828,1.872-3.484,1.872c-0.797,0-1.484-0.089-2.066-0.267
				s-1.063-0.451-1.441-0.822s-0.658-0.85-0.838-1.436c-0.178-0.586-0.268-1.283-0.268-2.09c0-1.655,0.355-2.849,1.064-3.581
				c0.711-0.731,1.795-1.097,3.258-1.097c1.85,0,3.119,0.684,3.809,2.049c-0.238,0.193-0.498,0.352-0.783,0.476
				s-0.605,0.233-0.959,0.331c-0.453-0.774-1.195-1.162-2.227-1.162c-0.785,0-1.348,0.245-1.686,0.734
				c-0.34,0.49-0.508,1.293-0.508,2.412c0,0.483,0.041,0.893,0.129,1.226c0.086,0.333,0.23,0.604,0.436,0.814
				c0.203,0.21,0.467,0.36,0.789,0.452s0.727,0.137,1.211,0.137c0.914,0,1.586-0.377,2.016-1.129
				c0.344,0.15,0.639,0.287,0.887,0.411s0.457,0.255,0.629,0.396L278.26,67.767z"/>
			<path fill="#0E4C5B" d="M288.373,64.815c0,1.559-0.355,2.747-1.064,3.564c-0.711,0.817-1.779,1.227-3.209,1.227
				c-3,0-4.502-1.42-4.502-4.259c0-1.785,0.352-3.079,1.057-3.88s1.805-1.201,3.299-1.201
				C286.9,60.267,288.373,61.782,288.373,64.815z M281.502,64.992c0,1.958,0.811,2.937,2.436,2.937c1.666,0,2.5-0.957,2.5-2.871
				c0-2.064-0.807-3.098-2.42-3.098c-0.494,0-0.902,0.051-1.225,0.153c-0.324,0.103-0.582,0.272-0.775,0.509
				s-0.328,0.548-0.404,0.936C281.539,63.944,281.502,64.423,281.502,64.992z"/>
		</g>
	</g>
	<g>
		<g>
			<path fill="#9EC03B" d="M123.236,43.009h4.385v27.693h-4.385V43.009z"/>
		</g>
	</g>
	<g>
		<g>
			<path fill="#0E4C5B" d="M38.531,74.49c0,0-0.5-5.118-0.5-14.875c0-8.25,2.052-16.036,6.625-20
				c4.688-4.063,22.241-6.103,24.319-6.823s-9.398,0.65-17.687,0.32c-2.795-0.111-7.197-0.832-9.627,0.666
				c-4.769,2.945-5.605,8.217-5.605,10.01c0,7.809,0,30.789,0,30.789L38.531,74.49z"/>
			<path fill="#0E4C5B" d="M28.656,40.24c5.436,4.969,3.768,13.173,4.375,17.125c0.566,3.697,1.991,3.194,1.991,3.194V42.679
				c0,0-2.135-8.586-12.035-9.139c-4.509-0.252-21.138-0.378-19.969-0.197C17.198,35.532,23.015,35.082,28.656,40.24z"/>
		</g>
		<g>
			<path fill="#9EC03B" d="M44.915,16.777C43.383,9.4,37.236,4.526,35.585,3.333c-0.656,0.876-2.397,2.979-5.809,5.731
				c-1.797,1.447-2.731,4.86-2.709,9.878c2.108,2.336,3.216,4.9,3.264,5.011l0.04,0.169l0.297,4.355l10.967-0.304l-1.603-4.131
				l0.036-0.156C40.109,23.71,41.083,19.645,44.915,16.777z"/>
			<path fill="#9EC03B" d="M26.164,19.5c-1.999-2.165-4.169-3.262-6.449-3.262l-0.146,0.001c-4.555,0.095-8.091-0.246-9.601-0.427
				c0.557,1.932,2.191,7.128,4.442,10.068c3.65,4.768,12.986,5.924,15.414,6.148l-0.164-2.988l-0.324-4.756
				C29.132,23.836,28.033,21.521,26.164,19.5z"/>
			<path fill="#9EC03B" d="M60.985,12.8c-1.232,0.484-4.335,1.54-10.004,2.52c-1.945,0.336-3.691,1.046-5.188,2.109
				c-3.318,2.35-4.453,5.793-4.668,6.544l1.8,4.642l-0.301,2.031c0.997,0.454,4.825,1.507,11.724-4.856
				C61.008,19.645,61.159,14.498,60.985,12.8z"/>
		</g>
		<path fill="#FFFFFF" d="M28.272,33.21c-1.949-0.387-3.42-5.877,0.246-11.346c3.666-5.471,6.715-7.307,6.715-7.307
			s3.893,2.422,7.272,8.477c1.672,2.998,3.001,8.695,0.882,9.465C38.085,34.419,34.837,34.511,28.272,33.21z"/>
		<g>
			<path fill="#0E4C5B" d="M110.188,51.952c-0.254-0.061-0.482-0.123-0.646-0.182c-0.577-0.199-0.359-1.102-0.327-1.422
				c0.03-0.32,0.737-0.277,1.211-0.176c0.474,0.107,2.698,0.264,3.231,0.168c0.531-0.096,1.05-0.453,1.42-0.42
				c0.23,0.023,0.375,0.322,0.453,0.541c0.06-0.166,0.105-0.395,0.046-0.768c-0.151-0.945-0.219-2.324-1.735-2.652
				c-1.518-0.328-3.622-0.922-5.9-0.588c-2.014,0.295-3.598,1.219-5.01,2.074l3.168,3.609
				C106.996,52.114,108.629,52.021,110.188,51.952z M110.476,47.337c0.693,0.049,1.235,0.406,1.205,0.797
				c-0.025,0.395-0.612,0.674-1.307,0.625s-1.237-0.41-1.21-0.801C109.191,47.565,109.78,47.286,110.476,47.337z"/>
			<path fill="#0E4C5B" d="M105.012,66.247l-0.998,4.252c1.008,0.332,2.011,0.51,2.982,0.559l-0.383-4.234
				C106.066,66.71,105.514,66.497,105.012,66.247z"/>
			<path fill="#0E4C5B" d="M107.496,66.909l0.373,4.156c1.309-0.041,2.547-0.318,3.656-0.777l-3.246-3.527
				C108.035,66.854,107.771,66.901,107.496,66.909z"/>
			<path fill="#0E4C5B" d="M103.121,64.903c-1.561-2.42-6.971-10.801-8.388-11.781c-1.414-0.982-2.86-0.756-3.021-0.053
				c0,0,1.047,1.506,0.955,2.818c-0.096,1.313,6.1,11.436,7.305,12.393c1.055,0.836,2.137,1.465,3.219,1.91l1.029-4.387
				C103.661,65.448,103.247,65.099,103.121,64.903z"/>
			<path fill="#0E4C5B" d="M112.372,58.147c-1.563-0.768-10.326-0.557-9.003-4.465c0.48-1.41,0.671-1.539,1.572-1.543l-2.769-3.152
				c-1.575,0.959-4.106,2.666-4.035,5.293c0.194,7.057,11.936,6.885,11.567,10.16c-0.096,0.85-0.35,1.432-0.703,1.822l3.351,3.637
				c2.636-1.391,4.35-3.859,4.17-6.527C116.354,60.878,114.352,59.116,112.372,58.147z"/>
			<path fill="#0E4C5B" d="M116.744,55.513c-0.379-0.9-0.152-2.543-0.578-3.797c-0.086-0.254-0.434-0.541-0.68-0.641
				c-0.137-0.193-0.085-0.303-0.01-0.473c-0.231-0.18-0.756-0.486-1.295-0.123c-0.719,0.488-3.258,0.301-3.828,0.244
				c-0.573-0.057-0.49,0.434,0.154,0.703c0.646,0.268,2.475,0.064,2.875-0.016c0.399-0.078,0.468-0.217,0.693-0.225
				c0.225-0.008,0.609-0.063,0.609-0.063s-0.156,0.398-0.465,0.693c-0.122,0.115-0.354,0.191-0.633,0.248l-0.107,0.088
				c0.195-0.014,0.689,0.33,0.918,0.527c0.23,0.197,0.528,0.021,0.645,1.244c0.078,0.813-0.498,1.518-0.914,1.773
				c-0.374,0.23-1.279,0.633-1.279,0.633s1.537,0.449,2.232,0.008c0.695-0.439,0.579-1.121,0.735-0.75
				c0.15,0.357,0.566,0.98,0.894,1.078c0.264,0.082,1.61,0.068,1.61,0.068S117.121,56.415,116.744,55.513z"/>
		</g>
		<g>
			<path fill="#0E4C5B" d="M8.22,40.111h9.108c4.15,0,7.164,0.591,9.039,1.771c1.875,1.182,2.813,3.06,2.813,5.636
				c0,1.749-0.41,3.183-1.23,4.304c-0.821,1.121-1.912,1.795-3.273,2.022v0.2c1.855,0.414,3.193,1.188,4.014,2.322
				c0.821,1.135,1.231,2.643,1.231,4.524c0,2.669-0.964,4.751-2.893,6.246c-1.929,1.495-4.548,2.242-7.858,2.242H8.22V40.111z
				 M14.426,51.702h3.604c1.682,0,2.899-0.26,3.653-0.781s1.132-1.381,1.132-2.583c0-1.121-0.411-1.925-1.231-2.413
				c-0.821-0.487-2.119-0.73-3.894-0.73h-3.264V51.702z M14.426,56.627v7.627h4.044c1.708,0,2.97-0.327,3.784-0.981
				c0.813-0.654,1.221-1.655,1.221-3.003c0-2.429-1.735-3.644-5.205-3.644H14.426z"/>
		</g>
		<g>
			<path fill="#0E4C5B" d="M62.079,58.149c0,3.643-0.961,6.492-2.883,8.548s-4.598,3.083-8.027,3.083
				c-2.149,0-4.044-0.471-5.686-1.411c-1.643-0.941-2.903-2.292-3.784-4.054s-1.321-3.817-1.321-6.166
				c0-3.657,0.954-6.5,2.862-8.529c1.909-2.027,4.591-3.043,8.048-3.043c2.148,0,4.045,0.468,5.686,1.402
				c1.643,0.934,2.903,2.275,3.784,4.023S62.079,55.8,62.079,58.149z M46.604,58.149c0,2.215,0.362,3.891,1.091,5.024
				c0.728,1.135,1.911,1.702,3.554,1.702c1.627,0,2.799-0.564,3.513-1.692s1.071-2.806,1.071-5.034c0-2.216-0.36-3.877-1.081-4.985
				c-0.721-1.107-1.901-1.661-3.544-1.661c-1.628,0-2.803,0.55-3.523,1.651C46.965,54.255,46.604,55.921,46.604,58.149z"/>
			<path fill="#0E4C5B" d="M73.478,64.915c1.068,0,2.35-0.232,3.844-0.7v4.544c-1.521,0.682-3.39,1.021-5.605,1.021
				c-2.441,0-4.221-0.617-5.335-1.852s-1.671-3.086-1.671-5.556v-10.79h-2.924V49l3.363-2.042l1.762-4.725h3.904v4.765h6.266v4.585
				h-6.266v10.79c0,0.868,0.243,1.509,0.73,1.922C72.033,64.709,72.677,64.915,73.478,64.915z"/>
			<path fill="#0E4C5B" d="M92.985,69.38l-1.182-3.043h-0.16c-1.027,1.295-2.085,2.192-3.173,2.692
				c-1.088,0.501-2.506,0.751-4.254,0.751c-2.149,0-3.841-0.613-5.075-1.842c-1.234-1.228-1.852-2.977-1.852-5.245
				c0-2.376,0.831-4.127,2.492-5.255c1.662-1.128,4.168-1.752,7.518-1.872l3.884-0.12v-0.98c0-2.27-1.161-3.404-3.483-3.404
				c-1.789,0-3.891,0.541-6.307,1.622l-2.021-4.124c2.576-1.348,5.432-2.021,8.568-2.021c3.003,0,5.305,0.654,6.906,1.961
				c1.602,1.309,2.402,3.297,2.402,5.967V69.38H92.985z M91.184,59.01l-2.362,0.08c-1.775,0.054-3.097,0.374-3.964,0.961
				c-0.868,0.587-1.302,1.481-1.302,2.683c0,1.722,0.988,2.582,2.963,2.582c1.415,0,2.546-0.406,3.394-1.221
				s1.271-1.895,1.271-3.243V59.01z"/>
		</g>
	</g>
</g>
</svg>
