<?xml version="1.0" encoding="utf-8"?>
<!-- Generator: Adobe Illustrator 22.1.0, SVG Export Plug-In . SVG Version: 6.00 Build 0)  -->
<svg version="1.1"
	 id="svg8" inkscape:version="0.92.4 (5da689c313, 2019-01-14)" sodipodi:docname="actinopterygii.svg" xmlns:cc="http://creativecommons.org/ns#" xmlns:dc="http://purl.org/dc/elements/1.1/" xmlns:inkscape="http://www.inkscape.org/namespaces/inkscape" xmlns:rdf="http://www.w3.org/1999/02/22-rdf-syntax-ns#" xmlns:sodipodi="http://sodipodi.sourceforge.net/DTD/sodipodi-0.dtd" xmlns:svg="http://www.w3.org/2000/svg"
	 xmlns="http://www.w3.org/2000/svg" xmlns:xlink="http://www.w3.org/1999/xlink" x="0px" y="0px" viewBox="0 0 2267.7 2267.7"
	 style="enable-background:new 0 0 2267.7 2267.7;" xml:space="preserve">
<style type="text/css">
	.st0{fill:none;stroke:#000000;stroke-width:0.2646;}
</style>
<sodipodi:namedview  bordercolor="#666666" borderopacity="1.0" id="base" inkscape:current-layer="layer1" inkscape:cx="1438.0453" inkscape:cy="621.60672" inkscape:document-units="mm" inkscape:pageopacity="0.0" inkscape:pageshadow="2" inkscape:window-height="962" inkscape:window-maximized="1" inkscape:window-width="1280" inkscape:window-x="-8" inkscape:window-y="-8" inkscape:zoom="0.1400905" pagecolor="#ffffff" showgrid="false">
	</sodipodi:namedview>
<path class="st0" d="M1933.2,2238.9c-61.2,35.8-81.1,25.6-115.6-40.9c-55.6-107.6-113.8-215.7-175.3-321.9
	c-54.8-99-137.9-160.1-237.1-200c-37.7-17.1-76.1-31.7-114.4-46.2c-15.2-6.3-32.4-15.9-44.7,0.7c-12.8,19.3-6,37.6,7.4,51.8
	c24.1,27.9,48.2,55.8,72.9,81c38.1,39.5,32.7,74.4-4.1,113.1c-58.8,61.4-132.8,80.3-215.6,77.6c-38.8-0.7-60.9-25.3-69.9-58
	c-14.7-56.3-43-101.8-73.9-148c-6.1-9.8-10.9-24.8-25.3-22.6c-14.4,2.2-15.5,18.6-17.9,29.2c-4.3,18.5,4,42.7-20.7,64.7
	c-29.1-54.1-28-106.7-38-159.1c-6.2-20.9,5.2-46.1-34.4-55.3c-24.4-2.9-19-37.8-14.1-58.9c35-114.2-12.9-195-102.1-265.9
	c-41.9-34.8-73.5-78.4-118.3-125c-2.2,69,2.1,134-33.2,189.8c-12.8,19.3-28.3,37.9-47.2,47.4c-31.9,17.6-58.9,14.1-63.5-25.9
	c-17.8-126.6-90.6-243.7-61.8-378.9c23.2-111.4-60.7-181.1-124.2-254.3c-52.9-59.6-99.8-120.7-113.6-204.6
	c-6.2-20.9-15.1-42.5-24.6-61.4C57,348.8,43.7,215,15.4,86C8.8,42.7,25.5,18.8,74.7,10.8c46.5-8.6,86.9,9.1,132.4,17
	C319.7,45.7,436.2,59,544.1,109.2c88.6,37.4,161.8,93.4,233.7,154.7c46,41.3,88.7,84.7,158.5,48.1c9.1-3.4,26.2-5,30.9-1.1
	c34.2,44.1,75.9,20.5,113.3,15.3c23-3,41.9-12.5,43.2,29.6c-0.9,27.6,32.3,4.8,50.7,9.1c21.7,2.3,65.3-29.3,41.9,34.8
	c-9.4,28.4,20.7,18.7,37.1,19.8c36.1,0.1,76.8-7.1,43.5,51.9c-17.2,37.7,12.9,28.1,32,29.7c17.1-1.6,35.4-8.4,44.2,13.1
	c7.5,15.7-10.8,22.5-19.2,34.5c-33,34-12.5,41.6,23,44.3c16.4,1.1,32.3,4.8,48.1,8.4c3.2,34.1-35.6,33.4-39.1,60.4
	c4.2,17.7,22.5,10.8,32.5,15.9c7.9,1.8,23.1,8.2,23.1,8.2c-12.5,41.6,15,78.6,17,118c0.2,11.2-25.2,24.7-0.1,36.1
	c42.4,21,26,67.3,25.1,94.9c-2.5,94,42.6,163,132.3,183.9c89.1,23.6,223.9,196.9,219.4,287.7c-1.8,55.2-51.6,102-116,103.7
	c-17.1,1.6-36.1-0.1-63.1-3.6c82,77.6,171.5,123.5,264.2,167.4c95.3,44.5,191.3,86.4,289.8,128.9c33.1,13.3,50.5,34,40.6,76.2
	C2207.6,2052.6,2078.4,2153.2,1933.2,2238.9z M506.5,306.3c38.1-44,30.1-93.1-4.1-137.3c-36.8-44.8-142.8-55.6-179-19.5
	c-47.2,47.4-27.4,93.7,2.1,134C374.8,334,474.3,348.9,506.5,306.3z M898,547.9c0.9-27.6,6.2-26.4-25.9-20c-43.3,6.6-52.7,35-82.4,67
	c-40.1,40.7-104.1,64.7-172.4,71c-105.6,11.5-231.5-9.5-305.3-26.8c6.2,20.9,18.8,26.6,29.4,29.1C514,703.1,681.7,711.6,832,616
	C832,616,889.8,588.3,898,547.9z"/>
</svg>
