<?xml version="1.0" encoding="UTF-8" standalone="no"?>
<svg
   xmlns:dc="http://purl.org/dc/elements/1.1/"
   xmlns:cc="http://creativecommons.org/ns#"
   xmlns:rdf="http://www.w3.org/1999/02/22-rdf-syntax-ns#"
   xmlns:svg="http://www.w3.org/2000/svg"
   xmlns="http://www.w3.org/2000/svg"
   version="1.1"
   id="svg8"
   x="0px"
   y="0px"
   viewBox="0 0 2267.7 2267.7"
   style="enable-background:new 0 0 2267.7 2267.7;"
   xml:space="preserve"><metadata
   id="metadata2740"><rdf:RDF><cc:Work
       rdf:about=""><dc:format>image/svg+xml</dc:format><dc:type
         rdf:resource="http://purl.org/dc/dcmitype/StillImage" /><dc:title></dc:title></cc:Work></rdf:RDF></metadata><defs
   id="defs2738" />
<style
   type="text/css"
   id="style2732">
	.st0{fill:none;stroke:#000000;stroke-width:0.2646;}
</style>

<path
   style="fill:none"
   d="m 2146.3711,833.94727 c -2.1145,8.93512 -4.376,17.83523 -6.3926,26.79296 -0.1789,6.78993 -0.037,13.5832 -0.084,20.37461 0,175.29116 0,350.58226 0,525.87346 2.5845,10.7518 5.1707,21.5032 7.7598,32.2539 5.1493,-9.8362 10.4141,-19.6111 15.5781,-29.4395 29.7828,-111.1907 41.0966,-227.2361 34.0173,-342.1099 -3.7725,-61.5682 -12.8353,-122.81913 -27.2048,-182.80897 -2.0448,-8.46709 -4.1206,-16.9298 -6.4319,-25.3284 -0.869,-3.33802 -2.957,-6.15778 -4.4506,-9.22383 -3.8549,-7.15613 -7.7119,-14.3111 -11.5647,-21.46832 -0.4089,1.69466 -0.8178,3.38932 -1.2266,5.08399 z"
   id="path2829" /><path
   style="fill:none"
   d="m 1125.7461,68.480469 c -36.0089,0.444776 -72.0184,2.309794 -107.8178,6.271725 -74.33455,8.042595 -147.82641,23.91853 -218.81274,47.412806 -74.43831,24.6024 -146.10888,57.54526 -213.29362,97.94333 -63.77107,38.32534 -123.49344,83.37021 -177.93397,134.07939 -49.67967,46.25682 -94.94064,97.25603 -134.96466,152.08296 -31.79348,43.53422 -60.27991,89.48261 -85.13036,137.32062 -25.56867,49.22286 -47.27535,100.45225 -64.82276,153.07189 -16.11724,48.3447 -28.732619,97.85577 -37.703541,148.01989 -20.098915,112.23312 -22.110516,227.67522 -6.082752,340.55742 7.816814,55.0428 19.967152,109.4716 36.323833,162.607 17.44061,56.6907 39.67632,111.9047 66.38506,164.8631 35.26739,69.9275 78.25763,135.9548 127.93942,196.4988 44.17226,53.8606 93.64107,103.3706 147.4136,147.6488 49.74263,40.9584 103.18996,77.4207 159.5056,108.7347 65.54978,36.4701 134.98292,65.9523 206.74777,87.7875 44.9347,13.6721 90.78526,24.3202 137.13798,31.8934 48.57214,7.9386 97.69504,12.4957 146.89684,13.6878 53.5491,1.2916 107.1972,-1.3609 160.3459,-8.0168 65.4192,-8.1931 130.0785,-22.4807 192.8304,-42.7128 23.5123,-7.5569 46.7415,-15.9879 69.6852,-25.1223 2.0348,-0.8054 4.0695,-1.6112 6.1045,-2.4163 0,-456.0931 0,-912.1862 0,-1368.27934 1.4022,-22.38542 2.8054,-44.77079 4.207,-67.15625 -12.4713,10.80902 -24.7906,21.79787 -37.5078,32.32031 -8.0029,6.59827 -16.3149,13.00692 -24.4839,19.47298 -50.5134,39.87505 -100.9456,79.8519 -151.3887,119.81635 -49.9387,39.55669 -99.8766,79.1144 -149.8149,118.67161 C 1075.2656,845.04297 973.01953,714.54688 870.77344,584.05078 1065.2265,428.45048 1259.6799,272.85051 1454.1328,117.25 1428.7203,109.67188 1403.1926,102.4413 1377.3531,96.455671 1323.4248,83.841163 1268.503,75.504655 1213.271,71.426564 c -29.1208,-2.155011 -58.3257,-3.076592 -87.5249,-2.946095 z"
   id="path2735" />
<path
   id="path3713"
   style="fill:none;stroke:#000000;stroke-width:0.2646"
   d="m 982.57422,597.02344 c 69.43228,88.61979 138.86458,177.23958 208.29688,265.85937 81.8724,-64.86369 163.7445,-129.72846 245.6412,-194.56106 10.0252,-7.28399 19.5478,-15.231 28.849,-23.41159 15.6348,-13.80057 30.8335,-28.29839 45.8664,-42.82814 20.9534,-20.34473 41.6297,-40.97216 62.3184,-61.58525 20.0731,-20.02058 40.1145,-40.07467 60.1687,-60.11591 -5.7497,91.77604 -11.5054,183.55223 -17.2148,275.33047 0,498.70107 0,997.40207 0,1496.10317 147.8001,0 295.6003,0 443.4004,0 0,-741.1667 0,-1482.33338 0,-2223.500047 -122.1582,0 -244.3164,0 -366.4746,0 C 1456.4753,217.88411 1219.5247,407.45378 982.57422,597.02344 Z" /></svg>
