<?xml version="1.0" encoding="UTF-8" standalone="no"?>
<svg
   xmlns:dc="http://purl.org/dc/elements/1.1/"
   xmlns:cc="http://creativecommons.org/ns#"
   xmlns:rdf="http://www.w3.org/1999/02/22-rdf-syntax-ns#"
   xmlns:svg="http://www.w3.org/2000/svg"
   xmlns="http://www.w3.org/2000/svg"
   version="1.1"
   id="svg8"
   x="0px"
   y="0px"
   width="2267.717px"
   height="2267.717px"
   viewBox="0 0 2267.717 2267.717"
   enable-background="new 0 0 2267.717 2267.717"
   xml:space="preserve"><metadata
   id="metadata8"><rdf:RDF><cc:Work
       rdf:about=""><dc:format>image/svg+xml</dc:format><dc:type
         rdf:resource="http://purl.org/dc/dcmitype/StillImage" /><dc:title></dc:title></cc:Work></rdf:RDF></metadata><defs
   id="defs6">
	
</defs>

<path
   id="path853"
   style="fill:none;stroke-width:0.936947"
   d="m 1135.7109,3.2832031 c -20.0415,0.053929 -40.0459,0.6319687 -60.0527,1.7304688 -5.516,0.3112674 -11.1556,0.6534671 -16.6716,1.044781 -16.7456,1.1665662 -33.4014,2.70292 -50.059,4.6139321 -8.2282,0.946206 -16.55338,1.982088 -24.75596,3.113672 -35.17434,4.826553 -70.15173,11.318762 -104.74804,19.469639 -18.17232,4.276524 -36.37077,9.055325 -54.32056,14.23932 -55.93767,16.179485 -110.63679,36.751576 -163.39342,61.455504 -39.61709,18.53495 -78.23397,39.45297 -115.44682,62.51451 -65.83177,40.78638 -127.49715,88.42115 -183.63014,141.81173 -46.98122,44.6688 -90.16389,93.44879 -128.83157,145.52083 -29.93616,40.32809 -57.19401,82.64758 -81.50528,126.6241 -5.51311,9.97883 -10.93622,20.13815 -16.13262,30.26574 -9.09402,17.69568 -17.73073,35.69354 -25.85655,53.81257 -11.309097,25.24628 -21.696044,50.94543 -31.103515,76.93555 -9.117015,25.21615 -17.343393,50.796 -24.632813,76.62109 -7.907615,28.03692 -14.76647,56.53533 -20.468147,85.17907 -4.918659,24.63139 -8.98297,49.39762 -12.237938,74.29121 -3.766079,28.87988 -6.406204,57.86278 -7.943012,86.96748 -1.611828,30.7397 -1.995024,61.6388 -1.122529,92.4603 0.578285,20.804 1.738859,41.5689 3.463405,62.3176 1.031482,12.5135 2.300658,25.0824 3.756004,37.5991 1.707018,14.517 3.691688,29.1616 5.967502,43.6148 4.515507,28.856 10.176336,57.5565 16.942219,85.9947 12.491224,52.4906 28.799507,104.0968 48.76945,154.2964 3.844759,9.6659 7.891057,19.4213 11.998044,28.9786 20.45643,47.4824 44.21877,93.6158 71.0407,137.8566 37.77572,62.34 81.76359,121.1901 130.92323,175.1567 62.86224,69.0486 134.29981,130.2838 212.17577,181.8097 54.79976,36.28 112.78811,67.7432 173.08296,93.8938 12.96341,5.6196 26.09832,11.0163 39.28711,16.1582 36.92016,14.3741 74.72154,26.8248 113.00975,37.1924 15.96155,4.341 32.16329,8.3381 48.29816,11.95 31.81444,7.1259 63.94162,12.8486 96.25459,17.1837 18.53802,2.4707 37.30752,4.5197 55.93632,6.0692 18.7405,1.5687 37.4449,2.6472 56.248,3.2951 24.9145,0.8382 49.9746,0.8637 74.9367,0.081 8.2983,-0.2702 16.7935,-0.6295 25.0917,-1.0758 23.1142,-1.2374 46.1881,-3.1875 69.208,-5.8409 20.6159,-2.3809 41.2906,-5.3494 61.7442,-8.8681 21.9798,-3.7757 43.8974,-8.2373 65.5792,-13.3072 26.5539,-6.2298 52.8753,-13.4132 78.9247,-21.5674 29.8402,-9.3381 59.3532,-19.9584 88.3297,-31.7822 9.6766,-3.9421 19.4008,-8.0753 28.9647,-12.2922 29.0216,-12.7998 57.5413,-26.8638 85.3473,-42.0574 42.9488,-23.485 84.3618,-49.7743 123.9004,-78.6328 8.4207,-6.15 16.8732,-12.5032 25.1221,-18.8831 14.9347,-11.5474 29.6098,-23.5057 43.974,-35.8043 15.8159,-13.5552 31.4177,-27.6915 46.4882,-42.1227 38.5584,-36.9331 74.5055,-76.5915 107.4763,-118.5883 3.0766,-3.9243 6.193,-7.936 9.2203,-11.9112 35.6033,-46.5958 67.5581,-95.9772 95.4828,-147.5419 35.8208,-66.1478 65.0007,-135.9864 86.8465,-208.003 11.4185,-37.646 20.8798,-75.9909 28.2739,-114.6821 7.0573,-36.9028 12.2493,-74.1446 15.591,-111.6177 0.545,-6.1644 1.0478,-12.3739 1.4956,-18.5234 2.8696,-39.5569 3.6594,-79.2655 2.4142,-118.9427 -0.2709,-8.2905 -0.6286,-16.7444 -1.0738,-25.022 -0.6883,-13.0399 -1.6309,-26.029 -2.7623,-39.0392 -0.4368,-4.8023 -0.893,-9.7483 -1.3873,-14.5559 -1.9077,-18.8085 -4.2803,-37.54088 -7.1319,-56.25307 -1.4557,-9.51442 -3.0375,-19.09307 -4.7299,-28.57486 -4.7949,-26.72343 -10.5289,-53.22258 -17.2377,-79.51853 -2.5831,-10.10574 -5.332,-20.31649 -8.2012,-30.33606 -7.4128,-26.05326 -15.8094,-51.812 -25.103,-77.26746 -11.4485,-31.26877 -24.3421,-62.20722 -38.5662,-92.39887 -8.858,-18.80855 -18.2548,-37.4227 -28.1746,-55.75148 -20.8369,-38.53384 -43.9668,-75.92243 -69.1767,-111.78797 -18.0908,-25.74945 -37.3123,-50.81008 -57.5093,-74.98941 -13.3823,-16.00416 -27.2983,-31.76691 -41.5294,-46.9912 -38.0359,-40.727 -79.0935,-78.62803 -122.702,-113.32131 -22.9875,-18.26159 -46.7617,-35.72609 -71.1401,-52.16766 -7.0674,-4.78446 -14.3214,-9.53499 -21.4888,-14.15851 -28.5242,-18.31615 -57.8738,-35.34521 -87.9277,-51.02539 -25.9005,-13.49129 -52.4299,-26.03925 -79.3467,-37.488464 -34.6265,-14.729566 -70.0348,-27.737353 -106.0072,-38.909722 -11.8662,-3.687468 -23.9049,-7.204539 -35.8808,-10.48879 -44.2177,-12.142089 -89.267,-21.55282 -134.6744,-28.176029 -14.4286,-2.111328 -28.965,-3.930573 -43.4991,-5.4858244 -14.2907,-1.5215627 -28.7613,-2.7771784 -43.1314,-3.75409 -26.7155,-1.8121654 -53.4714,-2.6744768 -80.271,-2.6130975 z m 3.2227,232.0957069 c 32.8528,0.0375 65.7056,1.80376 98.362,5.39746 64.5224,7.06486 128.272,21.20259 189.7163,42.13359 65.8239,22.39788 128.9914,52.57207 187.8038,89.65817 75.0324,47.2669 142.9709,105.74876 200.9166,172.87668 38.0291,44.0191 71.7611,91.74247 100.5517,142.29255 20.396,35.8262 38.3104,73.06316 53.5629,111.36274 17.0773,42.89362 30.7996,87.11877 40.9935,132.14884 12.7559,56.29013 19.9993,113.81876 21.6975,171.50906 2.3086,77.6234 -5.3487,155.5548 -23.0335,231.1779 -9.3235,39.8886 -21.4163,79.1273 -36.1457,117.3501 -18.172,47.1296 -40.3689,92.7058 -66.2598,136.0765 -40.2931,67.5059 -89.5158,129.6638 -145.9643,184.3822 -63.9514,62.0239 -137.1637,114.4942 -216.5324,154.973 -0.9233,0.4755 -1.852,0.9407 -2.778,1.4112 7.7315,22.3321 15.4654,44.6634 23.1953,66.9961 -66.7513,0 -133.5026,0 -200.2539,0 -64.0498,16.6823 -129.9591,26.1874 -196.1111,28.3479 -10.3812,0.3562 -20.7729,0.4846 -31.1579,0.5271 -1.4544,0.3561 -2.9308,-0.8983 -2.8794,-2.3828 0.078,-18.2304 0.079,-36.4634 0.1274,-54.6948 0.09,-45.1337 0.1807,-90.2673 0.271,-135.4009 -41.3385,0 -82.6771,0 -124.0156,0 -17.93324,54.5344 -35.86411,109.0696 -53.79883,163.6035 -85.38607,0 -170.77213,0 -256.1582,0 105.13092,-296.4348 210.25702,-592.8714 315.38673,-889.3066 39.9388,0 79.8776,0 119.8164,0 0.226,-290.15043 0.451,-580.30082 0.6777,-870.45121 0.6699,0.004 1.3399,0.008 2.0098,0.0117 z m -54.3008,1376.97459 c 16.9408,0 33.8815,0.01 50.8223,0.01 0.097,-48.3835 0.194,-96.7669 0.291,-145.1504 -0.4531,-1.3587 -0.9063,-2.7175 -1.3594,-4.0762 -16.5846,49.739 -33.1693,99.4779 -49.7539,149.2168 z" /><path
   id="path3713-3"
   style="fill:none;stroke:#000000;stroke-width:0.0952661"
   d="m 779.63086,1937.0234 c 45.44792,0 90.89583,0 136.34375,0 17.93324,-54.5344 35.86411,-109.0696 53.79883,-163.6035 108.54496,0 217.08986,0 325.63476,0 17.9347,54.5339 35.8656,109.0691 53.7988,163.6035 45.4877,0 90.9753,0 136.4629,0 -89.7187,-259.1022 -179.4375,-518.2044 -269.1562,-777.3066 -53.7481,0 -107.4961,0 -161.2442,0 -91.87953,259.1022 -183.75908,518.2044 -275.63864,777.3066 z m 355.95314,-647.332 c 39.9215,119.759 79.8366,239.5202 119.7578,359.2793 1.8527,6.6053 -2.0985,14.2828 -8.625,16.4824 -3.7467,1.2885 -7.7486,0.6389 -11.6215,0.8008 -76.2759,0 -152.5518,0 -228.8277,0 42.4754,-127.4173 84.9474,-254.8357 127.4199,-382.2539 0.6322,1.8971 1.2643,3.7943 1.8965,5.6914 z" />
<style
   type="text/css"
   id="style839">
	.st0{fill:none;stroke:#000000;stroke-miterlimit:10;}
</style></svg>
