<?xml version="1.0" encoding="UTF-8" standalone="no"?>
<svg
   xmlns:dc="http://purl.org/dc/elements/1.1/"
   xmlns:cc="http://creativecommons.org/ns#"
   xmlns:rdf="http://www.w3.org/1999/02/22-rdf-syntax-ns#"
   xmlns:svg="http://www.w3.org/2000/svg"
   xmlns="http://www.w3.org/2000/svg"
   version="1.1"
   id="svg8"
   x="0px"
   y="0px"
   width="2267.717px"
   height="2267.717px"
   viewBox="0 0 2267.717 2267.717"
   enable-background="new 0 0 2267.717 2267.717"
   xml:space="preserve"><metadata
   id="metadata8"><rdf:RDF><cc:Work
       rdf:about=""><dc:format>image/svg+xml</dc:format><dc:type
         rdf:resource="http://purl.org/dc/dcmitype/StillImage" /><dc:title></dc:title></cc:Work></rdf:RDF></metadata><defs
   id="defs6">
	
</defs>

<path
   id="path853"
   style="fill:none;stroke-width:0.970984"
   d="m 1125.543,5.9589844 c -18.8743,0.2201272 -37.6757,0.743423 -56.5157,1.8085937 -4.8056,0.2785847 -9.7567,0.580659 -14.5693,0.9195205 -31.2102,2.1706094 -62.37489,5.6083494 -93.2705,10.3695424 -36.90544,5.672622 -73.55719,13.172347 -109.76804,22.516181 -28.18125,7.26466 -56.1502,15.64862 -83.70318,25.106957 -21.76312,7.472601 -43.39909,15.648907 -64.60284,24.43305 -40.25853,16.663461 -79.7002,35.756051 -117.80531,57.028391 -51.19549,28.58826 -100.22473,61.23383 -146.38112,97.45378 -39.44177,30.94086 -76.89696,64.57285 -111.91459,100.49722 -16.82613,17.2593 -33.09867,35.05761 -48.79172,53.35309 -35.21032,41.07195 -67.54865,84.73738 -96.53887,130.45869 -30.22974,47.67027 -56.97391,97.79851 -79.71503,149.56885 -7.578183,17.20878 -14.679581,34.59208 -21.390872,52.17541 -10.318373,27.12447 -19.659372,54.79777 -27.818927,82.64976 -8.211463,27.95582 -15.305889,56.191 -21.319501,84.71175 -7.288358,34.63345 -12.941014,69.57887 -16.940859,104.78453 -2.352519,20.6977 -4.103976,41.4955 -5.3143291,62.3091 -0.6508646,11.4119 -1.157933,22.9546 -1.4810967,34.3983 -0.6134619,21.6618 -0.5969831,43.3934 0.029254,65.0217 1.0482886,35.4714 3.7056182,70.7741 8.0347262,105.9785 5.806586,47.2763 14.682202,94.3102 26.487443,140.5659 4.248747,16.641 8.909192,33.2862 13.92698,49.701 10.902809,35.7066 23.629208,70.9233 38.076472,105.4137 25.67096,61.287 56.89323,120.4115 93.03711,176.2508 6.78731,10.4802 13.81651,20.9624 20.95201,31.2079 13.42654,19.3222 27.46877,38.2159 42.08096,56.6576 56.54992,71.3791 121.8562,135.9612 193.86951,191.7748 58.7338,45.5383 121.95434,85.2287 188.5038,118.3317 29.7298,14.7806 60.24794,28.3064 91.24602,40.4067 44.56248,17.4177 90.24746,31.9345 136.71581,43.502 24.12474,6.0046 48.57888,11.2326 73.05531,15.6089 18.96901,3.3906 38.00141,6.2896 57.08807,8.7138 13.78691,1.7406 27.60591,3.2256 41.44731,4.4629 12.6211,1.1151 25.3779,2.0351 38.074,2.7442 10.3111,0.5644 20.7706,1.0074 31.1044,1.2943 22.5985,0.629 45.2155,0.6034 67.8118,-0.1049 14.4738,-0.4715 29.0538,-1.1957 43.498,-2.1855 22.8329,-1.5713 45.628,-3.8599 68.3442,-6.8332 49.3203,-6.4479 98.3351,-16.2137 146.4453,-29.1982 38.2052,-10.2877 75.9499,-22.6618 112.8971,-36.9803 52.12,-20.2149 102.862,-44.382 151.4357,-72.1819 72.0585,-41.2138 139.5696,-90.4443 200.8843,-146.4723 20.8784,-19.0688 41.0451,-38.9168 60.4466,-59.4865 17.1744,-18.2276 33.8114,-37.0778 49.7603,-56.4289 31.7316,-38.4804 60.9761,-79.1564 87.3776,-121.5712 10.9747,-17.6254 21.4596,-35.5521 31.4826,-53.8308 18.0163,-32.8745 34.4728,-66.79 49.1204,-101.3747 8.0141,-18.9065 15.546,-38.13 22.4999,-57.4198 11.235,-31.1573 21.0439,-62.7738 29.4617,-94.8099 10.0308,-38.1152 18.0347,-76.8547 23.9807,-115.9043 4.6887,-30.7509 8.1016,-61.8335 10.2293,-92.8484 0.9524,-13.8895 1.6412,-27.7953 2.0894,-41.6831 0.7891,-24.8323 0.7725,-49.7322 -0.045,-74.5371 -1.4632,-43.7123 -5.4183,-87.3421 -11.9129,-130.6381 -2.461,-16.42642 -5.3296,-32.86312 -8.5051,-49.19783 -1.6109,-8.19143 -3.3277,-16.4869 -5.1305,-24.6867 -4.9407,-22.51566 -10.5942,-44.96743 -16.9371,-67.16528 -14.2733,-50.02036 -32.0664,-99.14239 -53.2017,-146.71604 -8.3981,-18.92942 -17.3689,-37.70469 -26.8269,-56.19863 -4.156,-8.12579 -8.4627,-16.28895 -12.8212,-24.31647 -16.8605,-31.03507 -35.1718,-61.24872 -54.887,-90.56618 -8.1269,-12.09221 -16.5109,-24.05225 -25.1304,-35.85799 -27.0569,-37.0609 -56.428,-72.54443 -87.8032,-106.07804 -31.4814,-33.64483 -65.0712,-65.42765 -100.4394,-95.00994 -28.6205,-23.94807 -58.5697,-46.57432 -89.4182,-67.54721 -20.5122,-13.95559 -41.5325,-27.2628 -62.8888,-39.82041 -30.5606,-17.9525 -61.9628,-34.47331 -94.0839,-49.45703 -22.7401,-10.60576 -45.932,-20.495079 -69.3739,-29.557613 -15.5521,-6.021625 -31.3661,-11.733048 -47.1746,-17.053813 -11.9095,-4.001648 -23.833,-7.793404 -35.8529,-11.389392 -27.9329,-8.355254 -56.2829,-15.641383 -84.8242,-21.782389 -14.2758,-3.079303 -28.7119,-5.894385 -43.0774,-8.402984 -25.0307,-4.390653 -50.213,-7.914324 -75.4841,-10.5892 -16.5333,-1.750445 -33.1204,-3.1387193 -49.7292,-4.1563372 -25.9704,-1.5953845 -52.043,-2.2820056 -78.1048,-2.1405374 z M 1092.8906,164.40234 c 38.832,0.21692 77.7278,0.012 116.4583,3.22101 113.6593,8.77724 225.7486,37.8454 329.2398,85.68183 79.7476,36.81092 154.4167,84.57681 221.332,141.46814 82.2773,69.92257 152.8068,153.64053 207.6459,246.65533 34.554,58.63047 62.9262,120.91032 84.3854,185.49535 16.4993,49.58199 28.8897,100.52226 37.1068,152.12681 16.4537,103.30509 16.1338,209.26719 -0.9472,312.47139 -11.8479,71.6565 -31.8476,141.9651 -59.5347,209.1122 -29.5429,71.7195 -67.779,139.854 -113.6103,202.4308 -33.2242,45.3969 -70.3469,87.9591 -110.9801,126.8721 -26.8205,25.5257 -56.156,48.236 -86.0966,69.9547 -12.988,9.408 -26.1272,18.6073 -39.4075,27.5982 15.3117,44.241 30.625,88.4814 45.9356,132.7227 -105.5443,0 -211.0886,0 -316.6328,0 -36.6557,11.4555 -74.2848,19.4987 -112.0944,26.0715 -53.8788,9.1404 -108.5278,13.6355 -163.1716,13.7875 -7.5491,-0.086 -15.2185,-1.6462 -21.7913,-5.4794 -12.8424,-7.083 -21.624,-21.0736 -22.1929,-35.756 -0.3396,-6.3784 0.074,-12.7652 -0.054,-19.1474 0.1385,-68.0819 0.2771,-136.1638 0.4157,-204.2457 -42.2858,0 -84.5716,0 -126.85744,0 -24.63831,74.923 -49.27429,149.8469 -73.91406,224.7695 -118.59766,0 -237.19531,0 -355.79297,0 144.8672,-408.4687 289.72972,-816.9391 434.5957,-1225.40821 41.14327,0 82.28647,0 123.42967,0 0.1746,-223.47136 0.3482,-446.94271 0.5235,-670.41407 0.6699,0.004 1.3398,0.008 2.0097,0.0117 z m -28.4883,1366.31646 c 8.3425,-0 16.6849,-0.01 25.0274,-0.01 0.042,-25.1458 0.083,-50.2917 0.125,-75.4375 -8.3841,25.1491 -16.7682,50.2982 -25.1524,75.4473 z" /><path
   id="path3713-3"
   style="fill:none;stroke:#000000;stroke-width:0.122457"
   d="m 1006.4481,911.0679 c -123.97043,360.2092 -247.93721,720.4196 -371.90895,1080.6281 81.06646,0 162.13295,0 243.19941,0 22.70978,-71.1638 45.41509,-142.3292 68.12314,-213.4937 121.5418,0 243.0835,0 364.6252,0 22.7074,71.1645 45.4117,142.3299 68.1208,213.4937 80.9497,0 161.8995,0 242.8491,0 -121.1857,-360.7537 -242.3734,-721.5066 -363.5624,-1082.25905 -83.6282,0 -167.2564,0 -250.8847,0 -0.1873,0.54364 -0.3744,1.0873 -0.5616,1.63095 z m 123.2705,304.732 c 24.9736,77.7711 51.2894,155.0819 76.7597,232.6729 13.1559,40.0456 26.0137,80.2415 38.1107,120.6578 -76.8874,0.3602 -153.7743,0.8219 -230.6621,1.155 38.4131,-118.739 76.8262,-237.478 115.2395,-356.2171 0.184,0.5771 0.3681,1.1542 0.5522,1.7314 z" />
<style
   type="text/css"
   id="style839">
	.st0{fill:none;stroke:#000000;stroke-miterlimit:10;}
</style></svg>
