<?xml version="1.0" encoding="utf-8"?>
<!-- Generator: Adobe Illustrator 22.1.0, SVG Export Plug-In . SVG Version: 6.00 Build 0)  -->
<svg version="1.1"
	 id="svg8" inkscape:version="0.92.4 (5da689c313, 2019-01-14)" sodipodi:docname="animalia.svg" xmlns:cc="http://creativecommons.org/ns#" xmlns:dc="http://purl.org/dc/elements/1.1/" xmlns:inkscape="http://www.inkscape.org/namespaces/inkscape" xmlns:rdf="http://www.w3.org/1999/02/22-rdf-syntax-ns#" xmlns:sodipodi="http://sodipodi.sourceforge.net/DTD/sodipodi-0.dtd" xmlns:svg="http://www.w3.org/2000/svg"
	 xmlns="http://www.w3.org/2000/svg" xmlns:xlink="http://www.w3.org/1999/xlink" x="0px" y="0px" viewBox="0 0 2267.7 2267.7"
	 style="enable-background:new 0 0 2267.7 2267.7;" xml:space="preserve">
<style type="text/css">
	.st0{fill:none;stroke:#000000;stroke-width:0.25;}
</style>
<sodipodi:namedview  bordercolor="#666666" borderopacity="1.0" id="base" inkscape:current-layer="layer1" inkscape:cx="1606.1357" inkscape:cy="540.22389" inkscape:document-units="mm" inkscape:pageopacity="0.0" inkscape:pageshadow="2" inkscape:window-height="962" inkscape:window-maximized="1" inkscape:window-width="1280" inkscape:window-x="-8" inkscape:window-y="-8" inkscape:zoom="0.1400905" pagecolor="#ffffff" showgrid="false">
	</sodipodi:namedview>
<path id="path3713" inkscape:connector-curvature="0" class="st0" d="M2143.5,2046.6c-14.1,24.2-27.6,46-43.5,67.2
	c-25.7,38.9-87.5,60.5-130.6,41.3c-40.8-18.6-82.4-24.7-122.1-37.9c-28.5-7.6-57-15.3-63.6-47.6c-5.5-26.9,3.9-52.4,28-66.3
	c30.1-17.4,59.4-22.2,91.3-8.6c6.5,4.3,15.3,9.2,21.8,13.5c55.5,30.2,60.9,29.1,83.9-28.4c12.4-27.2,17.7-56.3,18.2-86.7
	c1.3-4.7-1.6-13.1-5-19.2c-12.2-21.1-24.3-42.1-36.5-63.2c-58.9,30-116.1,63-188,46.3c-103.3-22.6-155.1-95-146.6-212.3
	c3.7-42.3,14.5-82.6,34.8-120.4c4.3-6.5,8.6-13,6.4-23.7c-61.8,59.7-91.7,133.1-86,216.1c3.9,51.9-18.8,89.1-48.6,124.3
	c-37.7,45.8-76.8,96.4-137.9,115.7c-79,85.7-165.3,47.2-250.6,14.2c-7.1-1.9-11.2-5.6-16-6.8c-55-22.4-62-34.4-39.6-89.5
	c8.1-20.7,25.5-28.8,46.4-30.8c44.8-5.8,88.2,3.3,132.1,10c50.5,11,73.5-8.3,95.7-53.2c38.3-76.2,36-153.2,27.3-234.4
	c-6.3-52.6-11.2-109.9-12.1-163.5c-0.8-25.6,3.2-50,7.2-74.4c1.4-14.9,1-22.6-16.3-24.7c-56.5-7.5-116-13.3-171.9-23.2
	c-68.4-10.7-134.2-30.9-199.4-53.5c-16.6-4.5-36.9-4.8-50.3-21.1c-4.1-3.6-11.2-5.6-13.1,1.6c-19.2,43.2-65.1,43.6-97.8,70.5
	c-29.6,25.1-69.7,32.2-103.4,53.7c-33.7,21.5-63.4,46.6-74.2,86.9c-1.9,7.1-4.5,16.6-10.5,20.1c-37.1,43.5-58.9,96.1-84.7,145.2
	c-52.4,100.4-162.1,139.7-264.5,94.4c-20.1-10.5-46.2-17.5-64.4-35.1c-28.8-25.5-39-53.7-24.9-77.9c14.8-26.6,62.9-54.4,89-47.4
	c21.4,5.7,44.5,14.5,65.8,20.2c28.5,7.6,41.2-1.7,51.2-29.5c10.6-30.2,9.3-53.5-8.1-83.6c-36.5-63.2-27.7-124.4,47.2-147.6
	c16.1-3.3,19.3-15.2,22.5-27c11.5-80.9,32.5-159.2,53.5-237.5c7-26.1,0.9-50.6-11.3-71.7c-13.9-24.1-24.1-52.3-35-78.1
	C491,809.5,466.9,757.3,418,721.3c-27.7-20.1-45.7-47.9-60.7-77.3c-4.6-11.4-11.7-13.3-22.5-11.1c-35.8,0.6-64.6,13.2-85.4,43.2
	c-32.4,44.7-84.7,40.9-125.6,22.3c-33.7-16.7-42.7-49.6-26-83.3c3.6-4.1,7.3-8.2,8.6-13c10.7-30.2,8.3-30.9-24.5-32
	c-35.1-1.8-58.5-28.4-58.3-76.7c-0.9-15.5-0.8-25.6-10.7-35.9c-13.4-16.3-16.1-34.8,3.2-50c13.3-11.7,27.3-25.8,42.9-36.8
	c22.3-16.9,44-31.4,39.4-70.9c-9.4-40.7,32.5-54.9,56.6-68.8c56.6-30.6,118.1-42.1,181.9-42.8c30.4,0.5,95.9-63.3,127.1-75.3
	c5.4-1.1,11.4-4.6,19.8-7.4c-0.8,12.5,3.2,54.3,3.1,64.4c-3.2,11.9-33.5,39.4-21,40.2c41.6,6.1,87.5,43.8,123.1,15.2
	c56.7-40.8,56.2-10.4,65,32.7c0.5,7.8,10.6,7.9,17.7,9.8c37.3,12.6,71.7,26.9,106.6,38.8c70.6,21.5,121,70.6,175,115.6
	c45.2,40.1,90.6,70.1,153.1,74.1c37.5,2.4,68.8,18.5,102.5,35.1c50.3,21.1,104.4,28,159.4,22.4c135.5-12,270.5,6.4,401,41.4
	c59.3,15.9,113.7,40.7,171.2,63.7c43.2,19.2,84,37.8,115.6,71.7c98.3,107.8,148.1,225.5,108.7,372.6c-12.7,47.5-13,95.7-13.2,144
	c-6.5,100,2.6,199.1-6.3,298.5c-2.1,17.2,2,20.9,17.5,20c23.3-1.4,46.5-2.8,69.2-1.8c14.9,1.4,31.5,5.9,31.8,23.8
	c2.7,18.5,3,36.4-15.1,46.8c-29.5,15-58.3,27.6-88.9,37.2c-12,6.9-18.7,12.8-13,29.6c11.6,51.5,23.9,100.5,52.3,146.3
	c14.5,21.7,5.8,44.8,0.1,66.2C2189.1,1962.2,2169.8,2005.3,2143.5,2046.6z M1957.8,1648.3c-43-67.5-80.5-136.1-88.6-219.7
	c-1.2-33.4-28.3-17.8-33.2-8.9c-47.1,71.3-99.6,143.7-79.2,238.3c7.7,37.7,18.2,83.8,56.8,91.6c50.5,11,84.7-2.7,121.3-15.8
	c0,0,43.9-12.3,46.5-25.6C1984.4,1693.2,1957.8,1648.3,1957.8,1648.3z"/>
</svg>
