<?xml version="1.0" encoding="utf-8"?>
<!-- Generator: Adobe Illustrator 22.1.0, SVG Export Plug-In . SVG Version: 6.00 Build 0)  -->
<svg version="1.1"
	 id="svg8" inkscape:version="0.92.4 (5da689c313, 2019-01-14)" sodipodi:docname="anthocerotophyta.svg" xmlns:cc="http://creativecommons.org/ns#" xmlns:dc="http://purl.org/dc/elements/1.1/" xmlns:inkscape="http://www.inkscape.org/namespaces/inkscape" xmlns:rdf="http://www.w3.org/1999/02/22-rdf-syntax-ns#" xmlns:sodipodi="http://sodipodi.sourceforge.net/DTD/sodipodi-0.dtd" xmlns:svg="http://www.w3.org/2000/svg"
	 xmlns="http://www.w3.org/2000/svg" xmlns:xlink="http://www.w3.org/1999/xlink" x="0px" y="0px" viewBox="0 0 2267.7 2267.7"
	 style="enable-background:new 0 0 2267.7 2267.7;" xml:space="preserve">
<style type="text/css">
	.st0{fill:none;stroke:#000000;stroke-width:0.2646;}
</style>
<sodipodi:namedview  bordercolor="#666666" borderopacity="1.0" id="base" inkscape:current-layer="layer1" inkscape:cx="798.46106" inkscape:cy="746.40418" inkscape:document-units="mm" inkscape:pageopacity="0.0" inkscape:pageshadow="2" inkscape:window-height="962" inkscape:window-maximized="1" inkscape:window-width="1280" inkscape:window-x="-8" inkscape:window-y="-8" inkscape:zoom="0.1400905" pagecolor="#ffffff" showgrid="false">
	</sodipodi:namedview>
<path class="st0" d="M1237,1379.1c-55.6,2.9-38-26.3-43.9-43.9c-11.7-38-23.4-76.1-32.2-117c-17.6-93.6-67.3-187.2-35.1-286.7
	c2.9-5.9-2.9-11.7-11.7-11.7c-35.1,0-23.4-20.5-26.3-32.2c-5.9-38-55.6-67.3-79-114.1c-29.3,67.3,8.8,122.9,0,175.5
	c-29.3,0-8.8-26.3-26.3-29.3c-46.8,23.4-17.6,49.7-14.6,76.1c8.8,35.1,61.4,38,73.1,73.1c29.3,96.5,52.7,193.1,81.9,289.6
	c2.9,17.6,5.9,35.1-14.6,58.5c-14.6-55.6-26.3-102.4-41-160.9c-14.6,46.8,38,87.8-14.6,119.9c29.3,20.5,14.6,35.1-11.7,49.7
	c-8.8,2.9-5.8,17.6,5.9,17.6c32.2-5.9,26.3,14.6,35.1,26.3c35.1,32.2,46.8,73.1,64.4,108.2c-2.9-23.4-5.9-49.7-8.8-73.1
	c58.5,134.6,105.3,275,128.7,421.2c-29.3-14.6-14.6-38-38-46.8c-41,32.2-55.6,29.3-76.1-11.7c-55.6-114.1-105.3-225.2-158-336.4
	c-8.8-20.5-5.8-35.1,11.7-49.7c23.4-20.5,20.5-52.7-8.8-55.6c-61.4-5.9-55.6-41-64.4-64.4c-23.4-61.4-38-119.9-58.5-181.4
	c-5.9-23.4-26.3-52.7-17.6-73.1c8.8-20.5,55.6,2.9,79-11.7c-23.4-52.7-99.5-81.9-117-131.6c-38-108.2-67.3-219.4-84.8-330.6
	c-2.9-11.7,0-23.4,17.6-26.3c61.4,0,64.4-26.3,55.6-61.4c-5.9-23.4-14.6-43.9-49.7-46.8c-41-2.9-46.8-20.5-43.9-46.8
	c2.9-49.7-11.7-102.4-14.6-160.9c-49.7,49.7-90.7,73.1-93.6,38c-5.9,0-11.7,0-17.6,2.9c5.9,52.7-8.8,108.2,26.3,158
	c20.5,29.3,8.8,38-26.3,41c-32.2,2.9-61.4,8.8-64.4,35.1c-2.9,32.2,29.3,58.5,26.3,87.8c0,2.9,20.5,8.8,26.3,5.9
	c70.2-29.3,64.4,23.4,79,43.9c52.7,81.9,20.5,172.6,49.7,257.4c0,8.8,2.9,20.5-2.9,23.4c-61.4,29.3-17.6,73.1-23.4,111.2
	c-2.9,17.6,8.8,20.5,26.3,14.6c11.7-5.8,20.5-14.6,32.2-14.6c26.3,87.8,49.7,172.6,81.9,254.5c17.6,46.8,23.4,87.8-5.9,131.6
	c-29.3,38,8.8,76.1,64.4,73.1c11.7-2.9,8.8,5.9,14.6,8.8c102.4,55.6,84.8,146.3,125.8,216.5c-23.4-14.6-11.7-41-46.8-61.4
	c14.6,35.1,5.9,73.1,38,90.7c55.6,29.3,125.8,76.1,155,119.9c-26.3-5.9-20.5-26.3-43.9-29.3c14.6,32.2-2.9,35.1-38,23.4
	c-108.2-35.1-190.1-102.4-254.5-166.7c-108.2-105.3-175.5-231.1-228.2-359.8c-29.3-73.1-41-149.2-67.3-222.3
	c-8.8-29.3-5.9-49.7,35.1-67.3c58.5-23.4,26.3-55.6,8.8-84.8c-17.6-35.1-46.8-20.5-84.8-5.9c-2.9-117-90.7-222.3-32.2-336.4
	c5.9-5.9,2.9-26.3-5.9-20.5c-46.8,26.3-23.4-8.8-26.3-14.6c-5.9-29.3,2.9-61.4-14.6-93.6c-20.5,17.6-90.7,55.6-87.8,70.2
	c8.8,29.3-29.3,2.9-32.2,17.6c-2.9,32.2-52.7,67.3-2.9,102.4c8.8,5.9,8.8,23.4,11.7,35.1c29.3,131.6,43.9,263.3,111.2,392
	c46.8,93.6,64.4,193.1,70.2,292.5c-26.3,5.9-55.6-11.7-76.1,11.7c-8.8,5.9,46.8,81.9,61.4,87.8c23.4,8.8,35.1-5.9,41-26.3
	c41,49.7,61.4,99.5,114.1,134.6c38,23.4,79,58.5,52.7,108.2c-5.8,14.6,5.9,23.4,23.4,29.3c20.5,5.9,38,17.6,55.6,32.2
	c43.9,35.1,96.5,67.3,134.6,108.2c49.7,46.8,131.6,55.6,201.8,79c26.3,8.8,29.3,11.7,29.3,32.2c0,55.6,70.2,96.5,111.2,152.1
	c0-73.1,0-149.2,0-225.2c5.8,0,11.7,0,17.6,0c52.7,81.9,55.6,178.4,114.1,260.4c35.1-23.4,14.6-52.7,38-79
	c14.6,29.3-5.9,49.7-2.9,73.1c2.9,11.7,0,23.4,20.5,26.3c20.5,0,87.8-17.6,90.7-26.3c11.7-90.7,26.3-178.4,35.1-266.2
	c5.9-52.7,14.6-99.5,102.4-117c-38-14.6-64.4-26.3-26.3-49.7c11.7-5.8,8.8-20.5-11.7-23.4c-23.4-5.9-17.6-20.5-14.6-29.3
	c5.9-23.4,14.6-46.8,20.5-70.2c14.6-67.3,38-134.6,46.8-201.8c5.8-64.4,73.1-108.2,64.4-181.4c-8.8-67.3,17.6-143.3,46.8-213.5
	c29.3-70.2,26.3-149.2,73.1-216.5c23.4-38,23.4-49.7,46.8-55.6c-5.8-20.5-49.7-17.6-43.9-46.8c23.4-114.1,43.9-228.2,67.3-339.3
	c5.9-35.1,26.3-61.4,84.8-67.3c-32.2-23.4-67.3-38-58.5-73.1c5.9-38,11.7-76.1,17.6-117c5.9-46.8,11.7-96.5,26.3-143.3
	c2.9-8.8-67.3-26.3-93.6-23.4c-14.6,0-38-8.8-38,11.7c-2.9,14.6-5.9,29.3,2.9,41c17.6,20.5,14.6,41,11.7,64.4
	c-11.7,67.3-20.5,131.6-64.4,193.1c-11.7,20.5-26.3,0-41,8.8c29.3,20.5,2.9,49.7,23.4,70.2c41,41,17.6,81.9,5.8,117
	c-17.6,49.7-49.7,99.5-61.4,152.1c-2.9,32.2-2.9,67.3-23.4,90.7c-17.6,20.5-17.6,29.3-17.6,49.7c-5.9,38-23.4,76.1,14.6,111.2
	c2.9,2.9-2.9,8.8-5.8,11.7c-17.6,84.8-29.3,169.7-55.6,254.5c-11.7,43.9-5.9,93.6-52.7,131.6c11.7-49.7,23.4-102.4,35.1-155
	c-11.7,73.1-79,134.6-84.8,204.8c-5.9,73.1-35.1,143.3-46.8,216.5c-14.6,73.1-41,143.3-70.2,213.5c-14.6-8.8-26.3-20.5-43.9-26.3
	c-11.7-5.9-23.4,0-32.2,8.8c-2.9,5.9-2.9,11.7,8.8,8.8c38-5.9,26.3,17.6,32.2,29.3c38,96.5,2.9,187.2-11.7,280.8
	c-26.3-64.4-90.7-131.6,8.8-201.8c-67.3,35.1-55.6-35.1-96.5-35.1c-2.9,0-8.8-23.4-8.8-38c14.6-108.2,38-216.5,70.2-321.8
	c2.9-11.7,20.5-32.2,35.1-26.3c49.7,26.3,43.9-17.6,64.4-29.3c14.6-5.9,52.7-61.4,38-61.4c-20.5,0-20.5,23.4-46.8,17.6
	c-5.9-93.6,26.3-181.4,38-272.1c2.9-20.5,8.8-38,14.6-55.6c32.2,2.9,84.8,38,58.5-29.3c-5.9-11.7-8.8-43.9,5.9-58.5
	c23.4-23.4-5.9-32.2-20.5-38c-35.1-11.7-8.8,23.4-32.2,29.3c0-8.8-2.9-17.6-2.9-23.4c2.9-117,26.3-231.1,20.5-348.1
	c0-14.6,11.7-23.4,26.3-32.2c20.5-14.6,32.2-38,5.8-49.7c-35.1-17.6-29.3-38-32.2-58.5c-8.8-99.5-84.8-201.8-93.6-307.2
	c-46.8,61.4-43.9,190.1-2.9,263.3c5.9,11.7,5.9,32.2-11.7,52.7c-17.6,20.5-41,14.6-58.5,23.4c-32.2,11.7-43.9,29.3-43.9,55.6
	c2.9,17.6,17.6,23.4,41,26.3c49.7,5.9,81.9,38,73.1,73.1c-14.6,67.3,0,131.6-35.1,198.9c-17.6,29.3-2.9,70.2-2.9,102.4
	c-26.3,11.7-46.8-17.6-67.3,2.9c-17.6,20.5,8.8,29.3,17.6,43.9c14.6,20.5,41,43.9,29.3,70.2c-20.5,49.7,5.9,102.4-20.5,152.1
	c-8.8,14.6-17.6,46.8-8.8,61.4c17.6,29.3-17.6,52.7,0,84.8c11.7,17.6-20.5,17.6-38,8.8C1263.3,1358.6,1255.2,1369.6,1237,1379.1"/>
</svg>
