<?xml version="1.0" encoding="utf-8"?>
<!-- Generator: Adobe Illustrator 22.1.0, SVG Export Plug-In . SVG Version: 6.00 Build 0)  -->
<svg version="1.1"
	 id="svg8" inkscape:version="0.92.4 (5da689c313, 2019-01-14)" sodipodi:docname="apendice-iii.svg" xmlns:cc="http://creativecommons.org/ns#" xmlns:dc="http://purl.org/dc/elements/1.1/" xmlns:inkscape="http://www.inkscape.org/namespaces/inkscape" xmlns:rdf="http://www.w3.org/1999/02/22-rdf-syntax-ns#" xmlns:sodipodi="http://sodipodi.sourceforge.net/DTD/sodipodi-0.dtd" xmlns:svg="http://www.w3.org/2000/svg"
	 xmlns="http://www.w3.org/2000/svg" xmlns:xlink="http://www.w3.org/1999/xlink" x="0px" y="0px" viewBox="0 0 2267.7 2267.7"
	 style="enable-background:new 0 0 2267.7 2267.7;" xml:space="preserve">
<style type="text/css">
	.st0{fill:none;stroke:#000000;stroke-width:0.2646;}
</style>
<sodipodi:namedview  bordercolor="#666666" borderopacity="1.0" id="base" inkscape:current-layer="layer1" inkscape:cx="1188.0825" inkscape:cy="940.52369" inkscape:document-units="mm" inkscape:pageopacity="0.0" inkscape:pageshadow="2" inkscape:window-height="962" inkscape:window-maximized="1" inkscape:window-width="1280" inkscape:window-x="-8" inkscape:window-y="-8" inkscape:zoom="0.1400905" pagecolor="#ffffff" showgrid="false">
	</sodipodi:namedview>
<path id="path3713" inkscape:connector-curvature="0" class="st0" d="M2255.9,1145c-5.1,293.3-119.9,566.2-331.5,770.2
	c-145.4,160.7-336.6,262.7-548.3,308.6c-357,81.6-726.9-12.8-994.6-262.7c-178.5-153-298.4-357.1-344.3-586.6
	c-81.6-351.9,12.8-726.9,267.8-994.6c160.7-178.5,369.8-306,607-352c51-5.1,107.1-12.8,165.8-12.8h1127.3c51,0,51,0,51,51
	C2255.9,430.9,2263.5,788,2255.9,1145z M1847.8,686h109.7V181h-109.7L1847.8,686L1847.8,686z M1618.3,686h109.7V181h-109.7V686z
	 M1383.6,686h107.1V181h-107.1V686z M771.5,1004.8c30.6-20.4,68.9-25.5,102-25.5c30.6,5.1,63.8,12.8,89.3,30.6
	c17.9-56.1,38.3-114.8,56.1-178.5c-51-25.5-102-38.3-153-43.4c-56.1-7.7-114.8,0-170.9,17.9C598.1,839,529.3,902.8,491,992
	c-25.5,51-33.2,102-33.2,158.1c0,58.7,20.4,109.7,45.9,153c25.5,38.3,56.1,76.5,94.4,102c38.3,25.5,84.2,51,127.5,63.8
	c-43.4,20.4-94.4,25.5-140.3,25.5c-43.4,0-89.3-12.8-132.6-25.5c-71.4-30.6-140.3-68.9-198.9-119.9
	c76.5,114.8,198.9,196.4,331.5,221.9c45.9,12.8,84.2,12.8,127.5,7.7c38.3,0,71.4-12.8,109.7-25.5c56.1-20.4,114.8-45.9,158.1-84.2
	c7.7,0,12.8-12.8,12.8-17.9c-5.1,5.1-17.9,17.9-30.6,25.5c-45.9,25.5-84.2,43.4-127.5,63.8c-63.8,30.6-140.3,43.4-211.7,38.3
	c-38.3-7.7-68.9-12.8-102-25.5c-81.6-33.2-158.1-84.2-221.9-153c76.5,63.8,170.9,94.4,267.8,107.1c38.3,0,76.5-5.1,114.8-12.8
	c63.8-5.1,127.5-30.6,178.5-68.9c38.3-20.4,76.5-45.9,107.1-76.5c12.8-12.8,25.5-20.4,33.2-33.2c0-5.1,0-17.9,0-25.5v-76.5
	c-45.9,45.9-109.7,71.4-173.4,71.4c-30.6-7.7-63.8-20.4-89.3-38.3c-25.5-20.4-43.4-45.9-51-76.5
	C669.5,1106.8,700.1,1035.4,771.5,1004.8z M1319.9,1655.1h-122.4v-492.2h-94.4v624.8c68.9,0,145.4,0,216.8,0
	C1312.2,1736.7,1312.2,1693.4,1319.9,1655.1z M1472.9,1596.5c0-165.8,0-331.5,0-489.7c63.8,0,127.5,0,183.6,0
	c-17.9-63.8-43.4-135.2-63.8-198.9h-471.8c-25.5,63.8-43.4,135.2-63.8,198.9h191.3v489.7H1472.9z M1796.8,1609.2
	c-51,0-107.1,0-165.8,0v-81.6h71.4l38.3-165.8h-102c0-25.5,0-51,0-76.5h178.5c-20.4-71.4-45.9-140.3-71.4-211.7h-51l7.7,12.8
	l17.9,63.8h-63.8h-140.3c0,51,0,96.9,0,140.3c0,102,0,204,0,306v45.9h-114.8v140.3h357.1C1766.2,1731.6,1784,1673,1796.8,1609.2z
	 M2000.8,1565.8c7.7-25.5,12.8-51,20.4-84.2c0-30.6-7.6-63.8-25.5-94.4c-25.5-45.9-45.9-84.2-63.8-135.2
	c-20.4-25.5-25.5-51-25.5-81.6c5.1-20.4,30.6-38.3,56.1-38.3c20.4,0,33.2,5.1,45.9,17.9h5.1c-17.9-56.1-43.4-114.8-63.8-170.9
	c-38.3-20.4-76.5-25.5-114.8-25.5c-51,5.1-94.4,38.3-119.9,81.6h63.8l12.8,33.2l5.1,51c20.4,56.1,38.3,107.1,58.7,165.8l17.9,63.8
	H1784l-5.1,38.3l-7.7,12.8l7.7,5.1c5.1,12.8,5.1,20.4,12.8,33.2c5.1,17.9,0,43.4-20.4,51c-5.1,0-12.8,0-17.9,0l-12.8,56.1l-7.7,25.5
	h122.4l-12.8,58.7l-7.7,17.9C1906.5,1660.2,1970.2,1629.6,2000.8,1565.8"/>
</svg>
