<?xml version="1.0" encoding="utf-8"?>
<!-- Generator: Adobe Illustrator 22.1.0, SVG Export Plug-In . SVG Version: 6.00 Build 0)  -->
<svg version="1.1"
	 id="svg8" inkscape:version="0.92.4 (5da689c313, 2019-01-14)" sodipodi:docname="apendice-i.svg" xmlns:cc="http://creativecommons.org/ns#" xmlns:dc="http://purl.org/dc/elements/1.1/" xmlns:inkscape="http://www.inkscape.org/namespaces/inkscape" xmlns:rdf="http://www.w3.org/1999/02/22-rdf-syntax-ns#" xmlns:sodipodi="http://sodipodi.sourceforge.net/DTD/sodipodi-0.dtd" xmlns:svg="http://www.w3.org/2000/svg"
	 xmlns="http://www.w3.org/2000/svg" xmlns:xlink="http://www.w3.org/1999/xlink" x="0px" y="0px" viewBox="0 0 2267.7 2267.7"
	 style="enable-background:new 0 0 2267.7 2267.7;" xml:space="preserve">
<style type="text/css">
	.st0{fill:none;stroke:#000000;stroke-width:0.2646;}
</style>
<sodipodi:namedview  bordercolor="#666666" borderopacity="1.0" id="base" inkscape:current-layer="layer1" inkscape:cx="1188.0825" inkscape:cy="940.52369" inkscape:document-units="mm" inkscape:pageopacity="0.0" inkscape:pageshadow="2" inkscape:window-height="962" inkscape:window-maximized="1" inkscape:window-width="1280" inkscape:window-x="-8" inkscape:window-y="-8" inkscape:zoom="0.1400905" pagecolor="#ffffff" showgrid="false">
	</sodipodi:namedview>
<path id="path3713" inkscape:connector-curvature="0" class="st0" d="M2261.3,1145.1c-5.1,294.7-120.4,568.9-333.2,773.9
	c-146.1,161.4-338.3,264-551,310.1c-358.8,82-730.4-12.8-999.5-264c-179.4-153.8-299.8-358.8-346-589.4
	c-82-353.7,12.8-730.4,269.1-999.5C462.3,196.9,672.4,68.7,910.7,22.6c51.3-5.1,107.6-12.8,166.6-12.8H2210c51.3,0,51.3,0,51.3,51.3
	C2261.3,427.5,2269,786.3,2261.3,1145.1z M1851.3,683.8h110.2V176.4h-110.2V683.8z M769.8,1004.1c30.8-20.5,69.2-25.6,102.5-25.6
	c30.8,5.1,64.1,12.8,89.7,30.8c17.9-56.4,38.4-115.3,56.4-179.4c-51.3-25.6-102.5-38.4-153.8-43.6c-56.4-7.7-115.3,0-171.7,17.9
	c-97.4,33.3-166.6,97.4-205,187.1c-25.6,51.3-33.3,102.5-33.3,158.9c0,58.9,20.5,110.2,46.1,153.8c25.6,38.4,56.4,76.9,94.8,102.5
	c38.4,25.6,84.6,51.3,128.1,64.1c-43.6,20.5-94.8,25.6-141,25.6c-43.6,0-89.7-12.8-133.3-25.6c-71.8-30.8-141-69.2-199.9-120.4
	c76.9,115.3,199.9,197.3,333.2,223c46.1,12.8,84.6,12.8,128.1,7.7c38.4,0,71.8-12.8,110.2-25.6c56.4-20.5,115.3-46.1,158.9-84.6
	c7.7,0,12.8-12.8,12.8-17.9c-5.1,5.1-17.9,17.9-30.8,25.6c-46.1,25.6-84.6,43.6-128.1,64.1c-64.1,30.8-141,43.6-212.7,38.4
	c-38.4-7.7-69.2-12.8-102.5-25.6c-82-33.3-158.9-84.6-223-153.8c76.9,64.1,171.7,94.8,269.1,107.6c38.4,0,76.9-5.1,115.3-12.8
	c64.1-5.1,128.1-30.8,179.4-69.2c38.4-20.5,76.9-46.1,107.6-76.9c12.8-12.8,25.6-20.5,33.3-33.3c0-5.1,0-17.9,0-25.6v-76.9
	c-46.1,46.1-110.2,71.8-174.3,71.8c-30.8-7.7-64.1-20.5-89.7-38.4c-25.6-20.5-43.6-46.1-51.3-76.9
	C667.3,1106.7,698,1034.9,769.8,1004.1z M1320.8,1657.6h-123V1163h-94.8v627.9c69.2,0,146.1,0,217.8,0
	C1313.1,1739.6,1313.1,1696.1,1320.8,1657.6z M1474.5,1598.7c0-166.6,0-333.2,0-492c64.1,0,128.1,0,184.5,0
	c-17.9-64.1-43.6-135.8-64.1-199.9h-474.1c-25.6,64.1-43.6,135.8-64.1,199.9H1249v492H1474.5z M1800,1611.5c-51.3,0-107.6,0-166.6,0
	v-82h71.8l38.4-166.6h-102.5c0-25.6,0-51.3,0-76.9h179.4c-20.5-71.8-46.1-140.9-71.8-212.7h-51.3l7.7,12.8l17.9,64.1h-64.1h-140.9
	c0,51.3,0,97.4,0,141c0,102.5,0,205,0,307.5v46.1h-115.3v140.9h358.8C1769.3,1734.5,1787.2,1675.6,1800,1611.5z M2005,1567.9
	c7.7-25.6,12.8-51.3,20.5-84.6c0-30.8-7.7-64.1-25.6-94.8c-25.6-46.1-46.1-84.6-64.1-135.8c-20.5-25.6-25.6-51.3-25.6-82
	c5.1-20.5,30.8-38.4,56.4-38.4c20.5,0,33.3,5.1,46.1,17.9h5.1c-17.9-56.4-43.6-115.3-64.1-171.7c-38.4-20.5-76.9-25.6-115.3-25.6
	c-51.3,5.1-94.8,38.4-120.4,82h64.1l12.8,33.3l5.1,51.3c20.5,56.4,38.4,107.6,58.9,166.6l17.9,64.1h-89.7l-5.1,38.4l-7.7,12.8
	l7.7,5.1c5.1,12.8,5.1,20.5,12.8,33.3c5.1,17.9,0,43.6-20.5,51.3c-5.1,0-12.8,0-17.9,0l-12.8,56.4l-7.7,25.6h123l-12.8,58.9
	l-7.7,17.9C1910.2,1662.8,1974.3,1632,2005,1567.9"/>
</svg>
