<?xml version="1.0" encoding="utf-8"?>
<!-- Generator: Adobe Illustrator 22.1.0, SVG Export Plug-In . SVG Version: 6.00 Build 0)  -->
<svg version="1.1"
	 id="svg8" inkscape:version="0.92.4 (5da689c313, 2019-01-14)" sodipodi:docname="arachnida.svg" xmlns:cc="http://creativecommons.org/ns#" xmlns:dc="http://purl.org/dc/elements/1.1/" xmlns:inkscape="http://www.inkscape.org/namespaces/inkscape" xmlns:rdf="http://www.w3.org/1999/02/22-rdf-syntax-ns#" xmlns:sodipodi="http://sodipodi.sourceforge.net/DTD/sodipodi-0.dtd" xmlns:svg="http://www.w3.org/2000/svg"
	 xmlns="http://www.w3.org/2000/svg" xmlns:xlink="http://www.w3.org/1999/xlink" x="0px" y="0px" viewBox="0 0 2267.7 2267.7"
	 style="enable-background:new 0 0 2267.7 2267.7;" xml:space="preserve">
<style type="text/css">
	.st0{fill:none;stroke:#000000;stroke-width:0.2646;}
</style>
<sodipodi:namedview  bordercolor="#666666" borderopacity="1.0" id="base" inkscape:current-layer="layer1" inkscape:cx="1087.1245" inkscape:cy="910.22826" inkscape:document-units="mm" inkscape:pageopacity="0.0" inkscape:pageshadow="2" inkscape:window-height="962" inkscape:window-maximized="1" inkscape:window-width="1280" inkscape:window-x="-8" inkscape:window-y="-8" inkscape:zoom="0.1400905" pagecolor="#ffffff" showgrid="false">
	</sodipodi:namedview>
<path id="path3713" inkscape:connector-curvature="0" class="st0" d="M2059.5,702c-54.6,10-106.8,47.6-169.4,25.4
	c-36.7-14.4-69.2,16.4-106.6,22.3c-32.1,8-63.7-6.8-94.5,16.1c-42.8,29.1-75.6,57.3-85.6,113.8c-10.3,54-41.5,99.7-100.4,145.5
	c87.2-13,123.8,29.2,170.7,72.9c69,64.5,133.4,134.4,195.3,204.5c22.5,25.7,66,31.9,84.4,68.1c9.1,16.8,20.7,33.5,2.3,52.8
	c-16.2,16.6-33.2,23.2-54,17.5c-36.9-16.9-80.6-25.5-106.3-58.5c-48.2-58.8-107.7-101.3-162.7-151.9c-36-34.6-73.3-56.5-117.9-19.6
	c-2.3,2.7-4.8,3-7.3,3.2c-26.2,17.5-76.3-5.7-82.7,35.3c-1.1,15.3,46.2,36.2,70.8,56.7c76.5,63.8,124.7,150.3,158.6,245.7
	c53.7,146.6,117.2,289.9,166.1,439.5c23.2,61,56,116.1,76.4,174.9c13.9,41.7,11.8,74.7-31.9,93.8c-48.5,22.1-52.8-25.5-62.4-47.4
	c-42.3-104.7-84.6-209.5-119.7-317.4c-27.3-78.3-66.7-150.5-103.5-222.9c-24.3-45.8-20-109.3-83.1-136.4c5.7,62.6,3.8,125.9-8,190.1
	c-19.8,87.6-59.7,149.3-143.3,174.6c-56.5,17.7-70.8,54.4-76.3,105.4c-2.5,28,2.9,60.3-47.2,64.9c-45.1,4.1-64.2-11.9-77.6-48.5
	c-15.5-59.2-48.9-94-107.2-124.1c-106.3-58.5-175.5-153.3-177.3-284.4c-1.4-15,7.3-31-12.1-49.4c-32.3,61-46.7,125.4-68.8,188
	c-11.6,38.9-23.2,77.9-53.3,108.4c-23.2,22.3-15,56.9-22.8,82.9c-32.6,86.3-70.2,173-105.3,259.5c-14.8,31.6-33,53.5-72.6,34.4
	c-42.1-18.9-27.3-50.6-16.8-74.2c49-100.4,80-204.2,113.5-308.2c27.6-85.8,62.9-169.8,82.7-257.5c22.6-113.1,71.8-211,153.1-289.1
	c-81.5-7.8-105.6,4.5-183.3,94.9c-36.7,41.2-76.1,80.1-124.1,107.2c-16.8,9.1-28.2,22.8-39.2,41.4
	c-32.1,63.5-85.6,113.8-133.9,166.2c-20.7,22.1-52.8,30-79.9,9.8c-19.1-15.9-33.9-39.9-5.9-65.1c65.4-58.9,119.1-134.5,170.6-207.4
	c33.7-46,62.4-91.5,115.5-119c4.8-3,9.6-5.9,11.6-11.2c35.6-137.1,149.2-165,266-185.7c2.5-0.2,4.8-3,14.3-8.9
	c-93.8-31.9-145.7-103-190.7-182.2c-5.9-9.6-14.8-23.9-22.5-25.7c-87.2-14.8-160.3-68.8-247.2-81.1c-59-9.8-114.1-32.6-168.9-52.9
	c-31.2-9.8-58.3-30.1-51.7-68.5c6.8-36,33.5-48.5,67.6-33.9c76.5,36,157.5,38.8,241.1,41.3c119.1,4.4,211.5,49,317.6,132.8
	c-36.6-69.9-56-143.9-40.5-223.6c3.2-20.5-10.9-36.9-27.3-50.6c-48.7-36-76.7-94.1-134.3-116.6c-13-3.9-26.6-15.3-32.8-27.3
	C554.7,368.7,478.4,335.2,440,273c-14.8-23.9-42.1-18.9-61-32.3c-32.1-19.8-89-34.9-75.6-81.5c13.2-49.2,70.1-34.1,106.1-27.3
	c69.4,13.9,128.4,51.5,173.7,105.5c20,26,42.1,46.7,71.2,61.7c26.4,12.8,41.2,36.7,60.8,57.6c79,91.3,167.5,176.7,194.3,305.6
	c28-25.3,25.7-50.3,23.5-75.4c-2.5-55.3,16.2-99.9,45.1-143c11.2-16.2,24.6-35.1,47.8-29.6c26,7.7,28,30.3,25,53.3
	c-1.2,43-4.8,86.3-6,129.3c-0.9,17.8-4.1,38.2,18.9,41.2c33.2,4.6,67.2,16.6,94.9-11.1c16.4-14.1,12.1-33.9,5.3-53.5
	c-18.9-41.2-35.3-82.7-51.6-124.1c-6.8-19.6-13.9-41.7,5-56c21.2-17.1,40.3-1.1,56.7,12.5c56.4,37.8,86.7,93.1,99.9,155.1
	c11.1,39.4,31.6,70.4,37.3,105.2c32.6-86.3-13.8-180.5,23.5-269.8c43.7-102.4,69.3-210.8,160.8-287.3c23.5-19.8,23.2-50.1,33.7-73.8
	c15.5-24.1,34.6-36,62.8-30.9c33.5,7.1,20.7,33.5,20,53.7c0.9,10,2.3,25-4.6,33.2c-47.6,87.6-66.3,187.8-121.9,271.1
	c-22.3,32.3-8.7,71.5-23.3,105.6c-18.2,49.6-26.7,95.8-1.4,151.6c18.7,38.7,3.4,93.1,2.9,143.7c31.4-15.5,35.8-51.2,61.9-68.7
	c102.7-64.9,212.9-102.6,338.8-78.7c41.2,8.9,87.4,17.3,131.4,0.7c14.6-6.4,32.1-8,47.6-4.3c25.5,2.7,40.1,24.1,47.1,46.2
	C2098.2,683.3,2074.3,698.1,2059.5,702z M996.6,1038.2c2.7,2.3,0.7,7.5,0.9,10c-12.1,61.7,15.7,89.5,68.3,112.5
	c39.6,19.1,70.6-1.3,106.1,0.5c51.2,8,100.9,26.2,124.6-46.6c7.7-26,23.5-158.7,6.2-182.4c-33.7-37.3-65.1-77.4-101.7-119.6
	c-26.7,40.3-85.4,60.8-102.7,37.1c-22.8-28.2-22.8-28.2-37.1,8.4c-4.1,10.5-8.9,13.4-15.9,19.1
	C985.5,915.5,968.4,977.6,996.6,1038.2z M1416.5,1575.8c-38.5-62.2-42.8-137.5-93.5-196.1c-28.4-35.3-63.5-59.9-109-60.8
	c-53.3-2.7-74.7,39.6-85.2,91c-25-25.5-6.8-47.4-6.1-67.6c1.4-12.7-2-22.5-12.7-29.1c-10.2-1.6-15,1.4-19.4,9.3
	c-20.3,27.1-38.5,48.9-69.5,69.4c-45.3,29.4-94.7,69.2-101.1,137.9c-5,28.2,18.9,41.2,15.9,64.2c-9.6,89.2,21.6,154.6,99.9,210.6
	c72.8,51.5,160,66.3,235.6,9c9.3-8.4,18.9-14.3,36.9-10.9c51,5.5,109.3-75.6,89.7-124.3c-12.7-29.1-23-58.5,12.8-82
	C1410.8,1596.6,1422.7,1590,1416.5,1575.8z"/>
</svg>
