<?xml version="1.0" encoding="UTF-8" standalone="no"?>
<svg
   xmlns:dc="http://purl.org/dc/elements/1.1/"
   xmlns:cc="http://creativecommons.org/ns#"
   xmlns:rdf="http://www.w3.org/1999/02/22-rdf-syntax-ns#"
   xmlns:svg="http://www.w3.org/2000/svg"
   xmlns="http://www.w3.org/2000/svg"
   version="1.1"
   id="svg8"
   x="0px"
   y="0px"
   viewBox="0 0 2267.7 2267.7"
   style="enable-background:new 0 0 2267.7 2267.7;"
   xml:space="preserve"><metadata
   id="metadata9"><rdf:RDF><cc:Work
       rdf:about=""><dc:format>image/svg+xml</dc:format><dc:type
         rdf:resource="http://purl.org/dc/dcmitype/StillImage" /><dc:title></dc:title></cc:Work></rdf:RDF></metadata><defs
   id="defs7" />
<style
   type="text/css"
   id="style2">
	.st0{fill:none;stroke:#000000;stroke-width:0.2646;}
</style>

<path
   id="path3713"
   style="fill:none;stroke-width:0.95299"
   d="m 557.78278,678.50701 c -28.35918,0 -50.22496,23.96887 -50.22496,52.21746 v 76.18519 c -65.59847,13.1256 -128.90565,39.1862 -181.32713,76.18518 l -54.61691,-54.40393 c -21.86615,-19.59329 -52.42148,-19.59329 -72.09147,0 l -56.8138,54.40393 c -19.67,19.5933 -19.67,52.21707 0,71.81037 l 54.61689,54.40579 c -37.14381,54.4047 -63.40192,115.3725 -76.48343,180.62 H 46.555453 c -28.35916,2.1877 -52.4218474,23.9671 -52.4218474,52.2156 l 0.095114,78.3735 c 0,28.2486 21.8657894,50.0291 50.2249504,50.0291 h 76.38831 c 13.17699,67.5303 39.33962,128.4037 76.48344,182.8086 l -54.6169,52.2173 c -19.67,19.5933 -19.67,52.2172 0,71.8104 l 56.8138,56.5923 c 19.66999,19.5932 52.42149,19.5932 72.09147,0 l 52.42186,-52.2175 c 54.61765,36.999 115.82304,63.1548 183.52218,76.1851 v 73.9988 c 0,28.2486 24.06271,50.0292 52.42187,50.0292 h 78.58521 c 28.35916,0 50.22496,-21.7806 50.22496,-50.0292 v -76.187 c 67.79461,-10.9381 128.90453,-39.1863 183.52218,-76.1852 l 52.42183,54.4058 c 19.67013,19.5932 52.42153,19.5932 72.09155,0 l 56.81367,-56.5923 c 19.6701,-19.5932 19.6701,-52.2171 0,-71.8104 l -54.61672,-52.2173 c 37.14392,-54.4049 63.40182,-117.561 76.48342,-182.8086 h 74.2865 c 28.3591,0 52.4218,-23.967 52.4218,-52.2155 v -78.3735 c 0,-28.2486 -24.0627,-50.0292 -52.4218,-50.0292 h -76.4835 c -13.1769,-67.435 -39.3396,-128.403 -76.48337,-180.62 l 56.81367,-54.40579 c 19.6701,-19.5933 19.6701,-52.21707 0,-71.81037 l -56.81367,-56.59228 c -19.67002,-19.59327 -52.42142,-19.59327 -72.09155,0 L 870.117,880.90836 C 815.49934,846.09697 754.29284,819.94015 688.78986,806.90966 v -78.37354 c 0,-28.24858 -23.96648,-50.02911 -50.22496,-50.02911 z m 39.24597,339.55359 c 144.18297,0 264.30246,117.4647 264.30246,261.0853 0,145.8084 -117.92333,263.2737 -264.30246,263.2737 -144.18294,0 -262.1074,-117.4645 -262.1074,-261.0852 0,-145.8084 118.01994,-263.2738 262.1074,-263.2738 z" /><path
   id="path838"
   style="fill:none;stroke-width:1.05828"
   d="M 949.89973,3.5287413 C 908.38085,3.9220797 866.88365,6.8444732 825.73689,12.391167 763.10009,20.829726 701.30636,35.513432 641.62932,56.271784 558.13632,85.265162 478.75021,125.99664 406.62219,176.9471 c -89.8053,63.2882 -168.84122,141.75221 -232.40915,231.19791 -22.2065,31.2763 -42.48231,63.89918 -60.94451,97.50057 -12.19008,22.08792 -24.484358,44.11945 -36.546868,66.27651 -3.453176,7.61481 -0.840979,17.22971 5.613884,22.43723 3.22576,2.64882 7.36661,4.0073 11.516144,4.17206 4.356762,0.12274 8.71809,-0.047 13.07685,10e-4 48.37801,0.0444 96.75609,0.0131 145.13412,0.0268 32.45779,0.002 64.91559,0.003 97.37338,0.005 15.63486,-24.09045 31.6109,-47.9932 49.19909,-70.7834 13.32136,-17.29817 27.59381,-33.92683 42.54624,-49.89077 16.59912,-17.69662 34.17708,-34.59112 52.56105,-50.53482 34.86822,-30.27806 72.85688,-57.22079 113.07425,-80.10765 15.25539,-8.68338 31.02886,-16.87659 46.93429,-24.3865 15.98512,-7.54514 32.18851,-14.46576 48.70243,-20.78825 14.35408,-5.49749 28.98703,-10.55529 43.71718,-15.09263 22.99889,-7.10326 46.48229,-13.04932 70.17002,-17.75781 14.86931,-2.95913 29.91691,-5.44542 44.99113,-7.44958 8.23818,-1.1019 16.52792,-2.0408 24.83484,-2.86614 8.74351,-0.8531 17.7418,-1.56588 26.51351,-2.09016 22.21544,-1.34493 44.44787,-1.63787 66.71979,-0.97223 21.79594,0.65793 43.63674,2.3289 65.29314,4.98103 16.5055,2.02253 33.0064,4.64248 49.2867,7.80188 20.5122,3.99396 40.9124,8.90481 60.9456,14.6922 29.4021,8.49241 58.301,18.93899 86.2969,31.17709 47.777,20.91613 93.1974,47.17182 135.1187,78.1356 4.5995,3.40058 9.2285,6.90075 13.7385,10.40597 15.5814,12.09821 30.5911,24.78824 45.1188,38.13241 28.9946,26.63191 55.8868,55.73934 80.098,86.82084 9.4885,12.17879 18.6538,24.76909 27.3426,37.59947 9.7363,14.36227 19.0045,29.21268 27.6349,44.26097 4.2768,7.46476 8.5164,15.17469 12.506,22.80132 13.6786,26.0676 25.6604,53.01654 35.9063,80.60191 5.2897,14.26421 10.1643,28.86179 14.4908,43.4103 4.9761,16.71838 9.3311,33.70151 13.0459,50.77317 2.3266,10.73162 4.4344,21.58288 6.2664,32.45689 2.9128,17.35881 5.2074,34.9463 6.8256,52.52652 2.6199,28.11596 3.4831,56.52252 2.7571,84.8815 -0.397,15.4069 -1.3043,30.92049 -2.6947,46.32799 -2.0141,21.8918 -5.0385,43.7868 -9.0976,65.4363 -7.3172,39.1491 -18.0146,77.8353 -31.9564,115.2247 -10.6725,28.5921 -23.3046,56.6408 -37.6581,83.6008 -6.1405,11.5301 -12.7181,23.0896 -19.5354,34.2807 -24.7067,40.6573 -53.6323,78.7561 -86.0249,113.6438 -35.7542,38.489 -75.8684,72.9824 -119.4888,102.3533 -9.085,6.142 -18.2284,11.9756 -27.5414,17.7163 -7.5729,4.7703 -15.7658,8.822 -22.1438,15.2255 -12.6877,12.2496 -19.8122,29.8647 -19.5691,47.4305 -0.048,15.2457 0.017,30.4915 0.011,45.7372 0.052,66.5847 0.04,133.1695 0.05,199.7541 37.2471,-19.7327 74.8396,-38.8164 111.9191,-58.8598 25.459,-13.807 50.4998,-28.401 74.7511,-44.2289 190,189.2329 271.065,488.9737 505.9677,490.543 136.2467,0.9103 296.3137,-144.3285 297.2434,-280.5751 1.6283,-238.6225 -321.2146,-306.5868 -513.8376,-498.4586 66.4513,-101.3696 112.8083,-215.7694 135.5035,-334.7143 9.3861,-48.751 14.8681,-98.2404 16.5148,-147.85058 1.7294,-51.93021 -0.7195,-103.99887 -7.3017,-155.53956 -9.2811,-72.68069 -26.8841,-144.32666 -52.7588,-212.92368 -17.4804,-46.40778 -38.7027,-91.4183 -63.3872,-134.45657 -30.125,-52.56445 -65.456,-102.1549 -105.2167,-147.91963 -44.8246,-51.61251 -95.189,-98.40463 -149.6891,-139.73742 C 1484.3801,160.10817 1428.7406,125.97327 1370.1758,97.831069 1311.0018,69.35027 1248.8695,46.956973 1185.0674,31.251468 1122.0644,15.709711 1057.4561,6.6664645 992.59716,4.2350197 978.37195,3.6952428 964.1353,3.4742981 949.89973,3.5287413 Z" />
</svg>
