<?xml version="1.0" encoding="utf-8"?>
<!-- Generator: Adobe Illustrator 22.1.0, SVG Export Plug-In . SVG Version: 6.00 Build 0)  -->
<svg version="1.1"
	 id="svg8" inkscape:version="0.92.4 (5da689c313, 2019-01-14)" sodipodi:docname="aves.svg" xmlns:cc="http://creativecommons.org/ns#" xmlns:dc="http://purl.org/dc/elements/1.1/" xmlns:inkscape="http://www.inkscape.org/namespaces/inkscape" xmlns:rdf="http://www.w3.org/1999/02/22-rdf-syntax-ns#" xmlns:sodipodi="http://sodipodi.sourceforge.net/DTD/sodipodi-0.dtd" xmlns:svg="http://www.w3.org/2000/svg"
	 xmlns="http://www.w3.org/2000/svg" xmlns:xlink="http://www.w3.org/1999/xlink" x="0px" y="0px" viewBox="0 0 2267.7 2267.7"
	 style="enable-background:new 0 0 2267.7 2267.7;" xml:space="preserve">
<style type="text/css">
	.st0{fill:none;stroke:#000000;stroke-width:0.2646;}
</style>
<sodipodi:namedview  bordercolor="#666666" borderopacity="1.0" id="base" inkscape:current-layer="layer1" inkscape:cx="1500.2029" inkscape:cy="617.86959" inkscape:document-units="mm" inkscape:pageopacity="0.0" inkscape:pageshadow="2" inkscape:window-height="962" inkscape:window-maximized="1" inkscape:window-width="1280" inkscape:window-x="-8" inkscape:window-y="-8" inkscape:zoom="0.1400905" pagecolor="#ffffff" showgrid="false">
	</sodipodi:namedview>
<path id="path3713" inkscape:connector-curvature="0" class="st0" d="M1528.3,1596.6c83.5,36.8,162.3,70.3,219.4,133.8
	c88.1,95.6,176.1,191.1,261.7,286.3c33.1,34.9,68.8,70.1,117.1,86.9c28.4,14,56.1,15.3,85.8,1.7c59.4-27.3,65.6-54.2,32.7-109.3
	c-80.1-134.9-191.3-246.3-294.3-361.6C1793,1455.9,1662.9,1261,1542,1054.7c-63-112.3-145-214.7-233.4-307.7
	c-37.8-38.1-59.6-81.5-73-131.4c-43.2-183-175.9-284.7-338.9-350.1c-47.9-19.2-101.4-16.5-142.4,5.7c-121.9,59.1-238.7,25.4-354-0.6
	c-95.8-20.7-192.3-36.5-288.6-34.6c-20.2-0.2-40.7,2-61.3,4.2c-15.9,5.4-41.1,4.5-41.7,27.2c1.9,23,25.6,16.2,40.5,18.2
	c119.6,31.6,243.3,33.4,365,67.8c170.7,46.2,276.7,177.1,274.8,356.4c-1.5,47.8-0.9,98.5-2.4,146.4c-8,224,113.4,389.9,245.4,552.2
	c65.6,74.8,69.9,80.4-8.8,137.9c-28.2,21.4-60.4,34.7-27.9,74.6c1.8,5.3-1.7,12.4-0.2,20.2c2.2,20.5-38.4,40.3-10.3,56.8
	c25.9,13.7,43.5-21.9,65-31.5c35.3-17.9,54.5-83.6,112.4-45.3c2.1,2.8,16.6-10.4,20.1-17.5c39.3-65.4,96-72.8,151.9-19.6
	c20,20.4,37.8,38.1,52.8,57.8c119.9,158.1,300.7,223.4,462.1,318.9c32.7,19.7,79.6,46.3,107.8,7.2c28.1-39.1-20.6-71.1-45.2-94.7
	c-82-84.6-170.3-160-261.4-233.2C1541.3,1631.3,1529.5,1624.6,1528.3,1596.6z M808,1168.9c27.8-36.7,74.1,12.7,110.8-15.1
	c11.3-8.6,14.2,7,15.3,17.3c-4.7,52.5,11.8,80,55.5,111.3c16,12.3,30.7,34.6,24.8,59c-4.2,12.1-15.5,20.6-29.4,11.1
	C913.3,1304.8,821.7,1272,808,1168.9z M808,1168.9c13.7,103,105.3,135.9,177.1,183.7c13.9,9.5,25.2,0.9,29.4-11.1
	c5.9-24.5-8.8-46.7-24.8-59c-43.8-31.3-60.2-58.9-55.5-111.3c-1.1-10.3-4-25.8-15.3-17.3"/>
</svg>
