<?xml version="1.0" encoding="UTF-8" standalone="no"?>
<svg
   xmlns:dc="http://purl.org/dc/elements/1.1/"
   xmlns:cc="http://creativecommons.org/ns#"
   xmlns:rdf="http://www.w3.org/1999/02/22-rdf-syntax-ns#"
   xmlns:svg="http://www.w3.org/2000/svg"
   xmlns="http://www.w3.org/2000/svg"
   version="1.1"
   id="svg8"
   x="0px"
   y="0px"
   viewBox="0 0 2267.7175 2267.7185"
   xml:space="preserve"><metadata
   id="metadata8"><rdf:RDF><cc:Work
       rdf:about=""><dc:format>image/svg+xml</dc:format><dc:type
         rdf:resource="http://purl.org/dc/dcmitype/StillImage" /><dc:title></dc:title></cc:Work></rdf:RDF></metadata><defs
   id="defs6">
</defs>

<path
   id="path3713"
   class="st0"
   d="M 137.9246,126.63713 V 1331.1951 h 203.7965 c 201.8343,0 271.0746,-104.0008 271.0746,-315.9267 v -89.7041 c 0,-160.90674 -69.2403,-218.0931 -138.4807,-240.51913 63.0732,-20.46375 112.1301,-73.44524 112.1301,-242.4814 V 387.62 c 0,-160.90673 -67.278,-260.98287 -250.6108,-260.98287 H 134 Z M 248.0925,638.23084 V 224.47067 h 79.6123 c 104.0007,0 146.8905,54.94376 146.8905,167.07389 v 54.94376 c 0,144.64787 -30.5555,191.4622 -140.7233,191.4622 z m 0,95.87126 h 81.5746 c 114.0924,0 165.1117,57.18637 165.1117,193.7048 v 81.5747 c 0,156.9822 -32.5178,220.0553 -167.074,220.0553 h -79.6123 z m 917.2244,442.3534 V 634.30629 c 0,-132.59388 -46.8144,-232.3897 -203.7965,-232.3897 -163.1493,0 -213.8882,105.96298 -213.8882,232.3897 v 24.3883 h 114.0924 v -26.63091 c 0,-73.44522 22.426,-132.59387 95.8713,-132.59387 75.4074,0 89.704,57.18637 89.704,140.72331 v 150.81502 h -42.8897 c -163.1493,0 -285.3712,75.40752 -285.3712,279.20406 v 14.2966 c 0,140.7232 52.9814,256.778 183.3328,256.778 61.1109,0 120.2595,-18.2212 148.8527,-89.7041 0,16.2588 4.2049,51.0192 8.1294,75.4075 h 107.9253 c -1.9623,-24.3883 -6.1672,-87.7418 -6.1672,-150.8151 z m -116.335,-291.53837 v 140.72337 c 0,142.6855 -28.5932,213.8881 -118.2973,213.8881 -75.4075,0 -99.7958,-71.2026 -99.7958,-156.9821 v -14.2966 c 0,-138.48072 61.1109,-183.33277 171.2787,-183.33277 h 48.7766 z m 287.3334,-193.7048 v 636.05817 h 112.1302 V 730.17754 c 0,-185.57535 49.0569,-222.29797 130.3512,-222.29797 69.2405,0 99.7959,49.05693 99.7959,136.51843 v 680.9103 H 1792.685 V 620.0097 c 0,-169.03617 -79.6124,-222.29798 -177.4459,-222.29798 -83.537,0 -140.7234,38.68489 -167.0739,110.16785 0,-42.88978 0,-73.44524 -4.2049,-93.62866 h -107.9252 c 1.9622,46.81433 1.9622,93.62866 1.9622,277.24175 z m 927.5965,352.64927 v 24.3883 c 0,124.4644 -28.5931,175.2034 -105.9629,175.2034 -83.5369,0 -102.0384,-93.6288 -102.0384,-183.3328 V 668.7863 c 0,-114.0924 32.5177,-171.27877 107.9252,-171.27877 85.4992,0 99.7958,77.36979 99.7958,165.11161 v 28.59319 h 112.1302 v -36.72262 c 0,-122.22184 -34.7604,-254.81572 -211.926,-254.81572 -165.1116,0 -222.2979,118.29729 -222.2979,275.27947 v 366.94584 c 0,183.3327 42.8897,301.6301 213.8881,301.6301 181.3705,0 220.0554,-130.3513 220.0554,-287.3335 v -12.3343 z m 460.5746,-644.18761 c -144.6479,0 -234.352,95.87127 -234.352,266.86971 v 399.4636 c 0,195.6671 89.7041,277.2417 230.4274,277.2417 138.4807,0 232.3897,-83.5369 232.3897,-285.3712 V 668.7863 c -0.2803,-169.03617 -77.6501,-269.11231 -228.4651,-269.11231 z m -1.9623,102.03842 c 79.6124,0 112.1301,69.24036 112.1301,163.14934 v 401.42585 c 0,122.2218 -40.6471,173.241 -114.0924,173.241 -81.5747,0 -116.0547,-67.278 -116.0547,-171.2787 V 666.82402 c -0.2803,-104.00069 36.4423,-165.11161 118.017,-165.11161 z M 3044.6179,901.176 h 248.6485 c -30.5554,18.22114 -44.852,57.18636 -44.852,97.8335 0,102.0385 81.5746,142.6856 189.4999,142.6856 h 244.724 c 120.2596,0 209.9637,-22.426 209.9637,-134.5561 0,-59.14868 -28.5932,-87.74186 -69.2403,-107.92528 8.1294,0 42.8897,-1.96228 57.1863,-4.20488 V 776.71155 c -32.5178,1.96228 -77.3698,1.96228 -173.2411,1.96228 h -662.4087 z m 403.3881,118.2973 c -52.9815,0 -85.4993,-16.2589 -85.4993,-59.14866 0,-51.01921 44.8522,-57.18636 112.1302,-57.18636 h 191.4622 c 67.2781,0 114.0924,8.12943 114.0924,59.14863 0,42.88979 -30.5554,57.18639 -87.7418,57.18639 z M 3604.9882,570.95277 V 336.60079 h -142.6856 c -124.4644,0 -213.8882,42.88978 -213.8882,175.20334 0,152.77729 130.3512,179.4082 213.8882,179.4082 h 205.7587 c 124.4646,0 222.2981,-22.42603 222.2981,-179.4082 0,-160.90675 -128.389,-173.24106 -193.7048,-173.24106 h -1.9623 v 120.25957 h 1.9623 c 44.8521,0 89.7041,6.16715 89.7041,54.94376 0,46.81433 -42.8898,57.18637 -91.6664,57.18637 h -91.6664 z m -97.8336,-1.96228 h -65.3157 c -59.1487,0 -87.7419,-18.22115 -87.7419,-57.18636 0,-44.85206 30.5555,-59.14865 87.7419,-59.14865 h 65.3157 z M 3034.2459,1946.7895 h 124.4644 v -623.7239 h -124.4644 z m 0,-707.2609 h 124.4644 v -132.5938 h -124.4644 z m 226.2224,707.2609 h 124.4645 v -428.0568 c 0,-59.1487 8.1294,-91.6664 52.9815,-91.6664 28.5932,0 46.8143,12.3343 46.8143,67.2781 v 452.4451 h 124.4645 v -426.0946 c 0,-61.1109 12.3343,-93.6286 52.9814,-93.6286 36.7226,0 46.8143,24.3883 46.8143,65.3158 v 454.4074 h 122.2219 v -476.8334 c 0,-120.2596 -54.9437,-155.0199 -124.4644,-155.0199 -63.0732,0 -95.8713,32.5177 -118.2973,67.2781 -14.2966,-44.8521 -49.057,-67.2781 -99.7958,-67.2781 -49.057,0 -85.4992,22.426 -107.9252,65.3158 0,-22.426 0,-36.7226 -4.2049,-57.1864 h -118.2974 c 1.9623,28.5932 1.9623,57.1864 1.9623,181.3705 z m 998.7992,-468.704 c 0,-102.0384 -42.8898,-167.0739 -160.9067,-167.0739 -134.5562,0 -171.2788,81.5747 -171.2788,171.2788 v 6.1672 h 120.2595 v -8.1295 c 0,-38.6849 10.0918,-67.278 46.8144,-67.278 36.7226,0 42.8898,26.6309 42.8898,75.4075 v 79.6123 h -14.2966 c -112.1302,0 -213.8883,40.6472 -213.8883,193.7049 v 12.3343 c 0,93.6286 36.7227,179.4082 130.3513,179.4082 46.8144,0 79.6124,-16.2589 102.0385,-54.9438 0,8.1294 4.2049,36.7226 6.1671,46.8143 h 114.0924 c 0,-24.3883 -1.9623,-87.7418 -1.9623,-126.4267 v -340.8756 z m -136.5184,-381.2424 -107.9253,160.9067 h 104.0007 l 142.6856,-160.9067 z m 16.2588,636.0581 c 0,83.537 -18.2211,112.1301 -59.1486,112.1301 -38.6849,0 -54.9438,-32.5177 -54.9438,-73.4452 v -10.0917 c 0,-77.3697 38.685,-99.7958 93.6287,-99.7958 h 20.4637 z m 574.667,179.1279 v -431.9813 c 0,-67.2781 0,-118.2973 1.9622,-156.9822 h -107.9253 c -1.9622,12.3344 -6.1671,36.7226 -6.1671,57.1864 -8.1295,-34.7603 -36.7226,-65.3158 -102.0384,-65.3158 -120.2596,0 -150.815,104.0007 -150.815,189.4999 v 232.3897 c 0,107.9252 24.3883,193.7047 136.5184,193.7047 52.9815,0 87.7418,-18.2211 104.0006,-54.9437 v 67.2781 c 0,79.6124 -10.0917,118.2973 -61.1108,118.2973 -49.057,0 -54.9438,-40.6472 -54.9438,-59.1486 v -1.9624 h -124.4644 v 1.9624 c 0,69.2403 24.3883,163.1493 173.241,163.1493 175.2033,0 189.4999,-116.0547 189.4999,-252.8535 z m -242.4815,-401.4259 c 0,-59.1486 22.4261,-83.5369 61.1109,-83.5369 51.0192,0 57.1864,42.8898 57.1864,97.8335 v 181.3705 c 0,75.4075 -10.0917,118.2973 -63.0732,118.2973 -42.8897,0 -54.9437,-32.5177 -54.9437,-95.8712 z M 4915.509,1671.51 h 236.3143 v -142.6856 c 0,-124.4645 -44.852,-213.8882 -175.2033,-213.8882 -155.0199,0 -181.3705,128.389 -181.3705,213.8882 v 203.7965 c 0,124.4644 22.426,222.298 181.3705,222.298 158.9444,0 173.241,-128.389 173.241,-193.7048 v -1.9623 h -120.2595 v 1.9623 c 0,44.852 -6.1672,89.7041 -54.9438,89.7041 -46.8143,0 -59.1487,-42.8898 -59.1487,-91.6664 v -89.7041 z m 2.2427,-101.7581 v -63.0732 c 0,-61.1109 18.2211,-89.7041 59.1486,-89.7041 42.8898,0 57.1864,30.5555 57.1864,89.7041 v 63.0732 z m 315.9266,-54.9438 v 428.0568 h 124.4644 V 1531.067 c 0,-87.7418 20.4638,-110.1679 63.0733,-110.1679 32.5177,0 52.9814,20.4638 52.9814,75.4075 v 446.278 h 124.4645 v -466.7417 c 0,-116.0547 -51.0192,-163.1493 -126.4267,-163.1493 -65.3158,0 -97.8336,30.5554 -116.0548,67.278 0,-16.2588 -1.9622,-42.8897 -4.2049,-57.1863 h -118.2972 c 1.9623,28.5932 1.9623,65.3158 1.9623,191.4622 z m 572.7046,156.7019 h 236.3143 v -142.6856 c 0,-124.4645 -44.852,-213.8882 -177.446,-213.8882 -152.7772,0 -179.4081,128.389 -179.4081,213.8882 v 203.7965 c 0,124.4644 22.426,222.298 179.4081,222.298 160.9068,0 173.2411,-128.389 173.2411,-193.7048 v -1.9623 h -120.2596 v 1.9623 c 0,44.852 -6.1672,89.7041 -54.9438,89.7041 -46.8143,0 -57.1863,-42.8898 -57.1863,-91.6664 v -89.7041 z m 1.9623,-101.7581 v -63.0732 c 0,-61.1109 18.2211,-89.7041 57.1864,-89.7041 44.852,0 59.1486,30.5555 59.1486,89.7041 v 63.0732 z m 297.7055,183.3327 v 26.631 c 0,89.704 30.5555,175.2033 171.2787,175.2033 118.2973,0 175.2034,-61.111 175.2034,-179.4082 0,-102.0384 -36.7226,-146.8905 -146.8905,-216.1308 -57.1864,-34.7603 -67.2781,-51.0193 -67.2781,-87.7419 0,-32.5177 10.0917,-54.9437 40.6473,-54.9437 30.5554,0 42.8897,20.4637 42.8897,63.0731 v 36.7226 h 120.2596 v -24.3883 c 0,-112.1301 -46.8144,-177.4458 -165.1117,-177.4458 -107.9252,0 -165.1116,65.3157 -165.1116,169.0362 0,89.704 42.8898,132.5938 128.389,189.4998 75.4076,46.8143 85.4993,75.4075 85.4993,114.0925 0,42.8897 -14.2966,63.0731 -49.057,63.0731 -38.6848,0 -51.0192,-32.5177 -51.0192,-71.2026 v -28.5931 z"
   style="fill:none" />
</svg>
