<?xml version="1.0" encoding="utf-8"?>
<!-- Generator: Adobe Illustrator 22.1.0, SVG Export Plug-In . SVG Version: 6.00 Build 0)  -->
<svg version="1.1"
	 id="svg8" inkscape:version="0.92.4 (5da689c313, 2019-01-14)" sodipodi:docname="bdi.svg" xmlns:cc="http://creativecommons.org/ns#" xmlns:dc="http://purl.org/dc/elements/1.1/" xmlns:inkscape="http://www.inkscape.org/namespaces/inkscape" xmlns:rdf="http://www.w3.org/1999/02/22-rdf-syntax-ns#" xmlns:sodipodi="http://sodipodi.sourceforge.net/DTD/sodipodi-0.dtd" xmlns:svg="http://www.w3.org/2000/svg"
	 xmlns="http://www.w3.org/2000/svg" xmlns:xlink="http://www.w3.org/1999/xlink" x="0px" y="0px" viewBox="0 0 2267.7 2267.7"
	 style="enable-background:new 0 0 2267.7 2267.7;" xml:space="preserve">
<style type="text/css">
	.st0{fill:none;stroke:#000000;stroke-width:0.2646;}
</style>
<sodipodi:namedview  bordercolor="#666666" borderopacity="1.0" id="base" inkscape:current-layer="layer1" inkscape:cx="6046.8323" inkscape:cy="1812.8712" inkscape:document-units="mm" inkscape:pageopacity="0.0" inkscape:pageshadow="2" inkscape:window-height="962" inkscape:window-maximized="1" inkscape:window-width="1280" inkscape:window-x="-8" inkscape:window-y="-8" inkscape:zoom="0.083651786" pagecolor="#ffffff" showgrid="false">
	</sodipodi:namedview>
<path id="path3713" inkscape:connector-curvature="0" class="st0" d="M8.3,770.3V1200H81c72,0,96.7-37.1,96.7-112.7v-32
	c0-57.4-24.7-77.8-49.4-85.8c22.5-7.3,40-26.2,40-86.5v-19.6c0-57.4-24-93.1-89.4-93.1h-72H8.3z M47.6,952.8V805.2h28.4
	c37.1,0,52.4,19.6,52.4,59.6v19.6c0,51.6-10.9,68.3-50.2,68.3L47.6,952.8L47.6,952.8z M47.6,987h29.1c40.7,0,58.9,20.4,58.9,69.1
	v29.1c0,56-11.6,78.5-59.6,78.5H47.6L47.6,987L47.6,987z M374.8,1144.8V951.4c0-47.3-16.7-82.9-72.7-82.9
	c-58.2,0-76.3,37.8-76.3,82.9v8.7h40.7v-9.5c0-26.2,8-47.3,34.2-47.3c26.9,0,32,20.4,32,50.2v53.8h-15.3
	c-58.2,0-101.8,26.9-101.8,99.6v5.1c0,50.2,18.9,91.6,65.4,91.6c21.8,0,42.9-6.5,53.1-32c0,5.8,1.5,18.2,2.9,26.9h38.5
	c-0.7-8.7-2.2-31.3-2.2-53.8L374.8,1144.8L374.8,1144.8z M333.3,1040.8v50.2c0,50.9-10.2,76.3-42.2,76.3c-26.9,0-35.6-25.4-35.6-56
	v-5.1c0-49.4,21.8-65.4,61.1-65.4H334L333.3,1040.8L333.3,1040.8z M435.8,971.7v226.9h40v-213c0-66.2,17.5-79.3,46.5-79.3
	c24.7,0,35.6,17.5,35.6,48.7v242.9h40.7V946.3c0-60.3-28.4-79.3-63.3-79.3c-29.8,0-50.2,13.8-59.6,39.3c0-15.3,0-26.2-1.5-33.4
	h-38.5c0.7,16.7,0.7,33.4,0.7,98.9L435.8,971.7L435.8,971.7z M766.7,1097.5v8.7c0,44.4-10.2,62.5-37.8,62.5
	c-29.8,0-36.4-33.4-36.4-65.4V963.7c0-40.7,11.6-61.1,38.5-61.1c30.5,0,35.6,27.6,35.6,58.9v10.2h40v-13.1
	c0-43.6-12.4-90.9-75.6-90.9c-58.9,0-79.3,42.2-79.3,98.2v130.9c0,65.4,15.3,107.6,76.3,107.6c64.7,0,78.5-46.5,78.5-102.5v-4.4
	L766.7,1097.5L766.7,1097.5z M931,867.7c-51.6,0-83.6,34.2-83.6,95.2v142.5c0,69.8,32,98.9,82.2,98.9c49.4,0,82.9-29.8,82.9-101.8
	V963.7C1012.4,903.4,984.8,867.7,931,867.7z M930.3,904.1c28.4,0,40,24.7,40,58.2v143.2c0,43.6-14.5,61.8-40.7,61.8
	c-29.1,0-41.4-24-41.4-61.1V963C888.1,925.9,901.2,904.1,930.3,904.1z M1045.2,1046.6h88.7c-10.9,6.5-16,20.4-16,34.9
	c0,36.4,29.1,50.9,67.6,50.9h87.3c42.9,0,74.9-8,74.9-48c0-21.1-10.2-31.3-24.7-38.5c2.9,0,15.3-0.7,20.4-1.5v-42.2
	c-11.6,0.7-27.6,0.7-61.8,0.7h-236.3L1045.2,1046.6L1045.2,1046.6z M1189.1,1088.8c-18.9,0-30.5-5.8-30.5-21.1
	c0-18.2,16-20.4,40-20.4h68.3c24,0,40.7,2.9,40.7,21.1c0,15.3-10.9,20.4-31.3,20.4H1189.1z M1245.1,928.8v-83.6h-50.9
	c-44.4,0-76.3,15.3-76.3,62.5c0,54.5,46.5,64,76.3,64h73.4c44.4,0,79.3-8,79.3-64c0-57.4-45.8-61.8-69.1-61.8h-0.7v42.9h0.7
	c16,0,32,2.2,32,19.6c0,16.7-15.3,20.4-32.7,20.4h-32.7L1245.1,928.8L1245.1,928.8z M1210.2,928.1h-23.3c-21.1,0-31.3-6.5-31.3-20.4
	c0-16,10.9-21.1,31.3-21.1h23.3V928.1z M1041.5,1419.6h44.4v-222.5h-44.4V1419.6z M1041.5,1167.3h44.4V1120h-44.4V1167.3z
	 M1122.2,1419.6h44.4v-152.7c0-21.1,2.9-32.7,18.9-32.7c10.2,0,16.7,4.4,16.7,24v161.4h44.4v-152c0-21.8,4.4-33.4,18.9-33.4
	c13.1,0,16.7,8.7,16.7,23.3v162.1h43.6v-170.1c0-42.9-19.6-55.3-44.4-55.3c-22.5,0-34.2,11.6-42.2,24c-5.1-16-17.5-24-35.6-24
	c-17.5,0-30.5,8-38.5,23.3c0-8,0-13.1-1.5-20.4h-42.2c0.7,10.2,0.7,20.4,0.7,64.7L1122.2,1419.6L1122.2,1419.6z M1478.5,1252.4
	c0-36.4-15.3-59.6-57.4-59.6c-48,0-61.1,29.1-61.1,61.1v2.2h42.9v-2.9c0-13.8,3.6-24,16.7-24s15.3,9.5,15.3,26.9v28.4h-5.1
	c-40,0-76.3,14.5-76.3,69.1v4.4c0,33.4,13.1,64,46.5,64c16.7,0,28.4-5.8,36.4-19.6c0,2.9,1.5,13.1,2.2,16.7h40.7
	c0-8.7-0.7-31.3-0.7-45.1V1252.4z M1429.8,1116.4l-38.5,57.4h37.1l50.9-57.4H1429.8z M1435.6,1343.3c0,29.8-6.5,40-21.1,40
	c-13.8,0-19.6-11.6-19.6-26.2v-3.6c0-27.6,13.8-35.6,33.4-35.6h7.3L1435.6,1343.3L1435.6,1343.3z M1640.6,1407.2v-154.1
	c0-24,0-42.2,0.7-56h-38.5c-0.7,4.4-2.2,13.1-2.2,20.4c-2.9-12.4-13.1-23.3-36.4-23.3c-42.9,0-53.8,37.1-53.8,67.6v82.9
	c0,38.5,8.7,69.1,48.7,69.1c18.9,0,31.3-6.5,37.1-19.6v24c0,28.4-3.6,42.2-21.8,42.2c-17.5,0-19.6-14.5-19.6-21.1v-0.7h-44.4v0.7
	c0,24.7,8.7,58.2,61.8,58.2c62.5,0,67.6-41.4,67.6-90.2L1640.6,1407.2L1640.6,1407.2z M1554.1,1264c0-21.1,8-29.8,21.8-29.8
	c18.2,0,20.4,15.3,20.4,34.9v64.7c0,26.9-3.6,42.2-22.5,42.2c-15.3,0-19.6-11.6-19.6-34.2L1554.1,1264L1554.1,1264z M1712.6,1321.4
	h84.3v-50.9c0-44.4-16-76.3-62.5-76.3c-55.3,0-64.7,45.8-64.7,76.3v72.7c0,44.4,8,79.3,64.7,79.3s61.8-45.8,61.8-69.1v-0.7h-42.9
	v0.7c0,16-2.2,32-19.6,32c-16.7,0-21.1-15.3-21.1-32.7v-32L1712.6,1321.4L1712.6,1321.4z M1713.4,1285.1v-22.5
	c0-21.8,6.5-32,21.1-32c15.3,0,20.4,10.9,20.4,32v22.5H1713.4z M1826.1,1265.5v152.7h44.4v-146.9c0-31.3,7.3-39.3,22.5-39.3
	c11.6,0,18.9,7.3,18.9,26.9v159.2h44.4v-166.5c0-41.4-18.2-58.2-45.1-58.2c-23.3,0-34.9,10.9-41.4,24c0-5.8-0.7-15.3-1.5-20.4h-42.2
	c0.7,10.2,0.7,23.3,0.7,68.3L1826.1,1265.5L1826.1,1265.5z M2030.4,1321.4h84.3v-50.9c0-44.4-16-76.3-63.3-76.3
	c-54.5,0-64,45.8-64,76.3v72.7c0,44.4,8,79.3,64,79.3c57.4,0,61.8-45.8,61.8-69.1v-0.7h-42.9v0.7c0,16-2.2,32-19.6,32
	c-16.7,0-20.4-15.3-20.4-32.7v-32L2030.4,1321.4L2030.4,1321.4z M2031.1,1285.1v-22.5c0-21.8,6.5-32,20.4-32c16,0,21.1,10.9,21.1,32
	v22.5H2031.1z M2137.3,1350.5v9.5c0,32,10.9,62.5,61.1,62.5c42.2,0,62.5-21.8,62.5-64c0-36.4-13.1-52.4-52.4-77.1
	c-20.4-12.4-24-18.2-24-31.3c0-11.6,3.6-19.6,14.5-19.6c10.9,0,15.3,7.3,15.3,22.5v13.1h42.9v-8.7c0-40-16.7-63.3-58.9-63.3
	c-38.5,0-58.9,23.3-58.9,60.3c0,32,15.3,47.3,45.8,67.6c26.9,16.7,30.5,26.9,30.5,40.7c0,15.3-5.1,22.5-17.5,22.5
	c-13.8,0-18.2-11.6-18.2-25.4v-10.2L2137.3,1350.5z"/>
</svg>
