<?xml version="1.0" encoding="utf-8"?>
<!-- Generator: Adobe Illustrator 22.1.0, SVG Export Plug-In . SVG Version: 6.00 Build 0)  -->
<svg version="1.1"
	 id="svg8" inkscape:version="0.92.4 (5da689c313, 2019-01-14)" sodipodi:docname="biomex.svg" xmlns:cc="http://creativecommons.org/ns#" xmlns:dc="http://purl.org/dc/elements/1.1/" xmlns:inkscape="http://www.inkscape.org/namespaces/inkscape" xmlns:rdf="http://www.w3.org/1999/02/22-rdf-syntax-ns#" xmlns:sodipodi="http://sodipodi.sourceforge.net/DTD/sodipodi-0.dtd" xmlns:svg="http://www.w3.org/2000/svg"
	 xmlns="http://www.w3.org/2000/svg" xmlns:xlink="http://www.w3.org/1999/xlink" x="0px" y="0px" viewBox="0 0 2267.7 2267.7"
	 style="enable-background:new 0 0 2267.7 2267.7;" xml:space="preserve">
<style type="text/css">
	.st0{fill:none;stroke:#000000;stroke-width:0.2646;}
</style>
<sodipodi:namedview  bordercolor="#666666" borderopacity="1.0" id="base" inkscape:current-layer="layer1" inkscape:cx="1232.6571" inkscape:cy="660.83799" inkscape:document-units="mm" inkscape:pageopacity="0.0" inkscape:pageshadow="2" inkscape:window-height="962" inkscape:window-maximized="1" inkscape:window-width="1280" inkscape:window-x="-8" inkscape:window-y="-8" inkscape:zoom="0.1400905" pagecolor="#ffffff" showgrid="false">
	</sodipodi:namedview>
<path id="path3713" inkscape:connector-curvature="0" class="st0" d="M1422.6,1185.1v-13.9h-41.7v14.8c0,14.8,1.7,29.5,6.9,41.7
	c6.9,6.1,12.2,14.8,16.5,26c5.2,5.2,12.2,9.6,20.8,12.2l-16.5-39.9l-4.3-12.2h22.6C1423.4,1206.8,1422.6,1196.4,1422.6,1185.1z
	 M874.7,940.2h-44.3l67.7,325.6h47.8l68.6-324.7h-41.7c-9.6,57.3-45.1,225.8-49.5,278.7h-0.9c-6.1-59.9-38.2-225.7-47.8-278.7
	L874.7,940.2L874.7,940.2z M44.6,1055.7h29.5c41.7,0,59,20.8,59,68.6v29.5c0,54.7-12.2,78.1-59.9,78.1H44.6V1055.7z M44.6,1020.1
	V872.5h27.8c39.1,0,53,20,53,59.9v20c0,51.2-11.3,67.7-49.5,67.7H44.6z M4.7,1265.8h72.9c72.1,0,96.4-36.5,96.4-111.1v-32.1
	c0-57.3-24.3-78.1-48.6-86c21.7-7.8,39.1-26,39.1-86.8v-20c0-57.3-23.4-92.9-87.7-92.9H4.7L4.7,1265.8L4.7,1265.8z M222.6,1265.8
	h40.8V941.1h-40.8V1265.8z M222.6,883.8h41.7v-66h-41.7V883.8z M398.9,972.4c28.7,0,40.8,24.3,40.8,57.3v144.1
	c0,44.3-14.8,61.6-41.7,61.6c-28.7,0-40.8-23.4-40.8-60.8v-144.1C357.2,993.2,370.2,972.4,398.9,972.4z M399.7,935.9
	c-52.1,0-83.4,33.9-83.4,94.6v142.4c0,69.5,31.3,99,81.6,99s83.4-29.5,83.4-101.6v-138.9C481.4,971.5,453.6,935.9,399.7,935.9z
	 M566.4,1034c0-38.2,12.2-60.8,39.9-60.8c39.1,0,42.5,33.9,42.5,70.3V1153c0,46-7.8,80.7-44.3,80.7c-26,0-38.2-22.6-38.2-66
	L566.4,1034L566.4,1034z M648.1,817.8v142.4c-6.1-12.2-21.7-24.3-50.4-24.3c-50.4,0-72.9,38.2-72.9,96.4v134.6
	c0,61.6,14.8,104.2,68.6,104.2c33.9,0,48.6-18.2,56.4-37.3c0,8.7,1.7,26.9,1.7,32.1h39.1c-0.9-19.1-0.9-46-0.9-81.6V817.8
	L648.1,817.8L648.1,817.8z M752.3,1265.8h39.9V941.1h-39.9V1265.8z M752.3,883.8h40.8v-66h-40.8V883.8z M1202,1037.5v73.8h-119v53.8
	c0,18.2,2.6,37.3,8.7,50.4c-2.6,1.7-6.1,3.5-7.8,5.2l-1.7-6.9h-34.7c-3.5-14.8-5.2-32.1-5.2-51.2v-124.2
	c0-51.2,19.1-102.5,81.6-102.5C1185.5,935.9,1202,981.9,1202,1037.5z M1162.9,1034.9c0-30.4-4.3-63.4-39.1-63.4
	c-33,0-40.8,27.8-40.8,63.4v42.5h79.9V1034.9z M1162.9,1174.7h39.1v2.6c0,11.3-0.9,21.7-2.6,33.9c-1.7,0-2.6,0-4.3,0
	c-20,0-32.1,7.8-41.7,16.5c0-0.9-0.9-1.7-1.7-2.6c8.7-11.3,11.3-27.8,11.3-47.8L1162.9,1174.7L1162.9,1174.7z M1097,1268.4
	c2.6,0,3.5,0,5.2,1.7c-1.7,0-4.3-0.9-6.9-1.7C1096.1,1267.6,1097,1267.6,1097,1268.4z M1291.5,991.5c0-22.6-0.9-41.7-1.7-50.4h-39.1
	c0.9,26.9,0.9,58.2,0.9,111.1v214.5h16.5c4.3-18.2,12.2-31.3,24.3-40.8v-155.4c0-56.4,26-84.2,67.7-84.2v-49.5
	C1331.4,937.6,1302.7,951.5,1291.5,991.5z M1471.2,1073.1c-33-21.7-42.5-33.9-42.5-60.8c0-26,9.6-42.5,33-42.5c25.2,0,33,17.4,33,46
	v18.2h39.9v-15.6c0-46-16.5-84.2-72.9-84.2c-53,0-73.8,35.6-73.8,82.5c0,45.2,20.8,67.7,63.4,96.4c36.5,25.2,46.9,39.9,46.9,73.8
	c0,22.6-6.1,38.2-19.1,45.2c3.5,11.3,6.9,22.6,10.4,32.1c1.7-2.6,1.7-6.9,3.5-10.4c3.5-9.6,7.8-20.8,12.2-33.9l1.7-6.1h28.7
	c1.7-9.6,3.5-20,3.5-32.1C1538.9,1128.6,1514.6,1105.2,1471.2,1073.1z M1841.9,817.8v397.7c-20.8,7.8-33,25.2-36.5,50.4h-2.6
	c-0.9-6.1-2.6-24.3-2.6-33c-2.6,8.7-6.9,16.5-13.9,22.6c-1.7-8.7-6.1-18.2-13-26c21.7-9.6,26-39.9,26-77.3v-108.5
	c0-36.5-3.5-70.3-42.5-70.3c-26.9,0-39.1,23.4-39.1,60.8v134.6c0,17.4,1.7,32.1,6.1,42.5h-1.7c-13.9,0-27.8,1.7-39.9,9.6
	c-3.5-15.6-5.2-33.9-5.2-53.8v-134.6c0-58.2,23.4-96.4,73.8-96.4c28.7,0,44.3,12.2,50.4,24.3V817.8H1841.9z M1729.1,1271
	c-3.5-0.9-6.9-2.6-11.3-4.3c1.7-0.9,3.5-0.9,4.3-0.9C1724.7,1265.8,1727.3,1265.8,1729.1,1271z M2046,1018.4V1212
	c-7.8,0.9-14.8,4.3-20,8.7l-0.9-7.8h-27.8c6.1-12.2,8.7-30.4,8.7-54.7v-50.4h-18.2c-39.1,0-60.8,16.5-60.8,65.1v6.1
	c0,29.5,8.7,54.7,36.5,54.7c0.9,0,1.7,0,3.5,0c0,7.8,0,18.2,0,36.5c-4.3,0.9-9.6,0.9-14.8,0.9c-3.5,0-6.1,0-8.7,0
	c-2.6-35.6-20.8-55.6-53-59.9c-2.6-9.6-3.5-20-3.5-31.3v-5.2c0-72.1,43.4-99.9,101.6-99.9h15.6V1021c0-29.5-5.2-49.5-32.1-49.5
	c-26,0-33.9,20-33.9,46.9v9.6h-40.8v-8.7c0-45.2,18.2-83.4,75.5-83.4C2028.6,935.9,2045.1,971.5,2046,1018.4z M2262.2,1239.8
	c-9.6-17.4-26-27.8-50.4-29.5c6.9-14.8,8.7-34.7,8.7-58.2v-108.5c0-36.5-3.5-70.3-42.5-70.3c-26.9,0-39.9,23.4-39.9,60.8v133.7
	c0,28.7,4.3,48.6,16.5,58.2c-11.3,9.6-17.4,22.6-20,39.9c-28.7-13.9-37.3-50.4-37.3-99v-134.6c0-58.2,23.4-96.4,73.8-96.4
	c28.7,0,43.4,12.2,50.4,24.3V817.8h41.7v366.4C2263,1205.9,2263,1224.2,2262.2,1239.8z M1580.6,1445.6h44.3V895.1h-44.3V1445.6z
	 M1581.5,865.6h44.3v-47.8h-44.3V865.6z M1033.6,1287.5v158h44.3v-153.7c0-20.8,2.6-33,19.1-33c10.4,0,16.5,4.3,16.5,25.2v161.5
	h44.3v-152.8c0-21.7,4.3-33.9,20-33.9c12.2,0,16.5,8.7,16.5,24.3v162.4h44.3v-170.2c0-43.4-20-56.4-44.3-56.4
	c-23.4,0-34.7,13-42.5,24.3c-6.1-15.6-17.4-24.3-36.5-24.3c-17.4,0-30.4,8.7-39.1,23.4c0-7.8,0-13-0.9-20h-42.5
	c0,10.4,0,20.8,0,65.1L1033.6,1287.5L1033.6,1287.5z M1317.5,1311v-22.6c0-21.7,6.9-32.1,20.8-32.1c16.5,0,20.8,11.3,20.8,32.1v22.6
	H1317.5z M1403.5,1346.6v-51.2c0-43.4-15.6-76.4-63.4-76.4c-56.4,0-66,46-66,76.4v74.7c0,45.1,9.6,79.9,66,79.9
	c57.3,0,61.6-45.1,61.6-68.6v-0.9h-43.4v0.9c0,14.8-2.6,31.3-20,31.3c-16.5,0-20.8-16.5-20.8-33v-33H1403.5z M1417.3,1222.4
	l44.3,109.4l-46,114.6h46.9c12.2-36.5,20.8-66,24.3-78.1h0.9c3.5,9.6,10.4,37.3,24.3,78.1h47.8l-46-119.8l45.1-104.2h-46
	c-10.4,30.4-19.1,53.8-23.4,69.5h-0.9c-3.5-11.3-12.2-35.6-22.6-69.5L1417.3,1222.4L1417.3,1222.4z M1740.3,1372.6v10.4
	c0,18.2-3.5,29.5-17.4,29.5c-14.8,0-17.4-13.9-17.4-29.5v-96.4c0-19.1,4.3-29.5,17.4-29.5c13.9,0,17.4,12.2,17.4,28.7v9.6h43.4v-8.7
	c0-27.8-5.2-67.7-60.8-67.7c-51.2,0-63.4,37.3-63.4,73.8v75.5c0,46.9,9.6,81.6,61.6,81.6c51.2,0,61.6-33.9,61.6-74.7v-2.6H1740.3z
	 M1890.6,1344.8v25.2c0,30.4-6.1,40.8-21.7,40.8c-13,0-19.1-11.3-19.1-26.9v-2.6c0-28.7,13-36.5,33.9-36.5h7.8H1890.6z
	 M1934.8,1279.7c0-36.5-14.8-60.8-58.2-60.8c-48.6,0-61.6,28.7-61.6,61.6v2.6h43.4v-3.5c0-13.9,3.5-24.3,16.5-24.3
	s15.6,10.4,15.6,26.9v28.7h-5.2c-40.8,0-77.3,14.8-77.3,70.3v3.5c0,33.9,13,65.1,46.9,65.1c17.4,0,28.7-6.1,36.5-20
	c0.9,2.6,2.6,11.3,3.5,15.6h39.9c0-8.7,0-31.3,0-45.1L1934.8,1279.7L1934.8,1279.7z M1975.6,1445.6h44.3V1298
	c0-31.3,6.9-39.1,22.6-39.1c13,0,19.1,6.9,19.1,26.9v160.6h44.3V1278c0-41.7-18.2-59-46-59c-22.6,0-33.9,10.4-40.8,23.4
	c0-6.1-0.9-14.8-1.7-20h-42.5c0.9,10.4,0.9,23.4,0.9,68.6V1445.6z M2218.8,1344.8v25.2c0,30.4-6.1,40.8-21.7,40.8
	c-13,0-19.1-11.3-19.1-26.9v-2.6c0-28.7,13-36.5,33.9-36.5h7.8H2218.8z M2263,1279.7c0-36.5-14.8-60.8-58.2-60.8
	c-48.6,0-61.6,28.7-61.6,61.6v2.6h43.4v-3.5c0-13.9,3.5-24.3,16.5-24.3c13,0,15.6,10.4,15.6,26.9v28.7h-5.2
	c-40.8,0-77.3,14.8-77.3,70.3v3.5c0,33.9,13,65.1,46.9,65.1c16.5,0,28.6-6.1,36.5-20c0.9,2.6,2.6,11.3,3.5,15.6h39.9
	c0-8.7,0-31.3,0-45.1L2263,1279.7L2263,1279.7z"/>
</svg>
