<?xml version="1.0" encoding="UTF-8" standalone="no"?>
<svg
   xmlns:dc="http://purl.org/dc/elements/1.1/"
   xmlns:cc="http://creativecommons.org/ns#"
   xmlns:rdf="http://www.w3.org/1999/02/22-rdf-syntax-ns#"
   xmlns:svg="http://www.w3.org/2000/svg"
   xmlns="http://www.w3.org/2000/svg"
   version="1.1"
   id="svg8"
   x="0px"
   y="0px"
   viewBox="0 0 2267.7 2267.7"
   style="enable-background:new 0 0 2267.7 2267.7;"
   xml:space="preserve"><metadata
   id="metadata9"><rdf:RDF><cc:Work
       rdf:about=""><dc:format>image/svg+xml</dc:format><dc:type
         rdf:resource="http://purl.org/dc/dcmitype/StillImage" /><dc:title></dc:title></cc:Work></rdf:RDF></metadata><defs
   id="defs7" />
<style
   type="text/css"
   id="style2">
	.st0{fill:none;stroke:#000000;stroke-width:0.2646;}
</style>

<path
   id="path65"
   style="fill:none"
   d="M 4379.3242 1406.8008 C 4198.426 1406.8008 4167.6348 1554.3423 4167.6348 1651.8477 L 4167.6348 1891.4414 C 4167.6348 2036.0959 4198.426 2147.7148 4379.3242 2147.7148 C 4563.1091 2147.7148 4576.9023 2003.0598 4576.9023 1927.6855 L 4576.9023 1924.7988 L 4437.6992 1924.7988 L 4437.6992 1927.6855 C 4437.6992 1975.1553 4429.3598 2028.0781 4373.5508 2028.0781 C 4320.6284 2028.0781 4306.8379 1975.1548 4306.8379 1922.2324 L 4306.8379 1816.3887 L 4582.6758 1816.3887 L 4582.6758 1816.0664 L 4582.6758 1651.8477 C 4582.6758 1512.6459 4532.6386 1406.8008 4379.3242 1406.8008 z M 4373.5508 1526.4375 C 4426.4731 1526.4375 4440.2656 1562.6823 4440.2656 1629.3965 L 4440.2656 1701.8828 L 4306.8379 1701.8828 L 4306.8379 1629.3965 C 4306.8379 1559.7956 4328.9676 1526.4375 4373.5508 1526.4375 z " /><path
   id="path79"
   style="fill:none"
   d="M 7152.7773 1406.4805 C 6996.897 1406.4805 6955.2012 1498.5327 6955.2012 1604.0566 L 6955.2012 1612.3965 L 7094.4023 1612.3965 L 7094.4023 1601.1699 C 7094.4023 1556.5869 7105.6277 1523.2305 7147.3242 1523.2305 C 7189.0205 1523.2305 7197.3594 1556.5875 7197.3594 1609.5098 L 7197.3594 1701.5625 L 7180.6816 1701.5625 C 7049.8191 1701.5625 6932.748 1749.0314 6932.748 1927.043 L 6932.748 1938.2695 C 6932.748 2047.001 6974.4443 2147.0723 7083.1758 2147.0723 C 7136.0981 2147.0723 7174.9075 2127.5068 7200.2461 2082.9238 C 7203.1328 2091.2631 7208.5859 2119.1671 7211.4727 2132.959 L 7339.4492 2132.959 L 7339.4492 1988.3047 L 7339.4492 1601.4902 C 7339.4492 1484.4195 7291.9792 1406.4805 7152.7773 1406.4805 z M 7175.5488 1810.293 L 7197.6816 1810.293 L 7197.6816 1891.1211 C 7197.6816 1988.6265 7178.1158 2021.9824 7128.0801 2021.9824 C 7086.3838 2021.9824 7066.8184 1985.7388 7066.8184 1935.7031 L 7066.8184 1927.3652 C 7066.8184 1835.3124 7108.5138 1810.293 7175.5488 1810.293 z " /><path
   id="path73"
   style="fill:none"
   d="M 6100.1035 1406.4805 C 5944.2231 1406.4805 5902.5273 1498.5327 5902.5273 1604.0566 L 5902.5273 1612.3965 L 6041.7285 1612.3965 L 6041.7285 1601.1699 C 6041.7285 1556.5869 6052.9541 1523.2305 6094.6504 1523.2305 C 6136.3468 1523.2305 6144.6855 1556.5875 6144.6855 1609.5098 L 6144.6855 1701.5625 L 6128.0078 1701.5625 C 5997.1452 1701.5625 5880.0742 1749.0314 5880.0742 1927.043 L 5880.0742 1938.2695 C 5880.0742 2047.001 5921.7707 2147.0723 6030.502 2147.0723 C 6086.311 2147.0723 6122.5544 2127.5068 6147.5723 2082.9238 C 6150.4589 2091.2631 6155.9122 2119.1671 6158.7988 2132.959 L 6286.7754 2132.959 L 6286.7754 1988.3047 L 6286.7754 1601.4902 C 6286.7754 1484.4195 6239.3053 1406.4805 6100.1035 1406.4805 z M 6122.875 1810.293 L 6145.0078 1810.293 L 6145.0078 1891.1211 C 6145.0078 1988.6265 6125.4419 2021.9824 6075.4062 2021.9824 C 6033.7099 2021.9824 6014.1445 1985.7388 6014.1445 1935.7031 L 6014.1445 1927.3652 C 6014.1445 1835.3124 6055.84 1810.293 6122.875 1810.293 z " /><path
   id="path37"
   style="fill:none"
   d="M 3685.8809 498.78125 C 3485.4174 498.78125 3424.1562 663.32136 3424.1562 827.54102 L 3424.1562 1225.9023 C 3424.1562 1287.164 3429.61 1342.6532 3440.8359 1390.123 L 3552.1328 1390.123 L 3557.5859 1412.2539 C 3563.0385 1406.8012 3574.2642 1401.0268 3582.6035 1395.5742 C 3563.0382 1353.557 3554.6992 1292.2969 3554.6992 1233.9219 L 3554.6992 1061.3633 L 3936.3809 1061.3633 L 3936.3809 824.6543 C 3936.3809 646.322 3883.4576 498.78125 3685.8809 498.78125 z M 3685.5605 612.96484 C 3797.1785 612.96484 3810.9707 718.81099 3810.9707 816.31641 L 3810.9707 952.63086 L 3554.6992 952.63086 L 3554.6992 816.31641 C 3554.6992 702.13242 3579.7157 612.96484 3685.5605 612.96484 z " /><path
   id="path19"
   style="fill:none"
   d="M 96.142578 181.24805 L 96.142578 1556.9082 L 329.96289 1556.9082 C 561.21749 1556.9082 639.1582 1439.8375 639.1582 1200.5645 L 639.1582 1097.6055 C 639.1582 913.82055 561.21754 847.10616 483.27734 821.76758 C 552.87824 796.74974 608.6875 738.37607 608.6875 543.36523 L 608.6875 479.2168 C 608.6875 295.4319 533.63328 181.24805 327.39648 181.24805 L 96.142578 181.24805 z M 224.11914 295.43164 L 313.28516 295.43164 C 438.69514 295.43164 483.27734 359.58076 483.27734 487.55664 L 483.27734 551.70312 C 483.27734 715.92279 447.03295 768.8457 324.50977 768.8457 L 224.11914 768.8457 L 224.11914 295.43164 z M 224.11914 883.0293 L 318.73633 883.0293 C 452.48563 883.0293 507.97461 949.74416 507.97461 1103.0586 L 507.97461 1197.6777 C 507.97461 1373.1233 468.84331 1448.1758 315.84961 1448.1758 L 224.11914 1448.1758 L 224.11914 883.0293 z " /><path
   style="fill:none"
   d="m 6417.6375,2133.6014 h 142.0886 v -473.4146 c 0,-100.392 22.1311,-125.4098 72.4875,-125.4098 41.6964,0 61.2617,22.1311 61.2617,86.2794 v 515.1109 h 142.0885 v -540.1288 c 0,-133.7492 -58.375,-189.2375 -147.5412,-189.2375 -72.4875,0 -108.7313,33.3572 -130.8625,75.0535 0,-19.5652 -2.8867,-47.4697 -5.4526,-64.1483 h -136.3151 c 2.8866,33.3572 2.8866,75.0535 2.8866,220.0288 v 495.8664 z"
   id="path75" /><path
   style="fill:none"
   d="m 5662.9327,1899.46 v 33.3572 c 0,58.375 -11.226,94.6187 -55.809,94.6187 -47.4698,0 -55.8091,-44.583 -55.8091,-94.6187 v -309.1948 c 0,-61.2617 13.792,-94.6188 55.8091,-94.6188 44.583,0 55.809,39.1304 55.809,92.0528 v 30.7912 h 139.2018 v -27.9045 c 0,-89.1661 -16.6785,-217.1421 -195.0108,-217.1421 -164.2197,0 -203.3501,119.6367 -203.3501,236.7073 v 242.1599 c 0,150.4278 30.7911,261.7251 197.5767,261.7251 164.2197,0 197.5768,-108.7314 197.5768,-239.594 v -8.3393 z"
   id="path69" /><path
   style="fill:none"
   d="m 4626.9376,1417.7062 142.0885,350.8913 -147.5412,367.5698 h 150.4278 c 39.1305,-117.0706 66.7142,-211.6894 77.9402,-250.4991 h 2.8867 c 11.2259,30.7911 33.3571,119.6366 77.9401,250.4991 h 153.3145 l -147.5411,-384.2483 144.6544,-334.2128 h -147.541 c -33.3572,97.5055 -61.2617,172.559 -75.0535,222.9154 h -2.8868 c -11.2259,-36.2438 -39.1304,-114.1839 -72.4875,-222.9154 z"
   id="path67" /><path
   style="fill:none"
   d="m 3396.2522,1626.509 v 506.7717 h 142.0885 v -492.9798 c 0,-66.7142 8.3393,-105.8447 61.2617,-105.8447 33.3571,0 52.9224,13.7919 52.9224,80.8268 v 517.9977 h 142.0885 v -490.0932 c 0,-69.6008 13.7918,-108.7313 64.1483,-108.7313 39.1304,0 52.9223,27.9045 52.9223,77.9402 v 520.8843 h 142.0885 v -545.9022 c 0,-139.2018 -64.1483,-180.8982 -142.0885,-180.8982 -75.0535,0 -111.2973,41.6964 -136.3152,77.9402 -19.5652,-50.0357 -55.809,-77.9402 -117.0706,-77.9402 -55.809,0 -97.5055,27.9045 -125.41,75.0536 0,-25.0179 0,-41.6965 -2.8866,-64.1483 h -136.3152 c 0,33.357 0,66.7142 0,208.8027 z"
   id="path61" /><path
   style="fill:none"
   d="m 5153.5952,273.30046 h 142.0885 V 119.986 h -142.0885 z"
   id="path59" /><path
   style="fill:none"
   d="M 5150.7085,2133.6014 H 5292.797 V 367.91921 h -142.0885 z"
   id="path57" /><path
   style="fill:none"
   d="m 7336.8828,1473.5153 c -30.7912,-55.8091 -83.3928,-89.1661 -161.6537,-94.6188 22.1312,-47.4697 27.9045,-111.2973 27.9045,-186.6715 V 844.22039 c 0,-117.07066 -11.226,-225.48129 -136.3152,-225.48129 -86.2795,0 -127.9759,75.05352 -127.9759,195.01085 v 428.83135 c 0,92.0529 13.7919,155.8805 52.9224,186.6717 -36.2438,30.7911 -55.809,72.4876 -64.1483,127.9758 -92.0528,-44.583 -119.6366,-161.6537 -119.6366,-317.5341 V 807.9766 c 0,-186.67158 75.0535,-309.19484 236.7072,-309.19484 92.0528,0 139.2019,39.13047 161.6538,77.94019 V 119.986 h 133.7492 v 1175.197 c -0.6415,69.6009 -0.6415,128.2966 -3.2074,178.3323 z"
   id="path55" /><path
   style="fill:none"
   d="m 6643.4396,763.39352 v 620.95568 c -25.0178,2.8866 -47.4698,13.7918 -64.1483,27.9045 l -2.8867,-25.0179 h -89.1661 c 19.5652,-39.1304 27.9045,-97.5054 27.9045,-175.4456 v -161.6537 h -58.375 c -125.4099,0 -195.0108,52.9223 -195.0108,208.8027 v 19.5652 c 0,94.6188 27.9045,175.4456 117.0706,175.4456 2.8867,0 5.4527,0 11.226,0 0,25.0179 0,58.375 0,117.0707 -13.7919,2.8867 -30.7912,2.8867 -47.4698,2.8867 -11.2259,0 -19.5652,0 -27.9045,0 -8.3392,-114.184 -66.7142,-178.3323 -169.993,-192.1242 -8.3393,-30.7912 -11.226,-64.1483 -11.226,-100.3921 v -16.6786 c 0,-231.2546 139.2019,-320.42075 325.8735,-320.42075 h 50.0356 V 771.73281 c 0,-94.61876 -16.6786,-158.76706 -102.958,-158.76706 -83.3928,0 -108.7314,64.1483 -108.7314,150.42777 v 30.7912 H 6166.8177 V 766.2802 c 0,-144.97518 58.3749,-267.49844 242.1598,-267.49844 178.6531,0 231.5754,114.18399 234.4621,264.61176 z"
   id="path53" /><path
   style="fill:none"
   d="m 5627.0097,1573.5867 c -11.226,-2.8867 -22.1312,-8.3393 -36.2439,-13.7919 5.4527,-2.8867 11.226,-2.8867 13.7919,-2.8867 8.3393,0 16.6786,0 22.452,16.6786 z"
   id="path51" /><path
   style="fill:none"
   d="m 5988.8061,119.986 v 1275.5891 c -66.7143,25.0179 -105.8447,80.8269 -117.0706,161.6537 h -8.3393 c -2.8867,-19.5652 -8.3393,-77.9402 -8.3393,-105.8447 -8.3392,27.9045 -22.1312,52.9224 -44.5831,72.4877 -5.4526,-27.9046 -19.5652,-58.375 -41.6964,-83.3929 69.6009,-30.7911 83.3928,-127.9758 83.3928,-247.9332 V 844.54113 c 0,-117.07066 -11.226,-225.48129 -136.3152,-225.48129 -86.2794,0 -125.4099,75.05352 -125.4099,195.01085 v 431.71811 c 0,55.8091 5.4526,102.9581 19.5653,136.3151 h -5.4527 c -44.583,0 -89.1661,5.4527 -127.9758,30.7913 -11.226,-50.0357 -16.6786,-108.7314 -16.6786,-172.559 V 808.61808 c 0,-186.67157 75.0535,-309.19484 236.7073,-309.19484 92.0528,0 142.0885,39.13047 161.6537,77.94019 V 119.986 Z"
   id="path49" /><path
   style="fill:none"
   d="M 4799.8172,938.83915 C 4693.9725,869.23823 4663.5021,830.10777 4663.5021,743.8283 c 0,-83.39281 30.7912,-136.31516 105.8447,-136.31516 80.8269,0 105.8447,55.80903 105.8447,147.54111 v 58.37495 h 127.9759 v -50.03568 c 0,-147.5411 -52.9224,-270.06436 -233.8206,-270.06436 -169.9931,0 -236.7073,114.18398 -236.7073,264.61176 0,144.97518 66.7142,217.14202 203.3502,309.19488 117.0706,80.8268 150.4278,127.9759 150.4278,236.7072 0,72.4876 -19.5653,122.5233 -61.2617,144.9752 11.226,36.2438 22.1312,72.4876 33.3572,102.9581 5.4525,-8.3394 5.4525,-22.1312 11.2259,-33.3572 11.2259,-30.7912 25.0178,-66.7142 39.1304,-108.7313 l 5.4527,-19.5653 h 92.0528 c 5.4526,-30.7912 11.226,-64.1483 11.226,-102.958 -0.6416,-170.3138 -78.5817,-245.3673 -217.7836,-348.32535 z"
   id="path47" /><path
   style="fill:none"
   d="m 4223.4447,677.11405 c 0,-72.48758 -2.8866,-133.74921 -5.4526,-161.65373 h -125.41 c 2.8868,86.27947 2.8868,186.67157 2.8868,356.34385 v 687.99063 h 52.9223 c 13.7919,-58.375 39.1305,-100.3921 77.9402,-130.8626 V 930.49987 c 0,-180.89823 83.3928,-270.06438 217.142,-270.06438 V 501.66843 c -92.0528,2.56594 -184.1056,47.14901 -220.0287,175.44562 z"
   id="path45" /><path
   style="fill:none"
   d="m 3599.6024,1565.2474 c 8.3392,0 11.226,0 16.6786,5.4526 -5.4526,0 -13.7919,-2.8867 -22.1312,-5.4526 2.5659,-2.5659 5.4526,-2.5659 5.4526,0 z"
   id="path43" /><path
   style="fill:none"
   d="m 3810.9711,1264.7125 h 125.4099 v 8.3393 c 0,36.2438 -2.8867,69.6009 -8.3392,108.7314 -5.4527,0 -8.3393,0 -13.7919,0 -64.1483,0 -102.9581,25.0178 -133.7493,52.9224 0,-2.8867 -2.8866,-5.4526 -5.4525,-8.3393 27.9045,-36.2438 36.2437,-89.1662 36.2437,-153.3145 z"
   id="path41" /><path
   style="fill:none"
   d="m 2494.0063,331.67542 h 130.8625 V 119.986 h -130.8625 z"
   id="path35" /><path
   style="fill:none"
   d="m 2494.0063,1556.9081 h 127.9759 V 515.46032 h -127.9759 z"
   id="path33" /><path
   id="path31"
   style="fill:none"
   d="M 2159.793 119.98633 L 2159.793 576.72266 C 2140.2278 537.5922 2090.1934 498.78125 1998.1406 498.78125 C 1836.4868 498.78125 1764.3184 621.30499 1764.3184 807.97656 L 1764.3184 1239.6953 C 1764.3184 1437.2721 1811.7887 1573.9082 1984.3477 1573.9082 C 2093.0791 1573.9082 2140.2283 1515.5331 2165.2461 1454.2715 C 2165.2461 1482.176 2170.6992 1540.55 2170.6992 1557.2285 L 2296.1094 1557.2285 C 2293.2227 1495.9669 2293.2227 1409.6879 2293.2227 1295.5039 L 2293.2227 119.98633 L 2159.793 119.98633 z M 2025.7246 618.41797 C 2151.1345 618.41797 2162.0391 727.15046 2162.0391 843.90039 L 2162.0391 1195.1113 C 2162.0391 1342.6523 2137.0219 1453.9492 2019.9512 1453.9492 C 1936.5584 1453.9492 1897.4277 1381.4616 1897.4277 1242.2598 L 1897.748 813.42969 C 1897.748 690.90643 1936.8791 618.41797 2025.7246 618.41797 z " /><path
   id="path27"
   style="fill:none"
   d="M 1363.0723 498.78125 C 1195.966 498.78125 1095.5723 607.51302 1095.5723 802.20312 L 1095.5723 1258.9395 C 1095.5723 1481.8547 1195.9658 1576.4727 1357.2988 1576.4727 C 1518.6318 1576.4727 1624.7969 1481.8542 1624.7969 1250.5996 L 1624.7969 805.08984 C 1625.1177 612.96567 1535.9521 498.78125 1363.0723 498.78125 z M 1360.5059 615.85156 C 1452.5588 615.85156 1491.3691 693.79202 1491.3691 799.63672 L 1491.3691 1261.8262 C 1491.3691 1403.9147 1443.8986 1459.4023 1357.6191 1459.4023 C 1265.5663 1459.4023 1226.7559 1384.3499 1226.7559 1264.3926 L 1226.7559 802.20312 C 1226.7559 682.56654 1268.4531 615.85156 1360.5059 615.85156 z " /><path
   style="fill:none"
   d="m 795.03836,331.67542 h 133.7492 V 119.986 h -133.7492 z"
   id="path23" /><path
   style="fill:none"
   d="m 795.03836,1556.9081 h 130.8626 V 515.46032 h -130.8626 z"
   id="path21" /><path
   style="fill:none"
   d="m 2886.5939,512.57365 h -142.0885 l 217.142,1044.33445 h 153.3145 L 3334.9906,515.46032 h -133.7492 c -30.7912,183.7849 -144.6545,724.23438 -158.7671,893.90668 h -2.8867 C 3020.0224,1217.2428 2917.0644,685.45333 2886.2732,515.46032 Z"
   id="path13" /><path
   style="fill:none"
   d="m 4643.9369,1298.0697 v -44.5831 h -133.7493 v 47.4697 c 0,47.4698 5.4526,94.6188 22.1312,133.7493 22.1312,19.5652 39.1304,47.4697 52.9223,83.3927 16.6786,16.6787 39.1305,30.7913 66.7143,39.1305 l -52.9223,-127.9758 -13.792,-39.1305 h 72.4876 c -11.2259,-22.452 -13.7918,-55.809 -13.7918,-92.0528 z"
   id="path3713" />
</svg>
