<?xml version="1.0" encoding="utf-8"?>
<!-- Generator: Adobe Illustrator 22.1.0, SVG Export Plug-In . SVG Version: 6.00 Build 0)  -->
<svg version="1.1"
	 id="svg8" inkscape:version="0.92.4 (5da689c313, 2019-01-14)" sodipodi:docname="busqueda-region.svg" xmlns:cc="http://creativecommons.org/ns#" xmlns:dc="http://purl.org/dc/elements/1.1/" xmlns:inkscape="http://www.inkscape.org/namespaces/inkscape" xmlns:rdf="http://www.w3.org/1999/02/22-rdf-syntax-ns#" xmlns:sodipodi="http://sodipodi.sourceforge.net/DTD/sodipodi-0.dtd" xmlns:svg="http://www.w3.org/2000/svg"
	 xmlns="http://www.w3.org/2000/svg" xmlns:xlink="http://www.w3.org/1999/xlink" x="0px" y="0px" viewBox="0 0 2267.7 2267.7"
	 style="enable-background:new 0 0 2267.7 2267.7;" xml:space="preserve">
<style type="text/css">
	.st0{fill:none;stroke:#000000;stroke-width:0.2646;}
</style>
<sodipodi:namedview  bordercolor="#666666" borderopacity="1.0" id="base" inkscape:current-layer="layer1" inkscape:cx="1285.5705" inkscape:cy="1000.996" inkscape:document-units="mm" inkscape:pageopacity="0.0" inkscape:pageshadow="2" inkscape:window-height="962" inkscape:window-maximized="1" inkscape:window-width="1280" inkscape:window-x="-8" inkscape:window-y="-8" inkscape:zoom="0.1400905" pagecolor="#ffffff" showgrid="false">
	</sodipodi:namedview>
<path id="path3713" inkscape:connector-curvature="0" class="st0" d="M1627.9,1256.8c-4.7,9.3-10.9,17.1-17.1,24.8
	c-9.3,10.9-17.1,20.2-15.5,35.7c0,4.7-6.2,9.3-10.9,14c0,1.6-1.6,1.6-4.7,4.7c4.7,1.6,6.2,1.6,9.3,3.1c3.1,0,4.7,1.6,7.8,1.6
	c-1.6,3.1-3.1,6.2-4.7,7.8c-4.7,1.6-7.8,3.1-7.8,9.3c3.1-1.6,4.7-1.6,9.3-4.7c-6.2,21.7-12.4,41.9-18.6,62
	c-4.7-4.7-7.8-9.3-10.9-12.4c-1.6-1.6,0-4.7,0-6.2c0-4.7,0-7.8,1.6-12.4c-1.6,0-3.1,0-3.1,0c-3.1,4.7-6.2,9.3-9.3,12.4
	c-1.6,3.1-4.7,4.7-7.8,6.2c-3.1,3.1-6.2,3.1-7.8,6.2c-4.7,7.8-9.3,15.5-12.4,21.7c-3.1,4.7-6.2,6.2-10.9,3.1
	c-4.7-1.6-7.8-3.1-9.3,3.1c0,4.7-3.1,4.7-7.8,4.7c-27.9,0-54.3,0-80.7,0c-7.8,0-10.9,1.6-9.3,10.9c0,0,0,1.6,0,3.1
	c0,6.2,1.6,14-1.6,17.1c-3.1,3.1-10.9,3.1-17.1,3.1c0,0-1.6,1.6-4.7,3.1c12.4,7.8,23.3,17.1,32.6,24.8c1.6,1.6,4.7,3.1,4.7,4.7
	c3.1,7.8,6.2,14,15.5,17.1c0,0,1.6,3.1,0,4.7c-1.6,15.5-1.6,15.5-17.1,15.5c-15.5,0-29.5,0-45,0c-6.2,0-9.3,1.6-10.9,6.2
	c-6.2,12.4-14,24.8-20.2,37.2c0,1.6,0,6.2,1.6,9.3c3.1,4.7,3.1,6.2,1.6,10.9c-3.1,4.7-1.6,10.9-3.1,15.5c0,3.1-1.6,6.2-3.1,9.3
	c-3.1-1.6-6.2-3.1-7.8-4.7c-21.7-23.3-45-45-66.7-68.2c-1.6-1.6-6.2-3.1-7.8-6.2c-3.1-1.6-6.2-3.1-6.2-4.7
	c-3.1-7.8-6.2-7.8-10.9-4.7c-1.6,0-3.1,0-4.7-1.6c1.6,0,3.1-1.6,6.2-1.6c-6.2-3.1-12.4-6.2-17.1-7.8v1.6c-4.7,1.6-10.9,1.6-17.1,3.1
	c1.6-4.7,1.6-6.2,3.1-10.9c-3.1,1.6-4.7,3.1-7.8,3.1c-1.6-1.6-3.1-3.1-6.2-6.2c-3.1,1.6-4.7,4.7-7.8,6.2c3.1,1.6,3.1,3.1,6.2,4.7
	c-1.6,0-1.6,1.6-3.1,1.6c-9.3,0-15.5,4.7-21.7,10.9c-1.6,1.6-4.7,1.6-7.8,3.1c-9.3,4.7-20.2,7.8-29.5,12.4
	c-15.5,7.8-27.9,7.8-41.9,0c-3.1,0-3.1-1.6-4.7-1.6c-12.4-7.8-24.8-7.8-37.2-10.9c-4.7,0-9.3-3.1-14-6.2
	c-9.3-3.1-17.1-6.2-24.8-10.9c-4.7-1.6-9.3-3.1-12.4-6.2c-6.2-10.9-18.6-12.4-29.5-14c-7.8-3.1-15.5-3.1-23.3-4.7
	c-4.7-1.6-9.3-3.1-10.9-4.7c-10.9-10.9-24.8-14-37.2-18.6c-4.7-1.6-7.8-3.1-10.9-3.1c-15.5-4.7-26.4-15.5-38.8-23.3
	c-7.8-6.2-14-14-21.7-20.2c-4.7-4.7-9.3-9.3-17.1-4.7c-1.6,0-3.1,0-4.7,0c-21.7-6.2-43.4-14-63.6-21.7c-3.1,0-6.2-4.7-7.8-7.8
	c-9.3-12.4-20.2-23.3-37.2-31c-12.4-7.8-26.4-10.9-37.2-20.2c-1.6,0-3.1-1.6-4.7-3.1c-6.2-7.8-12.4-17.1-18.6-24.8
	c-6.2-10.9-10.9-21.7-15.5-34.1c-3.1-4.7,1.6-6.2,6.2-7.8c3.1,0,6.2,0,9.3-1.6c1.6-1.6,6.2-4.7,4.7-6.2c0-3.1-3.1-4.7-6.2-7.8
	c-1.6,0-3.1,0-6.2-1.6c3.1-4.7,4.7-7.8,7.8-10.9c7.8-7.8,9.3-14,4.7-23.3c-4.7-10.9-10.9-20.2-17.1-29.5c-1.6-4.7-3.1-9.3-3.1-12.4
	c0-15.5-4.7-27.9-15.5-38.8c-9.3-9.3-17.1-17.1-24.8-26.4c-7.8-9.3-17.1-18.6-21.7-29.5c-3.1-4.7-6.2-9.3-10.9-14
	c-6.2-6.2-14-12.4-21.7-18.6c-3.1-3.1-6.2-4.7-7.8-6.2c0-3.1,1.6-4.7,1.6-6.2c-1.6,0-3.1,0-4.7,0c-3.1-1.6-6.2-3.1-9.3-3.1
	c-1.6-1.6-1.6-3.1-3.1-3.1c-7.8-1.6-10.9-6.2-9.3-10.9c-4.7-6.2-7.8-10.9-12.4-15.5c4.7,0,7.8,0,10.9,0c0-3.1,0-1.6,0-1.6
	c-10.9-6.2-21.7-12.4-32.6-18.6c-1.6-1.6-4.7-3.1-6.2-6.2c-1.6-1.6-1.6-3.1-3.1-4.7c-1.6,1.6-3.1,3.1-4.7,6.2
	c-6.2-4.7-12.4-7.8-18.6-12.4c-10.9-7.8-12.4-20.2-4.7-31c9.3-10.9,6.2-23.3-4.7-29.5c-3.1-1.6-6.2-1.6-9.3-1.6
	c-7.8,1.6-12.4-1.6-14-9.3c-1.6-9.3-6.2-15.5-17.1-17.1c-10.9,0-26.4-18.6-23.3-32.6c1.6-10.9-3.1-14-12.4-10.9
	c-1.6,0-3.1,1.6-3.1,0c-6.2-6.2-17.1-6.2-21.7-15.5c-4.7-7.8-9.3-14-17.1-18.6c-7.8-3.1-10.9-12.4-17.1-18.6
	c-3.1-4.7-6.2-7.8-10.9-12.4l-3.1-7.8c1.6-7.8,0-9.3-6.2-12.4c-1.6,0-3.1-3.1-3.1-4.7c-1.6-3.1-1.6-6.2-3.1-7.8
	c-4.7-7.8-9.3-14-14-21.7c-1.6-1.5-3.1-4.7-3.1-7.8c0-10.9-4.7-20.2-10.9-29.5c-7.8-7.8-9.3-17.1-6.2-27.9c3.1-7.8,0-10.9-6.2-12.4
	c-3.1,0-7.8-1.6-10.9-1.6c-6.2-1.6-12.4-3.1-14-10.9c0-6.2-12.4-9.3-17.1-6.2c-4.7,4.7-9.3,4.7-15.5,0c-3.1-1.6-7.8-4.7-10.9-7.8
	c-9.3-4.7-17.1-3.1-18.6,6.2c-3.1,12.4-7.8,26.4,4.7,37.2c0,1.6,1.6,3.1,1.6,3.1c1.6,10.9,1.6,23.3,3.1,34.1
	c1.6,4.7,1.6,9.3,3.1,12.4c6.2,7.8,12.4,15.5,18.6,20.2c14,10.9,29.5,20.2,35.7,37.2c1.6,3.1,1.6,6.2,4.7,7.8
	c1.6,3.1,4.7,4.7,7.8,7.8l1.6,1.5c9.3,0,7.8,9.3,9.3,14c1.6,3.1,4.7,6.2,7.8,7.8c1.6,3.1,6.2,4.7,6.2,6.2c3.1,9.3,4.7,20.2,7.8,29.5
	c3.1,4.7,7.8,9.3,12.4,12.4c4.7,4.7,9.3,7.8,10.9,14c1.6,7.8,4.7,14,12.4,15.5c1.6,1.6,3.1,4.7,3.1,6.2c1.6,6.2,1.6,7.8,7.8,9.3
	c6.2,0,12.4,4.7,14,9.3c6.2,14,14,27.9,14,43.4c0,9.3,7.8,17.1,12.4,24.8c1.6,1.6,4.7,4.7,6.2,6.2c3.1,9.3,7.8,17.1,12.4,24.8
	c1.6,4.7,4.7,10.9,3.1,15.5c-3.1,20.2,0,26.4,20.2,34.1c1.6-3.1,3.1-6.2,4.7-12.4c4.7,7.8,9.3,12.4,14,17.1c1.6,1.6,1.6,1.6,1.6,1.6
	c10.9,1.6,9.3,12.4,14,18.6c1.6,3.1,3.1,6.2,6.2,7.8c10.9,7.8,10.9,21.7,1.6,29.5c-4.7,4.7-7.8,7.8-12.4,10.9
	c-9.3,6.2-14,4.7-17.1-6.2c-3.1-9.3-6.2-17.1-10.9-26.4c-1.6-3.1-6.2-6.2-9.3-9.3c-6.2-4.7-12.4-9.3-18.6-14
	c-9.3-7.8-18.6-14-27.9-21.7c-4.7-4.7-9.3-9.3-15.5-12.4c-1.6-1.6-4.7-3.1-6.2-4.7c-1.6,1.6-1.6,1.6-1.6,1.6
	c1.6,3.1,1.6,6.2,3.1,7.8l-1.6,1.6c-3.1-1.6-6.2-4.7-10.9-7.8c7.8-7.8,6.2-12.4-3.1-15.5c-3.1-1.6-4.7-4.7-7.8-7.8
	c-1.6,1.6-3.1,3.1-4.7,4.7l-1.6-1.6c1.6-3.1,1.6-6.2,3.1-9.3c9.3-18.6,9.3-37.2,0-55.8c-3.1-6.2-6.2-10.9-9.3-17.1
	c-3.1-1.6-6.2-3.1-9.3-4.7c-6.2-3.1-12.4-6.2-18.6-10.9c-7.8-4.7-14-9.3-21.7-15.5c-3.1-1.6-7.8-3.1-12.4,0
	c-1.6,1.6-7.8-1.6-9.3-4.7c-4.7-3.1-6.2-9.3-14-9.3c-1.6,0-3.1-1.6-4.7-3.1c-4.7-1.5-7.8-4.7-10.9-4.7c-6.2-1.6-9.3-4.7-12.4-10.9
	c0-3.1-3.1-6.2-6.2-7.8c-6.2-6.2-12.4-10.9-20.2-15.5c-1.6-1.6-1.6-3.1-3.1-4.7c1.6-1.5,1.6-1.5,1.6-3.1c4.7,0,9.3,0,14,1.6
	c10.9,6.2,18.6,1.5,26.4-6.2c4.7-4.7,10.9-10.9,6.2-18.6c0-3.1,3.1-6.2,3.1-9.3c0-4.7,0-10.9-3.1-12.4c-12.4-14-26.4-27.9-40.3-41.9
	c-1.6-1.6-3.1-3.1-4.7-3.1c-9.3-4.7-18.6-9.3-26.4-14c-12.4-7.8-17.1-18.6-17.1-31c0-7.8-1.6-12.4-7.8-15.5
	c-3.1-1.6-4.7-6.2-4.7-7.8c0-9.3-1.6-17.1-9.3-21.7c-3.1-1.6-3.1-7.8-6.2-10.9c-3.1-6.2-6.2-15.5-12.4-20.2
	c-6.2-6.2-6.2-10.9-4.7-17.1c1.6-4.7,0-7.8-3.1-9.3c-6.2-4.7-10.9-7.8-10.9-15.5c0-1.5-3.1-4.7-4.7-6.2c-1.6-3.1-3.1-6.2-4.7-9.3
	c0-1.6-1.5-1.6-1.5-3.1c0,0,0,0,1.5-1.6c1.6-1.5,3.1-3.1,4.7-3.1c21.7-1.6,43.4-4.7,66.7-6.2c15.5-1.6,32.6-1.6,48.1-3.1
	c1.6,0,3.1,0,4.7,0c0,1.6,0,3.1,0,4.7c-3.1,6.2-1.6,7.8,4.7,9.3c60.5,21.7,122.5,41.9,183,63.6c6.2,1.5,12.4,3.1,18.6,3.1
	c43.4,0,86.9,0,131.8,0c12.4,0,12.4,0,12.4-12.4c0-1.6,0-3.1,0-4.7c-1.6-7.8,1.6-9.3,9.3-9.3c18.6,0,35.7,0,55.8,0
	c6.2,0,12.4,0,18.6,0c9.3,0,17.1,3.1,20.2,12.4c1.6,3.1,4.7,6.2,7.8,7.8c10.9,9.3,21.7,18.6,32.6,26.4c4.7,4.7,9.3,7.8,15.5,10.9
	c7.8,4.7,17.1,10.9,20.2,20.2c0,3.1,1.6,6.2,3.1,7.8c4.7,6.2,4.7,10.9,6.2,17.1c1.6,12.4,6.2,23.3,18.6,29.5
	c1.6,1.6,3.1,1.6,4.7,1.6c12.4,14,31,17.1,45,26.4c10.9,7.8,21.7,1.6,27.9-12.4c1.6-6.2,4.7-12.4,7.8-18.6
	c1.6-6.2,6.2-9.3,12.4-10.9h1.6c12.4-9.3,26.4,1.6,38.8-1.6c4.7,0,9.3,1.6,14,1.6c1.6,0,3.1,0,4.7,1.6c10.9,10.9,21.7,20.2,34.1,31
	c3.1,3.1,4.7,9.3,7.8,14c6.2,12.4,12.4,26.4,18.6,38.8c0,1.6,1.6,3.1,3.1,4.7c9.3,6.2,15.5,17.1,21.7,26.4c1.6,3.1,6.2,6.2,10.9,7.8
	c4.7,3.1,7.8,7.8,7.8,14c0,3.1,0,6.2,0,9.3c0,9.3,4.7,17.1,9.3,24.8c4.7,6.2,6.2,14,9.3,20.2c1.6,1.6,3.1,4.7,4.7,4.7
	c7.8,4.7,17.1,6.2,24.8,10.9c14,7.8,29.5,12.4,45,12.4c3.1,0,6.2,3.1,9.3,4.7c4.7,3.1,7.8,7.8,14,1.6c1.6-1.6,4.7-1.6,6.2-1.6
	c1.6,1.6,1.6,4.7,1.6,7.8c-1.6,6.2-3.1,15.5-7.8,21.7c-14,24.8-18.6,51.2-21.7,79.1c-1.6,20.2-1.6,40.3-1.6,60.5
	c0,4.7-1.6,10.9-3.1,15.5c-6.2,18.6,0,35.7,6.2,52.7c1.6,6.2,9.3,10.9,14,15.5c4.7,4.7,7.8,7.8,3.1,14c-4.7,6.2-1.6,14,1.6,20.2
	c4.7,17.1,15.5,29.5,24.8,43.4c3.1,3.1,7.8,7.8,10.9,12.4c7.8,9.3,14,18.6,15.5,29.5c1.6,12.4,10.9,21.7,17.1,31
	c3.1,3.1,4.7,6.2,6.2,9.3c6.2,10.9,15.5,12.4,24.8,12.4c9.3,1.6,17.1,4.7,24.8,7.8c10.9,4.7,15.5,14,21.7,20.2
	c3.1,3.1,7.8,4.7,10.9,4.7c7.8-1.6,14-4.7,21.7-6.2c9.3-1.6,17.1-6.2,24.8-9.3c4.7-1.6,9.3-1.6,12.4,0c10.9,1.6,20.2,0,27.9-6.2
	c12.4-9.3,26.4-9.3,41.9-10.9c1.6,0,4.7,3.1,6.2,6.2c3.1,9.3,10.9,12.4,20.2,7.8c0-1.6,1.6-1.6,1.6-3.1c3.1-3.1,6.2-6.2,10.9-9.3
	c-3.1-3.1-6.2-6.2-10.9-9.3c1.6-1.6,4.7-3.1,6.2-4.7c10.9-7.8,20.2-12.4,27.9-20.2c4.7-4.7,6.2-12.4,6.2-18.6
	c1.6-6.2,1.6-10.9,7.8-15.5c3.1-3.1,4.7-9.3,4.7-12.4c1.6-12.4,1.6-24.8,1.6-37.2c1.6-14,9.3-24.8,23.3-29.5
	c12.4-3.1,24.8-6.2,37.2-7.8c14-3.1,26.4-4.7,40.3-10.9c10.9-4.7,24.8-6.2,38.8-3.1c9.3,1.6,18.6,4.7,29.5,6.2
	c3.1,1.6,7.8,1.6,7.8-6.2c-1.6-3.1,3.1-3.1,6.2-1.6C1629.4,1227.3,1635.6,1244.4,1627.9,1256.8z M2260.7,1731.4
	c0,6.2-3.1,12.4-7.8,17.1l-90,91.5c-9.3,9.3-24.8,9.3-34.1,0l-387.8-387.8c-26.4,18.6-54.3,35.7-82.2,51.2V1415
	c34.1-20.2,66.7-45,94.6-74.5c93.1-93.1,145.8-217.2,145.8-349c0-131.8-52.7-255.9-145.8-349c-93.1-93.1-217.2-144.3-349-144.3
	s-254.4,51.2-349,144.3c-23.3,23.3-43.4,48.1-62,76h-90c26.4-48.1,58.9-91.5,97.7-130.3c108.6-108.6,251.3-167.5,404.8-167.5
	c152,0,296.3,60.5,403.3,167.5c107,107,166,249.7,166,403.3c0,122.5-37.2,238.9-108.6,335l386.2,387.8"/>
</svg>
