<?xml version="1.0" encoding="utf-8"?>
<!-- Generator: Adobe Illustrator 22.1.0, SVG Export Plug-In . SVG Version: 6.00 Build 0)  -->
<svg version="1.1"
	 id="svg8" inkscape:version="0.92.4 (5da689c313, 2019-01-14)" sodipodi:docname="busqueda-avanzada.svg" xmlns:cc="http://creativecommons.org/ns#" xmlns:dc="http://purl.org/dc/elements/1.1/" xmlns:inkscape="http://www.inkscape.org/namespaces/inkscape" xmlns:rdf="http://www.w3.org/1999/02/22-rdf-syntax-ns#" xmlns:sodipodi="http://sodipodi.sourceforge.net/DTD/sodipodi-0.dtd" xmlns:svg="http://www.w3.org/2000/svg"
	 xmlns="http://www.w3.org/2000/svg" xmlns:xlink="http://www.w3.org/1999/xlink" x="0px" y="0px" viewBox="0 0 2267.7 2267.7"
	 style="enable-background:new 0 0 2267.7 2267.7;" xml:space="preserve">
<style type="text/css">
	.st0{fill:none;stroke:#000000;stroke-width:0.2646;}
</style>
<sodipodi:namedview  bordercolor="#666666" borderopacity="1.0" id="base" inkscape:current-layer="layer1" inkscape:cx="1251.5547" inkscape:cy="1000.996" inkscape:document-units="mm" inkscape:pageopacity="0.0" inkscape:pageshadow="2" inkscape:window-height="962" inkscape:window-maximized="1" inkscape:window-width="1280" inkscape:window-x="-8" inkscape:window-y="-8" inkscape:zoom="0.1400905" pagecolor="#ffffff" showgrid="false">
	</sodipodi:namedview>
<path id="path3713" inkscape:connector-curvature="0" class="st0" d="M9.4,1212.2c0-29.7,25.2-52.6,54.9-54.9h77.8
	c13.7-68.6,41.2-132.7,80.1-189.9L165,910.2c-20.6-20.6-20.6-54.9,0-75.5l59.5-57.2c20.6-20.6,52.6-20.6,75.5,0l57.2,57.2
	c54.9-38.9,121.2-66.3,189.9-80.1v-80.1c0-29.7,22.9-54.9,52.6-54.9h84.6c27.5,0,52.6,22.9,52.6,52.6v82.4
	c68.6,13.7,132.7,41.2,189.9,77.8l57.2-57.2c20.6-20.6,54.9-20.6,75.5,0l59.5,59.5c20.6,20.6,20.6,54.9,0,75.5l-59.5,57.2
	c38.9,54.9,66.3,119,80.1,189.9h80.1c29.7,0,54.9,22.9,54.9,52.6v82.4c0,29.7-25.2,54.9-54.9,54.9h-77.8
	c-13.7,68.6-41.2,135-80.1,192.2l57.2,54.9c20.6,20.6,20.6,54.9,0,75.5l-59.5,59.5c-20.6,20.6-54.9,20.6-75.5,0l-54.9-57.2
	c-57.2,38.9-121.2,68.6-192.2,80.1v80.1c0,29.7-22.9,52.6-52.6,52.6H602c-29.7,0-54.9-22.9-54.9-52.6v-77.8
	c-70.9-13.7-135-41.2-192.2-80.1l-54.9,54.9c-20.6,20.6-54.9,20.6-75.5,0l-59.5-59.5c-20.6-20.6-20.6-54.9,0-75.5l57.2-54.9
	c-38.9-57.2-66.3-121.2-80.1-192.2H62.1c-29.7,0-52.6-22.9-52.6-52.6L9.4,1212.2L9.4,1212.2z M366.3,1253.4
	c0,151,123.5,274.5,274.5,274.5c153.3,0,276.8-123.5,276.8-276.8c0-151-125.8-274.5-276.8-274.5
	C489.9,976.6,366.3,1100.1,366.3,1253.4z M2258.3,2015.2c0,9.2-2.3,18.3-9.2,25.2l-135,135c-13.7,13.7-36.6,13.7-50.3,0
	l-571.9-571.9c-36.6,27.5-77.8,52.6-121.2,75.5v-130.4c50.3-29.7,98.4-66.3,141.8-109.8c137.3-137.3,212.8-320.3,212.8-514.7
	s-75.5-377.5-212.8-514.7s-320.3-212.8-514.7-212.8c-194.5,0-377.5,75.5-514.7,212.8c-34.3,34.3-64.1,70.9-91.5,112.1H258.8
	c38.9-70.9,86.9-135,144.1-192.2C563.1,169,773.5,82.1,997.7,82.1c224.2,0,434.7,89.2,594.8,247.1
	C1752.7,487,1839.6,697.5,1839.6,924c0,180.7-57.2,352.3-162.4,494.1l571.9,571.9"/>
</svg>
