<?xml version="1.0" encoding="UTF-8" standalone="no"?>
<svg
   xmlns:dc="http://purl.org/dc/elements/1.1/"
   xmlns:cc="http://creativecommons.org/ns#"
   xmlns:rdf="http://www.w3.org/1999/02/22-rdf-syntax-ns#"
   xmlns:svg="http://www.w3.org/2000/svg"
   xmlns="http://www.w3.org/2000/svg"
   version="1.1"
   id="svg8"
   x="0px"
   y="0px"
   viewBox="0 0 2267.7 2267.7"
   style="enable-background:new 0 0 2267.7 2267.7;"
   xml:space="preserve"><metadata
   id="metadata9"><rdf:RDF><cc:Work
       rdf:about=""><dc:format>image/svg+xml</dc:format><dc:type
         rdf:resource="http://purl.org/dc/dcmitype/StillImage" /><dc:title></dc:title></cc:Work></rdf:RDF></metadata><defs
   id="defs7" />
<style
   type="text/css"
   id="style2">
	.st0{fill:none;stroke:#000000;stroke-width:0.2646;}
</style>

<path
   id="path55"
   style="fill:none"
   d="M 1000.9629 88.113281 C 998.15379 88.099858 995.34767 88.101026 992.54492 88.115234 L 992.54102 88.115234 C 984.60346 88.182374 976.65192 88.336067 968.76172 88.611328 C 958.26709 88.969668 947.86025 89.50738 937.38281 90.251953 C 908.25345 92.300821 879.04168 95.894882 850.19727 101.02148 C 831.66318 104.30852 813.12349 108.2557 794.8125 112.81641 C 778.56833 116.85637 762.34881 121.43136 746.33984 126.4707 C 728.44405 132.10662 710.58518 138.43113 693.10547 145.28516 C 671.75377 153.67695 650.81496 162.93088 630.23828 173.07422 C 613.49075 181.33067 596.89752 190.22434 580.74609 199.60938 C 545.51122 220.07235 511.76016 243.17275 479.91016 268.53711 C 454.003 289.16034 429.31985 311.28343 405.9668 334.74023 C 394.31061 346.45814 382.87755 358.59354 371.93555 370.96875 C 361.22156 383.06408 350.86293 395.47445 340.86523 408.16797 C 335.73302 414.68856 330.63928 421.36414 325.67773 428.0625 C 317.01986 439.77356 308.57216 451.8252 300.54102 463.96875 C 289.41793 480.76355 278.93208 497.9769 268.99805 515.5 L 388.39258 515.5 C 412.42282 479.65411 439.47583 445.80737 469.45508 414.75195 C 513.37588 369.19643 563.11599 329.23404 617.20703 296.37891 C 672.19497 262.95047 731.67189 236.93283 793.51953 219.16797 C 841.09149 205.49917 890.06199 196.74147 939.4043 192.88477 C 986.81492 189.19208 1034.5811 190.00149 1081.834 195.3418 C 1138.163 201.69987 1193.7652 214.57462 1247.1094 233.77344 C 1302.5124 253.68472 1355.4791 280.35879 1404.4414 313.05078 C 1451.6045 344.5028 1495.072 381.46674 1533.832 422.83008 C 1565.9733 457.15225 1594.8548 494.53056 1619.8633 534.35352 C 1648.8805 580.56634 1672.6584 630.06334 1690.5801 681.60547 C 1707.9193 731.36279 1719.7726 783.01797 1726.0098 835.33594 C 1733.0846 894.56298 1733.0393 954.64099 1725.8906 1013.8574 C 1719.1655 1069.6338 1706.0359 1124.6444 1686.7207 1177.4062 C 1668.76 1226.4899 1645.4669 1273.6176 1617.3906 1317.7031 C 1584.8341 1368.84 1545.8811 1415.8905 1501.8223 1457.5195 C 1478.3759 1479.6798 1453.3967 1500.2072 1427.1562 1518.9746 C 1410.976 1530.5377 1394.3344 1541.4667 1377.248 1551.6426 C 1376.7154 1551.8589 1376.5287 1552.4453 1376.6992 1552.9629 L 1376.6992 1669.0078 C 1402.4563 1655.0771 1427.7625 1640.2749 1452.2051 1624.0957 C 1454.424 1622.6049 1456.8013 1621.0413 1459.0176 1619.5332 C 1469.8418 1612.2028 1480.4134 1604.6461 1490.8457 1596.8125 C 1491.9758 1596.0381 1493.6566 1596.3074 1494.4023 1597.4824 C 1496.9211 1600.1752 1499.6179 1602.6972 1502.1953 1605.334 C 1568.4733 1671.5524 1634.6973 1737.8238 1700.9551 1804.0625 C 1823.5192 1926.6193 1946.0808 2049.1792 2068.6465 2171.7344 C 2076.9117 2179.6252 2089.9257 2181.8427 2100.4219 2177.4238 C 2105.0546 2175.5434 2109.0168 2172.3345 2112.3613 2168.666 C 2156.8471 2124.1641 2201.3605 2079.6904 2245.8027 2035.1465 C 2247.2268 2033.5608 2248.395 2031.7544 2249.3184 2029.8359 C 2249.4841 2029.5151 2249.7844 2028.7995 2249.9883 2028.3203 C 2251.4837 2024.5918 2252.2058 2020.566 2252.2598 2016.5586 C 2251.9615 2014.7269 2251.0129 2013.0862 2250.4961 2011.3145 C 2248.3043 2005.311 2246.1117 1999.3082 2243.9199 1993.3047 C 2052.3809 1801.7663 1860.8418 1610.2278 1669.3027 1418.6895 C 1679.6331 1404.8681 1689.5645 1390.7625 1699.0586 1376.3203 C 1724.1281 1338.2456 1745.9711 1298.027 1764.3262 1256.2598 C 1769.8327 1243.7115 1775.0258 1231.0267 1779.9082 1218.2227 C 1782.0902 1212.4448 1784.2863 1206.5135 1786.3613 1200.6348 C 1791.9425 1184.9168 1797.0614 1168.8929 1801.6797 1152.8105 C 1803.9516 1144.8371 1806.1643 1136.6985 1808.2051 1128.6055 C 1811.2662 1116.5181 1814.1032 1104.1688 1816.6074 1091.9512 C 1819.1459 1079.6039 1821.3833 1067.2687 1823.3496 1054.8066 C 1825.6287 1040.4147 1827.5386 1025.7981 1829.0508 1011.3027 C 1831.224 990.50994 1832.6094 969.61071 1833.2246 948.67578 C 1833.7051 932.13439 1833.695 915.46025 1833.2246 898.87305 C 1832.6337 878.14106 1831.288 857.37078 1829.1953 836.67188 C 1827.097 816.05344 1824.2461 795.41266 1820.6309 774.96094 C 1817.3866 756.62161 1813.512 738.29745 1809.0352 720.17383 C 1805.0533 704.04216 1800.5452 687.92203 1795.5684 672.02148 C 1790.5858 656.09472 1785.0633 640.17219 1779.1055 624.57812 C 1776.1523 616.83876 1773.0737 609.14767 1769.8906 601.5 C 1765.081 589.99744 1759.947 578.42643 1754.6113 567.15625 C 1741.913 540.27751 1727.7148 514.10994 1712.1348 488.79297 C 1705.6508 478.26015 1698.8644 467.78732 1691.8887 457.52344 C 1679.1386 438.79816 1665.5206 420.47196 1651.252 402.85742 C 1625.3409 370.83462 1597.0033 340.83862 1566.7129 312.91992 C 1545.0425 292.93239 1522.3682 274.03389 1498.7949 256.33008 C 1490.5714 250.15938 1482.0537 244.00151 1473.6211 238.12891 C 1449.8155 221.55858 1425.0683 206.13541 1399.6484 192.06445 C 1365.0838 172.93806 1329.0659 156.18566 1292.0977 142.12109 C 1272.8091 134.77672 1253.0794 128.10315 1233.252 122.23047 C 1209.4135 115.15659 1185.2744 109.17515 1160.8672 104.27344 C 1140.5881 100.20676 1120.1733 96.895383 1099.6348 94.363281 C 1083.2242 92.331971 1066.6389 90.801949 1050.1426 89.761719 C 1042.1572 89.260569 1034.2188 88.88057 1026.2109 88.599609 C 1017.834 88.318111 1009.3902 88.153551 1000.9629 88.113281 z M 471.3457 605.26758 C 470.70455 605.26128 470.06434 605.26839 469.42383 605.28711 C 463.81377 605.32191 458.10628 605.32538 452.67578 606.92383 C 444.93161 608.94146 437.8799 613.12737 431.91016 618.40039 C 396.6362 646.65316 363.9644 678.1487 334.4082 712.33789 C 310.04098 740.5065 287.79956 770.5095 267.86523 801.96875 C 248.20118 832.97799 230.76931 865.39015 215.53906 898.79883 C 207.94892 914.7711 200.19465 930.6694 193.07031 946.85742 C 188.17551 957.98178 183.86305 969.37482 180.50391 981.06055 C 176.09611 996.28239 172.6297 1011.7507 168.95703 1027.1602 C 165.75561 1040.948 162.37246 1054.6931 159.29688 1068.5098 C 150.72112 1107.4582 144.80492 1147 141.89648 1186.7793 C 125.74979 1176.096 109.46552 1165.6081 92.802734 1155.7441 C 74.022437 1144.8735 54.29181 1135.7949 34.960938 1125.9707 C 34.14301 1125.2824 34.547412 1126.5764 34.455078 1127.0645 C 34.471348 1161.0938 34.487053 1195.123 34.501953 1229.1523 C 37.649143 1230.9538 40.761762 1232.8213 43.767578 1234.8516 C 44.469468 1235.341 45.435254 1235.984 46.226562 1236.5527 C 52.606704 1241.0904 58.742352 1245.9784 65.378906 1250.1484 C 77.151135 1257.6268 88.820754 1265.3382 100.2793 1273.2168 C 120.01228 1286.7641 139.33907 1300.8601 158.41992 1315.2773 C 162.46977 1318.4838 166.9125 1321.234 171.75391 1323.0723 C 181.63478 1326.9326 192.84102 1327.3813 202.95312 1324.1211 C 215.63935 1320.1479 226.63799 1310.7648 232.10938 1298.5957 C 235.68108 1290.7862 237.03266 1282.0229 236.19531 1273.4883 C 235.90761 1269.2658 235.70218 1264.8741 235.58398 1260.6758 C 235.27621 1249.9518 235.34902 1239.2202 235.61914 1228.4961 C 235.97981 1215.4675 236.70245 1202.2891 237.77344 1189.2383 C 239.18761 1171.9948 241.20907 1154.6961 243.75977 1137.5332 C 245.65403 1124.7526 247.63393 1111.9794 250.13281 1099.3008 C 251.78251 1090.9842 253.6861 1082.555 255.91602 1074.3105 C 267.56141 1030.6076 280.16137 986.93943 298.32422 945.4043 C 304.11632 932.10567 310.62333 919.13269 317.32227 906.27148 C 322.30638 896.77104 327.54829 887.20523 332.91797 877.91602 C 354.40779 840.65129 379.19008 805.0396 407.58594 772.61719 C 426.3788 751.10892 446.61714 730.87172 468.0293 711.97266 C 504.5435 744.08337 537.48425 780.25726 566 819.64453 C 574.78808 831.79936 583.25353 844.38645 591.2207 857.16797 C 606.05238 880.94361 619.46316 905.78588 631.27734 931.26172 C 634.15692 937.45008 636.99412 943.83268 639.6875 950.0957 C 642.24346 956.09783 644.75818 962.11699 647.29102 968.12891 C 665.08989 947.86881 683.68432 928.25932 703.7832 910.25586 C 708.96307 905.57295 714.24204 901.00096 719.52539 896.43555 C 706.22174 867.44307 691.26149 839.20655 674.60547 811.99805 C 651.53391 774.26663 625.16107 738.55473 595.81836 705.46094 C 566.21496 672.07055 533.64189 641.29579 498.46875 613.82812 C 490.59504 608.26676 480.96295 605.362 471.3457 605.26758 z M 798.10156 756.70703 C 791.44521 756.70406 785.48098 757.71535 781.5 760.36328 C 768.34796 774.77081 768.98458 804.11232 773.25391 820.37109 C 775.9897 830.7171 780.33488 840.53642 784.55078 850.33008 C 786.02646 853.66414 787.58327 856.96126 789.19336 860.23242 C 765.8104 874.66998 743.69485 891.11059 722.74609 908.88281 C 689.51723 937.15893 659.38239 969.0227 632.61914 1003.4668 C 625.60487 1012.5206 618.79313 1021.7401 612.5332 1031.3359 C 603.99604 1044.3933 595.39216 1057.4093 587.13672 1070.6484 C 577.54749 1085.9885 567.73362 1101.1934 557.76367 1116.291 C 548.46265 1130.4541 538.87959 1144.4347 529.91016 1158.8125 C 510.36817 1189.9191 492.66993 1222.1593 476.4082 1255.0938 C 476.11394 1255.6852 475.81964 1256.2757 475.52539 1256.8672 C 473.12716 1242.7471 471.00298 1228.5768 469.41016 1214.3418 C 467.70562 1199.421 466.45289 1184.4383 465.60547 1169.4121 C 464.99551 1158.689 464.59719 1147.9415 464.37109 1137.1816 C 464.38169 1135.125 464.19176 1133.0633 464.31836 1131.0117 C 464.56626 1129.1131 465.38077 1127.3396 465.51172 1125.418 C 466.09971 1120.4803 465.38796 1115.5212 465.00195 1110.5977 C 464.5113 1106.7887 464.07759 1102.9434 464.37109 1099.0996 C 464.75471 1081.5748 465.41358 1064.042 466.68164 1046.5332 C 467.29693 1045.2089 468.12814 1043.9387 468.80469 1042.623 C 471.17634 1038.136 474.14937 1034.0046 477.18945 1029.9531 C 487.09885 1017.0069 499.28495 1006.0206 511.93555 995.82227 C 523.48963 986.58967 535.69293 978.33654 548.08984 970.27539 C 553.73869 966.53389 559.27713 962.1166 562.49805 956.01953 C 567.80804 945.94782 565.67917 932.69575 557.81055 924.54883 C 551.21017 917.43405 540.67064 914.25584 531.25 916.62695 C 526.35897 917.81951 521.90028 920.44742 518.23633 923.86914 C 504.43998 933.05871 490.69908 942.37683 477.77148 952.77148 C 477.11653 953.41775 476.79369 953.49159 477.09961 952.49023 C 479.05084 939.98688 481.1385 927.4895 483.42969 915.02344 C 485.0002 906.57557 486.6905 897.95092 488.45703 889.53516 C 490.70873 878.80791 493.19954 868.13156 495.72461 857.4668 C 497.93869 845.95837 491.84242 833.36512 481.35156 828.08789 C 473.70408 824.02139 464.09514 823.82915 456.36133 827.7793 C 449.14565 831.33651 443.46713 838.09536 441.68555 845.99414 C 439.49299 854.17197 437.66971 862.44216 435.76953 870.69141 C 427.28087 908.57 420.96544 946.91984 416.33203 985.45703 C 414.82361 998.1407 413.52917 1010.8498 412.39844 1023.5723 C 407.18631 1020.2165 401.80442 1017.1316 396.28516 1014.3105 C 393.04746 1012.5152 389.75313 1010.668 386.07422 1009.9648 C 376.32836 1007.861 365.50474 1011.3026 359.02344 1018.9434 C 352.5375 1026.3503 350.41752 1037.3695 353.9707 1046.5898 C 356.4539 1053.2182 361.61879 1058.6756 367.88086 1061.9004 C 372.84985 1064.6045 378.13688 1066.7737 382.73047 1070.125 C 392.73041 1076.8611 400.94963 1086.473 405.24609 1097.8047 C 406.34251 1100.5651 407.2632 1103.4021 407.87695 1106.3105 C 407.98796 1106.9224 408.2162 1107.8536 408.25 1108.6035 C 408.2361 1121.6928 408.86262 1134.7694 409.38281 1147.8457 C 410.83969 1180.9783 412.79467 1214.1003 414.53125 1247.2051 C 414.64765 1251.3146 414.51888 1255.4292 414.54688 1259.541 C 414.49248 1278.1348 414.54814 1296.7976 413.9707 1315.3438 C 413.35151 1334.3773 412.03411 1353.3674 408.78516 1372.1973 C 405.36905 1392.1194 399.62176 1411.6907 391.06445 1430.0254 C 388.49122 1435.5798 385.664 1441.0147 382.64258 1446.3379 C 382.07295 1447.3059 381.3801 1448.5175 380.75586 1449.5762 C 377.98364 1454.2721 375.00438 1458.8418 371.96094 1463.3652 C 377.86242 1467.6599 384.20317 1471.4388 391.0957 1473.9082 C 400.04837 1477.192 409.88254 1478.1114 419.25781 1476.2852 C 430.5844 1474.1525 440.94125 1468.4935 450.0332 1461.5645 C 461.56365 1452.7251 471.39006 1441.8796 480.35938 1430.5039 C 493.78374 1413.3388 505.31002 1394.7849 516.12109 1375.8926 C 531.05433 1349.6618 544.52485 1322.6312 557.74219 1295.5059 C 570.2483 1269.7936 582.48168 1243.8988 595.15234 1218.2969 C 606.63796 1195.1954 618.44387 1172.1465 631.79883 1150.0215 C 636.35533 1142.4496 641.18728 1135.0462 646.21484 1127.7793 C 656.08696 1113.0213 663.52363 1096.8083 673.24805 1081.959 C 682.50299 1067.8806 692.47626 1054.1051 703.08984 1040.9512 C 728.04132 1010.2422 756.2323 982.1219 787.31641 957.62109 C 801.48031 946.49139 816.34685 936.12169 831.76953 926.74219 C 837.06746 923.53067 842.55642 920.34438 847.99414 917.36719 C 851.67409 915.36131 855.44149 913.47658 858.80664 910.95312 C 864.76793 906.62812 869.88502 900.86495 872.49805 893.90234 C 874.61034 888.52555 859.77157 875.17171 864.17188 858.10938 C 884.92905 859.88577 893.85193 885.14414 903.89062 886.34375 C 911.332 887.27611 918.9337 886.22874 925.99805 883.78516 C 933.85735 881.36301 941.81201 879.22204 949.78516 877.39062 C 958.03157 875.49766 966.27607 873.92972 974.68164 872.66797 C 982.93276 871.43346 991.31979 870.49712 999.64258 869.91406 C 1007.8858 869.31177 1016.0585 869.13958 1024.334 869.25586 C 1036.787 869.44167 1049.2481 870.37532 1061.6582 871.94727 C 1064.5948 872.319 1067.3755 872.71323 1070.3145 873.14648 C 1076.146 874.03285 1081.9713 875.04163 1087.6719 876.18555 C 1117.0228 882.02832 1145.7565 891.24664 1173.4727 902.61523 C 1176.2725 903.77001 1179.1008 904.87664 1181.7715 906.31445 C 1179.9814 907.32535 1178.089 908.40471 1176.248 909.41992 C 1171.144 912.17818 1166.156 915.15007 1161.332 918.375 C 1152.6121 924.15151 1144.3595 930.60778 1136.4629 937.46094 C 1128.5 944.18989 1120.5728 950.96432 1112.9297 958.05664 C 1085.2794 983.527 1060.2319 1011.9449 1039.4473 1043.3105 C 1029.0197 1059.0962 1019.5333 1075.54 1011.6797 1092.7637 C 1005.4419 1106.3843 999.96901 1120.3418 994.77539 1134.3887 C 988.59046 1151.3766 983.78738 1168.8265 979.42578 1186.3594 C 975.11884 1203.6178 970.95012 1220.9106 965.79102 1237.957 C 963.27 1246.4193 960.46691 1254.97 957.53125 1263.2715 C 950.43563 1283.3381 942.09894 1303.1742 933.03711 1322.5215 C 924.85832 1339.942 915.95875 1357.0385 906.33594 1373.7285 C 901.00053 1382.9608 895.38266 1392.2025 889.59961 1401.1621 C 868.68218 1433.6303 844.77941 1464.3008 817.98633 1492.1836 C 811.00329 1499.4311 803.81843 1506.4848 796.42969 1513.3184 C 793.30533 1516.1907 790.00609 1519.166 786.74609 1522.002 C 778.7668 1528.9595 770.40502 1535.7593 761.85352 1542.127 C 756.44489 1546.1334 750.79685 1549.8019 745.16016 1553.4727 C 733.89318 1561.6917 727.71232 1576.3495 729.81445 1590.1523 C 730.6456 1595.8697 732.58097 1601.5524 736.11328 1606.1777 C 737.51445 1607.8928 738.72592 1609.7494 740.01367 1611.5488 C 773.02887 1594.6913 806.67383 1579.0603 840.89844 1564.8145 C 847.75237 1561.9808 854.70566 1559.1273 861.63477 1556.375 C 862.94675 1555.7937 864.33369 1555.2991 865.54297 1554.5391 C 870.36695 1549.8162 875.04045 1544.9389 879.67383 1540.0293 C 890.5851 1528.4603 901.03341 1516.4502 910.83203 1503.9219 C 939.71544 1467.129 963.47799 1426.6376 985.08789 1385.2422 C 991.7017 1370.1232 998.06096 1354.8865 1004.1074 1339.5293 C 1011.4642 1320.8441 1018.1786 1301.9035 1024.0371 1282.6934 C 1029.7839 1263.8918 1035.0161 1244.929 1041.1953 1226.2598 C 1050.5857 1197.5695 1061.5587 1169.4854 1073.0488 1141.6035 C 1081.9573 1120.1127 1094.3567 1100.096 1108.3066 1081.4707 C 1120.5792 1065.1188 1134.0586 1049.704 1148.0957 1034.8516 C 1160.7 1021.6094 1174.1219 1009.224 1188.0586 997.44336 C 1195.4305 990.99319 1203.4643 985.35576 1211.6875 980.05273 C 1218.9261 975.36321 1226.249 970.80098 1233.3867 965.95898 C 1234.623 965.83694 1235.9719 965.98335 1237.1621 965.46289 C 1238.5766 964.98671 1239.2799 963.56411 1240.4414 962.7168 C 1243.1327 960.34999 1246.4074 958.78483 1249.7012 957.45703 C 1262.7446 949.58645 1271.5526 935.63729 1274.2461 920.76172 C 1276.5176 909.05835 1275.0831 896.93736 1271.9141 885.54102 C 1269.0394 875.38082 1264.1634 865.54511 1256.5312 858.11523 C 1252.3497 854.0125 1247.2866 850.93707 1241.9922 848.49023 C 1237.372 846.27399 1232.829 843.90348 1228.1914 841.72266 C 1182.6774 819.87835 1134.2983 803.55227 1084.3613 795.65234 C 1037.3522 788.17838 989.01194 788.47476 942.24609 797.54883 C 931.45748 799.6312 920.74782 802.13757 910.18359 805.16406 C 901.84818 802.16221 894.55718 797.00821 886.82227 792.80273 C 885.93365 790.96867 884.12169 789.76258 882.31641 788.89258 C 879.58665 787.36938 876.91815 785.73144 874.20898 784.16797 C 861.42554 776.63734 848.65474 768.8886 834.79492 763.46484 C 826.03851 760.41234 810.80915 756.7127 798.10156 756.70703 z M 968.42578 910.85742 C 967.79849 910.84813 967.17073 910.85653 966.54297 910.88281 C 954.73869 911.14015 943.02324 917.19612 936.54297 927.16406 C 929.72664 937.56906 929.08297 951.80416 935.32617 962.625 C 942.28589 975.16037 956.99658 982.96528 971.28906 981.44922 C 984.75943 980.19683 997.12472 970.55497 1001.3613 957.66602 C 1005.5191 945.54014 1002.5912 931.13402 993.5918 921.91016 C 987.105 915.09527 977.83522 910.99673 968.42578 910.85742 z M 1131.4824 1105.4961 C 1122.5506 1105.5831 1113.6227 1105.859 1104.6992 1106.2461 C 1083.9385 1138.1956 1073.8498 1175.5705 1059.2188 1207.5312 C 1070.4575 1205.6762 1077.5236 1204.3413 1088.8535 1203.1191 C 1094.2746 1202.5189 1099.833 1202.035 1105.2461 1201.6875 C 1120.1242 1200.7444 1135.0116 1200.5413 1149.9414 1200.9316 C 1173.5618 1201.5248 1197.2127 1203.4867 1220.7871 1205.6777 C 1222.6112 1205.8486 1224.4356 1206.0185 1226.2598 1206.1895 C 1216.3896 1234.6832 1204.9163 1262.7852 1191.4883 1289.873 C 1169.4153 1334.4491 1141.9091 1376.6878 1108.3398 1413.5605 C 1094.5914 1428.6858 1079.815 1442.8774 1064.125 1455.9785 C 1047.7765 1469.6175 1030.2972 1482.1362 1012.0273 1493.1816 C 999.28739 1500.8993 986.01715 1507.995 972.44336 1514.3672 C 968.66596 1516.1385 964.62437 1517.9661 960.78906 1519.627 C 954.7625 1522.2649 948.64728 1524.6939 942.52539 1527.0977 C 940.22542 1528.1989 938.76732 1530.3814 936.90039 1532.0312 C 934.1844 1534.7246 931.46821 1537.4182 928.75195 1540.1113 C 934.2913 1540.6255 939.76674 1541.3211 945.31836 1541.7188 C 946.23752 1541.7947 947.1606 1541.902 948.01758 1541.4785 C 965.96918 1535.7268 984.04698 1530.343 1002.1953 1525.3223 C 1037.3652 1515.6045 1072.8981 1507.2596 1108.7051 1500.334 C 1125.749 1497.0199 1142.8696 1494.0883 1160.041 1491.3613 C 1161.914 1491.0176 1163.8277 1490.8419 1165.6758 1490.3926 C 1167.1634 1489.8635 1167.9281 1488.3763 1169.0625 1487.3828 C 1212.3767 1442.0428 1247.8107 1389.5056 1275.7773 1333.4707 C 1300.7274 1283.5694 1319.9407 1230.9031 1334.5781 1177.1113 C 1336.8647 1168.4743 1336.8562 1159.199 1334.2031 1150.6445 C 1331.0305 1140.1103 1324.1476 1130.6693 1314.8457 1124.7363 C 1307.2736 1119.779 1298.2862 1117.217 1289.2832 1116.7891 C 1244.4094 1112.5846 1199.5991 1107.1363 1154.5137 1105.7871 C 1146.8389 1105.5647 1139.1604 1105.4631 1131.4824 1105.4961 z M 1229.1465 1501.6797 C 1221.8488 1502.0818 1214.6334 1503.2054 1207.3809 1503.9922 C 1131.1823 1513.2001 1055.7275 1528.62 982.06445 1550.1816 C 887.11944 1577.9758 795.15287 1615.9878 708.37109 1663.5039 C 673.11679 1682.8084 638.72746 1703.692 605.35742 1726.0957 C 565.23868 1753.0712 526.54386 1782.214 490.01172 1813.8926 C 482.28714 1820.5957 474.65961 1827.4205 467.18359 1834.3945 C 466.436 1834.7792 465.66569 1834.248 465.21484 1833.668 C 426.06591 1798.7432 384.23937 1766.8906 340.79102 1737.5156 C 271.60057 1690.8205 197.98451 1650.7163 121.375 1617.5762 C 93.532766 1605.6941 64.464476 1596.9593 36.025391 1586.8066 L 34.146484 1586.1445 C 34.077084 1616.026 34.005561 1645.9076 33.933594 1675.7891 C 48.115669 1681.312 62.25442 1686.7215 76.263672 1692.6211 C 84.684452 1696.1838 93.201783 1699.9257 101.55273 1703.6855 C 141.16997 1721.5246 179.97619 1741.3846 217.65234 1763.1055 C 258.87707 1786.8978 298.92241 1812.9427 337.24023 1841.2461 C 375.91827 1868.3014 404.97903 1904.4086 471.61133 1904.7637 C 538.24362 1905.1188 625.83843 1813.8875 696.66211 1770.3105 C 709.47493 1762.4745 722.58317 1754.7631 735.67969 1747.3613 C 784.74676 1719.6501 835.65425 1695.1383 887.92969 1674.0254 C 907.96076 1665.9354 928.33948 1658.2981 948.7207 1651.2227 C 983.60157 1639.1344 1018.8995 1628.5518 1054.6836 1619.4824 C 1089.9014 1610.566 1125.5047 1603.1125 1161.3906 1597.1836 C 1184.4902 1593.3593 1207.7133 1590.152 1231.0059 1587.5547 C 1235.885 1587.0599 1240.9266 1586.4517 1245.5234 1584.5215 C 1258.9685 1579.2987 1269.3867 1566.8796 1272 1552.6699 C 1274.1928 1541.5638 1271.8011 1529.608 1265.3516 1520.2852 C 1260.2822 1512.8233 1252.801 1507.0174 1244.2598 1504.084 C 1239.4192 1502.3865 1234.2737 1501.5821 1229.1465 1501.6797 z " />
<path
   id="path157-3"
   style="fill:#000000;stroke-width:1.80349"
   d="m 5752.9379,1238.8606 c -9.6943,0.198 -19.542,4.7668 -25.6436,12.4853 -7.5284,9.3638 -8.8748,23.2497 -3.1067,33.8174 6.1913,11.7158 19.737,19.1089 32.9487,17.7565 12.135,-1.089 23.3077,-9.6543 27.2856,-21.2089 3.9891,-11.1887 1.3105,-24.601 -7.1325,-33.0637 -6.2724,-6.4606 -15.3378,-10.1723 -24.3515,-9.7866 z" /><path
   id="path155-6"
   style="fill:#000000;stroke-width:1.80349"
   d="m 4790.796,1238.8659 c -12.7398,0.4226 -24.821,9.1911 -28.9292,21.3005 -3.3135,9.2567 -2.0104,20.0784 3.6534,28.1547 6.1483,9.2197 17.1247,15.3452 28.3123,14.7011 10.6808,-0.5009 20.7023,-7.0965 25.7397,-16.4739 3.317,-5.9277 5.216,-12.8477 4.4672,-19.6591 -1.276,-10.6871 -8.3403,-20.5075 -18.1638,-24.9618 -4.6882,-2.2 -9.9037,-3.267 -15.0796,-3.0615 z" /><path
   id="path153-7"
   style="fill:#000000;stroke-width:1.80349"
   d="m 5603.6235,1092.593 c -8.2134,0.395 -16.0624,3.6867 -22.8213,8.2363 -5.8893,4.0886 -10.4754,10.0901 -12.5476,16.9818 -3.3615,10.3501 -2.5088,21.6156 0.387,31.9673 2.152,7.9172 5.2493,15.4 8.4549,22.908 2.2721,5.4493 4.751,10.8097 7.3961,16.0877 -18.8136,11.5 -36.7575,24.3906 -53.9312,38.2107 -19.417,15.651 -37.9229,32.7156 -55.2317,50.7703 -7.0025,7.2966 -13.9485,14.9106 -20.587,22.5458 -11.7921,13.5751 -23.0527,27.6418 -33.5441,42.1555 -5.9028,8.2415 -11.6455,16.6121 -16.8881,25.2907 -4.6727,8.2054 -6.5407,18.1293 -4.3715,27.3887 1.7151,7.7027 6.2353,14.7133 12.5308,19.4698 6.092,4.7658 13.6539,7.7331 21.4112,7.9982 0.4423,0.01 1.4611,0.047 2.1347,0.026 10.0767,-0.123 20.3864,-4.3742 26.6408,-12.4619 2.3208,-2.9042 3.6987,-6.3936 5.7725,-9.4587 8.1333,-13.0071 17.4071,-25.2592 26.9284,-37.2729 22.8865,-28.5158 48.6616,-54.7398 76.9808,-77.8793 21.8512,-17.8064 45.3211,-33.6588 70.233,-46.8679 7.3483,-4.1457 14.1288,-10.0759 17.406,-18.0242 2.4045,-5.5948 3.0054,-11.7524 2.9664,-17.7853 0.1621,-0.6039 -0.3994,-2.3588 0.6501,-1.5515 8.9339,4.1717 18.0753,8.3426 27.9286,9.7249 6.3599,0.9815 12.9092,0.4065 19.0694,-1.4093 0.4135,-0.1188 1.3861,-0.4195 1.9992,-0.6316 25.2505,-7.8436 51.4699,-12.637 77.8809,-14.0018 23.9186,-1.1237 47.9289,0.7918 71.4974,4.9164 32.6821,5.7707 64.4807,15.9129 95.0556,28.722 2.5841,1.0611 5.0116,2.4541 7.512,3.6916 -4.4594,2.677 -9.0433,5.1324 -13.5759,7.68 -9.9532,5.8202 -19.4479,12.66 -28.2409,19.9746 -5.0701,4.3335 -10.1798,8.6202 -15.2342,12.9723 -13.5543,11.7765 -26.5524,24.2001 -38.8017,37.3313 -1.5702,1.7106 -3.3537,3.6184 -4.9785,5.4328 -16.4148,18.1766 -31.4437,37.7658 -44.4639,58.5846 -3.1659,5.0518 -6.2687,10.293 -9.2342,15.5529 -0.7869,1.4399 -1.6974,3.0402 -2.4901,4.5194 -9.3227,17.1011 -17.3018,35.1609 -23.6186,53.4503 -8.2766,24.0499 -13.9385,49.0195 -16.5888,74.3212 -0.2966,2.4556 0,4.9613 -0.6581,7.3689 -2.5341,11.5422 0.9743,24.4583 9.6894,32.5948 8.9626,8.5807 22.6582,12.1467 34.5498,8.2947 11.1007,-3.4112 20.3928,-12.1672 24.5793,-22.981 -0.075,-3.3508 0.1805,-6.7226 0.8851,-10.0089 0.6773,-3.0519 1.4647,-6.0829 1.8042,-9.1993 3.1593,-23.7513 9.3322,-47.1192 18.5992,-69.2252 15.3636,-36.984 38.4888,-70.3886 65.6428,-99.6798 13.1024,-14.1407 27.1811,-27.3579 41.9023,-39.7975 5.6825,-5.0085 11.8856,-9.7135 18.2467,-13.961 7.6563,-5.1661 15.68,-10.0574 23.2841,-15.1204 1.2979,-0.814 2.533,-1.8363 3.8682,-2.5254 1.2875,-0.058 2.8115,0.1754 3.8986,-0.5877 2.9894,-3.3984 7.0327,-5.668 11.2151,-7.2655 12.0797,-7.2695 20.2118,-20.1845 22.7363,-33.9388 1.6223,-8.2208 1.2565,-16.7286 -0.2692,-24.9344 -0.1098,-0.5485 -0.3053,-1.5979 -0.4738,-2.3401 -1.6213,-7.739 -4.2373,-15.337 -8.3703,-22.1089 -0.4578,-0.7429 -1.1364,-1.7985 -1.7233,-2.6339 -0.3531,-0.5067 -0.9831,-1.3788 -1.4833,-2.0124 -2.915,-3.8001 -6.4698,-7.1045 -10.4976,-9.6985 -0.488,-0.3044 -1.3893,-0.8791 -2.0589,-1.2602 -3.315,-1.9208 -6.8746,-3.3619 -10.2477,-5.175 -1.9973,-0.9725 -4.142,-2.0536 -6.1743,-3.0264 -21.0709,-10.2065 -42.7528,-19.1687 -64.9516,-26.6189 -10.5891,-3.5331 -21.5011,-6.8134 -32.3932,-9.63 -5.5221,-1.4423 -10.8602,-2.7177 -16.3937,-3.9482 -18.9257,-4.1811 -38.328,-7.2027 -57.7458,-8.761 -5.5788,-0.4482 -11.0136,-0.7842 -16.6259,-1.001 -9.517,-0.381 -19.3703,-0.4045 -28.8746,-0.092 -15.6351,0.5262 -31.2374,1.9995 -46.6928,4.4234 -2.5705,0.4185 -5.4114,0.8892 -8.0773,1.3717 -7.4787,1.3583 -14.9682,2.9303 -22.2785,4.7022 -4.613,1.114 -9.194,2.3553 -13.7587,3.6517 -8.0423,-2.7533 -15.0764,-7.649 -22.4644,-11.7321 -0.758,-0.4712 -1.7194,-0.7455 -1.9592,-1.7115 -1.0979,-1.8614 -3.3868,-2.413 -5.0749,-3.5905 -14.0417,-8.1231 -27.7899,-16.9565 -42.8884,-23.0418 -7.1335,-2.7838 -14.7473,-4.6685 -22.4521,-4.3669 z" /><path
   id="path151-5"
   style="fill:#000000;stroke-width:1.80349"
   d="m 4728.8159,1126.3123 c -4.0367,0.04 -8.0402,0.1157 -11.9981,0.2731 -6.0608,0.2262 -12.1849,0.5916 -18.1357,1.0957 -11.1745,0.9163 -22.4111,2.3377 -33.5602,4.1649 -4.5281,0.7558 -8.964,1.5618 -13.5128,2.454 -24.5044,4.8466 -48.8125,11.8399 -72.3091,20.5733 -7.0009,2.5834 -13.9185,5.3141 -20.7558,8.1609 -9.8436,4.1081 -19.6736,8.5575 -29.1955,13.1951 -4.5399,2.2697 -9.1419,4.4351 -13.566,6.9233 -10.0642,6.2061 -17.1827,16.32 -21.4754,27.1871 -3.8306,9.6686 -6.057,20.0728 -5.7851,30.4991 0.7037,17.0774 9.515,33.8473 23.7482,43.4706 4.1545,2.5431 8.4032,4.9568 12.2746,7.9313 5.1068,3.7457 10.5995,6.9223 15.9371,10.3215 11.4205,7.0877 22.8337,14.2879 33.1669,22.9241 9.9429,8.4041 19.5362,17.2264 28.7584,26.4159 28.4631,28.4212 53.2282,60.919 70.6844,97.2695 12.8386,26.7236 21.5864,55.5278 24.6576,85.0577 0.6555,5.3957 1.2207,10.8386 2.6224,16.1029 0.5526,2.1367 1.5585,4.1073 2.6135,6.0267 2.8069,6.8498 7.6272,12.9093 13.9246,16.8558 6.5921,4.2136 14.5722,6.2397 22.3754,5.586 0.5858,-0.061 1.6803,-0.1446 2.4549,-0.2658 7.8679,-1.0142 15.5859,-4.5154 20.8619,-10.5509 8.1736,-8.995 11.3445,-22.3889 7.5898,-34.0115 -1.2092,-4.0624 -1.5323,-8.2997 -2.1401,-12.4744 -0.3799,-2.5625 -0.8122,-5.3959 -1.2591,-8.0539 -4.6242,-27.4794 -12.685,-54.6313 -23.6939,-80.3423 -10.788,-25.2328 -24.6097,-49.4008 -40.5615,-71.8415 -6.2222,-8.7713 -12.9012,-17.4332 -19.8081,-25.7767 -2.6084,-3.1466 -5.407,-6.4256 -8.1532,-9.569 -10.8215,-12.342 -22.4375,-24.2884 -34.5088,-35.5401 -9.1836,-8.6032 -18.6206,-16.9506 -28.5434,-24.6959 -2.1126,-1.6233 -4.5304,-3.4444 -6.71,-5.0398 -10.1122,-7.4364 -20.7253,-14.1649 -31.5892,-20.4442 -1.1239,-0.4395 0.8872,-0.6916 1.2665,-1.0412 10.5991,-4.6746 21.1939,-9.3801 32.0646,-13.3975 42.3745,-15.9172 87.6233,-25.1191 133.0024,-23.94 34.4808,0.8128 68.7877,7.2532 101.3202,18.6764 48.4169,16.9287 92.6716,44.4555 131.4747,77.7862 23.4535,20.1699 45.0961,42.4413 64.7016,66.3664 11.1897,13.7296 21.8815,27.9026 31.37,42.869 2.1285,3.5057 4.158,7.1117 6.9732,10.1306 6.6726,7.5248 16.2054,12.9222 26.3955,13.2579 1.4837,-0.025 3.2289,0.2496 4.3374,-0.9864 1.9223,-1.8896 3.9125,-3.743 6.2764,-5.0774 2.4272,-1.4336 5.0224,-2.5456 7.5605,-3.7624 0.4324,-0.2329 1.4055,-0.6786 2.0012,-1.0749 11.6598,-7.0599 18.6941,-21.1664 16.977,-34.7359 -0.7225,-6.1113 -3.3977,-11.8145 -6.8944,-16.8177 -12.979,-19.8844 -27.6637,-38.6667 -43.0304,-56.6891 -23.5714,-27.5019 -49.3774,-53.1561 -77.3338,-76.2704 -32.3295,-26.76 -67.7401,-50.2412 -105.6905,-68.4178 -20.6111,-9.8962 -41.9853,-18.2215 -63.9151,-24.7008 -15.5564,-4.5855 -31.7783,-8.3193 -47.7999,-10.942 -4.7973,-0.7904 -9.7841,-1.5167 -14.6127,-2.1197 -7.8883,-0.9933 -15.8035,-1.7456 -23.678,-2.2407 -9.0932,-0.5805 -18.0572,-0.8242 -27.1751,-0.7551 z" /><path
   id="path193-3"
   style="fill:#000000;stroke-width:1.80349"
   d="m 4618.6182,1412.5262 c -42.3952,0.4771 -84.5781,5.1825 -126.7722,9.2442 -8.022,0.842 -15.9601,1.4255 -23.955,2.4795 -14.5577,2.5502 -27.5099,12.9883 -32.8669,26.7965 -1.6259,4.0653 -2.6201,8.379 -2.9762,12.7415 -0.047,0.5916 -0.1181,1.6602 -0.1313,2.4502 -0.1785,5.319 0.7349,10.6243 2.3686,15.6755 2.9931,10.845 6.161,21.6232 9.5715,32.4215 2.5594,8.1065 5.2559,16.2167 8.0606,24.2953 4.5969,13.1507 9.6062,26.4814 14.8772,39.3714 2.8599,7.0161 5.827,14.0005 8.8759,20.8638 9.3405,21.099 19.6812,41.7577 31.0453,61.8404 4.0982,7.2085 8.4352,14.5647 12.8555,21.6926 4.9926,8.0618 10.2347,16.1175 15.6091,23.9359 15.742,22.9662 33.1037,44.8295 52.0243,65.2601 2.4965,2.6796 5.119,5.464 7.7111,8.1398 43.47,6.6362 86.6413,15.2622 129.266,26.0826 26.9822,6.8136 53.7371,14.5172 80.2523,22.9636 2.62,0.8655 5.3412,-0.1569 8.0046,-0.2265 1.9961,-0.2068 3.9921,-0.4136 5.9882,-0.6206 -3.0419,-2.9981 -6.0577,-6.024 -9.1697,-8.9499 -37.5263,-14.3202 -73.0424,-33.9684 -104.895,-58.4563 -34.8471,-26.709 -65.2818,-58.9878 -90.8102,-94.6636 -33.4183,-46.5965 -58.6505,-98.6765 -77.6933,-152.655 -0.8761,-2.4652 -1.7182,-4.9425 -2.5789,-7.4133 35.8966,-3.4816 71.9609,-6.7129 108.0618,-5.2435 16.2701,0.6151 32.4992,2.257 48.5597,4.9298 2.5586,0.4035 5.1156,0.8168 7.6732,1.227 -3.8933,-13.4909 -8.3085,-26.8685 -14.1556,-39.6528 -8.4893,-19.0209 -19.2293,-36.9871 -31.3832,-53.8838 -11.1422,-0.5179 -22.2364,-0.7567 -33.4174,-0.6459 z" /><path
   id="path191-5"
   style="fill:#000000;stroke-width:1.80349"
   d="m 6006.0705,1776.4599 c -6.4533,0.3406 -12.8457,1.3474 -19.2665,2.0322 -18.2754,2.1819 -36.5035,4.7559 -54.676,7.6723 -13.9302,2.2545 -28.0677,4.753 -41.9233,7.4434 -17.7966,3.4378 -35.6161,7.2764 -53.199,11.4147 -55.0739,12.9907 -109.3229,29.4776 -162.2965,49.3708 -55.7692,20.9398 -110.2713,45.6967 -162.751,74.0121 -16.1757,8.7395 -32.2491,17.8473 -48.0851,27.2843 -14.4985,8.6643 -28.993,17.6741 -43.2003,26.9313 -23.6199,15.3788 -46.8882,31.6741 -69.4067,48.6695 -17.8433,13.4807 -35.2646,27.4511 -52.2653,42.0181 -8.6964,7.4841 -17.3998,15.1702 -25.8193,23.0369 -1.2592,1.501 -3.7345,1.2598 -4.8935,-0.2485 -14.3748,-12.8549 -29.1302,-25.2165 -44.2083,-37.2345 -24.256,-19.3041 -49.443,-37.6745 -75.2019,-55.0915 -39.8784,-26.946 -81.564,-51.7664 -124.3305,-74.1138 -27.7102,-14.4857 -55.8484,-27.9371 -84.5184,-40.4243 -31.1137,-13.5595 -62.9961,-26.0069 -95.1749,-37.1428 -26.7196,-9.26 -53.8758,-17.7004 -81.1894,-25.2456 -46.4704,-12.8461 -93.7908,-23.1815 -141.4379,-30.9366 -19.2005,-3.1369 -38.6044,-5.8697 -57.9331,-8.1579 -5.9561,-0.6572 -11.9043,-1.435 -17.8761,-1.9191 -12.7618,-0.4218 -25.4565,5.9167 -32.935,16.2413 -6.4349,8.673 -9.2343,20.0707 -7.0028,30.6909 2.5108,12.7209 11.6377,23.993 23.7204,28.8043 2.6268,1.0758 5.376,1.8416 8.1674,2.3486 0.6349,0.1152 1.7383,0.2926 2.5656,0.3913 43.1846,4.6438 86.1222,11.5854 128.5844,20.7164 78.0776,16.8267 154.5266,41.1883 227.9591,72.5889 70.3713,30.0825 138.0195,66.5549 201.7659,108.9106 24.2706,16.1238 47.9401,33.1456 70.9571,51.0125 0.6333,0.5355 1.309,0.9938 2.1729,0.9653 33.9488,5.8311 67.8976,11.6621 101.8464,17.4932 29.9049,-5.031 59.8343,-9.8865 89.7541,-14.8205 1.7058,-0.2099 2.7682,-1.6291 4.079,-2.5651 50.202,-40.4971 103.9452,-76.5425 160.0461,-108.3385 105.5404,-59.7573 219.7918,-104.1275 338.0412,-131.1011 46.9833,-10.7397 94.5961,-18.7098 142.4973,-24.0181 3.9516,-0.401 7.9313,-0.9205 11.6576,-2.3707 12.4813,-4.5225 22.2877,-15.7485 24.9597,-28.7702 1.0721,-4.9963 1.1739,-10.2019 0.2775,-15.2337 -0.066,-0.3977 -0.2764,-1.4338 -0.4289,-2.0649 -2.6677,-11.818 -11.1817,-22.1423 -22.3181,-26.9366 -5.2393,-2.3127 -10.9904,-3.433 -16.7139,-3.3149 z" /><path
   id="path189-6"
   style="fill:#000000;stroke-width:1.80349"
   d="m 5749.8487,1567.3573 c -6.2631,17.4761 -12.9412,34.8142 -20.4541,51.7951 -28.3911,64.5829 -66.7906,125.0593 -115.3142,176.4146 -17.5784,18.5361 -36.471,35.8844 -56.9407,51.1904 -5.2973,3.9218 -10.793,7.5665 -16.343,11.1156 -10.144,7.3172 -15.8501,20.3062 -14.2897,32.7289 0.6434,5.3265 2.3486,10.6376 5.4921,15.0221 1.1327,1.327 2.113,2.7733 3.1191,4.1961 35.938,-18.3177 72.6631,-35.097 110.0818,-50.1609 2.9921,-1.2742 6.093,-2.3145 9.005,-3.7639 1.9957,-1.8831 3.8797,-3.9188 5.8337,-5.8593 6.1395,-6.2905 12.2358,-12.8441 18.0382,-19.3124 36.9922,-41.4224 68.2959,-87.7888 93.9768,-136.993 15.6476,-29.9354 29.2412,-61.1677 40.8646,-92.9661 2.5022,-6.7762 4.838,-13.6115 7.2781,-20.4098 -5.3235,2.1996 -10.5423,4.6804 -15.9955,6.5486 -11.1861,3.8049 -23.9774,2.0236 -33.8922,-4.3249 -5.623,-3.5204 -10.1598,-8.5371 -13.7096,-14.1002 -1.5424,-2.2992 -3.1364,-4.5637 -4.6989,-6.8494 -0.6838,1.9094 -1.3676,3.819 -2.0515,5.7285 z" /><path
   id="path187-2"
   style="fill:#000000;stroke-width:1.80349"
   d="m 5911.8986,1412.4917 c -8.2828,0.078 -16.4161,0.3142 -24.6845,0.6777 -18.7594,26.331 -34.0833,55.3333 -43.3836,86.3712 -0.7352,2.3875 -1.4703,4.7752 -2.2056,7.1628 15.8557,-2.6344 31.8111,-4.7963 47.8721,-5.6401 38.0469,-2.232 76.1294,0.9471 113.9922,4.5187 0.8366,0.079 1.6733,0.1564 2.5098,0.2346 -8.1487,23.7147 -17.3525,47.0782 -27.9633,69.8039 -21.7325,46.6861 -49.2665,90.8988 -83.5519,129.43 -26.873,30.2459 -57.9239,56.8411 -92.3011,78.2135 -22.5174,14.033 -46.4087,25.8451 -71.1842,35.3305 -2.0048,0.7442 -3.1714,2.63 -4.7248,3.9842 -1.8046,1.7893 -3.6092,3.5787 -5.4138,5.3681 4.2902,0.4006 8.5933,0.9768 12.8831,1.1899 56.1582,-18.0153 113.4894,-32.3751 171.523,-42.8803 12.8646,-2.3516 25.7773,-4.4365 38.691,-6.4957 0.9707,-0.1862 1.4206,-1.3035 2.171,-1.8858 26.9763,-28.1397 50.7933,-59.2413 71.5396,-92.2249 1.2027,-1.9538 2.5543,-4.0861 3.7598,-6.0694 5.6354,-9.1866 11.0429,-18.5514 16.1846,-27.9495 29.3879,-53.8284 51.3715,-111.4289 67.5967,-170.5301 1.146,-3.9088 1.919,-7.9399 2.0751,-12.0162 0.024,-0.554 0.05,-1.588 0.035,-2.3383 -0.1301,-13.7958 -7.1278,-27.43 -18.5607,-35.2409 -7.1647,-5.0363 -15.8387,-7.6876 -24.5507,-8.1009 -35.3557,-3.3108 -70.5823,-7.413 -106.0346,-9.5418 -9.1045,-0.5417 -18.3328,-0.9566 -27.4486,-1.1812 -6.2739,-0.1528 -12.5496,-0.2211 -18.8254,-0.19 z" /><path
   id="path185-9"
   style="fill:#000000;stroke-width:1.80349"
   d="m 4784.9034,1565.9357 c -4.7143,6.3881 -8.7385,13.5451 -15.1955,18.3953 -10.148,7.9252 -24.1791,10.644 -36.5086,6.837 -4.4083,-1.2827 -8.4243,-3.5628 -12.6357,-5.3441 -1.377,-0.6231 -2.754,-1.2461 -4.131,-1.869 7.8169,22.3685 16.0043,44.6307 25.5841,66.3139 4.901,11.257 10.1559,22.5028 15.5577,33.4354 26.367,53.1258 59.1364,103.191 98.3773,147.7155 8.259,9.4129 16.8557,18.5257 25.6808,27.4085 39.3032,15.1517 77.9791,31.9441 115.7927,50.5105 1.976,0.9626 3.95,1.9326 5.9253,2.8983 3.0549,-5.5077 6.0129,-11.3075 6.5832,-17.6831 1.5335,-12.925 -4.6535,-26.58 -15.7322,-33.5455 -4.5143,-2.9946 -9.0261,-5.996 -13.3316,-9.2886 -18.3948,-13.6739 -35.4083,-29.1344 -51.4634,-45.4686 -28.5968,-29.2253 -53.8457,-61.6628 -75.7692,-96.1566 -26.6547,-41.9955 -48.292,-87.1168 -65.0478,-133.9332 -1.2451,-3.4007 -2.4555,-6.8299 -3.6861,-10.2257 z" /><path
   id="path183-1"
   style="fill:#000000;stroke-width:1.80349"
   d="m 4908.4718,1881.5222 c 2.5232,3.1177 4.9312,6.3492 7.6137,9.3255 13.3695,10.9938 27.0092,21.7805 41.9044,30.6566 6.5237,3.6514 14.2548,5.0016 21.637,3.8565 4.9663,-0.6979 9.6746,-2.5474 14.1419,-4.7656 2.2939,-1.0354 4.5878,-2.0708 6.8817,-3.1063 -25.5414,-12.4669 -51.3357,-24.4429 -77.6128,-35.2847 -1.6865,-0.7869 -3.4825,-1.2077 -5.3123,-1.5025 -3.9245,-0.7704 -7.8491,-1.5407 -11.7737,-2.3111 0.8401,1.0439 1.6801,2.0878 2.5201,3.1316 z" /><path
   id="path181-2"
   style="fill:#000000;stroke-width:1.80349"
   d="m 4472.8959,2005.3288 c -16.1728,0.1937 -31.8921,9.3719 -40.0194,23.3559 -7.6136,12.7952 -9.048,29.2837 -2.9772,42.9763 5.8673,13.7083 18.3774,24.48 32.9648,27.8104 5.7958,1.3268 11.7094,2.0333 17.5475,3.1437 241.4983,41.5197 482.9963,83.041 724.4947,124.5597 -0.4711,6.0219 -0.3008,12.1094 0.8587,18.0482 1.5031,8.0931 4.3809,15.9383 8.5545,23.0381 0.3742,0.6467 1.0084,1.6777 1.5036,2.4539 8.2475,12.9331 20.8437,23.0172 35.2824,28.201 2.1611,0.7866 4.4542,1.4821 6.5457,2.0179 17.0537,4.4324 35.7152,1.9819 51.1322,-6.5133 18.0825,-9.8284 31.3482,-27.9964 35.2252,-48.2067 0.833,-4.6472 1.4412,-9.3868 1.1775,-14.1154 -0.1536,-1.2705 -0.5952,-2.7505 0.3944,-3.8119 1.1592,-1.5531 3.3075,-1.2161 4.984,-1.6596 249.731,-41.0477 499.4649,-82.0793 749.1941,-123.137 16.0016,-2.9487 29.9919,-14.7654 35.6404,-30.0166 4.9005,-12.8445 3.9214,-27.8039 -2.7508,-39.8418 -6.549,-12.0496 -18.4568,-21.1515 -31.9521,-23.8507 -6.9243,-1.477 -14.1282,-1.2825 -21.0474,0.1179 -268.4045,44.0807 -536.8104,88.1536 -805.2154,132.2318 -264.3529,-45.4243 -528.7038,-90.863 -793.0581,-136.2789 -2.011,-0.2769 -4.1817,-0.4526 -6.052,-0.5005 -0.8089,-0.026 -1.6181,-0.031 -2.4273,-0.022 z" /><path
   id="path179-7"
   style="fill:#000000;stroke-width:1.80349"
   d="m 5272.1886,1156.1402 c -10.5606,0.2101 -20.5348,8.0243 -23.0273,18.3326 -1.9095,6.9792 -3.4524,14.0527 -5.1144,21.0939 -2.4834,10.9572 -4.8519,22.2031 -6.9655,33.2482 -4.1316,21.4255 -7.5764,43.0655 -10.4606,64.6403 -2.4826,18.5037 -4.4454,37.0733 -6.0593,55.672 -5.164,-3.3888 -10.4342,-6.6184 -15.9187,-9.4659 -2.6874,-1.3208 -5.222,-2.9491 -7.9877,-4.1033 -9.2579,-3.6223 -20.5811,-1.0118 -27.2474,6.3867 -5.604,6.0297 -7.8781,14.9541 -5.7328,22.9158 1.7195,6.5443 6.3349,12.1349 12.2114,15.4143 4.8922,2.8069 10.216,4.8525 14.8262,8.1488 9.9555,6.5483 18.2258,15.8913 22.6928,27.0058 1.5724,3.8018 2.8677,7.7659 3.4581,11.8413 -0.1856,22.4269 0.3445,44.8201 1.7724,67.1509 0.3594,4.6103 0.4303,9.2354 0.6233,13.8542 -3.2287,-4.9705 -6.4122,-9.9689 -9.4222,-15.0755 -8.3,-13.6511 -17.0222,-27.1728 -25.9913,-40.3106 -9.59,-14.006 -19.5106,-27.6613 -29.9358,-41.081 -1.1583,-1.3524 -2.0749,-2.943 -3.3916,-4.1401 -1.4043,-1.1225 -3.7501,-0.4885 -4.2804,1.2631 -0.6024,1.7646 -0.903,3.626 -1.5329,5.3906 -1.5433,5.204 -3.9125,10.1939 -7.3405,14.4279 -8.6831,11.05 -23.3249,17.2672 -37.306,15.2773 -3.9741,-0.5356 -7.9592,-0.9787 -11.9412,-1.4537 11.5179,14.7116 22.9742,29.4897 33.5677,44.8895 29.2848,42.0914 54.3819,87.0002 76.2332,133.3586 7.4407,15.8429 14.552,31.8457 21.2456,48.0189 1.4337,3.9782 2.34,8.1227 3.7683,12.1048 1.558,4.778 3.2338,9.4745 5.0928,14.076 1.7902,4.5002 3.8733,8.8809 6.0048,13.2226 1.3231,3.7848 3.9428,6.9052 5.9859,10.3045 8.2603,12.0118 24.3751,18.1228 38.4713,14.1399 10.7564,-2.9244 19.9769,-11.2563 23.6462,-21.8247 0.5182,-1.4284 1.0442,-3.2152 1.3732,-4.8345 0.7462,-3.51 0.9112,-7.129 0.6148,-10.7015 20.2741,-51.7464 43.698,-102.3289 71.3981,-150.5392 19.5716,-34.0681 41.3526,-66.8981 65.7147,-97.7371 2.2821,-2.9221 4.5643,-5.8441 6.8465,-8.7662 -5.3805,0.5731 -10.7475,1.3216 -16.1393,1.7554 -14.0517,0.4409 -27.9214,-7.1968 -35.361,-19.0748 -2.8609,-4.4045 -4.6322,-9.405 -5.9008,-14.4738 -0.6672,-2.3408 -1.331,-4.6825 -2.0033,-7.0217 -14.1855,18.1439 -27.9601,36.6272 -40.6971,55.8228 -23.4936,35.1114 -44.5229,72.0952 -63.3843,109.9795 -1.9368,3.8946 -3.8745,7.7887 -5.8119,11.683 -2.4109,-14.012 -4.6911,-28.0512 -6.3528,-42.1744 -3.3875,-27.7702 -5.0746,-55.7288 -5.5376,-83.6961 -0.1799,-1.9091 0.3046,-3.7699 0.8743,-5.5682 1.0692,-5.0233 0.2345,-10.1745 -0.1116,-15.2303 -0.4557,-3.7379 -0.9835,-7.4945 -0.6964,-11.2685 0.3736,-17.338 1.0127,-34.6751 2.2837,-51.9726 1.975,-3.3016 3.6021,-6.8084 5.8475,-9.9464 9.7021,-14.6181 22.6064,-26.7612 36.096,-37.8375 11.4223,-9.3311 23.5919,-17.6891 35.9508,-25.7194 5.8793,-3.8072 11.8753,-8.178 15.0195,-14.6422 4.3884,-9.1446 2.1634,-20.8849 -5.1137,-27.9134 -6.3224,-6.4108 -16.3378,-8.9008 -24.8879,-5.985 -3.7646,1.202 -7.1371,3.4114 -10.0091,6.0939 -9.3696,6.2386 -18.5728,12.4435 -27.6799,19.1466 -5.491,4.0134 -10.7891,8.2795 -16.1143,12.5079 2.8632,-18.7599 5.9926,-37.4812 9.7108,-56.092 2.7241,-13.8378 5.8329,-27.5958 9.1336,-41.306 2.0499,-10.2173 -3.2442,-21.4498 -12.514,-26.2629 -3.8097,-2.0599 -8.162,-3.1028 -12.493,-2.9491 z" /><path
   id="path177-0"
   style="fill:#000000;stroke-width:1.80349"
   d="m 5544.8967,1326.5206 c -14.2093,13.8254 -27.9471,28.158 -40.6939,43.3518 -9.7122,11.5271 -18.9333,23.465 -27.7028,35.7235 7.2678,29.4714 12.8473,59.3605 16.6034,89.4834 3.5262,28.4549 5.5397,57.114 5.6071,85.7926 0.041,10.5841 -0.3113,21.1668 -0.9563,31.7296 -0.3049,14.3653 6.8749,28.743 18.7881,36.8537 10.9923,7.6276 25.5556,9.9753 38.3103,5.7934 5.9229,-1.8518 11.3208,-5.0966 16.0965,-9.0209 40.0214,-30.119 81.1901,-58.8751 124.7093,-83.747 18.4618,-10.5148 37.3876,-20.2269 56.803,-28.8612 2.9609,-24.6889 8.4237,-49.0867 16.5057,-72.6083 3.5316,-10.5236 7.8019,-20.7744 11.9829,-31.0484 -0.1247,-0.5741 -0.953,0.1102 -1.3095,0.172 -18.5486,5.9958 -36.8447,12.4849 -54.7334,20.2243 -13.1259,5.5977 -26.182,11.7248 -38.9788,18.1858 -32.4603,16.4117 -63.7942,35.3139 -94.1566,55.4299 -1.4227,0.7542 -2.6483,2.3194 -4.3962,2.1309 -1.7168,-0.069 -2.9208,-1.8281 -2.6949,-3.4666 -1.0893,-14.0819 -2.5436,-28.0564 -4.3828,-42.0805 -0.9763,-7.4286 -2.0746,-14.9933 -3.2585,-22.3994 -3.5531,-22.238 -8.0369,-44.326 -13.385,-66.2013 -3.3361,-13.5861 -7.0507,-27.3258 -11.0602,-40.7317 -2.4347,-8.1931 -5.079,-16.5194 -7.6974,-24.7056 z" /><path
   id="path175-9"
   style="fill:#000000;stroke-width:1.80349"
   d="m 5273.618,966.23191 c -4.9527,0.047 -9.9737,-0.0109 -14.7962,1.2906 -7.3681,1.76687 -14.12,5.62136 -19.7762,10.61532 -6.1602,4.93964 -12.2882,9.987 -18.2227,15.0823 -51.7109,44.24137 -96.999,95.94707 -134.2058,152.92187 -21.1767,32.3788 -39.7624,66.3573 -55.8034,101.5429 -0.675,1.5964 -1.5479,3.1567 -2.0718,4.7873 0.067,1.707 1.2697,3.0587 2.6173,3.9649 21.6897,19.0126 42.0253,39.5446 61.1021,61.1707 0.8267,0.9221 1.6535,1.8441 2.4802,2.7662 6.3064,-15.8721 12.8674,-31.6518 20.2091,-47.0774 25.3158,-53.6459 57.8648,-103.9231 96.9186,-148.5969 18.6702,-21.4208 38.834,-41.5276 60.1803,-60.2802 28.9589,25.3463 55.639,53.2994 79.5296,83.4738 36.9189,46.5353 67.0318,98.3618 89.9872,153.1185 1.3129,3.1073 2.6168,6.2256 3.9263,9.3374 15.8223,-17.9283 32.3397,-35.2754 50.0516,-51.3541 5.4303,-4.9521 10.9621,-9.7887 16.5292,-14.5861 -5.785,-12.5698 -11.9527,-25.073 -18.3632,-37.2637 -13.5443,-25.7077 -28.5361,-50.6563 -44.9643,-74.6255 -11.0969,-16.1634 -22.9279,-32.0085 -35.3448,-47.2577 -4.6544,-5.7271 -9.5552,-11.5647 -14.3954,-17.1406 -29.7911,-34.3687 -62.8373,-65.9359 -98.6671,-93.95831 -7.772,-5.52082 -17.4212,-8.2137 -26.9206,-7.93128 z" /><path
   id="path173-3"
   style="fill:#000000;stroke-width:1.80349"
   d="m 4997.0504,1335.1053 c -6.4317,20.6384 -12.4012,41.4298 -17.3632,62.4742 -3.94,16.5221 -7.3644,33.1321 -10.276,49.9055 -3.3451,19.2447 -6.042,38.868 -7.952,58.3172 -0.7526,7.5247 -1.3355,15.0645 -1.9029,22.6051 -15.2856,-10.1643 -30.7734,-20.1671 -46.4626,-29.6082 -20.4636,-12.3202 -41.5281,-23.9904 -63.0669,-34.5054 -25.1066,-12.3231 -51.1569,-23.0808 -77.8426,-31.6578 -6.676,-2.1607 -13.4169,-4.1074 -20.1238,-6.1673 5.5083,12.6755 11.0504,25.3595 15.4292,38.4807 6.8105,19.9786 11.8295,40.5565 15.0976,61.4072 0.1791,1.1327 0.3582,2.2655 0.5373,3.3981 35.6831,15.0743 69.6435,33.9516 102.3081,54.7105 31.386,19.9026 61.6269,41.5566 91.2507,63.9846 6.0269,4.5794 13.243,7.5625 20.7509,8.5397 0.6324,0.085 1.7102,0.2077 2.5313,0.2592 13.5664,1.1037 27.3488,-4.7829 36.265,-14.9997 7.7391,-8.6842 11.4691,-20.6034 10.6178,-32.1556 -0.8178,-10.8616 -0.9381,-21.7664 -0.8826,-32.6557 0.266,-33.0851 3.0583,-66.1303 7.8631,-98.8574 3.0331,-20.5489 6.928,-40.968 11.5971,-61.2071 -3.2493,-4.8397 -6.5961,-9.6128 -10.0035,-14.3422 -1.3396,-1.8065 -2.8227,-3.875 -4.2448,-5.7638 -4.0093,-5.3642 -8.1724,-10.7373 -12.3265,-15.8637 -2.1073,-2.6283 -4.1827,-5.1213 -6.3556,-7.7399 -1.7051,-1.9883 -3.5557,-4.2175 -5.354,-6.268 -9.5475,-11.1025 -19.6588,-21.7016 -29.9313,-32.1317 0.019,0.124 -0.164,-0.2467 -0.1598,-0.1585 z" /></svg>
