<?xml version="1.0" encoding="utf-8"?>
<!-- Generator: Adobe Illustrator 22.1.0, SVG Export Plug-In . SVG Version: 6.00 Build 0)  -->
<svg version="1.1"
	 id="svg8" inkscape:version="0.92.4 (5da689c313, 2019-01-14)" sodipodi:docname="certificacion.svg" xmlns:cc="http://creativecommons.org/ns#" xmlns:dc="http://purl.org/dc/elements/1.1/" xmlns:inkscape="http://www.inkscape.org/namespaces/inkscape" xmlns:rdf="http://www.w3.org/1999/02/22-rdf-syntax-ns#" xmlns:sodipodi="http://sodipodi.sourceforge.net/DTD/sodipodi-0.dtd" xmlns:svg="http://www.w3.org/2000/svg"
	 xmlns="http://www.w3.org/2000/svg" xmlns:xlink="http://www.w3.org/1999/xlink" x="0px" y="0px" viewBox="0 0 2267.7 2267.7"
	 style="enable-background:new 0 0 2267.7 2267.7;" xml:space="preserve">
<style type="text/css">
	.st0{fill:none;stroke:#000000;stroke-width:0.2646;}
</style>
<sodipodi:namedview  bordercolor="#666666" borderopacity="1.0" id="base" inkscape:current-layer="layer1" inkscape:cx="885.13635" inkscape:cy="1084.3087" inkscape:document-units="mm" inkscape:pageopacity="0.0" inkscape:pageshadow="2" inkscape:window-height="962" inkscape:window-maximized="1" inkscape:window-width="1280" inkscape:window-x="-8" inkscape:window-y="-8" inkscape:zoom="0.1400905" pagecolor="#ffffff" showgrid="false">
	</sodipodi:namedview>
<path id="path3713" inkscape:connector-curvature="0" class="st0" d="M672.2,823.1c0-253.1,208.6-461.7,461.7-461.7
	c253.1,0,461.7,208.6,461.7,461.7c0,255.4-208.6,461.7-461.7,461.7C880.8,1284.8,672.2,1078.6,672.2,823.1z M796.4,837.2
	l253.1,253.1l110.1-110.1l311.7-311.7l-110.1-110.1L1049.5,870l-143-143L796.4,837.2z M454.2,642.7c18.7-18.7,28.1-44.5,23.4-70.3
	l-35.2-250.8l248.4-44.5c25.8-4.7,46.9-18.7,58.6-42.2L869,9.9l227.3,112.5c23.4,11.7,51.6,11.7,75,0L1398.7,9.9l119.5,225
	c11.7,21.1,32.8,37.5,58.6,42.2l248.4,44.5L1790,572.4c-4.7,25.8,4.7,51.6,23.4,70.3l175.8,180.4l-175.8,182.8
	c-18.7,18.7-28.1,44.5-23.4,68l35.2,253.1l-248.4,42.2c-25.8,4.7-46.9,21.1-58.6,44.5l-119.5,222.6l-227.3-110.1
	c-11.7-7-25.8-9.4-37.5-9.4c-11.7,0-25.8,2.3-37.5,9.4L869,1636.3l-119.5-222.6c-11.7-23.4-32.8-39.8-58.6-44.5L442.5,1327
	l35.2-253.1c4.7-23.4-4.7-49.2-23.4-68L278.5,823.1L454.2,642.7z M552.7,823.1c0,321.1,260.1,581.2,581.2,581.2
	c321.1,0,581.2-260.1,581.2-581.2c0-321.1-260.1-581.2-581.2-581.2C812.8,241.9,552.7,502.1,552.7,823.1z M1902.5,2091
	c9.4,23.4-4.7,49.2-28.1,58.6c-14.1,2.3-25.8,2.3-37.5-2.3l-295.3-150l-171.1,241.4c-9.4,14.1-28.1,21.1-44.5,18.7
	c-2.3,0-4.7,0-9.4-2.3c-11.7-4.7-23.4-14.1-28.1-28.1l-150-457l-159.4,454.6c-4.7,14.1-14.1,25.8-28.1,30.5c-2.3,0-4.7,0-9.4,0
	c-16.4,4.7-32.8-4.7-42.2-18.7l-171.1-241.4l-297.6,147.6c-11.7,4.7-23.4,4.7-35.2,0c-25.8-7-37.5-32.8-30.5-56.2L557.4,1491
	l112.5,18.7c25.8,4.7,49.2,23.4,60.9,46.9L857.3,1791l239-117.2c11.7-7,23.4-9.4,37.5-9.4c14.1,0,25.8,4.7,37.5,9.4l239,117.2
	l126.5-236.7c11.7-23.4,35.2-39.8,60.9-44.5l98.4-16.4C1696.3,1493.4,1900.3,2068,1902.5,2091z"/>
</svg>
