<?xml version="1.0" encoding="UTF-8" standalone="no"?>
<svg
   xmlns:dc="http://purl.org/dc/elements/1.1/"
   xmlns:cc="http://creativecommons.org/ns#"
   xmlns:rdf="http://www.w3.org/1999/02/22-rdf-syntax-ns#"
   xmlns:svg="http://www.w3.org/2000/svg"
   xmlns="http://www.w3.org/2000/svg"
   version="1.1"
   id="svg8"
   x="0px"
   y="0px"
   viewBox="0 0 2267.7175 2267.7185"
   xml:space="preserve"><metadata
   id="metadata8"><rdf:RDF><cc:Work
       rdf:about=""><dc:format>image/svg+xml</dc:format><dc:type
         rdf:resource="http://purl.org/dc/dcmitype/StillImage" /><dc:title></dc:title></cc:Work></rdf:RDF></metadata><defs
   id="defs6">

	
</defs>

<path
   id="path72"
   style="fill:none;stroke-width:1.58054"
   d="m 1372.0769,2018.0538 c -4.284,-0.044 -8.6359,0.3411 -13.0055,1.1885 -29.6082,1.835 -53.5064,24.8822 -56.4178,54.4019 -4.0288,84.6251 134.9964,86.6386 132.9812,4.0286 -0.188,-2.4846 -0.5183,-4.9589 -0.9909,-7.4087 -5.9315,-30.5858 -32.5796,-51.9011 -62.567,-52.2103 z m -2.5993,14.978 c 2.931,-0.024 5.8666,0.2183 8.7732,0.7286 26.3049,4.6263 43.8789,29.7007 39.2511,56.004 -10.0759,54.3991 -114.8495,44.3287 -98.728,-22.1613 h 2.0158 v 0 c 4.71,-16.1737 17.8251,-28.5183 34.2532,-32.2405 4.6823,-1.5075 9.5497,-2.2867 14.4347,-2.3276 z" /><path
   style="fill:none;stroke-width:1.58054"
   d="m 130.00001,1271.7242 c 75.51682,89.8208 640.46493,593.3598 1148.47699,396.9314 113.6676,-41.2757 220.3491,-99.7129 316.3351,-173.2822 17.4602,-5.4687 29.044,-22.0169 28.2079,-40.2958 -24.1775,16.1183 -44.3262,36.267 -70.5204,52.3885 -78.3473,52.4817 -162.1094,96.3907 -249.8451,130.9665 -526.04554,180.0235 -876.19039,-174.9358 -1172.65449,-366.7084 169.08558,32.6956 398.94505,294.1696 626.62622,306.2623 76.44586,3.1595 152.97864,-3.6163 227.67959,-20.1487 128.19738,-25.6157 250.07578,-76.2878 358.64768,-149.1016 76.3889,-48.3217 149.1205,-102.1975 217.6052,-161.1895 24.7165,-16.4123 46.5089,-36.8423 64.4765,-60.4461 1.7133,-16.7458 1.7133,-33.6228 0,-50.3701 V 979.56815 c -90.6676,64.47645 -183.3503,155.14715 -342.5278,143.05765 -64.6013,-5.1526 -125.9388,-30.5313 -175.2927,-72.5356 -47.9076,-37.5742 -81.9334,-90.03695 -96.7131,-149.09847 -34.28339,-131.54182 26.6858,-269.35046 147.088,-332.45816 61.328,-34.30083 131.4217,-49.72213 201.4854,-44.3246 66.008,6.79631 129.8474,27.39072 187.3838,60.44766 36.267,-122.90734 76.5643,-243.80107 112.8329,-364.69322 -96.6941,-45.35511 -200.1403,-74.61876 -306.2607,-86.63717 -115.9688,-14.0083 -233.5987,-2.31074 -344.5445,34.25183 -182.20282,65.66185 -329.38406,203.36934 -407.00583,380.80996 -45.4452,104.03414 -66.7951,216.99358 -62.45968,330.43824 4.39231,107.38804 35.56051,211.97383 90.66753,304.24553 49.50243,79.4315 114.62374,147.9794 191.41257,201.4885 79.29083,58.6158 167.82306,103.5632 261.93301,132.9801 -89.96736,25.1843 -182.65482,39.3918 -276.03456,42.3126 -264.40923,-6.9229 -458.93941,-263.9262 -676.99953,-288.1288"
   id="path78" /><path
   style="fill:none;stroke-width:1.58054"
   d="m 1342.9519,2057.5248 c -30.2215,42.3125 46.3429,84.6251 56.4157,28.2094 -20.1471,-2.0152 -12.0879,16.1183 -26.1911,16.1183 -26.1926,2.0152 -26.1926,-44.3277 0,-44.3277 14.1032,2.0151 6.0456,14.1047 28.2063,12.0895 -2.0152,-28.2079 -44.3262,-28.2079 -58.4309,-12.0895 z"
   id="path76" /><path
   style="fill:none;stroke-width:1.58054"
   d="m 1656.363,826.89139 c -1.8476,1.23756 -2.3424,3.74271 -1.1064,5.59036 V 2140.1347 c 145.0728,0 296.1864,0 443.2728,0 0,-435.2105 0,-876.4697 0,-1313.69535 -143.0576,0 -294.1712,0 -441.2592,0 -0.3177,0.11222 -0.6243,0.26237 -0.9072,0.45204 z"
   id="path70" /><path
   style="fill:none;stroke-width:1.58054"
   d="m 3011.2677,810.31945 h -378.7963 v 985.27075 h -177.3095 v 340.5141 h 713.2634 c 28.2094,-112.833 56.4173,-229.6963 86.6403,-342.5293 -112.8345,0 -227.6811,4.0304 -338.4974,0 v -161.1895 h 139.0241 c 26.866,-111.488 53.7304,-222.9775 80.5948,-334.4687 h -201.4854 c 0,-52.3869 -4.0319,-106.7858 0,-155.1455 h 362.6749 c -48.3565,-143.05446 -98.7283,-282.0817 -149.1,-425.13615 h -163.2047 c 4.0319,30.22304 20.1503,60.44608 26.1958,92.6843 z"
   id="path68" /><path
   style="fill:none;stroke-width:1.58054"
   d="m 3559.3128,516.14981 c -69.0095,-37.62311 -147.2113,-55.07699 -225.666,-50.37331 -149.1016,10.07435 -231.7116,106.78744 -274.0241,219.62201 h 116.8649 c 57.7576,163.87645 114.8466,329.09639 171.2623,495.65809 h -197.4597 c 22.1655,58.4341 54.4037,128.9514 80.5948,187.3838 10.4078,20.773 19.1656,42.3316 26.1942,64.4781 12.0896,44.323 -4.0303,96.7115 -40.2989,102.757 -28.2063,6.0456 -56.4142,-4.0303 -88.6524,0 -20.1503,76.5644 -38.2853,153.132 -58.4325,229.6964 78.5796,0 161.188,-4.032 237.7556,0 -8.0624,32.2366 -16.1184,64.4764 -24.1775,98.7283 193.4246,18.135 320.3639,-44.3278 378.7932,-171.2639 21.9963,-45.559 35.6474,-94.6932 40.2989,-145.0697 6.044,-82.6115 -22.1638,-130.9665 -48.3581,-191.4125 -46.3413,-98.7299 -82.6115,-179.3231 -126.9377,-276.0393 -22.1639,-44.3246 -66.49,-110.81468 -48.3565,-167.23354 14.7827,-49.18475 59.4756,-83.31646 110.8178,-84.62514 31.2867,2.60156 61.2616,13.75542 86.6371,32.23822 2.0152,2.01519 6.044,8.06074 10.076,4.02879 -42.3095,-112.83615 -84.6204,-231.71154 -126.9314,-348.57332 z"
   id="path66" /><path
   style="fill:none;stroke-width:1.58054"
   d="m 1756.0017,778.08123 h 382.8267 v 987.28747 h 453.3456 c 0,-326.411 0,-658.8644 0,-987.28747 122.9073,0 249.8434,4.02879 370.7356,0 -44.3278,-130.29635 -87.3105,-262.60473 -128.9529,-396.92987 h -951.0189 c -42.3126,128.95131 -84.6236,263.94818 -126.9361,396.92987 z"
   id="path3713" />
</svg>
