<?xml version="1.0" encoding="UTF-8" standalone="no"?>
<svg
   xmlns:dc="http://purl.org/dc/elements/1.1/"
   xmlns:cc="http://creativecommons.org/ns#"
   xmlns:rdf="http://www.w3.org/1999/02/22-rdf-syntax-ns#"
   xmlns:svg="http://www.w3.org/2000/svg"
   xmlns="http://www.w3.org/2000/svg"
   version="1.1"
   id="svg8"
   x="0px"
   y="0px"
   viewBox="0 0 2267.7 2267.7"
   style="enable-background:new 0 0 2267.7 2267.7;"
   xml:space="preserve"><metadata
   id="metadata9"><rdf:RDF><cc:Work
       rdf:about=""><dc:format>image/svg+xml</dc:format><dc:type
         rdf:resource="http://purl.org/dc/dcmitype/StillImage" /><dc:title></dc:title></cc:Work></rdf:RDF></metadata><defs
   id="defs7">
	
</defs>
<style
   type="text/css"
   id="style2">
	.st0{fill:none;stroke:#000000;stroke-width:0.2646;}
</style>

<path
   id="path3713"
   d="m 2258.3,2015.2 c 0,9.2 -2.3,18.3 -9.2,25.2 l -135,135 c -13.7,13.7 -36.6,13.7 -50.3,0 l -571.9,-571.9 c -36.6,27.5 -97.8,52.6 -141.2,75.5 v -142.4 c 50.3,-29.7 100.4,-66.3 143.8,-109.8 137.3,-137.3 212.8,-308.3 212.8,-502.7 0,-194.4 -57.5,-355.5 -194.8,-492.7 C 1375.2,294.2 1192.2,218.6 997.8,218.6 803.3,218.6 648.31,272.10999 511.1,409.4 476.81,443.71 447,480.3 419.6,521.5 H 258.8 C 297.7,450.6 345.7,386.5 402.9,329.3 563.1,169 773.5,82.1 997.7,82.1 c 224.2,0 434.7,89.2 594.8,247.1 160.2,157.8 247.1,368.3 247.1,594.8 0,180.7 -57.2,352.3 -162.4,494.1 l 571.9,571.9"
   style="fill:none" />
<style
   type="text/css"
   id="style815">
	.st0{fill:none;stroke:#000000;stroke-width:0.2646;}
</style><g
   style="fill:#000000"
   id="layer1"
   transform="matrix(0.60598903,0,0,0.62759446,50.699113,704.6968)">
	
</g><style
   type="text/css"
   id="style828">
	.st0{fill:none;stroke:#000000;stroke-width:0.2646;}
</style><path
   id="path879"
   d="M 393.14453 647.46094 C 336.90303 647.46094 289.216 668.7101 249.875 711.13086 C 210.534 753.55162 190.83008 805.04516 190.83008 865.68945 C 190.83008 957.79013 231.29269 1024.4844 312.21875 1065.6953 L 305.50781 2211.3418 L 472.58984 2210.3965 L 475.06836 1972.9238 C 475.06836 1972.9238 472.92067 2027.4599 619.10547 2025.4414 L 882.20703 2021.8086 C 915.9379 2111.4895 977.78921 2156.4064 1067.6914 2156.4062 C 1123.9329 2156.4062 1171.6904 2135.1571 1211.0312 2092.7363 C 1250.3724 2050.3155 1270.0781 1998.822 1270.0781 1938.1777 C 1270.0781 1877.5334 1250.3725 1826.0379 1211.0312 1783.6172 C 1171.6905 1741.1964 1123.9329 1719.9492 1067.6914 1719.9492 C 977.78921 1719.9492 916.00822 1763.5785 882.27734 1850.8398 L 605.69727 1850.8398 C 518.03906 1850.8398 474.14062 1803.5805 474.14062 1708.9844 L 474.14062 1444.5625 C 514.60366 1463.9959 558.43197 1473.6738 605.69727 1473.6738 L 882.27734 1473.6738 C 916.00822 1563.3547 977.85947 1608.2715 1067.7617 1608.2715 C 1124.0032 1608.2715 1171.7606 1587.0243 1211.1016 1544.6035 C 1250.4426 1502.1827 1270.1465 1450.6873 1270.1465 1390.043 C 1270.1465 1329.3987 1250.4426 1277.9032 1211.1016 1235.4824 C 1171.7606 1193.0617 1124.0032 1171.8145 1067.7617 1171.8145 C 977.78934 1171.8145 916.00822 1215.4457 882.27734 1302.707 L 605.69727 1302.707 C 518.03906 1302.707 474.14062 1255.4457 474.14062 1160.8496 L 474.14062 1065.6953 C 555.06669 1024.4844 595.5293 957.79013 595.5293 865.68945 C 595.5293 805.04516 575.82342 753.55162 536.48242 711.13086 C 497.14142 668.7101 449.38604 647.46094 393.14453 647.46094 z M 393.21484 738.35156 C 424.70167 738.35156 452.2617 750.44982 475.82422 774.72266 C 499.45687 798.9955 511.23828 829.24378 511.23828 865.61523 C 511.23828 899.56696 499.45687 928.67778 475.82422 952.875 C 452.19157 977.14784 424.70167 989.24805 393.21484 989.24805 C 361.72801 989.24805 334.168 977.14784 310.60547 952.875 C 287.04295 928.60216 275.19141 899.56696 275.19141 865.61523 C 275.12131 829.3194 286.97263 798.9955 310.53516 774.72266 C 334.16781 750.52544 361.72801 738.35156 393.21484 738.35156 z M 1067.7617 1262.7051 C 1099.2485 1262.7051 1126.8085 1274.8033 1150.3711 1299.0762 C 1174.0037 1323.349 1185.7852 1353.5953 1185.7852 1389.9668 C 1185.7852 1423.9185 1174.0037 1453.0313 1150.3711 1477.2285 C 1126.7384 1501.5014 1099.2485 1513.5996 1067.7617 1513.5996 C 1036.2748 1513.5996 1008.7149 1501.5014 985.15234 1477.2285 C 961.58982 1452.9557 949.73828 1423.9185 949.73828 1389.9668 C 949.73828 1353.5953 961.51969 1323.2734 985.15234 1299.0762 C 1008.785 1274.879 1036.2748 1262.7051 1067.7617 1262.7051 z M 1067.7617 1810.9141 C 1099.2485 1810.9141 1126.8085 1823.0143 1150.3711 1847.2871 C 1174.0037 1871.5599 1185.7852 1901.8063 1185.7852 1938.1777 C 1185.7852 1972.1295 1174.0037 2001.2402 1150.3711 2025.4375 C 1126.7384 2049.7103 1099.2485 2061.8105 1067.7617 2061.8105 C 1013.2032 2058.7102 985.15234 2025.4375 985.15234 2025.4375 C 961.51969 2001.1646 949.73828 1972.1295 949.73828 1938.1777 C 949.73828 1901.8063 961.51969 1871.4843 985.15234 1847.2871 C 1008.785 1823.0899 1036.2748 1810.9141 1067.7617 1810.9141 z "
   style="fill:none;stroke:#000000;stroke-width:0.19268101" /></svg>