<?xml version="1.0" encoding="UTF-8" standalone="no"?>
<svg
   xmlns:dc="http://purl.org/dc/elements/1.1/"
   xmlns:cc="http://creativecommons.org/ns#"
   xmlns:rdf="http://www.w3.org/1999/02/22-rdf-syntax-ns#"
   xmlns:svg="http://www.w3.org/2000/svg"
   xmlns="http://www.w3.org/2000/svg"
   version="1.1"
   id="svg8"
   x="0px"
   y="0px"
   viewBox="0 0 2267.7175 2267.7185"
   xml:space="preserve"><metadata
   id="metadata8"><rdf:RDF><cc:Work
       rdf:about=""><dc:format>image/svg+xml</dc:format><dc:type
         rdf:resource="http://purl.org/dc/dcmitype/StillImage" /><dc:title></dc:title></cc:Work></rdf:RDF></metadata><defs
   id="defs6">

	
</defs>

<path
   id="path3713"
   style="fill:none"
   d="m 1146.2774,119.57896 c -559.88224,1e-5 -1014.27737,454.40113 -1014.27737,1014.28314 0,559.8822 454.39853,1014.2774 1014.27737,1014.2774 559.8789,0 1014.2793,-454.3952 1014.2793,-1014.2774 0,-559.88201 -454.3972,-1014.28314 -1014.2793,-1014.28314 z m 0,58.82813 c 525.3994,0 953.4238,430.05569 953.4238,955.45501 0,525.3929 -428.0276,955.4492 -953.4238,955.4492 -525.39613,0 -953.41995,-430.053 -953.41995,-955.4492 0,-525.39932 428.02042,-955.45501 953.41995,-955.45501 z" /><path
   id="path26"
   style="fill:none"
   d="m 5931.6504,352.86803 c -148.088,0 -235.3162,4.5e-4 -259.6582,4.05859 V 1714.0301 c 24.342,68.9687 95.3413,210.9688 265.7403,208.9414 h 225.1699 79.1152 c 36.51,2.0274 62.8836,2.0273 81.1406,2.0273 247.481,0 419.9135,-52.7459 519.3125,-154.1699 85.195,-89.2561 129.8243,-202.8583 129.8243,-338.7715 0,-64.9105 -14.2005,-125.7694 -40.5665,-184.5878 -30.424,-62.8866 -70.9971,-109.5397 -123.7441,-139.9708 -20.283,-10.1404 -30.4258,-18.2614 -30.4258,-24.3437 0,2.0241 14.1937,-12.1737 42.5977,-42.6016 30.428,-34.4827 56.8019,-68.9723 77.0859,-103.455 26.373,-48.6878 38.543,-95.3411 38.543,-137.94336 0,-168.37179 -56.797,-286.02796 -174.457,-357.02735 -87.228,-50.71526 -223.1403,-81.13965 -407.7383,-87.22851 -40.571,-2.03072 -180.5405,-2.03125 -421.9395,-2.03125 z m 123.7403,316.44922 h 206.9082 c 91.287,0 160.2587,12.16764 204.8847,32.45507 44.633,20.28412 66.9453,62.88642 66.9453,125.76954 0,28.40042 -6.0891,56.80373 -20.2871,79.11523 -18.257,34.486 -44.6233,56.79826 -79.1093,68.97266 -34.493,12.1678 -83.1746,18.25781 -146.0606,18.25781 h -233.2812 z m 0,563.94135 h 263.7089 c 89.256,0 154.1739,14.1973 198.7969,42.5977 44.633,28.4004 66.9434,73.0249 66.9434,137.9453 0,121.7147 -85.2001,184.5976 -257.6231,184.5976 h -271.8261 z" /><path
   id="path22"
   style="fill:none"
   d="m 4661.7676,316.34459 c -233.2822,0 -425.9956,79.11623 -578.1348,239.375 -152.1425,156.19404 -227.1972,350.93605 -227.1972,580.16011 0,229.2274 75.0514,419.9139 227.1972,576.1113 152.1359,160.2587 344.8526,239.3711 578.1348,239.3711 233.2856,0 425.9969,-79.1132 578.1426,-237.3379 150.1085,-154.1699 225.1699,-348.915 225.1699,-578.1425 0,-229.2242 -77.088,-421.93538 -227.2031,-580.16016 C 5083.7104,395.46277 4890.9918,316.34859 4661.7676,316.34459 Z m 0,411.80469 c 109.5403,0 200.8267,40.56783 273.8535,121.71094 66.9445,79.1124 101.4278,172.43098 101.4278,284.00188 0,105.4821 -34.4784,196.7639 -105.4844,277.9102 -75.0608,83.1673 -164.3135,123.7422 -269.7988,123.7422 -113.5951,0 -206.914,-38.5439 -277.9102,-117.6563 -66.9445,-75.0608 -99.3984,-170.4017 -99.3984,-281.9726 0,-105.4821 36.5122,-198.79632 107.5117,-279.93945 73.03,-85.19795 162.2861,-127.79687 269.7988,-127.79687 z" /><path
   style="fill:none"
   d="m 1866.4188,1620.7132 c 0,0 -247.4842,405.7122 -720.1409,405.7122 -460.4823,0 -716.0795,-405.7122 -716.0795,-405.7122 4.0582,-60.8524 137.944,-178.5088 277.912,0 95.3417,123.7421 253.5698,44.633 294.138,2.0275 38.5441,-40.5716 160.2588,-139.9714 290.0865,-10.1437 119.6839,119.6872 231.2548,87.2287 312.3979,6.0921 0,0 153.0739,-210.2598 261.686,2.0241 z"
   id="path36" /><path
   style="fill:none"
   d="m 829.8218,845.80557 c 176.4848,-107.51607 428.0237,-482.80044 428.0237,-482.80044 79.1157,-6.08557 -198.7963,494.96829 -198.7963,494.96829 l 2.0274,622.76848 c -12.171,68.972 -64.9137,83.1738 -91.2835,18.2567 -6.0855,-16.2326 -4.0581,-176.4848 -4.0581,-176.4848 l -91.2835,89.2594 c 0,0 -16.2293,135.9132 -54.7734,160.249 -113.5984,36.5167 -52.7394,-119.6807 -18.2567,-288.0525 10.1437,-42.6022 18.2567,-184.601 18.2567,-213.0015 -24.3423,-42.599 -36.5135,-24.3422 -68.972,30.4279 -24.3423,44.6297 -111.5709,241.3986 -133.8858,229.2242 -70.9961,2.0372 30.4344,-245.4502 213.0015,-484.81473 z"
   id="path34" /><path
   style="fill:none"
   d="M 7562.6058,543.54474 V 1908.769 c -4.059,2.0274 -8.113,2.0274 -12.171,2.0274 -36.513,6.0888 -286.026,-40.5716 -346.884,-166.3444 V 356.91956 c 129.827,2.03072 308.34,95.34495 359.055,186.62518 z"
   id="path32" /><path
   style="fill:none"
   d="m 3623.1468,1494.9405 c 71.0027,71.0026 172.4299,221.1144 172.4299,229.2274 0,12.1711 -8.1163,26.373 -22.3149,46.6604 -137.9406,160.2522 -334.7094,178.5089 -563.9369,178.5089 -233.2823,0 -423.9656,-77.0849 -570.0226,-235.3097 -141.9987,-152.1458 -212.9981,-344.8565 -212.9981,-576.1114 0,-225.17257 68.9687,-415.85589 208.94,-572.05652 144.0295,-164.31033 328.6273,-235.3163 553.7966,-245.45342 99.3997,-4.05815 434.1093,6.08556 572.0532,154.16991 14.1986,16.22598 22.3149,30.42784 22.3149,42.59897 0,14.20185 -125.7695,281.97013 -340.7951,212.99817 -62.8864,-18.2567 -146.057,-22.31155 -210.9741,-22.31155 -109.5402,0 -206.9126,60.85567 -273.8539,141.99877 -60.8588,77.085 -91.2867,168.37177 -91.2867,279.93937 0,111.5677 30.4311,206.9094 91.2867,281.9734 66.9413,83.1673 156.1974,154.1699 265.741,166.3411 208.9367,22.3083 352.9629,-129.831 399.62,-83.1738 z"
   id="path20" /><path
   style="fill:none"
   d="m 1422.1591,776.83362 c -38.0898,0 -68.9686,30.87873 -68.9686,68.97525 0,38.08996 30.8754,68.96866 68.9686,68.96866 38.0933,0 68.972,-30.8754 68.972,-68.96866 0,-38.09652 -30.8787,-68.97525 -68.972,-68.97525 z"
   id="path18" /><path
   style="fill:none"
   d="m 1288.2767,724.09093 c 6.0855,152.1425 18.2534,235.3163 146.0536,279.94267 127.7969,129.8276 243.4261,428.027 192.7108,399.6266 -18.2535,10.1438 -58.8283,-46.6604 -144.0263,-192.714 -24.3422,-42.599 -42.5989,-58.8282 -60.8589,-28.4037 0,20.2841 24.3422,109.5435 28.4036,142.0053 4.0549,32.452 89.2562,304.2784 4.0549,277.9088 -28.4004,-18.26 -75.0575,-194.7415 -75.0575,-194.7415 l -64.9138,-32.4586 c 0,0 4.0548,154.1765 -4.0581,164.317 -30.4279,28.4004 -64.9139,10.1437 -81.1399,-36.5167 l 8.1163,-494.9683 c 0,0 -24.3423,-381.36666 10.1404,-417.88006 32.4619,-34.48599 40.5749,133.88249 40.5749,133.88249 z"
   id="path16" /><path
   style="fill:none"
   d="m 979.9138,632.78438 c -1.1223,-48.16781 -41.0718,-86.30054 -89.233,-85.17821 -48.1744,0 -87.2287,39.05428 -87.2287,87.22867 v 0 c 0,48.1744 39.0543,87.22537 87.2287,87.22537 0.6845,0.0165 1.3692,0.023 2.0505,0.023 48.1776,-0.01 87.2187,-39.07731 87.2089,-87.25171 0,-0.68129 -0.01,-1.36587 -0.026,-2.04716 z"
   id="path14" />
</svg>
