<?xml version="1.0" encoding="utf-8"?>
<!-- Generator: Adobe Illustrator 14.0.0, SVG Export Plug-In . SVG Version: 6.00 Build 43363)  -->
<!DOCTYPE svg PUBLIC "-//W3C//DTD SVG 1.1//EN" "http://www.w3.org/Graphics/SVG/1.1/DTD/svg11.dtd">
<svg version="1.1"
	 id="svg8" sodipodi:docname="cobi.svg" inkscape:version="0.92.4 (5da689c313, 2019-01-14)" xmlns:dc="http://purl.org/dc/elements/1.1/" xmlns:cc="http://creativecommons.org/ns#" xmlns:rdf="http://www.w3.org/1999/02/22-rdf-syntax-ns#" xmlns:svg="http://www.w3.org/2000/svg" xmlns:sodipodi="http://sodipodi.sourceforge.net/DTD/sodipodi-0.dtd" xmlns:inkscape="http://www.inkscape.org/namespaces/inkscape"
	 xmlns="http://www.w3.org/2000/svg" xmlns:xlink="http://www.w3.org/1999/xlink" x="0px" y="0px" width="2267.716px"
	 height="2267.717px" viewBox="3563.705 284.623 2267.716 2267.717" enable-background="new 3563.705 284.623 2267.716 2267.717"
	 xml:space="preserve">
<sodipodi:namedview  id="base" inkscape:window-height="962" inkscape:document-units="mm" inkscape:window-x="-8" inkscape:window-y="-8" inkscape:pageopacity="0.0" inkscape:pageshadow="2" inkscape:current-layer="layer1" inkscape:window-width="1280" inkscape:window-maximized="1" borderopacity="1.0" bordercolor="#666666" showgrid="false" pagecolor="#ffffff" inkscape:cy="1813.4777" inkscape:cx="6047.814" inkscape:zoom="0.083651786">
	</sodipodi:namedview>
<g id="layer1" transform="translate(0.25973876,150.5246)" inkscape:groupmode="layer" inkscape:label="Capa 1">
	<path id="path3713" inkscape:connector-curvature="0" fill="none" stroke="#000000" stroke-width="0.2646" d="M4074.387,1607.302
		c15.676-2.727,23.174-10.224,23.854-25.218c0.682-5.454,0.682-7.497-1.362-12.27c-1.364-3.407-2.727-6.134-4.09-6.815
		c-6.134-4.771-15.676-13.631-32.716-29.988c-19.766-20.448-33.397-35.443-40.895-47.711c-2.727-3.408-5.453-7.497-6.134-8.179
		c-0.682-1.363-0.682-1.363-5.453,0.682c-2.044,0.682-10.223,5.452-17.721,9.542c-31.353,17.721-51.8,25.218-64.75,23.854
		c-9.542-1.363-17.721-5.452-35.442-17.721c-19.765-13.631-27.944-17.039-39.531-17.039c-6.134,0-6.815,0-12.269,2.727
		c-3.408,1.363-10.223,6.134-15.676,10.224c-24.537,19.765-35.442,25.218-50.437,23.854c-10.905-0.682-18.402-4.09-34.76-17.721
		c-9.542-8.179-20.447-13.632-27.264-14.994c-2.726-0.682-5.453-1.363-6.815-1.363c-0.682,0-1.363-0.682-1.363-0.682
		c0-0.682,10.905-9.543,23.855-20.448c41.577-32.715,66.795-53.844,102.237-85.197c28.626-26.581,74.973-71.565,88.604-87.923
		c40.895-47.71,64.068-95.421,72.247-146.538c2.045-15.677,2.726-47.711,0.682-61.343c-4.771-24.536-13.631-47.71-25.9-67.475
		c-38.85-57.935-98.147-84.516-186.07-82.471c-32.034,0.682-57.252,5.453-87.242,16.357c-12.269,4.771-35.442,16.358-47.029,23.855
		c-28.626,19.084-51.118,42.939-65.431,69.521c-2.045,4.771-4.089,8.86-3.408,9.542c0.681,1.363,9.542,6.135,14.995,8.179
		c5.453,1.363,17.039,1.363,22.492,0c7.497-2.727,10.905-5.452,26.582-21.128c20.447-21.129,34.079-30.671,55.208-40.896
		c30.671-14.313,66.794-21.81,107.007-20.448c8.179,0,19.084,1.364,23.855,2.046c34.76,4.771,60.66,17.721,84.515,42.256
		c29.99,29.99,40.895,72.248,32.034,124.047c-5.452,32.035-20.447,64.75-44.983,97.466c-12.269,17.04-25.219,32.034-48.392,55.207
		c-23.855,23.174-35.442,34.079-64.75,59.297c-50.437,42.94-59.979,51.119-101.555,82.472
		c-44.302,34.078-68.838,53.844-86.56,72.247c-11.586,12.268-17.04,19.084-21.129,27.263c-7.498,15.676-7.498,32.034,0.682,47.711
		c6.134,12.268,15.676,19.766,29.989,23.854c6.134,2.045,7.498,2.045,56.57,2.727
		C3748.593,1609.347,4068.934,1608.666,4074.387,1607.302z M4460.84,961.168c21.128,10.224,47.71,26.582,66.794,42.258
		c12.95,10.224,34.761,31.353,45.666,43.621c44.984,53.844,71.565,115.868,79.744,186.071c1.363,16.357,1.363,52.48,0,68.838
		c-10.224,92.014-55.208,173.803-126.091,230.374c-65.431,51.799-143.813,77.698-228.328,73.609l0,0
		c-147.902-6.815-276.038-111.778-312.162-256.272c-19.084-78.381-10.224-160.171,25.899-232.417
		c8.179-17.04,12.269-24.537,22.492-39.531c49.074-72.248,124.729-123.366,209.244-141.769c23.174-4.771,45.666-7.497,68.84-7.497
		C4364.056,928.453,4413.812,939.357,4460.84,961.168z M4269.317,961.168c-56.571,8.179-107.689,32.034-151.992,68.158
		c-19.084,15.676-41.576,40.212-55.208,59.979c-30.671,42.939-49.074,92.694-55.208,146.539
		c-1.363,14.313-1.363,53.163,0.681,66.794c2.727,24.537,7.498,44.303,14.995,65.433c20.447,58.615,57.934,110.415,108.371,147.901
		c23.173,17.721,52.481,33.397,80.426,43.62c39.532,14.314,83.152,20.448,124.729,17.039
		c96.102-6.815,181.981-55.889,235.825-134.951c45.666-67.476,63.386-149.946,48.392-231.054
		c-8.179-45.666-28.627-91.331-56.571-128.818c-18.403-24.537-44.984-50.437-70.203-67.476
		c-39.531-28.626-86.56-47.029-134.27-53.845c-13.632-2.045-29.99-2.726-45.666-2.726S4282.267,959.124,4269.317,961.168z
		 M4347.698,1552.776c82.471-9.542,153.355-51.8,202.428-119.957c2.727-4.089,5.453-7.497,4.771-8.179
		c0-2.045-8.86-8.861-15.676-12.269c-8.861-4.09-14.313-5.453-25.218-5.453c-18.403-1.363-30.671,3.408-47.029,16.358
		c-24.537,21.129-31.352,24.536-50.437,25.218c-19.766,1.363-31.352-3.407-51.8-20.446c-18.402-16.358-27.263-20.448-44.984-21.13
		c-14.313-0.682-25.9,1.363-36.805,8.179c-2.726,2.045-10.224,7.498-15.676,12.27c-20.447,17.721-31.353,22.491-52.481,21.128
		c-17.04-0.682-27.263-4.771-44.984-20.446c-19.765-17.04-28.626-21.13-49.074-21.13c-12.95,0-17.721,0.682-27.263,5.453
		c-5.453,2.726-16.357,10.224-17.039,12.269c-0.682,1.363,7.497,12.95,17.039,24.536c9.542,12.269,29.99,32.716,42.939,42.258
		c38.168,30.671,81.79,50.437,130.181,58.615c9.542,2.045,14.994,2.727,34.079,4.09
		C4308.167,1554.821,4337.475,1554.139,4347.698,1552.776z M4438.348,1415.097c0-0.682-1.363-6.815-3.408-12.949
		c-2.045-6.815-6.135-22.492-9.542-35.441c-8.861-36.124-14.313-55.209-19.766-68.84c-2.045-5.453-2.727-8.86-2.727-12.269
		c0-10.904,6.135-14.994,12.951-8.179c6.815,6.815,23.855,32.033,38.168,56.571c14.313,25.218,18.402,29.307,22.492,24.536
		c1.363-1.363,1.363-2.727,1.363-5.452c0-17.04-19.084-63.387-36.805-89.968c-11.586-17.04-21.129-27.945-47.029-52.481
		c-12.268-11.586-15.676-15.676-20.447-27.944c-6.134-14.996-8.86-28.628-9.542-44.985c-0.681-12.949,0-23.173,4.089-43.62
		c2.727-15.677,2.727-17.04,0-17.721c-4.089-1.363-12.949,9.541-17.039,21.128c-4.771,12.951-6.134,23.175-6.816,41.576
		c-0.682,19.084,0.682,34.762,4.771,54.526c2.726,15.676,2.726,25.9-0.682,37.486c-3.408,11.587-3.408,16.358,0,27.944
		c6.135,21.812,6.816,32.035,2.045,53.163c-5.453,25.9-5.453,30.672-6.134,51.8l-0.682,19.085l4.771,2.727
		c2.727,2.044,9.542,6.815,14.995,12.268c6.134,4.771,10.905,8.179,11.586,8.179s1.363-1.363,0.682-8.86
		c0-5.452,0-13.631,0.681-19.083c0.682-10.905,2.727-15.678,4.772-15.678c4.089,0,12.268,14.314,23.173,40.214
		c3.409,8.179,6.816,15.676,6.816,16.357C4413.13,1421.231,4436.985,1417.824,4438.348,1415.097z M4215.473,1400.103
		c12.95-42.258,23.174-64.75,28.626-64.75c5.453,0,10.224,19.084,14.313,55.89c0.682,6.815,1.363,11.587,2.045,12.269
		c0,0,4.771-2.727,9.542-6.816c4.771-4.089,11.586-8.86,14.313-10.904c2.727-2.045,5.453-3.408,5.453-4.09
		c0.682-0.682-0.682-15.676-2.045-32.716c-4.089-42.258-4.771-54.526-4.771-80.427c0-53.844,7.498-91.33,25.219-136.314
		c7.497-19.084,14.313-33.397,33.397-72.247c16.358-33.398,19.766-40.213,19.766-45.666c0-3.408-0.682-4.09-2.726-4.771
		c-4.771-1.363-11.587,5.452-23.855,22.492c-2.726,4.089-9.542,14.313-15.676,23.173c-12.95,18.403-30.671,42.257-40.212,54.526
		c-17.721,20.447-25.901,28.626-47.029,47.71c-16.358,14.313-29.99,29.308-45.666,51.118c-8.179,10.224-17.04,25.9-26.582,44.302
		c-23.855,48.392-33.397,80.427-22.492,80.427c3.408,0,8.179-6.135,15.676-19.085c33.397-55.888,51.8-83.152,58.616-83.152
		c4.089,0,4.771,8.18,1.363,22.492c-8.179,35.442-19.084,82.471-26.582,112.461c-4.771,19.766-8.86,36.805-8.86,37.486
		c0,3.407,12.268,10.904,22.492,14.313C4209.339,1420.551,4208.657,1421.231,4215.473,1400.103z M4427.443,1190.859
		c11.587-10.904,8.179-30.67-6.816-37.486c-5.452-2.727-14.994-2.727-19.766,0c-10.223,4.771-15.676,17.038-12.95,27.262
		c2.045,7.497,8.86,14.313,16.357,16.357C4412.448,1199.039,4421.309,1196.993,4427.443,1190.859z M4248.188,1124.065
		c6.134-2.727,9.542-5.452,12.269-10.224c10.224-15.676,4.771-36.123-11.587-44.303c-4.089-1.363-5.453-2.043-12.95-2.043
		c-8.179,0-8.179,0.68-12.95,2.727c-6.134,3.407-10.905,8.178-13.631,14.312c-2.045,4.09-2.045,5.453-2.045,12.269
		s0,8.179,2.045,12.269c4.089,8.179,10.223,13.631,19.084,16.358C4233.194,1126.792,4242.736,1126.11,4248.188,1124.065z
		 M5792.64,1422.595c15.676,5.453,26.581,17.039,32.033,33.396c2.045,5.453,2.045,7.497,2.045,16.357c0,9.543,0,11.588-1.363,17.041
		c-4.771,15.676-14.313,26.581-27.943,32.715c-3.408,1.364-7.498,2.726-9.543,3.408c-5.453,1.363-17.039,2.045-21.811,0.682
		c-17.039-2.726-30.67-12.95-38.168-28.627c-2.045-4.089-4.09-8.86-4.771-11.586c-1.363-6.134-1.363-20.448,0.682-26.582
		c4.771-19.084,19.767-34.078,37.487-38.169c3.408-0.68,7.497-1.361,11.587-1.361
		C5780.372,1419.87,5787.868,1420.551,5792.64,1422.595z M5763.332,1446.45c-5.453,2.727-10.905,8.18-13.632,14.313
		c-2.045,6.134-2.045,18.403,0,24.537c3.408,8.179,10.224,14.313,17.721,16.357c4.771,1.363,12.951,0.682,17.721-1.363l0,0
		c5.453-2.044,10.906-8.179,13.632-13.631c2.045-4.771,2.045-5.453,2.045-13.633c0-8.179,0-8.86-2.045-13.631
		c-2.726-5.452-8.179-10.905-13.632-13.631c-2.727-1.363-6.815-2.045-10.905-2.045
		C5770.147,1443.724,5766.058,1444.406,5763.332,1446.45z M5341.437,1526.195c14.313-0.682,18.402-1.364,25.218-6.135
		c9.543-6.134,13.632-15.676,13.632-27.263c0-5.452,0-6.815-2.044-11.587c-4.772-9.541-13.633-14.995-32.035-20.447
		c-14.994-4.771-17.039-6.134-17.039-11.587c0-4.771,3.408-6.815,11.587-6.815c6.134,0,12.95,2.045,19.084,5.452
		c2.044,0.682,4.771,2.045,4.771,2.045c1.363,0,13.633-17.721,12.95-19.766c0-1.362-10.224-6.815-17.039-8.18
		c-7.498-2.043-27.944-2.726-34.76-0.682c-11.588,2.046-20.448,9.543-23.855,18.403c-1.363,3.408-1.363,6.135-1.363,11.587
		c0,8.86,1.363,13.631,7.497,19.085c5.452,4.77,12.268,8.179,26.582,12.949c12.949,4.771,16.357,6.815,16.357,11.587
		c0,6.134-3.408,8.86-10.905,8.86c-6.815,0-12.949-2.045-21.13-6.135c-3.407-1.362-6.815-2.726-6.815-2.726
		c-1.362,0-12.949,16.357-12.949,18.402s12.949,8.86,22.492,10.906c3.408,0.68,6.816,2.044,6.816,2.044
		C5329.168,1526.195,5334.621,1526.195,5341.437,1526.195z M4676.9,1422.595c1.363,2.045,38.85,100.874,38.168,101.556
		c-0.682,0.68-6.815,0.68-13.632,0.68l-12.269-0.68l-3.407-8.18c-1.364-4.771-3.409-8.86-4.09-9.543
		c0-0.681-8.86-0.681-19.084-0.681l-18.403,0.681l-1.364,2.045c0,0.682-2.044,4.771-3.407,8.86l-2.727,6.817l-12.268,0.68
		c-7.497,0-12.95,0-13.631-0.68c0-0.682,37.486-99.511,38.85-101.556c0-0.683,4.089-1.364,13.632-1.364
		C4672.129,1421.231,4676.218,1421.913,4676.9,1422.595z M4651,1485.3c0,0.682,2.726,0.682,12.269,0.682
		c8.86,0,12.268,0,11.586-0.682c0-2.727-10.905-34.079-11.586-34.079S4651,1482.574,4651,1485.3z M4758.008,1524.831l11.586-0.68
		v-27.945c0-15.676,0.683-28.627,0.683-29.309c0.681-0.682,10.904,11.588,24.536,27.945c12.269,14.994,23.174,28.627,23.855,29.309
		c1.363,0.68,4.089,0.68,10.224,0.68l8.859-0.68v-51.12v-51.118h-11.586h-11.587l-0.682,27.945c0,25.218,0,28.627-1.362,27.945
		c-0.682,0-11.588-12.27-24.537-27.945l-23.174-27.945h-9.543h-9.542v50.437c0,27.945,0,51.12,0,51.802
		C4745.738,1524.831,4749.146,1524.831,4758.008,1524.831z M4892.959,1524.831l11.587-0.68v-51.12v-51.118h-12.269h-11.586v50.437
		c-0.682,27.945,0,51.12,0,51.802C4880.691,1524.831,4884.099,1524.831,4892.959,1524.831z M4987.698,1524.831
		c9.542,0,12.269,0,12.949-1.361c1.363-1.364,38.851-100.192,38.851-100.874c-0.682-0.683-4.089-1.364-12.949-1.364
		c-11.587,0-12.269,0-13.632,2.046c0,0.682-6.135,17.721-12.95,36.805c-6.816,19.767-12.269,35.442-12.95,35.442
		c0,0-6.134-16.357-12.949-36.124c-6.815-19.766-12.27-36.123-12.951-36.805c-0.682-0.683-4.088-1.364-12.949-1.364
		c-9.542,0-12.269,0.682-12.269,1.364c-0.682,1.363,36.806,100.874,38.169,101.556
		C4974.749,1524.831,4980.883,1524.831,4987.698,1524.831z M5106.974,1524.831l36.806-0.68v-10.225v-10.905h-24.536l-24.537-0.682
		v-9.542l0.681-10.224l20.448-0.682h20.447v-8.861c0-5.452,0-8.86-0.682-9.542c-0.682-0.681-4.771-1.362-21.13-1.362h-19.765v-8.86
		v-9.542l24.537-0.682h24.536v-10.905v-10.225h-36.806h-36.804l-0.682,50.437c0,27.945,0,51.12,0.682,51.802
		C5070.17,1524.831,5078.349,1524.831,5106.974,1524.831z M5207.847,1421.913c28.627,0,30.672,0,39.532,4.091
		c15.676,7.497,23.173,27.263,16.357,44.303c-2.045,4.77-6.815,10.904-11.587,13.631c-2.726,2.045-4.089,3.408-4.089,4.09
		c0,0.681,4.771,8.86,10.905,17.721c7.498,10.904,10.904,17.04,10.904,17.722c-0.682,1.361-2.725,1.361-14.313,1.361h-13.632
		l-4.771-8.179c-3.407-4.771-8.179-12.268-10.905-17.039l-5.452-8.179l-6.816-0.682c-4.09,0-7.497,0-7.497,0
		c0,0.682,0,8.179-0.682,17.039v16.359l-11.587,0.68c-8.86,0-12.269,0-12.269-0.68l0,0c0-0.682-0.681-23.856,0-51.802v-50.437
		H5207.847z M5206.484,1445.087c0,0.682-0.682,5.452-0.682,11.586c0,5.453,0.682,10.905,0.682,11.587
		c0.682,1.364,2.045,1.364,11.586,1.364c6.134,0,12.27-0.683,13.633-1.364c6.134-2.045,9.542-7.497,8.86-13.631
		c-0.682-4.771-2.727-7.498-6.815-9.542c-3.408-1.363-4.771-1.363-14.995-1.363S5207.166,1443.724,5206.484,1445.087z
		 M5468.891,1422.595c2.045,1.363,38.85,100.874,38.85,101.556c-0.681,0.68-23.854,0.68-25.218,0
		c-0.682-0.682-2.726-4.091-4.09-8.861c-1.363-4.771-3.408-8.179-3.408-8.861c-0.682,0-9.542-0.681-19.766-0.681
		c-21.128,0-19.084-0.682-22.491,10.224c-1.364,4.089-2.728,7.498-2.728,8.18c-0.68,0.68-4.77,0.68-13.631,0.68
		c-8.86,0-12.268,0-12.95-0.68c0-1.363,36.806-99.511,38.851-101.556c0-0.683,4.09-1.364,12.949-1.364
		C5464.802,1421.231,5468.891,1421.913,5468.891,1422.595z M5443.673,1485.3c0.682,0.682,6.134,0.682,12.268,0.682
		c10.905,0,11.587,0,11.587-1.363l0,0c0-2.045-10.905-33.397-11.587-33.397C5454.578,1451.221,5442.991,1484.619,5443.673,1485.3z
		 M5603.843,1426.003c13.631,6.815,21.129,21.128,18.402,35.441c-1.363,10.225-6.134,17.722-13.631,22.492
		c-2.727,2.045-4.09,3.408-4.09,4.09c0,0.681,4.771,8.86,10.905,17.721c7.497,10.904,10.905,17.04,10.905,17.722
		c-0.682,1.361-2.727,1.361-13.632,1.361c-8.86,0-12.949,0-14.313-0.68c-0.682-0.682-4.771-7.499-9.542-14.996
		c-12.949-19.765-10.906-18.402-19.085-18.402c-3.408,0-6.815,0-6.815,0c0,0.682,0,8.179-0.682,17.039v16.359l-11.587,0.68
		c-8.859,0-12.268,0-12.268-0.68c0-0.682-0.682-23.856,0-51.802v-50.437h23.854c3.408,0,6.134-0.682,8.86-0.682
		C5590.212,1421.913,5596.346,1422.595,5603.843,1426.003z M5562.948,1445.087c-0.682,1.362-0.682,21.81,0,23.173
		c0.682,1.364,2.044,1.364,12.268,1.364c10.225-0.683,12.27-0.683,14.996-2.046c4.771-2.045,7.497-7.497,6.815-12.269
		c-0.682-4.771-2.727-7.497-6.815-10.223c-3.408-1.363-4.771-1.363-14.996-1.363
		C5564.992,1443.724,5563.63,1443.724,5562.948,1445.087z M5673.363,1524.831c7.497,0,11.587,0,12.269-0.68
		c0.682-0.682,0.682-13.633,0.682-51.12c0-37.485,0-49.754-0.682-50.436c-0.682-0.683-4.771-1.364-12.269-1.364
		c-6.815,0-10.905,0.682-11.587,1.364c-0.682,0.682-0.682,12.95-0.682,50.436c0,37.487,0,50.438,0.682,51.12
		C5662.458,1524.831,5666.548,1524.831,5673.363,1524.831z M4925.675,1361.935c15.677-7.498,34.078-21.129,33.396-24.537
		c-0.68-2.045-44.982-61.342-46.346-61.342c0,0-1.363,0.682-2.045,2.045c-2.046,2.045-12.27,8.86-18.403,11.587
		c-25.899,12.949-57.934,14.313-83.833,3.407c-31.353-13.631-50.437-44.303-52.482-83.833c-2.043-34.76,10.906-66.113,33.397-84.515
		c16.357-12.95,34.079-19.084,56.571-19.084c16.358,0,28.626,2.727,43.62,9.542c6.816,2.727,17.722,3.409,23.856,1.363
		c13.631-4.09,25.899-14.994,37.485-32.715c4.771-6.816,8.179-13.631,8.179-14.994c0-2.046-7.497-8.861-16.357-14.314
		c-19.083-12.951-44.303-21.81-72.246-25.218c-13.633-2.045-47.711-1.363-59.979,0.682c-55.891,10.224-96.784,40.214-119.958,89.287
		c-12.95,25.898-18.402,51.117-19.084,83.151c0,25.219,2.726,42.258,10.224,64.068c21.811,65.432,77.7,107.69,148.584,112.46
		C4865.016,1381.019,4898.411,1374.885,4925.675,1361.935z M5168.315,1029.326c70.203,8.86,125.411,57.253,143.131,126.773
		c4.09,17.039,5.453,25.9,5.453,47.029c0,13.631-0.682,20.447-1.363,27.264c-6.134,38.849-21.81,70.883-47.029,97.465
		c-29.988,30.671-68.157,48.393-112.459,51.118c-12.95,0.682-12.95,0.682-25.899,0c-36.124-2.726-70.202-16.358-97.466-39.531
		c-33.397-27.945-55.207-70.885-59.979-117.232c-1.363-12.949-0.682-38.167,1.363-50.437c6.815-36.804,21.81-67.475,45.665-92.693
		c24.537-25.901,54.526-41.577,92.013-49.074c7.498-1.363,21.811-2.045,35.442-2.045
		C5155.366,1027.962,5162.864,1028.644,5168.315,1029.326z M5091.298,1124.065c-16.357,12.269-27.945,32.034-33.397,55.207
		c-2.045,9.543-2.045,31.353-0.682,42.258c6.134,40.895,33.397,70.203,70.885,77.018c8.86,2.045,27.944,1.363,36.806-0.682
		c29.307-7.497,51.798-27.944,62.022-57.935c6.816-20.447,7.497-47.028,1.363-68.838c-2.728-10.224-10.225-24.538-16.358-32.716
		c-17.721-21.811-43.621-32.716-69.521-32.035C5124.695,1106.344,5106.974,1112.478,5091.298,1124.065z M5453.896,1034.779
		c92.014,0,96.103,0.681,113.823,4.089c25.901,5.452,45.666,17.721,57.935,34.079c7.498,9.542,12.268,22.492,14.995,35.442
		c1.363,9.542,1.363,28.626-0.682,36.124c-5.452,19.084-17.722,36.806-32.716,47.028c-6.815,4.771-6.815,6.815,1.363,10.224
		c15.676,6.135,28.625,19.084,35.442,35.442c5.452,11.586,6.134,16.357,6.134,34.079c0,14.313,0,17.721-1.363,23.854
		c-4.09,17.039-10.906,29.99-21.812,41.576c-8.179,8.179-14.313,13.632-24.536,18.402c-10.223,5.453-17.721,8.179-29.308,10.906
		c-19.766,4.77-21.811,5.451-89.968,5.451c-34.079,0-64.068,0-66.795-0.682l0,0c-21.129-3.406-38.167-18.402-44.984-39.53
		c-4.089-12.95-4.089-10.224-4.089-158.126v-138.359H5453.896z M5449.125,1137.696c0,29.308,0,32.035,1.363,32.715
		c0.682,0.683,8.86,1.363,38.851,0.683c35.44,0,38.168,0,42.938-2.045c13.633-4.09,21.812-14.996,22.493-27.945
		c1.363-14.994-5.452-26.582-17.721-32.715l-5.452-2.727h-41.577h-40.895V1137.696z M5450.488,1232.435
		c-1.363,0.683-1.363,1.363-1.363,34.079c0,30.671,0,33.398,1.363,34.08c0.682,0.681,14.313,0.681,42.258,0.681
		c38.851,0,40.894,0,45.666-2.044c6.815-2.045,10.905-4.771,15.676-9.542c9.542-10.224,11.587-25.218,5.453-38.169
		c-4.771-8.86-11.587-14.313-21.129-17.721c-4.772-2.044-5.452-2.044-45.666-2.044c-6.815,0-12.949,0-18.403,0
		C5458.667,1231.754,5451.17,1231.754,5450.488,1232.435z M5784.46,1370.794c0.682,0,1.363-28.625,1.363-140.403
		c0-154.719,0-145.176-5.451-156.763c-5.454-10.906-19.085-22.492-34.761-28.627c-10.905-4.771-25.9-8.179-36.806-9.542
		l-4.771-0.681l0.683,149.265v149.266l2.044,4.771c6.815,12.95,22.492,23.173,45.666,28.627c8.179,2.043,21.128,4.088,27.945,4.77"
		/>
</g>
</svg>
