<?xml version="1.0" encoding="UTF-8" standalone="no"?>
<svg
   xmlns:dc="http://purl.org/dc/elements/1.1/"
   xmlns:cc="http://creativecommons.org/ns#"
   xmlns:rdf="http://www.w3.org/1999/02/22-rdf-syntax-ns#"
   xmlns:svg="http://www.w3.org/2000/svg"
   xmlns="http://www.w3.org/2000/svg"
   version="1.1"
   id="svg8"
   x="0px"
   y="0px"
   viewBox="0 0 2267.7175 2267.7185"
   xml:space="preserve"><metadata
   id="metadata8"><rdf:RDF><cc:Work
       rdf:about=""><dc:format>image/svg+xml</dc:format><dc:type
         rdf:resource="http://purl.org/dc/dcmitype/StillImage" /><dc:title></dc:title></cc:Work></rdf:RDF></metadata><defs
   id="defs6">
</defs>

<path
   id="path228"
   style="fill:none"
   d="m 1077.0247,342.75838 c -20.3373,2.03007 -22.3745,61.0045 -30.5058,124.03906 -10.1687,61.00448 -46.7724,124.03826 -65.0723,142.34179 -18.2999,20.33726 -20.3375,-12.20169 -14.2363,-24.40039 4.0674,-12.20236 2.0342,-101.67275 -38.6367,-150.47851 -38.6335,-50.83586 -111.8369,-58.96928 -138.2754,-56.93555 -26.4348,0 -30.4986,12.20114 -14.2324,26.4336 14.2324,14.23243 63.0355,93.54476 69.1367,130.14453 8.1312,36.60706 4.0665,87.43528 -4.0684,89.47265 -8.1313,4.06381 -46.7669,-83.37134 -56.9355,-97.60742 -10.165,-14.23244 -10.1657,-18.30322 -48.8028,-44.73437 -40.6709,-24.40107 -101.6728,-30.50302 -128.1113,-12.20313 -24.4011,18.29988 42.7018,67.10323 63.0391,97.60547 18.2998,30.50224 52.8698,105.74258 28.4687,111.84375 -24.4011,6.09754 -48.805,-85.41016 -148.4394,-85.41016 -101.6753,0 -122.0134,83.37251 -130.1446,99.63868 -6.1012,16.2698 2.0334,22.37031 44.7344,10.16796 42.7046,-12.20235 61.0042,-6.10078 89.4727,6.10157 30.5059,12.20236 36.6039,36.60399 28.4726,48.80269 -6.1012,12.2023 -61.0082,-24.4017 -132.1777,-4.0644 -69.1357,20.3336 -95.5707,89.469 -101.6719,117.9375 -4.0675,28.4685 14.2332,26.4357 26.4356,18.3008 12.2024,-10.165 73.207,-30.5031 95.5742,-32.5332 20.3337,-2.0374 46.7682,4.0648 44.7344,24.3984 -2.0336,22.3673 -61.0007,8.1303 -117.9414,40.6699 -56.937,34.566 -67.1055,91.5005 -67.1055,119.9727 0,28.4684 26.435,10.1671 28.4687,6.0996 4.0711,-6.1011 42.7029,-24.4009 58.9727,-30.502 16.2662,-8.1348 67.1035,-18.2993 67.1035,6.1016 2.0373,26.4312 -14.2323,18.2995 -81.3379,52.8691 -67.102,32.536 -75.2368,103.7095 -73.2031,130.1407 4.0712,26.4384 38.6371,-2.0298 58.9707,-14.2285 18.3035,-12.2026 48.805,-22.3711 69.1387,-22.3711 20.3336,-2.0337 18.3043,12.1989 12.2031,20.3339 -4.0674,8.1312 -99.6382,22.3625 -101.6719,164.7051 -2.0337,142.3462 115.9036,185.0485 185.043,195.2207 69.1357,12.1988 119.9707,-44.7383 119.9707,-44.7383 h 22.3711 c 0,0 22.3678,30.501 71.1699,79.3067 48.8022,50.8322 75.2405,71.1703 132.1738,91.5039 56.9407,22.371 174.8793,16.2653 180.9805,12.2051 6.1012,-4.0711 24.4039,-24.401 32.5352,-67.1055 8.1312,-40.6709 30.5031,-83.3718 40.6718,-95.5742 10.165,-10.1649 32.5313,-12.201 54.8985,-20.336 20.3337,-8.1312 42.7059,-10.1683 61.0058,-30.5019 16.2698,-22.3674 16.2695,-46.7701 8.1309,-95.5723 -8.1312,-50.8358 -34.5667,-52.8718 -54.9004,-56.9355 -22.3709,-2.0338 -30.5064,8.1371 -42.7051,12.1972 -10.1687,2.0338 -24.4004,4.0675 -24.4004,0 0,-4.0638 10.1694,-24.4006 40.668,-38.6367 28.4686,-14.2288 36.5992,-22.3676 46.7715,-42.7011 10.1649,-20.3338 -12.1989,-52.8728 -14.2363,-67.1016 -2.0337,-14.2324 24.4007,-36.6026 30.5019,-54.9024 6.1012,-20.3373 3e-4,-22.3688 -44.7344,-75.2421 -46.772,-52.8697 -152.5101,-126.0754 -172.8437,-136.2403 -18.2999,-12.2024 -42.7013,-28.4694 -71.1699,-48.8066 -28.4721,-20.33 -77.2701,-87.4356 -185.043,-42.6973 -115.9077,50.8358 -144.3808,109.8031 -166.7481,174.875 -22.3674,67.1057 12.2018,170.8151 10.168,174.8789 -2.0337,4.0674 -12.2012,2.0371 -12.2012,2.0371 0,0 -6.1009,6.1016 -22.3671,-30.5019 -16.2698,-34.5733 -18.3004,-101.6753 -12.1993,-140.3125 8.1314,-40.6672 34.5664,-93.5376 93.5371,-144.377 61.0081,-52.866 111.8392,-75.2328 180.9786,-81.334 71.1695,-6.0975 134.2089,48.8067 134.2089,48.8067 0,0 16.2655,-2.0383 32.5352,-4.0684 14.2324,-4.071 65.0675,-71.1774 97.6035,-160.65037 32.5396,-87.43563 18.3038,-154.53654 14.2363,-201.30859 -6.0976,-44.73833 -40.6667,-124.03906 -58.9668,-124.03906 z M 930.0931,1045.9576 c 13.1883,0.1008 23.142,2.66 24.9199,4.4394 2.0337,0 -2.0353,12.1982 -8.1328,26.4415 -8.1349,12.1987 -20.3328,24.3973 -32.5351,36.5996 -26.4348,26.4312 -65.0725,30.5015 -71.17,24.4004 -8.1385,-8.1349 2.0315,-46.7723 30.5,-73.2071 17.1576,-14.8716 39.4616,-18.8034 56.418,-18.6738 z m 220.1348,94.9297 c 4.067,-9e-4 7.1172,2.0313 10.166,5.0801 l -8.1348,26.4414 c -4.0639,2.0337 -18.3015,14.2325 -30.5039,6.0976 -10.165,-10.165 -4.0631,-22.3634 12.2031,-30.5019 7.118,-5.0825 12.2026,-7.1163 16.2696,-7.1172 z m -632.4121,153.5312 c 48.8058,0 103.709,38.6291 103.7089,83.3711 0,44.731 -28.4726,73.1989 -71.1699,69.1387 -44.7419,-4.0674 -103.7079,-24.4049 -99.6406,-87.4395 4.0675,-61.0081 67.1016,-65.0703 67.1016,-65.0703 z" /><path
   id="path248"
   style="fill:none"
   d="m 1502.4544,401.66853 c -24.1677,0.13349 -47.5295,3.74602 -59.414,10.22852 -22.3674,14.22879 -28.4675,34.5621 -32.5313,44.73437 -6.1011,10.16499 -22.3676,16.26718 -28.4687,24.39844 -6.0975,8.13125 -24.4021,24.40177 -26.4395,85.40625 -4.0638,58.97077 46.7735,87.4375 46.7735,87.4375 0,0 16.2622,-32.53437 22.3671,-34.56445 6.1011,-2.03009 97.6038,40.66549 111.8399,42.69922 16.2661,0 63.039,-8.13035 77.2715,-10.16407 16.2661,-2.03373 79.3066,-22.36652 93.539,-32.53515 12.2024,-10.16863 24.4025,-24.40089 30.5,-36.59961 6.1011,-14.23243 4.0674,-38.63749 0,-50.83985 -4.0638,-14.23608 -63.036,-65.07224 -81.3359,-79.30468 -18.2999,-14.22878 -65.072,-32.53281 -95.5742,-42.70508 -15.2513,-5.71815 -37.2029,-8.30919 -58.5274,-8.19141 z m 7.6914,69.19336 c 14.2361,0 26.4356,10.16848 26.4356,22.36719 0,12.20235 -12.2032,22.37109 -26.4356,22.37109 -14.2324,0 -26.4335,-10.16874 -26.4335,-22.37109 0,-12.19871 12.2011,-22.36719 26.4335,-22.36719 z" /><path
   style="fill:none"
   d="m 2606.1863,1536.3948 c -18.3036,0 -34.5697,-4.0639 -48.8021,-12.2024 -14.2361,-8.1276 -24.4047,-18.2999 -32.536,-30.5022 -8.1349,-12.2024 -12.2024,-30.4986 -12.2024,-46.7648 0,-16.2734 4.0675,-32.536 12.2024,-46.7757 8.1349,-14.2361 18.3035,-24.401 32.536,-32.536 14.2361,-8.1276 30.5022,-10.1649 48.8021,-10.1649 14.236,0 28.4685,2.0337 40.6672,8.1349 12.2024,4.0675 22.371,12.2023 30.5023,22.3673 l -26.4312,24.4011 c -10.1686,-14.2325 -26.4384,-20.3373 -42.701,-20.3373 -10.1722,0 -20.3409,2.0373 -28.4721,6.1048 -8.1312,4.0639 -16.2661,12.1988 -20.3336,20.3336 -4.0675,8.1386 -6.1012,18.3036 -6.1012,28.4722 0,10.165 2.0337,20.3372 6.1012,28.4649 4.0675,8.1349 12.2024,14.2361 20.3336,20.3336 8.1349,4.0674 18.3036,6.1048 28.4721,6.1048 16.2626,0 32.5324,-6.1048 42.701,-20.3372 l 26.4312,24.401 c -8.1313,10.1723 -18.2999,16.2662 -30.5023,22.371 -12.1987,6.0939 -26.4312,8.1313 -40.6672,8.1313 z"
   id="path432" /><path
   id="path430"
   style="fill:none"
   d="m 2813.597,1357.4478 c -16.2699,0 -32.5349,4.0649 -48.8047,10.166 -14.2324,8.135 -24.3986,20.3365 -32.5371,32.5352 -8.1312,14.2397 -12.1992,30.5039 -12.1992,46.7773 0,16.2662 4.068,30.4983 12.1992,44.7344 8.1349,14.2287 18.3047,24.4001 32.5371,32.5313 16.2735,8.1385 32.5348,12.2031 48.8047,12.2031 18.2998,0 34.5707,-4.0646 48.8067,-12.2031 14.2325,-8.1276 26.4334,-18.2989 34.5683,-32.5313 8.1312,-12.206 12.1992,-28.4719 12.1992,-44.7344 0,-16.2734 -4.068,-32.5376 -12.1992,-46.7773 -8.1349,-12.1987 -20.3358,-24.3966 -34.5683,-32.5352 -14.2324,-6.1011 -30.5032,-10.166 -48.8067,-10.166 z m 0,34.5664 c 10.1686,0 20.3379,2.038 28.4727,6.1055 8.1349,4.0639 14.2329,12.1992 20.334,20.334 4.0675,8.1349 6.0976,18.3003 6.0976,28.4726 0,10.1614 -2.0301,20.3336 -6.0976,28.4649 -6.1011,8.1349 -12.1991,14.2345 -20.334,20.332 -8.1348,4.0674 -18.3041,6.1055 -28.4727,6.1055 -10.1687,0 -18.3006,-2.0381 -26.4355,-6.1055 -8.135,-6.0975 -16.2685,-12.1971 -20.336,-20.332 -4.0674,-8.1277 -6.1015,-18.2999 -6.1015,-28.4649 0,-10.1686 2.0341,-20.334 6.1015,-28.4726 4.0675,-8.1385 12.1974,-16.2701 20.336,-20.334 8.1312,-4.0675 16.2668,-6.1055 26.4355,-6.1055 z" /><path
   style="fill:none"
   d="m 3165.3916,1532.3309 h -38.6408 v -103.709 l -50.8358,85.4092 h -18.2999 l -50.8395,-83.3755 v 101.6753 h -36.5998 v -172.8448 h 32.536 l 65.0719,107.7729 63.0383,-107.7729 h 34.5696 z"
   id="path426" /><path
   style="fill:none"
   d="m 3236.5611,1532.3309 v -172.8448 h 40.6667 v 172.8448 z"
   id="path424" /><path
   style="fill:none"
   d="m 3403.3048,1536.3948 c -12.202,0 -26.435,-2.0337 -38.641,-6.0939 -12.202,-4.0639 -22.371,-8.1349 -30.502,-14.2288 l 12.199,-30.5023 c 8.131,6.1012 16.266,10.1614 26.434,14.2288 12.203,2.0338 22.364,4.0711 32.536,4.0711 10.169,0 18.304,-2.0337 24.401,-4.0711 6.102,-2.03 8.135,-8.1276 8.135,-14.2288 0,-4.071 -2.033,-8.1348 -4.063,-10.1722 -2.034,-2.0301 -8.135,-6.1012 -12.203,-6.1012 -6.101,-2.0301 -12.202,-4.0638 -20.337,-6.0975 -14.233,-4.0675 -24.401,-6.1048 -32.532,-10.1687 -10.169,-2.0337 -16.27,-8.1312 -22.371,-14.2288 -6.098,-6.1048 -8.132,-16.2734 -8.132,-28.4757 0,-10.1687 2.034,-18.3036 8.132,-26.4275 6.101,-8.1386 12.202,-14.2397 24.401,-20.3409 10.168,-4.0639 24.397,-6.1012 38.637,-6.1012 12.199,0 22.367,0 32.536,4.0637 12.202,2.0375 20.333,6.1012 28.468,10.1723 l -12.202,30.4987 c -16.266,-8.135 -32.536,-12.1987 -48.802,-12.1987 -10.165,0 -18.3,0 -24.401,4.0637 -6.101,4.0675 -8.132,8.1313 -8.132,14.2361 0,6.1011 4.068,10.165 10.169,14.2288 6.101,2.0337 14.233,6.0976 28.469,8.1313 12.198,4.0675 22.367,6.1048 32.536,10.1686 8.134,2.0337 14.232,8.1386 20.333,14.2361 6.101,6.1012 10.169,16.2661 10.169,28.4685 0,8.1385 -4.068,18.3035 -8.135,26.4384 -6.098,8.1313 -14.233,14.2324 -26.435,18.2999 -10.161,6.0939 -24.401,8.1313 -40.667,8.1313 z"
   id="path422" /><path
   style="fill:none"
   d="m 3535.4788,1532.3309 v -172.8448 h 40.667 v 172.8448 z"
   id="path420" /><path
   id="path418"
   style="fill:none"
   d="m 3730.6908,1357.4478 c -18.3,0 -34.5668,4.0649 -48.8028,10.166 -14.236,8.135 -26.4333,20.3365 -34.5683,32.5352 -8.131,14.2397 -12.1992,30.5039 -12.1992,46.7773 0,16.2662 4.0682,30.4983 12.1992,44.7344 8.135,14.2287 20.3353,24.4001 34.5683,32.5313 14.232,8.1385 30.5028,12.2031 48.8028,12.2031 18.304,0 34.5706,-4.0646 48.8066,-12.2031 14.232,-8.1276 24.4004,-18.2989 34.5684,-32.5313 8.132,-12.206 12.1992,-28.4719 12.1992,-44.7344 0,-16.2734 -4.0672,-32.5376 -12.1992,-46.7773 -10.168,-12.1987 -20.3364,-24.3966 -34.5684,-32.5352 -14.233,-6.1011 -30.5026,-10.166 -48.8066,-10.166 z m 0,34.5664 c 10.169,0 20.3376,2.038 28.4726,6.1055 8.131,4.0639 14.2318,12.1992 18.2989,20.334 6.101,8.1349 8.1308,18.3003 8.1308,28.4726 0,10.1614 -2.0329,20.3336 -8.1308,28.4649 -4.0671,8.1349 -10.1679,14.2345 -18.2989,20.332 -8.135,4.0674 -18.3036,6.1055 -28.4726,6.1055 -10.165,0 -20.3338,-2.0381 -28.4688,-6.1055 -8.134,-6.0975 -12.2018,-12.1971 -18.2988,-20.332 -6.102,-8.1277 -8.1348,-18.2999 -8.1348,-28.4649 0,-10.1686 4.0638,-20.334 8.1348,-28.4726 4.067,-8.1348 10.1648,-16.2701 18.2988,-20.334 8.132,-4.0675 18.2998,-6.1055 28.4688,-6.1055 z" /><path
   style="fill:none"
   d="m 3708.3238,1345.2501 32.532,-34.5661 h 42.705 l -44.735,34.5661 z"
   id="path414" /><path
   style="fill:none"
   d="m 4005.2078,1359.4861 h 40.67 v 172.8448 h -34.569 l -85.406,-103.709 v 103.709 h -40.667 v -172.8448 h 34.566 l 85.406,105.7392 z"
   id="path412" /><path
   style="fill:none"
   d="m 4334.6308,1359.4861 h 40.667 v 172.8448 h -32.536 l -87.435,-103.709 v 103.709 h -38.641 v -172.8448 h 32.536 l 85.409,105.7392 z"
   id="path410" /><path
   id="path408"
   style="fill:none"
   d="m 4501.3744,1359.4869 -77.2754,172.8437 h 40.6718 l 16.2696,-36.6074 h 79.3047 l 16.2695,36.6074 h 40.668 l -77.2715,-172.8437 z m 18.3027,40.666 28.4726,65.0723 h -54.9062 z" /><path
   style="fill:none"
   d="m 4747.4228,1536.3948 c -18.3,0 -34.57,-4.0639 -48.802,-12.2024 -14.233,-8.1276 -26.435,-18.2999 -34.57,-30.5022 -8.135,-12.2024 -12.203,-30.4986 -12.203,-46.7648 0,-16.2734 4.072,-32.536 12.203,-46.7757 8.135,-14.2361 20.337,-24.401 34.57,-32.536 14.232,-8.1276 30.502,-10.1649 48.802,-10.1649 14.236,0 28.465,2.0337 40.671,8.1349 12.202,4.0675 22.367,12.2023 30.502,22.3673 l -26.439,24.4011 c -12.202,-14.2325 -26.434,-20.3373 -42.701,-20.3373 -10.168,0 -20.341,2.0373 -28.468,6.1048 -8.139,4.0639 -16.27,12.1951 -20.337,20.3336 -4.068,8.1386 -6.102,18.3036 -6.102,28.4722 0,10.165 2.034,20.3372 6.102,28.4649 4.067,8.1349 12.198,14.2361 20.337,20.3336 8.131,4.0674 18.303,6.1048 28.468,6.1048 16.267,0 30.499,-6.1048 42.701,-20.3372 l 26.439,24.401 c -8.135,10.1723 -18.3,16.2662 -30.502,22.371 -12.203,6.0939 -26.435,8.1313 -40.671,8.1313 z"
   id="path404" /><path
   style="fill:none"
   d="m 4875.5328,1532.3309 v -172.8448 h 40.671 v 172.8448 z"
   id="path402" /><path
   id="path400"
   style="fill:none"
   d="m 5070.7415,1357.4478 c -18.3,0 -34.5657,4.0649 -48.8027,10.166 -14.232,8.135 -26.4313,20.3365 -34.5703,32.5352 -8.127,14.2397 -12.1973,30.5039 -12.1973,46.7773 0,16.2662 4.0663,30.4983 12.1973,44.7344 8.139,14.2287 20.3383,24.4001 34.5703,32.5313 14.237,8.1385 30.5067,12.2031 48.8027,12.2031 18.304,0 34.5717,-4.0646 48.8047,-12.2031 14.232,-8.1276 24.4051,-18.2989 32.5371,-32.5313 8.138,-12.206 12.2012,-28.4719 12.2012,-44.7344 0,-16.2734 -4.0592,-32.5376 -12.2012,-46.7773 -8.128,-12.1987 -18.3011,-24.3966 -32.5371,-32.5352 -14.229,-6.1011 -30.4977,-10.166 -48.8047,-10.166 z m 0,34.5664 c 10.169,0 18.3027,2.038 28.4708,6.1055 8.135,4.0639 14.2367,12.1992 18.3007,20.334 4.068,8.1349 8.1348,18.3003 8.1348,28.4726 0,10.1614 -4.0668,20.3336 -8.1348,28.4649 -4.064,8.1349 -10.1657,14.2345 -18.3007,20.332 -10.1651,4.0674 -18.3018,6.1055 -28.4708,6.1055 -10.161,0 -20.3338,-2.0381 -28.4648,-6.1055 -8.135,-6.0975 -12.2038,-12.1971 -18.3008,-20.332 -6.106,-8.1277 -8.1308,-18.2999 -8.1308,-28.4649 0,-10.1686 4.0588,-20.334 8.1308,-28.4726 4.067,-8.1348 10.1658,-16.2701 18.3008,-20.334 8.128,-4.0675 18.2998,-6.1055 28.4648,-6.1055 z" /><path
   style="fill:none"
   d="m 5345.2578,1359.4861 h 38.64 v 172.8448 h -32.536 l -85.409,-103.709 v 103.709 h -40.667 v -172.8448 h 32.539 l 87.433,105.7392 z"
   id="path396" /><path
   id="path394"
   style="fill:none"
   d="m 5509.974,1359.4869 -77.2696,172.8437 h 40.666 l 16.2657,-36.6074 h 79.3086 l 16.2636,36.6074 h 42.7051 l -77.2676,-172.8437 z m 20.3339,40.666 26.4356,65.0723 h -54.9043 z" /><path
   style="fill:none"
   d="m 5674.6808,1532.3309 v -172.8448 h 40.671 v 140.3052 h 87.44 v 32.5396 z"
   id="path390" /><path
   id="path388"
   style="fill:none"
   d="m 5955.3021,1359.4869 v 172.8437 h 40.6699 v -46.7675 h 34.5664 c 14.233,0 28.4691,-2.0373 40.6641,-8.1348 10.172,-4.0639 18.3003,-12.203 24.4043,-20.3379 6.098,-10.1614 10.166,-22.3677 10.166,-34.5664 0,-12.1987 -4.068,-24.3964 -10.166,-32.5312 -6.104,-10.1688 -14.2323,-18.3004 -24.4043,-22.375 -12.195,-6.1013 -26.4282,-8.1309 -40.6602,-8.1309 z m 40.6699,32.5312 h 32.5332 c 12.202,0 20.3346,4.0708 26.4356,8.1309 6.101,6.1048 10.1679,12.2061 10.1679,22.3711 0,10.1686 -4.0669,18.3 -10.1679,22.3711 -6.101,6.0975 -14.2336,8.1308 -26.4356,8.1308 h -32.5332 z" /><path
   id="path384"
   style="fill:none"
   d="m 6209.4896,1359.4869 -77.2715,172.8437 h 40.666 l 16.2715,-36.6074 h 81.334 l 14.2324,36.6074 h 42.7012 l -77.2695,-172.8437 z m 20.334,40.666 26.4336,65.0723 h -54.9082 z" /><path
   id="path380"
   style="fill:none"
   d="m 6376.2259,1359.4869 v 172.8437 h 38.6367 v -46.7675 h 34.5684 2.0371 l 34.5684,46.7675 h 42.6992 l -38.6367,-54.9062 c 12.207,-4.0639 20.3335,-12.203 26.4375,-20.3379 6.102,-10.1614 8.1328,-22.3677 8.1328,-34.5664 0,-12.1987 -2.0348,-24.3965 -8.1328,-32.5313 -6.104,-10.1687 -16.2685,-16.2739 -26.4375,-22.375 -10.165,-6.1012 -24.398,-8.1269 -40.668,-8.1269 z m 38.6328,32.5312 h 32.5352 c 12.202,0 22.3707,4.0708 28.4687,8.1309 6.105,6.1048 10.1739,12.2061 10.1739,22.3711 0,10.1686 -4.0689,18.3 -10.1739,22.3711 -6.098,6.0975 -16.2667,8.1308 -28.4687,8.1308 h -32.5352 z" /><path
   id="path376"
   style="fill:none"
   d="m 6642.6107,1359.4869 -77.2715,172.8437 h 40.668 l 14.2324,-36.6074 h 81.3379 l 16.2734,36.6074 h 40.668 l -77.2676,-172.8437 z m 18.3027,40.666 28.4727,65.0723 h -54.9024 z" /><path
   style="fill:none"
   d="m 2561.4479,1782.4464 h 95.5706 v 30.5023 h -134.2077 v -172.8448 h 130.1402 v 32.5323 h -91.5031 v 36.6034 h 81.3382 v 32.5359 h -81.3382 z"
   id="path372" /><path
   style="fill:none"
   d="m 2718.0266,1812.9487 v -172.8448 h 40.6709 v 140.3052 h 87.4356 v 32.5396 z"
   id="path370" /><path
   style="fill:none"
   d="m 3082.0161,1817.0161 c -18.2999,0 -34.5696,-4.0674 -48.8021,-12.2059 -14.2397,-8.1277 -24.4047,-18.3 -32.5396,-32.5324 -8.1349,-14.236 -12.2023,-28.4686 -12.2023,-44.7347 0,-16.2662 4.0711,-32.5359 12.2023,-46.7684 8.1386,-14.2397 18.3036,-24.4047 32.5396,-32.5396 14.2361,-8.1276 30.5022,-10.165 48.8021,-10.165 14.2325,0 28.4686,2.0338 40.6709,8.135 12.2024,4.0674 22.3674,12.1986 30.5023,22.3673 l -26.4348,22.3636 c -10.165,-12.1986 -26.4348,-20.3263 -42.7046,-20.3263 -10.1686,0 -20.3337,4.0602 -28.4686,8.1277 -8.1312,4.071 -16.2661,10.1686 -20.3336,20.3372 -4.0674,10.1686 -6.0975,16.2662 -6.0975,28.4685 0,12.1988 2.0301,20.3409 6.0975,28.4649 4.0675,8.1385 12.2024,14.2397 20.3336,20.3409 8.1386,4.0638 18.3036,6.1012 28.4686,6.1012 16.2698,0 32.5396,-6.1012 42.7046,-20.3373 l 26.4348,24.4011 c -8.1349,8.1385 -18.2999,16.2734 -30.5023,22.3709 -12.1987,6.1012 -26.4384,8.1313 -40.6709,8.1313 z"
   id="path368" /><path
   id="path366"
   style="fill:none"
   d="m 3289.4271,1638.0709 c -16.262,0 -32.5352,4.0665 -46.7676,10.164 -16.2662,8.1349 -26.439,18.2994 -34.5703,32.5391 -8.1312,14.2325 -12.1992,30.5033 -12.1992,46.7695 0,16.2661 4.068,30.4984 12.1992,44.7344 8.1313,14.2324 18.3041,24.4055 34.5703,32.5332 14.236,8.1385 30.5056,12.2051 46.7676,12.2051 18.304,0 34.5706,-4.063 48.8066,-12.2051 14.236,-8.1241 26.4334,-18.3008 34.5684,-32.5332 8.135,-12.2023 12.2031,-26.4345 12.2031,-44.7344 0,-18.2999 -4.0681,-32.537 -12.2031,-46.7695 -8.135,-14.236 -20.3324,-24.4006 -34.5684,-32.5391 -14.236,-6.0975 -30.5026,-10.164 -48.8066,-10.164 z m 0,32.5351 c 12.203,0 20.3367,4.0596 28.4687,8.127 8.135,4.0711 14.2369,10.1729 20.3379,20.3379 4.067,8.1312 6.0957,18.3 6.0957,28.4687 0,10.1686 -2.0317,20.3373 -6.0957,28.4649 -6.101,8.1386 -12.1999,14.2386 -20.3379,20.3398 -8.132,4.0675 -16.2627,6.1016 -28.4687,6.1016 -10.165,0 -18.3007,-2.0377 -26.4316,-6.1016 -8.1313,-6.1012 -16.2686,-12.2012 -20.336,-20.3398 -4.0675,-8.1239 -6.0976,-16.2662 -6.0976,-28.4649 0,-12.2024 0,-18.3001 6.0976,-28.4687 6.1011,-10.165 12.201,-16.2668 20.336,-20.3379 8.1309,-4.0674 16.2706,-8.127 26.4316,-8.127 z" /><path
   style="fill:none"
   d="m 3565.9768,1640.1039 h 38.645 v 172.8448 h -32.54 l -87.439,-103.7091 v 103.7091 h -38.637 v -172.8448 h 32.536 l 87.435,105.7391 z"
   id="path362" /><path
   id="path360"
   style="fill:none"
   d="m 3759.1595,1638.0709 c -18.3,0 -34.5706,4.0665 -48.8066,10.164 -14.233,8.1349 -24.4002,18.2994 -32.5352,32.5391 -8.132,14.2325 -12.2031,30.5033 -12.2031,46.7695 0,16.2661 4.0711,30.4984 12.2031,44.7344 8.131,14.2324 18.2992,24.4055 32.5352,32.5332 14.236,8.1385 30.5066,12.2051 48.8066,12.2051 18.299,0 34.5668,-4.063 48.8028,-12.2051 14.236,-8.1241 26.4333,-18.3008 34.5683,-32.5332 8.132,-12.2023 12.1992,-26.4345 12.1992,-44.7344 0,-18.2999 -4.0672,-32.537 -12.1992,-46.7695 -8.131,-14.236 -20.3324,-24.4006 -34.5683,-32.5391 -14.2361,-6.0975 -30.5038,-10.164 -48.8028,-10.164 z m 0,32.5351 c 10.168,0 20.3338,4.0596 28.4688,8.127 8.135,4.0711 14.2349,10.1729 20.3359,20.3379 4.068,8.1312 6.1016,18.3 6.1016,28.4687 0,10.1686 -2.0376,20.3373 -6.1016,28.4649 -6.097,8.1386 -12.1969,14.2386 -20.3359,20.3398 -8.135,4.0675 -18.3008,6.1016 -28.4688,6.1016 -10.169,0 -18.3005,-2.0377 -26.4355,-6.1016 -8.135,-6.1012 -16.266,-12.2012 -20.334,-20.3398 -4.067,-8.1239 -6.0996,-16.2662 -6.0996,-28.4649 0,-12.2024 2.0326,-18.3001 6.0996,-28.4687 4.068,-10.165 12.199,-16.2668 20.334,-20.3379 8.131,-4.0674 16.2665,-8.127 26.4355,-8.127 z" /><path
   style="fill:none"
   d="m 3997.0758,1817.0161 c -16.266,0 -32.536,-4.0674 -46.768,-12.2059 -14.233,-8.1277 -26.435,-18.3 -34.566,-32.5324 -8.135,-14.236 -12.203,-28.4686 -12.203,-44.7347 0,-16.2662 4.068,-32.5359 12.203,-46.7684 8.131,-14.2397 20.33,-24.4047 34.566,-32.5396 14.236,-8.1276 30.502,-10.165 48.802,-10.165 14.236,0 28.469,2.0338 40.671,8.135 12.202,4.0674 22.371,12.1986 30.502,22.3673 l -26.435,22.3636 c -12.198,-12.1986 -26.438,-20.3263 -42.704,-20.3263 -12.199,0 -20.33,4.0602 -30.503,8.1277 -8.127,4.071 -14.228,10.1722 -18.299,20.3372 -4.061,10.1686 -8.132,16.2662 -8.132,28.4685 0,12.1988 2.034,20.3409 8.132,28.4649 6.101,8.1385 10.168,14.2397 18.299,20.3409 10.169,4.0638 18.304,6.1012 30.503,6.1012 16.266,0 30.506,-6.1012 42.704,-20.3373 l 26.435,24.4011 c -8.131,8.1385 -18.303,16.2734 -30.502,22.3709 -12.202,6.1012 -26.435,8.1313 -42.705,8.1313 z"
   id="path356" /><path
   style="fill:none"
   d="m 4127.2198,1812.9487 v -172.8448 h 38.634 v 172.8448 z"
   id="path354" /><path
   style="fill:none"
   d="m 4432.2388,1812.9487 h -36.607 v -103.7091 l -50.836,85.4092 h -18.3 l -50.836,-83.3719 v 101.6718 h -38.637 v -172.8448 h 34.57 l 65.072,107.7728 63.038,-107.7728 h 32.536 z"
   id="path352" /><path
   style="fill:none"
   d="m 4503.4078,1812.9487 v -172.8448 h 40.668 v 172.8448 z"
   id="path350" /><path
   style="fill:none"
   d="m 4655.9198,1782.4464 h 93.536 v 30.5023 h -134.207 v -172.8448 h 132.174 v 32.5323 h -91.503 v 36.6034 h 79.308 v 32.5359 h -79.308 z"
   id="path348" /><path
   style="fill:none"
   d="m 4930.4358,1640.1039 h 40.667 v 172.8448 h -32.536 l -87.435,-103.7091 v 103.7091 h -38.637 v -172.8448 h 32.536 l 85.405,105.7391 z"
   id="path346" /><path
   style="fill:none"
   d="m 5076.8468,1672.6362 h 2.033 -56.941 v -32.5323 h 152.515 v 32.5323 h -56.941 v 140.3125 h -40.666 z"
   id="path344" /><path
   id="path342"
   style="fill:none"
   d="m 5306.6302,1638.0709 c -18.303,0 -34.5677,4.0665 -48.8047,10.164 -14.236,8.1349 -26.4384,18.2994 -34.5664,32.5391 -8.138,14.2325 -12.2031,30.5033 -12.2031,46.7695 0,16.2661 4.0621,30.4984 12.2031,44.7344 8.128,14.2324 20.3304,24.4055 34.5664,32.5332 14.233,8.1385 30.5017,12.2051 48.8047,12.2051 18.3,0 34.5677,-4.063 48.8027,-12.2051 14.236,-8.1241 24.3971,-18.3008 32.5391,-32.5332 10.161,-12.2023 14.2305,-26.4345 14.2305,-44.7344 0,-18.2999 -4.0695,-32.537 -14.2305,-46.7695 -8.138,-14.236 -18.2991,-24.4006 -32.5391,-32.5391 -14.232,-6.0975 -30.4987,-10.164 -48.8027,-10.164 z m 0,32.5351 c 10.161,0 20.3309,4.0596 28.4649,8.127 8.135,4.0711 14.2326,10.1729 18.3046,20.3379 4.06,8.1312 8.127,18.3 8.127,28.4687 0,10.1686 -4.067,20.3373 -8.127,28.4649 -4.072,8.1386 -10.1696,14.2386 -18.3046,20.3398 -8.134,4.0675 -18.3039,6.1016 -28.4649,6.1016 -10.172,0 -20.3356,-2.0377 -28.4746,-6.1016 -8.131,-6.1012 -12.2038,-12.2012 -18.3008,-20.3398 -6.098,-8.1239 -8.1308,-16.2662 -8.1308,-28.4649 0,-12.2024 4.0708,-18.3001 8.1308,-28.4687 4.067,-10.165 10.1698,-16.2668 18.3008,-20.3379 8.136,-4.0674 18.2986,-8.127 28.4746,-8.127 z" /><path
   style="fill:none"
   d="m 5713.3248,1640.1039 -69.139,111.8403 v 61.0045 h -38.638 v -61.0045 l -67.104,-111.8403 h 42.707 l 44.731,77.2706 46.769,-77.2706 z"
   id="path338" /><path
   style="fill:none"
   d="m 5937.0018,1817.0161 c -24.404,0 -44.741,-8.1349 -58.978,-20.33 -14.229,-14.2397 -20.33,-34.577 -20.33,-58.978 v -97.6006 h 40.668 v 95.5742 c 0,30.5022 12.202,46.7684 38.637,46.7684 12.202,0 22.367,-4.0674 28.472,-12.2024 6.098,-6.0976 10.165,-18.2998 10.165,-34.566 v -95.5742 h 38.637 v 97.6006 c 0,24.4047 -6.101,44.742 -20.333,58.978 -14.233,12.1987 -32.536,20.33 -56.938,20.33 z"
   id="path336" /><path
   style="fill:none"
   d="m 6142.3798,1817.0161 c -14.233,0 -28.466,-2.0301 -40.671,-6.0975 -12.203,-4.0675 -22.367,-8.1276 -30.502,-14.2288 l 12.205,-30.5022 c 8.136,6.0975 18.3,10.1649 28.469,14.2288 10.168,2.0337 20.338,4.071 30.502,4.071 10.166,0 18.3,-2.0337 24.397,-4.071 6.101,-2.0265 8.135,-8.1313 8.135,-14.2288 0,-4.0712 -2.03,-8.1386 -4.067,-10.176 -2.037,-2.0264 -8.135,-6.0975 -12.198,-6.0975 -6.106,-2.0301 -12.203,-4.0638 -20.338,-6.1012 -14.236,-4.0674 -24.401,-6.1012 -32.535,-10.1649 -10.166,-2.0265 -16.271,-8.1313 -22.368,-14.2288 -6.098,-8.135 -8.132,-16.2699 -8.132,-28.4759 0,-10.1613 2.031,-18.2998 8.132,-26.4275 6.097,-8.1349 12.198,-14.236 24.401,-20.3372 10.162,-4.0638 24.401,-6.1012 40.667,-6.1012 10.169,0 20.33,0 32.536,4.0675 10.169,2.0337 18.303,6.0975 26.435,10.1686 l -12.199,30.5022 c -16.27,-8.1385 -32.539,-14.236 -48.806,-14.236 -10.168,0 -18.3,2.0373 -24.401,6.0975 -4.07,4.0674 -8.131,8.1385 -8.131,14.2397 0,6.0976 4.061,10.165 10.165,14.2288 6.101,2.0337 14.236,6.0975 28.468,8.1349 12.207,4.0638 24.409,6.1012 32.537,10.165 8.134,2.03 14.235,8.1349 20.336,14.2361 6.102,6.0975 10.166,16.2662 10.166,26.4311 0,10.1723 -4.064,20.3409 -8.132,28.4721 -6.101,8.1314 -14.232,14.2289 -26.434,18.2999 -10.169,6.1012 -24.405,8.1313 -38.637,8.1313 z"
   id="path334" /><path
   id="path332"
   style="fill:none"
   d="m 6355.8958,1638.0709 c -18.305,0 -32.5356,4.0665 -48.8066,10.164 -14.232,8.1349 -24.4042,18.2994 -32.5352,32.5391 -8.136,14.2325 -12.207,30.5033 -12.207,46.7695 0,16.2661 4.068,30.4984 12.207,44.7344 8.127,14.2324 18.2992,24.4055 32.5352,32.5332 16.274,8.1385 30.5056,12.2051 48.8066,12.2051 18.299,0 34.5647,-4.063 48.8047,-12.2051 14.232,-8.1241 26.4314,-18.3008 34.5664,-32.5332 8.128,-12.2023 12.2012,-26.4345 12.2012,-44.7344 0,-18.2999 -4.0692,-32.537 -12.2012,-46.7695 -8.135,-14.236 -20.3344,-24.4006 -34.5664,-32.5391 -14.236,-6.0975 -30.5017,-10.164 -48.8047,-10.164 z m 0,32.5351 c 10.164,0 20.3298,4.0596 28.4668,8.127 8.136,4.0711 14.2329,10.1729 20.3379,20.3379 4.064,8.1312 6.0977,18.3 6.0977,28.4687 0,10.1686 -2.0337,20.3373 -6.0977,28.4649 -6.105,8.1386 -12.2019,14.2386 -20.3379,20.3398 -8.134,4.0675 -18.3028,6.1016 -28.4668,6.1016 -10.173,0 -18.3014,-2.0377 -26.4394,-6.1016 -8.131,-6.1012 -16.2701,-12.2012 -20.3301,-20.3398 -4.068,-8.1239 -6.1055,-16.2662 -6.1055,-28.4649 0,-12.2024 2.0375,-18.3001 6.1055,-28.4687 4.06,-10.165 12.1991,-16.2668 20.3301,-20.3379 8.134,-4.0674 16.2664,-8.127 26.4394,-8.127 z" /><path
   id="path328"
   style="fill:none"
   d="m 2522.8138,1920.7213 v 172.8457 h 79.3047 c 18.3035,0 34.5706,-2.0388 48.8066,-10.17 14.2288,-6.0976 26.4299,-18.2995 34.5684,-30.5019 8.1312,-12.1987 12.1992,-26.4345 12.1992,-44.7344 0,-18.2998 -4.068,-32.5315 -12.1992,-46.7676 -8.1349,-12.2059 -20.3396,-22.3727 -34.5684,-30.5039 -14.236,-6.1012 -30.5031,-10.1679 -48.8066,-10.1679 z m 40.668,32.5371 h 36.5996 c 16.2699,0 30.507,6.1012 40.6719,14.2324 10.1687,10.1687 16.2656,24.4038 16.2656,40.6699 0,16.2698 -6.0969,28.4682 -16.2656,38.6367 -10.1686,10.1687 -24.402,14.2403 -40.6719,14.2403 h -36.5996 z" /><path
   style="fill:none"
   d="m 2797.3273,2063.0605 h 93.5405 v 30.5058 h -134.2113 v -172.8484 h 132.1776 v 32.536 h -91.5068 v 36.6034 h 79.3081 v 32.536 h -79.3081 z"
   id="path324" /><path
   style="fill:none"
   d="m 3053.5477,2093.5663 v -172.8484 h 40.6672 v 140.3161 h 87.4392 v 32.5323 z"
   id="path322" /><path
   id="path320"
   style="fill:none"
   d="m 3289.4271,1920.7174 -77.2715,172.8496 h 40.668 l 16.2695,-36.6035 h 79.3047 l 16.2695,36.6035 h 42.7012 l -79.3047,-172.8496 z m 20.3359,38.6367 26.4356,67.1074 h -54.9024 z" /><path
   id="path316"
   style="fill:none"
   d="m 3553.7787,1920.7174 v 172.8496 h 91.5058 c 22.368,0 38.638,-4.0649 50.836,-12.2071 12.203,-8.1313 18.3007,-18.3002 18.3007,-34.5664 0,-10.1686 -4.0669,-20.3324 -10.1679,-26.4336 -4.061,-8.1276 -12.1963,-12.1982 -22.3653,-16.2656 8.131,-4.0638 12.2006,-8.1326 16.2676,-16.2676 4.067,-6.0976 6.0996,-14.2328 6.0996,-22.375 0,-14.2288 -4.0636,-24.3924 -16.2656,-32.5273 -10.169,-8.1349 -28.4726,-12.207 -48.8066,-12.207 z m 40.6718,30.5058 h 40.67 c 8.135,0 18.2991,7e-4 22.3671,4.0645 4.067,4.0674 6.1016,10.1647 6.1016,16.2695 0,6.1012 -6e-4,10.1722 -6.1016,14.2324 -6.098,4.0675 -14.2321,6.1055 -22.3671,6.1055 h -40.67 z m 0,69.1367 h 46.7676 c 22.371,0 32.5352,8.1348 32.5352,22.3672 0,8.1312 -4.0639,12.2061 -8.1309,16.2735 -6.105,4.0602 -14.2353,4.0605 -24.4043,4.0605 h -46.7676 z" /><path
   style="fill:none"
   d="m 3773.3958,2093.5663 v -172.8484 h 40.67 v 172.8484 z"
   id="path310" /><path
   id="path308"
   style="fill:none"
   d="m 3968.6087,1918.6842 c -18.3,0 -32.5366,4.0709 -48.8066,10.1757 -14.232,8.124 -24.3981,18.3008 -32.5371,32.5332 -8.131,14.2361 -12.1973,30.5015 -12.1973,46.7676 0,16.2698 4.0663,30.502 12.1973,44.7344 8.135,14.2324 18.3011,24.4058 32.5371,32.5371 16.27,8.1348 30.5066,12.1973 48.8066,12.1973 18.3,0 34.5648,-4.0588 48.8008,-12.1973 14.24,-8.1276 26.4383,-18.3011 34.5703,-32.5371 8.134,-12.1987 12.2012,-26.4345 12.2012,-44.7344 0,-18.2998 -4.0672,-32.5315 -12.2012,-46.7676 -8.132,-14.2288 -20.3343,-24.4056 -34.5703,-32.5332 -14.233,-6.1048 -30.5008,-10.1757 -48.8008,-10.1757 z m 0,32.5351 c 10.168,0 20.3358,4.0654 28.4668,8.1328 8.132,4.0711 14.233,10.1675 20.334,20.336 4.071,8.1313 6.1055,18.3001 6.1055,28.4687 0,10.1686 -2.0385,20.3376 -6.1055,28.4688 -6.098,8.1349 -12.199,14.233 -20.334,20.3379 -8.135,4.0747 -18.2988,6.0976 -28.4668,6.0976 -10.169,0 -18.3006,-2.0266 -26.4316,-6.0976 -8.132,-6.1049 -16.2699,-12.203 -20.3379,-20.3379 -4.067,-8.1276 -6.0977,-16.2665 -6.0977,-28.4688 0,-12.2023 2.0347,-18.3 6.0977,-28.4687 4.068,-10.1685 12.2029,-16.2649 20.3379,-20.336 8.131,-4.0674 16.2666,-8.1328 26.4316,-8.1328 z" /><path
   id="path304"
   style="fill:none"
   d="m 4125.183,1920.7213 v 172.8457 h 77.2695 c 20.338,0 36.6038,-2.0388 50.8398,-10.17 14.232,-6.0976 28.4684,-18.2995 34.5664,-30.5019 6.101,-12.1987 10.17,-26.4345 10.17,-44.7344 0,-18.2998 -4.069,-32.5315 -10.17,-46.7676 -8.131,-12.2059 -20.3344,-22.3727 -34.5664,-30.5039 -14.236,-6.1012 -30.5018,-10.1679 -50.8398,-10.1679 z m 38.6367,32.5371 h 36.6035 c 18.3,0 32.5332,6.1012 42.7012,14.2324 10.169,10.1687 14.2324,24.4038 14.2324,40.6699 0,16.2698 -4.0634,28.4682 -14.2324,38.6367 -10.168,10.1687 -24.4012,14.2403 -42.7012,14.2403 h -36.6035 z" /><path
   style="fill:none"
   d="m 4359.0318,2093.5663 v -172.8484 h 40.671 v 172.8484 z"
   id="path300" /><path
   style="fill:none"
   d="m 4596.9448,1920.7215 h 38.645 l -75.241,172.8485 h -38.637 l -75.241,-172.8485 h 42.705 l 52.87,124.0427 z"
   id="path298" /><path
   style="fill:none"
   d="m 4720.9918,2063.0605 h 93.533 v 30.5058 h -134.208 v -172.8484 h 132.178 v 32.536 h -91.503 v 36.6034 h 79.304 v 32.536 h -79.304 z"
   id="path296" /><path
   id="path294"
   style="fill:none"
   d="m 4877.5619,1920.7174 v 172.8496 h 38.6386 v -46.7735 h 36.6016 l 34.5644,46.7735 h 42.711 l -38.6406,-54.9043 c 12.203,-6.1049 20.3366,-12.2025 26.4336,-22.3711 6.106,-8.1313 10.1738,-20.3331 10.1738,-32.5391 0,-12.1987 -4.0678,-24.3984 -10.1738,-32.5332 -6.097,-10.1651 -16.2616,-16.2657 -26.4336,-22.3633 -10.165,-6.1047 -24.3948,-8.1386 -38.6348,-8.1386 z m 38.6386,32.541 h 32.5352 c 12.206,0 22.3676,2.0335 28.4726,8.1347 6.101,6.0975 10.1602,12.1983 10.1602,22.3633 0,10.1759 -4.0592,16.2739 -10.1602,22.375 -6.105,6.1049 -16.2666,8.127 -28.4726,8.127 h -32.5352 z" /><path
   style="fill:none"
   d="m 5145.9808,2097.6302 c -14.236,0 -26.434,-2.0301 -40.663,-6.0866 -12.203,-4.0639 -22.374,-8.1312 -30.502,-14.2288 l 14.232,-30.5059 c 6.101,6.1012 16.27,10.1687 26.435,14.2397 10.168,2.0229 20.334,4.0602 30.498,4.0602 12.203,0 20.338,-2.0373 24.405,-6.0975 4.068,-4.0712 8.131,-6.1049 8.131,-12.2061 0,-4.0673 0,-8.1312 -4.063,-10.1685 -4.072,-2.0338 -8.139,-6.1049 -12.202,-6.1049 -6.101,-2.0265 -12.207,-4.0602 -20.334,-6.0939 -14.236,-4.0674 -24.409,-6.1011 -32.536,-10.1723 -8.142,-2.0227 -16.27,-8.1276 -22.375,-14.2287 -6.097,-8.1349 -8.127,-16.2735 -8.127,-28.4722 0,-10.165 2.026,-18.3035 8.127,-26.4311 6.105,-8.1386 14.233,-16.2662 24.405,-20.3373 10.165,-4.0675 24.398,-6.1048 40.663,-6.1048 10.173,0 22.375,0 32.536,4.071 10.169,2.0338 20.338,6.1049 26.442,10.1687 l -12.206,30.5023 c -16.27,-8.1386 -30.501,-14.2398 -46.772,-14.2398 -12.198,0 -20.333,2.0374 -26.431,6.1012 -4.067,4.0674 -8.135,8.1386 -8.135,14.2361 0,6.1048 4.068,10.1686 10.169,14.2288 6.098,2.0337 16.269,6.1012 28.473,8.1385 12.198,2.0374 24.4,6.0976 32.535,10.1614 8.131,2.0337 16.266,8.1385 22.371,14.2361 6.094,6.1011 8.128,16.2624 8.128,26.4348 0,10.1722 -2.031,20.3372 -8.128,28.4721 -6.105,8.1276 -14.24,14.2324 -24.405,18.3035 -12.195,6.0939 -24.397,8.124 -40.671,8.124 z"
   id="path290" /><path
   style="fill:none"
   d="m 5276.1288,2093.5663 v -172.8484 h 40.663 v 172.8484 z"
   id="path288" /><path
   id="path286"
   style="fill:none"
   d="m 5387.9681,1920.7213 v 172.8457 h 79.3008 c 18.304,0 34.5715,-2.0388 48.8105,-10.17 14.229,-6.0976 26.4314,-18.2995 34.5664,-30.5019 8.131,-12.1987 12.1973,-26.4345 12.1973,-44.7344 0,-18.2998 -4.0623,-32.5315 -12.1973,-46.7676 -8.135,-12.2059 -20.3374,-22.3727 -34.5664,-30.5039 -14.236,-6.1012 -30.5025,-10.1679 -48.8105,-10.1679 z m 40.6641,32.5371 h 36.6015 c 16.269,0 30.501,6.1012 40.67,14.2324 10.172,10.1687 16.2695,24.4038 16.2695,40.6699 0,16.2698 -6.0975,28.4682 -16.2695,38.6367 -10.169,10.1687 -24.401,14.2403 -40.67,14.2403 h -36.6015 z" /><path
   id="path282"
   style="fill:none"
   d="m 5674.6849,1920.7174 -77.2676,172.8496 h 40.668 l 16.2695,-36.6035 h 79.3047 l 16.2656,36.6035 h 42.7051 l -77.2754,-172.8496 z m 20.3359,38.6367 26.4356,67.1074 h -54.9043 z" /><path
   id="path278"
   style="fill:none"
   d="m 5839.3978,1920.7213 v 172.8457 h 79.3047 c 18.299,0 34.5699,-2.0388 50.8359,-10.17 14.236,-6.0976 24.4012,-18.2995 32.5352,-30.5019 8.132,-12.1987 12.2031,-26.4345 12.2031,-44.7344 0,-18.2998 -4.0681,-32.5315 -12.2031,-46.7676 -8.131,-12.2059 -18.2992,-22.3727 -32.5352,-30.5039 -16.266,-6.1012 -32.5369,-10.1679 -50.8359,-10.1679 z m 40.668,32.5371 h 36.6035 c 18.3,0 30.4981,6.1012 40.6621,14.2324 12.206,10.1687 16.2715,24.4038 16.2715,40.6699 0,16.2698 -4.0655,28.4682 -16.2715,38.6367 -10.164,10.1687 -22.3661,14.2403 -40.6621,14.2403 h -36.6035 z" /><path
   style="fill:none"
   d="m 2947.8085,924.3235 c 65.0683,0 107.7728,-12.1987 136.2378,-30.5022 10.1686,-30.5022 24.4046,-79.3044 38.6407,-142.3462 20.3336,0 87.4357,2.0373 109.803,4.0711 2.0337,44.731 4.0711,124.039 4.0711,166.7436 l -16.2698,32.5323 c -65.072,42.7009 -170.8148,79.3044 -290.7864,79.3044 -256.2166,0 -416.8591,-158.6088 -416.8591,-414.82539 0,-260.2841 201.3097,-435.16265 441.2602,-435.16265 107.7729,0 199.2796,28.47217 276.5539,69.13939 l 16.2662,30.50224 c -10.165,61.00084 -26.4348,144.37267 -38.6372,203.34707 -20.33,0 -75.2369,-2.03373 -99.638,-6.10118 -10.1649,-69.13574 -22.3673,-126.07277 -32.5359,-154.54493 -32.536,-22.36734 -81.3381,-38.63351 -144.3727,-38.63351 -61.0081,0 -115.9114,18.30354 -152.5149,42.70461 -52.8659,63.03456 -91.5031,164.70992 -91.5031,278.58397 0,189.11468 99.6381,315.18738 260.2842,315.18738 z"
   id="path274" /><path
   id="path272"
   style="fill:none"
   d="m 3777.4623,184.14119 c -233.8491,0 -427.0274,183.01511 -427.0274,449.40039 0,246.04792 162.6776,400.58792 398.5606,400.58792 235.883,0 414.8242,-187.0804 414.8242,-449.39456 0,-246.05166 -158.6125,-400.59375 -386.3574,-400.59375 z m -24.4043,103.70703 c 160.643,0 233.8457,130.13978 233.8457,331.45312 0,126.07276 -32.531,211.47746 -61,260.28326 -36.603,32.5395 -87.4391,52.873 -154.5411,52.873 -154.545,0 -246.0527,-124.0381 -246.0527,-319.25391 0,-124.04269 36.6046,-219.61688 79.3086,-278.58399 38.634,-30.50224 89.4695,-46.77148 148.4395,-46.77148 z" /><path
   style="fill:none"
   d="m 4997.5418,1007.6953 -124.047,12.2024 -101.671,-146.41 c -101.672,-138.2788 -229.782,-298.92127 -331.454,-424.99404 2.03,229.78549 6.098,441.26014 18.3,463.63114 12.199,16.2698 79.304,28.4722 134.208,42.701 l -14.236,58.9707 h -335.521 l -14.233,-58.9707 103.706,-32.5324 c 4.067,-36.607 8.131,-142.3425 8.131,-311.1199 0,-189.11827 -2.03,-286.71889 -14.233,-302.99234 -18.299,-14.22879 -63.038,-32.53232 -99.641,-44.73468 l 14.236,-58.96711 c 73.207,0 160.642,-2.03373 229.782,-4.07109 73.203,132.17394 272.483,376.19552 427.028,569.37032 -2.034,-244.01794 -10.165,-441.26383 -20.334,-463.62752 -12.202,-14.23609 -79.305,-30.50224 -122.009,-40.67087 l 12.202,-61.00084 h 335.521 l 12.203,61.00084 -103.706,32.53597 c -10.165,85.40919 -14.232,357.88835 -14.232,709.67912 z"
   id="path268" /><path
   id="path266"
   style="fill:none"
   d="m 5682.5931,192.0533 c -54.1678,-0.30836 -139.8354,10.89305 -166.5176,18.51953 l -38.6445,113.875 c -79.305,205.3735 -162.6764,420.92177 -239.9434,589.69927 l -99.6445,40.6679 14.2324,58.9707 h 337.5547 l 14.2442,-58.9629 -132.1739,-38.6347 c 16.269,-50.8395 34.5605,-105.7432 54.8985,-160.6465 l 307.0527,-6.0957 c 22.371,65.0719 42.7049,122.0042 61.0039,172.8437 l -107.7754,32.5332 12.2012,58.9707 h 363.9941 l 12.2012,-58.9707 -105.7422,-36.6035 c -63.038,-146.4063 -152.5126,-388.39043 -233.8496,-593.76757 -20.334,-52.87323 -32.5361,-95.57431 -42.7051,-132.17773 -3.3044,-0.12734 -6.7755,-0.20015 -10.3867,-0.2207 z m -105.5156,138.49804 c 46.772,115.90414 89.4762,229.77922 126.0762,333.48828 l -246.0528,-4.06835 c 38.637,-107.76925 79.3096,-221.6434 119.9766,-329.41993 z" /><path
   id="path262"
   style="fill:none"
   d="m 6593.8119,198.37361 c -54.9,0 -180.9766,6.10156 -221.6446,6.10156 h -166.7422 l -12.2031,61.00195 c 36.604,10.16862 87.4352,26.43386 95.5742,40.66993 14.233,18.29989 14.2344,132.17793 14.2344,203.34375 v 201.31054 c 0,63.03826 -4.0688,189.11306 -8.1328,211.48046 l -101.6797,32.541 12.2031,58.9707 h 174.875 c 79.305,0 183.0128,10.168 256.2188,10.168 162.673,0 302.9863,-79.3052 302.9863,-231.8164 0,-111.84032 -79.3049,-172.84309 -174.8789,-197.24415 71.17,-36.59978 132.1777,-97.60512 132.1777,-187.07812 0,-140.3125 -115.9042,-209.44922 -302.9882,-209.44922 z m -20.3379,85.41406 c 50.836,0 95.5739,10.16782 124.0429,32.53516 18.3,22.36734 32.5391,54.90321 32.5391,103.70898 0,73.2032 -42.708,126.07771 -83.375,150.48242 l -183.0137,-8.13476 v -52.88086 0 c 0,-65.07194 6.1008,-191.14465 8.1348,-213.51563 l 10.166,-4.06445 c 28.468,-4.06745 63.037,-8.13086 91.502,-8.13086 z m -109.8067,376.1875 h 152.5156 c 103.702,0 154.5372,52.87339 154.5372,132.17773 0,56.9371 -24.3959,105.7434 -61.0039,130.1445 -30.495,10.1649 -71.1659,14.2325 -101.6719,14.2325 -48.802,0 -101.6682,-6.1023 -124.0352,-18.3047 -2.041,-2.0337 -4.0714,-4.0695 -6.1094,-6.0996 -12.198,-16.2698 -14.2324,-132.1751 -14.2324,-201.31449 z" /><path
   style="fill:none"
   d="m 7047.2748,954.8221 101.675,-32.5323 c 4.064,-22.3674 8.131,-148.4438 8.131,-211.48196 v -201.3097 c 0,-71.16582 0,-185.04353 -14.233,-203.34342 -8.137,-14.23608 -58.97,-30.50224 -95.573,-40.67086 l 12.202,-61.00084 h 357.888 l 12.203,61.00084 -103.706,30.49859 c -2.03,22.37098 -8.135,148.44375 -8.135,213.51569 v 201.3097 c 0,69.13936 2.031,185.04346 14.233,201.31326 10.172,16.2699 61.005,32.536 97.608,42.701 l -12.203,58.9708 h -357.888 z"
   id="path256" /><path
   id="path254"
   style="fill:none"
   d="m 7941.9935,184.14119 c -233.848,0 -427.0273,183.01511 -427.0273,449.40039 0,246.04792 162.6785,400.58792 398.5625,400.58792 235.882,0 414.8242,-187.0804 414.8242,-449.39456 0,-246.05166 -158.6114,-400.59375 -386.3594,-400.59375 z m -24.4004,103.70703 c 160.646,0 233.8477,130.13978 233.8477,331.45312 0,126.07276 -32.5311,211.47746 -60.9961,260.28326 -36.603,32.5395 -87.4468,52.873 -154.5528,52.873 -154.537,0 -246.0488,-124.0381 -246.0488,-319.25391 0,-124.04269 36.6046,-219.61688 79.3086,-278.58399 38.638,-30.50224 89.4774,-46.77148 148.4414,-46.77148 z" /><path
   style="fill:none"
   d="m 1707.3962,649.807 c 22.3673,-16.26616 38.6371,-44.73833 42.7045,-44.73833 4.0675,0 30.5023,20.33362 54.9034,46.76841 22.3673,24.40106 40.6672,56.93703 54.9033,77.27062 30.5022,44.7383 87.4355,138.2788 99.6379,193.1821 6.1012,30.5022 18.2999,150.4775 6.1012,252.1492 -10.1687,75.2369 -14.2324,154.5449 -16.2662,158.605 -4.071,8.1386 -14.2361,32.5397 -28.4685,24.4048 -111.844,-79.308 -213.5156,-205.3808 -276.5539,-323.3223 -16.2661,-30.5023 -28.4648,-56.9371 -40.6672,-83.3719 -26.4384,-52.8659 -44.742,-99.6343 -56.9407,-136.2377 -18.2998,-46.772 -24.401,-79.3044 -24.401,-89.47298 0,-24.40107 6.1012,-40.67088 10.1686,-40.67088 4.0674,-2.03007 12.1987,0 24.401,2.03373 14.2361,2.03737 30.506,2.03737 42.7046,0 52.8696,-4.06017 63.0383,-6.09753 107.773,-36.59977"
   id="path246" /><path
   style="fill:none"
   d="m 1727.7298,1211.0424 c 8.1312,-2.0338 14.2324,14.2324 26.4311,24.412 10.1686,10.165 75.2369,71.1694 87.4392,87.4356 14.2325,16.2662 28.4686,34.5697 36.6035,52.8696 6.1012,20.3373 8.1312,34.5661 -6.1012,101.6717 -16.2698,67.102 -87.4392,361.9595 -128.1102,496.1671 -40.6672,134.2113 -44.7309,164.7136 -46.7684,172.8412 -4.0637,8.1386 -8.1312,20.3372 -24.401,18.2999 -18.2999,-2.0374 -22.3637,-8.1349 -24.4011,-28.4685 -4.0638,-18.3036 -6.1011,-97.6079 0,-168.7811 6.1012,-69.1284 24.4011,-193.1747 24.4011,-264.3479 0,-71.1731 -10.165,-107.7728 -8.1313,-158.6123 2.0338,-50.8395 24.4011,-197.2459 36.6035,-241.9806 10.1649,-44.7346 16.2661,-87.4393 26.4348,-91.5067"
   id="path244" /><path
   style="fill:none"
   d="m 1225.4615,708.77775 c 0,-24.40471 16.2661,-28.46851 46.7793,-30.50588 30.5022,-4.0711 56.937,0 73.2068,6.09753 14.2325,6.09754 63.0345,28.46852 73.1996,34.56969 10.1686,8.13491 48.8021,44.73471 63.0382,65.07191 16.2698,22.3674 52.866,67.1057 69.1357,115.9078 18.2999,48.7985 18.2999,69.1357 18.2999,73.1996 -2.0301,6.1012 -28.4685,50.8394 -44.7347,63.0418 -14.236,14.2287 -52.8696,71.1695 -142.3426,63.0346 -91.5066,-6.1012 -132.1776,-77.2743 -156.5786,-91.5068 -22.3674,-16.2698 -26.4348,-24.4047 -50.8359,-32.5359 -24.4047,-10.1651 -26.4348,-20.3373 -22.3709,-32.536 4.0674,-14.2288 14.236,-28.4685 42.7045,-26.4312 28.4685,2.0301 63.0346,10.1687 63.0346,10.1687 0,0 -8.1313,-14.2361 -28.4685,-20.3373 -20.3337,-6.1012 -58.9708,-8.1312 -83.3718,-14.2324 -24.4011,-8.1386 -20.3336,-22.371 -18.2999,-26.4384 0,-4.0638 0,-26.4312 32.536,-30.4986 32.5359,-2.0301 105.7391,-4.0675 105.7391,-4.0675 0,0 -95.5706,-16.2661 -105.7391,-20.3336 -10.1687,-4.0674 -16.2699,-12.1987 -14.2361,-24.401 0,-10.1687 4.0674,-26.4348 26.4384,-30.5023 20.3336,-4.0674 36.5997,-8.1312 58.9708,-6.0975 24.401,2.0301 89.4729,12.1987 89.4729,12.1987 0,0 2.0302,-8.1313 -20.3372,-16.2662 -24.4011,-10.165 -75.2405,-12.2023 -75.2405,-36.59975"
   id="path242" /><path
   style="fill:none"
   d="m 1319.0055,1162.2402 c -2.0373,-18.2999 0,-26.4384 4.0602,-28.4758 4.0711,-2.03 67.1057,-16.2661 91.5067,-18.2999 24.4011,-4.0674 75.2406,-8.1312 83.3755,-14.2324 8.1349,-6.1012 18.2999,-8.1349 32.536,-20.3372 12.1987,-12.1988 46.7647,-46.7684 63.0346,-50.8323 14.2324,-2.0337 24.401,-6.0975 36.5997,12.2024 12.2024,18.3036 14.236,32.5323 10.1687,46.7684 -6.1012,14.2361 -30.4987,50.8359 -79.3044,79.308 -46.7684,26.4312 -61.0046,30.4986 -79.3044,30.4986 -18.2999,0 -97.6043,10.1686 -128.1065,4.0674 -30.5022,-6.1011 -32.5324,-20.3372 -34.5661,-40.6672"
   id="path240" /><path
   style="fill:none"
   d="m 1349.5042,1229.3422 c 30.4985,0 126.0727,-2.03 142.3425,-4.071 14.2361,-2.0301 48.8022,-10.165 71.1731,-24.4011 22.3673,-16.2661 73.2032,-52.8696 81.3381,-50.8322 6.1012,0 28.4649,8.1313 30.5023,26.4311 2.0337,20.3373 0,50.8395 -36.6035,87.443 -36.6034,36.6034 -105.7428,44.7346 -146.41,52.8732 -40.6709,6.0976 -79.308,12.1987 -93.5404,10.1613 -14.2325,0 -71.1695,-8.1312 -73.2032,-30.5022 -2.0337,-22.3674 -4.0675,-67.1021 24.4011,-67.1021"
   id="path238" /><path
   style="fill:none"
   d="m 1646.388,1314.7514 c 6.1048,-4.0674 4.0711,109.8067 -12.195,176.9087 -14.2325,65.0683 -63.0346,266.378 -73.2032,280.6141 -8.135,14.236 -77.2707,48.8057 -97.6079,58.9744 -22.3674,10.1686 -75.237,28.4685 -77.2744,28.4685 -4.0674,2.0373 -28.4684,12.1987 -28.4684,-18.2999 2.0337,-32.536 8.1312,-185.0472 -2.0374,-288.749 -10.1614,-105.7428 -12.1987,-148.451 -12.1987,-162.6798 -2.0338,-12.1987 -4.0675,-34.5733 18.2998,-34.5733 20.3373,-2.0265 87.4393,0 136.2451,-8.1277 48.8021,-8.1385 142.339,-30.4985 148.4401,-32.536"
   id="path236" /><path
   style="fill:none"
   d="m 684.55972,1530.2972 c 2.0373,0 12.206,16.2626 16.2734,22.371 6.1012,6.0939 97.6042,132.1703 227.7481,158.6087 128.10648,28.465 172.84118,-4.0674 185.04358,-18.3034 14.2324,-16.2626 42.7045,-95.567 50.8358,-117.9343 6.0975,-20.3372 20.3337,-42.7046 52.8696,-48.8058 12.1987,-4.071 30.5022,-8.1349 44.7383,-8.1349 28.4649,-2.03 52.8659,2.0374 63.0346,10.1687 14.2324,10.1686 14.2324,109.8065 8.1312,164.7063 -6.0975,52.8695 -18.2999,156.5822 -22.3673,164.7099 -2.0338,6.1012 -56.9371,34.5696 -166.7437,36.6033 -111.8403,4.0748 -313.15358,-32.5286 -420.92648,-91.4994 -107.7693,-54.9033 -150.47382,-97.6079 -193.17852,-140.3125 -42.7009,-42.7045 -34.566,-38.6335 -30.5022,-48.8057 2.0337,-10.165 12.1988,-28.4649 18.2999,-30.5023 6.1011,-2.03 40.6709,-4.0638 67.1057,-10.165 26.43112,-6.1011 65.06832,-14.2361 77.27062,-26.4384 14.2325,-14.2288 18.2999,-16.2662 22.3674,-16.2662"
   id="path234" /><path
   style="fill:none"
   d="m 1831.4352,1823.11 c 12.1987,6.1048 44.7346,-10.1613 93.5295,-58.9671 46.7684,-48.8021 63.0346,-73.2069 83.3719,-101.6717 18.2998,-26.4385 103.7053,-176.9087 134.2113,-321.285 30.4986,-144.3763 30.4986,-187.0772 30.4986,-254.1865 0,-65.0719 -28.465,-268.4153 -71.1695,-368.05332 -44.7347,-99.64163 -83.3719,-211.48561 -172.8448,-292.82006 -87.4357,-81.34174 -250.1155,-197.24589 -443.294,-248.08538 -195.2121,-50.83222 -246.048,-44.73104 -309.0862,-46.76841 -61.0008,-2.03737 -225.71438,10.16498 -327.38608,30.50224 -101.6717,20.32997 -134.2113,34.56605 -162.6762,40.66723 C 658.12492,208.54318 381.571,332.58222 261.5957,533.89921 143.6542,737.2463 117.2194,981.2605 125.3543,1107.3333 c 6.1048,126.0764 36.6035,473.7998 215.5494,673.0758 176.9087,199.2832 394.49182,288.7526 746.279,307.0561 351.7908,18.3035 530.7368,-124.039 530.7368,-124.039 l 22.3674,-170.8148 c 0,0 -241.9806,132.1776 -506.3322,136.2487 C 869.60682,1934.954 625.58892,1833.2859 477.1487,1666.535 328.7087,1499.7913 279.9028,1176.469 302.2702,946.6945 326.6713,716.90902 426.313,485.09708 743.53412,365.12184 1058.7214,247.17668 1438.9771,342.7545 1540.6489,373.2531 c 103.709,28.46851 394.4953,217.5795 453.4624,567.3402 56.9371,347.7233 -54.9032,504.2984 -83.3717,569.3703 -26.4348,63.0346 -63.0383,130.1439 -71.1732,185.0436 -6.0975,54.8996 -18.2962,119.9788 -8.1312,128.1028"
   id="path232" /><path
   style="fill:none"
   d="m 588.9891,1349.3175 c -2.0337,-20.3336 -36.6034,-42.701 -58.9708,-40.6709 -22.3673,4.0748 -22.3673,4.0748 -38.6371,12.2024 -16.2662,8.1349 -26.4348,32.5396 -16.2662,56.9407 10.1651,26.4311 52.8696,24.3974 79.3044,20.3336 26.4348,-4.0712 36.6035,-28.4721 34.5697,-48.8058 z"
   id="path230" />
</svg>
