<?xml version="1.0" encoding="UTF-8" standalone="no"?>
<svg
   version="1.1"
   id="svg8"
   x="0px"
   y="0px"
   viewBox="0 0 2267.7175 2267.7185"
   xml:space="preserve"
   sodipodi:docname="conabio_horizontal_2.svg"
   inkscape:version="1.2.2 (b0a8486541, 2022-12-01)"
   xmlns:inkscape="http://www.inkscape.org/namespaces/inkscape"
   xmlns:sodipodi="http://sodipodi.sourceforge.net/DTD/sodipodi-0.dtd"
   xmlns="http://www.w3.org/2000/svg"
   xmlns:svg="http://www.w3.org/2000/svg"
   xmlns:rdf="http://www.w3.org/1999/02/22-rdf-syntax-ns#"
   xmlns:cc="http://creativecommons.org/ns#"
   xmlns:dc="http://purl.org/dc/elements/1.1/"><sodipodi:namedview
   id="namedview79"
   pagecolor="#ffffff"
   bordercolor="#666666"
   borderopacity="1.0"
   inkscape:showpageshadow="2"
   inkscape:pageopacity="0.0"
   inkscape:pagecheckerboard="0"
   inkscape:deskcolor="#d1d1d1"
   showgrid="false"
   inkscape:zoom="0.11321952"
   inkscape:cx="2437.7422"
   inkscape:cy="900.90472"
   inkscape:window-width="1600"
   inkscape:window-height="837"
   inkscape:window-x="0"
   inkscape:window-y="0"
   inkscape:window-maximized="1"
   inkscape:current-layer="svg8" /><metadata
   id="metadata8"><rdf:RDF><cc:Work
       rdf:about=""><dc:format>image/svg+xml</dc:format><dc:type
         rdf:resource="http://purl.org/dc/dcmitype/StillImage" /></cc:Work></rdf:RDF></metadata><defs
   id="defs6">
</defs>

<path
   style="fill:none"
   d="m 234.62032,1502.1606 c -18.3036,0 -34.5697,-4.0639 -48.8021,-12.2024 -14.2361,-8.1276 -24.4047,-18.2999 -32.536,-30.5022 -8.1349,-12.2024 -12.2024,-30.4986 -12.2024,-46.7648 0,-16.2734 4.0675,-32.536 12.2024,-46.7757 8.1349,-14.2361 18.3035,-24.401 32.536,-32.536 14.2361,-8.1276 30.5022,-10.1649 48.8021,-10.1649 14.236,0 28.4685,2.0337 40.6672,8.1349 12.2024,4.0675 22.371,12.2023 30.5023,22.3673 l -26.4312,24.4011 c -10.1686,-14.2325 -26.4384,-20.3373 -42.701,-20.3373 -10.1722,0 -20.3409,2.0373 -28.4721,6.1048 -8.1312,4.0639 -16.2661,12.1988 -20.3336,20.3336 -4.0675,8.1386 -6.1012,18.3036 -6.1012,28.4722 0,10.165 2.0337,20.3372 6.1012,28.4649 4.0675,8.1349 12.2024,14.2361 20.3336,20.3336 8.1349,4.0674 18.3036,6.1048 28.4721,6.1048 16.2626,0 32.5324,-6.1048 42.701,-20.3372 l 26.4312,24.401 c -8.1313,10.1723 -18.2999,16.2662 -30.5023,22.371 -12.1987,6.0939 -26.4312,8.1313 -40.6672,8.1313 z"
   id="path432" /><path
   id="path430"
   style="fill:none"
   d="m 442.03102,1323.2136 c -16.2699,0 -32.5349,4.0649 -48.8047,10.166 -14.2324,8.135 -24.3986,20.3365 -32.5371,32.5352 -8.1312,14.2397 -12.1992,30.5039 -12.1992,46.7773 0,16.2662 4.068,30.4983 12.1992,44.7344 8.1349,14.2287 18.3047,24.4001 32.5371,32.5313 16.2735,8.1385 32.5348,12.2031 48.8047,12.2031 18.2998,0 34.5707,-4.0646 48.8067,-12.2031 14.2325,-8.1276 26.4334,-18.2989 34.5683,-32.5313 8.1312,-12.206 12.1992,-28.4719 12.1992,-44.7344 0,-16.2734 -4.068,-32.5376 -12.1992,-46.7773 -8.1349,-12.1987 -20.3358,-24.3966 -34.5683,-32.5352 -14.2324,-6.1011 -30.5032,-10.166 -48.8067,-10.166 z m 0,34.5664 c 10.1686,0 20.3379,2.038 28.4727,6.1055 8.1349,4.0639 14.2329,12.1992 20.334,20.334 4.0675,8.1349 6.0976,18.3003 6.0976,28.4726 0,10.1614 -2.0301,20.3336 -6.0976,28.4649 -6.1011,8.1349 -12.1991,14.2345 -20.334,20.332 -8.1348,4.0674 -18.3041,6.1055 -28.4727,6.1055 -10.1687,0 -18.3006,-2.0381 -26.4355,-6.1055 -8.135,-6.0975 -16.2685,-12.1971 -20.336,-20.332 -4.0674,-8.1277 -6.1015,-18.2999 -6.1015,-28.4649 0,-10.1686 2.0341,-20.334 6.1015,-28.4726 4.0675,-8.1385 12.1974,-16.2701 20.336,-20.334 8.1312,-4.0675 16.2668,-6.1055 26.4355,-6.1055 z" /><path
   style="fill:none"
   d="m 793.82562,1498.0967 h -38.6408 v -103.709 l -50.8358,85.4092 h -18.2999 l -50.8395,-83.3755 v 101.6753 h -36.5998 v -172.8448 h 32.536 l 65.0719,107.7729 63.0383,-107.7729 h 34.5696 z"
   id="path426" /><path
   style="fill:none"
   d="m 864.99512,1498.0967 v -172.8448 h 40.6667 v 172.8448 z"
   id="path424" /><path
   style="fill:none"
   d="m 1031.7388,1502.1606 c -12.202,0 -26.435,-2.0337 -38.641,-6.0939 -12.202,-4.0639 -22.371,-8.1349 -30.502,-14.2288 l 12.199,-30.5023 c 8.131,6.1012 16.266,10.1614 26.434,14.2288 12.203,2.0338 22.364,4.0711 32.536,4.0711 10.169,0 18.304,-2.0337 24.401,-4.0711 6.102,-2.03 8.135,-8.1276 8.135,-14.2288 0,-4.071 -2.033,-8.1348 -4.063,-10.1722 -2.034,-2.0301 -8.135,-6.1012 -12.203,-6.1012 -6.101,-2.0301 -12.202,-4.0638 -20.337,-6.0975 -14.233,-4.0675 -24.401,-6.1048 -32.532,-10.1687 -10.169,-2.0337 -16.27,-8.1312 -22.371,-14.2288 -6.098,-6.1048 -8.132,-16.2734 -8.132,-28.4757 0,-10.1687 2.034,-18.3036 8.132,-26.4275 6.101,-8.1386 12.202,-14.2397 24.401,-20.3409 10.168,-4.0639 24.397,-6.1012 38.637,-6.1012 12.199,0 22.367,0 32.536,4.0637 12.202,2.0375 20.333,6.1012 28.468,10.1723 l -12.202,30.4987 c -16.266,-8.135 -32.536,-12.1987 -48.802,-12.1987 -10.165,0 -18.3,0 -24.401,4.0637 -6.101,4.0675 -8.132,8.1313 -8.132,14.2361 0,6.1011 4.068,10.165 10.169,14.2288 6.101,2.0337 14.233,6.0976 28.469,8.1313 12.198,4.0675 22.367,6.1048 32.536,10.1686 8.134,2.0337 14.232,8.1386 20.333,14.2361 6.101,6.1012 10.169,16.2661 10.169,28.4685 0,8.1385 -4.068,18.3035 -8.135,26.4384 -6.098,8.1313 -14.233,14.2324 -26.435,18.2999 -10.161,6.0939 -24.401,8.1313 -40.667,8.1313 z"
   id="path422" /><path
   style="fill:none"
   d="m 1163.9128,1498.0967 v -172.8448 h 40.667 v 172.8448 z"
   id="path420" /><path
   id="path418"
   style="fill:none"
   d="m 1359.1248,1323.2136 c -18.3,0 -34.5668,4.0649 -48.8028,10.166 -14.236,8.135 -26.4333,20.3365 -34.5683,32.5352 -8.131,14.2397 -12.1992,30.5039 -12.1992,46.7773 0,16.2662 4.0682,30.4983 12.1992,44.7344 8.135,14.2287 20.3353,24.4001 34.5683,32.5313 14.232,8.1385 30.5028,12.2031 48.8028,12.2031 18.304,0 34.5706,-4.0646 48.8066,-12.2031 14.232,-8.1276 24.4004,-18.2989 34.5684,-32.5313 8.132,-12.206 12.1992,-28.4719 12.1992,-44.7344 0,-16.2734 -4.0672,-32.5376 -12.1992,-46.7773 -10.168,-12.1987 -20.3364,-24.3966 -34.5684,-32.5352 -14.233,-6.1011 -30.5026,-10.166 -48.8066,-10.166 z m 0,34.5664 c 10.169,0 20.3376,2.038 28.4726,6.1055 8.131,4.0639 14.2318,12.1992 18.2989,20.334 6.101,8.1349 8.1308,18.3003 8.1308,28.4726 0,10.1614 -2.0329,20.3336 -8.1308,28.4649 -4.0671,8.1349 -10.1679,14.2345 -18.2989,20.332 -8.135,4.0674 -18.3036,6.1055 -28.4726,6.1055 -10.165,0 -20.3338,-2.0381 -28.4688,-6.1055 -8.134,-6.0975 -12.2018,-12.1971 -18.2988,-20.332 -6.102,-8.1277 -8.1348,-18.2999 -8.1348,-28.4649 0,-10.1686 4.0638,-20.334 8.1348,-28.4726 4.067,-8.1348 10.1648,-16.2701 18.2988,-20.334 8.132,-4.0675 18.2998,-6.1055 28.4688,-6.1055 z" /><path
   style="fill:none"
   d="m 1336.7578,1311.0159 32.532,-34.5661 h 42.705 l -44.735,34.5661 z"
   id="path414" /><path
   style="fill:none"
   d="m 1633.6418,1325.2519 h 40.67 v 172.8448 h -34.569 l -85.406,-103.709 v 103.709 h -40.667 v -172.8448 h 34.566 l 85.406,105.7392 z"
   id="path412" /><path
   style="fill:none"
   d="m 1963.0648,1325.2519 h 40.667 v 172.8448 h -32.536 l -87.435,-103.709 v 103.709 h -38.641 v -172.8448 h 32.536 l 85.409,105.7392 z"
   id="path410" /><path
   id="path408"
   style="fill:none"
   d="m 2129.8084,1325.2527 -77.2754,172.8437 h 40.6718 l 16.2696,-36.6074 h 79.3047 l 16.2695,36.6074 h 40.668 l -77.2715,-172.8437 z m 18.3027,40.666 28.4726,65.0723 h -54.9062 z" /><path
   style="fill:none"
   d="m 2375.8568,1502.1606 c -18.3,0 -34.57,-4.0639 -48.802,-12.2024 -14.233,-8.1276 -26.435,-18.2999 -34.57,-30.5022 -8.135,-12.2024 -12.203,-30.4986 -12.203,-46.7648 0,-16.2734 4.072,-32.536 12.203,-46.7757 8.135,-14.2361 20.337,-24.401 34.57,-32.536 14.232,-8.1276 30.502,-10.1649 48.802,-10.1649 14.236,0 28.465,2.0337 40.671,8.1349 12.202,4.0675 22.367,12.2023 30.502,22.3673 l -26.439,24.4011 c -12.202,-14.2325 -26.434,-20.3373 -42.701,-20.3373 -10.168,0 -20.341,2.0373 -28.468,6.1048 -8.139,4.0639 -16.27,12.1951 -20.337,20.3336 -4.068,8.1386 -6.102,18.3036 -6.102,28.4722 0,10.165 2.034,20.3372 6.102,28.4649 4.067,8.1349 12.198,14.2361 20.337,20.3336 8.131,4.0674 18.303,6.1048 28.468,6.1048 16.267,0 30.499,-6.1048 42.701,-20.3372 l 26.439,24.401 c -8.135,10.1723 -18.3,16.2662 -30.502,22.371 -12.203,6.0939 -26.435,8.1313 -40.671,8.1313 z"
   id="path404" /><path
   style="fill:none"
   d="m 2503.9668,1498.0967 v -172.8448 h 40.671 v 172.8448 z"
   id="path402" /><path
   id="path400"
   style="fill:none"
   d="m 2699.1755,1323.2136 c -18.3,0 -34.5657,4.0649 -48.8027,10.166 -14.232,8.135 -26.4313,20.3365 -34.5703,32.5352 -8.127,14.2397 -12.1973,30.5039 -12.1973,46.7773 0,16.2662 4.0663,30.4983 12.1973,44.7344 8.139,14.2287 20.3383,24.4001 34.5703,32.5313 14.237,8.1385 30.5067,12.2031 48.8027,12.2031 18.304,0 34.5717,-4.0646 48.8047,-12.2031 14.232,-8.1276 24.4051,-18.2989 32.5371,-32.5313 8.138,-12.206 12.2012,-28.4719 12.2012,-44.7344 0,-16.2734 -4.0592,-32.5376 -12.2012,-46.7773 -8.128,-12.1987 -18.3011,-24.3966 -32.5371,-32.5352 -14.229,-6.1011 -30.4977,-10.166 -48.8047,-10.166 z m 0,34.5664 c 10.169,0 18.3027,2.038 28.4708,6.1055 8.135,4.0639 14.2367,12.1992 18.3007,20.334 4.068,8.1349 8.1348,18.3003 8.1348,28.4726 0,10.1614 -4.0668,20.3336 -8.1348,28.4649 -4.064,8.1349 -10.1657,14.2345 -18.3007,20.332 -10.1651,4.0674 -18.3018,6.1055 -28.4708,6.1055 -10.161,0 -20.3338,-2.0381 -28.4648,-6.1055 -8.135,-6.0975 -12.2038,-12.1971 -18.3008,-20.332 -6.106,-8.1277 -8.1308,-18.2999 -8.1308,-28.4649 0,-10.1686 4.0588,-20.334 8.1308,-28.4726 4.067,-8.1348 10.1658,-16.2701 18.3008,-20.334 8.128,-4.0675 18.2998,-6.1055 28.4648,-6.1055 z" /><path
   style="fill:none"
   d="m 2973.6918,1325.2519 h 38.64 v 172.8448 h -32.536 l -85.409,-103.709 v 103.709 h -40.667 v -172.8448 h 32.539 l 87.433,105.7392 z"
   id="path396" /><path
   id="path394"
   style="fill:none"
   d="m 3138.408,1325.2527 -77.2696,172.8437 h 40.666 l 16.2657,-36.6074 h 79.3086 l 16.2636,36.6074 h 42.7051 l -77.2676,-172.8437 z m 20.3339,40.666 26.4356,65.0723 h -54.9043 z" /><path
   style="fill:none"
   d="m 3303.1148,1498.0967 v -172.8448 h 40.671 v 140.3052 h 87.44 v 32.5396 z"
   id="path390" /><path
   id="path388"
   style="fill:none"
   d="m 3583.7361,1325.2527 v 172.8437 h 40.6699 v -46.7675 h 34.5664 c 14.233,0 28.4691,-2.0373 40.6641,-8.1348 10.172,-4.0639 18.3003,-12.203 24.4043,-20.3379 6.098,-10.1614 10.166,-22.3677 10.166,-34.5664 0,-12.1987 -4.068,-24.3964 -10.166,-32.5312 -6.104,-10.1688 -14.2323,-18.3004 -24.4043,-22.375 -12.195,-6.1013 -26.4282,-8.1309 -40.6602,-8.1309 z m 40.6699,32.5312 h 32.5332 c 12.202,0 20.3346,4.0708 26.4356,8.1309 6.101,6.1048 10.1679,12.2061 10.1679,22.3711 0,10.1686 -4.0669,18.3 -10.1679,22.3711 -6.101,6.0975 -14.2336,8.1308 -26.4356,8.1308 h -32.5332 z" /><path
   id="path384"
   style="fill:none"
   d="m 3837.9236,1325.2527 -77.2715,172.8437 h 40.666 l 16.2715,-36.6074 h 81.334 l 14.2324,36.6074 h 42.7012 l -77.2695,-172.8437 z m 20.334,40.666 26.4336,65.0723 h -54.9082 z" /><path
   id="path380"
   style="fill:none"
   d="m 4004.6599,1325.2527 v 172.8437 h 38.6367 v -46.7675 h 34.5684 2.0371 l 34.5684,46.7675 h 42.6992 l -38.6367,-54.9062 c 12.207,-4.0639 20.3335,-12.203 26.4375,-20.3379 6.102,-10.1614 8.1328,-22.3677 8.1328,-34.5664 0,-12.1987 -2.0348,-24.3965 -8.1328,-32.5313 -6.104,-10.1687 -16.2685,-16.2739 -26.4375,-22.375 -10.165,-6.1012 -24.398,-8.1269 -40.668,-8.1269 z m 38.6328,32.5312 h 32.5352 c 12.202,0 22.3707,4.0708 28.4687,8.1309 6.105,6.1048 10.1739,12.2061 10.1739,22.3711 0,10.1686 -4.0689,18.3 -10.1739,22.3711 -6.098,6.0975 -16.2667,8.1308 -28.4687,8.1308 h -32.5352 z" /><path
   id="path376"
   style="fill:none"
   d="m 4271.0447,1325.2527 -77.2715,172.8437 h 40.668 l 14.2324,-36.6074 h 81.3379 l 16.2734,36.6074 h 40.668 l -77.2676,-172.8437 z m 18.3027,40.666 28.4727,65.0723 h -54.9024 z" /><path
   style="fill:none"
   d="m 189.88192,1748.2122 h 95.5706 v 30.5023 h -134.2077 v -172.8448 h 130.1402 v 32.5323 h -91.5031 v 36.6034 h 81.3382 v 32.5359 h -81.3382 z"
   id="path372" /><path
   style="fill:none"
   d="m 346.46062,1778.7145 v -172.8448 h 40.6709 v 140.3052 h 87.4356 v 32.5396 z"
   id="path370" /><path
   style="fill:none"
   d="m 710.45012,1782.7819 c -18.2999,0 -34.5696,-4.0674 -48.8021,-12.2059 -14.2397,-8.1277 -24.4047,-18.3 -32.5396,-32.5324 -8.1349,-14.236 -12.2023,-28.4686 -12.2023,-44.7347 0,-16.2662 4.0711,-32.5359 12.2023,-46.7684 8.1386,-14.2397 18.3036,-24.4047 32.5396,-32.5396 14.2361,-8.1276 30.5022,-10.165 48.8021,-10.165 14.2325,0 28.4686,2.0338 40.6709,8.135 12.2024,4.0674 22.3674,12.1986 30.5023,22.3673 l -26.4348,22.3636 c -10.165,-12.1986 -26.4348,-20.3263 -42.7046,-20.3263 -10.1686,0 -20.3337,4.0602 -28.4686,8.1277 -8.1312,4.071 -16.2661,10.1686 -20.3336,20.3372 -4.0674,10.1686 -6.0975,16.2662 -6.0975,28.4685 0,12.1988 2.0301,20.3409 6.0975,28.4649 4.0675,8.1385 12.2024,14.2397 20.3336,20.3409 8.1386,4.0638 18.3036,6.1012 28.4686,6.1012 16.2698,0 32.5396,-6.1012 42.7046,-20.3373 l 26.4348,24.4011 c -8.1349,8.1385 -18.2999,16.2734 -30.5023,22.3709 -12.1987,6.1012 -26.4384,8.1313 -40.6709,8.1313 z"
   id="path368" /><path
   id="path366"
   style="fill:none"
   d="m 917.86112,1603.8367 c -16.262,0 -32.5352,4.0665 -46.7676,10.164 -16.2662,8.1349 -26.439,18.2994 -34.5703,32.5391 -8.1312,14.2325 -12.1992,30.5033 -12.1992,46.7695 0,16.2661 4.068,30.4984 12.1992,44.7344 8.1313,14.2324 18.3041,24.4055 34.5703,32.5332 14.236,8.1385 30.5056,12.2051 46.7676,12.2051 18.304,0 34.57058,-4.063 48.80658,-12.2051 14.236,-8.1241 26.4334,-18.3008 34.5684,-32.5332 8.135,-12.2023 12.2031,-26.4345 12.2031,-44.7344 0,-18.2999 -4.0681,-32.537 -12.2031,-46.7695 -8.135,-14.236 -20.3324,-24.4006 -34.5684,-32.5391 -14.236,-6.0975 -30.50258,-10.164 -48.80658,-10.164 z m 0,32.5351 c 12.203,0 20.3367,4.0596 28.4687,8.127 8.13498,4.0711 14.23688,10.1729 20.33788,20.3379 4.067,8.1312 6.0957,18.3 6.0957,28.4687 0,10.1686 -2.0317,20.3373 -6.0957,28.4649 -6.101,8.1386 -12.1999,14.2386 -20.33788,20.3398 -8.132,4.0675 -16.2627,6.1016 -28.4687,6.1016 -10.165,0 -18.3007,-2.0377 -26.4316,-6.1016 -8.1313,-6.1012 -16.2686,-12.2012 -20.336,-20.3398 -4.0675,-8.1239 -6.0976,-16.2662 -6.0976,-28.4649 0,-12.2024 0,-18.3001 6.0976,-28.4687 6.1011,-10.165 12.201,-16.2668 20.336,-20.3379 8.1309,-4.0674 16.2706,-8.127 26.4316,-8.127 z" /><path
   style="fill:none"
   d="m 1194.4108,1605.8697 h 38.645 v 172.8448 h -32.54 l -87.439,-103.7091 v 103.7091 h -38.637 v -172.8448 h 32.536 l 87.435,105.7391 z"
   id="path362" /><path
   id="path360"
   style="fill:none"
   d="m 1387.5935,1603.8367 c -18.3,0 -34.5706,4.0665 -48.8066,10.164 -14.233,8.1349 -24.4002,18.2994 -32.5352,32.5391 -8.132,14.2325 -12.2031,30.5033 -12.2031,46.7695 0,16.2661 4.0711,30.4984 12.2031,44.7344 8.131,14.2324 18.2992,24.4055 32.5352,32.5332 14.236,8.1385 30.5066,12.2051 48.8066,12.2051 18.299,0 34.5668,-4.063 48.8028,-12.2051 14.236,-8.1241 26.4333,-18.3008 34.5683,-32.5332 8.132,-12.2023 12.1992,-26.4345 12.1992,-44.7344 0,-18.2999 -4.0672,-32.537 -12.1992,-46.7695 -8.131,-14.236 -20.3324,-24.4006 -34.5683,-32.5391 -14.2361,-6.0975 -30.5038,-10.164 -48.8028,-10.164 z m 0,32.5351 c 10.168,0 20.3338,4.0596 28.4688,8.127 8.135,4.0711 14.2349,10.1729 20.3359,20.3379 4.068,8.1312 6.1016,18.3 6.1016,28.4687 0,10.1686 -2.0376,20.3373 -6.1016,28.4649 -6.097,8.1386 -12.1969,14.2386 -20.3359,20.3398 -8.135,4.0675 -18.3008,6.1016 -28.4688,6.1016 -10.169,0 -18.3005,-2.0377 -26.4355,-6.1016 -8.135,-6.1012 -16.266,-12.2012 -20.334,-20.3398 -4.067,-8.1239 -6.0996,-16.2662 -6.0996,-28.4649 0,-12.2024 2.0326,-18.3001 6.0996,-28.4687 4.068,-10.165 12.199,-16.2668 20.334,-20.3379 8.131,-4.0674 16.2665,-8.127 26.4355,-8.127 z" /><path
   style="fill:none"
   d="m 1625.5098,1782.7819 c -16.266,0 -32.536,-4.0674 -46.768,-12.2059 -14.233,-8.1277 -26.435,-18.3 -34.566,-32.5324 -8.135,-14.236 -12.203,-28.4686 -12.203,-44.7347 0,-16.2662 4.068,-32.5359 12.203,-46.7684 8.131,-14.2397 20.33,-24.4047 34.566,-32.5396 14.236,-8.1276 30.502,-10.165 48.802,-10.165 14.236,0 28.469,2.0338 40.671,8.135 12.202,4.0674 22.371,12.1986 30.502,22.3673 l -26.435,22.3636 c -12.198,-12.1986 -26.438,-20.3263 -42.704,-20.3263 -12.199,0 -20.33,4.0602 -30.503,8.1277 -8.127,4.071 -14.228,10.1722 -18.299,20.3372 -4.061,10.1686 -8.132,16.2662 -8.132,28.4685 0,12.1988 2.034,20.3409 8.132,28.4649 6.101,8.1385 10.168,14.2397 18.299,20.3409 10.169,4.0638 18.304,6.1012 30.503,6.1012 16.266,0 30.506,-6.1012 42.704,-20.3373 l 26.435,24.4011 c -8.131,8.1385 -18.303,16.2734 -30.502,22.3709 -12.202,6.1012 -26.435,8.1313 -42.705,8.1313 z"
   id="path356" /><path
   style="fill:none"
   d="m 1755.6538,1778.7145 v -172.8448 h 38.634 v 172.8448 z"
   id="path354" /><path
   style="fill:none"
   d="m 2060.6728,1778.7145 h -36.607 v -103.7091 l -50.836,85.4092 h -18.3 l -50.836,-83.3719 v 101.6718 h -38.637 v -172.8448 h 34.57 l 65.072,107.7728 63.038,-107.7728 h 32.536 z"
   id="path352" /><path
   style="fill:none"
   d="m 2131.8418,1778.7145 v -172.8448 h 40.668 v 172.8448 z"
   id="path350" /><path
   style="fill:none"
   d="m 2284.3538,1748.2122 h 93.536 v 30.5023 h -134.207 v -172.8448 h 132.174 v 32.5323 h -91.503 v 36.6034 h 79.308 v 32.5359 h -79.308 z"
   id="path348" /><path
   style="fill:none"
   d="m 2558.8698,1605.8697 h 40.667 v 172.8448 h -32.536 l -87.435,-103.7091 v 103.7091 h -38.637 v -172.8448 h 32.536 l 85.405,105.7391 z"
   id="path346" /><path
   style="fill:none"
   d="m 2705.2808,1638.402 h 2.033 -56.941 v -32.5323 h 152.515 v 32.5323 h -56.941 v 140.3125 h -40.666 z"
   id="path344" /><path
   id="path342"
   style="fill:none"
   d="m 2935.0642,1603.8367 c -18.303,0 -34.5677,4.0665 -48.8047,10.164 -14.236,8.1349 -26.4384,18.2994 -34.5664,32.5391 -8.138,14.2325 -12.2031,30.5033 -12.2031,46.7695 0,16.2661 4.0621,30.4984 12.2031,44.7344 8.128,14.2324 20.3304,24.4055 34.5664,32.5332 14.233,8.1385 30.5017,12.2051 48.8047,12.2051 18.3,0 34.5677,-4.063 48.8027,-12.2051 14.236,-8.1241 24.3971,-18.3008 32.5391,-32.5332 10.161,-12.2023 14.2305,-26.4345 14.2305,-44.7344 0,-18.2999 -4.0695,-32.537 -14.2305,-46.7695 -8.138,-14.236 -18.2991,-24.4006 -32.5391,-32.5391 -14.232,-6.0975 -30.4987,-10.164 -48.8027,-10.164 z m 0,32.5351 c 10.161,0 20.3309,4.0596 28.4649,8.127 8.135,4.0711 14.2326,10.1729 18.3046,20.3379 4.06,8.1312 8.127,18.3 8.127,28.4687 0,10.1686 -4.067,20.3373 -8.127,28.4649 -4.072,8.1386 -10.1696,14.2386 -18.3046,20.3398 -8.134,4.0675 -18.3039,6.1016 -28.4649,6.1016 -10.172,0 -20.3356,-2.0377 -28.4746,-6.1016 -8.131,-6.1012 -12.2038,-12.2012 -18.3008,-20.3398 -6.098,-8.1239 -8.1308,-16.2662 -8.1308,-28.4649 0,-12.2024 4.0708,-18.3001 8.1308,-28.4687 4.067,-10.165 10.1698,-16.2668 18.3008,-20.3379 8.136,-4.0674 18.2986,-8.127 28.4746,-8.127 z" /><path
   style="fill:none"
   d="m 3341.7588,1605.8697 -69.139,111.8403 v 61.0045 h -38.638 V 1717.71 l -67.104,-111.8403 h 42.707 l 44.731,77.2706 46.769,-77.2706 z"
   id="path338" /><path
   style="fill:none"
   d="m 3565.4358,1782.7819 c -24.404,0 -44.741,-8.1349 -58.978,-20.33 -14.229,-14.2397 -20.33,-34.577 -20.33,-58.978 v -97.6006 h 40.668 v 95.5742 c 0,30.5022 12.202,46.7684 38.637,46.7684 12.202,0 22.367,-4.0674 28.472,-12.2024 6.098,-6.0976 10.165,-18.2998 10.165,-34.566 v -95.5742 h 38.637 v 97.6006 c 0,24.4047 -6.101,44.742 -20.333,58.978 -14.233,12.1987 -32.536,20.33 -56.938,20.33 z"
   id="path336" /><path
   style="fill:none"
   d="m 3770.8138,1782.7819 c -14.233,0 -28.466,-2.0301 -40.671,-6.0975 -12.203,-4.0675 -22.367,-8.1276 -30.502,-14.2288 l 12.205,-30.5022 c 8.136,6.0975 18.3,10.1649 28.469,14.2288 10.168,2.0337 20.338,4.071 30.502,4.071 10.166,0 18.3,-2.0337 24.397,-4.071 6.101,-2.0265 8.135,-8.1313 8.135,-14.2288 0,-4.0712 -2.03,-8.1386 -4.067,-10.176 -2.037,-2.0264 -8.135,-6.0975 -12.198,-6.0975 -6.106,-2.0301 -12.203,-4.0638 -20.338,-6.1012 -14.236,-4.0674 -24.401,-6.1012 -32.535,-10.1649 -10.166,-2.0265 -16.271,-8.1313 -22.368,-14.2288 -6.098,-8.135 -8.132,-16.2699 -8.132,-28.4759 0,-10.1613 2.031,-18.2998 8.132,-26.4275 6.097,-8.1349 12.198,-14.236 24.401,-20.3372 10.162,-4.0638 24.401,-6.1012 40.667,-6.1012 10.169,0 20.33,0 32.536,4.0675 10.169,2.0337 18.303,6.0975 26.435,10.1686 l -12.199,30.5022 c -16.27,-8.1385 -32.539,-14.236 -48.806,-14.236 -10.168,0 -18.3,2.0373 -24.401,6.0975 -4.07,4.0674 -8.131,8.1385 -8.131,14.2397 0,6.0976 4.061,10.165 10.165,14.2288 6.101,2.0337 14.236,6.0975 28.468,8.1349 12.207,4.0638 24.409,6.1012 32.537,10.165 8.134,2.03 14.235,8.1349 20.336,14.2361 6.102,6.0975 10.166,16.2662 10.166,26.4311 0,10.1723 -4.064,20.3409 -8.132,28.4721 -6.101,8.1314 -14.232,14.2289 -26.434,18.2999 -10.169,6.1012 -24.405,8.1313 -38.637,8.1313 z"
   id="path334" /><path
   id="path332"
   style="fill:none"
   d="m 3984.3298,1603.8367 c -18.305,0 -32.5356,4.0665 -48.8066,10.164 -14.232,8.1349 -24.4042,18.2994 -32.5352,32.5391 -8.136,14.2325 -12.207,30.5033 -12.207,46.7695 0,16.2661 4.068,30.4984 12.207,44.7344 8.127,14.2324 18.2992,24.4055 32.5352,32.5332 16.274,8.1385 30.5056,12.2051 48.8066,12.2051 18.299,0 34.5647,-4.063 48.8047,-12.2051 14.232,-8.1241 26.4314,-18.3008 34.5664,-32.5332 8.128,-12.2023 12.2012,-26.4345 12.2012,-44.7344 0,-18.2999 -4.0692,-32.537 -12.2012,-46.7695 -8.135,-14.236 -20.3344,-24.4006 -34.5664,-32.5391 -14.236,-6.0975 -30.5017,-10.164 -48.8047,-10.164 z m 0,32.5351 c 10.164,0 20.3298,4.0596 28.4668,8.127 8.136,4.0711 14.2329,10.1729 20.3379,20.3379 4.064,8.1312 6.0977,18.3 6.0977,28.4687 0,10.1686 -2.0337,20.3373 -6.0977,28.4649 -6.105,8.1386 -12.2019,14.2386 -20.3379,20.3398 -8.134,4.0675 -18.3028,6.1016 -28.4668,6.1016 -10.173,0 -18.3014,-2.0377 -26.4394,-6.1016 -8.131,-6.1012 -16.2701,-12.2012 -20.3301,-20.3398 -4.068,-8.1239 -6.1055,-16.2662 -6.1055,-28.4649 0,-12.2024 2.0375,-18.3001 6.1055,-28.4687 4.06,-10.165 12.1991,-16.2668 20.3301,-20.3379 8.134,-4.0674 16.2664,-8.127 26.4394,-8.127 z" /><path
   id="path328"
   style="fill:none"
   d="m 151.24782,1886.4871 v 172.8457 h 79.3047 c 18.3035,0 34.5706,-2.0388 48.8066,-10.17 14.2288,-6.0976 26.4299,-18.2995 34.5684,-30.5019 8.1312,-12.1987 12.1992,-26.4345 12.1992,-44.7344 0,-18.2998 -4.068,-32.5315 -12.1992,-46.7676 -8.1349,-12.2059 -20.3396,-22.3727 -34.5684,-30.5039 -14.236,-6.1012 -30.5031,-10.1679 -48.8066,-10.1679 z m 40.668,32.5371 h 36.5996 c 16.2699,0 30.507,6.1012 40.6719,14.2324 10.1687,10.1687 16.2656,24.4038 16.2656,40.6699 0,16.2698 -6.0969,28.4682 -16.2656,38.6367 -10.1686,10.1687 -24.402,14.2403 -40.6719,14.2403 h -36.5996 z" /><path
   style="fill:none"
   d="m 425.76132,2028.8263 h 93.5405 v 30.5058 h -134.2113 v -172.8484 h 132.1776 v 32.536 h -91.5068 v 36.6034 h 79.3081 v 32.536 h -79.3081 z"
   id="path324" /><path
   style="fill:none"
   d="m 681.98172,2059.3321 v -172.8484 h 40.6672 v 140.3161 h 87.4392 v 32.5323 z"
   id="path322" /><path
   id="path320"
   style="fill:none"
   d="m 917.86112,1886.4832 -77.2715,172.8496 h 40.668 l 16.2695,-36.6035 h 79.30468 l 16.2695,36.6035 h 42.7012 l -79.3047,-172.8496 z m 20.3359,38.6367 26.43558,67.1074 h -54.90238 z" /><path
   id="path316"
   style="fill:none"
   d="m 1182.2127,1886.4832 v 172.8496 h 91.5058 c 22.368,0 38.638,-4.0649 50.836,-12.2071 12.203,-8.1313 18.3007,-18.3002 18.3007,-34.5664 0,-10.1686 -4.0669,-20.3324 -10.1679,-26.4336 -4.061,-8.1276 -12.1963,-12.1982 -22.3653,-16.2656 8.131,-4.0638 12.2006,-8.1326 16.2676,-16.2676 4.067,-6.0976 6.0996,-14.2328 6.0996,-22.375 0,-14.2288 -4.0636,-24.3924 -16.2656,-32.5273 -10.169,-8.1349 -28.4726,-12.207 -48.8066,-12.207 z m 40.6718,30.5058 h 40.67 c 8.135,0 18.2991,7e-4 22.3671,4.0645 4.067,4.0674 6.1016,10.1647 6.1016,16.2695 0,6.1012 -6e-4,10.1722 -6.1016,14.2324 -6.098,4.0675 -14.2321,6.1055 -22.3671,6.1055 h -40.67 z m 0,69.1367 h 46.7676 c 22.371,0 32.5352,8.1348 32.5352,22.3672 0,8.1312 -4.0639,12.2061 -8.1309,16.2735 -6.105,4.0602 -14.2353,4.0605 -24.4043,4.0605 h -46.7676 z" /><path
   style="fill:none"
   d="m 1401.8298,2059.3321 v -172.8484 h 40.67 v 172.8484 z"
   id="path310" /><path
   id="path308"
   style="fill:none"
   d="m 1597.0427,1884.45 c -18.3,0 -32.5366,4.0709 -48.8066,10.1757 -14.232,8.124 -24.3981,18.3008 -32.5371,32.5332 -8.131,14.2361 -12.1973,30.5015 -12.1973,46.7676 0,16.2698 4.0663,30.502 12.1973,44.7344 8.135,14.2324 18.3011,24.4058 32.5371,32.5371 16.27,8.1348 30.5066,12.1973 48.8066,12.1973 18.3,0 34.5648,-4.0588 48.8008,-12.1973 14.24,-8.1276 26.4383,-18.3011 34.5703,-32.5371 8.134,-12.1987 12.2012,-26.4345 12.2012,-44.7344 0,-18.2998 -4.0672,-32.5315 -12.2012,-46.7676 -8.132,-14.2288 -20.3343,-24.4056 -34.5703,-32.5332 -14.233,-6.1048 -30.5008,-10.1757 -48.8008,-10.1757 z m 0,32.5351 c 10.168,0 20.3358,4.0654 28.4668,8.1328 8.132,4.0711 14.233,10.1675 20.334,20.336 4.071,8.1313 6.1055,18.3001 6.1055,28.4687 0,10.1686 -2.0385,20.3376 -6.1055,28.4688 -6.098,8.1349 -12.199,14.233 -20.334,20.3379 -8.135,4.0747 -18.2988,6.0976 -28.4668,6.0976 -10.169,0 -18.3006,-2.0266 -26.4316,-6.0976 -8.132,-6.1049 -16.2699,-12.203 -20.3379,-20.3379 -4.067,-8.1276 -6.0977,-16.2665 -6.0977,-28.4688 0,-12.2023 2.0347,-18.3 6.0977,-28.4687 4.068,-10.1685 12.2029,-16.2649 20.3379,-20.336 8.131,-4.0674 16.2666,-8.1328 26.4316,-8.1328 z" /><path
   id="path304"
   style="fill:none"
   d="m 1753.617,1886.4871 v 172.8457 h 77.2695 c 20.338,0 36.6038,-2.0388 50.8398,-10.17 14.232,-6.0976 28.4684,-18.2995 34.5664,-30.5019 6.101,-12.1987 10.17,-26.4345 10.17,-44.7344 0,-18.2998 -4.069,-32.5315 -10.17,-46.7676 -8.131,-12.2059 -20.3344,-22.3727 -34.5664,-30.5039 -14.236,-6.1012 -30.5018,-10.1679 -50.8398,-10.1679 z m 38.6367,32.5371 h 36.6035 c 18.3,0 32.5332,6.1012 42.7012,14.2324 10.169,10.1687 14.2324,24.4038 14.2324,40.6699 0,16.2698 -4.0634,28.4682 -14.2324,38.6367 -10.168,10.1687 -24.4012,14.2403 -42.7012,14.2403 h -36.6035 z" /><path
   style="fill:none"
   d="m 1987.4658,2059.3321 v -172.8484 h 40.671 v 172.8484 z"
   id="path300" /><path
   style="fill:none"
   d="m 2225.3788,1886.4873 h 38.645 l -75.241,172.8485 h -38.637 l -75.241,-172.8485 h 42.705 l 52.87,124.0427 z"
   id="path298" /><path
   style="fill:none"
   d="m 2349.4258,2028.8263 h 93.533 v 30.5058 h -134.208 v -172.8484 h 132.178 v 32.536 h -91.503 v 36.6034 h 79.304 v 32.536 h -79.304 z"
   id="path296" /><path
   id="path294"
   style="fill:none"
   d="m 2505.9959,1886.4832 v 172.8496 h 38.6386 v -46.7735 h 36.6016 l 34.5644,46.7735 h 42.711 l -38.6406,-54.9043 c 12.203,-6.1049 20.3366,-12.2025 26.4336,-22.3711 6.106,-8.1313 10.1738,-20.3331 10.1738,-32.5391 0,-12.1987 -4.0678,-24.3984 -10.1738,-32.5332 -6.097,-10.1651 -16.2616,-16.2657 -26.4336,-22.3633 -10.165,-6.1047 -24.3948,-8.1386 -38.6348,-8.1386 z m 38.6386,32.541 h 32.5352 c 12.206,0 22.3676,2.0335 28.4726,8.1347 6.101,6.0975 10.1602,12.1983 10.1602,22.3633 0,10.1759 -4.0592,16.2739 -10.1602,22.375 -6.105,6.1049 -16.2666,8.127 -28.4726,8.127 h -32.5352 z" /><path
   style="fill:none"
   d="m 2774.4148,2063.396 c -14.236,0 -26.434,-2.0301 -40.663,-6.0866 -12.203,-4.0639 -22.374,-8.1312 -30.502,-14.2288 l 14.232,-30.5059 c 6.101,6.1012 16.27,10.1687 26.435,14.2397 10.168,2.0229 20.334,4.0602 30.498,4.0602 12.203,0 20.338,-2.0373 24.405,-6.0975 4.068,-4.0712 8.131,-6.1049 8.131,-12.2061 0,-4.0673 0,-8.1312 -4.063,-10.1685 -4.072,-2.0338 -8.139,-6.1049 -12.202,-6.1049 -6.101,-2.0265 -12.207,-4.0602 -20.334,-6.0939 -14.236,-4.0674 -24.409,-6.1011 -32.536,-10.1723 -8.142,-2.0227 -16.27,-8.1276 -22.375,-14.2287 -6.097,-8.1349 -8.127,-16.2735 -8.127,-28.4722 0,-10.165 2.026,-18.3035 8.127,-26.4311 6.105,-8.1386 14.233,-16.2662 24.405,-20.3373 10.165,-4.0675 24.398,-6.1048 40.663,-6.1048 10.173,0 22.375,0 32.536,4.071 10.169,2.0338 20.338,6.1049 26.442,10.1687 l -12.206,30.5023 c -16.27,-8.1386 -30.501,-14.2398 -46.772,-14.2398 -12.198,0 -20.333,2.0374 -26.431,6.1012 -4.067,4.0674 -8.135,8.1386 -8.135,14.2361 0,6.1048 4.068,10.1686 10.169,14.2288 6.098,2.0337 16.269,6.1012 28.473,8.1385 12.198,2.0374 24.4,6.0976 32.535,10.1614 8.131,2.0337 16.266,8.1385 22.371,14.2361 6.094,6.1011 8.128,16.2624 8.128,26.4348 0,10.1722 -2.031,20.3372 -8.128,28.4721 -6.105,8.1276 -14.24,14.2324 -24.405,18.3035 -12.195,6.0939 -24.397,8.124 -40.671,8.124 z"
   id="path290" /><path
   style="fill:none"
   d="m 2904.5628,2059.3321 v -172.8484 h 40.663 v 172.8484 z"
   id="path288" /><path
   id="path286"
   style="fill:none"
   d="m 3016.4021,1886.4871 v 172.8457 h 79.3008 c 18.304,0 34.5715,-2.0388 48.8105,-10.17 14.229,-6.0976 26.4314,-18.2995 34.5664,-30.5019 8.131,-12.1987 12.1973,-26.4345 12.1973,-44.7344 0,-18.2998 -4.0623,-32.5315 -12.1973,-46.7676 -8.135,-12.2059 -20.3374,-22.3727 -34.5664,-30.5039 -14.236,-6.1012 -30.5025,-10.1679 -48.8105,-10.1679 z m 40.6641,32.5371 h 36.6015 c 16.269,0 30.501,6.1012 40.67,14.2324 10.172,10.1687 16.2695,24.4038 16.2695,40.6699 0,16.2698 -6.0975,28.4682 -16.2695,38.6367 -10.169,10.1687 -24.401,14.2403 -40.67,14.2403 h -36.6015 z" /><path
   id="path282"
   style="fill:none"
   d="m 3303.1189,1886.4832 -77.2676,172.8496 h 40.668 l 16.2695,-36.6035 h 79.3047 l 16.2656,36.6035 h 42.7051 l -77.2754,-172.8496 z m 20.3359,38.6367 26.4356,67.1074 h -54.9043 z" /><path
   id="path278"
   style="fill:none"
   d="m 3467.8318,1886.4871 v 172.8457 h 79.3047 c 18.299,0 34.5699,-2.0388 50.8359,-10.17 14.236,-6.0976 24.4012,-18.2995 32.5352,-30.5019 8.132,-12.1987 12.2031,-26.4345 12.2031,-44.7344 0,-18.2998 -4.0681,-32.5315 -12.2031,-46.7676 -8.131,-12.2059 -18.2992,-22.3727 -32.5352,-30.5039 -16.266,-6.1012 -32.5369,-10.1679 -50.8359,-10.1679 z m 40.668,32.5371 h 36.6035 c 18.3,0 30.4981,6.1012 40.6621,14.2324 12.206,10.1687 16.2715,24.4038 16.2715,40.6699 0,16.2698 -4.0655,28.4682 -16.2715,38.6367 -10.164,10.1687 -22.3661,14.2403 -40.6621,14.2403 h -36.6035 z" /><path
   style="fill:none"
   d="m 576.24252,890.08926 c 65.0683,0 107.7728,-12.1987 136.2378,-30.5022 10.1686,-30.5022 24.4046,-79.3044 38.6407,-142.3462 20.3336,0 87.4357,2.0373 109.803,4.0711 2.0337,44.731 4.0711,124.039 4.0711,166.7436 l -16.2698,32.5323 c -65.072,42.7009 -170.8148,79.30444 -290.7864,79.30444 -256.2166,0 -416.8591,-158.60884 -416.8591,-414.82544 0,-260.28412 201.3097,-435.16267 441.2602,-435.16267 107.7729,0 199.2796,28.47217 276.5539,69.13939 l 16.2662,30.50224 c -10.165,61.00084 -26.4348,144.37267 -38.6372,203.34707 -20.33,0 -75.2369,-2.03373 -99.638,-6.10118 -10.1649,-69.13574 -22.3673,-126.07277 -32.5359,-154.54493 -32.536,-22.36734 -81.3381,-38.63351 -144.3727,-38.63351 -61.0081,0 -115.9114,18.30354 -152.5149,42.70461 -52.8659,63.03456 -91.5031,164.70992 -91.5031,278.58398 0,189.1147 99.6381,315.1874 260.2842,315.1874 z"
   id="path274" /><path
   id="path272"
   style="fill:none"
   d="m 1405.8963,149.90692 c -233.8491,0 -427.0274,183.01511 -427.0274,449.40034 0,246.048 162.6776,400.58804 398.5606,400.58804 235.883,0 414.8242,-187.08044 414.8242,-449.39464 0,-246.05165 -158.6125,-400.59374 -386.3574,-400.59374 z m -24.4043,103.70703 c 160.643,0 233.8457,130.13978 233.8457,331.45311 0,126.0728 -32.531,211.4775 -61,260.2833 -36.603,32.5395 -87.4391,52.873 -154.5411,52.873 -154.545,0 -246.0527,-124.0381 -246.0527,-319.2539 0,-124.04273 36.6046,-219.61692 79.3086,-278.58403 38.634,-30.50224 89.4695,-46.77148 148.4395,-46.77148 z" /><path
   style="fill:none"
   d="m 2625.9758,973.46106 -124.047,12.2024 -101.671,-146.41 c -101.672,-138.2788 -229.782,-298.9213 -331.454,-424.99407 2.03,229.78547 6.098,441.26017 18.3,463.63117 12.199,16.2698 79.304,28.4722 134.208,42.701 l -14.236,58.9707 h -335.521 l -14.233,-58.9707 103.706,-32.5324 c 4.067,-36.607 8.131,-142.3425 8.131,-311.1199 0,-189.1183 -2.03,-286.71892 -14.233,-302.99237 -18.299,-14.22879 -63.038,-32.53232 -99.641,-44.73468 l 14.236,-58.96711 c 73.207,0 160.642,-2.03373 229.782,-4.07109 73.203,132.17394 272.483,376.19555 427.028,569.37035 -2.034,-244.01797 -10.165,-441.26386 -20.334,-463.62755 -12.202,-14.23609 -79.305,-30.50224 -122.009,-40.67087 l 12.202,-61.00084 h 335.521 l 12.203,61.00084 -103.706,32.53597 c -10.165,85.40919 -14.232,357.88835 -14.232,709.67915 z"
   id="path268" /><path
   id="path266"
   style="fill:none"
   d="m 3311.0271,157.81903 c -54.1678,-0.30836 -139.8354,10.89305 -166.5176,18.51953 l -38.6445,113.875 c -79.305,205.3735 -162.6764,420.9218 -239.9434,589.6993 l -99.6445,40.6679 14.2324,58.9707 h 337.5547 l 14.2442,-58.9629 -132.1739,-38.6347 c 16.269,-50.8395 34.5605,-105.7432 54.8985,-160.6465 l 307.0527,-6.0957 c 22.371,65.0719 42.7049,122.0042 61.0039,172.8437 l -107.7754,32.5332 12.2012,58.9707 h 363.9941 l 12.2012,-58.9707 -105.7422,-36.6035 c -63.038,-146.4063 -152.5126,-388.39046 -233.8496,-593.7676 -20.334,-52.87323 -32.5361,-95.57431 -42.7051,-132.17773 -3.3044,-0.12734 -6.7755,-0.20015 -10.3867,-0.2207 z m -105.5156,138.49804 c 46.772,115.90414 89.4762,229.77919 126.0762,333.48829 l -246.0528,-4.0684 c 38.637,-107.76921 79.3096,-221.64336 119.9766,-329.41989 z" /><path
   id="path262"
   style="fill:none"
   d="m 4222.2459,164.13934 c -54.9,0 -180.9766,6.10156 -221.6446,6.10156 h -166.7422 l -12.2031,61.00195 c 36.604,10.16862 87.4352,26.43386 95.5742,40.66993 14.233,18.29989 14.2344,132.17793 14.2344,203.34375 v 201.31053 c 0,63.0383 -4.0688,189.1131 -8.1328,211.4805 l -101.6797,32.541 12.2031,58.9707 h 174.875 c 79.305,0 183.0128,10.168 256.2188,10.168 162.673,0 302.9863,-79.3052 302.9863,-231.8164 0,-111.8404 -79.3049,-172.8431 -174.8789,-197.2442 71.17,-36.5998 132.1777,-97.6051 132.1777,-187.0781 0,-140.3125 -115.9042,-209.44922 -302.9882,-209.44922 z m -20.3379,85.41406 c 50.836,0 95.5739,10.16782 124.0429,32.53516 18.3,22.36734 32.5391,54.90321 32.5391,103.70898 0,73.2032 -42.708,126.07771 -83.375,150.48242 l -183.0137,-8.1348 v -52.88082 0 c 0,-65.07194 6.1008,-191.14465 8.1348,-213.51563 l 10.166,-4.06445 c 28.468,-4.06745 63.037,-8.13086 91.502,-8.13086 z m -109.8067,376.18746 h 152.5156 c 103.702,0 154.5372,52.8734 154.5372,132.1778 0,56.9371 -24.3959,105.7434 -61.0039,130.1445 -30.495,10.1649 -71.1659,14.2325 -101.6719,14.2325 -48.802,0 -101.6682,-6.1023 -124.0352,-18.3047 -2.041,-2.0337 -4.0714,-4.0695 -6.1094,-6.0996 -12.198,-16.2698 -14.2324,-132.1751 -14.2324,-201.3145 z" /><path
   style="fill:none"
   d="m 4675.7088,920.58786 101.675,-32.5323 c 4.064,-22.3674 8.131,-148.4438 8.131,-211.482 V 475.26387 c 0,-71.16582 0,-185.04353 -14.233,-203.34342 -8.137,-14.23608 -58.97,-30.50224 -95.573,-40.67086 l 12.202,-61.00084 h 357.888 l 12.203,61.00084 -103.706,30.49859 c -2.03,22.37098 -8.135,148.44375 -8.135,213.51569 v 201.30969 c 0,69.1394 2.031,185.0435 14.233,201.3133 10.172,16.2699 61.005,32.536 97.608,42.701 l -12.203,58.9708 h -357.888 z"
   id="path256" /><path
   id="path254"
   style="fill:none"
   d="m 5570.4275,149.90692 c -233.848,0 -427.0273,183.01511 -427.0273,449.40034 0,246.048 162.6785,400.58804 398.5625,400.58804 235.882,0 414.8242,-187.08044 414.8242,-449.39464 0,-246.05165 -158.6114,-400.59374 -386.3594,-400.59374 z m -24.4004,103.70703 c 160.646,0 233.8477,130.13978 233.8477,331.45311 0,126.0728 -32.5311,211.4775 -60.9961,260.2833 -36.603,32.5395 -87.4468,52.873 -154.5528,52.873 -154.537,0 -246.0488,-124.0381 -246.0488,-319.2539 0,-124.04273 36.6046,-219.61692 79.3086,-278.58403 38.638,-30.50224 89.4774,-46.77148 148.4414,-46.77148 z" />
</svg>
