<?xml version="1.0" encoding="UTF-8" standalone="no"?>
<svg
   xmlns:dc="http://purl.org/dc/elements/1.1/"
   xmlns:cc="http://creativecommons.org/ns#"
   xmlns:rdf="http://www.w3.org/1999/02/22-rdf-syntax-ns#"
   xmlns:svg="http://www.w3.org/2000/svg"
   xmlns="http://www.w3.org/2000/svg"
   version="1.1"
   id="svg8"
   x="0px"
   y="0px"
   viewBox="650.926 156.5 2267.717 2268"
   xml:space="preserve"
   width="2267.717"
   height="2268"><metadata
   id="metadata8"><rdf:RDF><cc:Work
       rdf:about=""><dc:format>image/svg+xml</dc:format><dc:type
         rdf:resource="http://purl.org/dc/dcmitype/StillImage" /><dc:title></dc:title></cc:Work></rdf:RDF></metadata><defs
   id="defs6" />

<path
   id="path26"
   style="fill:none;stroke-width:1.39315"
   d="m 2841.2924,1861.332 c -42.3614,0 -122.1024,2.4925 -169.4471,2.4925 v 14.9518 l 32.3935,4.9822 c 24.9192,0 29.9007,14.9525 29.901,102.1678 v 196.8585 c 0,89.7076 -4.9818,104.6604 -29.901,107.1528 l -32.3935,2.4897 v 14.9518 h 171.9396 c 107.1485,0 171.9369,-52.3265 171.9369,-132.0662 0,-62.2988 -47.3423,-99.6785 -112.1349,-109.6451 v -2.4925 c 44.8539,-12.4589 82.2339,-47.3432 82.2339,-99.6755 0,-62.296 -49.8388,-102.1678 -144.5284,-102.1678 z m 4.9794,29.901 c 39.8706,0 67.2794,27.4134 67.2794,82.2338 0,44.8525 -24.9168,79.7389 -74.7539,82.2312 l -34.8858,2.4951 V 1898.713 c 9.9665,-4.9847 27.4118,-7.48 42.3603,-7.48 z m -44.8528,189.3866 44.8556,2.4925 c 62.2988,0 94.6905,49.8359 94.6905,107.15 0,62.2988 -42.3609,89.7085 -89.7057,89.7085 -42.3614,0 -49.8404,-4.9832 -49.8404,-97.1832 z" /><path
   id="path22"
   style="fill:none;stroke-width:1.39315"
   d="m 2417.669,1853.8575 c -2.4909,0 -9.9657,2.4939 -14.949,4.982 l -159.483,373.7858 c -19.9359,47.3419 -32.3949,52.3277 -69.7744,62.2943 v 12.4595 l 164.4651,-2.4925 v -14.949 c -44.8538,-4.9847 -57.3123,-7.4768 -57.3123,-24.919 0,-12.4589 12.4583,-49.8372 22.4263,-74.7565 l 14.952,-37.3811 h 147.0207 l 19.934,52.3329 c 12.4603,32.3935 17.4443,49.8367 17.4443,59.8047 0,17.4422 -9.9667,24.919 -37.3783,24.919 l -24.9217,2.4897 v 14.9518 h 194.3716 v -14.9518 c -22.4297,-2.4896 -32.3982,-7.4741 -47.3481,-29.901 -24.9193,-39.872 -142.037,-336.4062 -169.4472,-408.6688 z m -27.4112,122.1018 h 4.9821 l 59.8074,149.5132 -127.0866,-2.4924 c 19.9359,-44.8538 42.3626,-102.1684 62.2971,-147.0208 z" /><path
   id="path16"
   style="fill:none;stroke-width:1.39315"
   d="m 1376.0618,1853.8575 c -132.0691,0 -236.7265,89.71 -236.7265,234.2366 -10e-4,134.5615 89.7059,229.252 231.7444,229.252 134.5614,0 239.2188,-92.1984 239.2188,-236.7265 0,-132.0677 -92.1996,-226.7621 -234.2367,-226.7621 z m -7.4773,29.9036 c 114.6255,0 164.465,99.6741 164.465,201.8407 0,107.1526 -47.344,199.3508 -152.0028,199.3508 -114.6269,0 -166.9575,-97.1803 -166.9575,-204.333 0,-112.1331 49.8364,-196.8585 154.4953,-196.8585 z" /><path
   id="path34"
   style="fill:none;stroke-width:1.39315"
   d="m 3556.4594,1853.8575 c -134.5601,0 -239.2216,89.71 -239.2216,234.2366 0,134.5615 92.2023,229.252 234.2422,229.252 134.5601,0 236.7265,-92.1984 236.7265,-236.7265 0,-132.0677 -92.201,-226.7621 -231.7471,-226.7621 z m -7.4745,29.9036 c 112.1345,0 164.4623,99.6741 164.4623,201.8407 0,107.1526 -47.3441,199.3508 -152.003,199.3508 -117.1192,0 -169.4498,-97.1803 -169.4498,-204.333 0,-112.1331 52.3302,-196.8585 156.9905,-196.8585 z" /><path
   id="path60"
   style="fill:none;stroke-width:1.39315"
   d="m 2163.4984,303.90588 c -12.4604,0 -12.46,44.85454 -22.4265,87.21602 -7.4757,42.36008 -34.8876,84.72424 -44.8555,99.67272 -12.459,12.45893 -14.9491,-9.96603 -9.9644,-19.93401 2.491,-7.47703 2.4912,-69.77307 -27.4113,-104.6603 -27.4101,-34.88584 -77.2497,-42.36034 -97.1857,-39.86799 -17.4436,0 -19.9323,7.47498 -9.9643,17.44156 9.9667,9.96798 44.8517,67.28163 49.835,92.20088 4.9847,24.91925 2.4924,62.29987 -2.4923,62.29987 -4.9833,4.9819 -32.3952,-57.31542 -39.8708,-67.28201 -7.4757,-9.96798 -7.4757,-14.95106 -34.8859,-29.90373 -27.4116,-19.93317 -69.7724,-24.91966 -87.216,-9.96699 -19.9333,9.96659 29.9043,44.8551 42.3632,67.28201 12.4589,22.42691 37.3776,74.75544 19.934,79.73873 -17.4436,4.98608 -34.8845,-59.80197 -104.6577,-59.80202 -69.773,6e-5 -84.7236,57.31142 -89.7083,69.77174 -4.9847,12.46032 0,14.9502 29.9009,7.47456 29.9025,-9.96658 42.3612,-4.98181 62.2971,2.49243 19.936,9.96937 24.9187,24.91928 19.9368,34.88587 -4.9833,7.47703 -44.8562,-17.44246 -94.6933,-4.98214 -49.8385,17.44223 -67.2795,64.78902 -69.7717,84.72358 -4.9834,19.93875 9.9686,17.44551 17.4442,12.45944 7.4757,-7.47425 49.8357,-22.42644 67.2794,-22.42644 14.9512,-2.49095 32.3961,2.49302 32.3961,17.4443 -2.4923,14.94988 -44.853,4.98175 -84.7237,29.901 -39.8691,22.42552 -47.3451,62.29791 -47.3451,82.23387 0,22.42691 19.934,7.47176 19.934,4.97942 2.4909,-2.49095 29.904,-14.94792 42.3631,-19.934 9.968,-7.47285 47.3453,-12.45748 47.3453,4.98759 0,14.94988 -9.9702,9.9666 -57.3151,34.88585 -49.8371,22.42691 -54.8225,72.26209 -52.3301,92.20084 2.4925,17.44083 27.4118,-2.49402 39.8708,-9.96966 14.9512,-9.96798 37.3787,-14.94917 49.8376,-14.94917 14.9513,0 12.4594,7.47214 9.9671,14.94917 -4.9833,4.9833 -69.7719,14.9503 -72.2642,114.62453 -2.491,99.677 79.7406,129.5796 129.5791,137.0538 49.8373,9.9694 84.7237,-29.901 84.7237,-29.901 h 14.9492 c 0,0 14.9518,22.4265 49.8376,57.3123 34.8873,34.8873 54.8228,47.3447 92.2009,64.7869 42.3628,14.9513 124.593,9.9696 129.5791,7.4773 4.9819,-2.491 17.4404,-19.9351 22.4265,-47.3453 4.9819,-29.904 19.9357,-57.3128 27.4113,-67.2794 9.9666,-4.9861 24.918,-7.477 39.8707,-12.4595 14.9499,-4.986 29.9029,-7.4764 42.3605,-22.4263 12.4589,-14.9527 12.4578,-32.396 7.4745,-67.2874 -4.9833,-34.88449 -24.9181,-37.37571 -39.868,-37.37571 -14.9541,-2.49374 -19.9399,4.98221 -29.9065,4.98221 -4.9833,2.4909 -14.949,4.9833 -14.949,0 -2.4924,-2.49099 4.9843,-17.44198 24.9188,-27.40857 22.4269,-9.96658 27.4088,-14.95252 34.8859,-29.9038 7.477,-14.95127 -7.4761,-37.3786 -9.967,-47.34519 0,-9.96937 17.4458,-24.91932 22.4291,-34.88591 2.4923,-12.45893 0,-14.95197 -32.3935,-52.33015 -32.3963,-37.37958 -107.1532,-87.21642 -122.1045,-97.18301 -12.4575,-7.47564 -29.9018,-17.44356 -49.8378,-32.39344 -19.9346,-17.44362 -54.8214,-64.78832 -129.5791,-32.39343 -82.232,34.88445 -102.1658,77.24806 -117.117,122.10188 -14.9513,47.34616 9.9696,119.60829 7.4773,124.59437 h -7.4773 c 0,0 -4.9854,2.48997 -17.4444,-22.42921 -12.4589,-24.91786 -12.4578,-72.26525 -7.4745,-99.67545 4.9819,-27.41021 22.4254,-64.78976 64.7869,-102.16515 42.3628,-34.88724 79.7406,-52.32892 129.5791,-54.81987 47.3448,-4.98468 92.1982,32.39343 92.1982,32.39343 0,0 9.9688,0.001 22.4291,-2.49243 9.9666,-2.49234 44.8525,-52.3339 67.2794,-112.1376 22.4283,-62.29743 14.9529,-109.64237 9.9696,-142.03587 -2.4909,-32.39489 -27.4117,-87.21602 -39.8706,-87.21602 z m -105.9065,494.9515 c 11.2134,-0.31154 19.9366,2.17957 21.1828,3.42574 2.491,0 0,9.96732 -7.4773,17.44157 -4.9833,9.96937 -12.4598,17.44602 -22.4264,27.414 -17.4437,14.95128 -44.8529,19.93104 -49.8376,14.94914 -4.9833,-4.98468 -6e-4,-32.39411 22.4263,-49.83772 11.2142,-9.96659 24.9182,-13.08118 36.1322,-13.39273 z m 157.9237,64.47667 c 2.8033,0 5.2958,1.24497 7.7874,3.73592 4.9833,4.98608 -2.4925,17.44578 -4.9848,19.93677 l -19.934,2.49234 c -9.968,-4.98186 -4.9858,-14.95069 7.4745,-22.42911 3.7385,-2.49095 6.8535,-3.73592 9.6569,-3.73592 z m -443.2445,108.3962 c 34.8872,0 72.2642,27.41397 72.2642,57.31515 0,32.3949 -19.9338,52.3286 -49.8377,49.8376 -29.904,-2.4923 -74.7565,-17.4433 -69.7718,-62.2971 2.4909,-42.3615 47.3453,-44.85565 47.3453,-44.85565 z" /><path
   id="path38"
   style="fill:none;stroke-width:1.39315"
   d="m 2466.5109,344.90582 c -17.576,-0.0111 -35.4469,3.23157 -43.8569,8.83779 -14.9513,9.96658 -19.9343,22.42684 -24.919,32.39342 -2.4937,4.98608 -12.4609,9.96857 -17.4442,14.95186 -4.9846,4.98608 -17.4444,17.44458 -19.9368,59.80745 -2.4909,42.36148 34.8859,62.29716 34.8859,62.29716 0,0 9.9659,-19.93549 14.952,-22.42644 2.4909,-2.49095 67.2824,27.40866 77.2489,29.901 9.9694,0 42.3608,-7.47456 54.8225,-7.47456 12.4562,-2.49095 57.3113,-17.44462 64.7869,-24.91887 9.968,-7.47703 17.446,-17.44331 22.4265,-27.41129 v 0 c 4.9861,-9.96658 2.4937,-24.91921 0,-34.88858 -2.4883,-9.96659 -44.8534,-44.85336 -57.3123,-57.31229 -14.9499,-7.47424 -47.345,-19.93565 -69.7719,-27.41129 -8.7212,-4.3616 -22.2141,-6.33691 -35.8844,-6.34536 z m 0.9959,51.20093 c 9.968,0 19.934,4.98256 19.934,14.94915 0,7.47703 -9.9674,14.95457 -19.934,14.95457 -9.9666,0 -17.4443,-7.47754 -17.4443,-14.95457 0,-9.96659 7.4764,-14.94915 17.4443,-14.94915 z" /><path
   style="fill:none;stroke-width:1.39315"
   d="m 2694.27,1343.0209 c -7.4785,-4.9819 2.4923,-49.8344 7.4742,-89.7063 4.9847,-39.8691 32.3935,-84.7229 49.8385,-132.0691 19.9346,-44.8538 99.6742,-154.49743 57.3128,-398.7011 -42.3643,-246.69461 -244.2051,-378.76652 -316.4705,-398.70108 -74.7564,-19.93457 -341.3884,-89.70764 -563.1651,-4.98608 -221.7768,84.72574 -291.5499,249.18974 -308.9935,408.66906 -17.4436,159.48072 19.936,386.2436 122.1026,503.3614 104.6603,119.6102 276.5999,189.3833 460.9985,186.8895 186.8895,-4.9847 356.3382,-97.1846 356.3382,-97.1846 l -14.9513,119.6115 c 0,0 -127.0858,102.1666 -373.7832,87.2153 -246.6946,-12.4603 -398.7011,-74.7549 -525.7855,-214.3011 -122.1039,-139.5461 -144.5295,-383.74841 -149.5127,-473.45605 -4.9847,-87.21809 12.4589,-259.15773 97.1832,-401.19483 82.232,-142.03849 276.5986,-229.25378 299.0255,-231.74613 19.936,-4.98329 42.3615,-14.94988 112.1345,-29.90115 72.2641,-12.46032 186.891,-22.42691 231.7448,-19.93596 42.3629,0 79.7396,-2.49095 214.3025,32.39489 137.0538,34.88445 251.6807,117.11784 313.9795,174.4292 62.2947,57.31414 89.7077,134.56425 119.6074,204.33593 32.3935,69.77307 49.8385,214.30251 49.8385,259.15633 0,44.85382 0,77.24732 -19.9387,176.92157 -22.4269,99.6756 -82.2278,206.8269 -94.6882,226.7628 -14.9526,17.4436 -24.9206,37.3782 -59.8078,69.7717 -34.8831,34.8886 -57.3086,47.349 -64.7842,42.3643"
   id="path56" /><path
   style="fill:none;stroke-width:1.39315"
   d="m 1886.8984,1138.6877 c 0,0 -4.9847,2.491 -17.4436,12.4576 -9.968,9.9693 -34.8859,17.445 -54.8218,19.9387 -17.4436,2.4896 -42.3629,4.9819 -47.3462,7.4743 -2.4923,0 -9.9666,12.4603 -12.4589,19.9345 -2.4924,7.4757 -7.4756,2.4924 22.4269,32.3949 29.9025,29.9026 62.2974,59.8037 137.0538,99.677 74.7578,39.8678 216.7935,64.787 294.0422,62.2947 79.7396,0 117.1192,-19.9346 119.6102,-24.9193 2.4923,-4.9819 9.9666,-77.2487 14.9512,-114.6255 4.9833,-37.3768 4.9833,-107.1498 -4.9846,-117.1164 -4.9847,-4.9861 -24.9193,-7.4785 -42.3615,-4.9861 -12.459,0 -24.9193,2.4923 -32.3935,4.9861 -22.4297,4.9819 -32.3963,19.9345 -37.3796,34.8872 -4.9833,12.4575 -24.9179,69.7731 -34.8872,82.2306 -9.9666,9.9694 -39.8706,32.3963 -132.0691,12.4575 -89.7077,-17.4422 -154.4975,-107.1484 -156.9884,-112.1331 -4.9833,-4.9833 -12.4576,-14.9527 -14.9499,-14.9527"
   id="path54" /><path
   style="fill:none;stroke-width:1.39315"
   d="m 2562.1994,986.68403 c -2.4923,2.49095 -69.773,17.44087 -102.1679,24.91787 -32.3949,4.9833 -79.7397,4.9833 -94.691,4.9833 -14.9512,0 -14.9512,17.4436 -12.4589,24.9192 0,9.9666 0,39.8706 7.4743,114.6269 7.4756,72.2641 2.4923,179.4139 2.4923,201.8422 -2.4923,22.4269 14.9499,12.459 17.4436,12.459 4.9833,0 39.8705,-12.459 54.8218,-19.9346 14.9513,-4.9861 62.2988,-32.3949 69.7731,-42.3615 4.9833,-9.9707 42.3629,-152.0051 52.3308,-196.8589 9.968,-44.8538 9.9652,-127.08581 4.9819,-124.59347"
   id="path52" /><path
   style="fill:none;stroke-width:1.39315"
   d="m 2355.3726,926.87894 c -19.9346,0 -17.4437,32.39349 -17.4437,47.34616 2.4924,17.44222 42.3615,22.42691 52.3295,22.42691 9.968,0 37.3782,-4.98608 64.7898,-9.96659 27.4116,-7.47703 77.2473,-12.46032 102.1679,-37.37957 27.4103,-24.91926 27.4103,-47.34617 27.4103,-59.80649 -2.4924,-14.94849 -17.4437,-17.44222 -22.427,-19.93457 -4.9833,0 -39.8705,24.91926 -57.3141,34.88724 -17.4436,12.46032 -39.8705,17.44361 -49.8371,19.93456 -9.9694,2.49235 -77.2501,2.49235 -99.6756,2.49235"
   id="path50" /><path
   style="fill:none;stroke-width:1.39315"
   d="m 2332.9443,879.53138 c 2.4937,14.95267 4.9846,24.91925 24.9206,29.90533 22.4269,2.48956 79.7397,-4.98608 92.2,-4.98608 9.9666,0 22.4283,-2.49234 54.8218,-19.93456 34.8858,-22.42691 52.3308,-47.34617 54.8218,-57.31415 2.4923,-9.96658 2.4923,-19.93596 -7.477,-32.39489 -7.4743,-12.45753 -17.4423,-9.96658 -27.4088,-7.47563 -9.968,0 -34.8859,27.41159 -42.3615,34.88584 -9.9666,7.47703 -17.4436,9.96937 -22.4283,12.46032 -4.9833,4.98608 -42.3615,9.96659 -57.3128,12.46032 -17.4436,0 -62.2974,9.96659 -64.7898,12.45893 -4.986,2.49374 -4.986,7.47564 -4.986,19.93457"
   id="path48" /><path
   style="fill:none;stroke-width:1.39315"
   d="m 2268.1545,563.06369 c 0,14.95267 37.3796,17.44222 49.8399,22.42691 17.4436,4.98329 14.9485,12.46032 14.9485,12.46032 0,0 -44.8525,-7.47703 -62.2961,-9.96658 -14.9499,0 -27.4116,0 -42.3628,4.9819 -14.9499,0 -19.9346,12.46032 -19.9346,22.42969 0,7.47564 4.9833,14.94988 12.4589,14.94988 7.4743,2.49235 74.7564,14.95128 74.7564,14.95128 0,0 -49.8385,2.49373 -74.7564,2.49373 -22.4269,4.9819 -22.4269,19.93457 -22.4269,22.42691 0,4.9819 -4.9861,14.94849 12.4589,19.93457 19.9346,4.9819 47.3434,4.9819 59.8051,9.96659 14.9513,2.49234 19.9346,12.45893 19.9346,12.45893 0,0 -22.4283,-4.98608 -44.8538,-4.98608 -19.9346,0 -27.4102,7.47842 -29.9012,17.44501 -2.4923,9.96658 0,17.44222 17.4436,24.91786 17.4423,4.98329 17.4423,9.96937 34.8845,19.93596 14.9527,12.45893 47.3462,59.8037 109.6436,64.78699 62.2974,4.98608 89.7104,-32.3935 99.677,-42.36148 9.9666,-9.96798 32.3935,-42.36287 32.3935,-44.85382 0,-4.98608 0,-19.93596 -12.4575,-52.33085 -12.4604,-34.88584 -37.3796,-64.78699 -47.3462,-79.73826 -12.4589,-14.95128 -37.3782,-42.36287 -44.8552,-47.34617 -7.4743,-2.49095 -42.3601,-19.93596 -52.3281,-22.42691 -9.9666,-4.98329 -29.9039,-7.47563 -52.3308,-4.98329 -22.4255,0 -32.3949,4.98329 -32.3949,22.42691"
   id="path46" /><path
   style="fill:none;stroke-width:1.39315"
   d="m 2622.0045,914.41861 c -7.4756,2.49374 -12.4603,32.3935 -22.4297,64.78978 -4.9833,29.90261 -19.9345,134.56291 -22.4269,169.44871 -2.4909,34.8844 4.9833,59.8023 4.9833,109.6408 0,52.3295 -12.4575,139.5462 -17.4422,186.8923 -4.9847,52.3295 -2.4923,107.1485 0,119.6074 2.4909,14.9527 4.9833,17.4422 17.4422,19.9346 12.459,0 14.9513,-7.4729 17.4436,-14.9471 0,-4.9861 4.9833,-27.413 32.3963,-119.6116 29.9012,-94.6937 79.7397,-301.5164 92.2,-348.8626 9.9666,-47.3461 7.4742,-57.3141 2.4923,-72.2668 -4.9846,-12.4589 -17.4436,-24.9192 -24.9192,-37.37956 -9.9666,-12.45754 -52.3295,-54.82041 -62.2988,-59.80231 -7.4729,-9.96798 -12.4562,-19.93596 -17.4409,-17.44362"
   id="path44" /><path
   style="fill:none;stroke-width:1.39315"
   d="m 2604.5595,518.20987 c -29.9011,22.42691 -37.3768,24.91925 -74.7563,32.3935 -9.9652,0 -19.9346,0 -29.9012,-2.49374 -7.4756,-2.49095 -14.9513,-2.49095 -17.4436,-2.49095 0,2.49095 -4.9833,12.45754 -4.9833,29.90255 0,7.47424 4.9833,29.90115 14.9499,62.29743 9.968,24.91786 24.9192,59.8037 42.3615,94.69094 7.477,19.93456 17.4422,37.37957 27.4115,59.80648 44.8525,82.2334 117.1193,171.93965 194.3666,224.26772 9.9666,7.4756 17.445,-9.9666 19.9346,-14.9499 2.4937,-4.98328 4.986,-59.80508 12.4603,-112.13593 9.9694,-72.26263 0,-156.98837 -4.9819,-176.92155 -7.4784,-39.87192 -47.3462,-107.15265 -69.7731,-137.0538 -9.9666,-14.95127 -22.4269,-37.37958 -39.8677,-54.82041 -14.9527,-17.44501 -37.3796,-32.39489 -37.3796,-32.39489 -4.9847,0 -14.9527,19.93596 -32.3977,29.90255"
   id="path42" /><path
   style="fill:none;stroke-width:1.39315"
   d="m 3259.926,2307.3794 v -12.4589 l -29.9012,-4.9819 c -24.9192,-2.4924 -29.9053,-14.9513 -29.9053,-104.659 V 1985.927 c 0,-89.7076 2.4924,-102.1666 29.9053,-104.6603 l 29.9012,-2.4882 v -14.9526 h -189.3819 v 14.9526 l 29.9012,2.4882 c 27.413,2.4937 32.3935,14.9527 32.3935,104.6603 v 196.8603 c 0,89.7076 -2.4882,102.1666 -32.3935,107.1513 l -29.9012,2.4895 v 14.9513 z"
   id="path32" /><path
   style="fill:none;stroke-width:1.39315"
   d="m 2073.7893,2312.3669 c 9.968,0 19.936,-2.4924 27.4116,-4.9861 v -321.4524 c 0,-87.2153 2.491,-102.1666 34.8859,-104.6603 l 24.9178,-2.4882 v -14.9526 H 1996.542 v 14.9526 l 29.9026,2.4882 c 27.4102,2.4937 34.8872,12.4603 34.8872,92.2014 l 2.4923,209.3192 -4.9847,2.4923 c -79.7396,-97.186 -181.9076,-219.2858 -251.6793,-294.0449 -14.9512,-17.4408 -29.9025,-27.4088 -39.8705,-27.4088 h -109.6422 v 14.9526 h 19.936 c 32.3949,4.9819 49.8371,19.9346 49.8371,57.31 l -2.491,249.1911 c 0,92.2 -4.9847,104.659 -34.8872,104.659 l -29.9026,4.9819 v 12.4589 h 171.9397 v -12.4589 l -32.3949,-4.9819 c -27.4116,0 -34.8872,-9.9694 -34.8872,-104.659 l -2.491,-234.2398 4.9833,-2.4882 c 124.5921,142.0343 219.2844,249.1856 306.4997,363.8139 z"
   id="path20" /><path
   style="fill:none;stroke-width:1.39315"
   d="m 1034.6744,2287.4462 c 12.4604,-27.4116 19.936,-77.2473 19.936,-102.1666 h -17.4436 c -14.9513,54.8218 -52.32949,99.6743 -132.06915,99.6743 -102.16657,0 -179.41528,-74.755 -179.41528,-199.3527 0,-122.1011 64.78839,-199.3484 174.43199,-199.3484 79.73826,0 132.06914,34.8858 132.06914,124.5935 h 19.9359 c 0,-12.459 7.4757,-67.2794 7.4757,-99.6743 0,-12.4589 -2.4924,-32.3935 -2.4924,-39.8719 -29.9025,0 -94.69091,-17.4422 -154.496,-17.4422 -152.00508,0 -251.6807,87.2153 -251.6807,231.7433 0,156.9912 109.6436,231.7462 244.20367,231.7462 57.31275,0 107.15263,-14.9527 139.54473,-29.9012 z"
   id="path14" /><path
   style="fill:none;stroke-width:1.39315"
   d="m 2332.9443,2389.6142 v 32.3935 h 804.8806 c 321.4523,0 583.101,-7.4743 583.101,-14.9513 0,-7.4742 -261.6487,-14.9485 -583.101,-14.9485 z"
   id="path12" /><path
   style="fill:none;stroke-width:1.39315"
   d="m 2108.6752,2424.5 v -29.9053 H 1301.305 c -321.45377,0 -580.60732,4.9861 -580.60732,12.4603 0,9.9666 259.15494,14.9513 580.60732,14.9513 z"
   id="path3713" />
</svg>
