<?xml version="1.0" encoding="UTF-8" standalone="no"?>
<svg
   xmlns:dc="http://purl.org/dc/elements/1.1/"
   xmlns:cc="http://creativecommons.org/ns#"
   xmlns:rdf="http://www.w3.org/1999/02/22-rdf-syntax-ns#"
   xmlns:svg="http://www.w3.org/2000/svg"
   xmlns="http://www.w3.org/2000/svg"
   version="1.1"
   id="svg8"
   x="0px"
   y="0px"
   viewBox="650.926 156.5 2267.717 2267.717"
   xml:space="preserve"><metadata
   id="metadata8"><rdf:RDF><cc:Work
       rdf:about=""><dc:format>image/svg+xml</dc:format><dc:type
         rdf:resource="http://purl.org/dc/dcmitype/StillImage" /><dc:title></dc:title></cc:Work></rdf:RDF></metadata><defs
   id="defs6">
	
</defs>

<path
   id="path26"
   style="fill:none"
   d="m 2231.0586,1700.1008 c -30.407,0 -87.6449,1.7891 -121.6289,1.7891 v 10.7324 l 23.252,3.5762 c 17.887,0 21.4627,10.7329 21.4629,73.3359 v 141.3047 c 0,64.392 -3.5759,75.1251 -21.4629,76.9141 l -23.252,1.7871 v 10.7324 h 123.418 c 76.911,0 123.416,-37.5599 123.416,-94.7969 0,-44.718 -33.9822,-71.5491 -80.4902,-78.7031 v -1.7891 c 32.196,-8.943 59.0273,-33.9829 59.0273,-71.5469 0,-44.716 -35.7742,-73.3359 -103.7422,-73.3359 z m 3.5742,21.4629 c 28.619,0 48.293,19.6773 48.293,59.0273 0,32.195 -17.8852,57.2364 -53.6582,59.0254 l -25.041,1.791 v -114.4746 c 7.154,-3.578 19.6762,-5.3691 30.4062,-5.3691 z m -32.1953,135.9414 32.1973,1.7891 c 44.718,0 67.9687,35.7721 67.9687,76.9121 0,44.718 -30.4066,64.3926 -64.3906,64.3926 -30.407,0 -35.7754,-3.5769 -35.7754,-69.7579 z" /><path
   id="path22"
   style="fill:none"
   d="m 1926.9824,1694.7356 c -1.788,0 -7.1534,1.7901 -10.7304,3.5761 l -114.4766,268.3028 c -14.31,33.982 -23.253,37.5608 -50.084,44.7148 v 8.9434 l 118.0528,-1.7891 v -10.7304 c -32.196,-3.578 -41.1387,-5.3668 -41.1387,-17.8868 0,-8.943 8.9426,-35.7731 16.0976,-53.6601 l 10.7325,-26.8321 h 105.5312 l 14.3086,37.5645 c 8.944,23.252 12.5215,35.7727 12.5215,42.9277 0,12.52 -7.1541,17.8868 -26.8301,17.8868 l -17.8887,1.7871 v 10.7324 h 139.5196 v -10.7324 c -16.1,-1.787 -23.2554,-5.3649 -33.9864,-21.4629 -17.887,-28.62 -101.9539,-241.4718 -121.6289,-293.3418 z m -19.6757,87.6445 h 3.5761 l 42.9297,107.3203 -91.2226,-1.789 c 14.31,-32.196 30.4078,-73.3363 44.7168,-105.5313 z" /><path
   id="path16"
   style="fill:none"
   d="m 1179.3184,1694.7356 c -94.799,0 -169.9219,64.3937 -169.9219,168.1347 -10e-4,96.588 64.3907,164.5567 166.3457,164.5567 96.588,0 171.7109,-66.1799 171.7109,-169.9219 0,-94.798 -66.1807,-162.7695 -168.1347,-162.7695 z m -5.3672,21.4648 c 82.278,0 118.0527,71.5459 118.0527,144.8809 10e-4,76.914 -33.9834,143.0937 -109.1074,143.0937 -82.279,0 -119.8418,-69.7559 -119.8418,-146.6699 0,-80.489 35.7725,-141.3047 110.8965,-141.3047 z" /><path
   id="path34"
   style="fill:none"
   d="m 2744.4043,1694.7356 c -96.587,0 -171.7129,64.3937 -171.7129,168.1347 0,96.588 66.1827,164.5567 168.1387,164.5567 96.587,0 169.9219,-66.1799 169.9219,-169.9219 0,-94.798 -66.1817,-162.7695 -166.3477,-162.7695 z m -5.3652,21.4648 c 80.49,0 118.0508,71.5459 118.0508,144.8809 0,76.914 -33.9835,143.0937 -109.1075,143.0937 -84.068,0 -121.6308,-69.7559 -121.6308,-146.6699 0,-80.489 37.5625,-141.3047 112.6875,-141.3047 z" /><path
   id="path60"
   style="fill:none"
   d="m 1744.5391,582.18284 c -8.944,0 -8.9437,32.19652 -16.0977,62.60352 -5.366,30.406 -25.0422,60.81492 -32.1972,71.54492 -8.943,8.943 -10.7304,-7.1536 -7.1524,-14.3086 1.788,-5.367 1.7882,-50.083 -19.6758,-75.125 -19.6749,-25.041 -55.4497,-30.40618 -69.7597,-28.61718 -12.521,0 -14.3074,5.36553 -7.1524,12.51953 7.1541,7.155 32.1945,48.29464 35.7715,66.18164 3.578,17.887 1.789,44.71875 -1.789,44.71875 -3.577,3.576 -23.2532,-41.14092 -28.6192,-48.29492 -5.366,-7.155 -5.366,-10.73185 -25.041,-21.46485 -19.676,-14.308 -50.0825,-17.88729 -62.6035,-7.15429 -14.3081,7.154 21.4652,32.19692 30.4082,48.29492 8.943,16.098 26.8296,53.65933 14.3086,57.23633 -12.521,3.579 -25.04,-42.92576 -75.1231,-42.92579 -50.083,4e-5 -60.8145,41.13804 -64.3925,50.08204 -3.578,8.944 0,10.73123 21.4628,5.36523 21.464,-7.154 30.4068,-3.57594 44.7168,1.78906 14.31,7.156 17.8866,17.88702 14.3106,25.04102 -3.577,5.367 -32.1977,-12.52017 -67.9707,-3.57617 -35.774,12.52 -48.2931,46.50545 -50.082,60.81445 -3.5771,14.312 7.1554,12.52236 12.5214,8.94336 5.366,-5.365 35.772,-16.09766 48.293,-16.09766 10.732,-1.788 23.2539,1.78949 23.2539,12.52149 -1.789,10.731 -32.1954,3.57589 -60.8145,21.46289 -28.618,16.097 -33.9843,44.71734 -33.9843,59.02734 0,16.098 14.3086,5.36322 14.3086,3.57422 1.788,-1.788 21.4651,-10.72959 30.4082,-14.30859 7.155,-5.364 33.9844,-8.94196 33.9844,3.58008 0,10.731 -7.1566,7.15401 -41.1407,25.04101 -35.773,16.098 -39.3515,51.86961 -37.5625,66.18161 1.7891,12.519 19.6762,-1.7902 28.6192,-7.1562 10.732,-7.155 26.8304,-10.73049 35.7734,-10.73049 10.732,0 8.9433,5.36349 7.1543,10.73049 -3.577,3.577 -50.0821,10.7313 -51.8711,82.2773 -1.788,71.548 57.2377,93.012 93.0117,98.377 35.7731,7.156 60.8145,-21.4629 60.8145,-21.4629 h 10.7305 c 0,0 10.7324,16.0977 35.7734,41.1387 25.042,25.042 39.3517,33.9839 66.1816,46.5039 30.408,10.732 89.4327,7.1562 93.0117,5.3672 3.576,-1.788 12.5187,-14.3094 16.0977,-33.9844 3.576,-21.465 14.3098,-41.139 19.6758,-48.293 7.154,-3.579 17.8861,-5.367 28.6191,-8.9434 10.731,-3.579 21.4643,-5.3666 30.4063,-16.0976 8.943,-10.733 8.9422,-23.2538 5.3652,-48.2988 -3.577,-25.04 -17.8862,-26.8282 -28.6172,-26.8282 -10.734,-1.79 -14.3128,3.5762 -21.4668,3.5762 -3.577,1.788 -10.7304,3.577 -10.7304,0 -1.789,-1.788 3.5777,-12.5198 17.8867,-19.6738 16.098,-7.154 19.674,-10.7329 25.041,-21.4649 5.367,-10.732 -5.3663,-26.8303 -7.1543,-33.9843 0,-7.156 12.5226,-17.88705 16.0996,-25.04105 1.789,-8.943 0,-10.7325 -23.252,-37.5625 -23.254,-26.831 -76.9144,-62.60381 -87.6464,-69.75781 -8.942,-5.366 -21.4635,-12.52096 -35.7735,-23.25196 -14.309,-12.521 -39.3507,-46.50495 -93.0117,-23.25195 -59.026,25.04 -73.3344,55.44853 -84.0664,87.64453 -10.732,33.985 7.1562,85.85464 5.3672,89.43364 h -5.3672 c 0,0 -3.5785,1.7873 -12.5215,-16.09965 -8.943,-17.886 -8.9422,-51.87188 -5.3652,-71.54688 3.576,-19.675 16.0969,-46.50598 46.5039,-73.33398 30.408,-25.042 57.2377,-37.56161 93.0117,-39.34961 33.984,-3.578 66.1797,23.25195 66.1797,23.25195 0,0 7.1556,9.4e-4 16.0996,-1.78906 7.154,-1.789 32.195,-37.56519 48.293,-80.49219 16.099,-44.717 10.7332,-78.70112 7.1562,-101.95312 -1.788,-23.253 -19.6761,-62.60352 -28.6191,-62.60352 z m -76.0195,355.27539 c 8.049,-0.22362 14.3105,1.56449 15.205,2.45899 1.788,0 0,7.15453 -5.3672,12.51953 -3.577,7.156 -8.9436,12.52273 -16.0976,19.67773 -12.5211,10.732 -32.1954,14.30647 -35.7734,10.73047 -3.577,-3.578 -4e-4,-23.25244 16.0976,-35.77344 8.0495,-7.154 17.8862,-9.38965 25.9356,-9.61328 z m 113.3574,46.28125 c 2.0122,0 3.8013,0.89364 5.5898,2.68164 3.577,3.579 -1.7891,12.52255 -3.5781,14.31058 l -14.3086,1.789 c -7.155,-3.57597 -3.5788,-10.73158 5.3652,-16.09958 2.6835,-1.788 4.9194,-2.68164 6.9317,-2.68164 z m -318.1602,77.80662 c 25.042,0 51.8711,19.6777 51.8711,41.1407 0,23.253 -14.3084,37.5614 -35.7734,35.7734 -21.465,-1.789 -53.6601,-12.5208 -50.0821,-44.7168 1.788,-30.407 33.9844,-32.1973 33.9844,-32.1973 z" /><path
   id="path38"
   style="fill:none"
   d="m 1962.041,611.61253 c -12.616,-0.008 -25.4437,2.31962 -31.4804,6.34375 -10.732,7.154 -14.3088,16.09795 -17.8868,23.25195 -1.79,3.579 -8.9444,7.15542 -12.5214,10.73242 -3.578,3.579 -12.5216,12.52169 -14.3106,42.92969 -1.788,30.407 25.041,44.7168 25.041,44.7168 0,0 7.1535,-14.30966 10.7325,-16.09766 1.788,-1.788 48.2952,19.67389 55.4492,21.46289 7.156,0 30.4065,-5.36523 39.3515,-5.36523 8.941,-1.788 41.1379,-12.52172 46.5039,-17.88672 7.155,-5.367 12.5227,-12.52078 16.0977,-19.67578 v 0 c 3.579,-7.154 1.79,-17.88697 0,-25.04297 -1.7861,-7.154 -32.1957,-32.19567 -41.1387,-41.13867 -10.731,-5.365 -33.9841,-14.30978 -50.0821,-19.67578 -6.2601,-3.13075 -15.9453,-4.54862 -25.7578,-4.55469 z m 0.7149,36.75195 c 7.155,0 14.3086,3.57647 14.3086,10.73047 0,5.367 -7.1546,10.73437 -14.3086,10.73437 -7.154,0 -12.5215,-5.36737 -12.5215,-10.73437 0,-7.154 5.3665,-10.73047 12.5215,-10.73047 z" /><path
   style="fill:none"
   d="m 2125.5261,1328.0579 c -5.368,-3.576 1.789,-35.771 5.365,-64.391 3.578,-28.618 23.252,-60.814 35.774,-94.799 14.309,-32.196 71.546,-110.898 41.139,-286.187 -30.409,-177.077 -175.29,-271.878 -227.162,-286.187 -53.66,-14.309 -245.048,-64.392 -404.239,-3.579 -159.191,60.816 -209.274,178.868 -221.795,293.342 -12.521,114.475 14.31,277.245 87.645,361.312 75.125,85.856 198.543,135.939 330.904,134.149 134.149,-3.578 255.779,-69.759 255.779,-69.759 l -10.732,85.857 c 0,0 -91.222,73.335 -268.301,62.603 -177.077,-8.944 -286.187,-53.659 -377.408,-153.825 -87.646,-100.166 -103.743,-275.454 -107.32,-339.846 -3.578,-62.605 8.943,-186.023 69.758,-287.977 59.026,-101.955 198.542,-164.558 214.64,-166.347 14.31,-3.577 30.407,-10.731 80.49,-21.463 51.871,-8.944 134.15,-16.098 166.346,-14.31 30.408,0 57.237,-1.788 153.826,23.253 98.377,25.04 180.656,84.067 225.374,125.205 44.715,41.14 64.392,96.59 85.854,146.672 23.252,50.083 35.774,153.826 35.774,186.022 0,32.196 0,55.448 -14.312,126.994 -16.098,71.547 -59.023,148.46 -67.967,162.77 -10.733,12.521 -17.888,26.83 -42.93,50.082 -25.039,25.043 -41.136,33.987 -46.502,30.409"
   id="path56" /><path
   style="fill:none"
   d="m 1545.9961,1181.3879 c 0,0 -3.578,1.788 -12.521,8.942 -7.155,7.156 -25.041,12.522 -39.351,14.312 -12.521,1.787 -30.408,3.576 -33.985,5.365 -1.789,0 -7.154,8.944 -8.943,14.309 -1.789,5.366 -5.366,1.789 16.098,23.253 21.464,21.464 44.717,42.927 98.377,71.548 53.661,28.617 155.614,46.504 211.063,44.715 57.237,0 84.068,-14.309 85.856,-17.887 1.789,-3.576 7.154,-55.449 10.732,-82.278 3.577,-26.829 3.577,-76.912 -3.578,-84.066 -3.578,-3.579 -17.887,-5.368 -30.407,-3.579 -8.943,0 -17.887,1.789 -23.252,3.579 -16.1,3.576 -23.254,14.309 -26.831,25.042 -3.577,8.942 -17.886,50.083 -25.042,59.025 -7.154,7.156 -28.619,23.254 -94.799,8.942 -64.392,-12.52 -110.898,-76.911 -112.686,-80.489 -3.577,-3.577 -8.942,-10.733 -10.731,-10.733"
   id="path54" /><path
   style="fill:none"
   d="m 2030.7261,1072.2799 c -1.789,1.788 -50.083,12.519 -73.336,17.886 -23.253,3.577 -57.237,3.577 -67.969,3.577 -10.732,0 -10.732,12.521 -8.943,17.887 0,7.154 0,28.619 5.365,82.279 5.366,51.871 1.789,128.783 1.789,144.882 -1.789,16.098 10.731,8.943 12.521,8.943 3.577,0 28.619,-8.943 39.351,-14.309 10.732,-3.579 44.718,-23.253 50.083,-30.407 3.577,-7.157 30.408,-109.109 37.563,-141.305 7.155,-32.196 7.153,-91.222 3.576,-89.433"
   id="path52" /><path
   style="fill:none"
   d="m 1882.2661,1029.3519 c -14.309,0 -12.521,23.252 -12.521,33.985 1.789,12.52 30.407,16.098 37.562,16.098 7.155,0 26.83,-3.579 46.506,-7.154 19.676,-5.367 55.448,-8.944 73.336,-26.831 19.675,-17.887 19.675,-33.985 19.675,-42.929 -1.789,-10.73 -12.521,-12.52 -16.098,-14.309 -3.577,0 -28.619,17.887 -41.14,25.042 -12.521,8.944 -28.619,12.521 -35.773,14.309 -7.156,1.789 -55.45,1.789 -71.547,1.789"
   id="path50" /><path
   style="fill:none"
   d="m 1866.1671,995.3659 c 1.79,10.733 3.578,17.887 17.888,21.466 16.098,1.787 57.237,-3.579 66.181,-3.579 7.154,0 16.099,-1.789 39.351,-14.309 25.041,-16.098 37.563,-33.985 39.351,-41.14 1.789,-7.154 1.789,-14.31 -5.367,-23.253 -5.365,-8.942 -12.52,-7.154 -19.674,-5.366 -7.155,0 -25.041,19.676 -30.407,25.041 -7.154,5.367 -12.521,7.156 -16.099,8.944 -3.577,3.579 -30.407,7.154 -41.139,8.944 -12.521,0 -44.717,7.154 -46.506,8.943 -3.579,1.79 -3.579,5.366 -3.579,14.309"
   id="path48" /><path
   style="fill:none"
   d="m 1819.6611,768.2059 c 0,10.733 26.831,12.52 35.775,16.098 12.521,3.577 10.73,8.944 10.73,8.944 0,0 -32.195,-5.367 -44.716,-7.154 -10.731,0 -19.676,0 -30.408,3.576 -10.731,0 -14.309,8.944 -14.309,16.1 0,5.366 3.577,10.731 8.943,10.731 5.365,1.789 53.66,10.732 53.66,10.732 0,0 -35.774,1.79 -53.66,1.79 -16.098,3.576 -16.098,14.309 -16.098,16.098 0,3.576 -3.579,10.73 8.943,14.309 14.309,3.576 33.983,3.576 42.928,7.154 10.732,1.789 14.309,8.943 14.309,8.943 0,0 -16.099,-3.579 -32.196,-3.579 -14.309,0 -19.675,5.368 -21.463,12.522 -1.789,7.154 0,12.52 12.521,17.886 12.52,3.577 12.52,7.156 25.04,14.31 10.733,8.943 33.985,42.927 78.702,46.504 44.717,3.579 64.394,-23.252 71.548,-30.407 7.154,-7.155 23.252,-30.408 23.252,-32.196 0,-3.579 0,-14.31 -8.942,-37.563 -8.944,-25.041 -26.831,-46.504 -33.985,-57.236 -8.943,-10.732 -26.83,-30.408 -32.197,-33.985 -5.365,-1.788 -30.406,-14.31 -37.561,-16.098 -7.154,-3.577 -21.465,-5.366 -37.563,-3.577 -16.097,0 -23.253,3.577 -23.253,16.098"
   id="path46" /><path
   style="fill:none"
   d="m 2073.6541,1020.4079 c -5.366,1.79 -8.944,23.252 -16.1,46.506 -3.577,21.464 -14.309,96.589 -16.098,121.63 -1.788,25.04 3.577,42.926 3.577,78.7 0,37.562 -8.942,100.166 -12.52,134.151 -3.578,37.562 -1.789,76.911 0,85.854 1.788,10.733 3.577,12.52 12.52,14.309 8.943,0 10.732,-5.364 12.521,-10.729 0,-3.579 3.577,-19.677 23.254,-85.857 21.463,-67.971 57.237,-216.428 66.181,-250.413 7.154,-33.985 5.365,-41.14 1.789,-51.873 -3.578,-8.943 -12.521,-17.887 -17.887,-26.831 -7.154,-8.942 -37.562,-39.35 -44.718,-42.926 -5.364,-7.155 -8.941,-14.31 -12.519,-12.521"
   id="path44" /><path
   style="fill:none"
   d="m 2061.1321,736.0099 c -21.463,16.098 -26.829,17.887 -53.66,23.252 -7.153,0 -14.309,0 -21.463,-1.79 -5.366,-1.788 -10.732,-1.788 -12.521,-1.788 0,1.788 -3.577,8.942 -3.577,21.464 0,5.365 3.577,21.463 10.731,44.717 7.155,17.886 17.887,42.927 30.407,67.969 5.367,14.309 12.52,26.831 19.676,42.929 32.195,59.027 84.068,123.418 139.516,160.979 7.154,5.366 12.522,-7.154 14.309,-10.731 1.79,-3.577 3.579,-42.928 8.944,-80.491 7.156,-51.87 0,-112.686 -3.576,-126.994 -5.368,-28.62 -33.985,-76.914 -50.083,-98.377 -7.154,-10.732 -16.098,-26.831 -28.617,-39.35 -10.733,-12.522 -26.831,-23.253 -26.831,-23.253 -3.578,0 -10.733,14.31 -23.255,21.464"
   id="path42" /><path
   style="fill:none"
   d="m 2531.5531,2020.2729 v -8.943 l -21.463,-3.576 c -17.887,-1.789 -21.466,-10.732 -21.466,-75.124 v -143.095 c 0,-64.392 1.789,-73.335 21.466,-75.125 l 21.463,-1.786 v -10.733 h -135.938 v 10.733 l 21.463,1.786 c 19.677,1.79 23.252,10.733 23.252,75.125 v 141.306 c 0,64.392 -1.786,73.335 -23.252,76.913 l -21.463,1.787 v 10.732 z"
   id="path32" /><path
   style="fill:none"
   d="m 1680.1461,2023.8529 c 7.155,0 14.31,-1.789 19.676,-3.579 v -230.738 c 0,-62.603 1.788,-73.335 25.041,-75.125 l 17.886,-1.786 v -10.733 h -118.051 v 10.733 l 21.464,1.786 c 19.675,1.79 25.042,8.944 25.042,66.182 l 1.789,150.249 -3.578,1.789 c -57.237,-69.76 -130.573,-157.403 -180.655,-211.065 -10.732,-12.519 -21.464,-19.674 -28.619,-19.674 h -78.701 v 10.733 h 14.31 c 23.253,3.576 35.773,14.309 35.773,41.137 l -1.788,178.869 c 0,66.181 -3.578,75.124 -25.042,75.124 l -21.464,3.576 v 8.943 h 123.418 v -8.943 l -23.253,-3.576 c -19.676,0 -25.042,-7.156 -25.042,-75.124 l -1.788,-168.137 3.577,-1.786 c 89.432,101.952 157.402,178.865 220.005,261.145 z"
   id="path20" /><path
   style="fill:none"
   d="m 934.27107,2005.9649 c 8.944,-19.676 14.31,-55.448 14.31,-73.335 h -12.521 c -10.732,39.351 -37.562,71.546 -94.799,71.546 -73.335,0 -128.784,-53.659 -128.784,-143.095 0,-87.644 46.505,-143.092 125.207,-143.092 57.236,0 94.799,25.041 94.799,89.433 h 14.31 c 0,-8.943 5.366,-48.293 5.366,-71.546 0,-8.943 -1.789,-23.252 -1.789,-28.62 -21.464,0 -67.969,-12.52 -110.897,-12.52 -109.109,0 -180.656,62.603 -180.656,166.345 0,112.688 78.702,166.347 175.289,166.347 41.139,0 76.914,-10.733 100.165,-21.463 z"
   id="path14" /><path
   style="fill:none"
   d="m 1866.1671,2079.3009 v 23.252 h 577.742 c 230.738,0 418.549,-5.365 418.549,-10.732 0,-5.365 -187.811,-10.73 -418.549,-10.73 z"
   id="path12" /><path
   style="fill:none"
   d="m 1705.1871,2104.3419 v -21.466 h -579.529 c -230.73903,0 -416.75903,3.579 -416.75903,8.944 0,7.154 186.021,10.732 416.75903,10.732 z"
   id="path3713" />
</svg>
