<?xml version="1.0" encoding="UTF-8" standalone="no"?>
<svg
   version="1.1"
   id="svg8"
   x="0px"
   y="0px"
   viewBox="0 0 2267.7175 2267.7185"
   xml:space="preserve"
   xmlns="http://www.w3.org/2000/svg"
   xmlns:svg="http://www.w3.org/2000/svg"
   xmlns:rdf="http://www.w3.org/1999/02/22-rdf-syntax-ns#"
   xmlns:cc="http://creativecommons.org/ns#"
   xmlns:dc="http://purl.org/dc/elements/1.1/"><metadata
   id="metadata8"><rdf:RDF><cc:Work
       rdf:about=""><dc:format>image/svg+xml</dc:format><dc:type
         rdf:resource="http://purl.org/dc/dcmitype/StillImage" /></cc:Work></rdf:RDF></metadata><defs
   id="defs6">
</defs>

<path
   id="path228"
   style="fill:none"
   d="m 1077.0247,342.75838 c -20.3373,2.03007 -22.3745,61.0045 -30.5058,124.03906 -10.1687,61.00448 -46.7724,124.03826 -65.0723,142.34179 -18.2999,20.33726 -20.3375,-12.20169 -14.2363,-24.40039 4.0674,-12.20236 2.0342,-101.67275 -38.6367,-150.47851 -38.6335,-50.83586 -111.8369,-58.96928 -138.2754,-56.93555 -26.4348,0 -30.4986,12.20114 -14.2324,26.4336 14.2324,14.23243 63.0355,93.54476 69.1367,130.14453 8.1312,36.60706 4.0665,87.43528 -4.0684,89.47265 -8.1313,4.06381 -46.7669,-83.37134 -56.9355,-97.60742 -10.165,-14.23244 -10.1657,-18.30322 -48.8028,-44.73437 -40.6709,-24.40107 -101.6728,-30.50302 -128.1113,-12.20313 -24.4011,18.29988 42.7018,67.10323 63.0391,97.60547 18.2998,30.50224 52.8698,105.74258 28.4687,111.84375 -24.4011,6.09754 -48.805,-85.41016 -148.4394,-85.41016 -101.6753,0 -122.0134,83.37251 -130.1446,99.63868 -6.1012,16.2698 2.0334,22.37031 44.7344,10.16796 42.7046,-12.20235 61.0042,-6.10078 89.4727,6.10157 30.5059,12.20236 36.6039,36.60399 28.4726,48.80269 -6.1012,12.2023 -61.0082,-24.4017 -132.1777,-4.0644 -69.1357,20.3336 -95.5707,89.469 -101.6719,117.9375 -4.0675,28.4685 14.2332,26.4357 26.4356,18.3008 12.2024,-10.165 73.207,-30.5031 95.5742,-32.5332 20.3337,-2.0374 46.7682,4.0648 44.7344,24.3984 -2.0336,22.3673 -61.0007,8.1303 -117.9414,40.6699 -56.937,34.566 -67.1055,91.5005 -67.1055,119.9727 0,28.4684 26.435,10.1671 28.4687,6.0996 4.0711,-6.1011 42.7029,-24.4009 58.9727,-30.502 16.2662,-8.1348 67.1035,-18.2993 67.1035,6.1016 2.0373,26.4312 -14.2323,18.2995 -81.3379,52.8691 -67.102,32.536 -75.2368,103.7095 -73.2031,130.1407 4.0712,26.4384 38.6371,-2.0298 58.9707,-14.2285 18.3035,-12.2026 48.805,-22.3711 69.1387,-22.3711 20.3336,-2.0337 18.3043,12.1989 12.2031,20.3339 -4.0674,8.1312 -99.6382,22.3625 -101.6719,164.7051 -2.0337,142.3462 115.9036,185.0485 185.043,195.2207 69.1357,12.1988 119.9707,-44.7383 119.9707,-44.7383 h 22.3711 c 0,0 22.3678,30.501 71.1699,79.3067 48.8022,50.8322 75.2405,71.1703 132.1738,91.5039 56.9407,22.371 174.8793,16.2653 180.9805,12.2051 6.1012,-4.0711 24.4039,-24.401 32.5352,-67.1055 8.1312,-40.6709 30.5031,-83.3718 40.6718,-95.5742 10.165,-10.1649 32.5313,-12.201 54.8985,-20.336 20.3337,-8.1312 42.7059,-10.1683 61.0058,-30.5019 16.2698,-22.3674 16.2695,-46.7701 8.1309,-95.5723 -8.1312,-50.8358 -34.5667,-52.8718 -54.9004,-56.9355 -22.3709,-2.0338 -30.5064,8.1371 -42.7051,12.1972 -10.1687,2.0338 -24.4004,4.0675 -24.4004,0 0,-4.0638 10.1694,-24.4006 40.668,-38.6367 28.4686,-14.2288 36.5992,-22.3676 46.7715,-42.7011 10.1649,-20.3338 -12.1989,-52.8728 -14.2363,-67.1016 -2.0337,-14.2324 24.4007,-36.6026 30.5019,-54.9024 6.1012,-20.3373 3e-4,-22.3688 -44.7344,-75.2421 -46.772,-52.8697 -152.5101,-126.0754 -172.8437,-136.2403 -18.2999,-12.2024 -42.7013,-28.4694 -71.1699,-48.8066 -28.4721,-20.33 -77.2701,-87.4356 -185.043,-42.6973 -115.9077,50.8358 -144.3808,109.8031 -166.7481,174.875 -22.3674,67.1057 12.2018,170.8151 10.168,174.8789 -2.0337,4.0674 -12.2012,2.0371 -12.2012,2.0371 0,0 -6.1009,6.1016 -22.3671,-30.5019 -16.2698,-34.5733 -18.3004,-101.6753 -12.1993,-140.3125 8.1314,-40.6672 34.5664,-93.5376 93.5371,-144.377 61.0081,-52.866 111.8392,-75.2328 180.9786,-81.334 71.1695,-6.0975 134.2089,48.8067 134.2089,48.8067 0,0 16.2655,-2.0383 32.5352,-4.0684 14.2324,-4.071 65.0675,-71.1774 97.6035,-160.65037 32.5396,-87.43563 18.3038,-154.53654 14.2363,-201.30859 -6.0976,-44.73833 -40.6667,-124.03906 -58.9668,-124.03906 z M 930.0931,1045.9576 c 13.1883,0.1008 23.142,2.66 24.9199,4.4394 2.0337,0 -2.0353,12.1982 -8.1328,26.4415 -8.1349,12.1987 -20.3328,24.3973 -32.5351,36.5996 -26.4348,26.4312 -65.0725,30.5015 -71.17,24.4004 -8.1385,-8.1349 2.0315,-46.7723 30.5,-73.2071 17.1576,-14.8716 39.4616,-18.8034 56.418,-18.6738 z m 220.1348,94.9297 c 4.067,-9e-4 7.1172,2.0313 10.166,5.0801 l -8.1348,26.4414 c -4.0639,2.0337 -18.3015,14.2325 -30.5039,6.0976 -10.165,-10.165 -4.0631,-22.3634 12.2031,-30.5019 7.118,-5.0825 12.2026,-7.1163 16.2696,-7.1172 z m -632.4121,153.5312 c 48.8058,0 103.709,38.6291 103.7089,83.3711 0,44.731 -28.4726,73.1989 -71.1699,69.1387 -44.7419,-4.0674 -103.7079,-24.4049 -99.6406,-87.4395 4.0675,-61.0081 67.1016,-65.0703 67.1016,-65.0703 z" /><path
   id="path248"
   style="fill:none"
   d="m 1502.4544,401.66853 c -24.1677,0.13349 -47.5295,3.74602 -59.414,10.22852 -22.3674,14.22879 -28.4675,34.5621 -32.5313,44.73437 -6.1011,10.16499 -22.3676,16.26718 -28.4687,24.39844 -6.0975,8.13125 -24.4021,24.40177 -26.4395,85.40625 -4.0638,58.97077 46.7735,87.4375 46.7735,87.4375 0,0 16.2622,-32.53437 22.3671,-34.56445 6.1011,-2.03009 97.6038,40.66549 111.8399,42.69922 16.2661,0 63.039,-8.13035 77.2715,-10.16407 16.2661,-2.03373 79.3066,-22.36652 93.539,-32.53515 12.2024,-10.16863 24.4025,-24.40089 30.5,-36.59961 6.1011,-14.23243 4.0674,-38.63749 0,-50.83985 -4.0638,-14.23608 -63.036,-65.07224 -81.3359,-79.30468 -18.2999,-14.22878 -65.072,-32.53281 -95.5742,-42.70508 -15.2513,-5.71815 -37.2029,-8.30919 -58.5274,-8.19141 z m 7.6914,69.19336 c 14.2361,0 26.4356,10.16848 26.4356,22.36719 0,12.20235 -12.2032,22.37109 -26.4356,22.37109 -14.2324,0 -26.4335,-10.16874 -26.4335,-22.37109 0,-12.19871 12.2011,-22.36719 26.4335,-22.36719 z" /><path
   style="fill:none"
   d="m 1707.3962,649.807 c 22.3673,-16.26616 38.6371,-44.73833 42.7045,-44.73833 4.0675,0 30.5023,20.33362 54.9034,46.76841 22.3673,24.40106 40.6672,56.93703 54.9033,77.27062 30.5022,44.7383 87.4355,138.2788 99.6379,193.1821 6.1012,30.5022 18.2999,150.4775 6.1012,252.1492 -10.1687,75.2369 -14.2324,154.5449 -16.2662,158.605 -4.071,8.1386 -14.2361,32.5397 -28.4685,24.4048 -111.844,-79.308 -213.5156,-205.3808 -276.5539,-323.3223 -16.2661,-30.5023 -28.4648,-56.9371 -40.6672,-83.3719 -26.4384,-52.8659 -44.742,-99.6343 -56.9407,-136.2377 -18.2998,-46.772 -24.401,-79.3044 -24.401,-89.47298 0,-24.40107 6.1012,-40.67088 10.1686,-40.67088 4.0674,-2.03007 12.1987,0 24.401,2.03373 14.2361,2.03737 30.506,2.03737 42.7046,0 52.8696,-4.06017 63.0383,-6.09753 107.773,-36.59977"
   id="path246" /><path
   style="fill:none"
   d="m 1727.7298,1211.0424 c 8.1312,-2.0338 14.2324,14.2324 26.4311,24.412 10.1686,10.165 75.2369,71.1694 87.4392,87.4356 14.2325,16.2662 28.4686,34.5697 36.6035,52.8696 6.1012,20.3373 8.1312,34.5661 -6.1012,101.6717 -16.2698,67.102 -87.4392,361.9595 -128.1102,496.1671 -40.6672,134.2113 -44.7309,164.7136 -46.7684,172.8412 -4.0637,8.1386 -8.1312,20.3372 -24.401,18.2999 -18.2999,-2.0374 -22.3637,-8.1349 -24.4011,-28.4685 -4.0638,-18.3036 -6.1011,-97.6079 0,-168.7811 6.1012,-69.1284 24.4011,-193.1747 24.4011,-264.3479 0,-71.1731 -10.165,-107.7728 -8.1313,-158.6123 2.0338,-50.8395 24.4011,-197.2459 36.6035,-241.9806 10.1649,-44.7346 16.2661,-87.4393 26.4348,-91.5067"
   id="path244" /><path
   style="fill:none"
   d="m 1225.4615,708.77775 c 0,-24.40471 16.2661,-28.46851 46.7793,-30.50588 30.5022,-4.0711 56.937,0 73.2068,6.09753 14.2325,6.09754 63.0345,28.46852 73.1996,34.56969 10.1686,8.13491 48.8021,44.73471 63.0382,65.07191 16.2698,22.3674 52.866,67.1057 69.1357,115.9078 18.2999,48.7985 18.2999,69.1357 18.2999,73.1996 -2.0301,6.1012 -28.4685,50.8394 -44.7347,63.0418 -14.236,14.2287 -52.8696,71.1695 -142.3426,63.0346 -91.5066,-6.1012 -132.1776,-77.2743 -156.5786,-91.5068 -22.3674,-16.2698 -26.4348,-24.4047 -50.8359,-32.5359 -24.4047,-10.1651 -26.4348,-20.3373 -22.3709,-32.536 4.0674,-14.2288 14.236,-28.4685 42.7045,-26.4312 28.4685,2.0301 63.0346,10.1687 63.0346,10.1687 0,0 -8.1313,-14.2361 -28.4685,-20.3373 -20.3337,-6.1012 -58.9708,-8.1312 -83.3718,-14.2324 -24.4011,-8.1386 -20.3336,-22.371 -18.2999,-26.4384 0,-4.0638 0,-26.4312 32.536,-30.4986 32.5359,-2.0301 105.7391,-4.0675 105.7391,-4.0675 0,0 -95.5706,-16.2661 -105.7391,-20.3336 -10.1687,-4.0674 -16.2699,-12.1987 -14.2361,-24.401 0,-10.1687 4.0674,-26.4348 26.4384,-30.5023 20.3336,-4.0674 36.5997,-8.1312 58.9708,-6.0975 24.401,2.0301 89.4729,12.1987 89.4729,12.1987 0,0 2.0302,-8.1313 -20.3372,-16.2662 -24.4011,-10.165 -75.2405,-12.2023 -75.2405,-36.59975"
   id="path242" /><path
   style="fill:none"
   d="m 1319.0055,1162.2402 c -2.0373,-18.2999 0,-26.4384 4.0602,-28.4758 4.0711,-2.03 67.1057,-16.2661 91.5067,-18.2999 24.4011,-4.0674 75.2406,-8.1312 83.3755,-14.2324 8.1349,-6.1012 18.2999,-8.1349 32.536,-20.3372 12.1987,-12.1988 46.7647,-46.7684 63.0346,-50.8323 14.2324,-2.0337 24.401,-6.0975 36.5997,12.2024 12.2024,18.3036 14.236,32.5323 10.1687,46.7684 -6.1012,14.2361 -30.4987,50.8359 -79.3044,79.308 -46.7684,26.4312 -61.0046,30.4986 -79.3044,30.4986 -18.2999,0 -97.6043,10.1686 -128.1065,4.0674 -30.5022,-6.1011 -32.5324,-20.3372 -34.5661,-40.6672"
   id="path240" /><path
   style="fill:none"
   d="m 1349.5042,1229.3422 c 30.4985,0 126.0727,-2.03 142.3425,-4.071 14.2361,-2.0301 48.8022,-10.165 71.1731,-24.4011 22.3673,-16.2661 73.2032,-52.8696 81.3381,-50.8322 6.1012,0 28.4649,8.1313 30.5023,26.4311 2.0337,20.3373 0,50.8395 -36.6035,87.443 -36.6034,36.6034 -105.7428,44.7346 -146.41,52.8732 -40.6709,6.0976 -79.308,12.1987 -93.5404,10.1613 -14.2325,0 -71.1695,-8.1312 -73.2032,-30.5022 -2.0337,-22.3674 -4.0675,-67.1021 24.4011,-67.1021"
   id="path238" /><path
   style="fill:none"
   d="m 1646.388,1314.7514 c 6.1048,-4.0674 4.0711,109.8067 -12.195,176.9087 -14.2325,65.0683 -63.0346,266.378 -73.2032,280.6141 -8.135,14.236 -77.2707,48.8057 -97.6079,58.9744 -22.3674,10.1686 -75.237,28.4685 -77.2744,28.4685 -4.0674,2.0373 -28.4684,12.1987 -28.4684,-18.2999 2.0337,-32.536 8.1312,-185.0472 -2.0374,-288.749 -10.1614,-105.7428 -12.1987,-148.451 -12.1987,-162.6798 -2.0338,-12.1987 -4.0675,-34.5733 18.2998,-34.5733 20.3373,-2.0265 87.4393,0 136.2451,-8.1277 48.8021,-8.1385 142.339,-30.4985 148.4401,-32.536"
   id="path236" /><path
   style="fill:none"
   d="m 684.55972,1530.2972 c 2.0373,0 12.206,16.2626 16.2734,22.371 6.1012,6.0939 97.6042,132.1703 227.7481,158.6087 128.10648,28.465 172.84118,-4.0674 185.04358,-18.3034 14.2324,-16.2626 42.7045,-95.567 50.8358,-117.9343 6.0975,-20.3372 20.3337,-42.7046 52.8696,-48.8058 12.1987,-4.071 30.5022,-8.1349 44.7383,-8.1349 28.4649,-2.03 52.8659,2.0374 63.0346,10.1687 14.2324,10.1686 14.2324,109.8065 8.1312,164.7063 -6.0975,52.8695 -18.2999,156.5822 -22.3673,164.7099 -2.0338,6.1012 -56.9371,34.5696 -166.7437,36.6033 -111.8403,4.0748 -313.15358,-32.5286 -420.92648,-91.4994 -107.7693,-54.9033 -150.47382,-97.6079 -193.17852,-140.3125 -42.7009,-42.7045 -34.566,-38.6335 -30.5022,-48.8057 2.0337,-10.165 12.1988,-28.4649 18.2999,-30.5023 6.1011,-2.03 40.6709,-4.0638 67.1057,-10.165 26.43112,-6.1011 65.06832,-14.2361 77.27062,-26.4384 14.2325,-14.2288 18.2999,-16.2662 22.3674,-16.2662"
   id="path234" /><path
   style="fill:none"
   d="m 1831.4352,1823.11 c 12.1987,6.1048 44.7346,-10.1613 93.5295,-58.9671 46.7684,-48.8021 63.0346,-73.2069 83.3719,-101.6717 18.2998,-26.4385 103.7053,-176.9087 134.2113,-321.285 30.4986,-144.3763 30.4986,-187.0772 30.4986,-254.1865 0,-65.0719 -28.465,-268.4153 -71.1695,-368.05332 -44.7347,-99.64163 -83.3719,-211.48561 -172.8448,-292.82006 -87.4357,-81.34174 -250.1155,-197.24589 -443.294,-248.08538 -195.2121,-50.83222 -246.048,-44.73104 -309.0862,-46.76841 -61.0008,-2.03737 -225.71438,10.16498 -327.38608,30.50224 -101.6717,20.32997 -134.2113,34.56605 -162.6762,40.66723 C 658.12492,208.54318 381.571,332.58222 261.5957,533.89921 143.6542,737.2463 117.2194,981.2605 125.3543,1107.3333 c 6.1048,126.0764 36.6035,473.7998 215.5494,673.0758 176.9087,199.2832 394.49182,288.7526 746.279,307.0561 351.7908,18.3035 530.7368,-124.039 530.7368,-124.039 l 22.3674,-170.8148 c 0,0 -241.9806,132.1776 -506.3322,136.2487 C 869.60682,1934.954 625.58892,1833.2859 477.1487,1666.535 328.7087,1499.7913 279.9028,1176.469 302.2702,946.6945 326.6713,716.90902 426.313,485.09708 743.53412,365.12184 1058.7214,247.17668 1438.9771,342.7545 1540.6489,373.2531 c 103.709,28.46851 394.4953,217.5795 453.4624,567.3402 56.9371,347.7233 -54.9032,504.2984 -83.3717,569.3703 -26.4348,63.0346 -63.0383,130.1439 -71.1732,185.0436 -6.0975,54.8996 -18.2962,119.9788 -8.1312,128.1028"
   id="path232" /><path
   style="fill:none"
   d="m 588.9891,1349.3175 c -2.0337,-20.3336 -36.6034,-42.701 -58.9708,-40.6709 -22.3673,4.0748 -22.3673,4.0748 -38.6371,12.2024 -16.2662,8.1349 -26.4348,32.5396 -16.2662,56.9407 10.1651,26.4311 52.8696,24.3974 79.3044,20.3336 26.4348,-4.0712 36.6035,-28.4721 34.5697,-48.8058 z"
   id="path230" />
</svg>
