<?xml version="1.0" encoding="utf-8"?>
<!-- Generator: Adobe Illustrator 14.0.0, SVG Export Plug-In . SVG Version: 6.00 Build 43363)  -->
<!DOCTYPE svg PUBLIC "-//W3C//DTD SVG 1.1//EN" "http://www.w3.org/Graphics/SVG/1.1/DTD/svg11.dtd">
<svg version="1.1"
	 id="svg8" sodipodi:docname="conabio_completo.svg" inkscape:version="0.92.4 (5da689c313, 2019-01-14)" xmlns:dc="http://purl.org/dc/elements/1.1/" xmlns:cc="http://creativecommons.org/ns#" xmlns:rdf="http://www.w3.org/1999/02/22-rdf-syntax-ns#" xmlns:svg="http://www.w3.org/2000/svg" xmlns:sodipodi="http://sodipodi.sourceforge.net/DTD/sodipodi-0.dtd" xmlns:inkscape="http://www.inkscape.org/namespaces/inkscape"
	 xmlns="http://www.w3.org/2000/svg" xmlns:xlink="http://www.w3.org/1999/xlink" x="0px" y="0px" width="2267.716px"
	 height="2267.717px" viewBox="4584.941 284.149 2267.716 2267.717" enable-background="new 4584.941 284.149 2267.716 2267.717"
	 xml:space="preserve">
<sodipodi:namedview  id="base" inkscape:window-height="962" inkscape:document-units="mm" inkscape:window-x="-8" inkscape:window-y="-8" inkscape:pageopacity="0.0" inkscape:pageshadow="2" inkscape:current-layer="layer1" inkscape:window-width="1280" inkscape:window-maximized="1" borderopacity="1.0" bordercolor="#666666" showgrid="false" pagecolor="#ffffff" inkscape:cy="1175.2633" inkscape:cx="1409.0328" inkscape:zoom="0.1400905">
	</sodipodi:namedview>
<g id="layer1" transform="translate(-0.20161961,150.24223)" inkscape:groupmode="layer" inkscape:label="Capa 1">
	<path id="path3713" inkscape:connector-curvature="0" fill="none" stroke="#000000" stroke-width="0.2646" d="M5274.517,1374.328
		c3.906,0,7.811-0.559,11.158-2.231c3.348-1.675,6.138-3.347,8.369-6.138l-7.252-6.695c-2.79,3.905-7.254,5.58-11.716,5.58
		c-2.79,0-5.58-0.559-7.812-1.675c-2.231-1.673-4.463-3.347-5.579-5.579c-1.116-2.23-1.674-5.021-1.674-7.81
		c0-2.79,0.558-5.579,1.674-7.812c1.116-2.232,3.348-4.464,5.579-5.579c2.231-1.116,5.021-1.675,7.812-1.675
		c4.462,0,8.926,1.675,11.716,5.58l7.252-6.695c-2.231-2.789-5.021-5.021-8.369-6.137c-3.347-1.674-7.252-2.232-11.158-2.232
		c-5.021,0-9.484,0.559-13.39,2.789c-3.905,2.232-6.695,5.021-8.927,8.927c-2.232,3.907-3.348,8.369-3.348,12.834
		c0,4.463,1.116,9.483,3.348,12.831c2.231,3.348,5.021,6.139,8.927,8.369C5265.032,1373.213,5269.495,1374.328,5274.517,1374.328z
		 M5331.425,1374.328c5.021,0,9.485-1.115,13.391-3.348c3.905-2.23,7.253-5.021,9.485-8.926c2.231-3.349,3.347-7.812,3.347-12.274
		c0-4.465-1.116-8.927-3.347-12.834c-2.232-3.347-5.58-6.694-9.485-8.927c-3.905-1.674-8.369-2.789-13.391-2.789
		c-4.464,0-8.927,1.115-13.391,2.789c-3.905,2.232-6.694,5.58-8.927,8.927c-2.231,3.907-3.347,8.369-3.347,12.834
		c0,4.463,1.116,8.368,3.347,12.274c2.232,3.904,5.022,6.695,8.927,8.926C5322.499,1373.213,5326.961,1374.328,5331.425,1374.328z
		 M5331.425,1364.844c-2.79,0-5.021-0.559-7.253-1.675c-2.232-1.673-4.464-3.347-5.58-5.579c-1.116-2.23-1.674-5.021-1.674-7.81
		c0-2.79,0.558-5.579,1.674-7.812s3.347-4.464,5.58-5.579c2.231-1.116,4.463-1.675,7.253-1.675s5.58,0.559,7.812,1.675
		c2.232,1.115,3.905,3.347,5.579,5.579c1.116,2.232,1.673,5.021,1.673,7.812c0,2.788-0.557,5.579-1.673,7.81
		c-1.674,2.232-3.347,3.906-5.579,5.579C5337.005,1364.285,5334.215,1364.844,5331.425,1364.844z M5427.948,1373.213v-47.424h-9.485
		l-17.296,29.57l-17.854-29.57h-8.927v47.424h10.042v-27.897l13.949,22.876h5.021l13.948-23.434v28.455H5427.948z
		 M5447.475,1373.213h11.158v-47.424h-11.158V1373.213z M5493.225,1374.328c4.463,0,8.37-0.559,11.158-2.231
		c3.348-1.116,5.58-2.79,7.253-5.021c1.116-2.232,2.232-5.021,2.232-7.254c0-3.348-1.116-6.137-2.79-7.811
		c-1.674-1.673-3.347-3.348-5.579-3.906c-2.79-1.115-5.58-1.674-8.927-2.79c-3.906-0.558-6.137-1.673-7.811-2.231
		c-1.674-1.115-2.79-2.23-2.79-3.904c0-1.675,0.557-2.79,2.231-3.906c1.674-1.115,3.906-1.115,6.695-1.115
		c4.463,0,8.927,1.115,13.39,3.347l3.348-8.368c-2.232-1.117-4.463-2.232-7.811-2.791c-2.79-1.115-5.58-1.115-8.927-1.115
		c-3.907,0-7.811,0.559-10.601,1.674c-3.347,1.674-5.021,3.348-6.695,5.581c-1.673,2.229-2.231,4.461-2.231,7.251
		c0,3.348,0.558,6.138,2.231,7.813c1.674,1.673,3.348,3.346,6.138,3.904c2.231,1.115,5.021,1.674,8.926,2.79
		c2.232,0.558,3.906,1.116,5.58,1.673c1.116,0,2.79,1.117,3.348,1.674c0.557,0.559,1.115,1.674,1.115,2.791
		c0,1.674-0.558,3.347-2.232,3.904c-1.673,0.559-3.905,1.117-6.695,1.117c-2.791,0-5.579-0.559-8.927-1.117
		c-2.79-1.116-5.022-2.23-7.253-3.904l-3.347,8.369c2.231,1.672,5.021,2.789,8.369,3.904
		C5485.972,1373.77,5489.877,1374.328,5493.225,1374.328z M5529.49,1373.213h11.158v-47.424h-11.158V1373.213z M5583.051,1374.328
		c5.022,0,9.485-1.115,13.391-3.348c3.905-2.23,6.695-5.021,9.485-8.926c2.231-3.349,3.347-7.812,3.347-12.274
		c0-4.465-1.116-8.927-3.347-12.834c-2.79-3.347-5.58-6.694-9.485-8.927c-3.905-1.674-8.369-2.789-13.391-2.789
		c-5.021,0-9.484,1.115-13.39,2.789c-3.906,2.232-7.253,5.58-9.485,8.927c-2.231,3.907-3.347,8.369-3.347,12.834
		c0,4.463,1.116,8.368,3.347,12.274c2.232,3.904,5.58,6.695,9.485,8.926C5573.566,1373.213,5578.03,1374.328,5583.051,1374.328z
		 M5583.051,1364.844c-2.789,0-5.579-0.559-7.811-1.675c-2.232-1.673-3.348-3.347-5.021-5.579c-1.674-2.23-2.232-5.021-2.232-7.81
		c0-2.79,1.115-5.579,2.232-7.812c1.116-2.232,2.789-4.464,5.021-5.579c2.231-1.116,5.021-1.675,7.811-1.675
		c2.79,0,5.58,0.559,7.812,1.675c2.231,1.115,3.905,3.347,5.021,5.579c1.674,2.232,2.231,5.021,2.231,7.812
		c0,2.788-0.558,5.579-2.231,7.81c-1.116,2.232-2.79,3.906-5.021,5.579C5588.631,1364.285,5585.841,1364.844,5583.051,1364.844z
		 M5576.914,1321.883h8.369l12.274-9.484h-11.717L5576.914,1321.883z M5658.371,1325.789v29.012l-23.433-29.012h-9.484v47.424
		h11.158v-28.455l23.433,28.455h9.485v-47.424H5658.371z M5748.756,1325.789v29.012l-23.434-29.012h-8.927v47.424h10.602v-28.455
		l23.99,28.455h8.927v-47.424H5748.756z M5815.15,1373.213h11.158l-21.201-47.424h-10.601l-21.202,47.424h11.159l4.464-10.044
		h21.759L5815.15,1373.213z M5792.275,1354.801l7.253-17.854l7.812,17.854H5792.275z M5862.015,1374.328
		c3.906,0,7.811-0.559,11.159-2.231c3.348-1.675,6.137-3.347,8.369-6.138l-7.254-6.695c-3.348,3.905-7.253,5.58-11.716,5.58
		c-2.789,0-5.58-0.559-7.811-1.675c-2.233-1.673-4.464-3.347-5.58-5.579c-1.116-2.23-1.674-5.021-1.674-7.81
		c0-2.79,0.558-5.579,1.674-7.812s3.347-4.464,5.58-5.579c2.23-1.116,5.021-1.675,7.811-1.675c4.463,0,8.368,1.675,11.716,5.58
		l7.254-6.695c-2.232-2.789-5.021-5.021-8.369-6.137c-3.349-1.674-7.253-2.232-11.159-2.232c-5.021,0-9.485,0.559-13.39,2.789
		c-3.905,2.232-7.253,5.021-9.485,8.927c-2.231,3.907-3.348,8.369-3.348,12.834c0,4.463,1.116,9.483,3.348,12.831
		c2.232,3.348,5.58,6.139,9.485,8.369C5852.53,1373.213,5856.994,1374.328,5862.015,1374.328z M5897.165,1373.213h11.159v-47.424
		h-11.159V1373.213z M5950.725,1374.328c5.022,0,9.486-1.115,13.391-3.348c3.905-2.23,6.696-5.021,8.927-8.926
		c2.233-3.349,3.348-7.812,3.348-12.274c0-4.465-1.114-8.927-3.348-12.834c-2.23-3.347-5.021-6.694-8.927-8.927
		c-3.904-1.674-8.368-2.789-13.391-2.789c-5.021,0-9.484,1.115-13.39,2.789c-3.905,2.232-7.252,5.58-9.485,8.927
		c-2.23,3.907-3.347,8.369-3.347,12.834c0,4.463,1.116,8.368,3.347,12.274c2.233,3.904,5.58,6.695,9.485,8.926
		C5941.241,1373.213,5945.705,1374.328,5950.725,1374.328z M5950.725,1364.844c-2.788,0-5.579-0.559-7.81-1.675
		c-2.232-1.673-3.348-3.347-5.021-5.579c-1.675-2.23-2.231-5.021-2.231-7.81c0-2.79,1.114-5.579,2.231-7.812
		c1.116-2.232,2.789-4.464,5.021-5.579c2.23-1.116,5.021-1.675,7.81-1.675c2.79,0,5.022,0.559,7.812,1.675
		c2.232,1.115,3.906,3.347,5.021,5.579c1.116,2.232,2.232,5.021,2.232,7.812c0,2.788-1.116,5.579-2.232,7.81
		c-1.115,2.232-2.789,3.906-5.021,5.579C5955.748,1364.285,5953.515,1364.844,5950.725,1364.844z M6026.045,1325.789v29.012
		l-23.989-29.012h-8.928v47.424h11.158v-28.455l23.434,28.455h8.927v-47.424H6026.045z M6091.881,1373.213h11.717l-21.2-47.424
		h-11.159l-21.201,47.424h11.158l4.463-10.044h21.76L6091.881,1373.213z M6069.007,1354.801l7.811-17.854l7.253,17.854H6069.007z
		 M6116.43,1373.213h35.15v-8.928h-23.991v-38.496h-11.159V1373.213z M6214.069,1325.789h-20.644v47.424h11.159v-12.832h9.484
		c3.905,0,7.811-0.559,11.157-2.232c2.791-1.115,5.021-3.348,6.696-5.58c1.673-2.788,2.789-6.137,2.789-9.484
		s-1.116-6.694-2.789-8.926c-1.675-2.79-3.905-5.021-6.696-6.139C6221.879,1326.346,6217.974,1325.789,6214.069,1325.789z
		 M6213.51,1351.453h-8.926v-16.738h8.926c3.348,0,5.579,1.117,7.253,2.231c1.674,1.675,2.79,3.349,2.79,6.138
		c0,2.79-1.116,5.021-2.79,6.138C6219.089,1350.895,6216.858,1351.453,6213.51,1351.453z M6283.809,1373.213h11.716l-21.201-47.424
		h-11.157l-21.201,47.424h11.158l4.464-10.044h22.316L6283.809,1373.213z M6260.934,1354.801l7.812-17.854l7.253,17.854H6260.934z
		 M6350.76,1373.213l-10.601-15.064c3.349-1.115,5.579-3.348,7.254-5.58c1.674-2.788,2.231-6.137,2.231-9.484
		s-0.558-6.694-2.231-8.926c-1.675-2.79-4.464-4.465-7.254-6.139c-2.789-1.674-6.694-2.23-11.158-2.23h-20.086v47.424h10.601
		v-12.832h9.485h0.559l9.484,12.832H6350.76z M6339.044,1343.084c0,2.79-1.116,5.021-2.791,6.138
		c-1.673,1.673-4.463,2.231-7.811,2.231h-8.927v-16.738h8.927c3.348,0,6.138,1.117,7.811,2.231
		C6337.928,1338.621,6339.044,1340.295,6339.044,1343.084z M6402.648,1373.213h11.158l-21.2-47.424h-10.602l-21.201,47.424h11.158
		l3.905-10.044h22.317L6402.648,1373.213z M6379.774,1354.801l7.252-17.854l7.812,17.854H6379.774z M5262.242,1441.838v-11.159
		h22.317v-8.927h-22.317v-10.043h25.106v-8.926h-35.707v47.424h36.823v-8.369H5262.242z M5305.203,1450.207h35.149v-8.928h-23.99
		v-38.496h-11.159V1450.207z M5405.072,1451.323c3.905,0,7.812-0.557,11.159-2.231c3.348-1.673,6.137-3.905,8.369-6.138
		l-7.253-6.695c-2.789,3.906-7.253,5.58-11.717,5.58c-2.789,0-5.578-0.559-7.811-1.674c-2.231-1.674-4.463-3.348-5.579-5.581
		c-1.116-2.229-1.673-4.463-1.673-7.81c0-3.348,0.557-5.021,1.673-7.811s3.348-4.463,5.579-5.58c2.232-1.116,5.021-2.23,7.811-2.23
		c4.464,0,8.928,2.23,11.717,5.577l7.253-6.136c-2.232-2.79-5.021-5.021-8.369-6.137c-3.348-1.674-7.254-2.232-11.159-2.232
		c-5.021,0-9.484,0.559-13.39,2.789c-3.906,2.232-6.695,5.021-8.928,8.928c-2.231,3.905-3.348,8.369-3.348,12.832
		s1.116,8.368,3.348,12.274c2.232,3.905,5.021,6.696,8.928,8.926C5395.587,1450.207,5400.051,1451.323,5405.072,1451.323z
		 M5461.98,1451.323c5.022,0,9.485-1.115,13.391-3.349c3.906-2.229,7.253-5.021,9.485-8.926c2.232-3.348,3.348-7.253,3.348-12.274
		s-1.116-8.927-3.348-12.832c-2.232-3.906-5.579-6.695-9.485-8.928c-3.906-1.673-8.369-2.789-13.391-2.789
		c-4.462,0-8.927,1.116-12.832,2.789c-4.463,2.232-7.254,5.021-9.485,8.928c-2.231,3.905-3.347,8.369-3.347,12.832
		s1.116,8.368,3.347,12.274c2.231,3.905,5.022,6.696,9.485,8.926C5453.054,1450.207,5457.518,1451.323,5461.98,1451.323z
		 M5461.98,1441.838c-2.789,0-5.021-0.559-7.252-1.674c-2.231-1.674-4.464-3.348-5.58-5.581c-1.116-2.229-1.673-4.463-1.673-7.81
		c0-3.348,0-5.021,1.673-7.811c1.674-2.789,3.348-4.463,5.58-5.58c2.231-1.116,4.464-2.23,7.252-2.23c3.348,0,5.58,1.114,7.811,2.23
		c2.232,1.117,3.906,2.791,5.58,5.58c1.116,2.231,1.673,5.021,1.673,7.811s-0.558,5.58-1.673,7.81
		c-1.674,2.233-3.347,3.907-5.58,5.581C5467.56,1441.28,5465.329,1441.838,5461.98,1441.838z M5537.858,1402.783v29.012
		l-23.99-29.012h-8.927v47.424h10.601v-28.455l23.991,28.455h8.928v-47.424H5537.858z M5590.862,1451.323
		c5.021,0,9.484-1.115,13.39-3.349c3.906-2.229,7.253-5.021,9.485-8.926c2.231-3.348,3.347-7.253,3.347-12.274
		s-1.116-8.927-3.347-12.832c-2.231-3.906-5.579-6.695-9.485-8.928c-3.906-1.673-8.369-2.789-13.39-2.789s-9.485,1.116-13.391,2.789
		c-3.905,2.232-6.695,5.021-8.927,8.928c-2.231,3.905-3.348,8.369-3.348,12.832s1.117,8.368,3.348,12.274
		c2.231,3.905,5.021,6.696,8.927,8.926C5581.377,1450.207,5585.841,1451.323,5590.862,1451.323z M5590.862,1441.838
		c-2.79,0-5.021-0.559-7.253-1.674c-2.232-1.674-4.463-3.348-5.579-5.581c-1.116-2.229-1.674-4.463-1.674-7.81
		c0-3.348,0.558-5.021,1.674-7.811c1.116-2.789,3.347-4.463,5.579-5.58c2.231-1.116,4.463-2.23,7.253-2.23
		c2.79,0,5.579,1.114,7.811,2.23c2.232,1.117,3.906,2.791,5.58,5.58c1.116,2.231,1.674,5.021,1.674,7.811s-0.559,5.58-1.674,7.81
		c-1.673,2.233-3.347,3.907-5.58,5.581C5596.441,1441.28,5593.652,1441.838,5590.862,1441.838z M5656.14,1451.323
		c4.464,0,8.369-0.557,11.717-2.231c3.347-1.673,6.138-3.905,8.369-6.138l-7.253-6.695c-3.347,3.906-7.254,5.58-11.717,5.58
		c-3.347,0-5.579-0.559-8.369-1.674c-2.231-1.674-3.347-3.348-5.021-5.581c-1.673-2.229-2.231-4.463-2.231-7.81
		c0-3.348,1.117-5.021,2.231-7.811c1.117-2.789,2.791-4.463,5.021-5.58c2.791-1.116,5.022-2.23,8.369-2.23
		c4.463,0,8.37,2.23,11.717,5.577l7.253-6.136c-2.231-2.79-5.021-5.021-8.369-6.137c-3.348-1.674-7.253-2.232-11.159-2.232
		c-5.021,0-9.484,0.559-13.39,2.789c-3.906,2.232-7.253,5.021-9.484,8.928c-2.232,3.905-3.348,8.369-3.348,12.832
		s1.116,8.368,3.348,12.274c2.231,3.905,5.579,6.696,9.484,8.926C5647.213,1450.207,5651.677,1451.323,5656.14,1451.323z
		 M5691.848,1450.207h10.6v-47.424h-10.6V1450.207z M5775.537,1450.207v-47.424h-8.927l-17.296,29.57l-17.854-29.57h-9.485v47.424
		h10.601v-27.896l13.948,22.875h5.021l13.948-23.434v28.455H5775.537z M5795.064,1450.207h11.158v-47.424h-11.158V1450.207z
		 M5836.909,1441.838v-11.159h21.76v-8.927h-21.76v-10.043h25.106v-8.926h-36.265v47.424h36.823v-8.369H5836.909z
		 M5912.229,1402.783v29.012l-23.433-29.012h-8.927v47.424h10.601v-28.455l23.99,28.455h8.927v-47.424H5912.229z M5952.4,1411.709
		v38.498h11.158v-38.498h15.623v-8.926h-41.846v8.926h15.623H5952.4z M6015.447,1451.323c5.021,0,9.484-1.115,13.39-3.349
		c3.906-2.229,6.694-5.021,8.928-8.926c2.788-3.348,3.904-7.253,3.904-12.274s-1.116-8.927-3.904-12.832
		c-2.233-3.906-5.021-6.695-8.928-8.928c-3.905-1.673-8.368-2.789-13.39-2.789s-9.485,1.116-13.391,2.789
		c-3.906,2.232-7.254,5.021-9.484,8.928c-2.233,3.905-3.348,8.369-3.348,12.832s1.114,8.368,3.348,12.274
		c2.23,3.905,5.578,6.696,9.484,8.926C6005.961,1450.207,6010.425,1451.323,6015.447,1451.323z M6015.447,1441.838
		c-2.791,0-5.58-0.559-7.813-1.674c-2.231-1.674-3.348-3.348-5.021-5.581c-1.673-2.229-2.231-4.463-2.231-7.81
		c0-3.348,1.117-5.021,2.231-7.811c1.116-2.789,2.79-4.463,5.021-5.58c2.232-1.116,5.021-2.23,7.813-2.23
		c2.788,0,5.578,1.114,7.81,2.23c2.232,1.117,3.905,2.791,5.022,5.58c1.114,2.231,2.23,5.021,2.23,7.811s-1.116,5.58-2.23,7.81
		c-1.117,2.233-2.79,3.907-5.022,5.581C6021.025,1441.28,6018.235,1441.838,6015.447,1441.838z M6127.033,1402.783h-11.16
		l-12.832,21.201l-12.273-21.201h-11.718l18.412,30.686v16.738h10.601v-16.738L6127.033,1402.783z M6188.404,1451.323
		c6.695,0,11.717-2.231,15.622-5.578c3.905-3.906,5.579-9.486,5.579-16.182v-26.779h-10.601v26.223c0,4.463-1.116,7.811-2.789,9.484
		c-1.675,2.232-4.464,3.348-7.812,3.348c-7.253,0-10.601-4.463-10.601-12.832v-26.223h-11.158v26.779
		c0,6.695,1.674,12.275,5.578,16.182C6176.128,1449.091,6181.708,1451.323,6188.404,1451.323z M6244.754,1451.323
		c3.905,0,7.811-0.557,10.601-2.231c3.348-1.117,5.579-2.79,7.253-5.021c1.116-2.231,2.231-5.021,2.231-7.812
		c0-2.789-1.115-5.579-2.789-7.252c-1.674-1.674-3.348-3.349-5.58-3.906c-2.23-1.115-5.578-1.674-8.927-2.789
		c-3.905-0.559-6.137-1.674-7.811-2.232c-1.675-1.115-2.789-2.231-2.789-3.904c0-1.674,1.114-2.791,2.231-3.907
		c1.674-1.114,3.905-1.673,6.695-1.673c4.463,0,8.927,1.673,13.391,3.906l3.347-8.369c-2.231-1.117-4.463-2.232-7.253-2.79
		c-3.349-1.116-6.137-1.116-8.927-1.116c-4.463,0-8.37,0.559-11.158,1.674c-3.348,1.674-5.022,3.348-6.695,5.58
		c-1.674,2.23-2.231,4.463-2.231,7.251c0,3.349,0.558,5.581,2.231,7.813c1.673,1.673,3.348,3.348,6.137,3.904
		c2.232,1.115,5.021,1.673,8.927,2.789c2.232,0.559,3.905,1.117,5.58,1.674c1.115,0,2.788,1.117,3.347,1.673
		c0.559,0.559,1.116,1.675,1.116,2.792c0,1.673-0.558,3.348-2.232,3.904c-1.673,0.559-3.905,1.117-6.694,1.117
		s-5.579-0.559-8.369-1.117c-2.79-1.115-5.579-2.231-7.811-3.904l-3.349,8.369c2.232,1.674,5.021,2.788,8.369,3.904
		C6236.944,1450.766,6240.849,1451.323,6244.754,1451.323z M6303.337,1451.323c5.021,0,9.484-1.115,13.391-3.349
		c3.905-2.229,7.252-5.021,9.484-8.926c2.23-3.348,3.348-7.253,3.348-12.274s-1.117-8.927-3.348-12.832
		c-2.232-3.906-5.579-6.695-9.484-8.928c-3.906-1.673-8.369-2.789-13.391-2.789s-8.927,1.116-13.391,2.789
		c-3.905,2.232-6.696,5.021-8.927,8.928c-2.232,3.905-3.349,8.369-3.349,12.832s1.116,8.368,3.349,12.274
		c2.23,3.905,5.021,6.696,8.927,8.926C6294.411,1450.207,6298.316,1451.323,6303.337,1451.323z M6303.337,1441.838
		c-2.791,0-5.021-0.559-7.254-1.674c-2.231-1.674-4.464-3.348-5.578-5.581c-1.116-2.229-1.675-4.463-1.675-7.81
		c0-3.348,0.559-5.021,1.675-7.811c1.114-2.789,3.347-4.463,5.578-5.58c2.232-1.116,4.463-2.23,7.254-2.23
		c2.789,0,5.578,1.114,7.811,2.23c2.232,1.117,3.905,2.791,5.58,5.58c1.115,2.231,1.673,5.021,1.673,7.811s-0.558,5.58-1.673,7.81
		c-1.675,2.233-3.348,3.907-5.58,5.581C6308.916,1441.28,6306.126,1441.838,6303.337,1441.838z M5251.642,1527.201h21.759
		c5.022,0,9.485-0.559,13.391-2.79c3.904-1.673,7.252-5.021,9.485-8.369c2.231-3.347,3.347-7.253,3.347-12.274
		s-1.116-8.926-3.347-12.832c-2.232-3.349-5.581-6.138-9.485-8.369c-3.906-1.674-8.369-2.79-13.391-2.79h-21.759V1527.201z
		 M5262.8,1518.276v-29.572h10.042c4.464,0,8.37,1.674,11.159,3.905c2.79,2.79,4.463,6.696,4.463,11.159
		c0,4.464-1.673,7.811-4.463,10.601c-2.79,2.79-6.695,3.907-11.159,3.907H5262.8z M5326.961,1518.831v-11.158h21.76v-8.927h-21.76
		v-10.043h25.107v-8.927h-36.266v47.425h36.824v-8.37H5326.961z M5397.261,1527.201h35.149v-8.926h-23.991v-38.499h-11.158V1527.201
		z M5482.624,1527.201h11.716l-21.759-47.425h-10.601l-21.201,47.425h11.158l4.464-10.043h21.759L5482.624,1527.201z
		 M5459.749,1508.789l7.811-18.412l7.253,18.412H5459.749z M5569.661,1502.652c2.231-1.115,3.347-2.231,4.463-4.463
		c1.116-1.673,1.674-3.905,1.674-6.139c0-3.904-1.115-6.693-4.463-8.925c-2.79-2.232-7.812-3.349-13.391-3.349h-23.433v47.425
		h25.107c6.137,0,10.601-1.115,13.948-3.349c3.348-2.231,5.021-5.021,5.021-9.484c0-2.79-1.116-5.579-2.79-7.253
		C5574.683,1504.885,5572.451,1503.768,5569.661,1502.652z M5556.829,1488.146c2.232,0,5.021,0,6.137,1.115
		c1.116,1.116,1.674,2.789,1.674,4.464c0,1.674,0,2.791-1.674,3.905c-1.673,1.116-3.905,1.675-6.137,1.675h-11.159v-11.159H5556.829
		z M5558.502,1518.831h-12.832v-11.716h12.832c6.138,0,8.927,2.232,8.927,6.137c0,2.231-1.115,3.349-2.231,4.465
		C5563.523,1518.831,5561.292,1518.831,5558.502,1518.831z M5594.768,1527.201h11.159v-47.425h-11.159V1527.201z M5648.329,1528.316
		c5.021,0,9.484-1.114,13.39-3.347c3.907-2.23,7.254-5.021,9.485-8.927c2.232-3.347,3.348-7.253,3.348-12.274
		s-1.116-8.926-3.348-12.832c-2.231-3.904-5.579-6.696-9.485-8.926c-3.905-1.675-8.369-2.792-13.39-2.792s-8.927,1.117-13.391,2.792
		c-3.905,2.229-6.694,5.021-8.927,8.926c-2.231,3.906-3.347,8.369-3.347,12.832c0,4.464,1.116,8.369,3.347,12.274
		c2.232,3.905,5.021,6.696,8.927,8.927C5639.402,1527.201,5643.308,1528.316,5648.329,1528.316z M5648.329,1518.831
		c-2.79,0-5.021-0.556-7.252-1.673c-2.231-1.675-4.464-3.348-5.58-5.58c-1.116-2.23-1.673-4.463-1.673-7.811
		s0.558-5.021,1.673-7.811c1.116-2.79,3.348-4.463,5.58-5.58c2.231-1.116,4.463-2.231,7.252-2.231c2.79,0,5.58,1.115,7.811,2.231
		c2.231,1.117,3.905,2.79,5.579,5.58c1.117,2.231,1.675,5.021,1.675,7.811s-0.559,5.58-1.675,7.811
		c-1.673,2.232-3.347,3.905-5.579,5.58C5653.908,1518.276,5651.119,1518.831,5648.329,1518.831z M5691.289,1527.201h21.201
		c5.58,0,10.043-0.559,13.949-2.79c3.905-1.673,7.811-5.021,9.484-8.369c1.674-3.347,2.79-7.253,2.79-12.274
		s-1.116-8.926-2.79-12.832c-2.231-3.349-5.579-6.138-9.484-8.369c-3.906-1.674-8.369-2.79-13.949-2.79h-21.201V1527.201z
		 M5701.89,1518.276v-29.572h10.043c5.021,0,8.926,1.674,11.716,3.905c2.79,2.79,3.905,6.696,3.905,11.159
		c0,4.464-1.115,7.811-3.905,10.601s-6.695,3.907-11.716,3.907H5701.89z M5755.451,1527.201h11.159v-47.425h-11.159V1527.201z
		 M5820.728,1479.777l-15.063,34.034l-14.506-34.034h-11.717l20.644,47.425h10.601l20.644-47.425H5820.728z M5854.763,1518.831
		v-11.158h21.759v-8.927h-21.759v-10.043h25.106v-8.927h-36.266v47.425h36.823v-8.37H5854.763z M5939.568,1527.201l-10.602-15.064
		c3.348-1.675,5.58-3.348,7.253-6.138c1.675-2.231,2.791-5.579,2.791-8.928c0-3.347-1.116-6.694-2.791-8.926
		c-1.673-2.789-4.462-4.463-7.253-6.136c-2.789-1.675-6.693-2.233-10.6-2.233h-20.644v47.425h10.601v-12.833h10.043l0,0
		l9.483,12.833H5939.568z M5927.85,1497.072c0,2.792-1.114,4.465-2.788,6.139c-1.675,1.675-4.463,2.23-7.812,2.23h-8.927v-16.737
		h8.927c3.349,0,6.137,0.558,7.812,2.232C5926.736,1492.609,5927.85,1494.283,5927.85,1497.072z M5971.369,1528.316
		c4.465,0,7.813-0.557,11.159-2.229c2.789-1.117,5.021-2.792,6.696-5.022c1.673-2.232,2.23-5.021,2.23-7.812
		s-0.558-5.579-2.23-7.253c-1.675-1.673-3.907-3.348-6.138-3.906c-2.232-1.115-5.58-2.229-8.927-2.788
		c-3.348-0.559-6.139-1.675-7.812-2.233c-1.674-1.114-2.79-2.229-2.79-3.904c0-1.673,1.116-2.79,2.232-3.906
		c1.673-1.115,3.905-1.674,7.252-1.674c4.464,0,8.369,1.674,12.833,3.907l3.349-8.369c-1.675-1.115-4.465-2.232-7.255-2.79
		c-2.788-1.117-6.136-1.117-8.927-1.117c-4.463,0-8.368,0.559-11.157,1.675c-2.791,1.117-5.021,3.347-6.696,5.58
		c-1.674,2.23-2.23,4.463-2.23,7.252c0,3.347,0.557,5.58,2.23,7.812c1.675,1.674,3.905,3.349,6.139,3.904
		c2.23,1.117,5.021,1.675,8.927,2.791c2.23,0.558,3.905,1.116,5.579,1.672c1.115,0,2.231,1.117,3.348,1.675
		c1.115,0.559,1.115,1.674,1.115,2.79c0,1.674-1.115,2.232-2.231,3.349c-1.116,1.114-3.348,1.673-6.696,1.673
		c-2.789,0-5.578-0.559-8.368-1.114c-2.789-1.117-5.579-2.233-7.253-3.907l-3.905,8.37c2.23,1.673,5.021,2.789,8.369,3.904
		C5964.116,1527.759,5967.463,1528.316,5971.369,1528.316z M6007.078,1527.201h11.157v-47.425h-11.157V1527.201z M6037.764,1527.201
		h21.758c5.022,0,9.485-0.559,13.392-2.79c3.904-1.673,7.252-5.021,9.484-8.369c2.231-3.347,3.347-7.253,3.347-12.274
		s-1.115-8.926-3.347-12.832c-2.232-3.349-5.58-6.138-9.484-8.369c-3.906-1.674-8.369-2.79-13.392-2.79h-21.758V1527.201z
		 M6048.921,1518.276v-29.572h10.042c4.464,0,8.369,1.674,11.159,3.905c2.791,2.79,4.464,6.696,4.464,11.159
		c0,4.464-1.673,7.811-4.464,10.601c-2.79,2.79-6.695,3.907-11.159,3.907H6048.921z M6137.075,1527.201h11.717l-21.202-47.425
		h-11.159l-21.2,47.425h11.158l4.464-10.043h21.759L6137.075,1527.201z M6114.2,1508.789l7.811-18.412l7.253,18.412H6114.2z
		 M6161.624,1527.201h21.759c5.021,0,9.485-0.559,13.948-2.79c3.906-1.673,6.695-5.021,8.927-8.369
		c2.231-3.347,3.348-7.253,3.348-12.274s-1.116-8.926-3.348-12.832c-2.231-3.349-5.021-6.138-8.927-8.369
		c-4.463-1.674-8.927-2.79-13.948-2.79h-21.759V1527.201z M6172.782,1518.276v-29.572h10.043c5.021,0,8.368,1.674,11.157,3.905
		c3.349,2.79,4.464,6.696,4.464,11.159c0,4.464-1.115,7.811-4.464,10.601c-2.789,2.79-6.137,3.907-11.157,3.907H6172.782z
		 M5368.249,1206.392c-44.077,0-71.415-34.591-71.415-86.479c0-31.244,10.601-59.141,25.106-76.436
		c10.043-6.695,25.107-11.717,41.846-11.717c17.295,0,30.685,4.463,39.612,10.6c2.79,7.812,6.138,23.434,8.927,42.403
		c6.695,1.116,21.76,1.674,27.338,1.674c3.348-16.181,7.812-39.056,10.601-55.793l-4.463-8.369
		c-21.202-11.158-46.309-18.97-75.879-18.97c-65.836,0-121.07,47.982-121.07,119.397c0,70.299,44.076,113.817,114.375,113.817
		c32.917,0,61.93-10.043,79.784-21.759l4.464-8.926c0-11.717-0.559-33.477-1.117-45.75c-6.137-0.558-24.548-1.117-30.127-1.117
		c-3.906,17.297-7.812,30.687-10.602,39.056C5397.819,1203.045,5386.102,1206.392,5368.249,1206.392z M5588.073,1236.52
		c64.72,0,113.817-51.33,113.817-123.302c0-67.51-43.519-109.912-106.006-109.912c-64.162,0-117.165,50.214-117.165,123.303
		C5478.719,1194.118,5523.353,1236.52,5588.073,1236.52z M5594.21,1208.624c-42.403,0-67.51-34.033-67.51-87.595
		c0-34.034,10.043-60.257,21.76-76.436c10.6-8.369,24.548-12.833,40.728-12.833c44.076,0,64.161,35.707,64.161,90.942
		c0,34.591-8.926,58.024-16.737,71.415C5626.569,1203.045,5612.621,1208.624,5594.21,1208.624z M5930.641,1229.267
		c0-96.522,1.116-171.283,3.905-194.717l28.454-8.927l-3.348-16.737h-92.058l-3.348,16.737c11.717,2.79,30.128,7.253,33.476,11.159
		c2.79,6.136,5.021,60.255,5.579,127.207c-42.403-53.002-97.08-119.955-117.165-156.22c-18.97,0.559-42.96,1.117-63.046,1.117
		l-3.906,16.179c10.043,3.348,22.318,8.37,27.339,12.274c3.348,4.465,3.905,31.244,3.905,83.133c0,46.308-1.115,75.319-2.231,85.363
		l-28.454,8.926l3.905,16.18h92.058l3.906-16.18c-15.064-3.904-33.476-7.252-36.823-11.716c-3.348-6.138-4.464-64.161-5.021-127.208
		c27.896,34.591,63.046,78.667,90.942,116.607l27.896,40.171L5930.641,1229.267z M6069.565,1214.76l-36.265-10.6
		c4.464-13.949,9.483-29.013,15.063-44.077l84.247-1.673c6.138,17.854,11.717,33.475,16.738,47.424l-29.571,8.926l3.348,16.18h99.87
		l3.348-16.18l-29.013-10.043c-17.296-40.17-41.845-106.564-64.162-162.914c-5.579-14.507-8.927-26.223-11.717-36.266
		c-14.506-0.559-40.729,2.789-48.538,5.021l-10.603,31.244c-21.759,56.349-44.634,115.49-65.834,161.798l-27.34,11.158l3.905,16.18
		h92.616L6069.565,1214.76z M6056.732,1133.861c10.601-29.569,21.76-60.813,32.918-90.384c12.833,31.801,24.55,63.045,34.592,91.5
		L6056.732,1133.861z M6258.703,1214.76l3.348,16.18h47.981c21.759,0,50.214,2.79,70.3,2.79c44.633,0,83.131-21.759,83.131-63.604
		c0-30.686-21.759-47.424-47.982-54.119c19.527-10.042,36.266-26.78,36.266-51.329c0-38.498-31.801-57.467-83.132-57.467
		c-15.063,0-49.655,1.674-60.813,1.674h-45.75l-3.348,16.737c10.043,2.79,23.99,7.253,26.223,11.159
		c3.905,5.021,3.905,36.266,3.905,55.792v55.234c0,17.296-1.116,51.888-2.231,58.025L6258.703,1214.76z M6332.907,1092.575
		c0-17.854,1.674-52.445,2.232-58.583l2.789-1.115c7.811-1.116,17.296-2.231,25.106-2.231c13.948,0,26.223,2.79,34.034,8.927
		c5.021,6.137,8.928,15.064,8.928,28.455c0,20.085-11.718,34.592-22.876,41.288l-50.214-2.232V1092.575z M6336.812,1203.045
		c-3.347-4.464-3.905-36.265-3.905-55.235v-13.948h41.846c28.453,0,42.401,14.507,42.401,36.266
		c0,15.622-6.694,29.013-16.738,35.708c-8.367,2.789-19.526,3.905-27.896,3.905c-13.39,0-27.895-1.674-34.032-5.022
		C6337.928,1204.161,6337.371,1203.602,6336.812,1203.045z M6493.033,1214.76l3.348,16.18h98.195l3.348-16.18
		c-10.043-2.789-23.99-7.252-26.781-11.716c-3.348-4.464-3.905-36.265-3.905-55.235v-55.234c0-17.854,1.675-52.445,2.232-58.583
		l28.454-8.368l-3.348-16.737h-98.195l-3.348,16.737c10.043,2.79,23.99,7.253,26.223,11.159c3.905,5.021,3.905,36.266,3.905,55.792
		v55.234c0,17.296-1.116,51.888-2.231,58.025L6493.033,1214.76z M6730.71,1236.52c64.72,0,113.817-51.33,113.817-123.302
		c0-67.51-43.519-109.912-106.007-109.912c-64.162,0-117.165,50.214-117.165,123.303
		C6621.356,1194.118,6665.99,1236.52,6730.71,1236.52z M6736.846,1208.624c-42.401,0-67.509-34.033-67.509-87.595
		c0-34.034,10.043-60.257,21.76-76.436c10.601-8.369,24.55-12.833,40.728-12.833c44.077,0,64.162,35.707,64.162,90.942
		c0,34.591-8.926,58.024-16.736,71.415C6769.208,1203.045,6755.258,1208.624,6736.846,1208.624z M4973.793,1081.974
		c-3.905,0-7.253,2.79-7.253,6.137c0,3.348,3.348,6.138,7.253,6.138s7.253-2.79,7.253-6.138
		C4981.046,1084.764,4977.699,1081.974,4973.793,1081.974 M4946.455,1078.07c-1.674,2.789-6.137,4.463-7.811,6.694
		c-1.673,2.231-6.695,6.695-7.254,23.433c-1.115,16.18,12.833,23.991,12.833,23.991s4.462-8.927,6.137-9.484
		c1.674-0.557,26.78,11.158,30.686,11.716c4.463,0,17.296-2.231,21.201-2.789c4.463-0.558,21.76-6.137,25.665-8.927
		c3.348-2.79,6.695-6.695,8.368-10.042c1.674-3.905,1.116-10.601,0-13.949c-1.115-3.906-17.295-17.854-22.316-21.759
		c-5.021-3.904-17.854-8.926-26.223-11.717c-8.927-3.347-26.222-2.789-32.36,0.559
		C4949.244,1069.7,4947.57,1075.279,4946.455,1078.07z M5027.913,1131.072c-12.274,8.369-15.064,8.928-29.57,10.042
		c-3.347,0.559-7.811,0.559-11.717,0c-3.348-0.558-5.579-1.115-6.695-0.558c-1.116,0-2.79,4.464-2.79,11.159
		c0,2.79,1.674,11.716,6.695,24.549c3.347,10.043,8.369,22.875,15.623,37.38c3.348,7.253,6.695,14.506,11.158,22.875
		c17.296,32.36,45.192,66.951,75.879,88.711c3.905,2.232,6.694-4.463,7.811-6.696c0.558-1.114,1.673-22.874,4.463-43.517
		c3.347-27.896,0-60.814-1.674-69.183c-3.348-15.064-18.969-40.729-27.338-53.004c-3.906-5.579-8.927-14.506-15.064-21.201
		c-6.695-7.253-13.948-12.832-15.064-12.832S5034.05,1126.609,5027.913,1131.072 M5033.492,1285.06
		c-2.79,1.116-4.464,12.833-7.253,25.107c-3.348,12.274-9.485,52.444-10.043,66.393s2.231,23.991,2.231,43.519
		s-5.021,53.563-6.695,72.53c-1.674,19.528-1.115,41.287,0,46.309c0.559,5.579,1.674,7.252,6.695,7.811
		c4.464,0.559,5.58-2.788,6.695-5.021c0.559-2.23,1.674-10.599,12.832-47.423c11.159-36.823,30.686-117.724,35.15-136.135
		c3.905-18.412,3.348-22.316,1.674-27.896c-2.232-5.021-6.138-10.043-10.043-14.506c-3.348-4.463-21.201-21.201-23.991-23.99
		C5037.397,1288.965,5035.723,1284.502,5033.492,1285.06 M4895.683,1147.252c0,6.694,13.949,7.253,20.644,10.042
		c6.137,2.232,5.58,4.463,5.58,4.463s-17.854-2.79-24.549-3.347c-6.138-0.558-10.601,0.557-16.18,1.673
		c-6.138,1.116-7.254,5.579-7.254,8.369c-0.558,3.348,1.116,5.579,3.906,6.695s29.012,5.579,29.012,5.579
		s-20.085,0.559-29.012,1.116c-8.927,1.116-8.927,7.253-8.927,8.368c-0.558,1.116-1.674,5.021,5.021,7.254
		c6.695,1.674,17.296,2.231,22.875,3.905c5.58,1.674,7.811,5.58,7.811,5.58s-9.484-2.233-17.295-2.79
		c-7.811-0.559-10.601,3.348-11.717,7.252c-1.115,3.347-0.558,6.138,6.138,8.927c6.695,2.231,7.811,4.463,13.948,8.927
		c6.695,3.905,17.854,23.433,42.961,25.107c24.549,2.232,35.149-13.391,39.055-17.295c4.463-3.348,11.717-15.623,12.274-17.297
		c0-1.115,0-6.695-5.021-20.084c-4.464-13.39-14.505-25.665-18.969-31.802c-3.906-5.58-14.506-15.622-17.296-17.854
		c-2.789-1.674-16.179-7.812-20.084-9.485c-4.464-1.673-11.717-2.79-20.086-1.673
		C4900.146,1139.441,4895.683,1140.556,4895.683,1147.252 M4921.349,1271.67c0.558,5.578,1.115,9.484,9.484,11.158
		c8.369,1.674,30.128-1.116,35.149-1.116c5.021,0,8.927-1.116,21.759-8.368c13.391-7.812,20.085-17.854,21.759-21.76
		c1.116-3.906,0.558-7.81-2.79-12.832c-3.347-5.021-6.137-3.906-10.042-3.348c-4.464,1.115-13.948,10.6-17.295,13.947
		c-3.906,3.348-6.695,3.906-8.927,5.58c-2.232,1.674-16.181,2.789-22.876,3.905c-6.695,0.558-23.99,4.464-25.107,5.021
		C4921.349,1264.416,4920.79,1266.649,4921.349,1271.67 M4929.717,1290.081c-7.811,0-7.253,12.274-6.695,18.411
		c0.558,6.138,16.18,8.369,20.085,8.369c3.905,0.559,14.506-1.115,25.665-2.788c11.158-2.233,30.128-4.464,40.171-14.507
		s10.601-18.412,10.043-23.992c-0.559-5.021-6.695-7.252-8.369-7.252c-2.232-0.559-16.18,9.484-22.317,13.947
		c-6.138,3.906-15.622,6.138-19.528,6.695C4964.308,1289.524,4938.085,1290.081,4929.717,1290.081 M5011.174,1313.515
		c-1.674,0.559-27.338,6.694-40.728,8.927c-13.391,2.23-31.802,1.674-37.382,2.23c-6.137,0-5.579,6.139-5.021,9.486
		c0,3.904,0.559,15.622,3.347,44.635c2.79,28.453,1.117,70.298,0.559,79.225c0,8.368,6.695,5.58,7.811,5.021
		c0.559,0,15.065-5.021,21.202-7.811c5.58-2.79,24.549-12.275,26.781-16.181c2.79-3.906,16.18-59.14,20.085-76.993
		C5012.291,1343.643,5012.849,1312.399,5011.174,1313.515 M4747.274,1372.655c-1.116,0-2.232,0.559-6.137,4.463
		c-3.348,3.348-13.949,5.58-21.201,7.254c-7.253,1.674-16.738,2.232-18.412,2.789c-1.674,0.559-4.463,5.58-5.021,8.369
		c-1.115,2.791-3.347,1.674,8.369,13.391c11.717,11.717,23.434,23.434,53.003,38.498c29.57,16.18,84.805,26.223,115.491,25.105
		c30.128-0.558,45.192-8.369,45.75-10.043c1.116-2.23,4.464-30.686,6.137-45.192c1.674-15.063,1.674-42.401-2.231-45.191
		c-2.79-2.231-9.485-3.347-17.295-2.79c-3.906,0-8.928,1.115-12.275,2.232c-8.927,1.674-12.833,7.811-14.506,13.391
		c-2.231,6.137-10.043,27.896-13.948,32.358c-3.348,3.906-15.622,12.832-50.771,5.022c-35.708-7.254-60.814-41.846-62.488-43.518
		C4750.623,1377.117,4747.833,1372.655,4747.274,1372.655 M5061.946,1452.995c-2.789-2.229,0.558-20.085,2.231-35.148
		c2.232-15.063,12.275-33.476,19.528-50.771c7.811-17.854,38.497-60.814,22.875-156.22
		c-16.179-95.965-95.963-147.852-124.418-155.663c-27.896-8.368-132.228-34.592-218.707-2.231
		c-87.037,32.918-114.376,96.521-121.071,159.568c-6.137,63.044,7.254,151.755,47.982,197.505
		c40.728,45.752,107.68,73.647,180.21,71.975c72.531-1.117,138.924-37.383,138.924-37.383l-6.137,46.867
		c0,0-49.098,39.055-145.62,34.033c-96.521-5.022-156.22-29.57-204.759-84.248c-49.098-54.676-57.466-150.082-59.141-184.674
		c-2.232-34.591,5.021-101.542,37.381-157.335c32.918-55.236,108.797-89.269,116.607-90.943c7.81-1.674,16.738-5.58,44.634-11.158
		c27.896-5.58,73.089-8.928,89.826-8.369c17.296,0.559,31.244-1.115,84.805,12.832c53.003,13.949,97.638,45.75,121.628,68.068
		c24.549,22.316,35.15,53.003,47.424,80.342c11.717,27.338,19.527,83.13,19.527,100.984c0,18.413,0,30.129-8.368,69.742
		c-8.37,39.613-31.803,80.898-36.824,88.152c-5.58,7.81-10.043,14.506-22.875,27.896
		C5074.22,1450.207,5065.293,1454.67,5061.946,1452.995 M4721.052,1322.999c0.558,5.579-2.232,12.274-9.485,13.391
		c-7.253,1.115-18.97,1.673-21.759-5.579c-2.79-6.695,0-13.391,4.463-15.623c4.464-2.23,4.464-2.23,10.601-3.348
		C4711.009,1311.283,4720.494,1317.42,4721.052,1322.999z M4907.958,1357.59c-5.021,5.579-11.159,6.138-16.738,8.369
		c-6.137,2.232-12.274,2.791-15.063,5.58c-2.79,3.348-8.928,15.064-11.159,26.223c-2.231,11.717-7.253,17.295-8.927,18.412
		c-1.674,1.114-34.033,2.789-49.656-3.349c-15.621-5.579-22.875-11.159-36.265-25.106c-13.39-13.391-19.527-21.76-19.527-21.76
		h-6.138c0,0-13.948,15.622-32.917,12.275c-18.97-2.791-51.329-14.507-50.771-53.563c0.558-39.055,26.78-42.96,27.896-45.191
		c1.674-2.232,2.231-6.137-3.348-5.579c-5.579,0-13.948,2.79-18.97,6.138c-5.579,3.347-15.063,11.158-16.18,3.904
		c-0.558-7.252,1.674-26.78,20.085-35.707c18.412-9.485,22.876-7.254,22.317-14.506c0-6.695-13.948-3.906-18.411-1.674
		c-4.464,1.674-15.064,6.695-16.181,8.369c-0.558,1.116-7.811,6.137-7.811-1.674c0-7.812,2.79-23.433,18.412-32.917
		c15.623-8.928,31.802-5.022,32.36-11.159c0.558-5.579-6.695-7.253-12.274-6.694c-6.137,0.557-22.875,6.137-26.223,8.926
		c-3.348,2.232-8.369,2.79-7.253-5.021c1.674-7.811,8.927-26.78,27.896-32.359c19.527-5.58,34.592,4.463,36.266,1.115
		c2.231-3.347,0.558-10.042-7.812-13.39c-7.811-3.348-12.832-5.022-24.549-1.674c-11.716,3.348-13.948,1.674-12.274-2.79
		c2.231-4.463,7.811-27.338,35.708-27.338c27.337,0,34.033,25.107,40.728,23.434c6.695-1.674-2.79-22.318-7.811-30.687
		c-5.58-8.369-23.991-21.759-17.296-26.78c7.254-5.021,23.991-3.347,35.15,3.348c10.601,7.252,10.601,8.369,13.39,12.274
		c2.79,3.906,13.391,27.896,15.622,26.781c2.232-0.559,3.347-14.505,1.116-24.549c-1.674-10.042-15.064-31.803-18.969-35.708
		c-4.463-3.905-3.348-7.253,3.905-7.253c7.254-0.558,27.339,1.674,37.939,15.622c11.159,13.391,11.717,37.939,10.601,41.287
		c-1.674,3.347-1.115,12.275,3.906,6.695c5.021-5.022,15.064-22.317,17.854-39.055c2.231-17.295,2.79-33.476,8.37-34.033
		c5.021,0,14.506,21.758,16.179,34.033c1.116,12.833,5.022,31.244-3.906,55.234c-8.927,24.549-22.875,42.961-26.78,44.078
		c-4.464,0.557-8.927,1.116-8.927,1.116s-17.296-15.064-36.823-13.391c-18.97,1.674-32.917,7.811-49.656,22.316
		c-16.18,13.949-23.433,28.455-25.664,39.613c-1.674,10.601-1.117,29.012,3.347,38.498c4.463,10.043,6.137,8.369,6.137,8.369
		s2.79,0.557,3.348-0.559c0.558-1.115-8.927-29.57-2.79-47.982c6.137-17.854,13.949-34.033,45.751-47.981
		c29.57-12.275,42.959,6.137,50.771,11.715c7.811,5.58,14.506,10.043,19.527,13.391c5.579,2.789,34.591,22.875,47.424,37.381
		c12.274,14.507,13.948,15.064,12.274,20.644c-1.674,5.021-8.927,11.159-8.369,15.064c0.559,3.904,6.695,12.832,3.906,18.411
		c-2.791,5.579-5.022,7.812-12.833,11.716c-8.368,3.906-11.158,9.486-11.158,10.601c0,1.116,3.905,0.558,6.695,0
		c3.347-1.114,5.579-3.905,11.717-3.347c5.579,1.115,12.832,1.674,15.063,15.622
		C4912.422,1344.758,4912.422,1351.453,4907.958,1357.59z M4729.979,1330.811c0-12.276-15.064-22.875-28.455-22.875
		c0,0-17.295,1.115-18.411,17.854c-1.116,17.295,15.063,22.875,27.339,23.991
		C4722.167,1350.895,4729.979,1343.084,4729.979,1330.811z M4821.479,1240.983c-1.115-1.116-13.948-3.348-22.317,3.906
		c-7.811,7.253-10.601,17.854-8.368,20.086c1.673,1.674,12.274,0.557,19.527-6.695c3.348-3.348,6.695-6.695,8.927-10.042
		C4820.921,1244.33,4822.037,1240.983,4821.479,1240.983z M4877.83,1267.205c-1.673-1.673-3.347-2.23-7.253,0.559
		c-4.463,2.233-6.137,5.58-3.348,8.369c3.348,2.232,7.254-1.115,8.369-1.673"/>
</g>
</svg>
