<?xml version="1.0" encoding="UTF-8" standalone="no"?>
<svg
   xmlns:dc="http://purl.org/dc/elements/1.1/"
   xmlns:cc="http://creativecommons.org/ns#"
   xmlns:rdf="http://www.w3.org/1999/02/22-rdf-syntax-ns#"
   xmlns:svg="http://www.w3.org/2000/svg"
   xmlns="http://www.w3.org/2000/svg"
   version="1.1"
   id="svg8"
   x="0px"
   y="0px"
   viewBox="0 0 2267.717 2267.717"
   xml:space="preserve"><metadata
   id="metadata8"><rdf:RDF><cc:Work
       rdf:about=""><dc:format>image/svg+xml</dc:format><dc:type
         rdf:resource="http://purl.org/dc/dcmitype/StillImage" /><dc:title></dc:title></cc:Work></rdf:RDF></metadata><defs
   id="defs6" />

<path
   id="path124"
   style="fill:none"
   d="M 18630.803 867.15234 C 18422.137 867.15234 18263.469 1025.8343 18254.779 1219.2715 C 18254.779 1410.5469 18422.137 1569.2031 18630.803 1569.2031 C 18748.175 1569.2031 18839.465 1519.2119 18889.449 1436.6191 L 18898.141 1436.6191 L 18898.141 1536.6016 C 18898.141 1612.6829 18889.441 1853.959 18613.402 1853.959 C 18504.72 1853.959 18404.744 1821.3498 18322.152 1745.2773 L 18272.16 1795.2598 C 18337.363 1880.0144 18472.118 1938.7051 18613.402 1938.7051 C 18756.857 1938.7051 18982.904 1880.0221 18982.904 1536.6016 L 18982.904 893.23242 L 18898.141 893.23242 L 18889.449 1001.9062 C 18839.465 917.15165 18748.175 867.15234 18630.803 867.15234 z M 18622.102 951.93164 C 18780.767 951.93164 18906.83 1069.3064 18906.83 1227.9805 C 18906.83 1377.9377 18780.759 1504.0098 18622.102 1504.0098 C 18463.437 1504.0098 18337.363 1377.9377 18337.363 1227.9805 C 18337.363 1077.9972 18463.437 951.93164 18622.102 951.93164 z " /><path
   id="path120"
   style="fill:none"
   d="M 17828.748 875.85156 C 17620.091 875.85156 17467.948 1025.8346 17461.428 1236.6621 C 17461.428 1445.3364 17611.4 1595.3027 17828.748 1595.3027 C 18046.104 1595.3027 18196.08 1445.3277 18196.08 1236.6621 C 18196.08 1028.0051 18046.104 875.85156 17828.748 875.85156 z M 17828.748 951.92383 C 18004.803 951.92383 18113.486 1077.9868 18113.486 1236.6523 C 18113.486 1395.3177 18004.803 1519.2109 17828.748 1519.2109 C 17652.701 1519.2109 17544.02 1395.3177 17544.02 1236.6523 C 17552.711 1077.9868 17661.392 951.93283 17828.748 951.92383 z " /><path
   id="path114"
   style="fill:none"
   d="M 16791.977 875.85156 C 16574.62 875.85156 16424.645 1025.8346 16424.645 1236.6621 C 16424.645 1445.3364 16574.62 1595.3027 16791.977 1595.3027 C 17009.342 1595.3027 17159.307 1445.3277 17159.307 1236.6621 C 17159.307 1028.0051 17009.342 875.85156 16791.977 875.85156 z M 16791.977 951.92383 C 16968.033 951.92383 17076.715 1077.9868 17076.715 1236.6523 C 17076.715 1395.3177 16968.033 1519.2109 16791.977 1519.2109 C 16615.93 1519.2109 16507.246 1395.3177 16507.246 1236.6523 C 16507.246 1077.9868 16615.921 951.93283 16791.977 951.92383 z " /><path
   id="path98"
   style="fill:none"
   d="M 13020.879 499.82031 C 12694.858 499.82031 12468.811 725.87608 12468.811 1051.9062 C 12468.811 1369.2545 12694.858 1604.002 13020.879 1604.002 C 13346.909 1604.002 13572.957 1369.2545 13572.957 1051.9062 C 13572.957 734.56687 13346.909 499.82031 13020.879 499.82031 z M 13020.879 584.60156 C 13164.334 584.60156 13279.536 634.58404 13355.609 717.18555 C 13431.69 801.9489 13481.682 917.15145 13481.682 1051.9062 C 13481.682 1186.6699 13440.372 1301.8638 13355.609 1386.6445 C 13279.536 1469.2373 13164.334 1519.2207 13020.879 1519.2207 C 12879.595 1519.2207 12762.239 1469.2373 12686.158 1386.6445 C 12612.248 1301.8638 12562.256 1186.6613 12562.256 1051.9062 C 12562.256 917.15145 12603.557 801.9489 12686.158 717.18555 C 12762.239 634.59272 12879.595 584.61056 13020.879 584.60156 z " /><path
   id="path162"
   style="fill:none"
   d="M 8565.1289 508.5293 L 8565.1289 1562.7012 L 8649.8926 1562.7012 L 8649.8926 1445.3281 L 8658.584 1445.3281 C 8715.0958 1536.603 8832.4594 1577.9121 8932.4512 1577.9121 C 9149.8076 1577.9121 9301.9531 1427.9284 9301.9531 1219.2715 C 9301.9531 1019.314 9143.2873 867.16016 8932.4512 867.16016 C 8832.4594 867.16016 8708.5755 910.62182 8658.584 1001.9141 L 8649.8926 1001.9141 L 8649.8926 508.5293 L 8565.1289 508.5293 z M 8932.4609 943.23242 C 9108.5079 943.23242 9217.1895 1069.3054 9217.1895 1227.9707 C 9208.4988 1386.6449 9108.5079 1512.7012 8932.4609 1512.7012 C 8767.2753 1512.7012 8641.2109 1386.6361 8641.2109 1227.9707 C 8641.2109 1069.3054 8767.2753 943.23242 8932.4609 943.23242 z " /><path
   id="path158"
   style="fill:none"
   d="M 8147.8066 860.64062 C 8056.523 860.64062 7947.8487 893.23196 7880.4668 951.93164 L 7930.459 1010.623 C 7989.1413 960.63151 8063.0432 934.55078 8147.8066 934.55078 C 8265.1799 934.55078 8347.7734 984.52532 8347.7734 1101.916 L 8347.7734 1143.1895 L 8239.0898 1143.1895 C 8171.708 1143.1895 8071.7262 1151.8986 7997.8242 1177.9883 C 7921.7603 1210.5983 7854.3789 1269.2535 7854.3789 1369.2539 C 7854.3789 1512.6996 7980.4499 1569.2031 8097.8145 1569.2031 C 8215.1879 1569.2031 8289.0904 1527.9112 8339.082 1445.3184 L 8347.7734 1445.3184 C 8347.7734 1486.6105 8347.774 1519.2128 8356.4648 1554.002 L 8441.2363 1554.002 C 8432.5368 1477.9295 8423.8457 1404.0175 8423.8457 1269.2539 L 8423.8457 1110.5977 C 8423.8457 934.55079 8315.1714 867.16089 8147.8066 860.64062 z M 8239.0996 1219.2715 L 8339.082 1219.2715 L 8339.082 1269.2461 C 8339.082 1327.9371 8323.8616 1386.6284 8289.0898 1436.6113 C 8256.4798 1477.9207 8189.0983 1512.6914 8089.1152 1512.6914 C 8013.0513 1512.6914 7930.459 1469.2287 7930.459 1377.9277 C 7930.459 1260.5718 8080.4342 1219.2715 8239.0996 1219.2715 z " /><path
   id="path140"
   style="fill:none"
   d="M 6082.9434 817.16797 C 5856.8963 817.16797 5672.1484 967.15274 5672.1484 1201.8906 C 5672.1484 1436.6286 5856.8963 1586.6016 6082.9434 1586.6016 C 6200.3168 1586.6016 6324.2089 1536.6108 6391.582 1445.3359 L 6232.918 1319.2539 C 6200.3167 1377.9362 6150.3246 1410.5469 6074.252 1410.5469 C 5982.9684 1410.5469 5915.5864 1351.8479 5898.1875 1269.2637 L 6426.3633 1269.2637 L 6426.3633 1201.8906 C 6426.3633 969.32326 6291.6091 817.16797 6082.9434 817.16797 z M 6056.8613 993.24219 C 6141.6247 993.24219 6200.3066 1051.9147 6200.3066 1127.9785 L 5898.1875 1127.9785 C 5898.1875 1060.5967 5956.8783 993.24219 6056.8613 993.24219 z " /><path
   id="path132"
   style="fill:none"
   d="M 3809.4219 825.86719 C 3583.3746 825.86719 3398.6191 975.83456 3398.6191 1210.5898 C 3398.6191 1445.3191 3583.3746 1595.293 3809.4219 1595.293 C 4035.469 1595.293 4218.0371 1445.3278 4218.0371 1210.5898 C 4218.0371 975.83456 4035.469 825.86719 3809.4219 825.86719 z M 3809.4219 1019.3145 C 3926.7952 1019.3145 3991.998 1093.207 3991.998 1201.8809 C 3991.998 1310.5634 3926.7952 1386.6367 3809.4219 1386.6367 C 3692.0486 1386.6367 3624.666 1310.5634 3624.666 1201.8809 C 3624.666 1093.1983 3692.0486 1019.3145 3809.4219 1019.3145 z " /><path
   id="path152"
   style="fill:none"
   d="M 2029.2871 875.8418 C 1827.1504 875.8418 1677.1758 1025.8335 1677.1758 1236.6523 C 1677.1758 1447.5058 1818.451 1595.293 2029.2871 1595.293 C 2153.1807 1595.293 2253.1551 1554.0103 2329.2363 1454.0098 L 2270.5547 1386.6445 C 2220.5632 1460.5292 2129.2695 1512.7012 2035.8066 1512.7012 C 1818.4503 1512.7012 1768.459 1327.9543 1768.459 1251.873 L 2355.3184 1251.873 L 2355.3184 1193.1816 C 2355.3184 1034.5075 2246.6435 875.8418 2029.2871 875.8418 z M 2029.2871 943.24219 C 2161.8802 943.24219 2270.5547 1043.2325 2270.5547 1169.2793 L 1768.459 1169.2793 C 1768.459 1134.5075 1827.1504 943.24219 2029.2871 943.24219 z " /><path
   id="path3713"
   style="fill:none"
   d="M 11432.02 875.85156 C 11214.672 875.85156 11064.689 1025.8346 11064.689 1236.6621 C 11064.689 1445.3364 11214.664 1595.3027 11432.02 1595.3027 C 11649.376 1595.3027 11801.529 1445.3277 11801.529 1236.6621 C 11801.529 1028.0051 11649.376 875.85156 11432.02 875.85156 z M 11432.02 951.92383 C 11608.076 951.92383 11716.758 1077.9868 11716.758 1236.6523 C 11716.758 1395.3177 11608.076 1519.2109 11432.02 1519.2109 C 11258.152 1519.2109 11149.471 1395.3177 11149.471 1236.6523 C 11149.471 1077.9868 11258.144 951.93283 11432.02 951.92383 z " /><path
   id="path168"
   style="fill:none"
   d="M 10982.113 -8.7773438 C 10764.756 -8.7773438 10614.791 73.816406 10614.791 73.816406 L 8165.2051 73.816406 C 8165.2051 141.18952 8265.1881 191.19727 8382.5527 191.19727 L 9091.1348 191.19727 L 9701.8945 617.21094 L 9701.8945 1251.8809 C 9701.8945 1527.9109 9854.0391 1762.6663 10086.615 1903.9414 C 10330.043 2038.6963 10447.418 2030.0137 10621.303 2030.0137 L 10621.303 808.48633 C 10621.303 708.49457 10656.066 567.21916 10797.35 475.93555 C 10932.113 391.15484 11375.508 149.89648 11375.508 149.89648 C 11299.444 65.124457 11155.98 -8.7773438 10982.113 -8.7773438 z M 11140.77 132.50586 C 11164.681 132.50586 11182.07 149.897 11182.07 173.79883 C 11182.07 199.88854 11164.681 215.09961 11140.77 215.09961 C 11114.689 215.09961 11099.479 199.88854 11099.479 173.79883 C 11090.78 156.41726 11114.689 132.50586 11140.77 132.50586 z M 10897.324 208.5957 L 11023.389 215.09961 L 10621.295 432.46484 L 10621.295 358.54492 L 10897.324 208.5957 z M 9954.0137 441.15625 L 10312.654 693.2832 C 10403.938 751.9742 10438.719 810.64043 10438.719 901.94141 L 10438.719 1119.2969 L 9986.623 808.47852 C 9927.932 758.48698 9886.6406 693.28267 9886.6406 608.50195 C 9889.6012 525.27533 9954.0137 441.14725 9954.0137 441.15625 z " /><path
   style="fill:none"
   d="m 11825.441,299.87159 h -493.404 l -634.67,458.61461 c 0,-41.30075 26.072,-167.36486 149.974,-241.27558 126.064,-84.75467 569.468,-317.3308 569.468,-317.3308 108.674,8.70815 399.924,82.59283 399.924,82.59283 0,0 17.399,17.39894 8.708,17.39894 z"
   id="path166" /><path
   style="fill:none"
   d="m 7369.6824,1486.6106 h 434.7041 v 82.5928 H 7269.6993 V 508.52852 h 99.9831 v 525.98768 z"
   id="path156" /><path
   style="fill:none"
   d="m 1542.4213,1151.8982 v 410.7936 h -82.593 v -402.1114 c 0,-117.3561 -32.6012,-226.02987 -176.0555,-226.02987 -132.5844,0 -241.2584,91.29227 -241.2584,284.72947 v 343.4205 H 957.74245 V 508.52852 h 84.77195 v 493.38638 c 41.2921,-76.0812 123.8937,-134.75484 241.2584,-134.75484 217.3476,0 267.3392,143.45424 258.6485,284.73814 z"
   id="path150" /><path
   style="fill:none"
   d="M 431.73735,591.12134 H 97.016353 V 508.52852 H 875.14955 v 82.59282 h -343.4204 v 978.08206 h -91.2923 V 591.12134 Z"
   id="path148" /><path
   style="fill:none"
   d="M 6867.5879,1562.6918 H 7093.635 V 508.52852 h -226.0471 v 525.98768 z"
   id="path146" /><path
   style="fill:none"
   d="m 6508.9563,1562.6918 h 226.0472 V 508.52852 h -226.0472 v 525.98768 z"
   id="path144" /><path
   style="fill:none"
   d="m 4896.1866,843.24956 v 725.95384 h 226.0472 v -358.6142 c 0,-91.3009 15.2197,-184.7551 132.5843,-184.7551 117.3733,0 117.3733,108.6739 117.3733,193.4372 v 349.9321 h 226.0472 v -399.9236 c 0,-193.4372 -41.292,-343.41182 -276.0387,-343.41182 -108.6825,0 -184.7464,58.68233 -217.3563,117.37333 v -99.99175 h -217.3478 z"
   id="path138" /><path
   style="fill:none"
   d="m 4294.1176,843.24956 v 719.44224 h 226.0472 v -302.1197 c 0,-141.2752 15.211,-241.2583 191.2667,-241.2583 34.7805,0 67.3817,6.5203 99.9917,15.2024 V 834.56746 c -15.211,-8.69948 -49.9915,-8.69948 -73.902,-8.69948 -99.9831,0 -158.6654,41.29208 -208.6656,134.7549 V 843.24087 h -226.0385 -8.6995 z"
   id="path136" /><path
   style="fill:none"
   d="M 3374.7178,649.82103 C 3281.255,534.60955 3131.2804,491.13827 3013.9071,491.13827 c -332.5505,0 -575.9879,208.66562 -575.9879,552.09473 0,334.7124 243.4374,552.0688 575.9879,552.0688 143.4456,0 293.4203,-58.691 384.7126,-184.7464 l -199.9662,-141.2838 c -41.292,76.0812 -126.0641,117.3906 -217.3477,117.3906 -167.3648,0 -299.9492,-143.4717 -299.9492,-343.4205 0,-199.97478 132.5844,-343.42914 308.64,-343.42914 82.5928,0 149.9746,26.08104 199.9575,84.77204 z"
   id="path130" /><path
   style="fill:none"
   d="m 19743.638,893.23241 -360.811,902.02689 c -41.292,84.7633 -99.974,143.4457 -199.948,143.4457 -41.31,0 -108.683,-17.3816 -143.455,-34.7719 l 43.472,-56.5204 c 23.91,6.5376 49.991,15.2197 99.992,15.2197 73.884,0 108.673,-67.3819 132.583,-117.3647 l 67.373,-158.6828 -317.339,-693.36118 h 91.301 l 267.339,584.70478 226.048,-584.70478 h 93.445 z"
   id="path128" /><path
   style="fill:none"
   d="m 17267.981,517.21062 h 84.763 V 1577.9115 h -84.763 v -534.6872 z"
   id="path118" /><path
   style="fill:none"
   d="m 16322.491,1169.2798 v 399.9236 h -82.601 v -399.9236 c 0,-117.3646 -32.593,-226.03849 -176.047,-226.03849 -132.585,0 -241.276,91.28359 -241.276,284.73819 v 341.2325 h -84.763 V 517.21062 h 84.763 v 493.40368 h 8.7 c 32.601,-76.07245 123.893,-134.76346 232.567,-134.76346 217.365,0 267.348,143.46296 258.657,293.42896 z"
   id="path112" /><path
   style="fill:none"
   d="m 15605.219,1495.3187 8.7,73.8847 c -34.781,17.3902 -84.772,26.0897 -117.373,26.0897 -126.073,0 -176.056,-76.0813 -176.056,-176.0556 V 969.32234 h -149.975 v -76.08993 h 149.975 V 693.28363 h 82.593 v 199.94878 h 202.136 v 76.08993 h -202.136 v 449.91516 c 0,67.3817 43.471,99.983 102.162,99.983 32.601,-0.01 65.203,-15.2197 99.974,-23.9018 z"
   id="path110" /><path
   style="fill:none"
   d="m 14944.468,893.23241 h 91.292 v 684.67909 h -91.292 v -341.2586 z"
   id="path108" /><path
   style="fill:none"
   d="m 14994.451,541.13849 c 41.309,0 67.39,34.77181 67.39,67.36442 0,41.31812 -34.78,67.39915 -67.39,67.39915 -41.292,0 -67.373,-32.60997 -67.373,-67.39915 0,-32.59261 26.081,-58.68232 67.373,-67.36442 z"
   id="path106" /><path
   style="fill:none"
   d="m 14727.112,1169.2798 v 408.6317 h -84.772 v -399.9236 c 0,-117.382 -32.602,-226.05581 -173.885,-226.05581 -134.755,0 -243.438,91.30091 -243.438,284.72951 v 341.2587 h -82.593 v -493.4039 c 0,-49.9915 -8.69,-149.95719 -8.69,-191.27531 h 82.592 c 0,50.0089 8.691,100.00912 8.691,117.39061 h 8.7 c 32.592,-76.07249 126.064,-134.7635 234.729,-134.7635 217.365,-0.0174 267.365,143.4456 258.666,293.4116 z"
   id="path104" /><path
   style="fill:none"
   d="m 14007.669,875.85084 c 17.391,0 32.602,8.69947 50.001,8.69947 l -8.691,84.77203 c -15.211,-8.69078 -23.911,-8.69078 -32.601,-8.69078 -158.674,0 -234.747,108.68254 -234.747,241.25814 v 376.0306 h -82.593 v -493.4039 c 0,-49.9915 -8.691,-149.95719 -8.691,-191.27531 h 82.593 c 0,50.0089 0,100.00912 8.691,117.39061 49.991,-84.78932 117.356,-134.78086 226.038,-134.78086 z"
   id="path102" /><path
   style="fill:none"
   d="M 11942.805,1577.9115 V 993.23285 H 11801.53 V 917.1516 h 149.975 V 717.18545 c 0,-176.04696 117.373,-226.05586 208.657,-226.05586 41.309,0 76.072,8.69078 99.992,17.39893 l -15.212,76.08124 c -26.089,-17.39892 -52.17,-17.39892 -84.78,-17.39892 -82.593,0 -126.064,58.68232 -126.064,184.7551 V 917.1516 h 167.373 v 84.7633 h -167.373 v 575.9966 h -82.593 z"
   id="path96" />
</svg>
