<?xml version="1.0" encoding="utf-8"?>
<!-- Generator: Adobe Illustrator 14.0.0, SVG Export Plug-In . SVG Version: 6.00 Build 43363)  -->
<!DOCTYPE svg PUBLIC "-//W3C//DTD SVG 1.1//EN" "http://www.w3.org/Graphics/SVG/1.1/DTD/svg11.dtd">
<svg version="1.1"
	 id="svg8" sodipodi:docname="cornell_lab.svg" inkscape:version="0.92.4 (5da689c313, 2019-01-14)" xmlns:dc="http://purl.org/dc/elements/1.1/" xmlns:cc="http://creativecommons.org/ns#" xmlns:rdf="http://www.w3.org/1999/02/22-rdf-syntax-ns#" xmlns:svg="http://www.w3.org/2000/svg" xmlns:sodipodi="http://sodipodi.sourceforge.net/DTD/sodipodi-0.dtd" xmlns:inkscape="http://www.inkscape.org/namespaces/inkscape"
	 xmlns="http://www.w3.org/2000/svg" xmlns:xlink="http://www.w3.org/1999/xlink" x="0px" y="0px" width="2267.717px"
	 height="2267.717px" viewBox="0 0 2267.717 2267.717" enable-background="new 0 0 2267.717 2267.717" xml:space="preserve">
<sodipodi:namedview  id="base" inkscape:window-height="962" inkscape:document-units="mm" inkscape:window-x="-8" inkscape:window-y="-8" inkscape:pageopacity="0.0" inkscape:pageshadow="2" inkscape:current-layer="layer1" inkscape:window-width="1280" inkscape:window-maximized="1" borderopacity="1.0" bordercolor="#666666" showgrid="false" pagecolor="#ffffff" inkscape:cy="981.89559" inkscape:cx="1470.9699" inkscape:zoom="0.1400905">
	</sodipodi:namedview>
<g id="layer1" transform="translate(0.13229166,123.18428)" inkscape:groupmode="layer" inkscape:label="Capa 1">
	<path id="path3713" inkscape:connector-curvature="0" fill="none" stroke="#000000" stroke-width="0.2646" d="M1307.842,995.146
		c25.035,0,42.56,17.525,42.56,41.558c0,24.034-17.525,41.308-42.56,41.308s-42.309-17.273-42.309-41.308
		C1265.533,1012.421,1282.808,995.146,1307.842,995.146z M1275.298,1036.703c0,18.275,12.518,32.545,32.544,32.545
		c20.278,0,32.796-14.27,32.796-32.545c0-18.275-12.518-32.795-32.796-32.795
		C1287.815,1003.909,1275.298,1018.428,1275.298,1036.703z M1366.674,1076.009v-67.343h-16.272v-8.763h17.274v-23.032
		c0-20.277,13.519-26.037,24.033-26.037c4.758,0,8.762,1.001,11.517,2.004l-1.752,8.763c-3.005-2.004-6.009-2.004-9.765-2.004
		c-9.513,0-14.52,6.759-14.52,21.28v19.026h19.278v9.763h-19.278v66.343h-9.513H1366.674z M1490.846,951.835
		c37.552,0,63.588,27.038,63.588,63.589c0,36.552-26.036,63.59-63.588,63.59c-37.551,0-63.587-27.038-63.587-63.59
		C1427.259,977.872,1453.295,951.835,1490.846,951.835z M1452.293,976.871c-9.514,9.763-14.271,23.032-14.271,38.553
		c0,15.521,5.758,28.79,14.271,38.555c8.763,9.513,22.28,15.27,38.553,15.27c16.523,0,29.792-5.757,38.554-15.27
		c9.763-9.765,14.521-23.033,14.521-38.555c0-15.521-5.758-28.79-14.521-38.553c-8.762-9.514-22.031-15.271-38.554-15.271
		C1474.573,961.601,1461.056,967.358,1452.293,976.871z M1604.504,995.146c2.003,0,3.755,1.002,5.759,1.002l-1.001,9.764
		c-1.752-1.001-2.754-1.001-3.755-1.001c-18.276,0-27.038,12.518-27.038,27.788v43.311h-9.513v-56.83
		c0-5.758-1.001-17.272-1.001-22.031h9.513c0,5.76,0,11.519,1.001,13.521C1584.227,1000.904,1591.986,995.146,1604.504,995.146z
		 M1687.369,1028.943v47.066h-9.764v-46.063c0-13.52-3.755-26.037-20.028-26.037c-15.521,0-28.039,10.516-28.039,32.795v39.306
		h-9.513v-56.83c0-5.758-1.001-17.272-1.001-22.031h9.513c0,5.76,1.001,11.519,1.001,13.521h1.002
		c3.754-8.762,14.52-15.522,27.036-15.522C1682.612,995.146,1688.371,1011.67,1687.369,1028.943z M1718.161,956.594
		c4.758,0,7.762,4.005,7.762,7.759c0,4.759-4.006,7.763-7.762,7.763c-4.756,0-7.76-3.756-7.76-7.763
		C1710.401,960.599,1713.405,957.594,1718.161,956.594z M1712.404,997.148h10.515v78.861h-10.515v-39.306V997.148z
		 M1788.509,1066.496l1.002,8.51c-4.006,2.003-9.764,3.005-13.519,3.005c-14.521,0-20.278-8.763-20.278-20.278v-51.821h-17.274
		v-8.764h17.274v-23.03h9.513v23.03h23.282v8.764h-23.282v51.821c0,7.761,5.007,11.516,11.767,11.516
		C1780.749,1069.248,1784.504,1067.496,1788.509,1066.496z M1871.124,1028.943v46.063h-9.514v-46.063
		c0-13.518-3.754-26.035-20.277-26.035c-15.271,0-27.79,10.514-27.79,32.796v39.303h-9.763V953.838h9.763v56.83h1.002
		c3.755-8.762,14.27-15.522,26.787-15.522C1866.368,995.146,1872.125,1011.67,1871.124,1028.943z M1925.199,995.146
		c25.036,0,42.309,17.525,42.309,41.558c0,24.034-17.273,41.308-42.309,41.308c-25.035,0-42.309-17.273-42.309-41.308
		C1882.89,1012.421,1900.164,995.146,1925.199,995.146z M1892.404,1036.703c0,18.275,12.518,32.545,32.795,32.545
		c20.278,0,32.796-14.27,32.796-32.545c0-18.275-12.518-32.795-32.796-32.795
		C1904.921,1003.909,1892.404,1018.428,1892.404,1036.703z M1980.025,953.838h9.763v122.171h-9.763v-61.585V953.838z
		 M2044.614,995.146c25.035,0,42.309,17.525,42.309,41.558c0,24.034-17.274,41.308-42.309,41.308
		c-25.034,0-42.308-17.273-42.308-41.308C2003.057,1012.421,2020.581,995.146,2044.614,995.146z M2011.819,1036.703
		c0,18.275,12.518,32.545,32.795,32.545c20.278,0,32.796-14.27,32.796-32.545c0-18.275-12.518-32.795-32.796-32.795
		C2025.338,1003.909,2012.82,1018.428,2011.819,1036.703z M2167.786,997.148h9.763v74.103c0,39.555-26.036,46.314-42.559,46.314
		c-16.273,0-31.794-6.76-39.304-16.522l5.758-5.757c9.513,8.762,21.028,12.518,33.546,12.518c31.794,0,32.796-27.79,32.796-36.553
		v-11.516h-1.001c-5.757,9.513-16.272,15.271-29.791,15.271c-24.034,0-43.31-18.274-43.31-40.305
		c1.001-22.28,19.276-40.557,43.31-40.557c13.519,0,24.034,5.759,29.791,15.521L2167.786,997.148z M2135.992,1003.909
		c-18.275,0-32.796,14.52-32.796,31.795c0,17.272,14.521,31.793,32.796,31.793c18.274,0,32.795-14.521,32.795-31.793
		C2168.787,1017.428,2154.267,1003.909,2135.992,1003.909z M2265.17,997.148l-41.558,103.895
		c-4.756,9.763-11.515,16.522-23.03,16.522c-4.758,0-12.518-2.002-16.523-4.005l5.007-6.51c2.754,0.753,5.758,1.753,11.517,1.753
		c8.51,0,12.517-7.761,15.271-13.518l7.76-18.277l-36.551-79.861h10.516l30.792,67.346l26.036-67.346H2265.17z M379.806,969.112
		c-10.765-13.27-28.039-18.277-41.558-18.277c-38.303,0-66.342,24.034-66.342,63.59c0,38.552,28.039,63.587,66.342,63.587
		c16.522,0,33.796-6.76,44.311-21.279l-23.032-16.273c-4.756,8.763-14.52,13.521-25.034,13.521
		c-19.277,0-34.548-16.525-34.548-39.555c0-23.033,15.271-39.556,35.549-39.556c9.513,0,17.274,3.004,23.031,9.764L379.806,969.112z
		 M382.559,1033.701c0,27.036,21.28,44.31,47.316,44.31s47.064-17.273,47.064-44.31c0-27.039-21.028-44.312-47.064-44.312
		S382.559,1006.662,382.559,1033.701z M408.595,1032.698c0-12.518,7.761-21.028,21.28-21.028s21.029,8.511,21.029,21.028
		c0,12.518-7.51,21.28-21.029,21.28S408.595,1045.216,408.595,1032.698z M485.702,991.391v82.865h26.036v-34.798
		c0-16.272,1.752-27.788,22.03-27.788c4.006,0,7.761,0.751,11.517,1.751v-23.03c-1.752-1.002-5.758-1.002-8.512-1.002
		c-11.516,0-18.275,4.756-24.034,15.521v-13.52h-26.035H485.702z M555.048,991.391v83.615h26.036v-41.305
		c0-10.516,1.753-21.28,15.271-21.28c13.519,0,13.519,12.517,13.519,22.28v40.305h26.036v-46.063
		c0-22.28-4.756-39.554-31.794-39.554c-12.518,0-21.279,6.759-25.035,13.519v-11.517h-25.034H555.048z M709.012,1046.217
		c-3.755,6.759-9.513,10.515-18.275,10.515c-10.514,0-18.275-6.761-20.279-16.273h60.835v-7.76
		c0-26.787-15.521-44.312-39.555-44.312c-26.036,0-47.315,17.275-47.315,44.312c0,27.037,21.279,44.311,47.315,44.311
		c13.519,0,27.789-5.758,35.549-16.271L709.012,1046.217z M670.458,1024.186c0-7.761,6.76-15.519,18.276-15.519
		c9.763,0,16.522,6.758,16.522,15.519H670.458z M740.806,1074.256h26.036V952.838h-26.036v60.583V1074.256z M782.113,1074.256
		h26.036V952.838h-26.036v60.583V1074.256z M40.835,962.351H2.282v-9.513h89.625v9.513H52.352v112.655H41.837V962.351H40.835z
		 M168.763,1026.941v47.315h-9.513v-46.315c0-13.517-3.755-26.034-20.278-26.034c-15.271,0-27.788,10.515-27.788,32.795v39.555
		h-9.764V952.838h9.764v56.828c4.756-8.763,14.27-15.521,27.788-15.521C164.006,994.145,169.764,1010.668,168.763,1026.941z
		 M252.629,1053.979l6.759,7.759c-8.763,11.518-20.278,16.273-34.548,16.273c-24.284,0-40.556-17.022-40.556-41.308
		c0-24.282,17.274-41.558,40.556-41.558c25.035,0,37.552,18.275,37.552,36.551v6.76h-67.594c0,8.763,5.758,30.042,30.793,30.042
		C236.356,1068.498,246.871,1062.489,252.629,1053.979z M252.629,1028.943c0-14.518-12.517-26.035-27.789-26.035
		c-23.282,0-30.042,22.03-30.042,26.035H252.629z M839.944,1065.493h50.069v9.513h-61.585V952.838h11.516v60.583V1065.493z
		 M961.362,1040.458c0,15.522,1.001,24.035,2.003,32.797h-9.764c-1.001-4.007-1.001-7.762-1.001-12.518h-1.001
		c-5.758,9.513-14.27,14.269-27.789,14.269c-13.518,0-28.039-6.508-28.039-23.03c0-11.518,7.761-18.274,16.522-22.03
		c8.512-3.005,20.028-4.008,27.789-4.008H952.6v-4.754c0-13.521-9.513-19.277-23.032-19.277c-9.763,0-18.275,3.004-25.034,8.762
		l-5.758-6.76c7.761-6.761,20.278-10.515,30.792-10.515c19.277,0.751,31.794,8.513,31.794,28.79V1040.458z M951.599,1034.701
		h-11.516c-18.275,0-35.549,4.757-35.549,18.274c0,10.516,9.513,15.522,18.274,15.522c11.516,0,19.277-4.005,23.033-8.763
		c4.005-5.757,5.758-12.517,5.758-19.277V1034.701z M1062.502,1034.701c0,24.033-17.524,41.308-42.559,41.308
		c-11.517,0-25.035-4.758-31.544-15.271h-1.001v13.519h-9.763V952.838h9.763v56.828h1.001c5.758-10.515,20.027-15.521,31.544-15.521
		C1044.227,994.145,1062.502,1011.67,1062.502,1034.701z M1052.739,1035.703c0-18.275-12.518-32.796-32.795-32.796
		c-19.026,0-33.546,14.521-33.546,32.796c0,18.275,14.52,32.795,33.546,32.795
		C1040.221,1068.498,1051.738,1053.979,1052.739,1035.703z M1353.156,928.805h-56.83l-73.101,52.823
		c0-4.757,3.003-19.277,17.274-27.79c14.52-9.762,65.591-36.55,65.591-36.55c12.517,1.003,46.063,9.513,46.063,9.513
		S1354.157,928.805,1353.156,928.805z M1301.333,911.531c0,0-51.07,27.788-66.592,37.553
		c-16.273,10.514-20.277,26.786-20.277,38.303v140.695c-20.028,0-33.547,1-61.585-14.521
		c-26.788-16.272-44.312-43.311-44.312-75.104v-73.101l-70.347-49.068h-81.614c-13.518,0-25.034-5.76-25.034-13.52h282.142
		c0,0,17.273-9.513,42.308-9.513C1276.048,893.255,1292.572,901.767,1301.333,911.531z M1269.54,914.284
		c0,3.005,1.752,4.757,4.756,4.757c2.754,0,4.757-1.752,4.757-4.757c0-2.753-2.003-4.756-4.757-4.756
		C1271.292,909.528,1268.538,912.282,1269.54,914.284z M1214.463,935.563v8.514l46.313-25.036l-14.52-0.749L1214.463,935.563z
		 M1129.846,964.353c0,9.765,4.756,17.275,11.516,23.033l52.072,35.8v-25.035c0-10.516-4.006-17.273-14.52-24.033l-41.308-29.04
		C1137.606,945.077,1130.187,954.767,1129.846,964.353z"/>
</g>
</svg>
