<?xml version="1.0" encoding="utf-8"?>
<!-- Generator: Adobe Illustrator 14.0.0, SVG Export Plug-In . SVG Version: 6.00 Build 43363)  -->
<!DOCTYPE svg PUBLIC "-//W3C//DTD SVG 1.1//EN" "http://www.w3.org/Graphics/SVG/1.1/DTD/svg11.dtd">
<svg version="1.1"
	 id="svg8" sodipodi:docname="crustacea.svg" inkscape:version="0.92.4 (5da689c313, 2019-01-14)" xmlns:dc="http://purl.org/dc/elements/1.1/" xmlns:cc="http://creativecommons.org/ns#" xmlns:rdf="http://www.w3.org/1999/02/22-rdf-syntax-ns#" xmlns:svg="http://www.w3.org/2000/svg" xmlns:sodipodi="http://sodipodi.sourceforge.net/DTD/sodipodi-0.dtd" xmlns:inkscape="http://www.inkscape.org/namespaces/inkscape"
	 xmlns="http://www.w3.org/2000/svg" xmlns:xlink="http://www.w3.org/1999/xlink" x="0px" y="0px" width="2267.717px"
	 height="2267.717px" viewBox="173.027 -0.516 2267.717 2267.717" enable-background="new 173.027 -0.516 2267.717 2267.717"
	 xml:space="preserve">
<sodipodi:namedview  id="base" inkscape:window-height="962" inkscape:document-units="mm" inkscape:window-x="-8" inkscape:window-y="-8" inkscape:pageopacity="0.0" inkscape:pageshadow="2" inkscape:current-layer="layer1" inkscape:window-width="1280" inkscape:window-maximized="1" borderopacity="1.0" bordercolor="#666666" showgrid="false" pagecolor="#ffffff" inkscape:cy="746.86759" inkscape:cx="1607.2442" inkscape:zoom="0.1400905">
	</sodipodi:namedview>
<g id="layer1" transform="translate(-39.358218,62.742154)" inkscape:groupmode="layer" inkscape:label="Capa 1">
	<path id="path3713_2_" inkscape:connector-curvature="0" fill="none" stroke="#000000" stroke-width="0.2646" d="M2471.764,645.599
		c2.372,50.708-0.905,101.521-9.772,151.503c-14.879,87.97-50.941,170.997-105.075,241.916
		c-53.844,69.928-125.618,123.971-207.704,156.391c-4.889,2.441,0,0-119.737,29.32c-1.462,32.385-7.214,64.432-17.105,95.302
		l-21.991,53.758l122.18,31.768c7.271,1.454,14.021,4.829,19.548,9.773l161.276,161.276c7.43,7.021,11.816,16.669,12.219,26.879
		v161.277c1.629,6.568,1.629,13.435,0,20.004c-5.522,22.267-28.052,35.841-50.319,30.315c-22.268-5.522-35.842-28.052-30.319-50.319
		v-144.172l-144.172-141.728l-134.396-31.768c-2.444,4.889-4.887,12.218-12.219,17.105l-34.21,34.213l136.841,70.861
		c7.273,3.878,13.229,9.833,17.105,17.105l80.639,163.72c5.254,10.801,5.254,23.414,0,34.213l-80.639,161.276
		c-1.346,4.362-3.402,8.474-6.084,12.169c-13.483,18.564-39.459,22.683-58.023,9.2c-18.563-13.483-22.682-39.462-9.201-58.023
		l73.309-141.728l-65.977-129.512l-153.946-78.194c-23.658,18.636-49.02,34.999-75.752,48.871l129.511,129.512
		c7.661,6.849,12.094,16.602,12.218,26.878v161.278c-0.463,15.886-9.949,30.114-24.435,36.651l-161.277,80.642
		c-19.639,9.204-43.053,1.756-53.759-17.107c-9.207-19.638-1.757-43.052,17.104-53.758l141.729-70.864v-119.736l-149.059-146.614
		c-27.233,6.396-55.106,9.676-83.081,9.773c-34.501,0.116-66.633,17.561-85.526,46.429c-7.088,10.444-15.235,20.13-24.313,28.899
		c-72.794,70.327-188.816,68.331-259.144-4.463c-17.606-12.237-33.259-27.067-46.429-43.986
		c-26.516-16.393-56.819-25.652-87.969-26.879c-21.283,0.336-42.552-1.3-63.533-4.887l-144.172,141.728v117.294l139.284,70.862
		c19.783,9.866,28.375,33.492,19.55,53.76c-10.796,20.243-35.959,27.901-56.202,17.104l-161.277-80.638
		c-13.538-7.221-21.992-21.314-21.992-36.655v-161.274c0.125-10.277,4.556-20.029,12.218-26.882l124.622-124.622
		c-29.917-13.217-57.872-30.483-83.083-51.315l-149.058,78.194l-65.977,129.512l73.308,141.728
		c5.236,16.98-0.907,35.409-15.286,45.854c-18.562,13.481-44.54,9.362-58.022-9.199l-80.639-161.276
		c-5.255-10.799-5.255-23.412,0-34.213l80.639-161.275c4.094-8.558,10.992-15.457,19.548-19.55l124.623-63.533l-48.872-56.201l0,0
		l-114.848,29.322l-141.728,141.728v144.172c-3.707,14.944-15.375,26.611-30.319,30.319c-22.268,5.522-44.797-8.052-50.319-30.319
		v-161.277c0.402-10.21,4.789-19.858,12.218-26.879l161.277-161.276c4.834-4.582,10.701-7.936,17.105-9.773l107.518-26.882
		l-26.879-75.749c-7.6-31.214-11.698-63.178-12.218-95.302L534,1173.415c-83.266-35.119-155.166-92.638-207.706-166.164
		c-52.752-72.102-87.141-155.975-100.187-244.357c-9.572-106.581-7.934-213.872,4.887-320.11c-0.411-2.426-0.411-4.906,0-7.332
		c21.21-96.191,79.06-180.336,161.277-234.584l70.865-46.428c111.228-73.004,253.146-80.473,371.425-19.548l85.526,46.427
		l-312.78,202.818c-14.01,12.529-18.51,32.578-11.2,49.893c9.448,22.381,35.249,32.862,57.628,23.414L858.998,325.49
		c4.026,4.711,7.856,9.587,11.476,14.618c71.745,99.674,49.1,238.637-50.574,310.381l-90.414,56.203
		c-63.606,40.093-133.993,68.248-207.704,83.081c8.082,28.451,27.529,52.315,53.759,65.978l95.3,51.315
		c8.783-17.214,21.308-32.243,36.654-43.986c31.416-23.641,71.87-31.731,109.962-21.992c86.792,23.432,178.55,20.882,263.908-7.33
		l0,0l9.773-249.246c-40.113-9.144-68.534-44.871-68.42-86.013c0.135-48.584,39.629-87.858,88.214-87.725
		c48.584,0.134,87.859,39.628,87.725,88.212c-1.264,41.367-30.453,76.597-70.864,85.525l-9.775,234.584
		c16.837-9.429,32.434-20.922,46.427-34.21l107.519-92.857c42.107-38.813,106.952-38.813,149.059,0l83.083,78.197
		c21.234,19.501,45.086,35.952,70.863,48.87l7.331-229.698c-33.954-7.232-60.479-33.757-67.711-67.71
		c-10.124-47.521,20.192-94.245,67.711-104.366c47.519-10.124,94.243,20.193,104.365,67.71
		c10.122,47.517-20.193,94.245-67.711,104.365l-9.774,249.247c80.682,32.508,169.427,39.333,254.133,19.548
		c39.988-10.673,82.669-1.592,114.849,24.437c15.183,11.913,27.674,26.902,36.654,43.983l97.743-48.871
		c25.707-14.297,44.949-37.913,53.759-65.978c-107.093-29.874-206.901-81.441-293.23-151.501
		c-15.413-8.599-29.668-19.126-42.42-31.33c-82.876-79.313-85.764-210.791-6.453-293.668l17.105,7.331l190.601,134.397
		c19.601,14.033,46.846,9.673,61.09-9.773c14.033-19.603,9.673-46.847-9.773-61.092l-300.563-212.592l90.413-41.541
		c120.015-58.041,262.004-46.832,371.426,29.323l65.976,46.429c81.426,56.317,137.562,142.277,156.391,239.473L2471.764,645.599z"/>
</g>
</svg>
