<?xml version="1.0" encoding="utf-8"?>
<!-- Generator: Adobe Illustrator 22.1.0, SVG Export Plug-In . SVG Version: 6.00 Build 0)  -->
<svg version="1.1"
	 id="svg8" inkscape:version="0.92.4 (5da689c313, 2019-01-14)" sodipodi:docname="datos-insuficientes-dd-evaluacion-conabio.svg" xmlns:cc="http://creativecommons.org/ns#" xmlns:dc="http://purl.org/dc/elements/1.1/" xmlns:inkscape="http://www.inkscape.org/namespaces/inkscape" xmlns:rdf="http://www.w3.org/1999/02/22-rdf-syntax-ns#" xmlns:sodipodi="http://sodipodi.sourceforge.net/DTD/sodipodi-0.dtd" xmlns:svg="http://www.w3.org/2000/svg"
	 xmlns="http://www.w3.org/2000/svg" xmlns:xlink="http://www.w3.org/1999/xlink" x="0px" y="0px" viewBox="0 0 2267.7 2267.7"
	 style="enable-background:new 0 0 2267.7 2267.7;" xml:space="preserve">
<style type="text/css">
	.st0{fill:none;stroke:#000000;stroke-width:0.2646;}
</style>
<sodipodi:namedview  bordercolor="#666666" borderopacity="1.0" id="base" inkscape:current-layer="layer1" inkscape:cx="1996.5347" inkscape:cy="1999.294" inkscape:document-units="mm" inkscape:pageopacity="0.0" inkscape:pageshadow="2" inkscape:window-height="962" inkscape:window-maximized="1" inkscape:window-width="1280" inkscape:window-x="-8" inkscape:window-y="-8" inkscape:zoom="0.14369886" pagecolor="#ffffff" showgrid="false">
	</sodipodi:namedview>
<path class="st0" d="M928.5,1130.4c0,148.6-69.2,222.9-207.5,222.9h-61.6V912.2h76.4C864.2,912.2,928.5,984.9,928.5,1130.4z
	 M1438.1,912.2h-76.4v441.1h61.6c138.3,0,207.5-74.3,207.5-222.9C1630.8,984.9,1566.6,912.2,1438.1,912.2z M1919,1665.7h2
	c-298.7,353.9-778.5,594.4-778.5,594.4S662.6,2019.7,364,1665.7h1.6c-146.6-175.5-234.8-401.3-234.8-648
	C130.7,459.2,583.6,6.3,1142.2,6.3c558.7,0,1011.6,452.9,1011.6,1011.5C2153.8,1264.4,2065.4,1490.3,1919,1665.7z M1077.7,1126.7
	c0-104.7-30.6-186.2-91.7-244.6c-61.2-58.4-147.1-87.6-257.6-87.6H515.7v677.4h191.8c119.8,0,211.5-29.7,275-88.9
	C1045.9,1323.6,1077.7,1238.2,1077.7,1126.7z M1780,1126.7c0-104.7-30.6-186.2-91.7-244.6c-61.2-58.4-147.1-87.6-257.6-87.6h-212.6
	v677.4h191.8c119.8,0,211.5-29.7,275-88.9C1748.3,1323.6,1780,1238.2,1780,1126.7z"/>
</svg>
