<?xml version="1.0" encoding="utf-8"?>
<!-- Generator: Adobe Illustrator 22.1.0, SVG Export Plug-In . SVG Version: 6.00 Build 0)  -->
<svg version="1.1"
	 id="svg8" inkscape:version="0.92.4 (5da689c313, 2019-01-14)" sodipodi:docname="datos-insuficientes-dd.svg" xmlns:cc="http://creativecommons.org/ns#" xmlns:dc="http://purl.org/dc/elements/1.1/" xmlns:inkscape="http://www.inkscape.org/namespaces/inkscape" xmlns:rdf="http://www.w3.org/1999/02/22-rdf-syntax-ns#" xmlns:sodipodi="http://sodipodi.sourceforge.net/DTD/sodipodi-0.dtd" xmlns:svg="http://www.w3.org/2000/svg"
	 xmlns="http://www.w3.org/2000/svg" xmlns:xlink="http://www.w3.org/1999/xlink" x="0px" y="0px" viewBox="0 0 2267.7 2267.7"
	 style="enable-background:new 0 0 2267.7 2267.7;" xml:space="preserve">
<style type="text/css">
	.st0{fill:none;stroke:#000000;stroke-width:0.2646;}
</style>
<sodipodi:namedview  bordercolor="#666666" borderopacity="1.0" id="base" inkscape:current-layer="layer1" inkscape:cx="1398.7589" inkscape:cy="1167.2953" inkscape:document-units="mm" inkscape:pageopacity="0.0" inkscape:pageshadow="2" inkscape:window-height="962" inkscape:window-maximized="1" inkscape:window-width="1280" inkscape:window-x="-8" inkscape:window-y="-8" inkscape:zoom="0.1400905" pagecolor="#ffffff" showgrid="false">
	</sodipodi:namedview>
<path class="st0" d="M1667.3,1130.7c0,164.7-76.7,247.1-230.1,247.1h-68.3v-489h84.7C1596.1,888.7,1667.3,969.4,1667.3,1130.7z
	 M2255.2,30.9v1102.9c0,620.4-502.9,1123.3-1123.3,1123.3C511.6,2257,8.7,1754.1,8.7,1133.7C8.7,536.2,475.2,47.9,1064,12.7v-2.2
	h1170.8C2246,10.5,2255.2,19.6,2255.2,30.9z M1054.1,1126.6c0-116.1-33.9-206.5-101.7-271.2c-67.8-64.8-163-97.1-285.6-97.1H431.1
	v750.9h212.6c132.8,0,234.4-32.9,304.8-98.7C1018.9,1344.8,1054.1,1250.2,1054.1,1126.6z M1832.7,1126.6
	c0-116.1-33.9-206.5-101.7-271.2c-67.8-64.8-163.1-97.1-285.6-97.1h-235.7v750.9h212.6c132.9,0,234.5-32.9,304.9-98.7
	C1797.5,1344.8,1832.7,1250.2,1832.7,1126.6z M675.1,888.7h-84.7v489h68.3c153.4,0,230.1-82.4,230.1-247.1
	C888.7,969.4,817.5,888.7,675.1,888.7z"/>
</svg>
