<?xml version="1.0" encoding="UTF-8" standalone="no"?>
<svg
   xmlns:dc="http://purl.org/dc/elements/1.1/"
   xmlns:cc="http://creativecommons.org/ns#"
   xmlns:rdf="http://www.w3.org/1999/02/22-rdf-syntax-ns#"
   xmlns:svg="http://www.w3.org/2000/svg"
   xmlns="http://www.w3.org/2000/svg"
   xmlns:sodipodi="http://sodipodi.sourceforge.net/DTD/sodipodi-0.dtd"
   xmlns:inkscape="http://www.inkscape.org/namespaces/inkscape"
   version="1.1"
   id="aa2f12a5-f19b-420e-90a1-46fc7e090af9"
   x="0px"
   y="0px"
   viewBox="0 0 2268 2123.1445"
   xml:space="preserve"
   sodipodi:docname="ic_distribucion.svg"
   inkscape:version="1.0.2 (e86c870879, 2021-01-15)"
   width="2268"
   height="2123.1445"><metadata
   id="metadata17"><rdf:RDF><cc:Work
       rdf:about=""><dc:format>image/svg+xml</dc:format><dc:type
         rdf:resource="http://purl.org/dc/dcmitype/StillImage" /><dc:title>ic_distribucion</dc:title></cc:Work></rdf:RDF></metadata><defs
   id="defs15" /><sodipodi:namedview
   pagecolor="#ffffff"
   bordercolor="#666666"
   borderopacity="1"
   objecttolerance="10"
   gridtolerance="10"
   guidetolerance="10"
   inkscape:pageopacity="0"
   inkscape:pageshadow="2"
   inkscape:window-width="1920"
   inkscape:window-height="1023"
   id="namedview13"
   showgrid="false"
   inkscape:zoom="0.10572917"
   inkscape:cx="2695.6285"
   inkscape:cy="1691.7315"
   inkscape:window-x="0"
   inkscape:window-y="25"
   inkscape:window-maximized="1"
   inkscape:current-layer="aa2f12a5-f19b-420e-90a1-46fc7e090af9"
   fit-margin-top="0"
   fit-margin-left="0"
   fit-margin-right="0"
   fit-margin-bottom="0" />
<style
   type="text/css"
   id="style2">
	.st0{fill:#DADADA;}
	.st1{fill:none;stroke:#3C3C3B;stroke-width:4.24;stroke-miterlimit:10;}
	.st2{fill:#3C3C3B;}
</style>
<title
   id="title4">ic_distribucion</title>
<path
   id="path117"
   style="color:#000000;font-style:normal;font-variant:normal;font-weight:normal;font-stretch:normal;font-size:medium;line-height:normal;font-family:sans-serif;font-variant-ligatures:normal;font-variant-position:normal;font-variant-caps:normal;font-variant-numeric:normal;font-variant-alternates:normal;font-variant-east-asian:normal;font-feature-settings:normal;font-variation-settings:normal;text-indent:0;text-align:start;text-decoration:none;text-decoration-line:none;text-decoration-style:solid;text-decoration-color:#000000;letter-spacing:normal;word-spacing:normal;text-transform:none;writing-mode:lr-tb;direction:ltr;text-orientation:mixed;dominant-baseline:auto;baseline-shift:baseline;text-anchor:start;white-space:normal;shape-padding:0;shape-margin:0;inline-size:0;clip-rule:nonzero;display:inline;overflow:visible;visibility:visible;opacity:1;isolation:auto;mix-blend-mode:normal;color-interpolation:sRGB;color-interpolation-filters:linearRGB;solid-color:#000000;solid-opacity:1;vector-effect:none;fill:none;fill-opacity:1;fill-rule:nonzero;stroke:none;stroke-width:35.1931;stroke-linecap:butt;stroke-linejoin:miter;stroke-miterlimit:4;stroke-dasharray:none;stroke-dashoffset:0;stroke-opacity:1;color-rendering:auto;image-rendering:auto;shape-rendering:auto;text-rendering:auto;enable-background:accumulate;stop-color:#000000;stop-opacity:1"
   d="M 1241.0915,106.24934 C 305.46105,117.80867 537.16822,1225.5159 933.4943,1649.8674 484.76403,1669.769 113.4,1742.7776 113.4,1830.5052 c 0,103.0141 456.93817,186.4822 1020.6,186.4822 563.6618,0 1020.6,-83.4681 1020.6,-186.4822 0,-77.7214 -276.9593,-146.5004 -647.1544,-174.5907 C 1956.9789,1174.0869 2176.722,94.6901 1241.0915,106.24934 Z m 18.9616,112.46157 C 2137.6504,206.60762 1787.3781,1342.5237 1205.735,1793.2781 665.12344,1328.0249 382.45576,230.81419 1260.0531,218.71091 Z M 980.83736,1723.2301 c 0,0 132.73324,153.7795 223.77534,156.8714 91.5067,3.1075 235.0958,-142.0496 235.0958,-142.0496 132.5257,-25.9312 657.0079,55.8891 492.3852,121.531 -419.1197,167.1202 -1973.12119,21.7534 -1555.59779,-62.9824 64.96628,-13.1848 393.86508,-66.2106 604.34145,-73.3704 z"
   sodipodi:nodetypes="scssscszczcasscc" />

<path
   class="st2"
   d="m 1398.4165,391.12633 c 152.29,-2.95728 280.2136,118.29486 280.2136,266.16347 0,5.91473 0,8.87211 0,14.78687 -3.046,150.82595 -130.9693,272.0782 -289.351,269.12082 -155.3358,-2.95727 -280.2135,-127.16698 -277.1678,-280.95031 v 0 c 0,-150.82599 124.8779,-269.12085 280.2137,-269.12085 3.0459,0 6.0915,0 6.0915,0 z m -3.0459,464.3074 c 106.6029,2.95727 197.9769,-76.89169 201.0227,-183.35706 0,-2.95727 0,-5.91476 0,-8.87214 0,-106.46537 -88.3281,-195.18655 -197.9769,-195.18655 -109.6488,0 -201.0228,85.7638 -201.0228,192.2292 3.046,106.46537 88.3282,195.18655 197.977,195.18655 z"
   id="path10"
   style="fill:none;stroke-width:30.0126" />
</svg>
