<?xml version="1.0" encoding="UTF-8" standalone="no"?>
<svg
   xmlns:dc="http://purl.org/dc/elements/1.1/"
   xmlns:cc="http://creativecommons.org/ns#"
   xmlns:rdf="http://www.w3.org/1999/02/22-rdf-syntax-ns#"
   xmlns:svg="http://www.w3.org/2000/svg"
   xmlns="http://www.w3.org/2000/svg"
   version="1.1"
   id="Capa_1"
   x="0px"
   y="0px"
   viewBox="0 0 2267.7 2267.7"
   xml:space="preserve"
   width="2267.7"
   height="2267.7"><metadata
   id="metadata133"><rdf:RDF><cc:Work
       rdf:about=""><dc:format>image/svg+xml</dc:format><dc:type
         rdf:resource="http://purl.org/dc/dcmitype/StillImage" /><dc:title></dc:title></cc:Work></rdf:RDF></metadata><defs
   id="defs131" />
<style
   type="text/css"
   id="style124">
	.st0{fill:#1D1D1B;}
</style>
<path
   id="path126"
   style="stroke-width:5.72652;fill:none"
   d="M 716.38672 0 C 322.40247 0 -1.5158245e-13 322.40247 0 716.38672 L 0 2267.6992 L 1551.3125 2267.6992 C 1945.2967 2267.6992 2267.6992 1945.2967 2267.6992 1551.3125 L 2267.6992 0 L 716.38672 0 z M 781.0957 197.56445 L 2094.1875 197.56445 L 2094.1875 1547.3047 C 2084.4524 1557.0398 2075.2882 1567.3474 2064.9805 1576.5098 C 2020.3136 1620.604 1976.7933 1666.9886 1929.8359 1707.0742 C 1921.2461 1706.5015 1913.8007 1705.9282 1905.2109 1705.3555 C 1913.228 1656.1075 1916.0915 1610.2966 1928.1172 1567.3477 C 1944.724 1508.3646 1969.9209 1452.2444 1988.8184 1393.834 C 1991.6817 1383.5263 1984.2367 1368.6374 1980.8008 1356.0391 C 1969.9204 1360.0477 1957.8948 1362.9098 1948.7324 1369.209 C 1943.5785 1372.6449 1941.2886 1382.3806 1938.998 1388.6797 C 1921.8185 1434.4918 1901.7765 1479.7321 1888.6055 1526.6895 C 1875.4345 1572.5017 1869.1351 1620.6043 1859.9727 1668.707 C 1859.9727 1653.2454 1858.8274 1638.3557 1859.9727 1623.4668 C 1868.5625 1467.7055 1886.3133 1313.0897 1925.8262 1162.4824 C 1943.0058 1097.2001 1967.6306 1033.6354 1988.2461 968.92578 C 1993.9726 952.31889 2003.7073 933.4214 1983.0918 922.54102 C 1959.0404 910.51534 1953.314 932.85014 1945.2969 949.45703 C 1943.0063 954.03824 1941.2882 959.19223 1939.5703 963.77344 C 1873.7154 1131.5603 1841.074 1307.3632 1823.8945 1487.1758 C 1816.45 1557.0393 1813.5871 1628.049 1809.0059 1700.2031 C 1795.2623 1699.6304 1781.5191 1699.0571 1767.7754 1698.4844 L 1767.7754 1462.5527 C 1767.7754 1384.0994 1767.775 1306.2173 1768.3477 1227.1914 C 1768.3477 1218.6016 1777.5106 1207.7218 1784.9551 1203.1406 C 1816.4509 1183.0978 1835.3477 1154.4654 1835.3477 1116.0977 C 1835.9204 976.37069 1835.9204 837.21681 1835.3477 698.0625 C 1835.3477 661.4128 1820.46 631.06158 1790.1094 615.02734 C 1769.494 604.71961 1766.6304 590.97639 1767.2031 570.93359 C 1767.7757 561.77117 1767.7757 550.89017 1764.3398 542.87305 C 1760.9039 536.00123 1751.1687 527.98399 1744.2969 528.55664 C 1736.8524 528.55664 1727.6894 535.42858 1724.8262 542.87305 C 1720.8176 552.03547 1721.3898 563.48915 1722.5352 573.79688 C 1723.6805 593.26702 1719.0994 603.57548 1701.9199 613.31055 C 1669.2788 629.91745 1653.8184 661.41322 1653.8184 700.35352 C 1653.2457 837.21723 1653.2457 974.6519 1653.8184 1111.5156 C 1653.8184 1150.4559 1669.8514 1181.9536 1701.9199 1198.5605 C 1719.6721 1208.2956 1722.5352 1219.1752 1722.5352 1237.5 C 1721.9625 1375.509 1721.9629 1511.8004 1721.9629 1648.6641 C 1707.074 1632.0572 1691.6124 1614.8776 1675.5781 1599.416 C 1649.8088 1444.8001 1623.4675 1315.9535 1602.2793 1219.748 C 1571.9288 1080.0211 1567.9203 944.30226 1518.0996 933.42188 C 1508.3645 931.13126 1495.1925 933.42195 1487.748 942.01172 C 1467.1326 964.91778 1494.0475 1022.7563 1516.3809 1080.0215 C 1516.3809 1080.0215 1551.3128 1169.9266 1591.3984 1354.3203 C 1601.1334 1398.4145 1612.586 1463.1252 1618.3125 1543.8691 C 1596.5517 1530.1255 1574.792 1516.9546 1553.0312 1503.2109 C 1536.997 1499.2024 1520.9616 1495.1937 1505.5 1491.7578 C 1499.7735 1491.1852 1493.4757 1490.6128 1486.0312 1491.1855 C 1478.5867 1491.7581 1471.7144 1492.9016 1466.5605 1494.0469 C 1400.7056 1508.3632 1371.5 1545.0137 1371.5 1545.0137 C 1361.7649 1551.8855 1352.6023 1560.4758 1342.8672 1570.2109 C 1300.491 1610.8691 1259.8329 1655.5351 1220.8926 1701.9199 C 1171.6446 1760.903 1124.6871 1756.8957 1076.0117 1703.0664 C 1027.3363 1649.2372 979.23394 1594.8348 927.69531 1547.3047 C 847.52409 1472.86 762.77239 1473.4327 683.17383 1544.4414 C 625.33602 1595.4074 572.65228 1656.1075 517.67773 1711.082 C 462.70318 1765.4839 416.31796 1761.4757 367.64258 1696.1934 C 345.30917 1666.4155 326.41076 1632.0563 305.22266 1600.5605 C 270.86357 1548.4492 256.54838 1503.7828 202.14648 1490.0391 L 202.14648 1023.9004 C 202.14648 838.93396 140.30012 675.72918 344.16406 425.48047 C 511.3783 219.89857 736.42888 200.42771 781.0957 197.56445 z " />
</svg>
