<?xml version="1.0" encoding="utf-8"?>
<!-- Generator: Adobe Illustrator 22.1.0, SVG Export Plug-In . SVG Version: 6.00 Build 0)  -->
<svg version="1.1"
	 id="svg8" inkscape:version="0.92.4 (5da689c313, 2019-01-14)" sodipodi:docname="echinodermata.svg" xmlns:cc="http://creativecommons.org/ns#" xmlns:dc="http://purl.org/dc/elements/1.1/" xmlns:inkscape="http://www.inkscape.org/namespaces/inkscape" xmlns:rdf="http://www.w3.org/1999/02/22-rdf-syntax-ns#" xmlns:sodipodi="http://sodipodi.sourceforge.net/DTD/sodipodi-0.dtd" xmlns:svg="http://www.w3.org/2000/svg"
	 xmlns="http://www.w3.org/2000/svg" xmlns:xlink="http://www.w3.org/1999/xlink" x="0px" y="0px" viewBox="0 0 2267.7 2267.7"
	 style="enable-background:new 0 0 2267.7 2267.7;" xml:space="preserve">
<style type="text/css">
	.st0{fill:none;stroke:#000000;stroke-width:0.2646;}
</style>
<sodipodi:namedview  bordercolor="#666666" borderopacity="1.0" id="base" inkscape:current-layer="layer1" inkscape:cx="1484.9069" inkscape:cy="902.72849" inkscape:document-units="mm" inkscape:pageopacity="0.0" inkscape:pageshadow="2" inkscape:window-height="962" inkscape:window-maximized="1" inkscape:window-width="1280" inkscape:window-x="-8" inkscape:window-y="-8" inkscape:zoom="0.1400905" pagecolor="#ffffff" showgrid="false">
	</sodipodi:namedview>
<g id="layer1" transform="translate(-71.726611,78.072713)" inkscape:groupmode="layer" inkscape:label="Capa 1">
	<path id="path3713" inkscape:connector-curvature="0" class="st0" d="M2308.5,867.6l-373.8,381.7
		c-76.3,76.3-110.6,186.9-92.1,294.8l89.5,542.2c5.3,29-7.9,60.5-31.6,79c-23.7,18.4-57.9,21.1-84.2,5.3l-460.6-252.7
		c-94.8-52.6-205.3-52.6-297.4,0l-463.3,252.7c-26.3,15.8-57.9,13.2-84.2-5.3c-23.7-18.4-34.2-50-29-79l86.9-542.2
		c18.4-107.9-15.8-218.5-92.1-294.8L102.7,867.6c-21.1-23.7-29-55.3-21.1-84.2c10.5-31.6,34.2-52.6,65.8-57.9l515.9-76.3
		c105.3-15.8,194.8-86.9,239.5-184.2l231.6-492.2c13.2-26.3,42.1-44.7,71.1-44.7s57.9,18.4,71.1,44.7l231.6,492.2
		c44.7,97.4,136.9,168.5,239.5,184.2l518.5,76.3c29,5.3,52.6,26.3,63.2,57.9C2337.4,812.3,2329.5,843.9,2308.5,867.6z M423.8,786
		c-57.9-21.1-118.4,13.2-136.9,71.1c-18.4,57.9,13.2,123.7,68.4,142.1c57.9,18.4,118.4-13.2,136.9-71.1
		C510.7,867.6,479.1,804.4,423.8,786z M1455.6,1086.1c10.5,31.6,44.7,50,76.3,39.5c31.6-10.5,47.4-44.7,39.5-79
		c-10.5-34.2-44.7-52.6-76.3-39.5C1463.5,1017.6,1445.1,1051.8,1455.6,1086.1z M1097.7,312.2c0,60.5,50,113.2,107.9,113.2
		c60.5,0,107.9-52.6,107.9-113.2c0-63.2-47.4-113.2-107.9-113.2C1147.7,199,1097.7,249,1097.7,312.2z M1284.6,620.2
		c0-44.7-34.2-81.6-79-81.6c-42.1,0-79,36.8-79,81.6c0,44.7,36.8,81.6,79,81.6S1284.6,664.9,1284.6,620.2z M1205.6,809.7
		c-34.2,0-60.5,26.3-60.5,63.2c0,34.2,26.3,63.2,60.5,63.2s60.5-29,60.5-63.2C1266.1,836,1239.8,809.7,1205.6,809.7z M879.2,1125.5
		c31.6,10.5,65.8-7.9,76.3-39.5c10.5-34.2-7.9-68.4-39.5-79c-31.6-13.2-63.2,5.3-73.7,39.5C831.8,1078.2,847.6,1115,879.2,1125.5z
		 M644.9,1065c42.1,15.8,86.9-7.9,100-52.6c13.2-42.1-7.9-89.5-50-102.7c-42.1-13.2-84.2,10.5-100,52.6
		C581.8,1004.5,605.5,1051.8,644.9,1065z M773.9,1794.1c-44.7-36.8-113.2-29-150,21.1c-36.8,47.4-29,118.4,18.4,157.9
		c47.4,36.8,115.8,29,150-21.1C829.2,1904.6,821.3,1833.6,773.9,1794.1z M939.7,1575.6c-34.2-29-84.2-23.7-110.5,13.2
		s-21.1,86.9,13.2,115.8c34.2,29,84.2,21.1,110.5-13.2C979.2,1654.6,974,1602,939.7,1575.6z M1074,1391.4
		c-26.3-21.1-63.2-15.8-84.2,10.5c-18.4,29-15.8,68.4,10.5,89.5s65.8,15.8,84.2-10.5C1105.6,1451.9,1100.3,1412.4,1074,1391.4z
		 M1355.6,1175.5c-2.6-84.2-68.4-152.7-150-150c-81.6,0-144.8,71.1-144.8,155.3c0,84.2,68.4,152.7,150,152.7
		C1289.8,1330.8,1355.6,1262.4,1355.6,1175.5z M1421.4,1401.9c-21.1-26.3-57.9-31.6-84.2-10.5c-26.3,21.1-31.6,60.5-10.5,89.5
		c21.1,26.3,57.9,31.6,84.2,10.5S1442.5,1430.9,1421.4,1401.9z M1582,1588.8c-26.3-34.2-76.3-42.1-107.9-13.2
		c-34.2,26.3-42.1,79-15.8,115.8c26.3,34.2,76.3,42.1,110.6,13.2C1603,1675.7,1608.3,1625.6,1582,1588.8z M1787.3,1812.5
		c-36.8-47.4-102.7-55.3-150-18.4c-47.4,39.5-55.3,110.5-18.4,157.9c36.9,50,102.7,57.9,150,21.1
		C1816.2,1933.6,1824.1,1862.5,1787.3,1812.5z M1816.2,962.3c-13.2-42.1-57.9-65.8-100-52.6c-42.1,13.2-63.2,60.5-50,102.7
		c13.2,44.7,57.9,68.4,100,52.6C1805.7,1051.8,1829.4,1004.5,1816.2,962.3z M2124.2,857.1c-18.4-57.9-79-92.1-136.9-71.1
		c-55.3,18.4-86.9,81.6-68.4,142.1c18.4,57.9,79,89.5,136.9,71.1C2055.8,999.2,2149.9,962,2124.2,857.1z"/>
</g>
</svg>
