<?xml version="1.0" encoding="UTF-8" standalone="no"?>
<svg
   xmlns:dc="http://purl.org/dc/elements/1.1/"
   xmlns:cc="http://creativecommons.org/ns#"
   xmlns:rdf="http://www.w3.org/1999/02/22-rdf-syntax-ns#"
   xmlns:svg="http://www.w3.org/2000/svg"
   xmlns="http://www.w3.org/2000/svg"
   version="1.1"
   id="svg8"
   x="0px"
   y="0px"
   viewBox="0 0 2267.7 2267.7"
   style="enable-background:new 0 0 2267.7 2267.7;"
   xml:space="preserve"><metadata
   id="metadata10"><rdf:RDF><cc:Work
       rdf:about=""><dc:format>image/svg+xml</dc:format><dc:type
         rdf:resource="http://purl.org/dc/dcmitype/StillImage" /><dc:title></dc:title></cc:Work></rdf:RDF></metadata><defs
   id="defs8" />
<style
   type="text/css"
   id="style2">
	.st0{fill:none;stroke:#000000;stroke-miterlimit:10;}
</style>

<g
   id="layer1"
   transform="translate(-62.867708,88.132292)">
	<path
   id="path3713"
   style="fill:none"
   d="m 1188.2539,-69.476562 c -10.3139,0.09549 -20.6996,0.302986 -30.9629,0.628906 -20.9278,0.709037 -41.7802,1.973781 -62.6131,3.84058 -27.0684,2.40499 -54.0605,5.811799 -80.9374,10.18629 -24.81071,4.037647 -49.6539,8.975899 -74.14694,14.709262 -34.29555,8.027673 -68.2265,17.700818 -101.58748,28.961071 -25.73006,8.6959111 -51.18914,18.3417211 -76.25113,28.929686 -64.49955,27.239427 -126.58582,60.730978 -184.86148,99.756927 -76.07101,50.92356 -145.8733,111.34777 -207.17155,179.39196 -21.66286,24.02643 -42.29404,49.04352 -61.7727,74.83555 -42.58999,56.41459 -79.78469,116.99286 -110.87808,180.52612 -6.44498,13.17331 -12.60005,26.40728 -18.52436,39.82618 -16.87185,38.22353 -31.59498,77.52059 -44.05157,117.45038 -4.26617,13.68601 -8.32168,27.64086 -12.06001,41.51941 -8.65895,32.06922 -15.82877,64.4646 -21.58057,97.19648 -3.619006,20.55927 -6.648562,41.25539 -9.120283,62.01708 -0.977629,8.29421 -1.888733,16.72983 -2.684172,25.04198 -2.221368,22.93825 -3.706839,45.91138 -4.523576,68.974 -0.861147,24.6071 -0.933566,49.3573 -0.218005,73.962 0.555254,18.8659 1.562448,37.6635 3.046097,56.4535 2.136171,27.0976 5.251411,54.1174 9.348221,81.0382 4.691548,30.8797 10.695818,61.644 17.976298,92.0511 4.31364,18.0441 9.11702,36.0381 14.33251,53.8713 2.36144,8.0219 4.82663,16.1198 7.37362,24.1261 12.59191,39.5813 27.41974,78.52 44.39965,116.4618 10.15138,22.7031 21.12776,45.1642 32.77751,67.1289 14.41365,27.1487 29.97797,53.7354 46.57227,79.5762 12.52909,19.4959 25.62201,38.5409 39.34193,57.2181 12.13926,16.5246 24.73977,32.711 37.81222,48.5897 41.8766,50.8617 88.35307,98.0365 138.61407,140.7113 21.97762,18.6983 44.8384,36.5934 68.23219,53.5152 24.38409,17.6338 49.49448,34.2629 75.23005,49.8583 37.43486,22.6588 76.29654,43.1696 116.19411,61.2436 27.99452,12.6879 56.57022,24.219 85.49144,34.5239 21.60952,7.6873 43.42083,14.6914 65.43445,21.0121 12.08195,3.4641 24.33834,6.7645 36.5391,9.8186 48.65123,12.1883 98.06737,21.0468 147.93297,26.5608 14.6778,1.6176 29.3023,2.9523 44.0306,3.9941 39.2637,2.8045 78.7711,3.5202 118.187,2.2287 8.2679,-0.2779 16.7066,-0.6593 24.9605,-1.1065 16.0913,-0.8984 32.2358,-2.1379 48.2298,-3.7089 20.5245,-2.0313 41.0344,-4.6284 61.3907,-7.7813 32.972,-5.1133 65.7191,-11.7119 98.1133,-19.78 54.4303,-13.529 107.9449,-31.2934 159.7565,-52.9737 6.7955,-2.8468 13.6774,-5.8079 20.4174,-8.7939 17.2029,-7.6107 34.2519,-15.6748 50.99,-24.1202 29.8622,-15.0648 59.0345,-31.4949 87.422,-49.1818 15.9752,-9.9684 31.7926,-20.394 47.2785,-31.1798 27.4479,-19.1137 54.1122,-39.5352 79.7698,-61.0584 14.336,-12.0472 28.474,-24.5189 42.2257,-37.298 9.1849,-8.5211 18.3083,-17.3021 27.1975,-26.1274 36.5197,-36.2869 70.5409,-75.0892 101.7218,-116.0551 17.6964,-23.2812 34.5643,-47.2972 50.4111,-71.9441 27.8715,-43.2817 52.7995,-88.6438 74.4134,-135.434 13.9521,-30.1892 26.5352,-60.9956 37.7114,-92.3402 4.9057,-13.7492 9.5728,-27.6936 13.92,-41.6134 6.7992,-21.7231 12.9121,-43.6909 18.3625,-65.8148 5.9754,-24.3336 11.1658,-48.9832 15.4854,-73.7116 3.2284,-18.445 6.0017,-37.1361 8.2992,-55.7353 2.5432,-20.6178 4.514,-41.3842 5.8989,-62.0888 2.372,-35.3874 3.0697,-70.882 2.1199,-106.3744 -0.3147,-11.9352 -0.8401,-23.97788 -1.5202,-35.91286 -1.4598,-25.09158 -3.7433,-50.07745 -6.8644,-75.01743 -5.4222,-43.37316 -13.406,-86.46175 -23.8909,-128.96679 -5.5293,-22.40638 -11.7972,-44.77448 -18.7158,-66.78848 -12.5487,-39.95586 -27.3875,-79.21205 -44.4008,-117.51484 -18.5452,-41.72195 -39.6957,-82.3951 -63.2789,-121.53578 -21.335,-35.43525 -44.7453,-69.79933 -69.9444,-102.67668 -31.5985,-41.25217 -66.2305,-80.40271 -103.3621,-116.85849 -17.3648,-17.05589 -35.2961,-33.53353 -53.738,-49.41819 -36.617,-31.51018 -75.3782,-60.71651 -115.8293,-87.21144 C 1754.9658,77.560907 1699.254,47.488017 1641.3809,22.392578 1603.6438,6.0264667 1564.9434,-8.247476 1525.5686,-20.32786 c -47.6036,-14.60648 -96.2066,-25.979554 -145.3627,-34.092718 -18.5258,-3.060927 -37.2301,-5.652459 -55.8643,-7.776015 -20.7423,-2.35539 -41.4905,-4.145355 -62.3091,-5.355013 -24.5299,-1.423926 -49.173,-2.041425 -73.7786,-1.924956 z m -2.8477,215.048832 c 18.1118,-0.0578 36.2275,0.22971 54.3182,1.13045 66.6163,3.24167 132.8653,13.95743 197.0942,31.93414 55.6614,15.56288 109.7896,36.58542 161.3931,62.60938 56.9491,28.69509 110.8189,63.48787 160.443,103.53507 63.1527,50.945 119.4563,110.37802 166.8415,176.24738 38.1499,52.99545 70.5418,110.13761 96.35,170.12107 31.3,72.70875 52.8526,149.60735 63.8649,227.99509 16.7724,119.11855 9.4943,241.62885 -21.7353,357.81565 -20.782,77.4396 -52.0818,152.0437 -92.7128,221.1667 -39.144,66.6547 -86.8831,128.249 -141.639,182.8068 -51.2247,51.0643 -108.5572,96.0026 -170.4353,133.4602 -73.0192,44.2221 -152.3624,78.0126 -234.9143,99.776 -58.692,15.5069 -118.9701,24.9736 -179.5848,28.2732 -94.6441,5.178 -190.1229,-4.5866 -281.66609,-29.2027 -81.20526,-21.7963 -159.28859,-55.1696 -231.20553,-98.7295 -72.22155,-43.7 -138.2693,-97.5658 -195.62924,-159.4903 -59.69425,-64.4189 -110.02422,-137.5274 -148.66629,-216.4063 -27.16992,-55.4115 -48.61171,-113.636 -63.77697,-173.4612 -16.34673,-64.4351 -25.44734,-130.6993 -27.12894,-197.1536 -0.27686,-10.4173 -0.35782,-20.8389 -0.32162,-31.2596 3.32718,-1.6822 6.58653,-4.0022 10.45313,-4.0918 8.32157,0.1132 16.64543,0.024 24.96797,0.053 149.58619,0 299.17239,0 448.75859,0 0,-127.50003 0,-255.00003 0,-382.50003 134.30859,0.008 268.61719,0.017 402.92579,0.0254 0,-168.22005 0,-336.4401 0,-504.66015 0.6686,0.002 1.3372,0.004 2.0058,0.006 z" /><path
   style="fill:none"
   d="m 1028.3184,1018.791 v 114.041 h 104.2148 c 47.8887,-52.1133 31.9629,-76.9365 0,-114.0117 -34.0712,-0.024 -68.1417,-0.023 -102.2129,-0.029 v 0 z"
   transform="translate(62.867708,-88.132292)"
   id="path1492" />
<path
   id="path3713-3"
   style="fill:none;stroke:#000000;stroke-width:0.0977904"
   d="m 1201.0378,728.18671 c -112.7395,0.0122 -225.50186,6.2e-4 -338.25019,0.004 -1.43921,-10e-6 -2.87842,-2e-5 -4.31763,-3e-5 0,276.67712 0,553.35422 0,830.03132 49.79215,0 99.5843,0 149.37642,0 0,-101.0916 0,-202.1832 0,-303.2748 74.6118,0 149.2237,0.01 223.8355,-0.017 4.606,-0.06 9.1544,-0.2212 13.7742,-0.4966 10.8481,-0.636 21.7257,-1.8706 32.5088,-3.8319 12.446,-2.2498 25.0241,-5.554 37.0843,-9.9319 9.0655,-3.2874 17.926,-7.197 26.4615,-11.7716 0.9209,-0.5 1.9854,-1.0657 2.8878,-1.5752 4.5109,-2.5012 8.921,-5.1964 13.2364,-8.0457 0.9459,-0.6464 2.0918,-1.3984 3.1008,-2.1082 13.9825,-9.6496 26.7286,-21.1954 38.0022,-34.114 1.147,-1.2931 2.169,-2.5044 3.3008,-3.8391 10.271,-12.2163 19.3418,-25.5208 27.0371,-39.6372 5.3028,-9.7487 10.0592,-20.0143 14.0852,-30.4737 4.1279,-10.6741 7.5986,-21.7405 10.4322,-32.9055 1.8819,-7.4147 3.5329,-15.0882 4.8919,-22.7024 3.3276,-18.5875 5.1172,-37.4527 5.7277,-56.34249 0.3031,-9.50971 0.3074,-19.15567 0.027,-28.71478 -0.4625,-15.37155 -1.787,-30.88078 -4.1523,-46.12647 -3.8261,-24.6268 -10.5578,-48.99002 -21.1038,-71.49283 -3.8989,-8.35822 -8.4531,-16.67654 -13.4942,-24.498 -14.7077,-22.94435 -34.0938,-42.59416 -56.4256,-57.44731 -5.8837,-3.92901 -12.2955,-7.73711 -18.6133,-11.03392 -4.5015,-2.36399 -9.1831,-4.59328 -13.7686,-6.60694 -3.4442,-1.50867 -6.9452,-2.93796 -10.5042,-4.28986 -5.1494,-1.97118 -10.5545,-3.8126 -15.8996,-5.44052 -4.3761,-1.34249 -8.8282,-2.56565 -13.2103,-3.6543 -20.167,-5.02715 -40.8148,-7.79154 -61.5087,-8.97385 -2.6953,-0.14977 -5.5751,-0.2896 -8.2493,-0.39117 -8.7539,-0.31333 -17.5139,-0.3 -26.2719,-0.29838 z m -191.4347,127.11561 c 56.3577,0.005 112.7156,-0.004 169.0732,0.0336 18.9211,0.26648 37.9715,2.1628 56.1858,7.72152 14.5542,4.4379 28.6258,11.42633 40.0084,21.99012 6.9132,6.40099 13.2485,13.53391 18.3943,21.5538 8.1465,12.54137 13.7058,26.77498 17.0371,41.47508 4.2933,18.65907 5.3104,37.98525 4.5126,57.10626 -0.912,19.6875 -4.4406,39.48 -12.393,57.4731 -6.3948,14.4298 -15.7673,27.5076 -27.6522,37.5429 -12.0539,10.2859 -26.3323,17.5131 -41.2438,22.089 -16.5695,5.1445 -33.879,7.2847 -51.126,7.7632 -11.0679,0.2592 -22.1392,0.059 -33.2086,0.1237 -47.1265,0 -94.253,0 -141.3794,0 0,-91.6242 0,-183.24823 0,-274.87232 0.5971,0 1.1943,0 1.7916,0 z" /></g>
</svg>
