<?xml version="1.0" encoding="utf-8"?>
<!-- Generator: Adobe Illustrator 22.1.0, SVG Export Plug-In . SVG Version: 6.00 Build 0)  -->
<svg version="1.1"
	 id="svg8" inkscape:version="0.92.4 (5da689c313, 2019-01-14)" sodipodi:docname="en-peligro-en.svg" xmlns:cc="http://creativecommons.org/ns#" xmlns:dc="http://purl.org/dc/elements/1.1/" xmlns:inkscape="http://www.inkscape.org/namespaces/inkscape" xmlns:rdf="http://www.w3.org/1999/02/22-rdf-syntax-ns#" xmlns:sodipodi="http://sodipodi.sourceforge.net/DTD/sodipodi-0.dtd" xmlns:svg="http://www.w3.org/2000/svg"
	 xmlns="http://www.w3.org/2000/svg" xmlns:xlink="http://www.w3.org/1999/xlink" x="0px" y="0px" viewBox="0 0 2267.7 2267.7"
	 style="enable-background:new 0 0 2267.7 2267.7;" xml:space="preserve">
<style type="text/css">
	.st0{fill:none;stroke:#000000;stroke-width:0.2646;}
</style>
<sodipodi:namedview  bordercolor="#666666" borderopacity="1.0" id="base" inkscape:current-layer="layer1" inkscape:cx="1188.0825" inkscape:cy="940.52369" inkscape:document-units="mm" inkscape:pageopacity="0.0" inkscape:pageshadow="2" inkscape:window-height="962" inkscape:window-maximized="1" inkscape:window-width="1280" inkscape:window-x="-8" inkscape:window-y="-8" inkscape:zoom="0.1400905" pagecolor="#ffffff" showgrid="false">
	</sodipodi:namedview>
<path class="st0" d="M2234.2,12.6H1064.9v2.2C476.9,50,11,537.7,11,1134.4c0,619.6,502.2,1121.9,1121.8,1121.9
	c619.6,0,1121.8-502.3,1121.8-1121.9V33C2254.6,21.7,2245.4,12.6,2234.2,12.6z M937.8,889.8H665v164.7h253.9v130.2H665v193.4h272.9
	v131.3H506v-750h431.9V889.8z M1759.6,1509.4h-202.1l-326.2-567.4h-4.6c6.5,100.2,9.8,171.7,9.8,214.4v352.9h-142.1v-750h200.5
	l325.7,561.7h3.6c-5.1-97.4-7.7-166.3-7.7-206.7v-355h143.1V1509.4z"/>
</svg>
