<?xml version="1.0" encoding="UTF-8" standalone="no"?>
<svg
   xmlns:dc="http://purl.org/dc/elements/1.1/"
   xmlns:cc="http://creativecommons.org/ns#"
   xmlns:rdf="http://www.w3.org/1999/02/22-rdf-syntax-ns#"
   xmlns:svg="http://www.w3.org/2000/svg"
   xmlns="http://www.w3.org/2000/svg"
   version="1.1"
   id="svg8"
   x="0px"
   y="0px"
   viewBox="0 0 2267.7 2267.7"
   style="enable-background:new 0 0 2267.7 2267.7;"
   xml:space="preserve"><metadata
   id="metadata10"><rdf:RDF><cc:Work
       rdf:about=""><dc:format>image/svg+xml</dc:format><dc:type
         rdf:resource="http://purl.org/dc/dcmitype/StillImage" /><dc:title></dc:title></cc:Work></rdf:RDF></metadata><defs
   id="defs8">
	
</defs>
<style
   type="text/css"
   id="style2">
	.st0{fill:none;stroke:#000000;stroke-miterlimit:10;}
</style>

<path
   id="path3713"
   style="fill:none"
   d="m 1125.3862,18.65573 c -10.3139,0.09549 -20.6996,0.302986 -30.9629,0.628906 -20.9278,0.709037 -41.7802,1.973781 -62.6131,3.84058 -27.0684,2.40499 -54.06051,5.811799 -80.93741,10.18629 -24.81071,4.037647 -49.6539,8.975899 -74.14694,14.709262 -34.29555,8.027673 -68.2265,17.700818 -101.58748,28.961071 -25.73006,8.695911 -51.18914,18.341721 -76.25113,28.929691 -64.49955,27.23942 -126.58582,60.73097 -184.86148,99.75692 -76.07101,50.92356 -145.8733,111.34777 -207.17155,179.39196 -21.66286,24.02643 -42.29404,49.04352 -61.7727,74.83555 -42.58999,56.41459 -79.78469,116.99286 -110.87808,180.52612 -6.44498,13.17331 -12.60005,26.40728 -18.52436,39.82618 -16.871848,38.22353 -31.594978,77.52059 -44.051568,117.45038 -4.26617,13.68601 -8.32168,27.64086 -12.06001,41.51941 -8.65895,32.06922 -15.82877,64.4646 -21.58057,97.19648 -3.619006,20.55927 -6.648562,41.25539 -9.120283,62.01708 -0.977629,8.29419 -1.888733,16.72979 -2.684172,25.04199 -2.221368,22.9382 -3.706839,45.9114 -4.523576,68.974 -0.861147,24.6071 -0.933566,49.3573 -0.218005,73.962 0.555254,18.8659 1.562448,37.6635 3.046097,56.4535 2.136171,27.0976 5.251411,54.1174 9.348221,81.0382 4.691548,30.8797 10.695818,61.644 17.976298,92.0511 4.31364,18.0441 9.11702,36.0381 14.33251,53.8713 2.36144,8.0219 4.82663,16.1198 7.37362,24.1261 12.59191,39.5813 27.419738,78.52 44.399648,116.4618 10.15138,22.7031 21.12776,45.1642 32.77751,67.1289 14.41365,27.1487 29.97797,53.7354 46.57227,79.5762 12.52909,19.4959 25.62201,38.5409 39.34193,57.2181 12.13926,16.5246 24.73977,32.711 37.81222,48.5897 41.8766,50.8617 88.35307,98.0365 138.61407,140.7113 21.97762,18.6983 44.8384,36.5934 68.23219,53.5152 24.38409,17.6338 49.49448,34.2629 75.23005,49.8583 37.43486,22.6588 76.29654,43.1696 116.19411,61.2436 27.99452,12.6879 56.57022,24.219 85.49144,34.5239 21.60952,7.6873 43.42083,14.6914 65.43445,21.0121 12.08195,3.4641 24.33834,6.7645 36.5391,9.8186 48.65123,12.1883 98.06737,21.0468 147.93298,26.5608 14.6778,1.6176 29.3023,2.9523 44.0306,3.9941 39.2637,2.8045 78.7711,3.5202 118.187,2.2287 8.2679,-0.2779 16.7066,-0.6593 24.9605,-1.1065 16.0913,-0.8984 32.2358,-2.1379 48.2298,-3.7089 20.5245,-2.0313 41.0344,-4.6284 61.3907,-7.7813 32.972,-5.1133 65.7191,-11.7119 98.1133,-19.78 54.4303,-13.529 107.9449,-31.2934 159.7565,-52.9737 6.7955,-2.8468 13.6774,-5.8079 20.4174,-8.7939 17.2029,-7.6107 34.2519,-15.6748 50.99,-24.1202 29.8622,-15.0648 59.0345,-31.4949 87.422,-49.1818 15.9752,-9.9684 31.7926,-20.394 47.2785,-31.1798 27.4479,-19.1137 54.1122,-39.5352 79.7698,-61.0584 14.336,-12.0472 28.474,-24.5189 42.2257,-37.298 9.1849,-8.5211 18.3083,-17.3021 27.1975,-26.1274 36.5197,-36.2869 70.5409,-75.0892 101.7218,-116.0551 17.6964,-23.2812 34.5643,-47.2972 50.4111,-71.9441 27.8715,-43.2817 52.7995,-88.6438 74.4134,-135.434 13.9521,-30.1892 26.5352,-60.9956 37.7114,-92.3402 4.9057,-13.7492 9.5728,-27.6936 13.92,-41.6134 6.7992,-21.7231 12.9121,-43.6909 18.3625,-65.8148 5.9754,-24.3336 11.1658,-48.9832 15.4854,-73.7116 3.2284,-18.445 6.0017,-37.1361 8.2992,-55.7353 2.5432,-20.6178 4.514,-41.3842 5.8989,-62.0888 2.372,-35.3874 3.0697,-70.882 2.1199,-106.3744 -0.3147,-11.9352 -0.8401,-23.9779 -1.5202,-35.9129 -1.4598,-25.0915 -3.7433,-50.0774 -6.8644,-75.0174 -5.4222,-43.37316 -13.406,-86.46175 -23.8909,-128.96679 -5.5293,-22.40638 -11.7972,-44.77448 -18.7158,-66.78848 -12.5487,-39.95586 -27.3875,-79.21205 -44.4008,-117.51484 -18.5452,-41.72195 -39.6957,-82.3951 -63.2789,-121.53578 -21.335,-35.43525 -44.7453,-69.79933 -69.9444,-102.67668 -31.5985,-41.25217 -66.2305,-80.40271 -103.3621,-116.85849 -17.3648,-17.05589 -35.2961,-33.53353 -53.738,-49.41819 -36.617,-31.51018 -75.3782,-60.71651 -115.8293,-87.21144 -52.7596,-34.57531 -108.4714,-64.6482 -166.3445,-89.74364 -37.7371,-16.366111 -76.4375,-30.640054 -115.8123,-42.720438 -47.6036,-14.60648 -96.2066,-25.979554 -145.3627,-34.092718 -18.5258,-3.060927 -37.2301,-5.652459 -55.8643,-7.776015 -20.7423,-2.35539 -41.4905,-4.145355 -62.3091,-5.355013 -24.5299,-1.423926 -49.173,-2.041425 -73.7786,-1.924956 z m -2.8477,215.04883 c 18.1118,-0.0578 36.2275,0.22971 54.3182,1.13045 66.6163,3.24167 132.8653,13.95743 197.0942,31.93414 55.6614,15.56288 109.7896,36.58542 161.3931,62.60938 56.9491,28.69509 110.8189,63.48787 160.443,103.53507 63.1527,50.945 119.4563,110.37802 166.8415,176.24738 38.1499,52.99545 70.5418,110.13761 96.35,170.12107 31.3,72.70875 52.8526,149.60735 63.8649,227.99505 16.7724,119.1186 9.4943,241.6289 -21.7353,357.8157 -20.782,77.4396 -52.0818,152.0437 -92.7128,221.1667 -39.144,66.6547 -86.8831,128.249 -141.639,182.8068 -51.2247,51.0643 -108.5572,96.0026 -170.4353,133.4602 -73.0192,44.2221 -152.3624,78.0126 -234.9143,99.776 -58.692,15.5069 -118.9701,24.9736 -179.5848,28.2732 -94.6441,5.178 -190.12291,-4.5866 -281.6661,-29.2027 -81.20526,-21.7963 -159.28859,-55.1696 -231.20553,-98.7295 -72.22155,-43.7 -138.2693,-97.5658 -195.62924,-159.4903 -59.69425,-64.4189 -110.02422,-137.5274 -148.66629,-216.4063 -27.16992,-55.4115 -48.61171,-113.636 -63.77697,-173.4612 -16.34673,-64.4351 -25.44734,-130.6993 -27.12894,-197.1536 -0.27686,-10.4173 -0.35782,-20.8389 -0.32162,-31.2596 3.32718,-1.6822 6.58653,-4.0022 10.45313,-4.0918 8.32157,0.1132 16.64543,0.024 24.96797,0.053 l 617.94039,-0.3504 -2.09573,-343.58673 c 134.30863,0.008 99.4354,0.36733 233.74403,0.37573 l 2.0957,-543.57339 2.0058,0.006 z" /><path
   id="path3713-3"
   style="fill:none;stroke:#000000;stroke-width:0.109583"
   d="m 1434.5946,884.62631 c -136.8984,-0.005 -273.7968,-0.009 -410.6951,-0.0131 0,327.96989 0,655.93989 0,983.90989 73.726,0 147.452,0 221.178,0 0,-113.2813 0,-226.5628 0,-339.8441 76.4738,-0.019 152.9477,0.036 229.4212,-0.1385 35.0883,-0.9515 70.2492,-6.9426 103.0262,-19.7265 35.5095,-13.7652 67.6957,-35.8882 93.4915,-63.8848 12.0569,-13.0293 22.9553,-27.1306 32.4705,-42.1183 14.4447,-22.6892 25.792,-47.3127 33.9644,-72.929 13.9966,-43.4823 19.3507,-89.3626 19.2527,-134.9236 -0.083,-39.9489 -4.5118,-80.142 -16.162,-118.4571 -8.1915,-26.9038 -20.0521,-52.7855 -36.0116,-75.9869 -16.8908,-24.65852 -38.3293,-46.17288 -62.8914,-63.20069 -17.4853,-12.15948 -36.527,-22.02742 -56.4228,-29.603 -37.6148,-14.43164 -77.8566,-21.02244 -117.9977,-22.60954 -10.868,-0.44454 -21.7477,-0.53115 -32.6239,-0.47473 z m -121.9535,196.22519 c 34.3563,0.047 68.7329,-0.093 103.0952,0.2143 6.8823,0.2451 13.6268,0.6995 20.4556,1.5126 5.9439,0.7009 12.1767,1.7279 17.9932,3.0377 3.8727,0.8752 7.7226,1.8883 11.4441,3.0654 10.4355,3.2824 20.7359,7.9842 29.3935,14.8896 6.616,5.2921 12.4652,11.5251 17.5136,18.321 9.6658,13.2114 15.5986,28.8243 18.9432,44.7628 1.4883,7.0501 2.4917,14.1968 3.1515,21.3702 0.065,0.8782 0.1708,2.0043 0.234,2.927 0.6647,8.9625 0.8044,17.8578 0.5008,26.8594 -0.089,2.5249 -0.2145,5.3199 -0.3871,7.8115 -0.6927,10.1861 -2.149,20.3362 -4.6484,30.2413 -0.1894,0.6961 -0.4405,1.7029 -0.6419,2.4327 -2.2792,8.3888 -5.434,16.7712 -9.6553,24.4873 -5.2217,9.6319 -12.2312,18.4799 -20.7149,25.5694 -12.1245,10.1461 -26.8574,16.7766 -42.0783,20.7449 -4.4292,1.1631 -8.9121,2.1167 -13.4225,2.9064 -0.961,0.1578 -2.2375,0.3783 -3.325,0.5397 -10.4665,1.6052 -21.1195,2.2782 -31.6397,2.4478 -12.1426,0.1076 -24.2866,0.034 -36.4298,0.068 -42.4616,0.012 -84.9232,0.015 -127.3848,0.016 0,-84.7429 0,-169.4857 0,-254.2287 22.5343,10e-4 45.0686,0 67.603,0 z" />
</svg>
