<?xml version="1.0" encoding="UTF-8" standalone="no"?>
<svg
   xmlns:dc="http://purl.org/dc/elements/1.1/"
   xmlns:cc="http://creativecommons.org/ns#"
   xmlns:rdf="http://www.w3.org/1999/02/22-rdf-syntax-ns#"
   xmlns:svg="http://www.w3.org/2000/svg"
   xmlns="http://www.w3.org/2000/svg"
   version="1.1"
   id="Capa_1"
   x="0px"
   y="0px"
   viewBox="0 0 2267.7 2267.7"
   xml:space="preserve"
   width="2267.7"
   height="2267.7"><metadata
   id="metadata41"><rdf:RDF><cc:Work
       rdf:about=""><dc:format>image/svg+xml</dc:format><dc:type
         rdf:resource="http://purl.org/dc/dcmitype/StillImage" /><dc:title></dc:title></cc:Work></rdf:RDF></metadata><defs
   id="defs39" />
<style
   type="text/css"
   id="style28">
	.st0{fill:#1D1D1B;}
</style>
<path
   id="path32"
   style="stroke-width:5.72433;fill:none"
   d="M 709.37891 0 C 316.93849 2.2911847 -2.2765635 325.9212 0.01171875 718.85938 L 9.1660156 2267.6992 L 1556.0449 2258.5352 C 1948.4853 2256.244 2267.7004 1932.6139 2265.4121 1539.6758 L 2267.6992 2.2910156 L 709.37891 0 z M 1220.8105 631.2207 C 1443.346 630.0751 1578.9261 761.24521 1580.0703 951.98633 L 1580.0703 954.85156 C 1581.7865 1170.7957 1414.7431 1283.6356 1205.3652 1284.7812 L 1049.1895 1285.9277 L 1050.9062 1566.0254 L 845.5332 1567.1699 L 839.8125 633.51172 L 1220.8105 631.2207 z " /><path
   style="stroke-width:5.72433;fill:none"
   d="m 1205.3649,816.23453 -158.4635,1.14559 1.7162,285.25248 162.468,-1.1456 c 102.4007,-0.5728 162.4681,-62.4348 161.896,-142.62623 v -2.86398 c -0.5721,-91.64739 -65.216,-140.33506 -167.6167,-139.76226 z"
   id="path30" />
</svg>
