<?xml version="1.0" encoding="utf-8"?>
<!-- Generator: Adobe Illustrator 22.1.0, SVG Export Plug-In . SVG Version: 6.00 Build 0)  -->
<svg version="1.1"
	 id="svg8" inkscape:version="0.92.4 (5da689c313, 2019-01-14)" sodipodi:docname="en-peligro-critico-cr-evaluacion-conabio.svg" xmlns:cc="http://creativecommons.org/ns#" xmlns:dc="http://purl.org/dc/elements/1.1/" xmlns:inkscape="http://www.inkscape.org/namespaces/inkscape" xmlns:rdf="http://www.w3.org/1999/02/22-rdf-syntax-ns#" xmlns:sodipodi="http://sodipodi.sourceforge.net/DTD/sodipodi-0.dtd" xmlns:svg="http://www.w3.org/2000/svg"
	 xmlns="http://www.w3.org/2000/svg" xmlns:xlink="http://www.w3.org/1999/xlink" x="0px" y="0px" viewBox="0 0 2267.7 2267.7"
	 style="enable-background:new 0 0 2267.7 2267.7;" xml:space="preserve">
<style type="text/css">
	.st0{fill:none;stroke:#000000;stroke-width:0.2646;}
</style>
<sodipodi:namedview  bordercolor="#666666" borderopacity="1.0" id="base" inkscape:current-layer="layer1" inkscape:cx="2000.3142" inkscape:cy="2003.0735" inkscape:document-units="mm" inkscape:pageopacity="0.0" inkscape:pageshadow="2" inkscape:window-height="962" inkscape:window-maximized="1" inkscape:window-width="1280" inkscape:window-x="-8" inkscape:window-y="-8" inkscape:zoom="0.14369886" pagecolor="#ffffff" showgrid="false">
	</sodipodi:namedview>
<path class="st0" d="M1508.2,1001.6c0,32.4-10.8,56.2-32.4,71.4c-21.6,15.1-55.1,22.7-100.6,22.7h-46.3V912.6h43.5
	c46.3,0,80.6,6.8,102.7,20.4C1497.2,946.6,1508.2,969.4,1508.2,1001.6z M1915.3,1666.1h1.9c-298.7,354-778.6,594.5-778.6,594.5
	S658.7,2020,360,1666.1h1.6C215,1490.6,126.7,1264.6,126.7,1018c0-558.7,453-1011.7,1011.8-1011.7c558.8,0,1011.7,453,1011.7,1011.7
	C2150.2,1264.6,2061.9,1490.6,1915.3,1666.1z M698.2,1135.5c0-72.6,14.8-129.2,44.5-169.8c29.7-40.6,71.5-60.9,125.6-60.9
	c24.7,0,49.9,4.5,75.5,13.4c25.6,9,51.1,19.5,76.5,31.5l46.3-116.8c-66.5-31.8-132.5-47.7-198.3-47.7c-64.6,0-120.9,14.1-168.9,42.4
	c-48,28.3-84.9,68.9-110.5,121.9c-25.6,53-38.4,114.7-38.4,185.1c0,111.8,26.1,197.6,78.3,257.4c52.2,59.8,127.6,89.7,226.1,89.7
	c68.6,0,130.7-11.6,186.3-34.8v-120.5c-67.6,23.8-125.3,35.7-172.9,35.7C754.9,1362.1,698.2,1286.5,698.2,1135.5z M1726.5,1472.4
	c-30.9-44.5-97.3-142.9-199.3-295.2c40.1-17.6,71.2-42,93.1-73c21.9-31.1,32.9-66.5,32.9-106.4c0-68.3-22.1-119.2-66.3-152.7
	c-44.2-33.5-112.3-50.3-204.4-50.3h-197.4v677.5h143.7v-260h76.5l161.7,260H1726.5z"/>
</svg>
