<?xml version="1.0" encoding="UTF-8" standalone="no"?>
<svg
   xmlns:dc="http://purl.org/dc/elements/1.1/"
   xmlns:cc="http://creativecommons.org/ns#"
   xmlns:rdf="http://www.w3.org/1999/02/22-rdf-syntax-ns#"
   xmlns:svg="http://www.w3.org/2000/svg"
   xmlns="http://www.w3.org/2000/svg"
   version="1.1"
   id="svg8"
   x="0px"
   y="0px"
   viewBox="0 0 2267.7 2267.7"
   style="enable-background:new 0 0 2267.7 2267.7;"
   xml:space="preserve"><metadata
   id="metadata10"><rdf:RDF><cc:Work
       rdf:about=""><dc:format>image/svg+xml</dc:format><dc:type
         rdf:resource="http://purl.org/dc/dcmitype/StillImage" /><dc:title></dc:title></cc:Work></rdf:RDF></metadata><defs
   id="defs8" />
<style
   type="text/css"
   id="style2">
	.st0{fill:none;stroke:#000000;stroke-width:0.2646;}
</style>


<g
   id="layer1"
   transform="matrix(0.49017993,0,0,0.49017993,-66.931825,-148.07871)"
   style="fill:none"><path
     id="path3713"
     class="st0"
     d="m 356.18066,1204.6707 c 91.5694,-74.2606 243.9991,-108.8783 448.3553,-108.8783 195.98114,0 335.01034,34.6177 426.57984,104.4116 87.1026,65.327 135.1208,183.1389 135.1208,356.7859 v 295.9256 H 465.05896 v 200.4479 c 0,96.0363 34.6177,161.3632 99.9447,200.4477 65.3271,43.5514 165.2718,60.8602 295.9258,60.8602 126.1871,0 274.15004,-21.7756 448.35534,-69.7938 v 191.5142 c -165.2717,39.0845 -331.10184,56.3934 -483.53144,56.3934 -409.2709,0 -618.0939,-135.1208 -618.0939,-409.2708 v -527.0829 c 0,-164.7133 52.4849,-282.5252 148.5212,-351.7607 z m 108.8783,482.9732 H 1118.329 v -208.8232 c 0,-78.1689 -26.2425,-135.1207 -78.1691,-165.2716 -52.48494,-30.7093 -130.65404,-48.0181 -247.90754,-48.0181 -108.8784,0 -195.981,17.3088 -247.9076,48.0181 -52.485,26.2424 -78.1691,82.6359 -78.1691,165.2716 v 208.8232 z m 2220.55964,783.9239 h -252.3744 v -970.9714 c 0,-30.7092 0,-56.3934 -4.4668,-82.6358 -4.4669,-21.7756 -17.3089,-43.5513 -34.6178,-65.327 -17.3089,-26.2424 -48.0181,-43.5513 -87.1026,-56.3934 -43.5514,-8.9335 -91.5695,-17.3088 -156.8965,-17.3088 -143.496,0 -243.9991,12.842 -291.4589,43.5513 -48.0181,30.7093 -78.169,91.5694 -78.169,178.6722 v 966.5044 H 1532.625 V 1126.5017 h 247.9076 v 165.2717 c 30.7092,-126.1872 178.6721,-191.5142 443.8885,-191.5142 174.2053,0 295.9258,30.7093 361.2527,96.0363 65.327,65.327 99.9448,156.8965 99.9448,287.5505 v 983.8133 z m 487.4399,-1350.0913 c 52.4848,-4.4667 99.9446,-8.9335 143.496,-12.8421 39.0845,-4.4667 96.0363,-4.4667 165.2717,-4.4667 130.6539,0 252.3744,12.8421 383.0283,39.0845 v 183.139 c -143.496,-34.6178 -283.0836,-56.3934 -413.7376,-56.3934 -135.1208,0 -226.6902,17.3089 -269.6832,52.4849 -39.0846,30.7093 -60.8603,99.9447 -60.8603,208.8231 v 544.3915 c 0,96.0363 26.2426,165.2718 74.2607,195.981 43.5513,30.7093 143.4961,48.0182 287.5504,48.0182 130.654,0 265.7748,-17.3089 400.3373,-52.4849 v 187.0473 c -117.812,26.2425 -265.7748,39.0846 -426.5797,39.0846 -78.1691,0 -143.4961,0 -191.5142,-4.4668 -43.5514,0 -96.0363,-8.9337 -152.4297,-26.2425 -60.8601,-12.8421 -104.4115,-39.0845 -135.1208,-69.7938 -30.7092,-30.7093 -56.3933,-69.7938 -78.169,-126.1872 -21.7757,-56.3935 -34.6178,-126.1872 -34.6178,-208.823 v -496.3735 c 0,-69.7939 4.4669,-135.1208 17.3089,-187.0474 17.3089,-52.485 34.6177,-96.0363 65.327,-130.654 30.7093,-34.6178 60.8602,-60.8602 91.5695,-78.1691 30.1509,-22.334 73.7022,-35.1761 134.5625,-44.1097 z m 814.0748,-217.75656 h 252.3744 V 642.41196 h -252.3744 z m 0,1563.38106 h 252.3744 V 1125.9433 h -252.3744 z m 731.4389,-1345.6245 c 52.485,-4.4667 104.4116,-8.9335 143.4961,-12.8421 43.5513,-4.4667 99.9447,-4.4667 169.7385,-4.4667 126.1872,0 252.3744,12.8421 383.0284,39.0845 v 183.139 c -143.4961,-34.6178 -287.5505,-56.3934 -413.7377,-56.3934 -139.5876,0 -230.5987,17.3089 -269.6832,52.4849 -43.5513,30.7093 -60.8602,99.9447 -60.8602,208.8231 v 544.3915 c 0,96.0363 26.2425,165.2718 69.7938,195.981 48.0182,30.7093 147.9629,48.0182 291.4589,48.0182 126.1872,0 265.7748,-17.3089 400.3373,-52.4849 v 187.0473 c -121.7204,26.2425 -265.7748,39.0846 -426.5797,39.0846 -82.6359,0 -147.9629,0 -191.5142,-4.4668 -43.5514,0 -99.9447,-8.9337 -156.8965,-26.2425 -56.3934,-12.8421 -99.9447,-39.0845 -130.654,-69.7938 -30.7092,-30.7093 -56.3934,-69.7938 -82.6358,-126.1872 -21.7757,-56.3935 -30.7093,-126.1872 -30.7093,-208.823 v -496.3735 c 0,-69.7939 0,-135.1208 17.3089,-187.0474 12.842,-52.485 34.6176,-96.0363 65.327,-130.654 30.7092,-34.6178 60.8601,-60.8602 91.5694,-78.1691 31.2676,-22.334 70.3522,-35.1761 131.2123,-44.1097 z m 818.5417,1345.6245 h 247.9076 V 529.62517 h -247.9076 z m 1423.7936,-4.4668 c -56.3934,17.3088 -113.3452,26.2425 -165.2718,30.7093 -52.4849,4.4667 -121.7203,4.4667 -208.823,4.4667 -108.8784,0 -195.981,-4.4667 -256.8412,-12.842 -60.8602,-4.4668 -126.1872,-21.7757 -187.0474,-52.485 -60.8602,-26.2424 -104.4115,-74.2605 -130.654,-135.1207 -26.2425,-65.3271 -43.5513,-147.9628 -43.5513,-252.3744 v -465.6643 c 0,-87.1026 8.9336,-165.2717 30.7092,-226.6902 17.3089,-60.8602 48.0182,-104.4115 74.2606,-139.5876 30.7093,-34.6177 74.2607,-56.3934 135.1208,-74.2606 56.3934,-17.3089 113.3452,-26.2424 161.3634,-30.7092 52.4849,-4.4669 121.7204,-4.4669 208.823,-4.4669 87.1026,0 161.3632,0 208.823,4.4669 52.485,4.4668 104.4116,8.9336 165.2718,30.7092 56.3934,17.3088 99.9446,39.0845 130.654,74.2606 30.7092,34.6177 56.3934,78.1691 78.169,139.5876 17.3089,60.8602 30.7093,139.5876 30.7093,226.6902 v 465.6643 c 0,78.169 -12.8421,152.4296 -30.7093,208.823 -21.7756,56.3935 -48.0181,104.4116 -78.169,135.1208 -31.2676,30.151 -74.819,56.3934 -122.8371,73.7023 z m -17.3088,-383.0285 v -544.3915 c 0,-121.7204 -26.2426,-195.981 -74.2607,-226.6903 -52.4849,-30.7093 -147.9628,-43.5514 -291.4589,-43.5514 -143.496,0 -235.0655,12.8421 -287.5505,43.5514 -48.0181,26.2425 -74.2606,104.4115 -74.2606,226.6903 v 544.3915 c 0,56.3935 4.4668,104.4117 17.3089,139.5877 12.842,34.6177 39.0845,60.8602 74.2606,78.1691 34.6177,12.8421 65.3271,26.2424 104.4115,30.7092 39.0845,4.4668 91.5695,4.4668 165.2717,4.4668 69.7938,0 121.7204,0 161.3633,-4.4668 34.6177,-4.4668 74.2606,-17.3089 104.4116,-30.7092 34.6177,-17.3089 60.8601,-43.5514 74.2605,-78.1691 12.8421,-34.6178 17.3089,-78.169 17.3089,-139.5877 z m 2891.1382,-74.2605 c -30.7092,0 -60.8602,-17.3089 -82.6359,-48.0181 -12.842,-26.2425 -404.8039,-661.6452 -1067.0076,-661.6452 -156.8964,0 -322.1681,39.0845 -483.5314,113.3451 l -48.0181,17.3089 43.5514,26.2425 c 30.7092,17.3088 78.169,48.018 126.1872,87.1026 269.6832,226.6902 426.5796,496.3735 461.7557,792.2992 l 4.4668,17.3088 c 12.8421,43.5514 -12.842,96.0363 -56.3934,108.8783 -52.4849,17.3089 -104.4115,-8.9335 -121.7204,-56.3933 -8.9336,-12.8421 -8.9336,-26.2425 -12.842,-48.0182 -8.9337,-91.5694 -43.5514,-378.5615 -396.4288,-675.0456 -48.0181,-39.0845 -104.4115,-69.7937 -143.4961,-96.0362 l -17.3088,-12.8421 c -8.9336,-4.4668 -12.8421,-8.9336 -21.7757,-12.842 -48.0181,-30.7094 -74.2606,-87.1027 -69.7938,-143.4961 4.4668,-48.0182 26.2425,-117.8119 82.6359,-147.9628 222.2234,-113.3452 439.9801,-169.7386 653.27,-169.7386 766.0567,0 1227.8124,744.2811 1232.2792,753.2147 26.2425,43.5513 8.9337,99.9447 -34.6177,126.1872 -17.8672,8.3752 -31.2676,12.842 -48.5765,30.1509 z m 2251.2691,374.6531 c -21.776,48.0181 -74.261,74.2606 -121.721,56.3934 -48.018,-17.3088 -69.793,-65.327 -56.393,-113.3451 v -12.842 c 30.709,-295.9258 187.047,-566.1674 461.756,-792.2993 43.551,-39.0846 91.569,-69.7937 126.187,-87.1026 l 39.084,-26.2425 -43.551,-21.7757 c -165.272,-69.7938 -326.635,-108.8783 -487.44,-108.8783 -96.036,0 -200.447,17.3089 -295.925,48.0181 -34.618,8.9336 -65.327,4.4669 -121.721,-21.7756 l -34.618,-17.3089 v 39.0845 c 0,43.5513 -17.309,69.7938 -56.393,91.5695 -352.878,187.0474 -552.767,518.1492 -552.767,522.6159 -12.842,26.2425 -43.551,43.5514 -78.169,43.5514 -17.309,0 -34.618,-4.4668 -48.018,-12.8421 -48.018,-26.2425 -60.86,-82.6358 -34.618,-130.654 4.467,-8.9336 195.981,-326.6349 544.392,-544.3916 l 21.775,-12.842 -17.308,-34.6178 c -34.618,-78.1691 -56.394,-130.654 -39.085,-187.0474 8.934,-26.2424 26.243,-43.5513 56.393,-56.3933 65.327,-30.70926 135.121,17.3088 239.533,78.169 v 4.4668 c 26.242,12.8421 56.393,34.6178 82.635,43.5514 l 4.467,4.4667 12.842,-4.4667 c 313.235,-87.1027 644.337,-39.0846 975.438,130.6539 60.861,26.2425 78.17,96.0363 82.637,143.496 4.466,60.8603 -21.776,113.3452 -65.328,139.5877 -12.841,4.4668 -26.242,12.842 -34.618,21.7757 h -8.933 c -43.551,30.7092 -99.944,60.8601 -143.496,99.9446 -352.878,295.9258 -387.495,579.0094 -400.337,670.5789 -6.7,25.1258 -6.7,34.0594 -6.7,46.9014 z M 8955.3351,1526.839 c 0,-48.0183 -39.0846,-82.636 -82.6359,-82.636 -43.5513,0 -82.6359,34.6177 -82.6359,82.636 0,43.5512 39.0846,82.6357 82.6359,82.6357 43.5513,0 78.169,-35.176 82.6359,-82.6357 z m 2978.2409,0 c 0,-48.0183 -39.084,-82.636 -82.636,-82.636 -48.018,0 -87.102,34.6177 -87.102,82.636 0,43.5512 39.084,82.6357 87.102,82.6357 43.552,0 82.636,-35.176 82.636,-82.6357 z"
     style="fill:none;stroke-width:5.5835" /></g></svg>
