<?xml version="1.0" encoding="UTF-8" standalone="no"?>
<svg
   xmlns:dc="http://purl.org/dc/elements/1.1/"
   xmlns:cc="http://creativecommons.org/ns#"
   xmlns:rdf="http://www.w3.org/1999/02/22-rdf-syntax-ns#"
   xmlns:svg="http://www.w3.org/2000/svg"
   xmlns="http://www.w3.org/2000/svg"
   version="1.1"
   id="svg8"
   x="0px"
   y="0px"
   viewBox="0 0 27498.569 2025.4532"
   xml:space="preserve"
   width="27498.568"
   height="2025.4531"><metadata
   id="metadata10"><rdf:RDF><cc:Work
       rdf:about=""><dc:format>image/svg+xml</dc:format><dc:type
         rdf:resource="http://purl.org/dc/dcmitype/StillImage" /><dc:title></dc:title></cc:Work></rdf:RDF></metadata><defs
   id="defs8" />
     <path
   id="path84"
   style="fill:none"
   d="m 22948.619,0 v 1548.3731 h 117.135 v -137.877 h 21.963 c 45.145,45.1456 90.292,90.2908 157.4,115.9141 67.109,21.9627 135.438,45.1465 206.207,45.1465 157.399,0 247.69,-70.7694 341.641,-161.0606 67.109,-90.2913 112.256,-228.1675 112.256,-408.75 0,-180.58251 -19.523,-318.46071 -112.256,-408.75196 -92.731,-90.29126 -206.205,-135.43555 -341.641,-135.43555 -161.061,0 -273.314,45.14445 -341.642,157.39844 V 0 Z m 480.743,569.8125 c 90.291,0 180.58,45.14552 225.726,112.2539 45.145,67.10836 67.109,183.02207 67.109,318.4589 0,135.437 -21.964,251.3507 -67.109,318.4591 -45.146,67.1083 -135.435,112.2539 -225.726,112.2539 -115.915,0 -206.208,-21.9625 -251.354,-90.291 -45.146,-67.1083 -67.107,-180.5825 -67.107,-341.64265 0,-154.95928 21.961,-270.87262 67.107,-339.20114 45.146,-67.10836 135.439,-90.29101 251.354,-90.29101 z" /><path
   id="path80"
   style="fill:none"
   d="m 22154.301,431.93359 c -161.059,0 -273.314,70.76929 -363.605,161.06055 -90.291,90.29125 -135.438,228.16945 -135.438,408.75196 0,112.254 0,206.2048 45.147,296.4961 45.146,90.2913 135.436,154.9591 202.544,202.545 67.109,47.586 161.061,70.7695 251.352,70.7695 157.4,0 273.314,-70.7694 363.605,-161.0606 90.291,-90.2913 135.438,-225.7271 135.438,-408.75 0,-157.39962 -45.147,-318.46071 -135.438,-408.75196 -90.291,-112.254 -206.205,-161.06055 -363.605,-161.06055 z m 0,139.09766 c 112.254,0 206.206,45.14554 251.352,112.2539 67.108,67.10837 90.291,183.02406 90.291,318.46095 0,135.4369 -45.146,251.3506 -90.291,318.459 -70.769,67.1084 -137.877,112.2539 -251.352,112.2539 -112.253,0 -206.206,-45.1455 -251.352,-112.2539 -67.108,-67.1084 -90.291,-183.0221 -90.291,-318.459 0,-135.43689 23.183,-251.35258 90.291,-318.46095 67.109,-67.10836 137.878,-112.2539 251.352,-112.2539 z" /><path
   id="path74"
   style="fill:none"
   d="m 20951.231,435.5957 c -115.914,0 -228.167,25.6221 -296.496,92.73047 -70.768,67.10836 -115.914,157.40085 -115.914,270.875 0,70.76882 19.52,137.87588 45.144,183.02148 25.623,45.14565 70.768,90.29125 137.877,112.25385 -45.146,21.9628 -67.107,47.5869 -90.289,92.7325 -21.963,45.1457 -21.965,67.1081 -21.965,112.2538 0,21.9628 0,67.1082 21.965,90.2911 21.962,45.1456 45.144,45.1447 67.107,67.1075 -90.291,0 -137.877,25.6241 -183.023,92.7324 -45.146,67.1084 -67.107,112.2534 -67.107,180.582 0,89.0711 45.143,183.0236 135.435,204.9864 70.768,67.1083 183.022,90.291 318.459,90.291 206.206,0 344.084,-21.9624 434.375,-90.291 90.292,-67.1084 135.438,-161.0605 135.438,-273.3145 0,-90.2912 -45.145,-161.0597 -90.291,-228.168 -67.108,-45.1456 -161.061,-67.1093 -273.315,-67.1093 h -206.207 c -67.108,0 -112.252,21.9628 -135.435,0 -23.182,-21.9627 -45.147,-45.1448 -45.147,-67.1075 0,-45.1457 45.147,-90.2918 112.256,-135.4375 h 90.291 c 115.915,0 228.167,-25.6221 296.496,-92.7304 68.329,-67.1085 115.914,-135.43745 115.914,-247.69149 0,-47.58593 0,-92.73132 -21.963,-137.87695 0,-45.14563 -25.623,-67.10813 -47.586,-90.29102 l 206.207,-21.96289 v -112.2539 h -364.826 c -45.146,-25.6232 -90.291,-25.62305 -157.4,-25.62305 z m -1.219,135.43555 c 157.4,0 247.689,92.73179 247.689,251.35156 0,158.61984 -90.289,225.72859 -247.689,225.72859 -70.769,0 -137.877,-21.9618 -183.023,-67.10745 -45.145,-45.1457 -67.11,-112.25465 -67.11,-183.02348 -1.22,-69.54867 21.965,-137.87711 67.11,-159.83985 45.146,-45.14562 112.254,-67.10937 183.023,-67.10937 z m -115.914,955.37895 h 206.205 c 90.291,0 157.399,21.9636 202.545,45.1465 21.963,21.9627 45.144,45.1456 45.144,112.2539 0,67.1085 -21.962,109.8144 -90.291,157.4004 -68.328,47.586 -180.581,70.7676 -318.459,70.7676 -90.291,0 -157.398,-21.9617 -202.545,-45.1446 -45.145,-25.6232 -67.109,-70.7685 -67.109,-137.8769 -1.22,-67.1084 21.964,-112.2548 43.926,-157.4004 45.146,-21.9628 112.255,-45.1465 180.584,-45.1465 z" /><path
   id="path68"
   style="fill:none"
   d="m 19244.239,431.93359 c -161.061,0 -273.314,70.76929 -363.606,161.06055 -92.731,90.29125 -137.877,228.16945 -137.877,408.75196 -1.22,112.254 21.963,206.2048 67.108,296.4961 47.586,90.2913 115.915,154.9591 183.023,202.545 67.109,47.586 157.4,70.7695 251.352,70.7695 157.399,0 270.873,-70.7694 363.605,-161.0606 90.291,-90.2913 135.437,-225.7271 135.437,-408.75 0,-157.39962 -45.146,-318.46071 -135.437,-408.75196 -92.732,-112.254 -206.206,-161.06055 -363.605,-161.06055 z m 0,139.09766 c 112.254,0 202.546,45.14554 247.691,112.2539 70.769,67.10837 92.73,183.02406 92.73,318.46095 0,135.4369 -45.144,251.3506 -92.73,318.459 -67.108,67.1084 -132.997,112.2539 -247.691,112.2539 -114.695,0 -206.206,-45.1455 -251.352,-112.2539 -67.108,-67.1084 -90.291,-183.0221 -90.291,-318.459 0,-135.43689 45.146,-251.35258 90.291,-318.46095 67.109,-67.10836 135.437,-112.2539 251.352,-112.2539 z" /><path
   id="path60"
   style="fill:none"
   d="m 17034.543,0 v 1548.3731 h 117.135 v -137.877 h 21.963 c 45.146,45.1456 90.29,90.2908 157.398,115.9141 67.108,21.9627 137.878,45.1465 206.207,45.1465 157.399,0 251.352,-70.7694 341.643,-161.0606 67.109,-90.2913 112.254,-228.1675 112.254,-408.75 0,-180.58251 -21.962,-318.46071 -112.254,-408.75196 -90.291,-90.29126 -206.206,-135.43555 -341.643,-135.43555 -161.06,0 -273.313,45.14445 -341.642,157.39844 V 0 Z m 503.922,569.8125 c 90.291,0 178.143,45.14552 225.729,112.2539 47.586,67.10836 70.769,183.02207 70.769,318.4589 0,135.437 -47.586,251.3507 -92.732,318.4591 -45.145,67.1083 -135.438,112.2539 -225.729,112.2539 -115.914,0 -206.204,-21.9625 -251.349,-90.291 -45.146,-68.3285 -67.11,-180.5825 -67.11,-341.64265 -1.221,-154.95928 20.743,-270.87262 89.072,-339.20114 45.145,-67.10836 137.876,-90.29101 251.35,-90.29101 z" /><path
   id="path56"
   style="fill:none"
   d="m 16284.149,433.15429 c -45.145,0 -112.253,-1.5e-4 -180.582,25.62305 -67.108,21.96273 -137.878,45.14664 -183.024,67.10938 l 45.147,135.43554 c 115.914,-67.10837 225.728,-90.29101 318.459,-90.29101 92.732,0 137.878,21.96375 183.023,67.10937 21.963,21.96274 45.147,90.28992 45.147,183.02149 v 90.29294 h -183.024 c -341.642,0 -522.224,112.25395 -522.224,341.64265 25.206,210.6004 204.3,317.0362 388.007,318.459 90.292,0 157.399,-21.9637 206.205,-45.1465 45.146,-25.6233 112.255,-70.7688 157.401,-137.877 l 21.963,161.0606 h 112.254 V 796.75976 c 0,-112.25399 -45.145,-202.54452 -112.254,-270.87304 -67.108,-67.10836 -157.4,-92.73243 -296.498,-92.73243 z m 95.172,568.59171 h 157.4 v 90.2911 c 0,115.9145 -21.963,206.2058 -90.291,251.3515 -67.109,67.1084 -137.877,90.291 -251.352,90.291 -67.108,0 -135.435,-21.9637 -157.398,-45.1465 -21.963,-21.9628 -47.588,-67.1069 -47.588,-135.4355 -1.22,-90.2912 24.404,-139.0985 92.732,-184.2441 67.109,-45.1457 157.4,-67.1075 296.497,-67.1075 z" /><path
   id="path50"
   style="fill:none"
   d="m 13827.983,431.93359 c -157.399,0 -270.874,70.76929 -363.606,161.06055 -90.291,90.29125 -135.435,228.16945 -135.435,408.75196 1.22,112.254 23.182,206.2048 68.328,296.4961 45.145,90.2913 115.913,154.9591 183.021,202.545 67.109,47.586 157.401,70.7695 247.692,70.7695 161.06,0 273.313,-70.7694 363.605,-161.0606 92.731,-90.2913 137.877,-225.7271 137.877,-408.75 0,-157.39962 -45.146,-318.46071 -137.877,-408.75196 -90.292,-112.254 -202.545,-161.06055 -363.605,-161.06055 z m 23.183,139.09766 c 115.915,0 206.206,45.14554 251.352,112.2539 67.108,67.10837 90.291,183.02406 90.291,318.46095 0,135.4369 -45.146,251.3506 -90.291,318.459 -67.109,67.1084 -137.878,112.2539 -251.352,112.2539 -112.254,0 -202.545,-45.1455 -247.691,-112.2539 -70.769,-67.1084 -92.731,-183.0221 -92.731,-318.459 -1.22,-135.43689 21.962,-251.35258 92.731,-318.46095 67.109,-67.10836 135.437,-112.2539 247.691,-112.2539 z" /><path
   id="path44"
   style="fill:none"
   d="m 11395,92.73242 c -180.583,0 -341.642,47.58554 -453.896,115.91406 -112.254,67.10836 -228.169,180.58181 -296.498,318.45899 -67.108,135.43689 -112.254,270.87553 -112.254,453.89848 0,226.94825 41.487,409.96925 180.584,545.40625 137.877,135.4367 318.459,202.5469 569.81,202.5469 161.06,0 296.497,-45.1474 431.934,-90.293 v -137.8769 c -135.437,70.7689 -296.497,92.7324 -431.934,92.7324 -202.545,0 -341.642,-45.1462 -453.896,-161.0606 -115.914,-112.2541 -161.061,-270.8742 -161.061,-477.08005 0,-135.4369 21.964,-273.313 92.733,-386.78716 45.145,-112.25399 132.994,-183.02305 247.689,-251.35156 115.914,-67.10837 228.169,-90.29101 386.789,-90.29101 115.914,0 206.207,21.96179 363.606,67.10742 92.732,45.14563 161.059,112.25532 206.205,206.20703 45.146,90.29126 67.107,206.20499 67.107,318.45898 0,112.254 -21.961,200.10435 -67.107,270.87315 -45.146,70.7689 -90.292,115.916 -157.401,115.916 -92.731,0 -137.877,-70.7695 -137.877,-183.0236 v -21.9629 l 21.963,-477.07999 c -45.146,0 -90.289,-21.96289 -157.398,-21.96289 -67.108,-21.96274 -115.915,-21.96289 -161.061,-21.96289 -135.437,0 -247.691,45.14625 -318.459,135.4375 -67.109,90.29126 -112.254,206.20568 -112.254,341.64262 0,112.25405 42.705,206.20605 90.291,273.31445 47.586,67.1083 137.877,90.291 228.168,90.291 67.109,0 137.878,0 183.024,-45.1445 45.146,-45.1457 90.291,-67.1102 112.254,-137.8789 0,70.7688 67.108,115.9161 90.291,137.8789 21.963,21.9627 67.109,45.1445 137.877,45.1445 67.109,0 135.436,-21.9617 180.582,-67.1074 45.146,-45.1457 90.291,-115.9151 112.254,-183.0235 21.963,-67.1084 45.146,-157.40015 45.146,-247.69139 0,-137.87718 -21.964,-273.31407 -90.293,-389.22852 -45.145,-112.254 -135.435,-180.58304 -247.689,-247.6914 C 11668.315,118.35452 11532.877,92.73242 11395,92.73242 Z m -23.183,500.26172 c 70.769,0 115.915,1.6e-4 161.06,21.96289 l -21.963,273.31442 c -21.962,202.54535 -92.731,318.45905 -228.168,318.45905 -135.437,0 -202.545,-92.7317 -202.545,-251.35155 -1.22,-111.03386 43.925,-204.98543 89.071,-272.0938 45.145,-67.10836 112.254,-90.29101 202.545,-90.29101 z" /><path
   id="path40"
   style="fill:none"
   d="m 9847.8477,433.15429 c -45.146,0 -112.2535,-1.5e-4 -180.582,25.62305 -70.7688,21.96273 -137.8779,45.14664 -183.0235,67.10938 l 45.1446,135.43554 c 112.254,-67.10837 228.1699,-90.29101 318.4609,-90.29101 90.2911,0 135.4351,21.96375 183.0213,67.10937 21.963,21.96274 45.147,90.28992 45.147,183.02149 v 90.29294 h -183.0242 c -341.6421,0 -522.2242,112.25395 -522.2242,341.64265 2.4403,90.2914 24.404,180.5809 114.6953,225.7265 45.1457,70.7689 135.4351,92.7325 251.3496,92.7325 90.2917,0 157.4003,-21.9637 202.5453,-45.1465 45.146,-25.6233 115.9142,-70.7688 161.0602,-137.877 l 21.963,161.0606 h 112.254 V 796.75976 c 0,-112.25399 -21.962,-202.54452 -90.291,-270.87304 -67.108,-67.10836 -161.0592,-92.73243 -296.4963,-92.73243 z m 69.5491,568.59171 h 161.0582 v 90.2911 c 0,115.9145 -21.961,206.2058 -92.7302,251.3515 -67.108,67.1084 -135.438,90.291 -247.6916,90.291 -67.1083,0 -137.8775,-21.9637 -161.0605,-45.1465 -21.9627,-21.9628 -45.1445,-67.1069 -45.1445,-135.4355 -1.2201,-90.2912 43.9247,-139.0985 89.0703,-184.2441 70.7688,-45.1457 161.0613,-67.1075 296.4983,-67.1075 z" /><path
   id="path36"
   style="fill:none"
   d="m 8938.834,0 v 569.8125 h -21.9629 c -67.1084,-112.254 -183.0228,-161.06055 -341.6425,-161.06055 -157.3997,0 -270.8738,70.76929 -341.6426,161.06055 -67.1083,112.254 -112.2539,251.35109 -112.2539,431.9336 -1.2202,183.0229 43.9252,318.4594 137.8769,431.9336 90.2913,92.7316 202.5456,137.877 337.9824,137.877 161.0602,0 273.3141,-45.1461 341.6426,-161.0606 l 25.6231,137.877 h 135.4375 V 0 Z m -341.6426,571.03125 c 115.9145,0 206.206,21.96249 251.3516,90.29101 45.1456,68.32852 67.1074,183.02277 67.1074,341.64254 v 45.1466 c 0,137.8772 -21.9618,228.1675 -67.1074,296.4961 -45.1456,68.3285 -135.4371,90.2929 -251.3516,90.2929 -90.2912,0 -180.5828,-45.1455 -225.7285,-112.2539 -45.1456,-67.1083 -67.1074,-183.0239 -67.1074,-318.4609 0,-137.87724 21.9618,-253.79208 67.1074,-320.90045 45.1457,-67.10836 135.4373,-112.2539 225.7285,-112.2539 z" /><path
   id="path26"
   style="fill:none"
   d="m 5893.334,431.93359 c -161.0601,0 -273.3142,70.76929 -363.6054,161.06055 -90.2912,90.29125 -137.877,228.16945 -137.877,408.75196 -1.2202,112.254 20.7427,206.2048 69.5488,296.4961 45.1457,90.2913 112.2536,157.3994 180.5821,202.545 67.1083,47.586 161.0602,70.7695 251.3515,70.7695 157.3996,0 273.3143,-70.7694 363.6055,-161.0606 90.2912,-90.2913 135.4375,-225.7271 135.4375,-408.75 0,-157.39962 -45.1463,-318.46071 -135.4375,-408.75196 -90.2912,-112.254 -206.2059,-161.06055 -363.6055,-161.06055 z m 0,139.09766 c 112.2539,0 202.5455,45.14554 251.3516,112.2539 67.1084,67.10837 90.291,183.02406 90.291,318.46095 0,135.4369 -45.1454,251.3506 -90.291,318.459 -70.7688,67.1084 -137.8775,112.2539 -251.3516,112.2539 -115.9145,0 -206.2059,-45.1455 -251.3515,-112.2539 -67.1084,-67.1084 -90.2911,-183.0221 -90.2911,-318.459 0,-135.43689 45.1455,-251.35258 90.2911,-318.46095 67.1083,-67.10836 135.437,-112.2539 251.3515,-112.2539 z" /><path
   id="path3713"
   style="fill:none"
   d="m 477.07813,411.1914 c -135.436,0 -247.69058,47.58641 -341.64258,161.06055 C 45.14455,684.50595 0,823.60304 0,1004.1856 c 1.221,180.5826 42.70425,290.3961 136.65625,406.3105 92.732,115.9145 228.16852,161.0606 389.22852,161.0606 67.108,0 135.43798,-21.9629 180.58398,-21.9629 67.10703,0 112.2526,-21.9627 161.0586,-47.5859 v -157.4004 c -115.91403,45.1456 -228.16858,67.1093 -341.64258,67.1093 -92.732,0 -206.20556,-21.9625 -251.35156,-90.291 -45.145,-68.3286 -90.29102,-157.4007 -90.29102,-296.498 H 911.45317 V 912.67385 c 0,-161.06009 -21.964,-273.31423 -115.91606,-363.60549 C 728.42908,458.77711 612.51613,411.1914 477.07813,411.1914 Z m 0,158.6211 c 92.732,0 161.06103,21.96179 206.20703,67.10742 45.145,67.10836 67.10742,135.43707 67.10742,251.35153 H 183.02149 c 1.22,-92.73157 46.36672,-159.83942 91.51172,-228.16794 45.146,-67.10836 109.81392,-90.29101 202.54492,-90.29101 z" /><path
   style="fill:none"
   d="m 26703.029,1571.5567 318.46,-456.3369 296.496,456.3369 h 180.583 l -408.751,-569.8112 386.788,-544.18779 h -180.582 l -296.497,408.75096 -296.497,-408.75096 h -183.023 l 386.788,522.22514 -408.751,569.81105 z"
   id="path92" /><path
   style="fill:none"
   d="m 24745.904,1526.4111 h 161.061 V 956.59995 c 0,-135.4369 21.962,-228.16847 67.108,-296.49699 45.146,-68.32851 112.254,-90.29125 228.168,-90.29125 90.292,0 157.4,21.96274 180.583,67.10837 23.183,45.14563 45.145,112.25399 45.145,206.2057 v 705.24802 h 161.061 V 933.41705 c 0,-112.254 21.962,-206.20572 67.108,-273.31409 45.146,-67.10836 112.254,-90.29125 228.168,-90.29125 90.292,0 157.4,21.96274 180.583,67.10837 23.183,45.14563 45.145,112.25399 45.145,206.2057 v 705.24802 h 161.061 V 843.12578 c 0,-137.87719 -21.963,-228.16845 -92.732,-296.49696 -45.146,-67.10837 -157.399,-90.29126 -270.874,-90.29126 -70.769,0 -161.059,0 -206.205,45.14563 -45.146,45.14563 -112.254,90.29126 -135.437,135.43689 -70.769,-112.254 -161.06,-180.58252 -341.643,-180.58252 -70.769,0 -115.914,21.96274 -183.022,45.14563 -67.109,21.96274 -112.255,67.10836 -135.438,112.25399 l -21.962,-157.39962 h -137.878 V 1548.3738 Z"
   id="path90" /><path
   style="fill:none"
   d="m 24292.008,1570.3365 c 85.518,-3.9734 112.216,-76.8861 112.254,-137.8771 4.62,-76.3999 -48.675,-134.2126 -112.254,-135.437 -83.989,4.4274 -112.216,75.2583 -112.254,135.4369 1.783,47.331 15.896,137.7647 112.254,137.8772 z"
   id="path88" /><path
   style="fill:none"
   d="m 20128.849,1570.3365 c 83.606,-4.6739 115.869,-76.5649 115.914,-137.8771 3.571,-76.4046 -52.601,-134.2177 -115.914,-135.437 -83.989,4.4274 -112.216,75.2583 -112.254,135.4369 -3.593,91.7358 15.896,137.7647 112.254,137.8772 z"
   id="path72" /><path
   style="fill:none"
   d="M 18446.259,1548.3738 V 456.33756 h -157.4 V 1548.3738 Z"
   id="path66" /><path
   style="fill:none"
   d="m 18354.748,273.31474 c 74.446,1.0481 89.037,-57.72997 89.071,-112.25399 1.792,-68.14011 -19.747,-114.60628 -89.071,-114.69431 -75.319,-1.12891 -89.036,59.09131 -89.071,114.69431 4.734,62.21534 26.621,112.17469 89.071,112.25399 z"
   id="path64" /><path
   style="fill:none"
   d="M 14807.765,1548.3738 V 978.56265 c 0,-157.3996 45.146,-251.35132 90.292,-318.45969 45.145,-67.10836 137.877,-90.29125 251.351,-90.29125 67.108,0 137.877,21.96274 183.023,67.10837 45.146,45.14563 67.108,112.25399 67.108,206.2057 v 705.24802 h 157.4 V 843.12578 c 0,-161.06007 -67.109,-228.16845 -135.437,-296.49696 -68.329,-68.32852 -161.06,-90.29126 -296.497,-90.29126 -67.108,0 -161.06,21.96274 -206.206,45.14563 -45.145,21.96274 -112.254,67.10836 -135.437,112.25399 L 14761.4,456.33756 h -135.437 V 1548.3738 Z"
   id="path54" /><path
   style="fill:none"
   d="m 12534.622,1410.4966 c 90.291,90.2912 202.545,137.8772 363.605,137.8772 112.254,0 202.546,-21.9627 270.874,-70.7688 v -135.4371 c -90.291,45.1457 -180.582,67.1084 -270.874,67.1084 -115.914,0 -206.205,-45.1456 -251.351,-112.2539 -67.108,-90.2913 -90.291,-183.0228 -90.291,-318.45975 0,-296.49694 112.254,-431.93383 341.642,-431.93383 21.963,0 67.109,0 112.254,21.96273 45.146,21.96274 67.109,21.96274 112.254,45.14563 l 45.146,-135.43688 c -21.963,-21.96274 -67.108,-25.6232 -112.254,-47.58594 -45.146,-21.96273 -112.254,-21.96273 -157.4,-21.96273 -183.022,0 -296.497,70.76882 -386.788,161.06008 -92.731,112.254 -137.877,251.35134 -137.877,431.93379 0,183.023 21.963,318.4598 161.06,408.7511 z"
   id="path48" /><path
   style="fill:none"
   d="M 7824.835,1548.3738 V 456.33756 H 7667.4353 V 1548.3738 Z"
   id="path34" /><path
   style="fill:none"
   d="m 7756.5065,273.31474 c 126.2501,0.35057 91.8317,-228.31205 0,-226.9483 -107.9974,-0.55248 -133.8087,226.7784 0,226.9483 z"
   id="path32" /><path
   style="fill:none"
   d="m 6893.8589,1548.3738 h 202.5453 L 7505.1551,456.33756 h -180.5825 c -137.8772,363.60534 -228.1684,612.51644 -273.3141,727.21074 -45.1456,112.254 -67.1084,180.5825 -67.1084,225.7281 0,-45.1456 -45.1456,-135.4368 -90.2912,-296.4969 L 6665.6904,455.1174 h -183.0228 z"
   id="path30" /><path
   style="fill:none"
   d="M 5096.5748,1548.3738 V 6.7e-4 h -161.06 V 1548.3738 Z"
   id="path24" /><path
   style="fill:none"
   d="m 4050.9044,1433.6795 c 90.2913,92.7316 202.5453,137.8772 363.6054,137.8772 112.254,0 202.5452,-21.9628 270.8737,-70.7689 V 1365.351 c -90.2912,45.1456 -180.5824,67.1084 -270.8737,67.1084 -115.9145,0 -183.0228,-21.9628 -251.3514,-112.2541 -67.1084,-90.2912 -90.2912,-183.0228 -90.2912,-318.4597 0,-296.49701 112.2539,-431.93389 341.6426,-431.93389 21.9627,0 67.1083,0 112.254,21.96274 45.1456,21.96273 67.1084,21.96273 112.254,45.14563 l 45.1456,-157.39963 c -21.9627,-21.96274 -67.1084,-25.62319 -112.254,-47.58593 -45.1456,-21.96275 -112.254,-21.96275 -157.3996,-21.96275 -183.0228,0 -292.8365,47.58594 -386.7882,161.06009 -92.7316,112.25399 -137.8772,251.35133 -137.8772,431.93394 0,181.8027 70.7688,336.762 161.06,430.7137 z"
   id="path22" /><path
   style="fill:none"
   d="M 3593.3475,1548.3738 V 456.33756 H 3435.9474 V 1548.3738 Z"
   id="path20" /><path
   style="fill:none"
   d="m 3457.9101,251.352 c 21.9636,21.96274 45.1458,21.96274 67.1085,21.96274 21.9627,0 45.1458,0 67.1085,-21.96274 21.9627,-21.96273 21.9627,-45.14563 21.9627,-90.29125 0,-45.14563 0,-70.76883 -21.9627,-92.73157 -21.9627,-21.96274 -45.1458,-21.96274 -67.1085,-21.96274 -21.9627,0 -45.1449,0 -67.1085,21.96274 -21.9627,21.96274 -21.9627,47.58594 -21.9627,92.73157 0,23.18289 0,68.32852 21.9627,90.29125 z"
   id="path18" /><path
   style="fill:none"
   d="m 2569.6398,1410.4966 c 92.7315,90.2912 206.2053,137.8772 363.6054,137.8772 115.9146,0 206.2053,-21.9627 273.3138,-70.7688 v -135.4371 c -90.2907,45.1457 -180.5823,67.1084 -273.3138,67.1084 -112.2543,0 -180.5823,-21.9627 -247.6908,-112.2539 -67.1085,-90.2913 -92.7315,-183.0228 -92.7315,-318.45975 0,-296.49694 115.9146,-431.93383 341.6427,-431.93383 21.9627,0 70.7688,0 115.9137,21.96273 45.1458,21.96274 67.1085,21.96274 112.2543,45.14563 l 45.1458,-135.43688 c -21.9627,-21.96274 -67.1085,-25.6232 -112.2543,-47.58594 -45.1458,-21.96273 -112.2534,-21.96273 -161.0595,-21.96273 -180.5832,0 -296.4969,47.58593 -386.7885,161.06008 -90.292,112.254 -135.437,251.35134 -135.437,431.93379 0,183.023 64.668,318.4598 157.3997,408.7511 z"
   id="path16" /><path
   style="fill:none"
   d="M 1388.5331,1548.3738 V 978.56265 c 0,-157.3996 21.962,-251.35132 67.107,-318.45969 45.146,-67.10836 137.878,-90.29125 251.352,-90.29125 90.291,0 132.997,21.96274 180.583,67.10837 47.585,45.14563 70.768,112.25399 70.768,206.2057 v 682.06512 h 157.4 v -705.248 c 0,-137.87719 -21.963,-228.16845 -90.291,-296.49697 -67.109,-67.10837 -161.06,-92.73157 -296.497,-92.73157 -67.108,0 -137.877,25.6232 -206.206,47.58594 -67.109,21.96273 -112.254,67.10836 -157.399,135.43688 l -21.963,-157.39962 h -135.437 V 1548.3738 Z"
   id="path14" /></svg>
