<?xml version="1.0" encoding="UTF-8" standalone="no"?>
<svg
   xmlns:dc="http://purl.org/dc/elements/1.1/"
   xmlns:cc="http://creativecommons.org/ns#"
   xmlns:rdf="http://www.w3.org/1999/02/22-rdf-syntax-ns#"
   xmlns:svg="http://www.w3.org/2000/svg"
   xmlns="http://www.w3.org/2000/svg"
   version="1.1"
   id="svg8"
   x="0px"
   y="0px"
   viewBox="0 0 2267.7001 2267.6999"
   xml:space="preserve"><metadata
   id="metadata9"><rdf:RDF><cc:Work
       rdf:about=""><dc:format>image/svg+xml</dc:format><dc:type
         rdf:resource="http://purl.org/dc/dcmitype/StillImage" /><dc:title></dc:title></cc:Work></rdf:RDF></metadata><defs
   id="defs7" />

<path
   id="path157-3"
   style="fill:none;stroke-width:2.29198"
   d="m 1732.1719,636.83008 c -11.2372,0.28796 -22.4283,5.70134 -29.0544,14.88301 -7.4981,10.39643 -8.3484,25.24982 -1.7549,36.29828 7.0823,12.16679 21.5094,19.7085 35.5555,18.24389 13.3971,-1.28522 25.6652,-11.0029 29.6971,-23.88703 3.909,-12.02694 0.7912,-26.19467 -8.2465,-35.13865 -6.8092,-6.86219 -16.5251,-10.76552 -26.1968,-10.3995 z" /><path
   id="path155-6"
   style="fill:none;stroke-width:2.29198"
   d="m 509.04297,636.86719 c -13.54329,0.66549 -26.30298,9.97744 -30.83671,22.79326 -4.15279,11.20352 -1.7978,24.56269 6.0442,33.59942 6.8203,8.33425 17.52217,13.64767 28.37398,13.14622 11.39422,-0.52646 22.1136,-7.46747 27.64611,-17.38118 3.33108,-5.83284 5.48045,-12.49048 5.37398,-19.25343 -0.26305,-11.06472 -6.65252,-21.56499 -15.9164,-27.47223 -6.09225,-3.93964 -13.46557,-5.72281 -20.68516,-5.43206 z" /><path
   id="path153-7"
   style="fill:none;stroke-width:2.29198"
   d="m 1543.3809,450.94727 c -9.4485,0.25308 -18.4991,3.95834 -26.2937,9.13605 -6.8511,4.49634 -11.9935,11.47562 -14.3154,19.33033 -2.8061,9.24916 -2.8074,19.16273 -1.0593,28.61262 1.7174,9.41746 5.001,18.45924 8.5271,27.32915 2.7458,6.74933 5.6527,13.43453 8.6524,20.07498 2.182,4.70665 4.505,9.34598 6.8053,13.99538 -14.7267,9.01373 -29.2232,18.41737 -43.1817,28.58698 -49.5356,35.77429 -94.2127,78.1135 -133.5092,124.8622 -19.0319,22.68979 -37.0464,46.3022 -52.8114,71.39272 -2.4306,3.81336 -4.619,7.8242 -5.931,12.17155 -2.9805,9.31813 -2.8009,19.78363 1.3086,28.73853 3.6584,8.21068 10.4822,14.78174 18.4711,18.77919 7.3553,3.73959 15.849,5.23564 24.029,4.06971 9.1359,-1.18743 18.0617,-5.50608 23.9215,-12.73342 2.2574,-2.78861 3.7947,-6.0514 5.6171,-9.11941 0.8629,-1.44084 1.8147,-2.98864 2.765,-4.5087 4.587,-7.20407 9.445,-14.23368 14.4342,-21.16417 10.9975,-15.17532 22.7181,-29.8207 34.9263,-44.0373 12.0295,-13.94992 24.6233,-27.41313 37.7417,-40.34452 13.232,-13.02445 27.2257,-25.70107 41.6377,-37.62535 23.8185,-19.74515 49.1996,-37.65798 75.9684,-53.24707 6.1701,-3.61875 12.4438,-7.05732 18.7278,-10.47125 6.9889,-4.11799 13.4584,-9.61731 17.299,-16.8774 3.6447,-6.97322 4.5536,-14.99826 4.477,-22.76368 -0.086,-2.34497 0.1511,-5.05872 2.1073,-6.64831 2.0008,-1.77792 5.1651,-2.14196 7.4545,-0.70264 10.4392,4.87475 21.0886,9.75425 32.5486,11.62166 6.9038,1.14369 14.0522,0.88611 20.8142,-0.95406 4.6413,-1.17968 9.1211,-2.76699 13.7038,-4.01745 3.7362,-1.05609 7.5336,-2.1028 11.2278,-3.03559 5.9919,-1.53896 12.1643,-2.98062 18.2403,-4.24562 16.11,-3.36205 32.4126,-5.76457 48.8171,-7.12699 5.6506,-0.47263 11.3652,-0.82231 17.0781,-1.04101 8.1128,-0.28704 16.421,-0.31948 24.6075,-0.0831 6.1188,0.16255 12.2605,0.48591 18.4108,0.93761 5.7372,0.42083 11.6174,0.96996 17.337,1.62823 7.377,0.84014 14.7357,1.87003 22.021,3.06359 18.3618,3.00272 36.5216,7.11796 54.3288,12.08654 19.932,5.56014 39.5383,12.25598 58.7949,19.82412 4.9302,1.95524 9.9662,3.97754 14.8899,6.07313 6.1621,2.7131 12.0194,6.05255 18.1101,8.91515 -0.04,0.47491 -0.6905,0.68954 -0.9688,1.05469 -1.901,1.58787 -3.7378,3.27192 -5.8999,4.50899 -10.08,5.96487 -20.5567,11.27723 -30.2802,17.83269 -10.1901,6.8157 -19.8548,14.38834 -29.1361,22.39034 -12.369,10.47762 -24.6392,21.08652 -36.3481,32.30279 -35.1443,33.41762 -66.5512,70.96632 -91.7087,112.48685 -18.4658,30.40833 -33.4843,62.9443 -44.204,96.8815 -8.4691,26.77848 -14.3397,54.39522 -17.2918,82.32955 -0.1731,1.99056 -0.2291,4.08511 -0.3654,5.97154 -0.1126,3.10807 -1.1237,6.08537 -1.3323,9.18217 -1.0567,11.3886 3.0737,23.3293 11.526,31.1506 9.389,8.8267 23.3441,12.7416 35.8837,9.4825 12.8316,-3.299 23.7501,-12.9507 28.8814,-25.1309 -0.1337,-6.4661 1.1983,-12.8369 2.652,-19.1012 1.0762,-5.8282 1.724,-11.72346 2.7211,-17.56477 0.1289,-0.72167 0.3163,-1.75205 0.4709,-2.58864 0.7912,-4.46305 1.6572,-8.95264 2.6049,-13.32001 2.0793,-9.64761 4.5642,-19.20825 7.4437,-28.64799 1.7079,-5.59098 3.6319,-11.38304 5.6409,-16.92488 6.9534,-19.27965 15.7398,-37.99396 25.7788,-55.91544 9.0037,-16.03761 19.0953,-31.45602 30.0569,-46.22218 1.796,-2.39959 3.698,-4.92989 5.5374,-7.30177 16.4484,-21.29515 34.7051,-41.16165 54.1911,-59.70604 10.355,-9.84306 21.1228,-19.40487 32.0879,-28.62696 9.2453,-7.89566 19.363,-14.73462 29.525,-21.30967 8.1019,-5.20806 16.2124,-10.40292 24.2451,-15.71637 1.3469,-0.93599 2.8493,-1.73641 4.527,-1.78894 0.7161,-0.15009 1.6298,0.248 2.1117,-0.45811 4.2215,-4.11228 9.5244,-6.86587 14.8837,-9.18417 11.585,-7.37799 19.913,-19.33133 23.7083,-32.45397 3.4472,-11.61791 3.3081,-24.04978 1.0326,-35.87609 -1.9478,-10.3088 -5.25,-20.49903 -10.8373,-29.43729 -4.4682,-7.11458 -10.5545,-13.32183 -17.996,-17.31334 -4.5184,-2.52344 -9.3279,-4.60931 -13.8683,-6.94048 -46.4229,-23.01162 -95.3055,-41.32466 -145.868,-52.84015 -38.4471,-8.76173 -77.8525,-13.52215 -117.3037,-13.42843 -36.3975,0.0293 -72.8015,4.13206 -108.2441,12.43302 -7.4094,1.70395 -14.7573,3.6649 -22.0839,5.68967 -1.4168,0.39763 -2.8305,-0.0801 -4.144,-0.59282 -1.1009,-0.3972 -2.0909,-0.80459 -3.102,-1.24383 -9.4781,-3.94162 -18.0296,-9.69747 -26.9672,-14.67303 -1.6795,-0.83028 -2.479,-2.60999 -3.8513,-3.78592 -1.1451,-0.7697 -2.3969,-1.31318 -3.5403,-2.02553 -11.7147,-6.80721 -23.2589,-13.92164 -35.249,-20.24116 -6.8227,-3.56595 -13.7803,-6.9137 -20.9996,-9.60202 -7.2406,-2.61579 -14.8882,-4.32956 -22.6193,-4.21722 z" /><path
   id="path151-5"
   style="fill:none;stroke-width:2.29198"
   d="m 427.58398,493.85352 c -20.74799,0.30266 -41.47599,1.85147 -62.03422,4.66605 -38.80758,5.26537 -76.98331,14.85936 -113.88602,27.93291 -28.42441,10.04021 -56.16357,22.00918 -83.03261,35.67277 -3.61099,1.82734 -7.21649,3.72855 -10.38232,6.27663 -8.57829,6.72395 -14.87844,15.99503 -19.19266,25.92643 -3.71464,8.61192 -6.22633,17.75153 -7.41085,27.05624 -1.0717,8.64327 -0.71571,17.52024 1.63499,25.93369 3.67542,13.57797 11.65185,26.126 22.96759,34.58624 4.98716,3.62238 10.51859,6.41217 15.5094,10.03204 3.79954,2.71724 7.58965,5.45257 11.57329,7.89859 10.2111,6.48835 20.58636,12.72399 30.6499,19.44419 5.02951,3.36317 10.18579,6.97878 15.03276,10.65424 5.97847,4.48217 11.65457,9.34653 17.234,14.31167 21.59254,19.00923 41.93478,39.503 60.38938,61.6221 23.59948,28.27941 44.1832,59.32785 59.84827,92.74627 6.0018,12.80314 11.34565,26.08707 15.80481,39.59938 1.9142,5.80402 3.72813,11.82729 5.32154,17.7256 1.29112,4.76098 2.47502,9.57123 3.5351,14.33166 0.71899,3.23292 1.38987,6.44951 1.99112,9.65326 1.52788,8.01819 2.74189,16.17941 3.6821,24.34272 0.84078,7.0058 1.45556,14.0891 3.33343,20.9139 0.94519,3.2841 2.72776,6.2228 4.14555,9.3087 2.51807,5.3524 6.26567,10.1101 10.88897,13.8003 7.185,5.8173 16.46687,8.8606 25.68945,8.7011 7.29787,-0.1334 14.64093,-2.028 20.88307,-5.8624 6.17928,-3.7957 10.86705,-9.7129 13.8092,-16.2875 3.83069,-8.6021 4.56334,-18.6246 1.61258,-27.6036 -1.99229,-7.2139 -2.38394,-14.75382 -3.68766,-22.08436 C 465.96901,937.53743 450.40963,891.26237 428.1296,848.53658 401.18946,796.80315 364.81705,750.31923 323.04736,709.74723 311.01838,698.1348 298.71403,686.78885 285.78847,676.17574 273.17338,665.77578 259.86209,656.22769 245.9927,647.57242 c -5.72251,-3.61273 -11.55354,-7.051 -17.36379,-10.51773 -3.01898,-2.20213 -3.14253,-7.33338 -0.10264,-9.57727 1.90244,-1.43071 4.26091,-2.01775 6.36876,-3.06845 15.12394,-6.67407 30.32914,-13.20365 45.92761,-18.70095 26.97353,-9.63351 54.67101,-17.12874 82.90722,-21.94096 8.01992,-1.36662 16.30825,-2.54687 24.43144,-3.46765 1.95564,-0.23249 3.84833,-0.41381 5.8387,-0.62168 8.13989,-0.80124 16.45331,-1.39156 24.68503,-1.70894 9.31558,-0.3727 18.77747,-0.41058 28.15251,-0.11153 4.10076,0.1151 8.27634,0.31557 12.38511,0.55794 6.51392,0.39179 13.17104,0.95825 19.72266,1.66097 12.00465,1.30526 24.15169,3.14596 36.01149,5.47633 10.07471,1.97993 20.08742,4.31544 30.02213,7.01691 15.9093,4.31521 31.66537,9.59492 47.03609,15.68956 38.25498,15.14362 74.56946,35.44924 108.14257,59.34269 10.05614,7.14657 19.88404,14.61995 29.44176,22.34158 14.44191,11.67399 28.46429,24.10903 41.84342,36.98212 24.48389,23.58205 47.2328,48.96717 67.99082,75.88714 6.28163,8.17086 12.4486,16.57971 18.36006,25.07827 4.90194,7.05883 9.43345,14.36452 14.02316,21.62632 6.37691,9.20224 16.05331,16.33889 27.08944,18.69775 2.39489,0.49776 4.8416,0.67398 7.2832,0.72071 4.1528,-4.25708 9.18646,-7.60104 14.63441,-9.9641 4.30684,-1.98521 8.65371,-4.14203 12.06438,-7.51352 9.43134,-8.63341 14.5753,-21.96229 12.70072,-34.68658 -1.06424,-7.18569 -4.63357,-13.70294 -8.76048,-19.57277 C 925.3515,779.87873 912.96739,763.1701 899.91849,747.00515 867.24457,706.46131 830.8771,668.84374 791.0302,635.30232 c -25.05648,-21.07818 -51.4807,-40.55575 -79.26243,-57.89708 -34.1486,-21.31704 -70.35689,-39.42357 -108.1907,-53.22657 -32.82184,-11.98449 -66.8724,-20.63588 -101.47246,-25.5446 -24.6675,-3.51934 -49.60535,-5.11116 -74.52063,-4.78055 z" /><path
   id="path193-3"
   style="fill:none;stroke-width:2.29198"
   d="m 290.54297,857.55273 c -38.63077,0.47385 -77.16211,3.65643 -115.59896,7.34172 -21.21839,2.04048 -42.43322,4.12073 -63.64698,6.208 -4.62603,0.50131 -9.28949,0.82371 -13.850827,1.77854 -10.12019,2.30699 -19.368557,8.03793 -26.203279,15.81638 -5.600717,6.36248 -9.468733,14.21382 -11.111471,22.52908 -1.739457,8.4924 -1.185853,17.40445 1.408943,25.66523 3.653967,12.86622 7.323285,25.72781 11.331067,38.48849 21.919361,70.26123 50.780747,138.55263 88.292007,201.95633 28.23477,47.7451 61.47284,92.6125 99.71769,132.8263 0.88702,0.9507 1.7159,2.0641 3.03095,2.4407 1.75907,0.5366 3.62213,0.604 5.42268,0.9612 31.16945,4.8934 62.16517,10.6049 93.03378,17.1771 16.43525,3.4885 32.9436,7.261 49.26642,11.2366 20.52678,4.9992 40.90728,10.3892 61.24484,16.1453 2.36342,0.6609 4.71527,1.4039 7.09906,1.9661 3.36903,-0.074 6.73802,-0.1501 10.10705,-0.2246 -2.45252,-2.2862 -4.80467,-4.6813 -7.29493,-6.9251 -1.0558,-0.8321 -2.38075,-1.2575 -3.54676,-1.9228 -9.08274,-4.5833 -18.1315,-9.4944 -26.97515,-14.6166 -28.1745,-16.3202 -54.91529,-35.3174 -79.63814,-56.6128 -21.58631,-18.5539 -41.69745,-38.808 -60.25401,-60.3875 -14.87321,-17.3052 -28.8342,-35.5803 -41.71444,-54.4824 -3.73261,-5.4601 -7.44866,-11.0821 -11.02276,-16.6593 -29.27125,-45.6995 -53.00634,-94.8064 -72.26815,-145.5018 -4.44858,-11.72061 -8.67698,-23.6476 -12.75608,-35.54309 -0.27164,-0.77911 -0.54568,-1.58291 -0.81864,-2.37397 22.28234,-2.14004 44.5944,-4.30054 66.89453,-5.81836 10.46133,-0.71177 20.84829,-1.26962 31.32598,-1.6315 12.38672,-0.42311 24.92033,-0.5461 37.36419,-0.27368 8.16577,0.17624 16.34909,0.53482 24.52321,1.08446 10.19779,0.68944 20.55484,1.70095 30.7802,3.02593 5.82197,0.73659 11.75408,1.66784 17.62165,2.52917 -4.04907,-12.83252 -8.40869,-25.59192 -13.8876,-37.8935 -10.43325,-23.81754 -23.65892,-46.34828 -38.68604,-67.54768 -0.80287,-0.20282 -1.77728,-0.0918 -2.64631,-0.17392 -12.1745,-0.47819 -24.35978,-0.67167 -36.54372,-0.58803 z" /><path
   id="path191-5"
   style="fill:none;stroke-width:2.29198"
   d="m 2053.8672,1320.0664 c -10.8424,0.7368 -21.5972,2.355 -32.3891,3.5849 -87.1264,10.8617 -173.4277,28.3964 -257.849,52.521 -66.6414,19.0623 -132.1127,42.2121 -195.8954,69.3458 -100.9645,42.9361 -197.7483,95.7821 -288.1648,157.9513 -38.4254,26.4539 -75.7012,54.6005 -111.4076,84.6286 -13.0026,10.972 -25.8337,22.1506 -38.3376,33.6888 -1.7563,1.5807 -3.4463,3.253 -5.3217,4.6898 -4.108,2.4873 -9.9165,1.4808 -12.9864,-2.2012 -49.0031,-43.6283 -101.3981,-83.3579 -155.86994,-119.8957 -90.7551,-60.783 -187.68903,-112.2704 -288.62338,-153.978 -61.08854,-25.2328 -123.67956,-46.824 -187.31704,-64.6859 -74.95384,-21.0339 -151.36207,-36.8566 -228.48849,-47.4249 -16.48537,-2.2517 -33.02124,-4.2891 -49.55066,-6.0226 -4.26221,-0.4578 -8.5934,-0.3555 -12.79785,0.5171 -12.40468,2.4686 -23.60029,10.4518 -29.90794,21.4244 -5.76921,9.8596 -7.62754,22.0556 -4.51164,33.0971 3.59097,13.1579 13.48439,24.5305 26.22885,29.5172 5.66352,2.2981 11.78712,2.9932 17.81828,3.6099 37.32056,4.1691 74.47138,9.6607 111.4103,16.4662 47.09979,8.683 93.83586,19.5156 140.00407,32.4357 36.05766,10.0965 71.88589,21.4976 107.2063,34.1352 31.35744,11.2196 62.38932,23.4155 92.97936,36.5694 48.20139,20.7108 95.46157,43.8493 141.44815,69.1754 34.30729,18.9082 67.9121,39.0524 100.75704,60.4532 29.39523,19.1483 58.19973,39.3036 86.2084,60.4635 5.59509,4.2132 11.15572,8.4721 16.70739,12.7424 42.7958,7.2934 85.5781,14.6661 128.3633,22.0215 37.6565,-6.2822 75.3296,-12.465 112.998,-18.6758 32.6991,-26.4271 66.4431,-51.4077 101.2811,-74.9329 51.4087,-34.7396 104.8333,-66.323 159.9497,-94.7908 20.8686,-10.7539 41.9669,-21.0617 63.2809,-30.9032 11.3737,-5.2358 22.9213,-10.416 34.428,-15.3934 44.8181,-19.4192 90.5673,-36.7847 137.0174,-52.0383 25.8601,-8.4772 52.0043,-16.3304 78.2921,-23.4817 10.0041,-2.727 20.1327,-5.3719 30.1825,-7.9031 28.4866,-7.1461 57.1552,-13.5234 86.0131,-19.0902 40.9239,-7.9083 82.1424,-14.1921 123.5939,-18.9534 6.3292,-0.8298 12.8452,-1.0048 18.8881,-3.2641 13.1564,-4.7053 23.6629,-16.0784 27.4233,-29.5237 3.6089,-12.5841 1.2234,-26.7357 -6.3733,-37.4072 -6.8231,-9.7085 -17.7487,-16.4582 -29.531,-18.0207 -2.3685,-0.3365 -4.7651,-0.4875 -7.1567,-0.4516 z" /><path
   id="path189-6"
   style="fill:none;stroke-width:2.29198"
   d="m 1730.9746,1057.8672 c -5.3695,14.7148 -11.0233,29.3277 -17.0586,43.7832 -7.9891,19.1199 -16.6847,38.0795 -26.0539,56.6163 -10.2991,20.4303 -21.4552,40.4958 -33.4109,59.9997 -26.9644,44.0019 -58.2287,85.548 -93.644,123.1648 -23.2968,24.6271 -48.3168,47.727 -75.6261,67.859 -6.5551,4.9288 -13.5522,9.2216 -20.2767,13.9065 -4.1133,3.0602 -7.4158,7.1319 -9.9387,11.5727 -4.7445,8.4504 -6.3199,18.6873 -4.0232,28.1303 0.8462,3.7857 2.3521,7.4113 4.3427,10.7331 0.455,1.4148 2.23,2.0795 3.5214,1.3652 9.3397,-4.7581 18.7128,-9.3451 28.1652,-13.9196 33.8869,-16.3488 68.2839,-31.6137 103.1637,-45.7711 3.1703,-1.3344 6.3807,-2.5675 9.5755,-3.8403 1.3071,-0.5987 2.6969,-1.1252 3.8437,-1.9924 35.8178,-35.8453 67.8964,-75.3584 96.2308,-117.3496 34.0172,-50.4456 62.6559,-104.4582 86.0307,-160.6157 7.1882,-17.2187 13.8532,-34.6531 20.1546,-52.2142 0.3795,-1.043 0.7591,-2.0861 1.1386,-3.1291 -6.3436,2.0517 -12.6425,4.5222 -19.3319,5.1694 -17.5635,1.9942 -35.9116,-4.7216 -47.9338,-17.7043 -2.6973,-2.8828 -5.1189,-6.0073 -7.6718,-9.0159 -0.3991,1.084 -0.7982,2.168 -1.1973,3.252 z" /><path
   id="path187-2"
   style="fill:none;stroke-width:2.29198"
   d="m 1934.5391,857.51758 c -9.582,0.0618 -19.1593,0.38174 -28.7344,0.7207 -13.836,19.75145 -26.1456,40.60767 -36.2141,62.53321 -5.5548,12.00023 -10.3423,24.35487 -14.4617,36.91601 -0.2759,1.53146 0.1354,3.32994 1.4824,4.24023 1.3417,1.17018 3.2212,0.95258 4.8325,0.62511 7.9948,-1.15182 15.9714,-2.11458 24.0171,-2.93175 1.6928,-0.15513 3.6941,-0.34161 5.4004,-0.5039 8.1712,-0.71439 16.2711,-1.24244 24.4658,-1.52337 14.5019,-0.54925 29.103,-0.5806 43.6414,-0.16616 8.6491,0.23746 17.3271,0.64079 25.9924,1.12703 5.3232,0.31378 10.7914,0.66308 16.1258,1.04854 19.2016,1.37109 38.3511,3.15728 57.5287,4.9605 0.9411,0.0739 1.6547,0.0905 2.6052,0.2652 0.403,-0.0807 0.6098,0.32881 0.3712,0.62419 -2.3877,6.64655 -4.659,13.3428 -7.0612,19.98794 -4.9355,13.74574 -10.1602,27.36394 -15.7236,40.88584 -8.692,21.0955 -18.2031,41.8932 -28.6538,62.2205 -11.2844,22.0029 -23.7123,43.5666 -37.2396,64.3398 -7.8428,12.0289 -16.1076,23.9018 -24.7789,35.4438 -20.8493,27.8047 -44.1091,53.9431 -69.6292,77.5996 -27.2326,25.2869 -57.0514,47.8099 -88.9724,66.8517 -10.5854,6.3302 -21.3314,12.2368 -32.3368,17.8271 -1.3821,0.7427 -2.8631,1.3452 -4.186,2.172 -2.4351,2.3405 -4.871,4.6801 -7.3072,7.0194 3.3218,0.021 6.643,0.1773 9.9639,0.1605 1.3474,-0.06 2.6078,-0.6711 3.9183,-0.9652 31.0957,-8.8718 62.4869,-16.8748 94.0045,-23.9766 30.5705,-6.8803 61.3574,-12.9423 92.2938,-18.1505 8.7818,-1.4885 17.6466,-2.8796 26.4641,-4.3104 22.4182,-23.4076 43.2167,-48.3617 62.2326,-74.6068 36.1286,-49.7399 65.9822,-103.8853 90.3101,-160.2983 19.1745,-44.383 34.9464,-90.19883 47.9267,-136.75781 1.4471,-5.1488 2.9713,-10.32651 3.3426,-15.69 0.8842,-10.25283 -1.6154,-20.72249 -6.8752,-29.55248 -4.5408,-7.6971 -11.2316,-14.12105 -19.184,-18.2188 -6.9786,-3.67764 -14.7907,-5.60532 -22.6423,-6.08295 -11.197,-0.98515 -22.3786,-2.14011 -33.5655,-3.23404 -43.4282,-4.30485 -86.8845,-8.83528 -130.5278,-10.19469 -9.6054,-0.30052 -19.2158,-0.4385 -28.8258,-0.40515 z" /><path
   id="path185-9"
   style="fill:none;stroke-width:2.29198"
   d="m 497.87695,1062.4746 c -2.39359,2.8948 -4.72932,5.8542 -7.47461,8.4316 -0.36141,0.3424 -0.98326,0.935 -1.46264,1.354 -10.69172,9.574 -25.11908,14.7119 -39.43693,14.4408 -6.02219,-0.091 -12.01094,-1.196 -17.69915,-3.1645 -2.16703,-0.6819 -4.33396,-1.3641 -6.50089,-2.0463 7.03578,19.4789 14.28974,38.8855 22.34217,57.9707 8.47649,20.128 17.6581,39.9597 27.46453,59.4745 32.41974,64.2995 72.3519,124.935 119.80432,179.1548 10.51573,11.9876 21.35953,23.6952 32.62498,34.9815 1.49396,1.2611 3.48624,1.5983 5.22209,2.405 27.44978,10.6701 54.63877,22.0096 81.55168,33.9686 17.20557,7.6687 34.33479,15.6029 51.32576,23.8196 3.76076,1.8166 7.52027,3.6367 11.32072,5.3699 2.28244,-4.9599 4.38053,-10.1291 4.85272,-15.6219 1.30601,-13.0652 -4.34169,-26.7661 -14.88382,-34.7051 -3.46565,-2.5422 -7.14231,-4.7794 -10.64574,-7.2696 -4.33733,-2.9896 -8.58368,-6.1102 -12.73629,-9.2731 -24.67446,-18.7986 -47.55701,-39.9967 -68.98535,-62.4504 -20.03987,-21.0355 -38.74026,-43.2859 -56.15719,-66.5518 -7.43417,-9.9377 -14.70407,-20.1627 -21.63663,-30.417 -29.57118,-43.7237 -54.75753,-90.3731 -75.56923,-138.8704 -7.57222,-17.575 -14.48538,-35.4265 -21.00193,-53.4175 -0.22419,-0.543 -0.7599,0.729 -1.11792,0.9657 -0.40021,0.4836 -0.80043,0.9673 -1.20065,1.4509 z" /><path
   id="path183-1"
   style="fill:none;stroke-width:2.29198"
   d="m 685.74609,1463.9922 c 1.25726,1.5366 2.42005,3.169 3.73464,4.6474 11.76549,9.1334 23.83406,17.9551 36.77702,25.3605 8.45343,4.2204 18.48846,4.8161 27.51902,2.2077 3.18663,-0.7948 6.37292,-1.5911 9.55917,-2.3875 -22.72175,-10.8763 -45.55251,-21.5365 -68.68719,-31.5099 -0.94398,-0.5166 -1.97783,-0.731 -3.03608,-0.8625 -3.02971,-0.5108 -6.05947,-1.0214 -9.08923,-1.5319 1.07422,1.3587 2.14844,2.7175 3.22265,4.0762 z" /><path
   id="path181-2"
   style="fill:none;stroke-width:2.29198"
   d="m 104.45117,1610.9414 c -18.869207,0.5734 -37.014872,11.8039 -45.926878,28.4492 -7.157873,13.2253 -8.869193,29.47 -3.894473,43.7343 5.782415,16.7555 20.060001,30.4134 37.210479,35.0677 8.751972,2.1891 17.732052,3.2291 26.588442,4.8916 307.81802,52.927 615.63605,105.854 923.45406,158.781 -0.6492,7.8815 -1.1658,15.8644 0.1074,23.7139 2.7339,19.0907 12.247,37.1568 26.5652,50.0973 13.4251,12.2427 30.9461,19.9267 49.066,21.3844 21.5487,1.813 43.73,-5.1347 60.2814,-19.08 15.6825,-13.1539 26.4595,-32.1587 29.1968,-52.4857 0.666,-4.7334 0.9952,-9.5476 0.4297,-14.3096 -0.5241,-4.706 3.1386,-9.3101 7.7315,-10.1838 2.7365,-0.6489 5.7376,-0.8826 8.3505,-1.4177 315.9547,-51.9358 631.911,-103.863 947.8646,-155.8041 18.6056,-3.3709 34.8067,-17.277 41.1866,-35.0446 5.0455,-13.9324 4.1933,-29.9076 -2.454,-43.1677 -7.3637,-14.8078 -21.7162,-26.0785 -38.0099,-29.212 -7.7947,-1.5966 -15.8697,-1.2585 -23.6589,0.1859 -44.7099,7.4209 -89.4322,14.7073 -134.1521,22.0697 -296.7542,48.7331 -593.5084,97.4662 -890.2626,146.1993 -1.709,-0.018 -3.3503,-0.6027 -5.0464,-0.7676 -334.67536,-57.5094 -669.35021,-115.0217 -1004.02587,-172.5292 -3.51349,-0.4541 -7.05979,-0.6379 -10.60156,-0.5723 z" /><path
   id="path179-7"
   style="fill:none;stroke-width:2.29198"
   d="m 1121.2461,531.71875 c -11.0556,0.21463 -21.4474,8.55691 -23.8535,19.38281 -4.0765,15.6925 -7.5749,31.52664 -10.9427,47.38416 -8.995,43.0631 -15.8105,86.57042 -20.8204,130.27271 -1.9784,17.54543 -3.6113,35.12673 -5.1451,52.71618 -10.3212,-6.80299 -20.7079,-13.57195 -31.7625,-19.14134 -3.944,-2.22911 -8.1591,-4.35032 -12.7729,-4.56484 -9.3375,-0.78913 -19.09109,3.78292 -23.9919,11.86225 -4.80606,7.6839 -5.25946,18.09625 -0.49019,25.90757 3.16626,5.42591 8.40123,9.34756 14.05829,11.89854 6.5075,3.30238 13.1148,6.54651 18.9037,11.04398 10.1619,7.40058 18.713,17.0733 24.534,28.23407 0.2607,0.52938 0.6937,1.34613 0.9979,1.99745 2.1443,4.43773 3.8099,9.09657 5.2122,13.81673 1.0891,3.78491 1.6854,7.72727 1.4966,11.67059 -0.1531,27.86388 0.6197,55.73299 2.4069,83.54009 0.5003,8.75501 0.7117,17.646 1.0672,26.45849 0.1305,3.54136 0.261,7.08272 0.3915,10.62408 -9.0267,-13.93087 -18.0777,-27.85154 -26.6466,-42.07032 -16.8764,-27.49881 -34.92063,-54.28469 -54.12731,-80.20912 -4.62972,-6.26546 -9.36776,-12.44951 -14.12457,-18.619 -2.29125,5.8094 -4.35695,11.77755 -7.78036,17.04723 -10.13182,16.15748 -28.66122,26.65311 -47.72745,27.04847 -1.65802,0.0359 -3.53272,0.0666 -5.27494,0.0967 -1.18961,0.0205 -2.37921,0.041 -3.56881,0.0615 13.61093,17.62296 26.95989,35.46424 39.38704,53.94745 9.01444,13.32374 17.80669,26.87837 26.21452,40.54474 7.00145,11.39778 13.80646,22.89438 20.41347,34.54678 14.40831,25.3744 27.89621,51.3417 40.53361,77.6976 9.2887,19.3794 18.1733,39.0833 26.621,58.9123 1.8462,4.4293 3.7585,8.837 5.435,13.3327 1.3245,4.0397 2.4182,8.172 3.7532,12.2576 3.4082,10.4534 7.2412,20.7891 12.0141,30.7039 2.0096,4.0295 3.5971,8.2984 6.1988,12.0065 2.496,3.8216 4.9289,7.7691 8.3352,10.8685 8.9442,8.4339 21.906,12.5674 34.0564,10.3704 14.0945,-2.4731 26.3132,-13.5473 30.0289,-27.3861 1.4273,-4.9558 1.6598,-10.1691 1.3531,-15.2908 0.219,-2.57 1.6824,-4.7918 2.4676,-7.2025 17.6281,-44.5859 37.117,-88.4544 58.9066,-131.1677 10.4516,-20.4864 21.4214,-40.6926 32.9873,-60.5921 11.597,-19.96342 23.7995,-39.60705 36.6821,-58.82282 11.6033,-17.32313 23.8067,-34.3997 36.5222,-50.98766 2.3787,-3.1006 4.7569,-6.20157 7.1367,-9.30129 -4.9382,-0.13269 -9.9052,0.0939 -14.8152,-0.55314 -13.8488,-1.81655 -26.8888,-8.89574 -36.1008,-19.37264 -0.4125,-0.46517 -1.0258,-1.18592 -1.4961,-1.76367 -4.1014,-5.0026 -7.237,-10.74437 -9.4911,-16.79695 -0.7528,-1.90275 -1.5046,-3.80593 -2.2569,-5.70891 -17.6119,22.88767 -34.5678,46.29823 -50.2713,70.54224 -26.9502,41.20414 -51.1621,84.16314 -73.1646,128.19734 -5.4251,10.8073 -10.766,21.6574 -16.1637,32.4792 -4.6154,-26.8381 -9.3231,-53.5915 -12.2239,-80.68756 -1.3666,-12.32728 -2.509,-24.66297 -3.4011,-37.08599 -0.4972,-6.99812 -0.9397,-14.09829 -1.297,-21.11207 -0.721,-14.0182 -1.2034,-28.01095 -1.4265,-42.03481 0.2699,-3.99706 1.9538,-7.80258 1.7939,-11.84834 0.011,-5.71011 -0.7792,-11.37956 -1.3247,-17.05346 -0.4117,-4.03007 -0.5575,-8.08905 -0.3046,-12.13409 0.3884,-14.33905 0.8103,-28.66421 1.5686,-42.99488 0.3614,-6.90086 0.7866,-13.90387 1.2751,-20.79596 0.1178,-0.93498 -0.071,-1.96357 0.5863,-2.73389 3.3537,-5.83591 6.4669,-11.84586 10.5409,-17.23104 8.3807,-11.84963 18.4198,-22.50793 29.0651,-32.27044 10.9446,-9.99228 22.4981,-19.31243 34.5404,-27.94914 2.4834,-1.78845 5.0881,-3.6281 7.6244,-5.38465 7.595,-5.30099 15.3531,-10.36224 23.0647,-15.48941 5.2383,-3.60724 10.3537,-7.87138 13.2194,-13.67795 4.8905,-10.13322 1.6998,-23.30233 -7.0558,-30.29125 -6.8838,-5.61031 -16.8421,-7.41683 -25.1238,-4.01691 -3.653,1.42372 -6.7942,3.84515 -9.7475,6.36967 -4.099,2.94831 -8.3943,5.61008 -12.5275,8.50965 -14.1907,9.57842 -28.0807,19.61559 -41.3733,30.41151 -4.4901,3.57541 -8.9786,7.15281 -13.477,10.71778 5.0343,-33.02598 10.2678,-65.9967 17.1746,-98.69451 2.7384,-13.18358 5.8259,-26.29107 8.84,-39.41241 1.565,-5.80583 0.5417,-12.12133 -2.2086,-17.41077 -2.8239,-5.46995 -7.6595,-9.92422 -13.4822,-12.00464 -3.0696,-1.15984 -6.3671,-1.70109 -9.6461,-1.61439 z" /><path
   id="path177-0"
   style="fill:none;stroke-width:2.29198"
   d="m 1463.7695,755.21289 c -1.3877,0.0481 -2.0898,1.45283 -3.051,2.2484 -19.4376,19.49085 -37.8767,39.99663 -54.8453,61.67821 -5.9036,7.47014 -11.5835,15.11483 -17.2482,22.7648 -1.3599,1.50612 -1.296,3.74298 -0.6651,5.5536 9.6838,40.41067 16.8803,81.29214 21.4068,122.57707 1.354,12.42566 2.4873,24.95022 3.3432,37.38833 1.6906,24.7841 2.5556,49.6406 1.9651,74.5203 -0.1668,7.5688 -0.495,15.1709 -0.9142,22.7222 -0.6454,11.5381 3.1609,23.1642 10.0872,32.3652 4.3692,5.8483 10.0961,10.6557 16.5995,13.97 12.9196,6.6885 28.844,7.5155 42.2407,1.712 6.3516,-2.6367 11.8302,-6.8835 17.2265,-11.0605 33.9054,-25.4709 68.4694,-50.0985 104.1458,-73.0373 24.4635,-15.6917 49.54,-30.7522 75.2708,-44.4196 14.5144,-7.7113 29.2512,-14.9919 44.1827,-21.7874 0.7682,-0.3513 1.5364,-0.7027 2.3044,-1.0547 0.8512,-6.49478 1.7989,-12.97692 2.8925,-19.43553 2.3965,-14.07395 5.4957,-28.26301 9.2149,-42.06836 2.4937,-9.25737 5.2811,-18.45196 8.3495,-27.49178 3.0721,-9.15843 6.5339,-18.17907 10.0948,-27.15637 0.2822,-0.72275 0.5645,-1.4455 0.8467,-2.16826 -15.9422,5.45613 -31.8304,11.09379 -47.4276,17.48021 -22.1588,9.04243 -43.8543,19.19383 -65.1599,30.08947 -38.1742,19.57027 -74.9368,41.78379 -110.7667,65.34447 -2.8191,1.73602 -5.4111,3.86339 -8.4095,5.29285 -3.6276,1.4976 -8.1072,0.4777 -10.7076,-2.47144 -1.7753,-1.8779 -2.6871,-4.46547 -2.6475,-7.03467 -2.1539,-28.42825 -5.6203,-56.7532 -10.2185,-84.88817 -7.4361,-45.54777 -17.9455,-90.58739 -31.2716,-134.76703 -1.4847,-5.00176 -3.0776,-9.97547 -4.5825,-14.96756 -0.1498,-1.08494 -1.1357,-2.03529 -2.2559,-1.89844 z" /><path
   id="path175-9"
   style="fill:none;stroke-width:2.29198"
   d="m 1122.9395,290.375 c -6.9407,0.0256 -14.0439,0.0791 -20.6843,2.35766 -7.5947,2.41111 -14.3889,6.83688 -20.38,12.01947 -6.6252,5.41808 -13.2673,10.81453 -19.7756,16.37423 -68.05893,57.81909 -127.39683,125.84646 -175.65584,200.97874 -25.8713,40.18007 -48.60786,82.35824 -68.30704,125.89295 8.13625,7.16222 16.14843,14.46495 24.01562,21.92187 6.00505,5.70002 12.01879,11.58112 17.89839,17.48211 10.31941,10.37947 20.43164,21.08204 30.26874,31.98086 1.1515,1.26669 2.30377,2.53266 3.45592,3.79875 7.84049,-19.38724 16.13387,-38.60785 25.25003,-57.46099 16.49476,-34.15278 35.25434,-67.21646 56.20896,-98.83198 9.16096,-13.79928 18.82708,-27.4965 28.80312,-40.69501 27.3138,-36.19456 57.7365,-70.05949 90.7588,-101.19058 7.4405,-7.02949 15.0297,-13.93396 22.7213,-20.72183 1.7217,-2.22414 5.4759,-2.12108 7.2036,0.0469 9.24,8.17818 18.3581,16.49538 27.2768,25.02338 10.3782,9.92198 20.5759,20.23255 30.4011,30.69152 20.0908,21.39335 39.0549,43.90843 56.6868,67.33387 22.5065,29.88387 42.9101,61.37436 61.1482,94.12506 8.7624,15.72265 17.0464,31.80302 24.8131,48.08255 5.3955,11.34001 10.6152,22.92256 15.5536,34.52928 0.9164,2.15276 1.8327,4.30554 2.7488,6.45843 16.9746,-18.85573 34.5954,-37.14761 53.1984,-54.40699 7.2741,-6.7609 14.7168,-13.3376 22.2196,-19.84301 -19.8108,-42.44308 -42.5585,-83.52907 -68.3215,-122.65129 -21.0424,-32.00778 -44.1203,-62.67713 -69.0392,-91.77088 -37.9342,-44.29256 -80.1328,-84.95388 -125.9586,-121.02945 -9.0481,-7.38655 -20.929,-10.77654 -32.5088,-10.49565 z" /><path
   id="path173-3"
   style="fill:none;stroke-width:2.29198"
   d="m 773.10938,767.82031 c -7.73412,25.68921 -14.85806,51.57523 -20.68946,77.76785 -8.68848,38.41939 -15.21765,77.33057 -19.44546,116.49373 -1.69734,15.76381 -2.88954,31.57564 -4.07602,47.38491 C 702.6967,992.06301 676.35817,974.83032 649.16259,959.006 612.1725,937.34435 573.9764,917.62023 534.29962,901.33592 c -19.44375,-7.98123 -39.2666,-15.06706 -59.33545,-21.28193 -1.42949,-0.45345 -2.85892,-0.9071 -4.28839,-1.36063 4.84472,11.61474 9.68373,23.24249 13.78872,35.14449 3.69559,10.71018 7.00476,21.62998 9.92417,32.52934 4.38835,16.44761 7.82962,33.13987 10.49219,49.95117 13.98733,6.02934 27.84121,12.47404 41.42578,19.30464 37.00961,18.5876 72.52348,39.9546 107.09006,62.7931 22.66734,14.9673 44.94456,30.6386 66.8743,46.7333 10.24108,7.4852 20.38469,15.1036 30.55018,22.6894 13.07701,9.1901 30.79136,11.5038 45.69845,5.6233 13.16118,-4.982 24.24194,-15.6401 29.05055,-28.9445 2.99897,-7.9453 3.72651,-16.6144 2.8362,-25.0222 -1.14091,-18.4544 -1.07481,-36.9591 -0.55907,-55.4637 0.15943,-6.2833 0.40121,-12.5441 0.72596,-18.855 1.34249,-26.78561 3.87108,-53.48102 7.51335,-80.08357 3.93805,-28.80437 9.21472,-57.4846 15.6592,-85.90726 0.10623,-0.59304 -0.59223,-1.03119 -0.82701,-1.55826 -20.52881,-30.07482 -43.65964,-58.34907 -68.78126,-84.69765 -2.67438,-2.80867 -5.36552,-5.60139 -8.04771,-8.40262 -0.32682,1.09766 -0.65364,2.19532 -0.98046,3.29297 z" /></svg>
