<?xml version="1.0" encoding="UTF-8" standalone="no"?>
<svg
   xmlns:dc="http://purl.org/dc/elements/1.1/"
   xmlns:cc="http://creativecommons.org/ns#"
   xmlns:rdf="http://www.w3.org/1999/02/22-rdf-syntax-ns#"
   xmlns:svg="http://www.w3.org/2000/svg"
   xmlns="http://www.w3.org/2000/svg"
   version="1.1"
   id="svg8"
   x="0px"
   y="0px"
   viewBox="0 0 2267.7 2267.7"
   xml:space="preserve"><metadata
   id="metadata10"><rdf:RDF><cc:Work
       rdf:about=""><dc:format>image/svg+xml</dc:format><dc:type
         rdf:resource="http://purl.org/dc/dcmitype/StillImage" /><dc:title></dc:title></cc:Work></rdf:RDF></metadata><defs
   id="defs8" />
     <path
   id="path84"
   style="fill:none"
   d="M 23066.234 121.12305 L 23066.234 1669.4961 L 23183.369 1669.4961 L 23183.369 1531.6191 L 23205.332 1531.6191 C 23250.477 1576.7647 23295.624 1621.9099 23362.732 1647.5332 C 23429.841 1669.4959 23498.17 1692.6797 23568.939 1692.6797 C 23726.338 1692.6797 23816.629 1621.9103 23910.58 1531.6191 C 23977.689 1441.3278 24022.836 1303.4516 24022.836 1122.8691 C 24022.836 942.28664 24003.313 804.40844 23910.58 714.11719 C 23817.849 623.82593 23704.375 578.68164 23568.939 578.68164 C 23407.878 578.68164 23295.625 623.82609 23227.297 736.08008 L 23227.297 121.12305 L 23066.234 121.12305 z M 23546.977 690.93555 C 23637.268 690.93555 23727.557 736.08107 23772.703 803.18945 C 23817.848 870.29781 23839.812 986.21152 23839.812 1121.6484 C 23839.812 1257.0853 23817.848 1372.999 23772.703 1440.1074 C 23727.557 1507.2157 23637.268 1552.3613 23546.977 1552.3613 C 23431.062 1552.3613 23340.769 1530.3988 23295.623 1462.0703 C 23250.477 1394.962 23228.516 1281.4878 23228.516 1120.4277 C 23228.516 965.46842 23250.477 849.55508 23295.623 781.22656 C 23340.769 714.1182 23431.062 690.93555 23546.977 690.93555 z " /><path
   id="path80"
   style="fill:none"
   d="M 22271.916 553.05664 C 22110.857 553.05664 21998.602 623.82593 21908.311 714.11719 C 21818.02 804.40844 21772.873 942.28664 21772.873 1122.8691 C 21772.873 1235.1231 21772.874 1329.0739 21818.02 1419.3652 C 21863.166 1509.6565 21953.456 1574.3243 22020.564 1621.9102 C 22087.673 1669.4962 22181.625 1692.6797 22271.916 1692.6797 C 22429.316 1692.6797 22545.23 1621.9103 22635.521 1531.6191 C 22725.812 1441.3278 22770.959 1305.892 22770.959 1122.8691 C 22770.959 965.46953 22725.812 804.40844 22635.521 714.11719 C 22545.23 601.86319 22429.316 553.05664 22271.916 553.05664 z M 22271.916 692.1543 C 22384.17 692.1543 22478.122 737.29984 22523.268 804.4082 C 22590.376 871.51657 22613.559 987.43226 22613.559 1122.8691 C 22613.559 1258.306 22568.413 1374.2197 22523.268 1441.3281 C 22452.499 1508.4365 22385.391 1553.582 22271.916 1553.582 C 22159.663 1553.582 22065.71 1508.4365 22020.564 1441.3281 C 21953.456 1374.2197 21930.273 1258.306 21930.273 1122.8691 C 21930.273 987.43226 21953.456 871.51657 22020.564 804.4082 C 22087.673 737.29984 22158.442 692.1543 22271.916 692.1543 z " /><path
   id="path74"
   style="fill:none"
   d="M 21068.846 556.71875 C 20952.932 556.71875 20840.679 582.34085 20772.35 649.44922 C 20701.582 716.55758 20656.436 806.85007 20656.436 920.32422 C 20656.436 991.09304 20675.956 1058.2001 20701.58 1103.3457 C 20727.203 1148.4913 20772.348 1193.6369 20839.457 1215.5996 C 20794.311 1237.5624 20772.35 1263.1864 20749.168 1308.332 C 20727.205 1353.4777 20727.203 1375.4402 20727.203 1420.5859 C 20727.203 1442.5486 20727.205 1487.6941 20749.168 1510.877 C 20771.13 1556.0226 20794.312 1556.0217 20816.275 1577.9844 C 20725.984 1577.9844 20678.398 1603.6085 20633.252 1670.7168 C 20588.106 1737.8252 20566.145 1782.9702 20566.145 1851.2988 C 20566.145 1940.3699 20611.288 2034.3224 20701.58 2056.2852 C 20772.348 2123.3935 20884.602 2146.5762 21020.039 2146.5762 C 21226.245 2146.5762 21364.123 2124.6138 21454.414 2056.2852 C 21544.706 1989.1768 21589.852 1895.2247 21589.852 1782.9707 C 21589.852 1692.6795 21544.707 1621.911 21499.561 1554.8027 C 21432.453 1509.6571 21338.5 1487.6934 21226.246 1487.6934 L 21020.039 1487.6934 C 20952.931 1487.6934 20907.787 1509.6562 20884.604 1487.6934 C 20861.422 1465.7307 20839.457 1442.5486 20839.457 1420.5859 C 20839.457 1375.4402 20884.604 1330.2941 20951.713 1285.1484 L 21042.004 1285.1484 C 21157.919 1285.1484 21270.171 1259.5263 21338.5 1192.418 C 21406.829 1125.3096 21454.414 1056.9806 21454.414 944.72656 C 21454.414 897.14063 21454.413 851.99524 21432.451 806.84961 C 21432.451 761.70398 21406.828 739.74148 21384.865 716.55859 L 21591.072 694.5957 L 21591.072 582.3418 L 21226.246 582.3418 C 21181.1 556.7186 21135.955 556.71875 21068.846 556.71875 z M 21067.627 692.1543 C 21225.027 692.1543 21315.316 784.88609 21315.316 943.50586 C 21315.316 1102.1257 21225.027 1169.2344 21067.627 1169.2344 C 20996.858 1169.2344 20929.75 1147.2726 20884.604 1102.127 C 20839.459 1056.9813 20817.494 989.87235 20817.494 919.10352 C 20816.274 849.55485 20839.459 781.22641 20884.604 759.26367 C 20929.75 714.11805 20996.858 692.1543 21067.627 692.1543 z M 20951.713 1647.5332 L 21157.918 1647.5332 C 21248.209 1647.5332 21315.317 1669.4968 21360.463 1692.6797 C 21382.426 1714.6424 21405.607 1737.8253 21405.607 1804.9336 C 21405.607 1872.0421 21383.645 1914.748 21315.316 1962.334 C 21246.988 2009.92 21134.735 2033.1016 20996.857 2033.1016 C 20906.566 2033.1016 20839.459 2011.1399 20794.312 1987.957 C 20749.167 1962.3338 20727.203 1917.1885 20727.203 1850.0801 C 20725.983 1782.9717 20749.167 1737.8253 20771.129 1692.6797 C 20816.275 1670.7169 20883.384 1647.5332 20951.713 1647.5332 z " /><path
   id="path68"
   style="fill:none"
   d="M 19361.854 553.05664 C 19200.793 553.05664 19088.54 623.82593 18998.248 714.11719 C 18905.517 804.40844 18860.371 942.28664 18860.371 1122.8691 C 18859.151 1235.1231 18882.334 1329.0739 18927.479 1419.3652 C 18975.065 1509.6565 19043.394 1574.3243 19110.502 1621.9102 C 19177.611 1669.4962 19267.902 1692.6797 19361.854 1692.6797 C 19519.253 1692.6797 19632.727 1621.9103 19725.459 1531.6191 C 19815.75 1441.3278 19860.896 1305.892 19860.896 1122.8691 C 19860.896 965.46953 19815.75 804.40844 19725.459 714.11719 C 19632.727 601.86319 19519.253 553.05664 19361.854 553.05664 z M 19361.854 692.1543 C 19474.108 692.1543 19564.4 737.29984 19609.545 804.4082 C 19680.314 871.51657 19702.275 987.43226 19702.275 1122.8691 C 19702.275 1258.306 19657.131 1374.2197 19609.545 1441.3281 C 19542.437 1508.4365 19476.548 1553.582 19361.854 1553.582 C 19247.159 1553.582 19155.648 1508.4365 19110.502 1441.3281 C 19043.394 1374.2197 19020.211 1258.306 19020.211 1122.8691 C 19020.211 987.43226 19065.357 871.51657 19110.502 804.4082 C 19177.611 737.29984 19245.939 692.1543 19361.854 692.1543 z " /><path
   id="path60"
   style="fill:none"
   d="M 17152.158 121.12305 L 17152.158 1669.4961 L 17269.293 1669.4961 L 17269.293 1531.6191 L 17291.256 1531.6191 C 17336.402 1576.7647 17381.546 1621.9099 17448.654 1647.5332 C 17515.762 1669.4959 17586.532 1692.6797 17654.861 1692.6797 C 17812.26 1692.6797 17906.213 1621.9103 17996.504 1531.6191 C 18063.613 1441.3278 18108.758 1303.4516 18108.758 1122.8691 C 18108.758 942.28664 18086.796 804.40844 17996.504 714.11719 C 17906.213 623.82593 17790.298 578.68164 17654.861 578.68164 C 17493.801 578.68164 17381.548 623.82609 17313.219 736.08008 L 17313.219 121.12305 L 17152.158 121.12305 z M 17656.08 690.93555 C 17746.371 690.93555 17834.223 736.08107 17881.809 803.18945 C 17929.395 870.29781 17952.578 986.21152 17952.578 1121.6484 C 17952.578 1257.0853 17904.992 1372.999 17859.846 1440.1074 C 17814.701 1507.2157 17724.408 1552.3613 17634.117 1552.3613 C 17518.203 1552.3613 17427.913 1530.3988 17382.768 1462.0703 C 17337.622 1393.7418 17315.658 1281.4878 17315.658 1120.4277 C 17314.437 965.46842 17336.401 849.55508 17404.73 781.22656 C 17449.875 714.1182 17542.606 690.93555 17656.08 690.93555 z " /><path
   id="path56"
   style="fill:none"
   d="m 16401.764,554.27734 c -45.145,0 -112.253,-1.5e-4 -180.582,25.62305 -67.108,21.96273 -137.878,45.14664 -183.024,67.10938 l 45.147,135.43554 c 115.914,-67.10837 225.728,-90.29101 318.459,-90.29101 92.732,0 137.878,21.96375 183.023,67.10937 21.963,21.96274 45.147,90.28992 45.147,183.02149 v 90.29294 h -183.024 c -341.642,0 -522.224,112.254 -522.224,341.6426 25.206,210.6004 204.3,317.0362 388.007,318.459 90.292,0 157.399,-21.9637 206.205,-45.1465 45.146,-25.6233 112.255,-70.7687 157.401,-137.877 l 21.963,161.0606 h 112.254 V 917.88281 c 0,-112.25399 -45.145,-202.54452 -112.254,-270.87304 -67.108,-67.10836 -157.4,-92.73243 -296.498,-92.73243 z m 95.172,568.59176 h 157.4 v 90.2911 c 0,115.9144 -21.963,206.2058 -90.291,251.3515 -67.109,67.1083 -137.877,90.291 -251.352,90.291 -67.108,0 -135.435,-21.9637 -157.398,-45.1465 -21.963,-21.9628 -47.588,-67.1069 -47.588,-135.4355 -1.22,-90.2912 24.404,-139.0985 92.732,-184.2441 67.109,-45.1457 157.4,-67.1075 296.497,-67.1075 z" /><path
   id="path50"
   style="fill:none"
   d="M 13945.598 553.05664 C 13788.199 553.05664 13674.724 623.82593 13581.992 714.11719 C 13491.701 804.40844 13446.557 942.28664 13446.557 1122.8691 C 13447.777 1235.1231 13469.739 1329.0739 13514.885 1419.3652 C 13560.03 1509.6565 13630.798 1574.3243 13697.906 1621.9102 C 13765.015 1669.4962 13855.307 1692.6797 13945.598 1692.6797 C 14106.658 1692.6797 14218.911 1621.9103 14309.203 1531.6191 C 14401.934 1441.3278 14447.08 1305.892 14447.08 1122.8691 C 14447.08 965.46953 14401.934 804.40844 14309.203 714.11719 C 14218.911 601.86319 14106.658 553.05664 13945.598 553.05664 z M 13968.781 692.1543 C 14084.696 692.1543 14174.987 737.29984 14220.133 804.4082 C 14287.241 871.51657 14310.424 987.43226 14310.424 1122.8691 C 14310.424 1258.306 14265.278 1374.2197 14220.133 1441.3281 C 14153.024 1508.4365 14082.255 1553.582 13968.781 1553.582 C 13856.527 1553.582 13766.236 1508.4365 13721.09 1441.3281 C 13650.321 1374.2197 13628.359 1258.306 13628.359 1122.8691 C 13627.139 987.43226 13650.321 871.51657 13721.09 804.4082 C 13788.199 737.29984 13856.527 692.1543 13968.781 692.1543 z " /><path
   id="path44"
   style="fill:none"
   d="M 11512.615 213.85547 C 11332.032 213.85547 11170.973 261.44101 11058.719 329.76953 C 10946.465 396.87789 10830.55 510.35134 10762.221 648.22852 C 10695.113 783.66541 10649.967 919.10405 10649.967 1102.127 C 10649.967 1329.0752 10691.454 1512.0962 10830.551 1647.5332 C 10968.428 1782.97 11149.01 1850.0801 11400.361 1850.0801 C 11561.421 1850.0801 11696.858 1804.9327 11832.295 1759.7871 L 11832.295 1621.9102 C 11696.858 1692.6791 11535.798 1714.6426 11400.361 1714.6426 C 11197.816 1714.6426 11058.719 1669.4964 10946.465 1553.582 C 10830.551 1441.3279 10785.404 1282.7078 10785.404 1076.502 C 10785.404 941.0651 10807.368 803.189 10878.137 689.71484 C 10923.282 577.46085 11011.131 506.69179 11125.826 438.36328 C 11241.74 371.25491 11353.995 348.07227 11512.615 348.07227 C 11628.529 348.07227 11718.822 370.03406 11876.221 415.17969 C 11968.953 460.32532 12037.28 527.43501 12082.426 621.38672 C 12127.572 711.67798 12149.533 827.59171 12149.533 939.8457 C 12149.533 1052.0997 12127.572 1139.95 12082.426 1210.7188 C 12037.28 1281.4877 11992.134 1326.6348 11925.025 1326.6348 C 11832.294 1326.6348 11787.148 1255.8653 11787.148 1143.6113 L 11787.148 1121.6484 L 11809.111 644.56836 C 11763.965 644.56836 11718.822 622.60547 11651.713 622.60547 C 11584.605 600.64273 11535.798 600.64258 11490.652 600.64258 C 11355.215 600.64258 11242.961 645.78883 11172.193 736.08008 C 11105.084 826.37134 11059.939 942.28576 11059.939 1077.7227 C 11059.939 1189.9767 11102.644 1283.9287 11150.23 1351.0371 C 11197.816 1418.1454 11288.107 1441.3281 11378.398 1441.3281 C 11445.507 1441.3281 11516.276 1441.3292 11561.422 1396.1836 C 11606.568 1351.038 11651.713 1329.0735 11673.676 1258.3047 C 11673.676 1329.0735 11740.784 1374.2208 11763.967 1396.1836 C 11785.93 1418.1463 11831.076 1441.3281 11901.844 1441.3281 C 11968.953 1441.3281 12037.28 1419.3664 12082.426 1374.2207 C 12127.572 1329.0751 12172.717 1258.3056 12194.68 1191.1973 C 12216.643 1124.0889 12239.826 1033.7971 12239.826 943.50586 C 12239.826 805.62868 12217.862 670.19179 12149.533 554.27734 C 12104.388 442.02334 12014.098 373.6943 11901.844 306.58594 C 11785.93 239.47757 11650.492 213.85547 11512.615 213.85547 z M 11489.432 714.11719 C 11560.201 714.11719 11605.347 714.11735 11650.492 736.08008 L 11628.529 1009.3945 C 11606.567 1211.9398 11535.798 1327.8535 11400.361 1327.8535 C 11264.924 1327.8535 11197.816 1235.1218 11197.816 1076.502 C 11196.596 965.46814 11241.741 871.51657 11286.887 804.4082 C 11332.032 737.29984 11399.141 714.11719 11489.432 714.11719 z " /><path
   id="path40"
   style="fill:none"
   d="M 9965.4629 554.27734 C 9920.3169 554.27734 9853.2094 554.27719 9784.8809 579.90039 C 9714.1121 601.86312 9647.003 625.04703 9601.8574 647.00977 L 9647.002 782.44531 C 9759.256 715.33694 9875.1719 692.1543 9965.4629 692.1543 C 10055.754 692.1543 10100.898 714.11805 10148.484 759.26367 C 10170.447 781.22641 10193.631 849.55359 10193.631 942.28516 L 10193.631 1032.5781 L 10010.607 1032.5781 C 9668.9649 1032.5781 9488.3828 1144.8321 9488.3828 1374.2207 C 9490.8231 1464.5121 9512.7868 1554.8017 9603.0781 1599.9473 C 9648.2238 1670.7161 9738.5132 1692.6797 9854.4277 1692.6797 C 9944.7194 1692.6797 10011.828 1670.716 10056.973 1647.5332 C 10102.119 1621.9099 10172.887 1576.7645 10218.033 1509.6562 L 10239.996 1670.7168 L 10352.25 1670.7168 L 10352.25 917.88281 C 10352.25 805.62882 10330.288 715.33829 10261.959 647.00977 C 10194.851 579.90141 10100.9 554.27734 9965.4629 554.27734 z M 10035.012 1122.8691 L 10196.07 1122.8691 L 10196.07 1213.1602 C 10196.07 1329.0746 10174.109 1419.366 10103.34 1464.5117 C 10036.232 1531.62 9967.902 1554.8027 9855.6484 1554.8027 C 9788.5401 1554.8027 9717.7709 1532.839 9694.5879 1509.6562 C 9672.6252 1487.6934 9649.4434 1442.5493 9649.4434 1374.2207 C 9648.2233 1283.9295 9693.3681 1235.1222 9738.5137 1189.9766 C 9809.2825 1144.8309 9899.575 1122.8691 10035.012 1122.8691 z " /><path
   id="path36"
   style="fill:none"
   d="M 9056.4492 121.12305 L 9056.4492 690.93555 L 9034.4863 690.93555 C 8967.3779 578.68155 8851.4635 529.875 8692.8438 529.875 C 8535.4441 529.875 8421.97 600.64429 8351.2012 690.93555 C 8284.0929 803.18955 8238.9473 942.28664 8238.9473 1122.8691 C 8237.7271 1305.892 8282.8725 1441.3285 8376.8242 1554.8027 C 8467.1155 1647.5343 8579.3698 1692.6797 8714.8066 1692.6797 C 8875.8668 1692.6797 8988.1207 1647.5336 9056.4492 1531.6191 L 9082.0723 1669.4961 L 9217.5098 1669.4961 L 9217.5098 121.12305 L 9056.4492 121.12305 z M 8714.8066 692.1543 C 8830.7211 692.1543 8921.0126 714.11679 8966.1582 782.44531 C 9011.3038 850.77383 9033.2656 965.46808 9033.2656 1124.0879 L 9033.2656 1169.2344 C 9033.2656 1307.1116 9011.3038 1397.4019 8966.1582 1465.7305 C 8921.0126 1534.059 8830.7211 1556.0234 8714.8066 1556.0234 C 8624.5154 1556.0234 8534.2238 1510.8779 8489.0781 1443.7695 C 8443.9325 1376.6612 8421.9707 1260.7456 8421.9707 1125.3086 C 8421.9707 987.43141 8443.9325 871.51657 8489.0781 804.4082 C 8534.2238 737.29984 8624.5154 692.1543 8714.8066 692.1543 z " /><path
   id="path26"
   style="fill:none"
   d="M 6010.9492 553.05664 C 5849.8891 553.05664 5737.635 623.82593 5647.3438 714.11719 C 5557.0526 804.40844 5509.4668 942.28664 5509.4668 1122.8691 C 5508.2466 1235.1231 5530.2095 1329.0739 5579.0156 1419.3652 C 5624.1613 1509.6565 5691.2692 1576.7646 5759.5977 1621.9102 C 5826.706 1669.4962 5920.6579 1692.6797 6010.9492 1692.6797 C 6168.3488 1692.6797 6284.2635 1621.9103 6374.5547 1531.6191 C 6464.8459 1441.3278 6509.9922 1305.892 6509.9922 1122.8691 C 6509.9922 965.46953 6464.8459 804.40844 6374.5547 714.11719 C 6284.2635 601.86319 6168.3488 553.05664 6010.9492 553.05664 z M 6010.9492 692.1543 C 6123.2031 692.1543 6213.4947 737.29984 6262.3008 804.4082 C 6329.4092 871.51657 6352.5918 987.43226 6352.5918 1122.8691 C 6352.5918 1258.306 6307.4464 1374.2197 6262.3008 1441.3281 C 6191.532 1508.4365 6124.4233 1553.582 6010.9492 1553.582 C 5895.0347 1553.582 5804.7433 1508.4365 5759.5977 1441.3281 C 5692.4893 1374.2197 5669.3066 1258.306 5669.3066 1122.8691 C 5669.3066 987.43226 5714.4521 871.51657 5759.5977 804.4082 C 5826.706 737.29984 5895.0347 692.1543 6010.9492 692.1543 z " /><path
   id="path3713"
   style="fill:none"
   d="M 594.69336 532.31445 C 459.25736 532.31445 347.00278 579.90086 253.05078 693.375 C 162.75978 805.629 117.61523 944.72609 117.61523 1125.3086 C 118.83623 1305.8912 160.31948 1415.7047 254.27148 1531.6191 C 347.00348 1647.5336 482.44 1692.6797 643.5 1692.6797 C 710.608 1692.6797 778.93798 1670.7168 824.08398 1670.7168 C 891.19101 1670.7168 936.33658 1648.7541 985.14258 1623.1309 L 985.14258 1465.7305 C 869.22855 1510.8761 756.974 1532.8398 643.5 1532.8398 C 550.768 1532.8398 437.29444 1510.8773 392.14844 1442.5488 C 347.00344 1374.2202 301.85742 1285.1481 301.85742 1146.0508 L 1029.0684 1146.0508 L 1029.0684 1033.7969 C 1029.0684 872.73681 1007.1044 760.48267 913.15234 670.19141 C 846.04431 579.90016 730.13136 532.31445 594.69336 532.31445 z M 594.69336 690.93555 C 687.42536 690.93555 755.75439 712.89734 800.90039 758.04297 C 846.04539 825.15133 868.00781 893.48004 868.00781 1009.3945 L 300.63672 1009.3945 C 301.85672 916.66293 347.00344 849.55508 392.14844 781.22656 C 437.29444 714.1182 501.96236 690.93555 594.69336 690.93555 z " /><path
   style="fill:none"
   d="m 26820.644,1692.6797 318.46,-456.3369 296.496,456.3369 h 180.583 l -408.751,-569.8111 386.788,-544.18784 h -180.582 l -296.497,408.75096 -296.497,-408.75096 h -183.023 l 386.788,522.22514 -408.751,569.811 z"
   id="path92" /><path
   style="fill:none"
   d="m 24863.519,1647.5341 h 161.061 V 1077.723 c 0,-135.4369 21.962,-228.16847 67.108,-296.49699 45.146,-68.32851 112.254,-90.29125 228.168,-90.29125 90.292,0 157.4,21.96274 180.583,67.10837 23.183,45.14563 45.145,112.25399 45.145,206.2057 v 705.24797 h 161.061 v -614.9567 c 0,-112.254 21.962,-206.20572 67.108,-273.31409 45.146,-67.10836 112.254,-90.29125 228.168,-90.29125 90.292,0 157.4,21.96274 180.583,67.10837 23.183,45.14563 45.145,112.25399 45.145,206.2057 v 705.24797 h 161.061 V 964.24883 c 0,-137.87719 -21.963,-228.16845 -92.732,-296.49696 -45.146,-67.10837 -157.399,-90.29126 -270.874,-90.29126 -70.769,0 -161.059,0 -206.205,45.14563 -45.146,45.14563 -112.254,90.29126 -135.437,135.43689 -70.769,-112.254 -161.06,-180.58252 -341.643,-180.58252 -70.769,0 -115.914,21.96274 -183.022,45.14563 -67.109,21.96274 -112.255,67.10836 -135.438,112.25399 l -21.962,-157.39962 h -137.878 V 1669.4968 Z"
   id="path90" /><path
   style="fill:none"
   d="m 24409.623,1691.4595 c 85.518,-3.9734 112.216,-76.8861 112.254,-137.8771 4.62,-76.3999 -48.675,-134.2126 -112.254,-135.437 -83.989,4.4274 -112.216,75.2584 -112.254,135.437 1.783,47.331 15.896,137.7647 112.254,137.8771 z"
   id="path88" /><path
   style="fill:none"
   d="m 20246.464,1691.4595 c 83.606,-4.6739 115.869,-76.5649 115.914,-137.8771 3.571,-76.4046 -52.601,-134.2177 -115.914,-135.437 -83.989,4.4274 -112.216,75.2584 -112.254,135.437 -3.593,91.7358 15.896,137.7647 112.254,137.8771 z"
   id="path72" /><path
   style="fill:none"
   d="M 18563.874,1669.4968 V 577.46061 h -157.4 V 1669.4968 Z"
   id="path66" /><path
   style="fill:none"
   d="m 18472.363,394.43779 c 74.446,1.0481 89.037,-57.72997 89.071,-112.25399 1.792,-68.14011 -19.747,-114.60628 -89.071,-114.69431 -75.319,-1.12891 -89.036,59.09131 -89.071,114.69431 4.734,62.21534 26.621,112.17469 89.071,112.25399 z"
   id="path64" /><path
   style="fill:none"
   d="m 14925.38,1669.4968 v -569.8111 c 0,-157.3996 45.146,-251.35132 90.292,-318.45969 45.145,-67.10836 137.877,-90.29125 251.351,-90.29125 67.108,0 137.877,21.96274 183.023,67.10837 45.146,45.14563 67.108,112.25399 67.108,206.2057 v 705.24797 h 157.4 V 964.24883 c 0,-161.06007 -67.109,-228.16845 -135.437,-296.49696 -68.329,-68.32852 -161.06,-90.29126 -296.497,-90.29126 -67.108,0 -161.06,21.96274 -206.206,45.14563 -45.145,21.96274 -112.254,67.10836 -135.437,112.25399 l -21.962,-157.39962 h -135.437 V 1669.4968 Z"
   id="path54" /><path
   style="fill:none"
   d="m 12652.237,1531.6196 c 90.291,90.2912 202.545,137.8772 363.605,137.8772 112.254,0 202.546,-21.9627 270.874,-70.7688 v -135.437 c -90.291,45.1457 -180.582,67.1084 -270.874,67.1084 -115.914,0 -206.205,-45.1456 -251.351,-112.254 -67.108,-90.2912 -90.291,-183.0228 -90.291,-318.4597 0,-296.49694 112.254,-431.93383 341.642,-431.93383 21.963,0 67.109,0 112.254,21.96273 45.146,21.96274 67.109,21.96274 112.254,45.14563 l 45.146,-135.43688 c -21.963,-21.96274 -67.108,-25.6232 -112.254,-47.58594 -45.146,-21.96273 -112.254,-21.96273 -157.4,-21.96273 -183.022,0 -296.497,70.76882 -386.788,161.06008 -92.731,112.254 -137.877,251.35134 -137.877,431.93384 0,183.0229 21.963,318.4597 161.06,408.751 z"
   id="path48" /><path
   style="fill:none"
   d="M 7942.4502,1669.4968 V 577.46061 H 7785.0505 V 1669.4968 Z"
   id="path34" /><path
   style="fill:none"
   d="m 7874.1217,394.43779 c 126.2501,0.35057 91.8317,-228.31205 0,-226.9483 -107.9974,-0.55248 -133.8087,226.7784 0,226.9483 z"
   id="path32" /><path
   style="fill:none"
   d="m 7011.4741,1669.4968 h 202.5453 L 7622.7703,577.46061 h -180.5825 c -137.8772,363.60534 -228.1684,612.51639 -273.3141,727.21069 -45.1456,112.254 -67.1084,180.5825 -67.1084,225.7281 0,-45.1456 -45.1456,-135.4368 -90.2912,-296.4969 L 6783.3056,576.24045 h -183.0228 z"
   id="path30" /><path
   style="fill:none"
   d="M 5214.19,1669.4968 V 121.12372 H 5053.13 V 1669.4968 Z"
   id="path24" /><path
   style="fill:none"
   d="m 4168.5196,1554.8025 c 90.2913,92.7316 202.5453,137.8772 363.6054,137.8772 112.254,0 202.5452,-21.9628 270.8737,-70.7689 V 1486.474 c -90.2912,45.1456 -180.5824,67.1084 -270.8737,67.1084 -115.9145,0 -183.0228,-21.9628 -251.3514,-112.2541 -67.1084,-90.2912 -90.2912,-183.0228 -90.2912,-318.4597 0,-296.49696 112.2539,-431.93384 341.6426,-431.93384 21.9627,0 67.1083,0 112.254,21.96274 45.1456,21.96273 67.1084,21.96273 112.254,45.14563 l 45.1456,-157.39963 c -21.9627,-21.96274 -67.1084,-25.62319 -112.254,-47.58593 -45.1456,-21.96275 -112.254,-21.96275 -157.3996,-21.96275 -183.0228,0 -292.8365,47.58594 -386.7882,161.06009 -92.7316,112.25399 -137.8772,251.35133 -137.8772,431.93389 0,181.8027 70.7688,336.762 161.06,430.7137 z"
   id="path22" /><path
   style="fill:none"
   d="M 3710.9627,1669.4968 V 577.46061 H 3553.5626 V 1669.4968 Z"
   id="path20" /><path
   style="fill:none"
   d="m 3575.5253,372.47505 c 21.9636,21.96274 45.1458,21.96274 67.1085,21.96274 21.9627,0 45.1458,0 67.1085,-21.96274 21.9627,-21.96273 21.9627,-45.14563 21.9627,-90.29125 0,-45.14563 0,-70.76883 -21.9627,-92.73157 -21.9627,-21.96274 -45.1458,-21.96274 -67.1085,-21.96274 -21.9627,0 -45.1449,0 -67.1085,21.96274 -21.9627,21.96274 -21.9627,47.58594 -21.9627,92.73157 0,23.18289 0,68.32852 21.9627,90.29125 z"
   id="path18" /><path
   style="fill:none"
   d="m 2687.255,1531.6196 c 92.7315,90.2912 206.2053,137.8772 363.6054,137.8772 115.9146,0 206.2053,-21.9627 273.3138,-70.7688 v -135.437 c -90.2907,45.1457 -180.5823,67.1084 -273.3138,67.1084 -112.2543,0 -180.5823,-21.9627 -247.6908,-112.254 -67.1085,-90.2912 -92.7315,-183.0228 -92.7315,-318.4597 0,-296.49694 115.9146,-431.93383 341.6427,-431.93383 21.9627,0 70.7688,0 115.9137,21.96273 45.1458,21.96274 67.1085,21.96274 112.2543,45.14563 l 45.1458,-135.43688 c -21.9627,-21.96274 -67.1085,-25.6232 -112.2543,-47.58594 -45.1458,-21.96273 -112.2534,-21.96273 -161.0595,-21.96273 -180.5832,0 -296.4969,47.58593 -386.7885,161.06008 -90.292,112.254 -135.437,251.35134 -135.437,431.93384 0,183.0229 64.668,318.4597 157.3997,408.751 z"
   id="path16" /><path
   style="fill:none"
   d="m 1506.1483,1669.4968 v -569.8111 c 0,-157.3996 21.962,-251.35132 67.107,-318.45969 45.146,-67.10836 137.878,-90.29125 251.352,-90.29125 90.291,0 132.997,21.96274 180.583,67.10837 47.585,45.14563 70.768,112.25399 70.768,206.2057 v 682.06507 h 157.4 V 941.06595 c 0,-137.87719 -21.963,-228.16845 -90.291,-296.49697 -67.109,-67.10837 -161.06,-92.73157 -296.497,-92.73157 -67.108,0 -137.877,25.6232 -206.206,47.58594 -67.109,21.96273 -112.254,67.10836 -157.399,135.43688 l -21.963,-157.39962 h -135.437 V 1669.4968 Z"
   id="path14" /></svg>
