<?xml version="1.0" encoding="UTF-8" standalone="no"?>
<svg
   xmlns:dc="http://purl.org/dc/elements/1.1/"
   xmlns:cc="http://creativecommons.org/ns#"
   xmlns:rdf="http://www.w3.org/1999/02/22-rdf-syntax-ns#"
   xmlns:svg="http://www.w3.org/2000/svg"
   xmlns="http://www.w3.org/2000/svg"
   version="1.1"
   id="svg8"
   x="0px"
   y="0px"
   viewBox="0 0 2267.7 2267.7"
   style="enable-background:new 0 0 2267.7 2267.7;"
   xml:space="preserve"><metadata
   id="metadata10"><rdf:RDF><cc:Work
       rdf:about=""><dc:format>image/svg+xml</dc:format><dc:type
         rdf:resource="http://purl.org/dc/dcmitype/StillImage" /><dc:title></dc:title></cc:Work></rdf:RDF></metadata><defs
   id="defs8" />
<style
   type="text/css"
   id="style2">
	.st0{fill:none;stroke:#000000;stroke-miterlimit:10;}
</style>

<path
   id="path5"
   style="fill:none"
   d="m 1126.5098,6.3242188 c -11.5333,0.079336 -23.0905,0.3228495 -34.5768,0.7420086 -18.8969,0.6930532 -37.6705,1.8369503 -56.5006,3.4670946 -8.9592,0.770927 -18.0489,1.66406 -26.9866,2.655722 -22.879,2.523433 -45.62817,5.748301 -68.32643,9.671376 -14.3955,2.487412 -28.85563,5.280586 -43.14405,8.334895 -28.62977,6.10803 -57.07322,13.365797 -85.19805,21.71648 -23.97666,7.134178 -47.81538,15.090373 -71.29786,23.827258 -27.4728,10.217679 -54.64992,21.553843 -81.27308,33.919957 -10.15369,4.71163 -20.35817,9.6324 -30.36363,14.65526 -37.43513,18.75087 -73.80606,39.62056 -108.92278,62.41815 -29.8549,19.40769 -58.89631,40.27496 -86.82273,62.43859 -22.95503,18.21009 -45.27842,37.37329 -66.7765,57.33797 -19.90548,18.47194 -39.21666,37.74099 -57.76743,57.62953 -18.55356,19.89037 -36.46174,40.52918 -53.55989,61.737 -22.38468,27.76234 -43.51783,56.65995 -63.19633,86.4471 -29.93247,45.29018 -56.64962,92.84166 -79.74481,142.02049 -5.74036,12.2135 -11.31936,24.65922 -16.608222,37.07916 -3.837841,8.98919 -7.552858,18.04455 -11.138165,27.09573 -11.525665,29.12427 -21.825595,58.7108 -30.874735,88.72192 -6.056785,20.064 -11.569704,40.38811 -16.488572,60.80029 -4.890305,20.24604 -9.21264,40.6622 -12.973225,61.21682 -3.179569,17.3767 -5.961382,34.91563 -8.32341,52.46162 -1.38116,10.24449 -2.636652,20.68766 -3.733331,30.96656 -1.339197,12.6015 -2.469206,25.1407 -3.3856266,37.7763 -1.0656141,14.5947 -1.8496746,29.2406 -2.3502363,43.914 -0.8636815,25.1215 -0.8925947,50.3862 -0.1050648,75.5556 0.3294476,10.3604 0.8038535,20.8884 1.4161955,31.2434 0.6480188,11.0538 1.4673616,22.0531 2.4322791,33.0989 0.7413851,8.2869 1.5662581,16.719 2.4921611,24.9971 1.140347,10.3455 2.432204,20.686 3.857959,30.9584 2.003398,14.4458 4.304705,28.9159 6.85281,43.234 2.89122,16.1581 6.134161,32.2529 9.71875,48.2715 3.212026,14.2787 6.707726,28.6031 10.4871,42.7847 9.119368,34.3031 19.903484,68.2614 32.27332,101.6023 7.261235,19.5916 15.139536,39.1189 23.494165,58.2775 28.414678,65.1629 63.074578,127.6551 103.279138,186.3237 31.80911,46.4202 67.08978,90.459 105.43307,131.6465 8.53834,9.1628 17.32764,18.3005 26.16585,27.1777 30.91995,31.0795 63.65153,60.3546 97.9572,87.6505 26.23987,20.8662 53.50741,40.648 81.55216,59.1385 10.46668,6.8985 21.18422,13.7185 31.88132,20.2601 30.22872,18.5189 61.33892,35.5973 93.1798,51.1814 6.09466,2.9815 12.37396,5.9744 18.51758,8.8536 19.05699,8.8812 38.2887,17.2237 57.8064,25.0276 31.00826,12.4039 62.65805,23.4575 94.71602,33.052 10.57614,3.1741 21.34076,6.2189 32.00375,9.0686 12.01942,3.2192 24.1224,6.2326 36.20347,9.0397 18.24794,4.2313 36.66282,8.0209 55.13496,11.3421 16.46145,2.9542 33.09136,5.5605 49.70774,7.79 10.24635,1.3716 20.67946,2.6217 30.96726,3.7099 12.599,1.3356 25.1368,2.452 37.7724,3.3633 14.5888,1.0558 29.2381,1.8311 43.9076,2.3235 22.9862,0.7733 46.112,0.8565 69.1486,0.2433 12.5128,-0.3297 25.1374,-0.8739 37.634,-1.6209 10.817,-0.6392 21.5848,-1.4462 32.3962,-2.3903 8.2856,-0.7412 16.7164,-1.566 24.9932,-2.492 10.3442,-1.1403 20.6834,-2.4323 30.9545,-3.8579 14.4446,-2.003 28.9133,-4.3049 43.2301,-6.8528 14.4213,-2.5845 28.7995,-5.4369 43.0779,-8.5721 26.6283,-5.835 53.1332,-12.6789 79.3032,-20.4519 21.9302,-6.5282 43.7603,-13.7498 65.2876,-21.6198 31.4291,-11.4916 62.4485,-24.4309 92.761,-38.7112 8.2491,-3.885 16.5506,-7.9147 24.7006,-12.0064 39.4913,-19.7802 77.801,-41.9135 114.6998,-66.1875 43.7324,-28.7998 85.5631,-60.6935 124.9241,-95.2955 15.7718,-13.8651 31.1096,-28.1083 46.0859,-42.826 13.4131,-13.1661 26.5926,-26.7764 39.3308,-40.5985 17.0699,-18.5236 33.519,-37.6182 49.3252,-57.2311 6.5301,-8.1287 13.0767,-16.465 19.4051,-24.8044 15.5503,-20.4384 30.3953,-41.4126 44.5187,-62.8617 6.8881,-10.4772 13.7029,-21.1936 20.2349,-31.9017 21.8915,-35.7972 41.7657,-72.8269 59.5229,-110.8444 13.2935,-28.4823 25.4395,-57.618 36.3039,-87.1565 8.6272,-23.4445 16.523,-47.3374 23.554,-71.314 2.7783,-9.454 5.4256,-18.9529 7.9436,-28.4416 3.224,-12.1693 6.2419,-24.3827 9.0482,-36.6205 3.726,-16.242 7.0955,-32.6028 10.0997,-49.0442 3.1583,-17.2745 5.9243,-34.7115 8.2742,-52.154 1.3826,-10.2418 2.6382,-20.6824 3.7363,-30.9585 1.3398,-12.5982 2.4717,-25.1341 3.3888,-37.7662 0.5008,-6.8144 0.9413,-13.7218 1.3113,-20.535 1.7238,-31.3591 2.1478,-62.7822 1.2881,-94.205 -0.336,-12.51 -0.8932,-25.1369 -1.6494,-37.6327 -0.6307,-10.5471 -1.4241,-21.053 -2.3445,-31.5975 -0.7427,-8.2865 -1.5679,-16.717 -2.4947,-24.995 -1.1375,-10.31097 -2.4259,-20.6168 -3.8469,-30.85507 -2.0031,-14.44519 -4.3049,-28.91454 -6.8528,-43.232 -2.5844,-14.42134 -5.4371,-28.79951 -8.5719,-43.07792 -3.7993,-17.33673 -8.0364,-34.66338 -12.666,-51.83706 -2.7177,-10.04553 -5.6028,-20.21738 -8.6042,-30.19016 -6.3705,-21.24983 -13.3896,-42.304 -21.0075,-63.139 -6.4738,-17.66123 -13.4222,-35.26813 -20.7922,-52.62168 -5.7376,-13.51282 -11.7854,-27.01834 -18.0515,-40.28993 -21.6679,-45.94622 -46.4751,-90.40849 -74.1407,-133.01222 -19.4265,-29.88647 -40.3197,-58.95437 -62.5057,-86.90956 -18.2147,-22.95512 -37.3801,-45.28015 -57.3486,-66.77868 -8.5104,-9.17311 -17.2906,-18.31569 -26.1051,-27.19759 -10.3262,-10.40988 -20.8638,-20.62003 -31.6064,-30.64096 -21.4262,-19.97683 -43.7031,-39.19858 -66.6464,-57.47986 -27.8695,-22.21016 -56.8631,-43.16757 -86.7401,-62.66323 -43.7009,-28.53419 -89.4843,-54.08647 -136.766,-76.29017 -12.1832,-5.72724 -24.6,-11.29144 -36.989,-16.568966 -17.8819,-7.633623 -36.0337,-14.808702 -54.2478,-21.486606 -21.6792,-7.930261 -43.5997,-15.199564 -65.7246,-21.785157 -9.9948,-2.965694 -20.1691,-5.845538 -30.2398,-8.53034 -20.2539,-5.415284 -40.6887,-10.262729 -61.1516,-14.513073 -24.6145,-5.124829 -49.3425,-9.395025 -74.2546,-12.859413 -16.5199,-2.29477 -33.1336,-4.225927 -49.7598,-5.787938 -14.6468,-1.3732726 -29.3929,-2.4738919 -44.071,-3.2739421 -23.3493,-1.2879171 -46.6759,-1.8369662 -70.0759,-1.6993561 z m 325.25,368.4433612 c 48.7289,-0.0131 97.4626,6.50304 144.433,19.48923 50.908,14.05015 99.7041,35.68093 144.3398,63.89745 53.6061,33.856 101.2054,77.1899 139.9462,127.38151 36.9956,47.85815 65.908,101.95665 85.0111,159.35731 16.7378,50.16422 25.9475,102.80824 27.4094,155.66469 1.4942,52.81691 -4.6549,105.85863 -18.4442,156.87203 -15.0782,55.9395 -39.3155,109.3847 -71.3828,157.6309 -35.451,53.4192 -80.4633,100.4677 -132.2464,138.2687 -48.4971,35.4524 -102.9413,62.7569 -160.4009,80.3081 -50.899,15.5874 -104.1161,23.4925 -157.3422,23.5831 -53.206,0.1393 -106.4366,-7.5287 -157.3848,-22.8835 -56.0223,-16.8396 -109.2288,-42.9421 -156.9002,-76.8338 -52.0021,-36.9251 -97.4219,-83.0862 -133.4911,-135.6857 -32.93473,-47.9644 -58.06664,-101.2845 -73.99025,-157.2533 -14.61517,-51.222 -21.49262,-104.61544 -20.57324,-157.86792 0.87346,-53.29596 9.60704,-106.46571 26.00604,-157.18978 18.4631,-57.25095 46.65206,-111.33084 82.90645,-159.32438 39.0184,-51.728 87.3712,-96.39362 142.0459,-131.16275 48.3265,-30.77633 101.5902,-53.79174 157.1498,-67.80221 43.3939,-10.97428 88.1515,-16.45653 132.9084,-16.44968 z" />
</svg>
