<?xml version="1.0" encoding="UTF-8" standalone="no"?>
<svg
   xmlns:dc="http://purl.org/dc/elements/1.1/"
   xmlns:cc="http://creativecommons.org/ns#"
   xmlns:rdf="http://www.w3.org/1999/02/22-rdf-syntax-ns#"
   xmlns:svg="http://www.w3.org/2000/svg"
   xmlns="http://www.w3.org/2000/svg"
   version="1.1"
   id="svg8"
   x="0px"
   y="0px"
   viewBox="0 0 2267.7 2267.7"
   style="enable-background:new 0 0 2267.7 2267.7;"
   xml:space="preserve"><metadata
   id="metadata10"><rdf:RDF><cc:Work
       rdf:about=""><dc:format>image/svg+xml</dc:format><dc:type
         rdf:resource="http://purl.org/dc/dcmitype/StillImage" /><dc:title></dc:title></cc:Work></rdf:RDF></metadata><defs
   id="defs8" />
<style
   type="text/css"
   id="style2">
	.st0{fill:none;stroke:#000000;stroke-miterlimit:10;}
</style>

<path
   style="fill:none;stroke-width:1.1289"
   d="m 1449.0089,488.42967 c -12.2791,0.14811 -24.6099,0.78866 -36.8954,1.94633 -6.1948,0.59055 -12.5634,1.33725 -18.7216,2.19848 -9.7494,1.37438 -19.3378,3.05657 -29.0003,5.11719 -28.3219,6.02344 -56.2327,15.02585 -82.8003,26.78844 -4.7215,2.08057 -9.2934,4.20537 -13.9548,6.46261 -4.4201,2.15945 -8.6447,4.29362 -12.9973,6.59736 -17.1977,9.1017 -33.8606,19.48424 -49.5769,30.81433 -43.6271,31.48183 -81.3026,71.2201 -110.2056,116.6095 -11.8321,18.55348 -22.2293,38.02202 -31.0604,58.17751 -1.9124,4.39259 -3.8463,8.9873 -5.6125,13.45516 -5.5692,14.02264 -10.4236,28.4759 -14.427,42.93339 -4.7338,17.17788 -8.406,34.64781 -10.9656,52.28142 -0.3272,2.36115 -0.705,4.96012 -1.0021,7.41972 -0.4976,3.86688 -0.9291,7.76127 -1.3135,11.52012 -0.6202,6.34051 -1.1194,12.74832 -1.4554,19.0352 -0.687,12.37734 -0.7705,24.78398 -0.4199,37.17397 0.3964,12.1951 1.3035,24.5991 2.765,36.79986 2.1866,18.56929 5.6353,36.98684 10.2553,55.10394 0.6967,2.6588 1.4453,5.537 2.211,8.2668 7.0938,25.5924 16.7236,50.7204 28.57,74.5898 15.9653,32.1937 36.1421,62.528 59.7819,89.7336 15.5593,17.9101 32.5919,34.5427 50.8964,49.6373 30.105,24.8504 63.8223,45.6791 99.664,61.3695 15.772,6.9134 32.1094,12.9389 48.6735,17.8749 23.6297,7.068 48.1146,12.0886 72.708,14.9087 7.2962,0.8478 14.8098,1.5029 22.2295,1.9655 3.0371,0.1798 6.3323,0.36 9.4728,0.4764 9.5536,0.3866 19.1195,0.4451 28.6778,0.2101 2.3508,-0.075 4.9445,-0.1416 7.3875,-0.2587 3.2331,-0.1349 6.4671,-0.3098 9.6175,-0.5245 6.013,-0.3876 12.0156,-0.9228 18.0069,-1.5604 2.3007,-0.2643 4.846,-0.5389 7.2362,-0.8517 3.3834,-0.4208 6.7381,-0.8829 10.0419,-1.3847 5.8183,-0.8571 11.7611,-1.9007 17.445,-2.9773 6.9525,-1.3482 13.9009,-2.8736 20.6824,-4.5334 14.2971,-3.528 28.4126,-7.7794 42.3157,-12.7847 29.3726,-10.5654 57.7223,-24.5316 84.1031,-41.3572 12.083,-7.7002 23.9676,-16.1483 35.2836,-25.109 5.1656,-4.0858 10.362,-8.3913 15.3183,-12.7205 24.7777,-21.5621 47.0444,-46.002 66.2526,-72.6445 12.6397,-17.563 24.0427,-36.2449 33.8838,-55.5967 4.3792,-8.5933 8.5488,-17.533 12.3171,-26.4149 4.7493,-11.1554 9.0707,-22.6975 12.846,-34.2962 6.0794,-18.721 10.9306,-38.0627 14.3376,-57.54352 0.6737,-3.93622 1.3439,-8.07727 1.9223,-12.00844 0.7166,-4.83566 1.3384,-9.70688 1.8655,-14.49553 0.8039,-7.2289 1.4146,-14.43031 1.8559,-21.65252 1.1648,-19.73903 1.0246,-39.64715 -0.5478,-59.41909 -0.7701,-9.93038 -1.8823,-19.68358 -3.322,-29.55806 -1.4558,-9.75035 -3.2437,-19.46471 -5.3583,-29.00702 -1.3066,-5.9353 -2.7914,-11.96139 -4.3167,-17.72186 -4.1712,-15.66603 -9.254,-31.08859 -15.2171,-46.16383 -2.6803,-6.761 -5.5928,-13.62234 -8.6527,-20.29673 -14.2821,-31.24675 -32.472,-60.92961 -53.9218,-87.87082 -27.6917,-34.84053 -60.8576,-65.31959 -97.931,-89.94424 -14.3833,-9.56492 -29.3528,-18.24482 -44.7903,-25.99337 -1.4912,-0.72813 -3.1216,-1.55758 -4.6291,-2.27982 -23.6145,-11.47403 -48.2998,-20.73988 -73.6323,-27.63721 -2.0352,-0.52874 -4.305,-1.16023 -6.4418,-1.68994 -6.2421,-1.59522 -12.5015,-3.03749 -18.7608,-4.33467 -7.2402,-1.50013 -14.5101,-2.81387 -21.863,-3.9334 -8.4403,-1.29618 -16.971,-2.32705 -25.5239,-3.10856 -4.7405,-0.42394 -9.84,-0.80311 -14.6094,-1.07471 -5.1077,-0.28659 -10.3103,-0.51021 -15.3326,-0.61353 -4.4542,-0.0939 -8.9097,-0.11665 -13.3649,-0.10592 z"
   id="path834-3" /><path
   id="path5"
   style="fill:none"
   d="M 1135.2812 6.3046875 C 1132.3584 6.3003287 1129.4348 6.3070175 1126.5098 6.3242188 C 1114.9765 6.4035547 1103.4199 6.6472471 1091.9336 7.0664062 C 1073.0367 7.7594595 1054.2617 8.9030588 1035.4316 10.533203 C 1026.4724 11.30413 1017.383 12.197791 1008.4453 13.189453 C 985.56631 15.712886 962.8174 18.938253 940.11914 22.861328 C 925.72364 25.34874 911.26303 28.141003 896.97461 31.195312 C 868.34484 37.303342 839.90217 44.561426 811.77734 52.912109 C 787.80068 60.046287 763.961 68.001396 740.47852 76.738281 C 713.00572 86.95596 685.83019 98.292089 659.20703 110.6582 C 649.05334 115.36983 638.84726 120.29159 628.8418 125.31445 C 591.40667 144.06532 555.03664 164.93483 519.91992 187.73242 C 490.06502 207.14011 461.02408 228.00824 433.09766 250.17188 C 410.14263 268.38197 387.81839 287.54509 366.32031 307.50977 C 346.41483 325.98171 327.1035 345.25013 308.55273 365.13867 C 289.99917 385.02904 272.09229 405.66718 254.99414 426.875 C 232.60946 454.63734 211.47537 483.53512 191.79688 513.32227 C 161.86441 558.61245 135.14792 606.16492 112.05273 655.34375 C 106.31237 667.55725 100.73222 680.00194 95.443359 692.42188 C 91.605518 701.41107 87.891948 710.4664 84.306641 719.51758 C 72.780976 748.64185 62.480781 778.22911 53.431641 808.24023 C 47.374856 828.30423 41.862227 848.62884 36.943359 869.04102 C 32.053054 889.28706 27.729335 909.70319 23.96875 930.25781 C 20.789181 947.63451 18.008512 965.17276 15.646484 982.71875 C 14.265324 992.96324 13.008788 1003.4066 11.912109 1013.6855 C 10.572912 1026.287 9.4437644 1038.8253 8.5273438 1051.4609 C 7.4617297 1066.0556 6.6763429 1080.7016 6.1757812 1095.375 C 5.3120997 1120.4965 5.2847357 1145.7622 6.0722656 1170.9316 C 6.4017132 1181.292 6.8759392 1191.8188 7.4882812 1202.1738 C 8.1363001 1213.2276 8.9550044 1224.2276 9.9199219 1235.2734 C 10.661307 1243.5603 11.486206 1251.9914 12.412109 1260.2695 C 13.552456 1270.615 14.843776 1280.9561 16.269531 1291.2285 C 18.272929 1305.6743 20.574942 1320.1448 23.123047 1334.4629 C 26.014267 1350.621 29.257208 1366.7158 32.841797 1382.7344 C 36.053823 1397.0131 39.548751 1411.3379 43.328125 1425.5195 C 52.447493 1459.8226 63.231726 1493.7802 75.601562 1527.1211 C 82.862797 1546.7127 90.741074 1566.2398 99.095703 1585.3984 C 127.51038 1650.5613 162.17044 1713.0541 202.375 1771.7227 C 234.18411 1818.1429 269.4653 1862.1816 307.80859 1903.3691 C 316.34693 1912.5319 325.1364 1921.6697 333.97461 1930.5469 C 364.89456 1961.6264 397.62597 1990.9014 431.93164 2018.1973 C 458.17151 2039.0635 485.43962 2058.8454 513.48438 2077.3359 C 523.95105 2084.2344 534.66813 2091.0541 545.36523 2097.5957 C 575.59395 2116.1146 606.70404 2133.1932 638.54492 2148.7773 C 644.63958 2151.7588 650.91888 2154.7517 657.0625 2157.6309 C 676.11949 2166.5121 695.35144 2174.8543 714.86914 2182.6582 C 745.8774 2195.0621 777.52601 2206.1164 809.58398 2215.7109 C 820.16012 2218.885 830.9249 2221.9296 841.58789 2224.7793 C 853.60731 2227.9985 865.7119 2231.0113 877.79297 2233.8184 C 896.04091 2238.0497 914.45559 2241.839 932.92773 2245.1602 C 949.38918 2248.1144 966.01839 2250.7217 982.63477 2252.9512 C 992.88112 2254.3228 1003.3138 2255.572 1013.6016 2256.6602 C 1026.2006 2257.9958 1038.7394 2259.1121 1051.375 2260.0234 C 1065.9638 2261.0792 1080.6118 2261.8553 1095.2812 2262.3477 C 1118.2675 2263.121 1141.395 2263.205 1164.4316 2262.5918 C 1176.9444 2262.2621 1189.5679 2261.7177 1202.0645 2260.9707 C 1212.8815 2260.3315 1223.6495 2259.5242 1234.4609 2258.5801 C 1242.7465 2257.8389 1251.1763 2257.0139 1259.4531 2256.0879 C 1269.7973 2254.9476 1280.1371 2253.6561 1290.4082 2252.2305 C 1304.8528 2250.2275 1319.3219 2247.9249 1333.6387 2245.377 C 1348.06 2242.7925 1362.4384 2239.9399 1376.7168 2236.8047 C 1403.3451 2230.9697 1429.8495 2224.1265 1456.0195 2216.3535 C 1477.9497 2209.8253 1499.7793 2202.6024 1521.3066 2194.7324 C 1552.7357 2183.2408 1583.7559 2170.3018 1614.0684 2156.0215 C 1622.3175 2152.1365 1630.6195 2148.1073 1638.7695 2144.0156 C 1678.2608 2124.2354 1716.57 2102.1021 1753.4688 2077.8281 C 1797.2012 2049.0283 1839.0316 2017.1352 1878.3926 1982.5332 C 1894.1644 1968.6681 1909.5022 1954.4247 1924.4785 1939.707 C 1937.8916 1926.5409 1951.0723 1912.9295 1963.8105 1899.1074 C 1980.8804 1880.5838 1997.3286 1861.4899 2013.1348 1841.877 C 2019.6649 1833.7483 2026.2107 1825.4117 2032.5391 1817.0723 C 2048.0894 1796.6339 2062.9352 1775.66 2077.0586 1754.2109 C 2083.9467 1743.7337 2090.761 1733.0167 2097.293 1722.3086 C 2119.1845 1686.5114 2139.0592 1649.4823 2156.8164 1611.4648 C 2170.1099 1582.9825 2182.2567 1553.8471 2193.1211 1524.3086 C 2201.7483 1500.8641 2209.6428 1476.9707 2216.6738 1452.9941 C 2219.4521 1443.5401 2222.0992 1434.0414 2224.6172 1424.5527 C 2227.8412 1412.3834 2230.8597 1400.1694 2233.666 1387.9316 C 2237.392 1371.6896 2240.7614 1355.3301 2243.7656 1338.8887 C 2246.9239 1321.6142 2249.6892 1304.1769 2252.0391 1286.7344 C 2253.4217 1276.4926 2254.6773 1266.0515 2255.7754 1255.7754 C 2257.1152 1243.1772 2258.2489 1230.6419 2259.166 1218.0098 C 2259.6668 1211.1954 2260.1066 1204.2878 2260.4766 1197.4746 C 2262.2004 1166.1155 2262.6234 1134.6923 2261.7637 1103.2695 C 2261.4277 1090.7595 2260.8714 1078.1325 2260.1152 1065.6367 C 2259.4845 1055.0896 2258.6919 1044.5836 2257.7715 1034.0391 C 2257.0288 1025.7526 2256.2022 1017.3229 2255.2754 1009.0449 C 2254.1379 998.73395 2252.8507 988.42772 2251.4297 978.18945 C 2249.4266 963.74426 2247.1241 949.27449 2244.5762 934.95703 C 2241.9918 920.53569 2239.1387 906.15732 2236.0039 891.87891 C 2232.2046 874.54218 2227.9675 857.21665 2223.3379 840.04297 C 2220.6202 829.99744 2217.7358 819.82434 2214.7344 809.85156 C 2208.3639 788.60173 2201.3445 767.54789 2193.7266 746.71289 C 2187.2528 729.05166 2180.3036 711.44535 2172.9336 694.0918 C 2167.196 680.57898 2161.1489 667.07237 2154.8828 653.80078 C 2133.2149 607.85456 2108.4078 563.39279 2080.7422 520.78906 C 2061.3157 490.90259 2040.4223 461.8341 2018.2363 433.87891 C 2000.0216 410.92379 1980.8572 388.60009 1960.8887 367.10156 C 1952.3783 357.92845 1943.5977 348.78424 1934.7832 339.90234 C 1924.457 329.49246 1913.9184 319.28265 1903.1758 309.26172 C 1881.7496 289.28489 1859.4726 270.06448 1836.5293 251.7832 C 1808.6598 229.57304 1779.6661 208.6148 1749.7891 189.11914 C 1706.0882 160.58495 1660.3051 135.03183 1613.0234 112.82812 C 1600.8402 107.10089 1588.4242 101.53729 1576.0352 96.259766 C 1558.1533 88.626143 1540.0012 81.451341 1521.7871 74.773438 C 1500.1079 66.843176 1478.1874 59.573874 1456.0625 52.988281 C 1446.0677 50.022587 1435.893 47.141833 1425.8223 44.457031 C 1405.5684 39.041747 1385.1348 34.195656 1364.6719 29.945312 C 1340.0574 24.820484 1315.3281 20.550325 1290.416 17.085938 C 1273.8961 14.791168 1257.2825 12.858886 1240.6562 11.296875 C 1226.0095 9.9236024 1211.264 8.8234877 1196.5859 8.0234375 C 1176.1553 6.89651 1155.7415 6.3351992 1135.2812 6.3046875 z M 1445.5605 273.85938 C 1452.295 273.84316 1459.0307 273.87759 1465.7637 274.01953 C 1473.3554 274.17571 1481.2187 274.5121 1488.9395 274.94531 C 1496.1489 275.35586 1503.8576 275.92948 1511.0234 276.57031 C 1523.952 277.75164 1536.8471 279.31022 1549.6055 281.26953 C 1560.7201 282.96182 1571.708 284.94724 1582.6523 287.21484 C 1592.1139 289.17566 1601.5761 291.35625 1611.0117 293.76758 C 1614.2417 294.56829 1617.6736 295.52303 1620.75 296.32227 C 1659.0427 306.74829 1696.3569 320.7535 1732.0527 338.09766 C 1734.3314 339.1894 1736.7947 340.44428 1739.0488 341.54492 C 1762.3842 353.25765 1785.0121 366.37758 1806.7539 380.83594 C 1862.7942 418.05861 1912.9283 464.13187 1954.7871 516.79688 C 1987.2107 557.52126 2014.7061 602.38842 2036.2949 649.62109 C 2040.9203 659.71013 2045.3234 670.08279 2049.375 680.30273 C 2058.3888 703.09059 2066.0718 726.40307 2072.377 750.08398 C 2074.6826 758.79141 2076.9272 767.90124 2078.9023 776.87305 C 2082.0987 791.29721 2084.8014 805.98017 2087.002 820.71875 C 2089.1783 835.64506 2090.8593 850.38763 2092.0234 865.39844 C 2094.4002 895.28569 2094.6123 925.37928 2092.8516 955.2168 C 2092.1845 966.13389 2091.2621 977.02005 2090.0469 987.94727 C 2089.2502 995.18588 2088.3099 1002.5499 2087.2266 1009.8594 C 2086.3523 1015.8018 2085.3387 1022.0618 2084.3203 1028.0117 C 2079.1703 1057.4588 2071.8381 1086.6954 2062.6484 1114.9941 C 2056.9417 1132.5267 2050.4096 1149.9733 2043.2305 1166.8359 C 2037.5343 1180.2618 2031.2309 1193.774 2024.6113 1206.7637 C 2009.7354 1236.0159 1992.4988 1264.2564 1973.3926 1290.8047 C 1944.3575 1331.0775 1910.6981 1368.02 1873.2441 1400.6133 C 1865.7521 1407.1574 1857.8981 1413.6657 1850.0898 1419.8418 C 1832.9845 1433.3868 1815.0206 1446.1573 1796.7559 1457.7969 C 1756.8787 1483.2305 1714.0247 1504.3418 1669.625 1520.3125 C 1648.6091 1527.8785 1627.2717 1534.3058 1605.6602 1539.6387 C 1595.4093 1542.1477 1584.9059 1544.4523 1574.3965 1546.4902 C 1565.8047 1548.1176 1556.8222 1549.6966 1548.0273 1550.9922 C 1543.0332 1551.7507 1537.9621 1552.4479 1532.8477 1553.084 C 1529.2347 1553.5568 1525.386 1553.9735 1521.9082 1554.373 C 1512.8518 1555.3368 1503.7787 1556.1446 1494.6895 1556.7305 C 1489.9273 1557.0551 1485.0395 1557.3195 1480.1523 1557.5234 C 1476.4595 1557.7004 1472.5379 1557.8008 1468.9844 1557.9141 C 1454.536 1558.2694 1440.076 1558.1821 1425.6348 1557.5977 C 1420.8876 1557.4218 1415.9072 1557.1488 1411.3164 1556.877 C 1400.1007 1556.1777 1388.7438 1555.1878 1377.7148 1553.9062 C 1340.5394 1549.6434 1303.5273 1542.0531 1267.8086 1531.3691 C 1242.7703 1523.9079 1218.0754 1514.7999 1194.2344 1504.3496 C 1140.056 1480.632 1089.0888 1449.148 1043.582 1411.584 C 1015.9129 1388.767 990.16595 1363.6256 966.64648 1336.5527 C 930.91251 1295.4287 900.41248 1249.5743 876.2793 1200.9102 C 858.37225 1164.8292 843.81676 1126.8457 833.09375 1088.1602 C 831.93632 1084.0338 830.80509 1079.6831 829.75195 1075.6641 C 822.76835 1048.2784 817.55527 1020.4384 814.25 992.36914 C 812.04079 973.92639 810.66951 955.17632 810.07031 936.74219 C 809.54034 918.01344 809.66661 899.26048 810.70508 880.55078 C 811.21298 871.04749 811.9668 861.36166 812.9043 851.77734 C 813.48536 846.09553 814.13845 840.20849 814.89062 834.36328 C 815.33971 830.64534 815.90971 826.71553 816.4043 823.14648 C 820.2734 796.4915 825.82485 770.08514 832.98047 744.11914 C 839.03201 722.26516 846.37065 700.41729 854.78906 679.2207 C 857.45885 672.46701 860.38069 665.52072 863.27148 658.88086 C 876.62059 628.41379 892.33723 598.98493 910.22266 570.93945 C 953.91249 502.32874 1010.8637 442.26183 1076.8105 394.67383 C 1100.5673 377.54724 1125.7539 361.8519 1151.75 348.09375 C 1158.3294 344.61141 1164.717 341.38532 1171.3984 338.12109 C 1178.4446 334.70905 1185.3552 331.49655 1192.4922 328.35156 C 1232.6518 310.5712 1274.8409 296.96441 1317.6523 287.85938 C 1332.2582 284.74453 1346.753 282.20057 1361.4902 280.12305 C 1370.799 278.82122 1380.4251 277.69345 1389.7891 276.80078 C 1408.3599 275.05084 1426.9994 274.08326 1445.5605 273.85938 z " />
</svg>
