<?xml version="1.0" encoding="utf-8"?>
<!-- Generator: Adobe Illustrator 22.1.0, SVG Export Plug-In . SVG Version: 6.00 Build 0)  -->
<svg version="1.1"
	 id="svg8" inkscape:version="0.92.4 (5da689c313, 2019-01-14)" sodipodi:docname="ev2.svg" xmlns:cc="http://creativecommons.org/ns#" xmlns:dc="http://purl.org/dc/elements/1.1/" xmlns:inkscape="http://www.inkscape.org/namespaces/inkscape" xmlns:rdf="http://www.w3.org/1999/02/22-rdf-syntax-ns#" xmlns:sodipodi="http://sodipodi.sourceforge.net/DTD/sodipodi-0.dtd" xmlns:svg="http://www.w3.org/2000/svg"
	 xmlns="http://www.w3.org/2000/svg" xmlns:xlink="http://www.w3.org/1999/xlink" x="0px" y="0px" viewBox="0 0 2267.7 2267.7"
	 style="enable-background:new 0 0 2267.7 2267.7;" xml:space="preserve">
<style type="text/css">
	.st0{fill:none;stroke:#000000;stroke-miterlimit:10;}
</style>
<sodipodi:namedview  bordercolor="#666666" borderopacity="1.0" id="base" inkscape:current-layer="layer1" inkscape:cx="1118.46" inkscape:cy="883.83016" inkscape:document-units="mm" inkscape:pageopacity="0.0" inkscape:pageshadow="2" inkscape:window-height="962" inkscape:window-maximized="1" inkscape:window-width="1280" inkscape:window-x="-8" inkscape:window-y="-8" inkscape:zoom="0.1400905" pagecolor="#ffffff" showgrid="false">
	</sodipodi:namedview>
<g id="layer1" transform="translate(-77.082345,73.132292)" inkscape:groupmode="layer" inkscape:label="Capa 1">
	<path id="path3713" inkscape:connector-curvature="0" class="st0" d="M913.9,777.7c-33.3,139.4-25,245.6-25,253.9
		c2.1,20.8-8.3,39.5-25,49.9c-18.7,8.3-39.5,6.2-54.1-6.2c-104.1-79.1-185.2-127-256-156.1c-6.2-41.6-16.6-83.2-35.4-120.7
		c77,22.9,164.4,64.5,270.6,135.3c2.1-74.9,16.6-162.3,45.8-256C876.4,719.4,903.5,756.9,913.9,777.7z M1504.9,540.4
		c-29.1,27.1-56.2,52-77,77c-43.7-110.3-116.5-222.7-233.1-322.6C1076.2,398.9,1003.4,519.6,957.6,632c-20.8-25-45.8-49.9-77-77
		c58.3-129,147.8-258.1,281-364.2c12.5-6.2,22.9-10.4,35.4-10.4s27.1,4.2,37.5,10.4C1363.4,294.8,1450.8,417.6,1504.9,540.4z
		 M1860.8,800.6c-16.6,39.5-27.1,79.1-33.3,120.7c-66.6,31.2-145.7,79.1-241.4,154c-16.6,12.5-37.5,12.5-54.1,4.2
		c-18.7-10.4-27.1-29.1-27.1-47.9c2.1-10.4,10.4-124.9-27.1-272.6c16.6-20.8,41.6-56.2,81.2-91.6c29.1,95.7,43.7,189.4,49.9,266.4
		C1706.8,867.2,1788,825.6,1860.8,800.6z M1238.5,1137.7c0,8.3,0,16.6-4.2,22.9c-4.2,10.4-12.5,18.7-22.9,20.8
		c-18.7,6.2-39.5-2.1-49.9-18.7c0-4.2-2.1-4.2-4.2-8.3v-2.1c-10.4-14.6-16.6-39.5-16.6-43.7c-2.1-2.1-2.1-4.2-2.1-6.2
		c-47.9-112.4-104.1-210.2-166.5-289.3c4.2,0,6.2,0,6.2,0c12.5,0,22.9-4.2,33.3-10.4c14.6-8.3,22.9-22.9,27.1-37.5
		c37.5,49.9,70.8,102,102,160.3c-6.2-49.9-8.3-97.8-8.3-145.7c-6.2-27.1-22.9-47.9-54.1-62.4c-16.6-8.3-16.6-18.7-16.6-27.1
		c0-8.3,8.3-18.7,16.6-22.9c8.3,0,16.6,0,22.9,4.2c12.5,6.2,25,14.6,35.4,22.9c10.4-135.3,37.5-237.3,37.5-243.5
		c6.2-14.6,20.8-20.8,33.3-18.7c12.5,4.2,20.8,18.7,16.6,33.3c0,0-14.6,60.4-27.1,145.7c27.1-22.9,54.1-41.6,68.7-49.9
		c0-2.1,2.1-2.1,4.2-4.2c6.2-6.2,16.6-8.3,25-6.2c10.4,4.2,16.6,12.5,18.7,20.8c2.1,18.7-10.4,25-20.8,33.3
		c-22.9,14.6-81.2,52-104.1,95.7c0,2.1,0,2.1-2.1,2.1c-2.1,27.1-4.2,52-4.2,79.1c2.1,8.3,2.1,14.6,2.1,20.8c0,4.2,0,6.2-2.1,10.4
		c2.1,62.4,6.2,129,20.8,193.6c43.7-91.6,91.6-172.7,147.8-241.4c2.1,14.6,12.5,29.1,27.1,35.4c8.3,8.3,20.8,10.4,31.2,10.4
		c4.2,0,4.2,0,6.2,0C1344.7,898.4,1284.3,1010.8,1238.5,1137.7z M2295.8,1676.8l-1007.3,164.4v10.4v2.1c0,47.9-37.5,87.4-85.3,87.4
		c-49.9,0-87.4-39.5-87.4-87.4c0,0,0,0,0-2.1v-10.4l-988.6-170.7c-16.6,0-29.1-8.3-37.5-20.8s-12.5-29.1-8.3-43.7
		c4.2-27.1,29.1-45.8,56.2-45.8c2.1,0,6.2,2.1,8.3,2.1l1055.2,181.1l1076-176.9c31.2-4.2,60.4,16.6,64.5,47.9
		C2345.8,1645.5,2324.9,1674.7,2295.8,1676.8z M684.9,1354.2c-68.7-64.5-154-174.8-212.3-343.4c8.3,2.1,16.6,4.2,25,4.2
		c6.2,0,14.6,0,20.8-4.2c12.5-4.2,25-12.5,31.2-22.9c95.7,270.6,272.6,380.9,274.7,380.9c18.7,12.5,22.9,35.4,14.6,54.1
		C789,1397.9,739.1,1375,684.9,1354.2z M2300,852.6c-45.8,164.4-116.5,295.5-212.3,395.4c-99.9,14.6-191.5,37.5-276.8,64.5
		c174.8-64.5,301.8-210.2,372.5-426.6c-77-8.3-145.7-14.6-216.4-2.1c8.3-31.2,25-68.7,54.1-110.3c60.4-2.1,120.7,4.2,187.3,10.4
		c14.6,2.1,31.2,2.1,45.8,4.2c14.6,2.1,29.1,10.4,37.5,22.9C2300,823.5,2302.1,838,2300,852.6z M1546.6,1416.6
		c-12.5-18.7-6.2-41.6,14.6-54.1c2.1,0,176.9-106.1,274.7-380.9c8.3,10.4,18.7,18.7,31.2,22.9c8.3,2.1,14.6,4.2,22.9,4.2
		c8.3,0,16.6-2.1,25-4.2c-60.4,168.6-143.6,278.9-212.3,345.5c-54.1,22.9-106.1,45.8-151.9,68.7
		C1548.7,1416.6,1548.7,1416.6,1546.6,1416.6z M2208.4,1333.4c-8.3,8.3-18.7,14.6-31.2,14.6c-426.6,47.9-722.2,245.6-859.5,355.9
		l-91.6,14.6l0,0l-25,4.2l-135.3-22.9c-143.6-114.5-432.9-295.5-838.7-337.2c-25-4.2-43.7-27.1-39.5-49.9
		c2.1-22.9,20.8-41.6,43.7-41.6c2.1,0,4.2,0,4.2,0c518.2,56.2,849.1,314.3,959.4,418.3c99.9-91.6,435-372.5,974-430.8
		c2.1,0,4.2,0,6.2,0c22.9,0,41.6,18.7,43.7,39.5C2220.9,1310.5,2216.7,1323,2208.4,1333.4z M87.6,852.6
		c45.8,164.4,118.6,295.5,212.3,395.4c99.9,14.6,193.6,37.5,278.9,64.5C404,1248,277,1102.4,204.2,885.9
		c79.1-8.3,145.7-14.6,218.5-2.1c-10.4-31.2-25-68.7-54.1-110.3c-62.4-2.1-122.8,4.2-189.4,10.4c-14.6,2.1-29.1,2.1-45.8,4.2
		c-14.6,2.1-29.1,10.4-37.5,22.9"/>
</g>
</svg>
