<?xml version="1.0" encoding="UTF-8" standalone="no"?>
<svg
   xmlns:dc="http://purl.org/dc/elements/1.1/"
   xmlns:cc="http://creativecommons.org/ns#"
   xmlns:rdf="http://www.w3.org/1999/02/22-rdf-syntax-ns#"
   xmlns:svg="http://www.w3.org/2000/svg"
   xmlns="http://www.w3.org/2000/svg"
   version="1.1"
   id="svg8"
   x="0px"
   y="0px"
   viewBox="0 0 2267.7 2267.7"
   style="enable-background:new 0 0 2267.7 2267.7;"
   xml:space="preserve"><metadata
   id="metadata10"><rdf:RDF><cc:Work
       rdf:about=""><dc:format>image/svg+xml</dc:format><dc:type
         rdf:resource="http://purl.org/dc/dcmitype/StillImage" /><dc:title></dc:title></cc:Work></rdf:RDF></metadata><defs
   id="defs8" />
<style
   type="text/css"
   id="style2">
	.st0{fill:none;stroke:#000000;stroke-width:0.2646;}
</style>

<path
   style="fill:none;stroke:#000000;stroke-width:0.170981"
   d="m 1238.2893,600.05014 c -61.3225,-50.12949 -122.6445,-100.2596 -183.9674,-150.3887 -18.8428,283.7629 -37.6843,567.52586 -56.52568,851.28886 264.10088,-83.313 528.20088,-166.6283 792.30078,-249.9443 -76.1079,-62.18749 -152.2143,-124.37692 -228.3215,-186.56517 176.9154,-329.35214 678.3089,-641.18398 887.0071,-280.83882 19.6417,1.97759 22.1459,-16.27984 24.1643,-35.11084 C 2152.4076,85.50969 1499.9564,302.36958 1238.2893,600.05014 Z"
   id="path838" /><path
   id="path5"
   style="fill:none"
   d="m 1126.7227,20.423828 c -18.7967,0.146183 -37.5311,0.702568 -56.293,1.769783 -6.8876,0.387238 -13.8929,0.84412 -20.7833,1.362255 -10.4427,0.775541 -21.0109,1.713636 -31.4245,2.797388 -16.5486,1.703083 -33.08727,3.777688 -49.47848,6.218483 -20.31067,3.022687 -40.48467,6.595625 -60.61475,10.735796 -36.75741,7.581139 -73.17246,17.018677 -109.04292,28.320347 -45.63521,14.352939 -90.46038,31.76167 -133.77831,51.88892 -41.0377,19.0642 -80.90365,40.64845 -119.3133,64.56914 -23.0377,14.37061 -45.63952,29.61137 -67.6037,45.63415 -6.62968,4.83131 -13.27303,9.79705 -19.77499,14.76645 -29.6449,22.64873 -58.12092,46.7562 -85.36665,72.25093 -32.97997,30.86435 -64.16037,63.79986 -93.19826,98.46452 -22.66995,27.06262 -44.07173,55.20808 -64.0834,84.2911 -31.90279,46.36574 -60.3162,95.20803 -84.85037,145.90915 -14.4394,29.83016 -27.56306,60.3803 -39.276557,91.41113 -16.880319,44.73551 -30.87629,90.65963 -41.824768,137.26296 -10.328967,43.92825 -17.952949,88.52435 -22.863934,133.39847 -1.179331,10.8894 -2.234355,21.9353 -3.100569,32.8612 -3.283156,41.3323 -4.278529,82.8654 -3.003909,124.3652 0.46009,14.6256 1.188649,29.3705 2.215991,43.9737 1.323697,18.8682 3.115386,37.6402 5.385795,56.4314 4.723127,38.9992 11.535232,77.9226 20.388266,116.2243 3.708269,16.0866 7.805467,32.1477 12.222681,48.0132 3.343214,11.9771 6.883472,23.8991 10.61914,35.7597 3.107751,9.8279 6.390867,19.7623 9.767578,29.5078 8.20315,23.6257 17.151508,46.9126 26.920516,69.9039 8.92922,21.0526 18.56545,41.9067 28.80095,62.3976 15.78052,31.5635 33.10466,62.4749 51.84964,92.4219 7.75937,12.4082 15.84203,24.7886 24.08916,36.8785 33.54688,49.2344 71.06807,95.753 112.02723,139.0153 11.47108,12.1024 23.27506,24.0386 35.30491,35.6457 22.46319,21.6956 45.91591,42.5119 70.14822,62.2762 24.20048,19.7395 49.29633,38.4914 75.08898,56.1494 23.82053,16.2991 48.32534,31.7231 73.36975,46.126 36.25331,20.8739 73.78515,39.7369 112.20492,56.3924 19.16134,8.3192 38.51874,16.0418 58.10506,23.2615 15.64551,5.7558 31.60079,11.2085 47.52253,16.2605 11.09124,3.5222 22.23629,6.8519 33.39821,10.0133 38.26688,10.8022 77.08367,19.5518 116.3068,26.1786 16.22226,2.7496 32.58545,5.1406 48.89161,7.1644 25.02873,3.0891 50.03263,5.3304 75.22563,6.7415 10.4075,0.5697 20.9691,1.0258 31.4091,1.3102 22.1921,0.621 44.4548,0.5806 66.6122,-0.096 20.1739,-0.6285 40.2776,-1.785 60.3769,-3.4902 22.7451,-1.9282 45.5892,-4.5705 68.1543,-7.8984 20.6228,-3.0336 41.1742,-6.6531 61.6304,-10.8523 24.3519,-4.9996 48.62,-10.8418 72.6362,-17.4943 20.2018,-5.6014 40.3915,-11.8045 60.2522,-18.5505 72.9679,-24.7573 143.4084,-57.2191 209.6961,-96.6093 12.5952,-7.4814 25.0337,-15.1974 37.3361,-23.1868 48.8487,-31.6897 95.3089,-67.2644 138.651,-106.2132 46.343,-41.62 89.1977,-87.1198 127.9836,-135.8593 13.0199,-16.3876 25.7162,-33.2791 37.8487,-50.4339 21.1171,-29.8567 40.7678,-60.7507 58.8544,-92.5348 6.1636,-10.8439 12.2162,-21.9066 18.0121,-32.955 12.4259,-23.6633 23.992,-47.7781 34.6754,-72.2774 17.3299,-39.7636 32.324,-80.5352 44.869,-122.0751 5.3996,-17.8742 10.3617,-35.9579 14.8609,-54.1491 5.4822,-22.1739 10.2868,-44.5337 14.392,-67.0395 3.7276,-20.375 6.8827,-40.9585 9.4527,-61.4842 2.5959,-20.7258 4.6003,-41.5338 6.0456,-62.413 0.4892,-7.1488 0.9119,-14.3993 1.267,-21.5698 1.5431,-31.2276 1.7818,-62.5341 0.7397,-93.8103 -0.3089,-9.1261 -0.7359,-18.3599 -1.2594,-27.4793 -2.0402,-35.1143 -5.7285,-70.13317 -11.0811,-104.95215 -4.4614,-29.02352 -10.0967,-57.96969 -16.8707,-86.59154 -2.3759,-10.10994 -4.952,-20.28932 -7.6221,-30.3161 -4.8942,-18.39596 -10.2802,-36.66091 -16.1159,-54.78009 -1.6875,-5.18091 -3.4258,-10.48394 -5.1815,-15.64311 -21.0028,-61.97375 -47.5599,-122.05872 -79.1661,-179.35299 -3.4461,-6.24433 -7.0019,-12.53571 -10.5672,-18.71679 -2.514,-4.3578 -5.0601,-8.69718 -7.6281,-13.02344 -20.4375,12.36807 -40.6419,25.31979 -60.4704,38.72316 -15.4951,10.47201 -30.8869,21.33315 -45.9647,32.41131 -30.1979,22.18914 -59.5164,45.55524 -87.8511,70.10854 -26.8064,23.22803 -52.7233,47.51944 -77.5551,72.87158 -11.7017,11.97096 -23.1774,24.19682 -34.259,36.64418 -10.9014,12.24229 -21.544,24.69498 -31.6186,37.60721 -0.036,0.45124 0.8796,0.79486 1.2169,1.20389 125.7567,102.76682 251.5118,205.53564 377.2695,308.30124 -435.5625,137.3946 -871.1255,274.7874 -1306.68941,412.1777 31.06766,-467.9883 62.13524,-935.97664 93.20508,-1403.96482 100.74733,82.31791 201.49623,164.63397 302.24413,246.95117 17.3581,-16.34426 35.55,-31.7746 54.0091,-46.85518 39.7055,-32.31571 81.1915,-62.41144 123.8264,-90.73806 71.5854,-47.46257 146.6611,-89.64645 224.2895,-126.39312 7.0661,-3.34092 14.154,-6.63696 21.2637,-9.88474 -18.3372,-9.472 -37.0117,-18.46309 -55.8457,-26.90429 -16.5079,-7.39539 -33.2008,-14.3758 -50.0489,-20.958988 -29.269,-11.418659 -59.1368,-21.641364 -89.319,-30.534481 -8.0395,-2.370836 -16.2201,-4.685072 -24.3116,-6.867708 -16.1952,-4.379326 -32.5468,-8.391076 -48.9809,-12.041613 -10.1828,-2.249025 -20.5429,-4.405672 -30.7879,-6.363275 -29.7591,-5.725381 -59.7562,-10.205377 -89.8838,-13.474173 -8.2614,-0.887307 -16.7194,-1.711522 -24.9929,-2.418381 -18.7978,-1.60756 -37.5587,-2.744112 -56.415,-3.399812 -15.5425,-0.547266 -31.19,-0.765476 -46.7717,-0.677901 z" />
</svg>
