<?xml version="1.0" encoding="utf-8"?>
<!-- Generator: Adobe Illustrator 22.1.0, SVG Export Plug-In . SVG Version: 6.00 Build 0)  -->
<svg version="1.1"
	 id="svg8" inkscape:version="0.92.4 (5da689c313, 2019-01-14)" sodipodi:docname="feather.svg" xmlns:cc="http://creativecommons.org/ns#" xmlns:dc="http://purl.org/dc/elements/1.1/" xmlns:inkscape="http://www.inkscape.org/namespaces/inkscape" xmlns:rdf="http://www.w3.org/1999/02/22-rdf-syntax-ns#" xmlns:sodipodi="http://sodipodi.sourceforge.net/DTD/sodipodi-0.dtd" xmlns:svg="http://www.w3.org/2000/svg"
	 xmlns="http://www.w3.org/2000/svg" xmlns:xlink="http://www.w3.org/1999/xlink" x="0px" y="0px" viewBox="0 0 2267.7 2267.7"
	 style="enable-background:new 0 0 2267.7 2267.7;" xml:space="preserve">
<style type="text/css">
	.st0{fill:none;stroke:#000000;stroke-miterlimit:10;}
</style>
<sodipodi:namedview  bordercolor="#666666" borderopacity="1.0" id="base" inkscape:current-layer="layer1" inkscape:cx="1410.1476" inkscape:cy="1095.5629" inkscape:document-units="mm" inkscape:pageopacity="0.0" inkscape:pageshadow="2" inkscape:window-height="962" inkscape:window-maximized="1" inkscape:window-width="1280" inkscape:window-x="-8" inkscape:window-y="-8" inkscape:zoom="0.1400905" pagecolor="#ffffff" showgrid="false">
	</sodipodi:namedview>
<g id="layer1" transform="translate(0.09331865,129.1256)" inkscape:groupmode="layer" inkscape:label="Capa 1">
	<path id="path3713" inkscape:connector-curvature="0" class="st0" d="M1945.5,509.9c56.4,0,99.2,4.5,130.8,11.3
		c-87.9,196.1-214.2,410.3-399,597.4c-22.5-2.3-47.3-2.3-69.9-2.3c-257,0-372,87.9-378.7,90.2l-33.8,27.1l42.8-6.8
		c85.7-15.8,164.6-24.8,236.7-24.8c42.8,0,78.9,4.5,106,9c-362.9,317.9-809.3,444.1-1014.4,489.2L284.1,1982L4.5,2074.4l468.9-466.6
		c42.8-202.9,166.8-631.2,468.9-991.9c9,69.9,13.5,180.3-15.8,347.2l-9,42.8l27.1-36.1c6.8-4.5,110.5-144.3,90.2-455.4
		c2.3-2.3,4.5-6.8,9-9c74.4-74.4,151-137.5,232.2-196.1c9,69.9,13.5,182.6-15.8,347.2l-9,42.8l27.1-36.1c4.5-4.5,101.4-133,90.2-417
		c437.3-272.8,890.5-331.4,890.5-331.4s-29.3,223.2-142,507.2c-11.3,0-24.8,0-38.3,0c-257,0-372,87.9-376.5,90.2l-36.1,29.3l42.8-9
		C1794.4,516.7,1873.3,509.9,1945.5,509.9z M1339.1,805.3l-845.4,816.1l121.7-6.8L1339.1,805.3z"/>
</g>
</svg>
