<?xml version="1.0" encoding="utf-8"?>
<!-- Generator: Adobe Illustrator 22.1.0, SVG Export Plug-In . SVG Version: 6.00 Build 0)  -->
<svg version="1.1"
	 id="svg8" inkscape:version="0.92.4 (5da689c313, 2019-01-14)" sodipodi:docname="flow-cascade.svg" xmlns:cc="http://creativecommons.org/ns#" xmlns:dc="http://purl.org/dc/elements/1.1/" xmlns:inkscape="http://www.inkscape.org/namespaces/inkscape" xmlns:rdf="http://www.w3.org/1999/02/22-rdf-syntax-ns#" xmlns:sodipodi="http://sodipodi.sourceforge.net/DTD/sodipodi-0.dtd" xmlns:svg="http://www.w3.org/2000/svg"
	 xmlns="http://www.w3.org/2000/svg" xmlns:xlink="http://www.w3.org/1999/xlink" x="0px" y="0px" viewBox="0 0 2267.7 2267.7"
	 style="enable-background:new 0 0 2267.7 2267.7;" xml:space="preserve">
<style type="text/css">
	.st0{fill:none;stroke:#000000;stroke-width:0.2646;}
</style>
<sodipodi:namedview  bordercolor="#666666" borderopacity="1.0" id="base" inkscape:current-layer="layer1" inkscape:cx="1410.2949" inkscape:cy="1061.4683" inkscape:document-units="mm" inkscape:pageopacity="0.0" inkscape:pageshadow="2" inkscape:window-height="962" inkscape:window-maximized="1" inkscape:window-width="1280" inkscape:window-x="-8" inkscape:window-y="-8" inkscape:zoom="0.1400905" pagecolor="#ffffff" showgrid="false">
	</sodipodi:namedview>
<g id="layer1" transform="translate(0.13229166,120.13229)" inkscape:groupmode="layer" inkscape:label="Capa 1">
	<path id="path3713" inkscape:connector-curvature="0" class="st0" d="M1350.2,1738.3H955.8c-125,0-187.6-62.5-187.6-187.6v-466.5
		c57.7,25.7,120.2,38.5,187.6,38.5h394.4c48.1,118.6,136.3,178,264.5,178c80.2,0,148.3-28.1,204.4-84.2
		c56.1-56.1,84.2-124.2,84.2-204.4s-28.1-148.3-84.2-204.4c-56.1-56.1-124.2-84.2-204.4-84.2c-128.3,0-216.4,57.7-264.5,173.1H955.8
		c-125,0-187.6-62.5-187.6-187.6V434.9c115.4-54.5,173.1-142.7,173.1-264.5c0-80.2-28.1-148.3-84.2-204.4s-124.2-84.2-204.4-84.2
		S504.5-90.1,448.4-34s-84.2,124.2-84.2,204.4c0,121.8,57.7,210,173.1,264.5v1115.8c0,102.6,34.5,197.2,103.4,283.8
		s173.9,129.9,315,129.9h394.4c48.1,118.6,136.3,178,264.5,178c80.2,0,148.3-28.1,204.4-84.2c56.1-56.1,84.2-124.2,84.2-204.4
		c0-80.2-28.1-148.3-84.2-204.4c-56.1-56.1-124.2-84.2-204.4-84.2C1486.4,1565.2,1398.3,1622.9,1350.2,1738.3z M1732.5,891.8
		c33.7,32.1,50.5,72.1,50.5,120.2c0,44.9-16.8,83.4-50.5,115.4c-33.7,32.1-72.9,48.1-117.8,48.1c-44.9,0-84.2-16-117.8-48.1
		s-50.5-70.5-50.5-115.4c0-48.1,16.8-88.2,50.5-120.2s72.9-48.1,117.8-48.1C1659.6,843.7,1698.9,859.7,1732.5,891.8z M534.9,50.1
		C568.6,18.1,607.9,2,652.8,2s84.2,16,117.8,48.1c33.7,32.1,50.5,72.1,50.5,120.2c0,44.9-16.8,83.4-50.5,115.4
		c-33.7,32.1-72.9,48.1-117.8,48.1s-84.2-16-117.8-48.1s-50.5-70.5-50.5-115.4C484.4,122.3,501.3,82.2,534.9,50.1z M1496.9,1969.2
		c-33.7-32.1-50.5-70.5-50.5-115.4c0-48.1,16.8-88.2,50.5-120.2s72.9-48.1,117.8-48.1c44.9,0,84.2,16,117.8,48.1
		c33.7,32.1,50.5,72.1,50.5,120.2c0,44.9-16.8,83.4-50.5,115.4c-33.7,32.1-72.9,48.1-117.8,48.1
		C1536.9,2013.2,1496.9,1969.2,1496.9,1969.2z"/>
</g>
</svg>
