<?xml version="1.0" encoding="UTF-8" standalone="no"?>
<!-- Generator: Adobe Illustrator 22.1.0, SVG Export Plug-In . SVG Version: 6.00 Build 0)  -->

<svg
   version="1.1"
   id="svg8"
   x="0px"
   y="0px"
   viewBox="0 0 2267.7 2267.7"
   style="enable-background:new 0 0 2267.7 2267.7;"
   xml:space="preserve"
   xmlns="http://www.w3.org/2000/svg"
   xmlns:svg="http://www.w3.org/2000/svg"><defs
   id="defs193" />
<style
   type="text/css"
   id="style187">
	.st0{fill:none;stroke:#000000;stroke-width:0.25;stroke-miterlimit:10;}
</style>

<g
   id="layer1"
   transform="translate(-214.71495,97.132773)">
	<path
   d="m 966.41155,666.12891 c -126.0812,39.6254 -226.946,90.0579 -335.0155,104.4671 -72.0463,7.2047 -169.3088,-18.0116 -223.3435,-64.8417 -64.8417,-54.0348 -25.2163,-255.7645 25.2162,-320.6061 100.8648,-133.2857 201.7297,-270.1737 280.9806,-414.266295 28.8185,-54.0348 46.8301,-64.8417 93.6603,-64.8417 90.0579,3.6023 183.7181,-3.602297 270.17365,18.0116 151.2972,36.0231 298.9923,82.853201 446.6872,136.888 126.081,46.830095 140.4904,144.092595 64.8417,252.162095 -79.251,108.0694 -190.9227,162.1042 -306.1968,212.5366 -82.8534,36.0231 -100.8649,82.8533 -75.6486,169.3089 61.2392,208.9343 104.467,425.07339 162.1041,634.00769 21.6138,82.8532 57.6371,165.7067 93.6602,273.7759 18.0116,-54.0346 21.6139,-90.0578 39.6254,-115.274 46.8302,-68.4438 104.4673,-129.6832 151.2973,-198.1273 75.6486,-115.2742 57.6371,-144.0926 -75.6486,-172.9113 -64.8416,-14.4092 -129.6834,-39.6254 -183.718,-75.6487 -79.2511,-54.03469 -93.6603,-183.71809 -18.0116,-244.95749 79.2509,-64.8417 172.9111,-108.0694 262.969,-158.5019 57.6371,-32.4208 115.2741,-57.637 172.9112,-86.4556 147.6949,-64.8416 259.3667,-36.0231 345.8222,97.2626 61.2395,97.2625 118.8765,205.3319 151.2973,313.4014 36.0232,118.87649 -3.6022,169.30909 -122.4786,190.92289 -32.4209,7.2048 -68.4441,10.807 -100.8649,7.2048 -93.6602,-10.8071 -158.5019,18.0115 -183.7182,115.274 -7.2045,25.2161 -21.6138,46.8301 -39.6254,64.8417 -151.2973,136.888 -169.3088,313.4014 -154.8995,500.7218 3.6022,43.2279 10.8068,82.8533 18.0115,122.4788 28.8185,172.9112 7.2047,194.5252 -169.3088,201.7296 -82.8533,3.6026 -165.7067,3.6026 -252.1622,0 -129.6834,0 -180.1158,-46.8299 -169.3088,-169.3086 25.2161,-327.8109 -7.2046,-648.4169 -72.0464,-969.0231 -32.4209,-118.87659 -64.84155,-234.15069 -97.26245,-360.23169 z"
   id="path407"
   style="fill:none;stroke-width:36.0231" />
</g>
</svg>
