<?xml version="1.0" encoding="utf-8"?>
<!-- Generator: Adobe Illustrator 22.1.0, SVG Export Plug-In . SVG Version: 6.00 Build 0)  -->
<svg version="1.1"
	 id="svg8" inkscape:version="0.92.4 (5da689c313, 2019-01-14)" sodipodi:docname="fungi.svg" xmlns:cc="http://creativecommons.org/ns#" xmlns:dc="http://purl.org/dc/elements/1.1/" xmlns:inkscape="http://www.inkscape.org/namespaces/inkscape" xmlns:rdf="http://www.w3.org/1999/02/22-rdf-syntax-ns#" xmlns:sodipodi="http://sodipodi.sourceforge.net/DTD/sodipodi-0.dtd" xmlns:svg="http://www.w3.org/2000/svg"
	 xmlns="http://www.w3.org/2000/svg" xmlns:xlink="http://www.w3.org/1999/xlink" x="0px" y="0px" viewBox="0 0 2267.7 2267.7"
	 style="enable-background:new 0 0 2267.7 2267.7;" xml:space="preserve">
<style type="text/css">
	.st0{fill:none;stroke:#000000;stroke-width:0.25;stroke-miterlimit:10;}
</style>
<sodipodi:namedview  bordercolor="#666666" borderopacity="1.0" id="base" inkscape:current-layer="layer1" inkscape:cx="944.47857" inkscape:cy="972.26293" inkscape:document-units="mm" inkscape:pageopacity="0.0" inkscape:pageshadow="2" inkscape:window-height="962" inkscape:window-maximized="1" inkscape:window-width="1280" inkscape:window-x="-8" inkscape:window-y="-8" inkscape:zoom="0.1400905" pagecolor="#ffffff" showgrid="false">
	</sodipodi:namedview>
<g id="layer1" transform="translate(-214.71495,97.132773)" inkscape:groupmode="layer" inkscape:label="Capa 1">
	<path id="path3713" inkscape:connector-curvature="0" class="st0" d="M1084.5,2155c88.4,0,179.3-15.2,270.3,7.6
		c17.7,5.1,50.5,2.5,63.1-7.6c35.4-27.8,68.2-15.2,106.1-7.6c27.8,2.5,85.9,0,80.8-30.3c-5.1-25.3,0-20.2,20.2-20.2
		c20.2-2.5,40.4-5.1,60.6-5.1c-88.4-2.5-68.2-48-53-88.4c7.6-22.7,12.6-42.9,22.7-65.7c25.3-50.5,60.6-106.1,53-154.1
		c-7.6-50.5,2.5-96,10.1-141.5c10.1-65.7,22.7-131.3,25.3-197c2.5-37.9,15.2-70.7,40.4-101c10.1-7.6,17.7-20.2,35.4-10.1
		c103.6,63.1,192,5.1,270.3-37.9c80.8-42.9,70.7-126.3-15.2-154.1c-63.1-17.7-131.3-22.7-197-15.2c-58.1,7.6-103.6,40.4-108.6,90.9
		c-15.2,111.1-126.3,192-126.3,308.2c-12.6-50.5-10.1-98.5-12.6-149c-10.1-194.5,48-368.8,189.4-522.9c27.8-32.8,53-35.4,90.9-17.7
		c58.1,25.3,118.7,20.2,176.8,7.6c30.3-7.6,55.6-22.7,58.1-48c2.5-108.6,40.4-214.7,48-323.3c7.6-85.9-48-116.2-136.4-73.3
		c-88.4,45.5-181.9,75.8-280.4,96c-93.5,20.2-121.2,73.3-88.4,149c12.6,27.8,20.2,63.1,42.9,83.4c40.4,37.9,17.7,68.2-5.1,101
		c-30.3,40.4-63.1,80.8-96,123.8c-7.6,7.6-10.1,22.7-25.3,15.2c-42.9-27.8-123.8-22.7-113.7-93.5c2.5-15.2-10.1-30.3-17.7-42.9
		c-27.8-58.1-80.8-179.3-85.9-194.5c-22.7-75.8-32.8-154.1-37.9-232.4c-10.1-111.1-12.6-111.1,113.7-136.4
		c98.5-17.7,113.7-42.9,75.8-121.2c-7.6-12.6-15.2-27.8-25.3-40.4c-42.9-45.5-78.3-93.5-108.6-146.5c-30.3-53-90.9-65.7-154.1-35.4
		c-50.5,25.3-88.4,58.1-111.1,103.6c-27.8,53-42.9,108.6-65.7,166.7c-40.4-30.3-70.7-75.8-133.9-53c-42.9,15.2-60.6,0-75.8-27.8
		c-12.6-17.7-22.7-35.4-35.4-53c-22.7-30.3-48-60.6-98.5-58.1c-48,5.1-70.7,35.4-90.9,68.2c-32.8,53-45.5,111.1-83.4,161.7
		c-80.8,108.6-78.3,108.6,65.7,138.9c40.4,7.6,58.1,20.2,65.7,53c15.2,73.3,45.5,141.5,80.8,207.1c60.6,108.6,63.1,219.8,50.5,333.4
		c-20.2,154.1-37.9,305.6,2.5,457.2c7.6,30.3,10.1,60.6,15.2,90.9c-83.4-149-98.5-308.2-103.6-469.8c-2.5-22.7,15.2-30.3,32.8-37.9
		c22.7-10.1,35.4-25.3,30.3-50.5c-15.2-58.1-30.3-118.7-65.7-174.3c-15.2-27.8-40.4-53-83.4-48c-42.9,5.1-60.6,35.4-63.1,65.7
		c-7.6,45.5-5.1,93.5-5.1,138.9c0,32.8-7.6,68.2,45.5,83.4c15.2,2.5,15.2,17.7,15.2,30.3c5.1,35.4,7.6,70.7,12.6,106.1
		c15.2,111.1,17.7,222.3,60.6,325.8c55.6,138.9,113.7,275.3,138.9,421.8c7.6,30.3,15.2,63.1,27.8,93.5
		c25.3,83.4,27.8,83.4-65.7,108.6C907.6,2109.5,988.5,2157.5,1084.5,2155z M1021.3,199.9c27.8-17.7,35.4,7.6,37.9,17.7
		c5.1,25.3,5.1,53,5.1,80.8c-2.5,20.2-27.8,20.2-45.5,27.8c-20.2,10.1-27.8-7.6-35.4-15.2c-17.7-15.2-22.7-32.8-12.6-53
		s37.9-32.8,45.5-55.6C1018.8,199.9,1018.8,199.9,1021.3,199.9z M1160.2,268.1c98.5-7.6,93.5,37.9,96,98.5
		c10.1,146.5,65.7,285.4,106.1,426.9c10.1,27.8,15.2,53,7.6,80.8c-63.1,186.9-53,381.4-93.5,573.4c-32.8,151.6-5.1,308.2-12.6,462.2
		c-2.5,48-17.7,96-5.1,146.5c5.1,30.3-17.7,35.4-45.5,32.8s-53-2.5-45.5-37.9c17.7-75.8,27.8-154.1,48-229.9
		c22.7-90.9,15.2-181.9-2.5-272.8c-15.2-88.4-121.2-611.3-123.8-646.6c-17.7-144-55.6-288-65.7-434.5c-2.5-30.3-2.5-60.6,48-68.2
		c25.3-2.5,37.9-22.7,35.4-45.5c-2.5-32.8-2.5-65.7-7.6-108.6C1124.9,255.4,1145.1,270.6,1160.2,268.1z M980.9,1778.6
		c-12.6-146.5-45.5-290.5-70.7-437c-17.7-98.5-12.6-197,7.6-293c35.4-179.3,15.2-346.1-80.8-510.2c-22.7-40.4-35.4-85.9-42.9-131.3
		c-2.5-10.1-5.1-22.7,5.1-27.8c12.6-7.6,27.8-2.5,40.4,2.5c53,20.2,80.8,48,88.4,103.6c17.7,131.3,55.6,260.2,80.8,391.5
		c12.6,65.7,42.9,386.5,45.5,401.6c12.6,101,0,199.6-12.6,300.6c-15.2,111.1-10.1,222.3,0,333.4c2.5,22.7,7.6,48-5.1,80.8
		C1001.1,1917.5,985.9,1849.3,980.9,1778.6z M1971.1,672.2c-10.1-2.5-37.9-15.2-42.9-20.2c-25.3-32.8-55.6-68.2-45.5-111.1
		c7.6-25.3,40.4-45.5,68.2-50.5c45.5-7.6,90.9-12.6,131.3-35.4c20.2-12.6,37.9-2.5,50.5,7.6C2145.4,475.2,2178.2,715.2,1971.1,672.2
		z M1541.7,1589.2c12.6,101-12.6,199.6-35.4,298.1c-12.6,58.1-30.3,116.2-45.5,171.8c-2.5,10.1-10.1,22.7-25.3,17.7
		c-10.1-5.1-7.6-15.2-5.1-22.7c42.9-151.6,25.3-308.2,42.9-462.2c12.6-96,30.3-194.5,45.5-290.5
		C1531.6,1397.2,1526.5,1493.2,1541.7,1589.2z M655,139.3c10.1-17.7,20.2-98.5,37.9-108.6c15.2-5.1,30.3-2.5,40.4,7.6
		c12.6,10.1,25.3,22.7,27.8,35.4c15.2,55.6,30.3,111.1,5.1,166.7C632.3,258,612.1,217.6,655,139.3z M2064.5,1263.3
		c-20.2,5.1-90.9,10.1-106.1-15.2c-5.1-7.6,20.2-55.6,42.9-63.1c15.2-5.1,30.3-10.1,48-5.1c35.4,7.6,48,25.3,27.8,42.9
		c-27.8,25.3,2.5,20.2,12.6,25.3c5.1,2.5,7.6,5.1,12.6,7.6C2087.3,1258.3,2077.2,1260.8,2064.5,1263.3z M1417.9,68.5
		c30.3,17.7,17.7,37.9,17.7,55.6c0,2.5,0,5.1,0,7.6c-25.3-12.6-159.1,17.7-174.3-5.1c-35.4-53-15.2-108.6,25.3-179.3
		C1314.3-2.2,1359.8,35.7,1417.9,68.5z M728.3,874.3c-10.1,5.1-12.6-2.5-17.7-5.1c-40.4-25.3-48-60.6-45.5-101
		c0-7.6,2.5-15.2,12.6-17.7c10.1,0,15.2,7.6,20.2,12.6c20.2,30.3,30.3,63.1,37.9,96C735.9,866.7,735.9,871.8,728.3,874.3z"/>
</g>
</svg>
