<?xml version="1.0" encoding="UTF-8" standalone="no"?>
<svg
   xmlns:dc="http://purl.org/dc/elements/1.1/"
   xmlns:cc="http://creativecommons.org/ns#"
   xmlns:rdf="http://www.w3.org/1999/02/22-rdf-syntax-ns#"
   xmlns:svg="http://www.w3.org/2000/svg"
   xmlns="http://www.w3.org/2000/svg"
   version="1.1"
   id="svg8"
   x="0px"
   y="0px"
   viewBox="0 0 2267.7 2267.7"
   style="enable-background:new 0 0 2267.7 2267.7;"
   xml:space="preserve"><metadata
   id="metadata9"><rdf:RDF><cc:Work
       rdf:about=""><dc:format>image/svg+xml</dc:format><dc:type
         rdf:resource="http://purl.org/dc/dcmitype/StillImage" /><dc:title></dc:title></cc:Work></rdf:RDF></metadata><defs
   id="defs7" />
<style
   type="text/css"
   id="style2">
	.st0{fill:none;stroke:#000000;stroke-width:0.2646;}
</style>


<path
   id="path181-2"
   style="fill:none;stroke-width:1.99996"
   d="m 88.824219,1778.5625 c -17.626112,0.266 -34.653557,10.8438 -42.764852,26.4841 -6.483914,12.3836 -7.66981,27.5675 -2.603247,40.6561 5.866929,15.3446 19.701364,27.4487 35.802976,30.8974 12.758855,2.428 25.580034,4.4224 38.366494,6.6887 58.33261,10.0578 116.67467,20.0619 175.01067,30.1006 203.80158,35.0394 407.60317,70.0789 611.40476,105.1184 -0.43963,6.6841 -0.70695,13.4419 0.40104,20.0793 3.10186,20.3439 14.92813,39.2439 32.03954,50.7214 14.55411,9.8609 32.66347,14.4479 50.14668,12.3561 18.77372,-2.1382 36.72182,-11.5604 48.76422,-26.1815 10.87,-12.9841 17.4335,-29.7127 17.484,-46.7081 0.019,-2.0205 -0.4502,-4.0687 -0.066,-6.0699 0.8917,-3.0194 4.0164,-4.9501 7.0714,-5.0318 110.9683,-18.2042 221.9269,-36.4681 332.8896,-54.7065 -1.8625,-33.3045 -3.7217,-66.6093 -5.5801,-99.9141 -136.5037,22.4164 -273.0078,44.8306 -409.51171,67.2461 C 684.29804,1879.891 390.9175,1829.4749 97.535156,1779.0723 c -2.889597,-0.3486 -5.799757,-0.5371 -8.710937,-0.5098 z" /><path
   id="path55-3"
   style="fill:none;stroke-width:1.16347"
   d="m 1108.4902,43.344321 c -16.648,-0.49548 -33.2251,-0.583222 -49.8803,-0.236393 -28.9711,0.612478 -57.9036,2.578832 -86.78327,5.845444 -14.42882,1.621662 -28.81968,3.552984 -43.19196,5.797422 -32.62989,5.100921 -65.11642,11.817793 -97.16514,20.200649 C 437.82143,171.90499 190.07368,645.29419 163.03888,782.48823 219.79879,776.90288 276.5587,771.31752 333.31861,765.73217 403.14538,627.29769 590.50485,307.56298 903.17134,237.16436 c 79.83511,-16.8059 161.95276,-21.69087 242.97766,-14.06923 63.3691,5.97925 126.059,19.71932 186.1732,41.3027 52.8229,18.91917 103.6514,43.82114 151.2708,74.19147 8.997,5.5616 18.009,11.10019 26.8354,16.95461 51.7393,34.00865 99.7102,74.32243 142.0442,120.36428 42.2354,45.89272 78.8169,97.46474 108.3466,153.15878 22.6515,42.69455 41.1601,87.78246 55.3009,134.32448 14.7602,48.64248 24.7259,98.86796 29.9663,149.63197 7.3685,71.11897 5.4384,143.24068 -4.6855,214.04598 -8.7478,61.3422 -23.6154,121.7219 -43.6178,180.1638 -7.2426,21.1513 -15.1305,42.0674 -23.7012,62.6766 -5.7051,13.3249 -11.8127,26.462 -18.1782,39.4585 -26.1829,53.3086 -57.6666,103.7836 -93.5956,150.5322 -39.0874,50.818 -83.3582,97.3471 -132.1059,138.1009 -20.3373,17.0404 -41.4627,33.0435 -63.165,48.1304 -3.0029,2.1314 -6.0171,4.1618 -8.9273,6.353 -3.38,2.3517 -6.2712,5.4528 -8.401,9.0632 -0.5858,0.9678 -1.2673,2.2738 -1.7767,3.4518 -2.2853,5.0853 -2.9069,10.7762 -2.7742,16.3267 0.1689,11.9314 0.2096,23.8653 0.3291,35.7979 0.399,47.9248 0.7253,95.8509 1.078,143.7764 30.804,-18.9238 61.6921,-37.7062 91.7032,-58.0107 14.9754,-10.1527 29.6831,-20.7321 44.1809,-31.6139 4.1818,-3.0756 9.0498,-5.1934 14.1507,-5.7534 9.7051,-1.1816 19.8081,2.6653 26.4659,10.0871 6.2794,6.6498 12.6035,13.2559 18.7164,20.0747 27.3912,30.3215 52.5187,62.7514 77.3643,95.3406 28.6465,37.6468 56.6681,75.7967 86.2923,112.6235 9.3835,11.6515 18.9327,23.1342 28.7881,34.3863 15.3067,17.4754 31.3657,34.4527 48.5392,50.023 2.4691,2.2444 4.9735,4.4463 7.4236,6.565 6.4573,5.5454 13.0849,10.8774 19.9183,15.9111 19.564,14.4096 41.197,26.6406 64.6137,32.8643 1.3919,0.3732 2.8864,0.7394 4.1741,1.0433 3.7268,0.8775 7.4415,1.5791 11.1873,2.1149 6.2853,0.9001 12.6364,1.3083 18.9845,1.2406 1.2006,-0.023 2.6544,-0.041 3.9516,-0.088 10.0796,-0.3877 20.2679,-1.1602 30.3504,-2.3317 3.788,-0.4487 7.5122,-0.941 11.2467,-1.5163 6.09,-0.9126 12.0893,-2.0003 18.0969,-3.2661 27.3598,-5.7559 54.3257,-15.3244 78.6203,-29.9897 15.7024,-9.4216 30.347,-21.0476 43.0339,-34.4447 19.7088,-20.7712 34.7679,-46.1289 44.6949,-73.3833 2.241,-6.1274 4.2601,-12.4276 6.0082,-18.651 2.2617,-8.028 4.1676,-16.2971 5.7117,-24.4207 0.8526,-4.5235 1.5982,-9.0679 2.25,-13.6265 0.2655,-1.9657 0.5619,-4.143 0.8129,-6.193 0.3642,-2.991 0.6831,-6.0448 0.9781,-8.9992 0.3184,-3.4248 0.6117,-6.9379 0.8415,-10.3145 0.4099,-7.1696 0.8829,-14.3612 0.5459,-21.5408 -0.8672,-14.9843 -5.3791,-29.4598 -11.2913,-43.0302 -5.3444,-12.2597 -11.9275,-23.8982 -19.1261,-35.0524 -0.7953,-1.1993 -1.7431,-2.6662 -2.5485,-3.8735 -13.5672,-20.3082 -29.0662,-39.1314 -45.3571,-57.0969 -19.3787,-21.2836 -39.9902,-41.3122 -61.2002,-60.5911 -23.9806,-21.7682 -48.8145,-42.4977 -74.1312,-62.55 -36.53,-28.9256 -74.1586,-56.468 -112.484,-82.8717 -22.736,-15.682 -45.804,-30.9274 -69.05,-45.775 -2.3549,-1.4315 -4.6828,-2.9995 -6.4617,-5.1886 -3.7169,-4.3291 -5.378,-10.4305 -4.4675,-16.175 0.4036,-3.1685 1.8031,-6.0444 2.8819,-8.9997 5.853,-15.4648 13.6188,-30.0548 21.9526,-44.2054 8.3877,-14.2405 17.3772,-28.1545 25.8304,-42.3104 4.3157,-7.2614 8.4031,-14.4882 12.1993,-22.0669 0.6048,-1.186 1.2279,-2.5024 1.7998,-3.6557 12.7741,-26.9401 24.6109,-54.3306 35.1701,-82.2965 4.6027,-12.1439 8.9637,-24.3859 13.1206,-36.7014 4.7909,-14.2578 9.355,-28.816 13.5415,-43.2807 4.8057,-16.601 9.1617,-33.1917 13.1544,-50.0248 7.4667,-31.4995 13.5023,-63.474 18.042,-95.6041 1.7947,-12.797 3.3921,-25.777 4.7213,-38.672 3.2626,-31.7349 5.1118,-63.627 5.5202,-95.5596 0.1485,-11.7478 0.1076,-23.58878 -0.1318,-35.32709 -0.3196,-16.40358 -1.0388,-32.79598 -2.1032,-49.16152 -0.5817,-8.59579 -1.2599,-17.30644 -2.0364,-25.93192 -3.0892,-34.01804 -7.8231,-67.87949 -14.2582,-101.4058 -12.8611,-67.07518 -32.6146,-132.84203 -59.0463,-195.45892 -7.6118,-18.05888 -15.833,-35.92381 -24.5452,-53.46581 -6.695,-13.44391 -13.785,-26.88988 -21.1116,-39.9792 -11.4594,-20.50276 -23.665,-40.52264 -36.6054,-60.07397 -26.8444,-40.51516 -56.8785,-78.80351 -89.5467,-114.39007 -15.3764,-16.76821 -31.3504,-32.9374 -47.839,-48.51303 -4.5904,-4.32434 -9.3417,-8.72495 -14.0166,-12.96634 -20.1807,-18.30397 -41.1387,-35.74712 -62.6672,-52.21336 -21.509,-16.43744 -43.8185,-32.08002 -66.599,-46.59713 -24.5668,-15.68024 -49.9091,-30.20603 -75.7043,-43.46072 -19.3682,-9.93682 -39.062,-19.18635 -59.0404,-27.72103 -15.3333,-6.54499 -31.0123,-12.73678 -46.7379,-18.444354 -15.6483,-5.688016 -31.5466,-10.976292 -47.509,-15.810538 -15.9039,-4.829905 -32.1122,-9.263402 -48.2537,-13.205831 -28.3106,-6.912907 -56.8128,-12.473617 -85.6127,-16.651722 -10.0801,-1.478234 -20.2662,-2.776241 -30.4329,-3.925781 -7.6417,-0.848331 -15.427,-1.637284 -23.0895,-2.302836 -17.5191,-1.567295 -35.0528,-2.550262 -52.6499,-3.098707 z" /><path
   id="path191-5"
   style="fill:none;stroke-width:1.99996"
   d="m 165.87109,1535.2754 c -15.12572,1.2432 -29.11725,11.6626 -34.52533,25.8625 -4.38548,10.9761 -3.50594,23.9429 2.49245,34.1509 5.77212,10.1212 16.01417,17.7755 27.57551,19.7325 6.87276,1.2398 13.8638,1.5945 20.76986,2.5992 66.41365,8.0277 132.36228,20.8946 196.97167,38.4663 10.45756,2.8452 20.98509,5.836 31.36558,8.927 15.71428,4.6666 31.292,9.605 46.83073,14.8202 37.56487,12.6473 74.72202,26.9236 111.14662,42.7499 30.555,13.2603 60.8567,27.7357 90.43725,43.184 51.77824,27.0375 101.94571,57.3405 149.92455,90.7167 18.01926,12.5382 35.71142,25.5445 53.11545,38.9216 1.40807,1.1207 2.921,2.3495 4.80958,2.4147 36.88744,6.3304 73.77472,12.6617 110.66226,18.9916 33.12173,-5.5034 66.25113,-10.9609 99.38083,-16.416 32.5186,-26.2272 66.2216,-50.9344 101.1033,-73.9061 36.5618,-24.1108 74.3013,-46.4732 113.0128,-66.9909 27.6914,-14.6702 55.978,-28.4773 84.6302,-41.2843 4.6163,-2.1044 9.3001,-4.0628 13.9061,-6.1859 1.7789,-0.9768 2.4229,-3.0232 3.6412,-4.5261 5.3539,-7.7127 12.3959,-14.0712 19.8322,-19.7268 24.7711,-19.8281 48.7135,-40.7215 71.2878,-63.0287 14.4825,-14.2479 28.4063,-29.05 41.9665,-44.174 1.7378,-1.9185 3.4758,-3.8369 5.2137,-5.7553 -25.6477,7.7465 -51.2652,15.6268 -76.539,24.5314 -51.9282,18.1799 -102.8756,39.1767 -152.446,63.0534 -71.9989,34.6607 -141.1718,75.2343 -206.3491,121.4689 -30.9547,21.9821 -60.9969,45.2618 -89.7986,70.0023 -9.58287,8.2291 -18.97869,16.6727 -28.31562,25.1781 -2.12803,1.9914 -5.55673,1.8719 -7.96136,0.4593 -1.43059,-0.8679 -2.48386,-2.2103 -3.76808,-3.2677 -6.32945,-5.6714 -12.79782,-11.187 -19.27061,-16.6938 -47.31736,-40.0267 -97.78939,-76.2475 -150.24812,-109.2196 -82.647,-51.8202 -170.58994,-95.1641 -261.9311,-129.392 -76.35934,-28.6247 -155.11023,-50.8388 -235.14808,-66.4513 -41.17318,-8.0272 -82.68298,-14.3371 -124.39028,-18.8352 -3.11995,-0.2889 -6.24836,-0.5669 -9.38486,-0.496 v 0.1001 z" /><path
   id="path153-7"
   style="fill:none;stroke-width:1.99996"
   d="m 1343.8594,766.38672 c -9.5329,0.26685 -18.68,4.18047 -26.2285,9.86523 -5.7625,4.38744 -9.7481,10.85345 -11.5894,17.81762 -2.394,9.02398 -1.9144,18.58984 0.1401,27.62975 2.0732,9.15187 5.5688,17.90002 9.18,26.53518 3.2344,7.6833 6.755,15.24249 10.4294,22.72448 -16.2231,10.01395 -32.0435,20.68931 -47.2266,32.22521 -34.8881,26.40358 -66.8694,56.5751 -95.7699,89.4042 -16.0673,18.29461 -31.2292,37.39951 -45.1764,57.36151 -4.8705,7.0035 -9.6057,14.1155 -13.8639,21.5101 -5.1585,9.7849 -6.1713,21.9101 -1.7987,32.172 4.5616,10.7555 14.7432,18.6902 26.0693,21.2086 11.2414,2.6074 23.7925,-0.2058 32.4276,-7.9827 3.512,-3.1321 5.8147,-7.3007 8.0827,-11.3564 2.9746,-5.1394 6.4619,-10.0646 9.8299,-15.0234 8.8098,-12.783 18.3372,-25.0588 28.258,-36.9957 7.9369,-9.523 16.1897,-18.9431 24.7381,-27.9871 10.7504,-11.4234 21.9622,-22.4135 33.6096,-32.92108 9.1919,-8.27491 18.757,-16.35296 28.536,-24.01654 13.0339,-10.25427 26.6989,-19.96718 40.7862,-28.84847 9.7606,-6.18264 19.7625,-11.98233 29.933,-17.46156 6.5297,-3.69677 12.6304,-8.61845 16.3728,-15.23111 3.4381,-5.91252 4.4603,-12.85949 4.6121,-19.60072 0.085,-3.09362 0.029,-6.18882 0.068,-9.28301 9.6313,4.4941 19.2282,9.32616 29.5947,11.90895 7.2428,1.79839 14.9199,2.24449 22.2184,0.49562 6.1662,-1.39473 12.0867,-3.6769 18.2293,-5.16426 18.8674,-5.12406 38.2403,-8.75528 57.7701,-10.70906 1.4011,-0.12356 3.0297,-0.29095 4.4417,-0.40957 5.9637,-0.52169 12.0364,-0.86525 17.9606,-1.05722 6.0065,-0.1858 12.018,-0.20982 18.0254,-0.0547 1.9666,0.0675 4.1364,0.12177 6.1804,0.22276 12.9541,0.55045 25.9489,1.82953 38.7298,3.70107 13.6814,2.01313 27.2505,4.75439 40.6738,8.07226 7.9031,1.97935 15.9788,4.19517 23.8064,6.58322 18.1766,5.56351 36.0845,12.0343 53.5489,19.54439 4.2662,1.84977 8.3627,4.06477 12.5251,6.13312 0.6814,0.28234 1.2932,0.5666 0.2844,0.89552 -12.2182,7.08312 -24.8417,13.56154 -36.2543,21.93864 -12.4606,8.99191 -23.9722,19.19798 -35.5493,29.27825 -31.7286,28.02926 -60.5092,59.56319 -84.2603,94.66179 -19.3413,28.5434 -35.3176,59.4324 -46.7169,91.9953 -9.385,26.7544 -15.8003,54.5721 -18.8219,82.769 -0.2773,4.0178 -0.5435,8.0484 -1.3433,12.0035 -1.6823,10.9859 2.1702,22.6888 10.1821,30.4175 5.9062,5.6626 13.828,9.1257 21.9626,9.8425 5.9621,0.5545 12.0458,-0.52 17.4716,-3.0466 9.0325,-4.0959 16.5303,-11.6254 20.3426,-20.8032 0.4588,-1.5623 0.1316,-3.211 0.3707,-4.8066 0.557,-6.1334 2.241,-12.0881 3.0951,-18.1783 0.561,-3.9739 1.193,-7.9377 1.878,-11.8921 0.3841,-2.141 0.8098,-4.4464 1.2402,-6.6445 1.1669,-5.8967 2.5649,-11.9416 4.1023,-17.8292 1.0295,-3.9408 2.1534,-7.877 3.3509,-11.8095 1.1797,-3.8273 2.4683,-7.7828 3.8188,-11.6169 3.3573,-9.5945 7.2457,-19.1402 11.5526,-28.4139 5.1394,-11.0602 11.0369,-22.0506 17.3345,-32.498 4.8838,-8.1313 10.158,-16.137 15.6046,-23.8286 18.333,-25.8288 39.7381,-49.3912 63.0034,-70.8508 7.5086,-6.9466 15.1015,-13.5972 23.0041,-20.1126 3.9608,-3.3382 8.1098,-6.4737 12.3097,-9.44959 0.5644,-0.33791 1.0865,-0.69837 0.9018,-1.43355 0.7861,-25.47405 0.5768,-50.97929 -0.6721,-76.43473 0.02,-0.95674 -0.1158,-2.15726 -0.1538,-3.20678 -1.452,-26.55355 -4.0048,-53.04572 -7.7229,-79.37809 0.039,-0.71396 -0.2276,-1.18822 -0.9682,-1.29067 -41.2477,-16.5285 -84.4069,-28.61949 -128.5282,-34.26313 -42.332,-5.44536 -85.4868,-4.86262 -127.5784,2.31883 -14.9937,2.54083 -29.8392,5.94304 -44.4606,10.12063 -9.8,-3.42089 -18.525,-9.1602 -27.4779,-14.28614 -1.1863,-0.69029 -2.1197,-1.73724 -2.7682,-2.93847 -15.6386,-8.884 -30.7968,-18.73097 -47.2951,-25.99877 -8.3128,-3.62111 -17.2087,-6.37716 -26.3631,-6.24342 z" /><path
   id="path157-3"
   style="fill:none;stroke-width:1.99996"
   d="m 1508.877,928.5625 c -11.0063,0.13793 -21.9915,5.68627 -28.0762,14.95703 -6.6825,10.19335 -6.6928,24.43043 0.3156,34.46456 7.0967,10.55427 20.3743,16.68506 33.0097,14.87338 12.3953,-1.70601 23.441,-11.19244 26.6642,-23.33294 3.2038,-11.4563 -0.4194,-24.65688 -9.386,-32.56554 -6.1166,-5.46567 -14.318,-8.55857 -22.5273,-8.39649 z" /><path
   id="path155-6"
   style="fill:none;stroke-width:1.99996"
   d="m 441.76562,928.59375 c -13.30243,0.35026 -25.8838,9.8037 -29.73611,22.57224 -3.63809,11.33898 -0.0872,24.56957 8.66255,32.62866 6.99276,6.85833 17.2071,10.59904 26.96506,9.01832 11.22012,-1.77905 20.96857,-10.12433 24.87701,-20.7318 2.99965,-7.15406 3.50736,-15.5069 0.57007,-22.76786 -4.06309,-10.60672 -14.04995,-18.81833 -25.36353,-20.32425 -1.97442,-0.31759 -3.97749,-0.41171 -5.97505,-0.39531 z" /><path
   id="path151-5"
   style="fill:none;stroke-width:1.99996"
   d="m 372.7793,803.79102 c -44.20433,0.36133 -88.25374,7.47272 -130.594,20.07473 -31.03879,9.23387 -61.2252,21.25773 -90.3099,35.47833 -4.46389,2.21243 -8.94051,4.40887 -13.31295,6.79656 -8.44915,4.94789 -14.88469,12.76593 -19.44318,21.33041 -4.62576,8.71512 -7.50497,18.29914 -8.95051,28.04003 -1.22326,8.57647 -0.87702,17.44257 1.61725,25.76991 3.62221,12.50996 11.3722,23.96125 22.19044,31.3274 4.1092,2.73598 8.43657,5.13478 12.44142,8.03049 4.34295,3.03608 8.72727,6.01331 13.23605,8.79856 9.68978,6.14157 19.53557,12.05366 28.92225,18.66026 1.70663,1.2153 3.56647,2.5497 5.30072,3.8555 6.56948,4.8619 12.81806,10.1414 18.86807,15.6321 27.70428,24.6515 53.00346,52.1718 73.95554,82.8209 18.57561,27.1205 33.66351,56.7535 43.49262,88.1635 1.74318,5.5308 3.31727,11.186 4.69839,16.749 2.85419,11.4364 4.9453,23.0589 6.30089,34.7673 0.73477,5.7674 1.33455,11.5651 2.50645,17.2648 0.62601,3.0236 1.77654,5.9063 3.20543,8.6352 1.98933,4.1886 4.24668,8.3317 7.50818,11.6799 7.54965,8.0264 18.86542,12.2645 29.82973,11.2931 9.02914,-0.6385 18.01507,-4.5384 23.95581,-11.4905 8.04183,-9.3103 10.8527,-22.8725 7.03116,-34.5849 -1.94002,-7.4003 -2.26156,-15.092 -3.76763,-22.5754 -7.71461,-45.7379 -23.88225,-89.9653 -46.92015,-130.1955 -21.95044,-38.4098 -49.74031,-73.3438 -81.24496,-104.34294 -14.95237,-14.71645 -30.5085,-28.87818 -47.26722,-41.52223 -12.22068,-9.24215 -25.21527,-17.40152 -38.43597,-25.12442 -1.74226,-1.03003 -3.48862,-2.05258 -5.23581,-3.07428 17.16404,-7.56773 34.30177,-15.24285 52.0332,-21.4668 19.40236,-6.81062 39.21867,-12.40192 59.4124,-16.41129 10.02635,-2.00246 20.30107,-3.65943 30.53317,-4.85626 8.05506,-0.94593 16.34749,-1.64449 24.45425,-2.04361 8.59359,-0.42788 17.20807,-0.54023 25.84042,-0.33142 8.13479,0.2032 16.45826,0.68163 24.55219,1.44003 3.64805,0.337 7.28424,0.72307 10.86526,1.16934 7.76943,0.94487 15.50188,2.17539 23.19583,3.60743 3.95024,0.74866 8.07652,1.59342 12.07324,2.48306 5.85596,1.31245 11.81688,2.77759 17.65202,4.38894 3.14423,0.85372 6.41892,1.81612 9.52669,2.74128 17.75851,5.38339 35.10981,12.08431 51.94532,19.88281 10.87616,5.04631 21.68166,10.62474 32.10532,16.56193 34.21663,19.4578 65.84365,43.38874 94.71018,70.15633 18.135,16.8243 35.26311,34.9187 51.19527,53.906 8.00877,9.535 15.81615,19.3905 23.20382,29.4725 5.99749,8.2088 11.87522,16.6565 17.26783,25.3427 2.63912,4.2521 5.38185,8.523 9.09359,11.9337 6.46145,6.1812 15.00389,10.468 24.02079,10.8894 0.967,0.036 2.00932,0.088 2.90343,-0.2826 1.41598,-1.4876 3.11543,-2.9844 4.67359,-4.1128 3.31224,-2.5136 7.18256,-4.0871 10.87284,-5.9378 3.11073,-1.516 6.00356,-3.4764 8.47287,-5.9079 8.43739,-8.0971 12.91522,-20.3533 10.99251,-31.9648 -0.90908,-5.8898 -3.79351,-11.2325 -7.03961,-16.1456 -2.9769,-4.4858 -6.05772,-8.9032 -9.12568,-13.3264 -18.33202,-26.035 -38.81306,-50.5085 -60.52283,-73.78237 -35.99594,-38.32669 -76.20725,-72.82511 -120.34447,-101.46382 -42.77171,-27.69397 -89.45495,-49.67607 -138.68828,-63.06978 -37.47955,-10.18824 -76.33041,-15.36565 -115.17633,-15.13039 -0.0923,1.2e-4 -0.18463,2.5e-4 -0.27695,3.8e-4 z" /><path
   id="path193-3"
   style="fill:none;stroke-width:1.99996"
   d="m 250.60547,1121.1777 c -41.34989,0.5167 -82.53509,4.5936 -123.65959,8.608 -11.73309,1.1574 -23.47295,2.2517 -35.200651,3.4602 -5.04615,0.5787 -10.18322,1.0141 -14.9791,2.8083 -13.822006,4.8668 -25.000817,16.8243 -28.596558,31.0719 -2.269563,8.6903 -1.809215,17.9933 0.914449,26.5262 6.597522,23.4127 13.742242,46.6801 21.975695,69.572 18.704492,52.3827 42.212365,103.1454 71.375895,150.549 23.67172,38.5308 51.25894,74.6864 82.51347,107.3837 0.42109,0.4357 0.77504,1.0002 1.45912,0.9348 26.80215,4.1764 53.51987,8.9717 80.10358,14.5066 36.9287,7.6683 73.59426,16.7933 109.8615,27.2628 5.46058,1.5437 10.94841,3.2542 16.43879,4.797 3.05888,-0.08 6.13681,-0.3307 9.20302,-0.4741 1.12309,0.1505 0.2286,-0.4498 -0.18497,-0.8712 -2.13212,-2.0201 -4.18553,-4.1225 -6.35746,-6.1 -6.45052,-2.9104 -12.84674,-5.9536 -19.10366,-9.1132 -18.42614,-9.3033 -36.24324,-19.8171 -53.26548,-31.4942 -8.31033,-5.6997 -16.61105,-11.8041 -24.58597,-18.1132 -28.29526,-22.3464 -53.93668,-47.9921 -76.66597,-75.9652 -6.42836,-7.895 -12.60803,-15.9911 -18.57228,-24.2419 -6.0301,-8.3594 -11.9552,-17.0567 -17.5196,-25.7356 -16.77913,-26.1167 -31.51568,-53.5753 -44.41554,-81.8403 -7.70066,-16.8924 -14.78032,-34.1401 -21.24707,-51.6228 -2.73003,-7.3856 -5.32842,-14.7827 -7.97404,-22.2349 -0.18758,-1.3106 0.83033,-2.8082 2.24379,-2.7196 14.55337,-1.3843 29.1169,-2.7606 43.66764,-3.8689 12.48593,-0.9511 24.97481,-1.7057 37.51644,-2.1196 12.29626,-0.4053 24.73936,-0.4726 37.08837,-0.057 16.29715,0.5393 32.68222,1.9869 48.86491,4.2974 2.90394,0.3984 5.80512,0.8821 8.69697,1.3061 1.11762,0.075 2.2053,-0.8193 2.26528,-1.9498 0.12293,-0.7298 -0.37986,-1.428 -0.51522,-2.145 -4.54395,-14.4303 -9.8201,-28.669 -16.58101,-42.2199 -8.40523,-17.346 -18.50654,-33.8323 -29.62413,-49.5643 -11.70716,-0.4597 -23.42371,-0.705 -35.14062,-0.6328 z" /><path
   id="path189-6"
   style="fill:none;stroke-width:1.99996"
   d="m 1506.7227,1294.2598 c -8.6052,23.6665 -17.9435,47.0852 -28.6715,69.8767 -17.5457,37.5574 -38.14,73.6573 -61.9172,107.6596 -20.0333,28.6236 -42.3478,55.8374 -66.8781,80.7998 -18.5968,18.9405 -38.5737,36.7373 -60.1141,52.3466 -5.2884,3.8018 -10.8883,7.1603 -16.0849,11.0881 -11.0159,9.0519 -15.579,25.0936 -11.0436,38.6015 1.1966,3.8448 3.3331,7.2928 5.5394,10.6277 26.2397,-13.2908 52.8022,-25.8376 79.7462,-37.6247 14.8241,-6.4811 29.8072,-12.7662 44.8459,-18.8024 2.3419,-0.9147 4.819,-1.813 6.5349,-3.746 3.5086,-3.6754 7.1054,-7.2679 10.5861,-10.9716 39.486,-41.6313 73.4978,-88.3244 102.042,-138.0638 23.867,-41.5494 43.84,-85.2875 60.2881,-130.2775 0.9171,-2.5591 1.8837,-5.1062 2.7987,-7.6619 0.4728,-2.215 -1.1342,-4.6315 -3.4102,-4.9146 -1.8421,-0.294 -3.4695,0.8447 -5.1931,1.2781 -0.9815,0.3222 -2.1831,0.6593 -3.0383,0.8789 -14.9056,3.8486 -31.4457,-0.4913 -42.9419,-10.6176 -4.6426,-3.99 -8.0695,-9.1119 -11.8404,-13.8773 -0.416,1.1334 -0.832,2.2669 -1.248,3.4004 z" /><path
   id="path187-2"
   style="fill:none;stroke-width:1.99996"
   d="m 1685.5918,1121.1523 c -8.8756,0.076 -17.7468,0.3728 -26.6172,0.6582 -19.3755,27.5517 -35.4085,57.6698 -45.5566,89.8575 -0.7038,1.7025 -0.052,3.699 1.3359,4.8492 1.2679,0.9038 2.9366,0.8698 4.39,0.4993 12.2914,-1.8395 24.6325,-3.2054 36.9514,-4.0255 6.2106,-0.4174 12.5021,-0.715 18.6584,-0.8578 16.6492,-0.4146 33.2834,0.01 49.8999,0.794 0.7906,0.2859 0.5962,-0.7728 0.8399,-1.2335 7.6647,-28.1833 14.0879,-56.7073 19.1198,-85.4789 0.573,-1.2897 -0.3144,-2.9253 -1.7285,-3.0918 -19.063,-1.2247 -38.1811,-2.0411 -57.293,-1.9707 z" /><path
   id="path185-9"
   style="fill:none;stroke-width:1.99996"
   d="m 432.36133,1297.7812 c -0.96348,0.4853 -1.39124,1.5954 -2.09359,2.3737 -4.15118,5.6178 -9.12967,10.7633 -15.24538,14.2386 -2.15154,1.2625 -4.40555,2.3477 -6.72353,3.2686 -0.34641,0.1202 -1.11673,0.432 -1.63354,0.6044 -10.66744,3.7943 -22.70444,3.8861 -33.29513,-0.2297 -1.64943,-0.7998 -3.75516,-0.2821 -4.94708,1.055 -0.95257,1.3414 -1.17302,3.1631 -0.41267,4.6432 7.75706,21.376 15.94961,42.611 25.34289,63.3274 23.87581,53.3626 53.31294,104.3068 88.48817,151.0301 16.43807,21.8263 34.08695,42.7541 53.00231,62.4764 2.63653,2.7346 5.26894,5.4778 7.93673,8.179 1.31539,1.2822 3.02445,1.9989 4.73114,2.5913 17.61683,6.9447 35.14619,14.0184 52.54081,21.5178 23.17068,9.9502 46.17058,20.4713 68.87707,31.5183 2.29239,1.1125 4.58503,2.2245 6.87711,3.3376 2.47779,-5.1111 4.84547,-10.431 5.37647,-16.1526 1.09904,-11.8629 -3.90054,-24.2861 -13.37736,-31.6268 -5.31073,-3.845 -10.86117,-7.3495 -16.10641,-11.2874 -25.00412,-18.4751 -47.8301,-39.7602 -69.0449,-62.4483 -26.50943,-28.4267 -50.35578,-59.3645 -71.45576,-92.0616 -24.83874,-38.4983 -45.92725,-79.4708 -63.20192,-121.926 -4.40679,-10.8312 -8.60991,-21.7552 -12.53582,-32.7649 -0.25283,-1.0274 -1.14403,-2.0081 -2.2679,-1.8847 -0.32463,-0.095 -0.55454,0.084 -0.83171,0.2206 z" /><path
   id="path183-1"
   style="fill:none;stroke-width:1.99996"
   d="m 585.43945,1646.6367 c 1.30188,1.5628 2.51386,3.2146 3.8711,4.7227 12.90613,10.3324 26.03542,20.5222 40.44336,28.7031 7.90081,4.1252 17.41983,4.5742 25.89266,2.0623 3.83228,-1.216 7.59677,-2.6374 11.41633,-3.8941 0.35678,-0.2076 -0.94891,-0.5111 -1.24391,-0.7563 -24.01116,-11.4604 -48.10799,-22.7674 -72.66665,-33.0154 -3.69465,-0.6667 -7.38927,-1.3336 -11.08398,-2 1.1237,1.3926 2.2474,2.7851 3.37109,4.1777 z" /><path
   id="path179-7"
   style="fill:none;stroke-width:1.99996"
   d="m 975.24414,836.86523 c -0.66276,0.004 -1.32552,0.008 -1.98828,0.0117 -0.15376,0.34828 -0.92172,0.15773 -1.30784,0.32819 -9.45548,1.66482 -17.6162,9.41341 -19.44488,18.88798 -8.3836,33.35414 -15.01631,67.13453 -20.33256,101.10822 -4.56245,29.15796 -8.04738,58.47876 -10.66996,87.87346 -0.25281,2.7257 -0.50562,5.4514 -0.75843,8.1772 -9.43196,-6.0852 -18.99952,-12.0105 -29.06689,-16.9953 -4.15984,-1.9159 -8.86236,-2.7165 -13.40362,-1.9856 -8.17299,1.1188 -15.76987,6.5576 -18.95367,14.2448 -3.6719,8.2253 -2.2304,18.6001 3.9437,25.2483 3.79628,4.3539 9.13388,6.8391 14.2238,9.331 2.8402,1.4302 5.61082,2.9992 8.29183,4.7095 0.71506,0.4545 1.66232,1.0852 2.45118,1.6289 12.13438,8.3503 21.67339,20.5412 26.42535,34.5195 1.38774,4.1945 2.59135,8.536 2.52456,12.9922 -0.14532,14.1566 0.0951,28.3173 0.55264,42.4668 0.33647,9.9401 0.82113,19.9371 1.39979,29.8262 0.47876,8.9539 0.83649,17.9136 1.19336,26.873 -7.48543,-11.6074 -14.8639,-23.2853 -22.0581,-35.0753 -17.43386,-28.1319 -36.33005,-55.3586 -56.54891,-81.5595 -0.50794,-0.9258 -1.44176,-1.4123 -2.37956,-1.8026 -0.55501,-0.2706 -1.2242,-0.8167 -1.2613,0.1629 -1.77659,5.1118 -3.43308,10.3266 -6.26751,14.9771 -8.37915,14.0879 -24.27541,23.3029 -40.65184,23.6645 -3.57955,0.039 -7.15654,-0.2019 -10.73572,-0.266 -0.50058,0.035 -1.68851,-0.281 -0.85071,0.4392 14.0585,18.2226 27.89865,36.6393 40.571,55.8626 10.47518,15.7593 20.50706,31.7334 30.05831,48.0786 15.68714,26.8108 30.11331,54.3118 43.46013,82.373 8.05329,16.9116 15.73142,34.0731 23.02857,51.3081 2.27118,5.2525 4.16948,10.6593 5.73942,16.1612 3.25064,10.6564 7.2518,21.0858 12.0431,31.1462 2.06496,4.6248 4.48105,9.1027 7.44158,13.219 2.73041,3.977 6.1262,7.5444 10.24066,10.103 8.89989,5.7643 20.38005,7.694 30.54456,4.4232 12.01369,-3.8123 21.7145,-14.4083 24.0385,-26.8516 0.7846,-3.8316 0.6818,-7.7677 0.707,-11.6526 0.6446,-2.3413 1.7931,-4.501 2.5874,-6.791 7.4881,-18.8497 15.3546,-37.5504 23.6391,-56.0645 6.8304,-15.2371 14.0073,-30.4941 21.4399,-45.4439 17.1233,-34.4553 35.9093,-68.1032 56.6806,-100.4973 3.4238,-5.3161 6.8673,-10.5712 10.3771,-15.7939 11.4796,-17.0899 23.58,-33.7604 36.2267,-50.005 1.3359,-1.7253 2.6732,-3.4494 4.0101,-5.174 -5.4459,0.2334 -10.9126,0.9217 -16.3594,0.3594 -16.9188,-1.8715 -32.4396,-13.3022 -39.157,-28.9551 -0.7129,-1.632 -1.2272,-3.134 -1.8249,-4.8038 -0.7905,-2.2536 -1.581,-4.5071 -2.3716,-6.7606 -12.4601,16.2725 -24.7329,32.6982 -36.2543,49.6534 -21.8086,32.1099 -41.6919,65.5121 -59.8938,99.7899 -7.25852,13.6105 -14.16816,27.4036 -21.01776,41.2239 -1.53459,3.0774 -3.06009,6.1591 -4.58999,9.239 -2.49734,-14.8141 -4.99001,-29.571 -7.08985,-44.4433 -1.43956,-10.1965 -2.69143,-20.5222 -3.63132,-30.8162 -1.82003,-18.6276 -3.02269,-37.3136 -3.67922,-56.0178 -0.1939,-6.2339 -0.38198,-12.5874 -0.44156,-18.8701 -0.28676,-3.7492 1.32993,-7.2882 1.48405,-11.0038 0.0728,-7.1359 -1.27965,-14.1921 -1.50029,-21.3151 -0.0877,-3.948 0.18611,-7.7924 0.24491,-11.7583 0.3994,-14.6624 1.01471,-29.3407 1.95444,-43.9747 0.19959,-2.0729 0.17701,-4.1913 0.63391,-6.2249 0.89071,-2.3911 2.47097,-4.4364 3.62418,-6.6981 6.84164,-11.7535 15.86906,-22.0753 25.5552,-31.558 8.4902,-8.2454 17.5866,-15.8492 26.9709,-23.053 11.5099,-8.83785 23.7022,-16.72237 35.7184,-24.84089 5.026,-3.48376 9.7222,-7.93643 11.9414,-13.76367 3.782,-10.02347 -0.2189,-22.33154 -9.1634,-28.22515 -7.4391,-5.08227 -17.8924,-5.62605 -25.5954,-0.80656 -2.9517,1.87723 -5.5812,4.20703 -8.4865,6.15218 -14.5192,9.71895 -28.9092,19.67499 -42.50104,30.67007 -3.17245,2.52425 -6.34489,5.04849 -9.51733,7.57274 4.17831,-26.84857 8.50105,-53.672 14.06366,-80.28763 1.68518,-8.13091 3.52742,-16.33 5.41964,-24.45644 1.06054,-4.66495 2.15269,-9.32939 3.05593,-14.02553 1.01984,-10.35992 -5.52173,-21.02713 -15.33612,-24.60611 -2.99877,-1.12859 -6.2134,-1.66368 -9.416,-1.58328 z" /><path
   id="path177-0"
   style="fill:none;stroke-width:1.99996"
   d="m 1273.6504,1030.7637 c -3.7268,4.1713 -7.7866,8.0272 -11.6392,12.0803 -18.1532,18.816 -35.1106,38.7913 -50.6394,59.8288 -2.0244,2.7299 -4.0329,5.47 -6.0359,8.2159 4.9318,20.3515 9.2003,40.7952 12.6887,61.4501 2.7775,16.3761 5.0927,32.8943 6.8953,49.439 0.9055,8.2747 1.6926,16.6791 2.3512,25.0225 0.4858,6.2404 0.908,12.6357 1.2621,18.9433 0.3296,6.189 0.6226,12.5686 0.7999,18.7676 0.5107,16.5293 0.4533,33.0903 -0.3643,49.5767 -0.273,4.4596 -0.5131,8.9625 0.2032,13.3956 2.1125,13.7687 10.8022,26.4917 23.1633,33.0333 12.1231,6.536 27.2846,7.3121 39.8858,1.6494 7.0017,-3.1755 12.8848,-8.2297 19.0027,-12.7844 11.8211,-8.7486 23.6621,-17.4726 35.6629,-25.9745 32.7912,-23.2857 66.496,-45.3467 101.5674,-65.0583 18.196,-10.1974 36.8123,-19.6489 55.8252,-28.2299 0.5575,-0.8688 0.7302,-1.8763 0.8105,-2.8847 1.8685,-14.104 4.4655,-28.136 7.8131,-41.9966 1.0156,-4.1918 2.1259,-8.4998 3.2806,-12.6632 1.4817,-5.3495 3.0706,-10.663 4.7581,-15.8688 3.1415,-9.8571 6.7849,-19.4616 10.6209,-29.0568 0.7224,-1.8249 1.444,-3.6501 2.166,-5.4752 -18.7211,6.3826 -37.4041,12.9515 -55.5459,20.8591 -47.9881,20.5513 -93.4892,46.4926 -137.197,74.9402 -4.36,2.795 -8.6502,5.7008 -13.0188,8.48 -2.6191,1.3651 -6.0846,0.6471 -7.9355,-1.6591 -1.2202,-1.3753 -1.7464,-3.2377 -1.6644,-5.052 -4.8242,-62.3969 -16.4835,-124.2162 -34.034,-184.2717 -2.6499,-9.1331 -5.465,-18.2178 -8.3407,-27.2828 -0.7806,0.8587 -1.5612,1.7174 -2.3418,2.5762 z" /><path
   id="path175-9"
   style="fill:none;stroke-width:1.99996"
   d="m 974.47852,626.26367 c -6.5288,0.0601 -13.20516,0.64661 -19.26541,3.2559 -6.62619,2.67122 -12.37247,7.05067 -17.74562,11.67893 -16.66687,13.52543 -32.82376,27.68064 -48.35018,42.50354 -36.91573,35.20248 -70.40663,73.98778 -99.9096,115.59718 -30.90789,43.62279 -57.40554,90.32805 -79.50068,138.99961 -0.43886,0.85306 -0.94672,1.85291 -0.51875,2.82388 0.47942,1.15647 1.75652,1.66254 2.60017,2.52093 7.53367,6.6255 14.90099,13.44129 22.13716,20.3908 5.74554,5.52134 11.39484,11.14189 16.93836,16.81107 8.38403,8.57394 16.55773,17.3596 24.58974,26.25849 0.46126,0.4273 1.15639,0.6338 1.75811,0.5437 1.11596,-0.1874 1.76188,-1.2255 1.9913,-2.2571 3.22723,-7.80546 6.4456,-15.62204 9.83612,-23.36126 6.32705,-14.54546 13.12015,-28.88833 20.42267,-42.96993 27.5719,-53.47693 61.74375,-103.58774 101.84945,-148.4562 17.98997,-20.13931 37.18395,-39.21345 57.31357,-57.25463 1.74389,-1.57509 3.5272,-3.1259 5.23164,-4.7309 1.11205,-0.71473 2.69115,-0.39839 3.49559,0.63421 24.56774,21.63262 47.77314,44.82859 69.18604,69.59396 20.2415,23.37777 38.9418,48.09617 55.933,73.96352 11.3303,17.22125 21.9743,35.07016 31.781,53.21305 11.7543,21.72334 22.4571,44.13592 32.0317,66.8683 0.1619,0.6072 0.4997,1.06122 1.0993,1.28516 1.4606,0.95772 3.4847,1.09058 4.9137,-6.2e-4 1.1782,-0.85973 1.9568,-2.13141 3.0074,-3.12952 18.7565,-20.57217 38.5718,-40.20322 59.6809,-58.36415 0.8068,-0.70518 1.6133,-1.41074 2.4191,-2.11714 -22.2468,-47.74401 -48.6732,-93.58502 -79.4945,-136.31822 -31.797,-44.17413 -68.1577,-85.06642 -108.3278,-121.79236 -14.5106,-13.25134 -29.4982,-25.98707 -45.0218,-38.03666 -7.90506,-5.73557 -17.7977,-8.2796 -27.48637,-8.18175 -0.8651,0.009 -1.73021,0.0188 -2.59531,0.0282 z" /><path
   id="path173-3"
   style="fill:none;stroke-width:1.99996"
   d="m 670.54883,1041.5996 c -3.34227,11.4243 -6.78207,22.8202 -9.83688,34.3253 -10.5269,39.0068 -18.4455,78.7183 -23.68136,118.7804 -2.15231,16.4775 -3.80288,33.0181 -5.05207,49.5877 -0.0513,0.4226 -0.0838,0.9195 -0.19193,1.4987 -0.51165,1.7716 -1.89718,3.1168 -2.82175,4.6712 -0.66753,0.014 -1.09569,-0.6692 -1.67988,-0.9206 -24.53065,-16.2848 -49.38083,-32.121 -75.02747,-46.6015 -39.95602,-22.6568 -81.61961,-42.565 -125.2189,-57.1792 -7.53649,-2.5536 -15.13974,-4.9029 -22.74562,-7.2401 4.64411,10.8142 9.17182,21.6869 13.08398,32.791 3.41804,9.6358 6.42544,19.5623 9.07503,29.4916 0.54091,1.9849 1.04056,3.9807 1.55974,5.9713 0.35484,1.4744 0.77893,3.1687 1.15214,4.7296 1.91175,8.0577 3.61722,16.2485 5.06607,24.4599 0.57571,3.2055 1.08712,6.3446 1.61773,9.582 13.07811,5.6163 25.97466,11.653 38.67578,18.0761 18.47679,9.3403 36.70512,19.5642 54.48902,30.3291 19.53152,11.8109 38.7633,24.3815 57.56966,37.3366 20.82226,14.3316 41.20799,29.2405 61.40117,44.3996 4.24821,3.2744 8.8645,6.1758 13.99237,7.8494 11.52367,4.0168 24.71901,3.2231 35.52513,-2.531 11.8907,-6.0757 21.0176,-17.5981 23.60257,-30.7654 1.37757,-6.3808 1.08024,-12.9616 0.54001,-19.4204 -0.73624,-14.482 -0.7375,-29.0497 -0.3297,-43.5806 0.39929,-14.5056 1.16145,-29.0172 2.38525,-43.5142 1.02883,-12.4072 2.34939,-24.9342 3.95145,-37.2783 2.8902,-22.5137 6.70457,-44.8647 11.36152,-67.0903 1.07989,-5.1722 2.21757,-10.2803 3.36702,-15.4552 -19.41469,-28.5914 -41.46327,-55.3692 -65.50727,-80.183 -1.79406,-1.7857 -3.58801,-3.5716 -5.38141,-5.358 -0.3138,1.0795 -0.6276,2.1589 -0.9414,3.2383 z" /></svg>
