<?xml version="1.0" encoding="utf-8"?>
<!-- Generator: Adobe Illustrator 22.1.0, SVG Export Plug-In . SVG Version: 6.00 Build 0)  -->
<svg version="1.1"
	 id="svg8" inkscape:version="0.92.4 (5da689c313, 2019-01-14)" sodipodi:docname="insecta.svg" xmlns:cc="http://creativecommons.org/ns#" xmlns:dc="http://purl.org/dc/elements/1.1/" xmlns:inkscape="http://www.inkscape.org/namespaces/inkscape" xmlns:rdf="http://www.w3.org/1999/02/22-rdf-syntax-ns#" xmlns:sodipodi="http://sodipodi.sourceforge.net/DTD/sodipodi-0.dtd" xmlns:svg="http://www.w3.org/2000/svg"
	 xmlns="http://www.w3.org/2000/svg" xmlns:xlink="http://www.w3.org/1999/xlink" x="0px" y="0px" viewBox="0 0 2267.7 2267.7"
	 style="enable-background:new 0 0 2267.7 2267.7;" xml:space="preserve">
<style type="text/css">
	.st0{fill:none;stroke:#000000;stroke-miterlimit:10;}
</style>
<sodipodi:namedview  bordercolor="#666666" borderopacity="1.0" id="base" inkscape:current-layer="layer1" inkscape:cx="1537.4654" inkscape:cy="961.24022" inkscape:document-units="mm" inkscape:pageopacity="0.0" inkscape:pageshadow="2" inkscape:window-height="962" inkscape:window-maximized="1" inkscape:window-width="1280" inkscape:window-x="-8" inkscape:window-y="-8" inkscape:zoom="0.1400905" pagecolor="#ffffff" showgrid="false">
	</sodipodi:namedview>
<g id="layer1" transform="translate(-57.820508,119.98634)" inkscape:groupmode="layer" inkscape:label="Capa 1">
	<path id="path3713" inkscape:connector-curvature="0" class="st0" d="M667.3,2017.5c33.5-29.1,55.9-64.8,69.3-107.3
		c29.1-96.2,47-196.8,62.6-295.2c4.5-35.8,17.9-51.4,55.9-44.7c67.1,6.7,138.6-13.4,203.5,29.1c6.7,6.7,26.8,2.2,33.5-4.5
		c35.8-29.1,44.7,0,58.1,22.4c22.4,49.2,53.7,93.9,102.9,107.3c71.6,20.1,91.7,78.3,123,129.7c15.7,22.4,22.4,58.1,64.8,64.8
		c-6.7-51.4-44.7-85-55.9-149.8c62.6,67.1,129.7,89.4,194.5,114c123,44.7,254.9,80.5,384.6,40.2c67.1-20.1,102.9-8.9,145.3,42.5
		c55.9,64.8,136.4,80.5,214.7,47c-26.8-4.5-44.7-15.7-64.8-13.4c-87.2,4.5-127.5-55.9-169.9-114c-6.7-11.2-20.1-29.1,4.5-33.5
		c58.1-8.9,22.4-29.1,4.5-40.2c-96.2-60.4-152.1-147.6-199-246c-44.7-96.2-100.6-190.1-165.5-275c-42.5-58.1-80.5-55.9-123-2.2
		c-20.1,24.6-38,49.2-55.9,73.8c-22.4,31.3-44.7,35.8-78.3,15.7c-76-42.5-145.3-91.7-216.9-143.1
		c-73.8-51.4-140.9-118.5-225.8-149.8c-82.7-29.1-120.7-89.4-136.4-167.7c-8.9-49.2-20.1-96.2-53.7-134.2c-20.1-24.6-22.4-47,0-76
		c38-51.4,29.1-82.7-31.3-102.9c-38-11.2-42.5-26.8-20.1-55.9c11.2-13.4,22.4-29.1,33.5-42.5C967,342.6,1116.8,186.1,1277.8,40.8
		c8.9-8.9,24.6-15.7,20.1-35.8c-4.5,2.2-11.2,2.2-15.7,4.5C1089.9,168.2,917.8,349.3,759,541.6c-42.5,51.4-51.4,53.7-93.9-2.2
		C508.6,322.5,316.3,145.9,90.4,2.7c-8.9-4.5-17.9-20.1-31.3,0c44.7,33.5,89.4,69.3,136.4,105.1c161,123,304.1,263.9,422.6,427.1
		c13.4,17.9,42.5,38-4.5,53.7c-60.4,20.1-71.6,55.9-38,111.8c15.7,29.1,35.8,55.9,40.2,89.4c4.5,22.4,13.4,47-31.3,42.5
		c-40.2-2.2-53.7,24.6-49.2,67.1c6.7,98.4,31.3,190.1,67.1,281.7c40.2,98.4,100.6,178.9,223.6,167.7c76-6.7,96.2,42.5,116.3,98.4
		c13.4,33.5,0,44.7-31.3,33.5c-31.3-13.4-60.4-29.1-87.2-44.7s-49.2-17.9-53.7,20.1c-4.5,31.3-22.4,38-47,33.5
		c-62.6-4.5-123-8.9-185.6-20.1c-96.2-15.7-114-4.5-134.2,91.7c-2.2,15.7-2.2,29.1-6.7,44.7c-29.1,120.7-13.4,259.4-114,362.2
		c67.1-22.4,98.4-76,114-136.4c20.1-85,35.8-172.2,49.2-261.6c6.7-44.7,26.8-53.7,64.8-49.2c71.6,11.2,140.9,24.6,212.4,33.5
		c38,4.5,42.5,22.4,38,53.7c-8.9,76-26.8,149.8-44.7,225.8c-17.9,73.8-22.4,161-127.5,190.1C627.1,2044.3,647.2,2033.1,667.3,2017.5
		z M1599.8,1451.7c-17.9-11.2-15.7-24.6-6.7-42.5c49.2-98.4,80.5-100.6,145.3-8.9c58.1,80.5,102.9,167.7,156.5,250.4
		c-2.2,4.5-6.7,8.9-11.2,11.2C1789.8,1592.6,1693.7,1523.3,1599.8,1451.7z M754.5,1185.6C721,1107.4,712,1026.9,683,946.4
		c-6.7-13.4-15.7-29.1-35.8-26.8c-22.4,4.5-24.6,26.8-22.4,42.5c6.7,40.2,17.9,82.7,20.1,123c-29.1-47-42.5-100.6-51.4-154.3
		c-6.7-24.6-13.4-55.9,24.6-67.1c35.8-11.2,53.7,15.7,69.3,40.2c67.1,102.9,136.4,208,201.2,313.1c15.7,24.6,49.2,44.7,44.7,89.4
		C859.9,1301.5,754.5,1185.6,754.5,1185.6z"/>
</g>
</svg>
