<?xml version="1.0" encoding="utf-8"?>
<!-- Generator: Adobe Illustrator 22.1.0, SVG Export Plug-In . SVG Version: 6.00 Build 0)  -->
<svg version="1.1"
	 id="svg8" inkscape:version="0.92.4 (5da689c313, 2019-01-14)" sodipodi:docname="invertebrados.svg" xmlns:cc="http://creativecommons.org/ns#" xmlns:dc="http://purl.org/dc/elements/1.1/" xmlns:inkscape="http://www.inkscape.org/namespaces/inkscape" xmlns:rdf="http://www.w3.org/1999/02/22-rdf-syntax-ns#" xmlns:sodipodi="http://sodipodi.sourceforge.net/DTD/sodipodi-0.dtd" xmlns:svg="http://www.w3.org/2000/svg"
	 xmlns="http://www.w3.org/2000/svg" xmlns:xlink="http://www.w3.org/1999/xlink" x="0px" y="0px" viewBox="0 0 2267.7 2267.7"
	 style="enable-background:new 0 0 2267.7 2267.7;" xml:space="preserve">
<style type="text/css">
	.st0{fill:none;stroke:#000000;stroke-width:0.2646;}
</style>
<sodipodi:namedview  bordercolor="#666666" borderopacity="1.0" id="base" inkscape:current-layer="layer1" inkscape:cx="1157.8855" inkscape:cy="729.83909" inkscape:document-units="mm" inkscape:pageopacity="0.0" inkscape:pageshadow="2" inkscape:window-height="962" inkscape:window-maximized="1" inkscape:window-width="1280" inkscape:window-x="-8" inkscape:window-y="-8" inkscape:zoom="0.1400905" pagecolor="#ffffff" showgrid="false">
	</sodipodi:namedview>
<g id="layer1" transform="translate(-66.651029,34.365018)" inkscape:groupmode="layer" inkscape:label="Capa 1">
	<path id="path3713" inkscape:connector-curvature="0" class="st0" d="M2303,813c-68,120.5-223.2,226.2-244.6,302.2
		c-21.4,76-78.6,312.6-287.6,289.7c-37.3-3.8-74.1-11.4-109.8-22.5c212.7,180,95,253.3,70.1,313.2c-24.8,60-10.1,163.4-65.9,196.5
		c-55.8,33.1-100.6,12.5-124.3,85.6c-23.7,73.1-74,127.7-153.2,111.2c-79.1-16.5-153.5,66.7-209.6-17.7
		c-31.6-60.7-73.2-115.6-123.2-162.3c-41-30.6-27.8-151.9-0.4-282.1c23.9-107.8,19.1-220-14-325.3c-10,19.8-20,39.6-27.1,57.1
		c-14.3,38.5-23.1,78.9-26.2,119.9l0,0c-3.5,46.4-14.6,92-33,134.8c-43.7,89.2-88.8,71.2-88.8,71.2s-46.2-7.7-35.1-108.3
		s69.4-156.9,87.1-246.4c2-18.1,4.5-41.3,6.8-61.9c-86.3,70.1-152.3,162.1-191.1,266.3c-47.1,120.2-101.1,231.8-151,234.2
		c-67.8,11-133,34-192.8,67.7c-93.4,42-107.6-66.6-185.3-96c-77.7-29.4-87.9-103.6-69.4-177.3s-25.1-81.1-55.3-139.2
		s39.6-147.1,48.1-201c8.5-53.9-47.6-185.4,228.4-225.7c-34.6-9.1-68.2-21.6-100.4-37.1c-188.2-93.7-105.7-322.3-84-400.9
		s-49.4-240.4-43.9-386.1c5.5-145.6,154.9-293.8,474.4,7.6c255.8,239.5,371.1,641.3,401.9,764.8c10.6-8.9,22.9-15.6,36.1-19.5l0,0
		c8.3-3.6,17.6-4.5,26.4-2.3c0.3-84.6-6.2-169.2-19.3-252.8c-17-59.3-57.7-236.1-75.8-261.6c-18.1-25.5-27.6-34.4-14.7-56.5
		c12.9-22.1,24.1-5.2,23.2,2.5c12.8,70.5,31.5,139.8,55.6,207.2c28.9,118.4,41.9,240.1,38.7,362l12.9,1.4l14.9,6.9
		c63.1-105.3,140.4-201.4,229.7-285.6c56.6-43.3,109.1-91.8,156.9-144.7c0.8-7.7,20-16.1,20.1,7.4s-16.3,29.6-41.2,42.5
		c-24.9,12.9-161.2,136.4-207.6,178.3c-56.2,63.4-107.3,131.1-152.8,202.6c5.4,3.1,10.3,7.2,14.4,12c13.1,9.9,22.5,23.8,27,39.5
		c90.7-89.3,405.1-360.4,751.6-424.3C2334,482.1,2371,692.5,2303,813z M960.4,1078.5c4.7-14.5,12.4-27.9,22.6-39.3
		c3.1-4.9,3.1-4.9,3.1-4.9C923,782.1,807.4,546.1,646.8,341.7c105.7,165,193.2,341,261.1,524.8c-88.5-184.9-207.8-353.4-352.8-498.3
		c99.4,120.7,186.6,251,260.3,388.9c-87.9-128.6-192.9-244.7-312.1-344.9C648.1,568.4,775.6,740,883.3,923.8
		C757.1,761.7,603.5,622.9,429.5,513.8c168.2,136.4,321.2,290.7,456.2,460C726,831,542,718,342.5,640
		c197.1,104.9,382,231.2,551.6,376.4c-175-110.5-369.9-186-573.7-222.1c181.2,54.3,356.1,127.7,521.8,219.1
		C689.3,955,527.4,924,363.9,921.8C567.9,951.9,767.9,1004.4,960.4,1078.5z M929.4,1218.7c7.7-22.7,10.2-45.9,12.8-69.1
		c-233.2-66.4-477.7-83.4-717.9-49.9c182.3-8.9,364.9,1.5,545,31c-189.9-14.3-380.8,3.7-564.6,53c143.4-23.9,288.7-33.3,434-28.2
		c-144.2,10.4-286.4,40.5-422.4,89.5c195.2-43.5,394.7-65.5,594.7-65.4c-189.2,25.3-372.5,83.9-541.2,173.1
		c187.4-72.1,382.2-123.4,580.8-153.1c-187.8,61.2-362.8,156.2-516.4,280.3c175.3-109.4,362-199.3,556.9-268
		c-169.3,88.2-319.4,209.4-441.2,356.4c125.9-119.7,264.4-225.4,413.2-315.1c-115.9,94-214.2,207.9-290.2,336.4
		C677.5,1453.2,797.1,1328.8,929.4,1218.7z M1717,1537.4c-184.8-158-400.4-275.9-633.2-346.2c-7.7,22.7-18,45-28.3,67.4
		c52.3,164,86.3,333.2,101.4,504.7c6.8-149.8-13.1-299.6-58.6-442.5c77.1,156.3,137,320.5,178.8,489.6
		c-23.1-189.8-83.9-373.1-178.6-539.2c126.9,163.9,235.3,341.3,323.3,529c-62.1-188-157.9-363.1-282.9-516.7
		c151.8,133.7,288.6,283.6,408,446.9c-93.9-166.5-216.4-315.2-361.9-439.2c165.7,108.6,319.1,234.9,457.5,376.5
		c-87.2-114-189.3-215.7-303.8-302.2c125.1,73.2,242.5,158.7,350.7,255.2c-127.7-140.4-278.1-258.4-444.9-349
		c168.1,71.6,328.2,160.9,477.4,266.4L1717,1537.4z M1205.5,1105.4c221.3-29.5,445.2-34.7,667.6-15.7
		c-208.5-42.4-422.8-47.3-633-14.5c205.7-69.2,418.4-116,634.2-139.4c-206.5-2.4-411.8,31.7-606.4,100.7
		C1458,940.2,1658,864.9,1864.4,812c-154.6,19.2-305.8,59.8-449.3,120.5c136-76.1,279.3-138.3,427.7-185.6
		c-198.9,43-389.1,119.3-562.7,225.6c156.3-117,324.8-216.8,502.6-297.5c-246.5,84.1-472.3,219.6-662.4,397.5l-0.6,5.2
		c1.2,14.8-0.4,29.7-4.8,43.9c202.3,42,399.4,106.5,587.4,192.3c-139.1-86.9-292.2-148.7-452.6-182.8
		c187.4,13.5,372.8,47,553.1,99.8"/>
</g>
</svg>
