<?xml version="1.0" encoding="UTF-8" standalone="no"?>
<svg
   id="b6059ebe-38db-42f5-b6d4-5a7b6a2a60a6"
   data-name="Capa 1"
   viewBox="0 0 2268.0001 2268"
   version="1.1"
   width="2268"
   height="2268"
   xmlns="http://www.w3.org/2000/svg"
   xmlns:svg="http://www.w3.org/2000/svg"
   xmlns:rdf="http://www.w3.org/1999/02/22-rdf-syntax-ns#"
   xmlns:cc="http://creativecommons.org/ns#"
   xmlns:dc="http://purl.org/dc/elements/1.1/">
  <metadata
     id="metadata15">
    <rdf:RDF>
      <cc:Work
         rdf:about="">
        <dc:format>image/svg+xml</dc:format>
        <dc:type
           rdf:resource="http://purl.org/dc/dcmitype/StillImage" />
        <dc:title>ic_uso</dc:title>
      </cc:Work>
    </rdf:RDF>
  </metadata>
  <defs
     id="defs13" />
  <title
     id="title2">ic_uso</title>
  <path
     d="m 4141.2257,640.7593 c -19.0549,-19.0549 -29.3152,-43.97284 -29.3152,-70.35654 0,-27.84946 10.2603,-51.30164 29.3152,-70.35653 19.0549,-19.05489 43.9728,-29.31522 70.3565,-29.31522 27.8495,0 51.3017,10.26033 70.3566,29.31522 19.0548,19.05489 29.3152,43.97283 29.3152,70.35653 0,27.84946 -10.2604,51.30164 -29.3152,70.35654 -19.0549,19.05489 -43.9729,29.31522 -70.3566,29.31522 -26.3837,0 -51.3016,-8.79457 -70.3565,-29.31522 m 148.0419,901.4431 H 4130.9654 V 790.26693 h 158.3022 z"
     id="path4-3"
     style="stroke-width:14.6576;fill:none" />
  <path
     d="m 5206.834,640.7593 c 68.8908,57.16468 102.6033,146.57611 102.6033,265.30275 0,120.19245 -35.1783,206.67235 -105.5348,262.37125 -70.3565,55.6989 -177.3571,83.5484 -322.4675,83.5484 h -174.4255 v 290.2207 h -165.631 V 554.27939 h 338.5908 c 149.5076,0 257.9739,29.31522 326.8647,86.47991 m -117.2609,407.4816 c 33.7125,-35.1783 49.8359,-86.47992 49.8359,-155.3707 0,-68.89077 -20.5207,-115.79512 -63.0277,-145.11034 -42.5071,-27.84947 -108.4664,-42.50708 -199.3435,-42.50708 h -170.0283 v 395.75552 h 193.4804 c 92.343,0 155.3707,-17.5892 189.0832,-52.7674"
     id="path6-6"
     style="stroke-width:14.6576;fill:none" />
  <path
     d="m 6183.0309,1235.8583 h -589.236 c 4.3973,54.2332 29.3153,98.206 74.7539,131.9185 45.4385,33.7125 98.2059,49.8359 158.3022,49.8359 93.8087,0 165.631,-29.3152 214.0011,-89.4114 l 90.8772,98.2059 c -80.6169,83.5484 -186.1517,126.0555 -316.6044,126.0555 -105.5348,0 -194.9463,-35.1783 -268.2343,-105.5348 -73.2881,-70.3565 -111.3979,-164.1652 -111.3979,-282.8919 0,-118.7266 38.1098,-212.53535 112.8636,-281.42612 74.7539,-70.35654 164.1653,-104.06904 266.7686,-104.06904 102.6032,0 189.0831,30.78098 260.9054,92.34295 71.8223,61.56196 107.0006,146.57611 107.0006,255.04241 z m -589.236,-124.5897 h 430.9338 c 0,-63.0277 -19.0549,-111.39784 -58.6304,-145.11034 -39.5756,-33.71251 -87.9457,-51.30164 -146.5762,-51.30164 -57.1646,0 -109.932,17.58913 -155.3706,52.7674 -46.9044,35.17828 -70.3566,83.54838 -70.3566,143.64458"
     id="path8-7"
     style="stroke-width:14.6576;fill:none" />
  <path
     d="m 6890.9935,1316.4752 c 0,71.8223 -26.3837,128.9869 -77.6853,171.494 -51.3017,42.5071 -118.7267,64.4935 -199.3435,64.4935 -54.2332,0 -111.3979,-10.2603 -170.0283,-29.3152 -58.6305,-19.0549 -111.3979,-46.9044 -155.3707,-83.5484 l 76.2196,-123.1239 c 87.9456,65.9592 172.9598,98.206 253.5766,98.206 35.1783,0 64.4935,-8.7946 85.0142,-24.918 20.5206,-16.1234 30.781,-38.1098 30.781,-63.0277 0,-38.1098 -49.8359,-71.8223 -149.5077,-101.1375 -7.3288,-2.9315 -13.1918,-4.3973 -17.5891,-5.8631 -156.8364,-42.507 -234.5218,-112.8636 -234.5218,-211.0696 0,-70.3565 26.3837,-126.05542 80.6169,-167.09673 54.2332,-42.50708 124.5897,-63.02773 211.0696,-63.02773 86.4799,0 168.5625,24.91794 246.2479,76.21958 l -58.6305,117.26088 c -61.562,-41.04131 -127.5212,-60.0962 -199.3435,-60.0962 -38.1098,0 -68.8908,7.3288 -92.3429,20.52065 -23.4522,13.19185 -35.1783,33.71251 -35.1783,61.56197 0,24.91798 11.7261,42.50708 36.644,54.23318 17.5891,8.7945 41.0413,16.1234 71.8223,23.4522 30.781,7.3288 57.1647,14.6576 80.6169,21.9864 23.4521,7.3288 46.9043,16.1233 68.8907,24.9179 21.9865,8.7946 45.4386,21.9864 71.8223,39.5756 51.3017,35.1782 76.2196,87.9456 76.2196,158.3022"
     id="path10"
     style="stroke-width:14.6576;fill:none" />
  <path
     d="m 7404.0099,1552.4627 c -104.069,0 -194.9462,-35.1783 -269.7,-107.0006 -74.7539,-70.3565 -112.8637,-164.1652 -112.8637,-278.4946 0,-114.3293 39.5756,-208.13805 117.2609,-279.96034 79.1511,-71.82229 174.4256,-108.46632 287.2892,-108.46632 112.8636,0 208.1381,39.57555 287.2892,117.26089 l -93.8087,114.32937 c -64.4935,-57.16469 -130.4528,-85.01415 -196.412,-85.01415 -65.9593,0 -123.1239,21.98642 -171.4941,65.95925 -48.3701,43.9728 -73.288,99.6718 -73.288,170.0283 0,68.8908 23.4522,127.5212 71.8223,175.8913 48.3701,48.3701 107.0005,71.8223 177.3571,71.8223 70.3565,0 136.3158,-32.2467 197.8777,-95.2745 l 93.8087,101.1376 c -90.8772,92.3429 -196.412,137.7815 -315.1386,137.7815"
     id="path12"
     style="stroke-width:14.6576;fill:none" />
  <path
     d="M 8485.7416,1542.2024 H 8342.097 v -99.6718 c -61.562,74.7538 -145.1103,111.3979 -249.1794,111.3979 -77.6853,0 -142.1788,-21.9865 -193.4805,-65.9593 -51.3016,-43.9728 -76.2195,-102.6033 -76.2195,-177.3571 0,-73.288 27.8494,-128.987 82.0826,-165.631 54.2332,-36.644 128.987,-55.6989 221.3299,-55.6989 h 205.2066 v -27.8495 c 0,-99.67172 -55.699,-149.5076 -167.0968,-149.5076 -70.3565,0 -142.1788,24.91794 -216.9326,76.21958 l -70.3566,-98.206 c 90.8772,-71.82229 194.9463,-108.46632 310.7414,-108.46632 87.9456,0 161.2337,21.98642 216.9326,67.42501 55.6989,45.4386 83.5484,114.32937 83.5484,211.06963 v 482.2354 z M 8328.9051,1262.242 v -63.0277 h -177.357 c -114.3294,0 -171.4941,35.1782 -171.4941,107.0005 0,36.6441 14.6576,64.4935 42.5071,83.5484 27.8494,19.0549 67.425,29.3152 117.2609,29.3152 49.8358,0 93.8087,-14.6576 131.9185,-42.507 38.1098,-27.8495 57.1646,-65.9593 57.1646,-114.3294"
     id="path14"
     style="stroke-width:14.6576;fill:none" />
  <path
     d="m 8764.2362,1445.4621 c -70.3565,-71.8223 -105.5348,-165.631 -105.5348,-282.8919 0,-117.2608 36.644,-209.60379 108.4663,-279.96032 71.8223,-70.35654 158.3022,-104.06904 259.4397,-104.06904 99.6718,0 180.2886,42.50707 241.8506,127.52121 V 494.18319 h 158.3022 V 1542.2024 H 9268.458 v -112.8636 c -58.6304,83.5483 -143.6446,124.5897 -255.0424,124.5897 -95.2745,-1.4658 -178.8229,-36.6441 -249.1794,-108.4664 m 52.7674,-275.563 c 0,71.8222 23.4522,130.4527 68.8908,175.8913 45.4386,45.4386 99.6717,67.425 162.6994,67.425 61.562,0 114.3294,-23.4522 158.3022,-68.8908 43.9729,-45.4386 64.4935,-104.069 64.4935,-175.8913 0,-71.8223 -21.9864,-131.9185 -64.4935,-178.82286 -43.9728,-48.37012 -96.7402,-71.8223 -159.7679,-71.8223 -63.0277,0 -117.2609,23.45218 -162.6995,71.8223 -45.4386,48.37016 -67.425,108.46636 -67.425,180.28866"
     id="path16"
     style="stroke-width:14.6576;fill:none" />
  <path
     d="m 10284.23,1441.0649 c -74.753,74.7538 -170.028,112.8636 -282.891,112.8636 -112.864,0 -206.6728,-38.1098 -282.8923,-112.8636 -74.7538,-74.7539 -112.8636,-165.631 -112.8636,-274.0974 0,-108.4663 38.1098,-199.34348 112.8636,-274.0973 74.7538,-74.75381 170.0283,-112.8636 282.8923,-112.8636 112.863,0 206.672,38.10979 282.891,112.8636 74.754,74.75382 112.864,165.631 112.864,274.0973 0,107.0006 -38.11,199.3435 -112.864,274.0974 m -452.9197,-98.206 c 43.9728,45.4386 101.1375,68.8907 170.0287,68.8907 68.89,0 126.055,-23.4521 170.028,-68.8907 43.973,-45.4386 67.425,-104.0691 67.425,-177.3571 0,-71.8223 -21.987,-131.9185 -67.425,-177.35712 -45.439,-45.4386 -101.138,-68.89078 -170.028,-68.89078 -68.8912,0 -126.0559,23.45218 -170.0287,68.89078 -45.4386,45.43862 -67.425,104.06902 -67.425,177.35712 0,73.288 21.9864,131.9185 67.425,177.3571"
     id="path18"
     style="stroke-width:14.6576;fill:none" />
  <path
     d="m 802.2219,470.73101 c -33.7125,-10.26033 -68.89077,-14.65761 -104.06904,-16.12337 -7.3288,-27.84947 -27.84946,-93.80871 -32.24674,-99.67176 -5.86305,-5.86304 -219.86417,38.10979 -376.7006,133.38426 0,0 26.3837,30.78098 36.64402,52.7674 -39.57555,10.26033 -90.87718,21.98642 -131.9185,21.98642 0,0 -114.329361,-121.65817 -161.233717,-121.65817 -46.904355,0 48.370117,123.12393 48.370117,156.83643 0,33.71251 -95.274472,149.50764 -71.8222942,174.42557 C 34.163085,797.59573 174.87615,693.5267 226.17779,693.5267 c 30.78098,0 57.16468,7.3288 96.74023,23.45217 -16.12337,5.86305 -39.57555,16.12337 -45.43859,19.0549 -10.26033,4.39728 8.79456,39.57555 10.26032,46.90435 1.46577,7.32881 20.52066,48.37012 45.4386,48.37012 17.58913,0 64.49349,-46.90436 90.87719,-73.28806 27.84946,5.86305 161.23372,5.86305 161.23372,5.86305 0,0 -51.30164,7.3288 -51.30164,46.90435 0,38.10979 51.30164,96.74024 73.28805,96.74024 41.04132,0 33.71251,-33.71251 33.71251,-136.31579 0,0 112.8636,13.19185 247.71363,-14.65761 134.84999,-29.31522 200.80929,-38.10979 200.80929,-92.34295 1.4657,-1.46576 -109.93211,-139.2473 -287.2892,-193.48046"
     id="path20"
     style="stroke-width:14.6576;fill:none" />
  <path
     d="m 1768.1585,1385.3659 c -48.3702,55.699 -77.6854,128.987 -77.6854,208.1381 0,79.1511 29.3152,152.4392 77.6854,208.1381 10.2603,13.1918 21.9864,23.4522 35.1782,35.1783 l 35.1783,-35.1783 c -13.1919,-10.2603 -24.9179,-21.9864 -35.1783,-35.1783 -39.5755,-46.9043 -63.0277,-107.0005 -63.0277,-172.9598 0,-65.9592 23.4522,-126.0554 63.0277,-172.9598 10.2604,-13.1918 21.9864,-24.9179 35.1783,-35.1783 l -35.1783,-35.1782 c -11.7261,11.7261 -23.4521,23.4521 -35.1782,35.1782"
     id="path22"
     style="stroke-width:14.6576;fill:none" />
  <path
     d="m 1560.0204,1177.2279 c -101.1375,109.932 -164.1653,256.5082 -164.1653,417.7419 0,161.2337 61.562,307.8098 164.1653,417.7419 11.7261,11.7261 23.4522,23.4522 35.1783,35.1783 l 35.1782,-35.1783 c -11.7261,-11.7261 -23.4522,-23.4522 -35.1782,-35.1783 -92.343,-101.1375 -149.5077,-234.5218 -149.5077,-382.5636 0,-146.5761 57.1647,-281.4262 149.5077,-382.5637 11.726,-11.7261 21.9864,-23.4522 35.1782,-35.1782 l -35.1782,-35.1783 c -13.1919,10.2603 -24.918,21.9864 -35.1783,35.1783"
     id="path24"
     style="stroke-width:14.6576;fill:none" />
  <path
     d="m 1350.4166,967.62402 c -155.3707,162.69948 -250.6452,384.02938 -250.6452,625.87998 0,241.8506 95.2745,463.1805 250.6452,625.88 11.726,11.7261 23.4521,23.4522 35.1782,35.1783 l 35.1783,-35.1783 c -11.7261,-11.7261 -23.4522,-23.4522 -35.1783,-35.1783 -146.5761,-153.9049 -235.9875,-362.043 -235.9875,-590.7017 0,-228.6587 89.4114,-436.7968 235.9875,-590.7017 11.7261,-11.7261 23.4522,-23.45219 35.1783,-35.17828 l -35.1783,-35.17827 c -11.7261,11.72609 -23.4522,23.45218 -35.1782,35.17827"
     id="path26"
     style="stroke-width:14.6576;fill:none" />
  <path
     d="m 2034.927,1660.929 c -36.644,0 -65.9593,-29.3152 -65.9593,-65.9592 0,-36.6441 29.3153,-65.9593 65.9593,-65.9593 36.644,0 65.9592,29.3152 65.9592,65.9593 0,35.1782 -29.3152,65.9592 -65.9592,65.9592"
     id="path28"
     style="stroke-width:14.6576;fill:none" />
  <path
     d="m 1533.6367,456.0734 c 48.3701,55.69892 77.6853,128.98697 77.6853,208.13807 0,79.1511 -29.3152,152.43916 -77.6853,208.13808 -10.2603,13.19185 -21.9864,23.45218 -35.1783,35.17827 l -35.1782,-35.17827 c 13.1918,-10.26033 24.9179,-21.98642 35.1782,-35.17827 39.5756,-46.90435 63.0278,-107.00056 63.0278,-172.95981 0,-65.95925 -23.4522,-126.05545 -63.0278,-172.95981 -10.2603,-13.19185 -21.9864,-24.91794 -35.1782,-35.17826 l 35.1782,-35.17827 c 13.1919,11.72609 23.4522,21.98642 35.1783,35.17827"
     id="path30"
     style="stroke-width:14.6576;fill:none" />
  <path
     d="m 1741.7748,246.46956 c 101.1375,109.93208 164.1652,256.50819 164.1652,417.74191 0,161.23372 -61.562,307.80983 -164.1652,417.74193 -11.7261,11.7261 -23.4522,23.4522 -35.1783,35.1783 l -35.1783,-35.1783 c 11.7261,-11.7261 23.4522,-21.9864 35.1783,-35.1783 92.3429,-101.1375 149.5076,-234.52176 149.5076,-382.56363 0,-146.57611 -57.1647,-281.42613 -149.5076,-382.56364 -11.7261,-11.72609 -23.4522,-23.45218 -35.1783,-35.17827 l 35.1783,-35.17827 c 13.1918,11.72609 24.9179,23.45218 35.1783,35.17827"
     id="path32"
     style="stroke-width:14.6576;fill:none" />
  <path
     d="m 1951.3786,38.331483 c 155.3707,162.699487 250.6452,384.029407 250.6452,625.879987 0,241.85058 -95.2745,463.18053 -250.6452,625.88003 -11.7261,11.7261 -23.4522,23.4521 -35.1783,35.1782 l -35.1782,-35.1782 c 11.7261,-11.7261 23.4521,-23.4522 35.1782,-35.1783 146.5761,-153.9049 235.9876,-362.043 235.9876,-590.70173 0,-228.65873 -89.4115,-436.7968 -235.9876,-590.70172 -11.7261,-11.726089 -23.4521,-23.452178 -35.1782,-35.178267 l 35.1782,-35.178266 c 11.7261,11.726089 23.4522,23.452178 35.1783,35.178266"
     id="path34"
     style="stroke-width:14.6576;fill:none" />
  <path
     d="m 1266.8682,730.17072 c 36.644,0 65.9592,-29.31522 65.9592,-65.95925 0,-36.64402 -29.3152,-65.95925 -65.9592,-65.95925 -36.6441,0 -65.9593,29.31523 -65.9593,65.95925 0,36.64403 29.3152,65.95925 65.9593,65.95925"
     id="path36"
     style="stroke-width:14.6576;fill:none" />
  <path
     class="st0"
     d="m 2971.5483,1734.2171 c 0,0 -33.7125,-86.4799 -131.9185,-111.3979 h 131.9185 v 0 c 2.9316,0 4.3973,-1.4657 4.3973,-4.3973 0,-2.9315 -1.4657,-4.3972 -4.3973,-4.3972 h -366.4402 v 0 c -2.9316,0 -4.3973,1.4657 -4.3973,4.3972 0,2.9316 1.4657,4.3973 4.3973,4.3973 h 127.5212 c -98.206,24.918 -131.9185,111.3979 -131.9185,111.3979 54.2331,0 74.7538,32.2467 95.2744,63.0277 -2.9315,-4.3973 -7.3288,-7.3288 -13.1918,-7.3288 -8.7946,0 -16.1234,7.3288 -16.1234,16.1234 0,8.7945 7.3288,16.1233 16.1234,16.1233 8.7946,0 16.1234,-7.3288 16.1234,-16.1233 0,-2.9316 -1.4658,-5.8631 -2.9316,-8.7946 19.0549,29.3152 38.1098,57.1647 89.4115,57.1647 h 1.4657 c 48.3701,0 68.8908,-26.3837 87.9457,-54.2332 -1.4658,1.4658 -1.4658,4.3973 -1.4658,5.8631 0,8.7945 7.3288,16.1233 16.1234,16.1233 8.7946,0 16.1234,-7.3288 16.1234,-16.1233 0,-8.7946 -7.3288,-16.1234 -16.1234,-16.1234 -4.3973,0 -8.7946,1.4658 -11.7261,5.863 7.3288,-11.726 16.1234,-24.9179 26.3837,-35.1782 1.4658,1.4657 85.0142,73.288 115.7951,83.5484 60.0963,19.0549 73.2881,-20.5207 73.2881,-20.5207 l -189.0832,-61.562 c 16.1234,-17.5891 35.1783,-27.8494 67.425,-27.8494"
     id="path38"
     style="stroke-width:14.6576;fill:none" />
  <path
     class="st0"
     d="m 3335.0571,1772.3269 c 0,-38.1098 -68.8908,-38.1098 -68.8908,-38.1098 v 230.1245 c 0,0 68.8908,-139.2473 68.8908,-192.0147"
     id="path40"
     style="stroke-width:14.6576;fill:none" />
  <path
     class="st0"
     d="m 2235.7363,1772.3269 c 0,52.7674 68.8907,192.0147 68.8907,192.0147 v -230.1245 c 1.4658,0 -68.8907,0 -68.8907,38.1098"
     id="path42"
     style="stroke-width:14.6576;fill:none" />
  <path
     class="st0"
     d="m 2600.7108,1734.2171 v 0 l -218.3984,-282.8919 c 0,0 79.1511,96.7402 224.2614,49.8359 127.5212,-41.0413 115.7951,-67.425 117.2609,-74.7539 0,-1.4657 0,-1.4657 0,-1.4657 0,0 -49.8359,-27.8495 -77.6853,-7.3288 -27.8495,19.0549 -36.6441,38.1098 -70.3566,11.7261 -33.7125,-26.3837 -48.3701,-41.0413 -87.9456,4.3973 -38.1098,45.4385 -65.9593,-11.7261 -107.0006,1.4657 0,0 21.9864,-32.2467 51.3016,-17.5891 29.3153,13.1918 42.5071,0 60.0962,-33.7125 17.5892,-33.7125 36.6441,-38.1098 73.2881,-4.3973 36.644,33.7125 61.562,-13.1919 112.8636,-82.0826 0,0 -27.8495,-21.9864 -73.288,-21.9864 -43.9729,0 -186.1517,45.4385 -234.5218,164.1652 -63.0277,161.2337 227.1929,293.1522 230.1245,294.618 h -294.618 c 0,0 0,68.8907 102.6033,68.8907 51.3016,0 192.0147,-68.8907 192.0147,-68.8907 z"
     id="path44"
     style="stroke-width:14.6576;fill:none" />
  <path
     class="st0"
     d="m 2432.1482,1860.2725 c 0,32.2468 42.5071,105.5348 42.5071,105.5348 v -142.1788 c 0,0 -42.5071,13.1919 -42.5071,36.644"
     id="path46"
     style="stroke-width:14.6576;fill:none" />
  <path
     class="st0"
     d="m 2640.2863,1860.2725 c 0,32.2468 42.5071,105.5348 42.5071,105.5348 v -142.1788 c 0,0 -42.5071,13.1919 -42.5071,36.644"
     id="path48"
     style="stroke-width:14.6576;fill:none" />
  <path
     class="st0"
     d="m 2476.1211,1823.6285 c 0,0 13.1918,41.0413 73.288,20.5207 30.781,-10.2604 118.7267,-85.0142 118.7267,-85.0142 z"
     id="path50"
     style="stroke-width:14.6576;fill:none" />
  <path
     class="st0"
     d="m 3093.2065,1822.1627 v 142.1789 c 0,0 42.5071,-73.2881 42.5071,-107.0006 1.4657,-21.9864 -42.5071,-35.1783 -42.5071,-35.1783"
     id="path52"
     style="stroke-width:14.6576;fill:none" />
  <path
     class="st0"
     d="m 2890.9315,1823.6285 v 142.1788 c 0,0 42.507,-73.288 42.507,-105.5348 0,-23.4521 -42.507,-36.644 -42.507,-36.644"
     id="path54"
     style="stroke-width:14.6576;fill:none" />
  <path
     class="st0"
     d="m 3198.7413,1439.5991 c -48.3701,-117.2609 -190.5489,-164.1652 -234.5218,-164.1652 -43.9728,0 -73.288,21.9864 -73.288,21.9864 51.3016,68.8907 76.2195,115.7951 112.8636,82.0826 36.644,-33.7125 55.6989,-30.781 73.288,4.3973 17.5892,33.7125 32.2468,46.9043 61.562,33.7125 29.3152,-13.1919 51.3016,17.5891 51.3016,17.5891 -41.0413,-14.6576 -68.8907,43.9728 -107.0005,-1.4657 -38.1098,-45.4386 -54.2332,-32.2468 -87.9457,-4.3973 -33.7125,26.3837 -42.5071,7.3288 -70.3565,-11.7261 -27.8495,-19.0549 -77.6854,7.3288 -77.6854,7.3288 0,0 0,0 0,1.4657 1.4658,7.3289 -10.2603,33.7126 117.2609,74.7539 145.1104,46.9043 224.2615,-49.8359 224.2615,-49.8359 l -215.4669,282.8919 v 0 0 0 0 c 1.4658,0 139.2473,68.8907 192.0147,68.8907 101.1375,0 102.6033,-68.8907 102.6033,-68.8907 h -293.1522 c 0,-1.4658 291.6864,-133.3843 224.2614,-294.618"
     id="path56"
     style="stroke-width:14.6576;fill:none" />
  <path
     class="st0"
     d="m 2590.4504,1583.2437 c 0,14.6576 7.3288,27.8494 14.6577,27.8494 8.7945,0 14.6576,-13.1918 14.6576,-27.8494 0,-14.6576 -7.3288,-27.8495 -14.6576,-27.8495 -7.3289,0 -14.6577,13.1919 -14.6577,27.8495"
     id="path58"
     style="stroke-width:14.6576;fill:none" />
  <path
     class="st0"
     d="m 2987.6717,1583.2437 c 0,-14.6576 -7.3288,-27.8495 -14.6576,-27.8495 -8.7946,0 -14.6576,13.1919 -14.6576,27.8495 0,14.6576 7.3288,27.8494 14.6576,27.8494 8.7946,0 14.6576,-11.726 14.6576,-27.8494"
     id="path60"
     style="stroke-width:14.6576;fill:none" />
</svg>
