<?xml version="1.0" encoding="utf-8"?>
<!-- Generator: Adobe Illustrator 22.1.0, SVG Export Plug-In . SVG Version: 6.00 Build 0)  -->
<svg version="1.1"
	 id="svg8" inkscape:version="0.92.4 (5da689c313, 2019-01-14)" sodipodi:docname="lilianae.svg" xmlns:cc="http://creativecommons.org/ns#" xmlns:dc="http://purl.org/dc/elements/1.1/" xmlns:inkscape="http://www.inkscape.org/namespaces/inkscape" xmlns:rdf="http://www.w3.org/1999/02/22-rdf-syntax-ns#" xmlns:sodipodi="http://sodipodi.sourceforge.net/DTD/sodipodi-0.dtd" xmlns:svg="http://www.w3.org/2000/svg"
	 xmlns="http://www.w3.org/2000/svg" xmlns:xlink="http://www.w3.org/1999/xlink" x="0px" y="0px" viewBox="0 0 2267.7 2267.7"
	 style="enable-background:new 0 0 2267.7 2267.7;" xml:space="preserve">
<style type="text/css">
	.st0{fill:none;stroke:#000000;stroke-miterlimit:10;}
</style>
<sodipodi:namedview  bordercolor="#666666" borderopacity="1.0" id="base" inkscape:current-layer="layer1" inkscape:cx="906.6585" inkscape:cy="789.40714" inkscape:document-units="mm" inkscape:pageopacity="0.0" inkscape:pageshadow="2" inkscape:window-height="962" inkscape:window-maximized="1" inkscape:window-width="1280" inkscape:window-x="-8" inkscape:window-y="-8" inkscape:zoom="0.1400905" pagecolor="#ffffff" showgrid="false">
	</sodipodi:namedview>
<g id="layer1" transform="translate(-224.72151,48.225294)" inkscape:groupmode="layer" inkscape:label="Capa 1">
	<path id="path3713" inkscape:connector-curvature="0" class="st0" d="M1127,2179.3c59.2-21.7-1.2-44.1,16.8-72.2
		c39.6-59.4,39.6-130.2,42.4-195.2c2.8-70.7,2.8-138.7,22.6-209.4c2.8-17,2.8-39.6,0-59.4c0-5.7-5.7-17-11.3-17
		c-11.3-5.7-17,5.7-19.8,14.1c-17,84.9-96.2,144.3-101.9,237.7c-25.5-36.8-34-76.4-39.6-116c-14.1-84.9-28.3-169.8-59.4-251.8
		c-42.4-118.8-65.1-249-76.4-376.3c0-5.7,2.8-14.1,0-17c-73.6-99,11.3-178.3,34-266c11.3-45.3,31.1-90.5,25.5-150
		c-45.3,65.1-87.7,121.7-121.7,183.9C824,788.6,792.9,698,775.9,604.6c-11.3-67.9,34-110.4,82.1-138.7
		c48.1-28.3,53.8-67.9,50.9-110.4c0-14.1-11.3-34-19.8-36.8c-50.9-11.3-90.5-59.4-138.7-62.3c-50.9-2.8-104.7,14.1-144.3,53.8
		c-14.1,14.1-25.5,17-45.3,17c-76.4,5.7-113.2,36.8-121.7,107.5c-5.7,39.6,48.1,118.8,96.2,130.2c42.4,11.3,82.1,34,133,19.8
		c34-8.5,50.9,17,59.4,50.9c36.8,116,56.6,237.7,70.7,365c-59.4-5.7-104.7-59.4-175.4-53.8c59.4,73.6,118.8,138.7,189.6,195.2
		c19.8,14.1,36.8,28.3,42.4,53.8c17,82.1,31.1,166.9,48.1,260.3c-76.4-34-107.5-124.5-200.9-141.5c53.8,76.4,99,144.3,155.6,203.7
		c19.8,19.8,36.8,45.3,39.6,76.4c5.7,19.8,8.5,42.4,22.6,56.6c79.2,87.7,73.6,206.6,116,308.4c8.5,19.8,5.7,39.6,0,59.4
		c-14.1,36.8-5.7,70.7,25.5,96.2c11.3,14.1,31.1,25.5,17,45.3c-8.5,17,17.3,18,17.3,18S1109.2,2182.4,1127,2179.3z M1463.5,2211.8
		c5.7-8.5,5.7-19.8,11.3-25.5c150-246.2,251.8-515,367.8-775.3c5.7-14.1,11.3-36.8,28.3-34c76.4,14.1,135.8-39.6,209.4-45.3
		c67.9-2.8,121.7-59.4,198.1-56.6c-45.3-50.9-45.3-50.9-356.5-22.6c90.5-150,107.5-314.1,147.1-475.4c5.7-19.8,17-34,31.1-48.1
		c31.1-36.8,53.8-76.4,53.8-124.5c0-45.3,36.8-79.2,36.8-124.5c0-17,8.5-36.8-8.5-45.3c-19.8-8.5-17,25.5-39.6,25.5
		c5.7-65.1,5.7-130.2,28.3-195.2s25.5-133-8.5-195.2c-8.5-14.1-14.1-36.8-36.8-25.5c-17,11.3-45.3-2.8-50.9,28.3
		c-11.3,50.9-34,107.5-5.7,152.8c59.4,96.2,28.3,189.6,14.1,285.8c-2.8,39.6-17,76.4-28.3,121.7c-28.3-31.1-34-62.3-42.4-93.4
		c-5.7-22.6-11.3-42.4-25.5-59.4c-5.7-8.5-14.1-17-25.5-14.1c-11.3,2.8-8.5,14.1-8.5,25.5c5.7,82.1,2.8,166.9,59.4,237.7
		c8.5,11.3,11.3,22.6,8.5,34c-34,164.1-65.1,325.4-155.6,475.4c-25.5-25.5-34-56.6-42.4-84.9c-28.3-116-48.1-232-2.8-348
		c19.8-53.8-11.3-101.9-39.6-144.3c-5.7-11.3-14.1-17-28.3-11.3c-50.9,11.3-96.2,31.1-113.2,82.1c-19.8,53.8,0,113.2,50.9,147.1
		c34,22.6,48.1,48.1,56.6,90.5c17,104.7,17,212.2,70.7,308.4c8.5,14.1,5.7,31.1,2.8,45.3c-31.1,116-82.1,223.5-144.3,345.2
		c-39.6-135.8-45.3-266-138.7-365c11.3,42.4,22.6,84.9,34,127.3c17,82.1,0,166.9,17,246.2c42.4,220.7-93.4,367.8-198.1,529.1
		L1463.5,2211.8z M1367.3,1931.7c-2.8-31.1,17-53.8,22.6-79.2c22.6-127.3,62.3-251.8,65.1-382c0-11.3-2.8-19.8-5.7-39.6
		c-62.3,48.1-79.2,116-118.8,175.4c-11.3-67.9-31.1-130.2-25.5-189.6c11.3-104.7,36.8-206.6,104.7-291.4
		c59.4-70.7,87.7-172.6,76.4-243.3c-36.8,45.3-67.9,84.9-110.4,138.7c19.8-121.7,70.7-215,118.8-308.4c11.3-17,28.3-19.8,45.3-22.6
		c84.9-17,121.7-67.9,118.8-155.6c-50.9,25.5-62.3,5.7-39.6-42.4c-25.5-8.5-56.6,48.1-73.6-5.7c-2.8-11.3-17-5.7-22.6,2.8
		c-19.8,34-56.6,65.1-53.8,104.7c5.7,67.9-28.3,118.8-53.8,175.4c-36.8,70.7-56.6,152.8-101.9,220.7
		c-62.3-189.6,42.4-336.7,118.8-492.3c-59.4,22.6-84.9,79.2-130.2,127.3c0-36.8-2.8-67.9,2.8-96.2c8.5-50.9,5.7-99,8.5-150
		c0-48.1,2.8-96.2,53.8-124.5c5.7-2.8,8.5-8.5,11.3-14.1c17-53.8,31.1-101.9,104.7-48.1c28.3,19.8,82.1-39.6,65.1-73.6
		c-11.3-25.5-14.1-48.1-8.5-76.4c2.8-28.3-17-45.3-42.4-50.9c-28.3-5.7-56.6-2.8-84.9,8.5c-34,14.1-59.4,8.5-90.5-17
		c-39.6-34-87.7-25.5-116-2.8c-36.8,28.3-82.1,56.6-101.9,104.7c-22.6,48.1-2.8,87.7,45.3,90.5c67.9,5.7,127.3,70.7,124.5,141.5
		c-2.8,53.8-11.3,110.4-17,175.4c-31.1-62.3-53.8-121.7-135.8-138.7c36.8,70.7,67.9,135.8,104.7,198.1
		c11.3,22.6,22.6,45.3,22.6,70.7c0,164.1,2.8,328.2,5.7,492.3c0,25.5,0,56.6-28.3,65.1c-25.5,8.5-45.3-17-56.6-34
		c-28.3-39.6-48.1-82.1-96.2-127.3c19.8,67.9,17,124.5,53.8,172.6c31.1,42.4,39.6,101.9,76.4,141.5c96.2,110.4,53.8,249,84.9,373.5
		c11.3,39.6-31.1,96.2-11.3,138.7c48.1,96.2,34,200.9,50.9,299.9c8.5,50.9-29.7,65.6,11.1,65.6
		C1369.3,2209.9,1367.3,1931.7,1367.3,1931.7z"/>
</g>
</svg>
