<?xml version="1.0" encoding="UTF-8" standalone="no"?>
<svg
   xmlns:dc="http://purl.org/dc/elements/1.1/"
   xmlns:cc="http://creativecommons.org/ns#"
   xmlns:rdf="http://www.w3.org/1999/02/22-rdf-syntax-ns#"
   xmlns:svg="http://www.w3.org/2000/svg"
   xmlns="http://www.w3.org/2000/svg"
   version="1.1"
   id="svg8"
   x="0px"
   y="0px"
   viewBox="0 0 2268 2268.0001"
   xml:space="preserve"><metadata
   id="metadata10"><rdf:RDF><cc:Work
       rdf:about=""><dc:format>image/svg+xml</dc:format><dc:type
         rdf:resource="http://purl.org/dc/dcmitype/StillImage" /><dc:title></dc:title></cc:Work></rdf:RDF></metadata><defs
   id="defs8">
	</defs>

<path
   id="path92"
   style="fill:none;stroke-width:6.96659"
   d="m 13429.631,648.41016 c -2.817,-0.008 -5.652,-2.9e-4 -8.504,0.0215 -85.689,0 -160.927,13.93361 -238.256,38.31641 -77.329,26.4729 -144.208,68.96832 -199.244,119.82422 l 160.93,165.10742 c 34.833,-32.7428 69.665,-63.39661 112.16,-83.59961 36.923,-22.293 85.689,-30.65235 136.545,-30.65235 50.856,0 98.229,11.84299 136.545,46.67579 36.923,30.65289 59.214,73.14974 59.214,128.18556 h -136.542 c -50.856,0 -97.533,4.1791 -148.389,12.539 -50.856,4.1798 -97.532,16.7193 -144.207,30.6524 -46.676,12.5399 -89.173,32.7438 -124.006,59.2168 -34.833,26.4728 -65.485,59.2153 -85.688,97.5312 -20.202,38.3164 -30.654,89.1711 -30.654,144.207 0,50.8561 14.631,94.0494 30.654,132.3653 16.023,38.3167 42.496,73.1481 77.329,97.5312 32.743,26.4722 71.757,46.6766 114.252,59.2168 42.496,13.9329 85.687,22.291 132.363,22.291 63.395,0 124.005,-12.5388 179.041,-34.832 55.035,-24.383 102.408,-63.3958 140.724,-114.2519 h 4.18 v 132.3652 h 280.752 v -506.4688 c 0,-84.9919 -7.663,-158.1394 -20.203,-221.53509 -13.934,-65.4856 -38.315,-120.52158 -73.148,-163.01758 -39.012,-42.496 -81.51,-75.23825 -140.725,-97.53125 -57.367,-19.57156 -127.806,-33.9143 -215.123,-34.1582 z m 86.242,577.54884 v 4.1797 h 77.328 v 63.3965 c 0,30.6528 -8.36,61.3051 -22.293,81.5078 -12.54,22.2932 -28.562,39.0123 -50.855,55.0351 -24.384,14.63 -46.675,26.4726 -75.239,34.8321 -26.472,8.3603 -55.036,12.541 -85.689,12.541 -34.136,0 -68.967,-8.3593 -97.531,-24.3828 -30.653,-18.1127 -46.676,-43.192 -46.676,-81.5079 0,-34.8333 12.54,-63.397 32.742,-81.5097 22.294,-16.0235 48.767,-32.0467 81.51,-42.4961 34.833,-7.6636 68.969,-16.0235 101.711,-16.0235 34.833,-3.4831 64.789,-3.4822 84.992,-5.5722 z" /><path
   id="path86"
   style="fill:none;stroke-width:6.96659"
   d="M 10990.496,116.88281 V 1659.9746 h 280.754 v -132.3652 h 4.18 c 11.844,18.8098 24.381,39.0143 46.675,57.1269 16.023,20.2033 42.495,32.7421 66.879,50.8555 26.473,16.0228 55.035,27.867 85.688,38.3164 34.833,8.3597 68.97,12.5391 101.713,12.5391 73.149,0 140.027,-11.8421 201.332,-38.3145 59.216,-24.383 110.071,-59.217 152.568,-105.8926 42.496,-47.3727 77.329,-98.2286 97.533,-163.0175 20.899,-59.2157 34.832,-126.0954 34.832,-203.4239 0,-73.1486 -8.361,-135.8466 -30.654,-199.24216 -20.9,-64.7889 -51.551,-119.82584 -89.867,-170.68164 -39.013,-50.8559 -85.69,-89.17142 -140.725,-119.82422 -55.036,-28.5629 -118.431,-42.49609 -191.58,-42.49609 -63.396,0 -124.005,10.44934 -179.041,30.65234 -55.036,20.203 -101.711,55.03709 -136.545,101.71289 h -4.177 V 116.88281 Z m 517.617,799.76172 c 75.239,0 136.543,22.29285 179.039,68.96875 43.193,46.67592 63.395,105.88992 63.395,183.21872 0,75.2387 -20.899,136.5451 -63.395,183.2207 -42.496,46.6762 -103.8,66.8789 -179.039,66.8789 -77.329,0 -136.546,-20.2027 -179.041,-66.8789 -43.194,-46.6756 -63.396,-107.982 -63.396,-183.2207 0,-77.3288 20.899,-136.5428 63.396,-183.21872 42.495,-46.6759 101.712,-68.96875 179.041,-68.96875 z" /><path
   id="path74"
   style="fill:none;stroke-width:6.96659"
   d="m 7122.6777,648.41016 c -2.7719,-0.008 -5.5627,-2.9e-4 -8.3711,0.0215 -85.6886,0 -163.0169,13.93361 -238.2558,38.31641 -77.3287,26.4729 -144.2083,68.96832 -201.334,119.82422 l 163.0176,165.10742 c 34.8327,-32.7428 67.5763,-63.39661 110.0722,-83.59961 39.0127,-22.293 85.6872,-30.65235 136.543,-30.65235 50.8559,0 98.2289,11.84299 136.5449,46.67579 39.0124,30.65289 59.2168,73.14974 59.2168,128.18556 h -136.5449 c -50.8554,0 -97.533,4.1791 -148.3887,12.539 -50.8559,4.1798 -97.5312,16.7193 -144.207,30.6524 -46.6759,12.5399 -89.1711,32.7438 -124.0039,59.2168 -32.7428,26.4728 -63.3966,59.2153 -83.5996,97.5312 -22.2929,38.3164 -30.6524,89.1711 -30.6524,144.207 0,50.8561 12.5393,94.0494 30.6524,132.3653 16.023,38.3167 42.4974,73.1481 75.2402,97.5312 34.1361,26.4722 73.1486,46.6766 115.6446,59.2168 42.4959,13.9329 85.6872,22.291 132.3632,22.291 62.699,0 121.9156,-12.5388 176.9512,-34.832 56.4294,-24.383 103.8012,-63.3958 142.1172,-114.2519 h 4.1797 v 132.3652 h 280.7519 v -506.4688 c 0,-84.9919 -9.7535,-158.1394 -22.2929,-221.53509 -11.8437,-65.4855 -38.3158,-120.52158 -71.0586,-163.01758 -39.0124,-42.496 -81.5089,-75.23825 -140.7246,-97.53125 -59.3905,-19.57156 -127.9317,-33.9143 -213.8614,-34.1582 z m 84.9805,577.54884 v 4.1797 h 77.3301 v 63.3965 c 0,30.6528 -9.7536,61.3051 -22.293,81.5078 -12.5401,22.2932 -30.6541,39.0123 -50.8574,55.0351 -26.473,14.63 -46.6754,26.4726 -77.3281,34.8321 -24.3831,8.3603 -55.0366,12.541 -85.6895,12.541 -32.7428,0 -66.8784,-8.3593 -97.5312,-24.3828 -28.5629,-18.1127 -46.6758,-43.192 -46.6758,-81.5079 0,-34.8333 14.6289,-63.397 34.832,-81.5097 20.2029,-16.0235 46.677,-32.0467 81.5098,-42.4961 34.8327,-7.6636 66.8784,-16.0235 101.7109,-16.0235 34.8333,-3.4831 63.3961,-3.4822 84.9922,-5.5722 z" /><path
   id="path66"
   style="fill:none;stroke-width:6.96659"
   d="m 4444.1016,648.41016 c -2.7937,-0.008 -5.6054,-2.9e-4 -8.4356,0.0215 -85.6887,0 -163.0171,13.93361 -238.2558,38.31641 -77.3287,26.4729 -144.2064,68.96832 -201.3321,119.82422 l 163.0157,165.10742 c 34.8327,-32.7428 67.5763,-63.39661 110.0722,-83.59961 39.0128,-22.293 85.6891,-30.65235 136.5449,-30.65235 50.8559,0 98.229,11.84299 136.545,46.67579 39.0127,30.65289 61.3046,73.14974 61.3046,128.18556 h -136.5449 c -52.9457,0 -99.6206,4.1791 -150.4765,12.539 -50.8557,4.1798 -97.5312,16.7193 -144.2071,30.6524 -46.6759,12.5399 -89.1732,32.7438 -121.916,59.2168 -34.8327,26.4728 -65.4845,59.2153 -85.6875,97.5312 -22.293,38.3164 -30.6543,89.1711 -30.6543,144.207 0,50.8561 12.5413,94.0494 30.6543,132.3653 16.0231,38.3167 42.4955,73.1481 75.2383,97.5312 34.1362,26.4722 73.1486,46.6766 115.6445,59.2168 42.4961,13.9329 85.6894,22.291 132.3653,22.291 63.3956,0 121.9133,-12.5388 179.039,-34.832 55.0358,-24.383 102.4085,-63.3958 140.7246,-114.2519 h 4.1797 v 132.3652 h 280.752 v -506.4688 c 0,-84.9919 -8.3598,-158.1394 -22.293,-221.53509 -11.8431,-65.4855 -38.3157,-120.52158 -71.0586,-163.01758 -39.0127,-42.496 -81.5089,-75.23825 -140.7246,-97.53125 -58.7151,-19.57156 -127.8907,-33.9143 -214.4941,-34.1582 z m 86.3105,577.54884 v 4.1797 h 77.3281 v 63.3965 c 0,30.6528 -9.7531,61.3051 -22.2929,81.5078 -12.5398,22.2932 -30.6526,39.0123 -50.8555,55.0351 -26.4729,14.63 -46.6752,26.4726 -77.3281,34.8321 -24.3829,8.3603 -55.0367,12.541 -83.5996,12.541 -34.8328,0 -68.9683,-8.3593 -99.6211,-24.3828 -28.5629,-18.1127 -46.6758,-43.192 -46.6758,-81.5079 0,-34.8333 14.629,-63.397 34.832,-81.5097 22.2929,-16.0235 46.677,-32.0467 81.5098,-42.4961 34.8328,-7.6636 66.8781,-16.0235 101.7109,-16.0235 34.1361,-3.4831 62.6993,-3.4822 84.9922,-5.5722 z" /><path
   id="path60"
   style="fill:none;stroke-width:6.96659"
   d="m 2392.332,648.41016 c -2.7567,-0.008 -5.5278,-2.9e-4 -8.3144,0.0215 -85.6887,0 -163.019,13.93361 -240.3477,38.31641 -75.2388,26.4729 -144.2064,68.96832 -199.2422,119.82422 l 163.0176,165.10742 c 32.7427,-32.7428 67.5742,-63.39661 110.0703,-83.59961 39.0126,-22.293 85.6891,-30.65235 136.5449,-30.65235 50.8558,0 98.229,11.84299 136.545,46.67579 39.0128,30.65289 59.2148,73.14974 59.2148,128.18556 h -136.5449 c -50.8558,0 -97.5308,4.1791 -148.3867,12.539 -50.8559,4.1798 -97.5311,16.7193 -144.2071,30.6524 -46.6759,12.5399 -89.173,32.7438 -124.0058,59.2168 -34.8328,26.4728 -63.3945,59.2153 -85.6875,97.5312 -20.2031,38.3164 -28.5625,89.1711 -28.5625,144.207 0,50.8561 12.5394,94.0494 28.5625,132.3653 18.113,38.3167 42.4954,73.1481 77.3281,97.5312 34.8328,26.4722 73.8459,46.6766 114.252,59.2168 42.496,13.9329 85.6873,22.291 132.3632,22.291 64.789,0 124.0053,-12.5388 179.0411,-34.832 55.0357,-24.383 102.4085,-63.3958 140.7246,-114.2519 h 4.1797 v 132.3652 h 280.7519 v -506.4688 c 0,-84.9919 -7.6632,-158.1394 -20.2031,-221.53509 -11.8431,-65.4855 -38.3158,-120.52158 -73.1485,-163.01758 -36.9228,-42.496 -79.419,-75.23825 -140.7246,-97.53125 -56.6903,-19.57156 -127.7634,-33.9143 -213.2207,-34.1582 z m 86.4297,577.54884 v 4.1797 H 2554 v 63.3965 c 0,30.6528 -7.6633,61.3051 -20.2031,81.5078 -13.9331,22.2932 -30.6525,39.0123 -50.8555,55.0351 -26.4729,14.63 -46.6753,26.4726 -77.3281,34.8321 -26.4729,8.3603 -55.0367,12.541 -85.6895,12.541 -34.1361,0 -66.8784,-8.3593 -97.5312,-24.3828 -30.6528,-18.1127 -46.6758,-43.192 -46.6758,-81.5079 0,-34.8333 12.539,-63.397 34.832,-81.5097 20.2029,-16.0235 46.6771,-32.0467 81.5098,-42.4961 32.7428,-7.6636 66.8781,-16.0235 101.7109,-16.0235 32.7427,-3.4831 63.3958,-3.4822 84.9922,-5.5722 z" /><path
   style="fill:none;stroke-width:6.96659"
   d="m 15554.983,670.0277 -215.962,654.8559 h -4.18 l -256.37,-654.8559 h -331.608 l 433.32,994.8235 -20.203,57.1258 c -8.361,28.5629 -22.293,50.8561 -30.653,71.0587 -8.36,22.2932 -20.203,38.3167 -34.832,50.856 -16.024,18.1134 -32.743,26.4731 -55.036,34.8327 -20.203,8.3602 -50.857,12.54 -85.689,12.54 -50.856,0 -97.531,-8.3595 -144.208,-28.5628 l -42.495,250.0992 c 77.328,26.4729 150.477,38.3159 229.896,38.3159 77.328,0 132.364,-8.3595 179.04,-20.2025 42.496,-13.9337 81.509,-34.8334 112.162,-64.7891 28.562,-24.383 55.036,-59.2156 71.058,-101.7121 22.293,-38.316 38.316,-89.8684 59.216,-140.7238 l 477.209,-1153.6615 z"
   id="path98" /><path
   style="fill:none;stroke-width:6.96659"
   d="m 14014.678,1661.3679 h 307.225 v -413.1163 c 0,-50.856 4.181,-93.3519 8.36,-136.5445 4.181,-40.406 16.023,-75.2388 34.833,-105.8916 16.024,-28.5629 42.496,-50.8558 75.239,-66.8789 34.833,-18.113 81.509,-26.4729 140.724,-26.4729 26.474,0 46.677,0 68.97,4.18 20.202,4.1799 42.495,8.3597 63.395,18.1129 v -280.752 c -16.024,-6.2699 -50.856,-10.4499 -50.856,-10.4499 h -50.856 c -68.969,0 -124.005,18.1131 -170.68,46.676 -42.496,30.6527 -81.509,77.3287 -114.252,136.5444 h -4.179 V 670.0277 h -307.225 v 991.3402 z"
   id="path96" /><path
   style="fill:none;stroke-width:6.96659"
   d="m 12189.441,1661.3679 h 305.135 v -413.1163 c 0,-50.856 4.181,-93.3519 8.361,-136.5445 4.179,-40.406 18.112,-75.2388 34.832,-105.8916 16.024,-28.5629 42.496,-50.8558 77.329,-66.8789 32.743,-18.113 81.509,-26.4729 140.724,-26.4729 24.383,0 46.676,0 66.879,4.18 22.293,4.1799 42.496,8.3597 64.789,18.1129 v -280.752 c -18.113,-6.2699 -50.856,-10.4499 -50.856,-10.4499 h -52.945 c -66.879,0 -121.915,18.1131 -168.591,46.676 -42.496,30.6527 -81.508,77.3287 -115.645,136.5444 h -4.18 V 670.0277 h -305.135 v 991.3402 z"
   id="path90" /><path
   style="fill:none;stroke-width:6.96659"
   d="m 10447.804,1661.3679 h 307.225 V 670.0277 h -307.225 z"
   id="path84" /><path
   style="fill:none;stroke-width:6.96659"
   d="m 10472.186,486.8072 c 38.316,34.8329 77.328,50.8559 128.185,50.8559 50.855,0 93.351,-16.023 128.184,-50.8559 34.833,-38.316 50.855,-77.3287 50.855,-128.1846 0,-50.8557 -16.022,-93.3517 -50.855,-128.1845 -38.316,-32.7428 -77.329,-50.8558 -128.184,-50.8558 -50.857,0 -93.352,18.113 -128.185,50.8558 -32.742,38.316 -50.856,77.3288 -50.856,128.1845 0,47.3727 18.114,89.8686 50.856,128.1846 z"
   id="path82" /><path
   style="fill:none;stroke-width:6.96659"
   d="m 9395.8527,1661.3679 h 911.9223 V 1368.0765 H 9715.6187 V 214.415 h -319.766 z"
   id="path80" /><path
   style="fill:none;stroke-width:6.96659"
   d="m 8728.4571,670.0277 h -315.5846 l -218.0536,654.8559 h -4.1798 L 7936.3602,670.0277 h -333.698 l 439.5892,994.8235 -22.2925,57.1258 c -8.3603,28.5629 -20.2033,50.8561 -28.5628,71.0587 -8.3604,22.2932 -22.2932,38.3167 -34.8327,50.856 -16.0235,18.1134 -34.8333,26.4731 -55.0359,34.8327 -22.2931,8.3602 -50.856,12.54 -85.6886,12.54 -50.856,0 -97.5316,-8.3595 -144.2079,-28.5628 l -42.4958,250.0992 c 77.3283,26.4729 148.3877,38.3159 229.8959,38.3159 77.3291,0 132.365,-8.3595 179.0405,-20.2025 42.4965,-13.9337 81.5088,-34.8334 110.0718,-64.7891 30.6527,-24.383 55.0358,-59.2156 73.1486,-101.7121 20.2033,-38.316 38.3159,-89.8684 59.2156,-140.7238 z"
   id="path78" /><path
   style="fill:none;stroke-width:6.96659"
   d="m 6187.0585,1661.3679 h 305.1351 V 116.88327 h -305.1351 z"
   id="path72" /><path
   style="fill:none;stroke-width:6.96659"
   d="m 5985.7251,670.0277 h -305.135 v 498.8052 c 0,32.7427 0,63.3955 -4.18,93.3516 -4.1799,28.5629 -13.9331,55.0359 -26.4729,79.419 -12.5397,22.2931 -28.5628,42.4958 -55.0358,57.1257 -26.4728,12.5395 -59.2156,20.2026 -97.5317,20.2026 -38.3161,0 -68.9689,-8.3595 -89.8685,-24.3823 -22.293,-18.1134 -38.3161,-38.316 -46.676,-64.7891 -8.3598,-24.383 -16.0231,-55.0358 -16.0231,-85.6888 -6.2698,-28.5629 -6.2698,-59.2157 -6.2698,-89.8685 V 670.0277 h -305.1351 v 545.481 c 0,66.8791 4.18,132.3645 12.5398,187.4003 8.3599,55.0359 26.4729,105.8913 50.8558,148.3878 26.473,42.4957 64.789,73.1486 112.1615,97.5316 46.6759,22.2932 110.0717,34.8327 187.4004,34.8327 36.9228,0 71.0589,-4.1798 101.7116,-12.5395 34.8328,-13.9335 59.2158,-22.2932 85.6887,-38.3167 24.3828,-18.1126 46.6758,-34.8325 63.3956,-50.8553 16.023,-18.1134 30.6529,-38.316 42.496,-57.1258 h 4.18 v 136.5441 h 293.2918 V 670.0277 Z"
   id="path70" /><path
   style="fill:none;stroke-width:6.96659"
   d="m 3853.263,771.7393 c -50.8558,-46.6759 -105.8916,-81.5086 -168.5906,-101.7116 -64.7889,-22.293 -124.0046,-30.6529 -183.2204,-30.6529 -77.3287,0 -150.4775,13.9331 -218.0531,38.316 -66.8789,26.473 -124.0047,59.2157 -174.8604,105.8917 -50.8559,46.6759 -89.8685,103.8016 -117.7349,167.1972 -30.6527,63.3957 -42.4959,132.3645 -42.4959,213.8732 0,75.2388 12.5398,148.3877 42.4959,211.7832 28.563,64.789 66.879,119.8248 117.7349,167.1975 46.6759,46.6756 107.9815,81.5082 174.8604,105.8913 66.879,26.4729 140.7244,38.3159 218.0531,38.3159 55.0358,0 117.7349,-8.3595 183.2204,-30.6527 66.879,-16.0229 121.9147,-50.8554 168.5906,-101.7115 l -203.4234,-213.8731 c -16.023,18.1126 -38.316,34.8326 -63.3955,52.946 -26.473,12.5394 -57.1257,20.2025 -89.8686,20.2025 -77.3288,0 -136.5444,-20.2025 -179.0405,-66.8788 -42.4959,-46.6756 -64.7889,-107.9815 -64.7889,-183.2203 0,-77.3287 22.293,-136.5444 64.7889,-183.2204 42.4961,-46.6758 101.7117,-68.9688 179.0405,-68.9688 32.7429,0 63.3956,8.3599 89.8686,22.293 28.5628,16.023 46.6759,32.7428 63.3955,55.0358 z"
   id="path64" /><path
   style="fill:none;stroke-width:6.96659"
   d="M 141.4833,1661.3679 H 461.24808 V 550.2029 h 4.18 l 366.4406,1111.165 h 242.43612 l 378.2839,-1111.165 h 4.1799 v 1111.165 h 319.7648 V 214.415 h -479.9955 l -335.78792,946.058 h -4.18 L 621.47878,214.415 H 141.4833 Z"
   id="path3713" />
</svg>
