<?xml version="1.0" encoding="utf-8"?>
<!-- Generator: Adobe Illustrator 22.1.0, SVG Export Plug-In . SVG Version: 6.00 Build 0)  -->
<svg version="1.1"
	 id="svg8" inkscape:version="0.92.4 (5da689c313, 2019-01-14)" sodipodi:docname="magnoliidae.svg" xmlns:cc="http://creativecommons.org/ns#" xmlns:dc="http://purl.org/dc/elements/1.1/" xmlns:inkscape="http://www.inkscape.org/namespaces/inkscape" xmlns:rdf="http://www.w3.org/1999/02/22-rdf-syntax-ns#" xmlns:sodipodi="http://sodipodi.sourceforge.net/DTD/sodipodi-0.dtd" xmlns:svg="http://www.w3.org/2000/svg"
	 xmlns="http://www.w3.org/2000/svg" xmlns:xlink="http://www.w3.org/1999/xlink" x="0px" y="0px" viewBox="0 0 2267.7 2267.7"
	 style="enable-background:new 0 0 2267.7 2267.7;" xml:space="preserve">
<style type="text/css">
	.st0{fill:none;stroke:#000000;stroke-miterlimit:10;}
</style>
<sodipodi:namedview  bordercolor="#666666" borderopacity="1.0" id="base" inkscape:current-layer="layer1" inkscape:cx="1112.0523" inkscape:cy="783.78996" inkscape:document-units="mm" inkscape:pageopacity="0.0" inkscape:pageshadow="2" inkscape:window-height="962" inkscape:window-maximized="1" inkscape:window-width="1280" inkscape:window-x="-8" inkscape:window-y="-8" inkscape:zoom="0.1400905" pagecolor="#ffffff" showgrid="false">
	</sodipodi:namedview>
<g id="layer1" transform="translate(-170.37774,46.784258)" inkscape:groupmode="layer" inkscape:label="Capa 1">
	<path id="path3713" inkscape:connector-curvature="0" class="st0" d="M1327.4,1751c-2.8-62.4,42.5-48.2,53.9-48.2
		c25.5-5.7,42.5-19.8,39.7-48.2c-2.8-25.5-19.8-36.9-45.4-36.9c-22.7,2.8-28.3-5.7-22.7-28.3c36.9-147.4,51-297.6,53.9-450.7
		c2.8-76.5,65.2-90.7,119.1-110.6c53.9-17,85,22.7,110.6,62.4c22.7,42.5,51,79.4,85,113.4c42.5,45.4,87.9,76.5,147.4,87.9
		c42.5,8.5,79.4,25.5,113.4,51c51,34,104.9,48.2,167.2,45.4c59.5-2.8,119.1,0,170.1,42.5c14.2,8.5,39.7,25.5,48.2,5.7
		c11.3-22.7,22.7-56.7-8.5-73.7c-17-8.5-34-14.2-31.2-31.2c11.3-31.2,19.8,8.5,31.2,2.8c14.2-11.3,8.5-22.7,5.7-34
		c-28.3-70.9-48.2-147.4-87.9-215.4c-2.8-5.7-8.5-14.2-14.2-17c-85-65.2-175.7-124.7-275-144.6c-127.6-22.7-263.6-19.8-388.3,34
		c-45.4,19.8-93.5,36.9-138.9,53.9c-28.3,11.3-39.7,5.7-39.7-22.7c2.8-99.2,31.2-184.3,102-255.1c34-31.2,70.9-42.5,119.1-28.3
		c204.1,62.4,362.8,0,490.4-170.1c96.4-124.7,124.7-275,178.6-425.2c-76.5,28.3-150.2,17-221.1,22.7c-102,5.7-189.9,45.4-275,104.9
		c-70.9,51-138.9,104.9-189.9,175.7c-8.5,8.5-36.9,51-48.2,62.4c-2.8-19.8-5.7-34-8.5-59.5c-99.2,73.7-141.7,161.6-121.9,277.8
		c-11.3-82.2-19.8-161.6-2.8-240.9c48.2-212.6-181.4-532.9-453.5-487.6c-45.4,8.5-93.5,0-141.7,2.8c-25.5,0-42.5,2.8-28.3,34
		c34,73.7,51,153.1,65.2,232.4c11.3,53.9,22.7,107.7,56.7,153.1c17,22.7,14.2,31.2-14.2,42.5c-76.5,25.5-141.7,79.4-223.9,96.4
		c-19.8,5.7-34,22.7-45.4,39.7c-31.2,42.5-68,73.7-121.9,79.4c-19.8,2.8-34,14.2-22.7,34c42.5,62.4,39.7,136.1,59.5,204.1
		c68,249.4,385.5,272.1,513.1,93.5c36.9-51,82.2-93.5,104.9-153.1c14.2-45.4,42.5-45.4,76.5-17c51,39.7,85,96.4,85,158.7
		c0,96.4-14.2,189.9-25.5,300.5c-19.8-42.5-25.5-70.9-25.5-99.2c0-25.5-2.8-45.4-28.3-53.9c-17-5.7-31.2,2.8-39.7,14.2
		c-14.2,22.7-8.5,42.5,14.2,59.5c19.8,17,28.3,39.7,28.3,70.9c-25.5,0-42.5-11.3-56.7-31.2c-14.2-22.7-31.2-39.7-59.5-25.5
		c-17,11.3-31.2,25.5-25.5,48.2c8.5,25.5,28.3,39.7,56.7,34c22.7-2.8,45.4,0,51,22.7c5.7,22.7-22.7,25.5-36.9,34
		c-53.9,31.2-104.9,11.3-150.2-8.5c-127.6-56.7-258-34-388.3-25.5c-5.7,2.8-14.2,2.8-17,5.7c-172.9,110.6-362.8,206.9-416.7,430.9
		c-8.5,28.3-5.7,39.7,22.7,45.4c19.8,5.7,45.4,5.7,56.7,19.8c113.4,102,243.8,82.2,377,70.9c102-11.3,181.4-68,246.6-138.9
		c90.7-99.2,204.1-184.3,249.4-323.1c14.2-45.4,65.2-53.9,110.6-59.5c25.5-2.8,22.7,19.8,19.8,34c-17,82.2-22.7,167.2-56.7,249.4
		c-19.8-14.2-45.4-48.2-59.5-22.7c-19.8,34-68,48.2-68,90.7c0,36.9,28.3,45.4,59.5,31.2c22.7-11.3,48.2-11.3,36.9,19.8
		c-39.7,121.9-28.3,246.6-42.5,379.8c-34-19.8-56.7-34-82.2-51c-25.5-14.2-48.2-22.7-70.9,2.8c-17,19.8-19.8,39.7-5.7,59.5
		c19.8,25.5,42.5,22.7,65.2,8.5c31.2-17,51-2.8,68,22.7c22.7,28.3,130.4,48.2,121.9-11.3L1327.4,1751z"/>
</g>
</svg>
