<?xml version="1.0" encoding="utf-8"?>
<!-- Generator: Adobe Illustrator 22.1.0, SVG Export Plug-In . SVG Version: 6.00 Build 0)  -->
<svg version="1.1"
	 id="svg8" inkscape:version="0.92.4 (5da689c313, 2019-01-14)" sodipodi:docname="mammalia.svg" xmlns:cc="http://creativecommons.org/ns#" xmlns:dc="http://purl.org/dc/elements/1.1/" xmlns:inkscape="http://www.inkscape.org/namespaces/inkscape" xmlns:rdf="http://www.w3.org/1999/02/22-rdf-syntax-ns#" xmlns:sodipodi="http://sodipodi.sourceforge.net/DTD/sodipodi-0.dtd" xmlns:svg="http://www.w3.org/2000/svg"
	 xmlns="http://www.w3.org/2000/svg" xmlns:xlink="http://www.w3.org/1999/xlink" x="0px" y="0px" viewBox="0 0 2267.7 2267.7"
	 style="enable-background:new 0 0 2267.7 2267.7;" xml:space="preserve">
<style type="text/css">
	.st0{fill:none;stroke:#000000;stroke-miterlimit:10;}
</style>
<sodipodi:namedview  bordercolor="#666666" borderopacity="1.0" id="base" inkscape:current-layer="layer1" inkscape:cx="945.93665" inkscape:cy="872.50279" inkscape:document-units="mm" inkscape:pageopacity="0.0" inkscape:pageshadow="2" inkscape:window-height="962" inkscape:window-maximized="1" inkscape:window-width="1280" inkscape:window-x="-8" inkscape:window-y="-8" inkscape:zoom="0.1400905" pagecolor="#ffffff" showgrid="false">
	</sodipodi:namedview>
<g id="layer1" transform="translate(-214.32916,69.662601)" inkscape:groupmode="layer" inkscape:label="Capa 1">
	<path id="path3713_2_" inkscape:connector-curvature="0" class="st0" d="M2227.7,1980.8c-123.2,208.9-203.6,128.6-543.7,203.6
		c-37.5,8-77.7,2.7-115.2-2.7c-155.3-18.7-310.7-42.9-492.8-69.6c123.2-174.1,251.8-64.3,369.6-61.6c32.1-75-40.2-88.4-67-125.9
		c-190.2-238.4-190.2-235.7-372.3,26.8c-77.7,115.2-142,131.2-353.5,67c171.4-58.9,211.6-190.2,262.5-321.4
		c42.9-109.8,34.8-184.8-58.9-257.1c-80.4-61.6-150-155.3-128.6-254.4c64.3-297.3-5.4-302.7-214.3-383
		c-128.6-48.2,0-195.5,64.3-246.4c123.2-93.7,147.3-179.5,69.6-310.7C615.3,186.3,618,111.3,650.1,47
		c24.1-53.6,29.5-117.8,112.5-24.1c16.1,18.7,26.8,26.8,37.5,29.5c120.5,192.8,150,476.8,150,476.8c2.7-77.7,2.7-283.9-42.9-393.7
		c-10.7-26.8-42.2-76.3-99.6-87.3C803,43.8,851-57.4,915.3-60.1c91.1,125.9,160.7,254.4,123.2,436.6
		c-42.9,208.9,171.4,498.2,377.7,549.1c316.1,75,506.2,275.9,621.4,573.2c34.8,88.4-5.4,407.1,195.5,391
		C2233.1,1889.8,2246.9,1938.2,2227.7,1980.8z"/>
</g>
</svg>
