<?xml version="1.0" encoding="UTF-8" standalone="no"?>
<svg
   xmlns:dc="http://purl.org/dc/elements/1.1/"
   xmlns:cc="http://creativecommons.org/ns#"
   xmlns:rdf="http://www.w3.org/1999/02/22-rdf-syntax-ns#"
   xmlns:svg="http://www.w3.org/2000/svg"
   xmlns="http://www.w3.org/2000/svg"
   version="1.1"
   id="Capa_1"
   x="0px"
   y="0px"
   viewBox="0 0 2267.7 2267.7"
   xml:space="preserve"
   width="2267.7"
   height="2267.7"><metadata
   id="metadata11"><rdf:RDF><cc:Work
       rdf:about=""><dc:format>image/svg+xml</dc:format><dc:type
         rdf:resource="http://purl.org/dc/dcmitype/StillImage" /><dc:title></dc:title></cc:Work></rdf:RDF></metadata><defs
   id="defs9" />
<style
   type="text/css"
   id="style2">
	.st0{fill:#1D1D1B;}
</style>
<path
   id="path4"
   style="stroke-width:5.72652;fill:none"
   d="M 716.38672 0 C 322.40247 0 -1.5158245e-13 322.40249 0 716.38672 L 0 2267.6992 L 1551.3125 2267.6992 C 1945.2967 2267.6992 2267.6992 1945.2967 2267.6992 1551.3125 L 2267.6992 0 L 716.38672 0 z M 779.95117 197.56445 L 2093.041 197.56445 L 2093.041 1175.0801 C 2083.3059 1182.5246 2073.5709 1189.3977 2063.8359 1196.2695 C 2011.7246 1233.4919 1960.7598 1272.4316 1905.7852 1304.5 C 1858.8278 1331.9873 1811.2969 1324.5423 1767.7754 1287.8926 C 1728.2625 1254.1061 1687.6043 1222.0376 1645.8008 1192.2598 C 1539.2876 1116.0971 1448.808 1115.5257 1342.2949 1190.543 C 1299.9186 1220.3209 1259.2606 1252.3894 1220.3203 1286.1758 C 1171.0723 1329.1247 1124.6875 1325.6883 1075.4395 1286.748 C 1026.7641 1248.3803 978.66169 1208.8673 927.12305 1173.9355 C 846.95184 1120.1063 762.19856 1120.6781 682.02734 1172.2168 C 624.76219 1208.8665 572.07844 1252.9613 516.53125 1293.0469 C 462.12935 1332.5599 415.17304 1329.1235 367.07031 1282.166 C 344.7369 1260.4053 325.83849 1235.7811 304.65039 1212.875 C 269.71864 1175.08 227.91518 1150.4578 174.08594 1140.7227 L 174.08594 803.42969 C 174.08594 470.14652 446.66799 197.56445 779.95117 197.56445 z M 1459.4746 1340.0762 C 1517.8135 1340.2909 1576.2236 1370.356 1651.5273 1430.4844 C 1653.2452 1431.6297 1654.3894 1432.7743 1656.1074 1434.4922 C 1783.236 1537.5695 1840.5027 1541.0061 1972.7852 1439.0742 C 2010.0075 1409.8689 2087.888 1344.5852 2094.7598 1348.5938 C 2093.0419 1393.2604 1969.9209 1594.2627 1910.3652 1624.6133 C 1807.2879 1677.2972 1707.6465 1665.2708 1617.7402 1587.9629 C 1581.0905 1556.467 1541.5775 1527.8333 1502.0645 1499.7734 C 1469.996 1476.8674 1437.3556 1478.0127 1405.2871 1502.6367 C 1360.6203 1537.5684 1316.525 1571.9288 1270.7129 1605.1426 C 1179.6613 1671.5702 1087.466 1673.8596 995.8418 1606.8594 C 953.46559 1575.9362 912.23482 1543.8681 871.00391 1510.6543 C 828.6277 1476.8679 787.96878 1473.4332 744.44727 1508.9375 C 705.50697 1541.006 664.84928 1571.9291 624.76367 1601.707 C 515.95989 1682.4509 382.53204 1669.8515 288.61719 1571.3555 C 258.26666 1539.8596 175.80469 1382.3806 175.80469 1345.1582 C 241.65961 1339.4317 293.19837 1361.7656 332.13867 1408.1504 C 469.57503 1571.3561 496.48928 1524.9703 619.60938 1427.0469 C 767.35347 1309.6533 849.24304 1311.9455 998.70508 1430.4844 C 1132.1329 1536.4249 1132.1312 1536.4241 1267.8496 1428.7656 C 1342.867 1369.4962 1401.1357 1339.8614 1459.4746 1340.0762 z M 2089.5449 1683.5977 C 2089.7165 1683.6068 2089.7397 1683.7922 2089.6055 1684.168 C 1983.0923 1970.4938 1707.0743 2016.8782 1617.168 1939.5703 C 1580.5183 1908.0744 1541.0051 1879.4428 1501.4922 1851.3828 C 1469.4237 1828.4768 1436.7833 1829.6221 1404.7148 1854.2461 C 1360.048 1889.1778 1315.9527 1923.5362 1270.1406 1956.75 C 1179.089 2023.1776 1086.8918 2025.469 995.26758 1958.4688 C 952.89137 1927.5456 911.6606 1895.4775 870.42969 1862.2637 C 828.05348 1828.4773 787.39651 1825.0405 743.875 1860.5449 C 704.9347 1892.6133 664.27506 1923.5366 624.18945 1953.3145 C 515.38566 2034.0584 381.95782 2021.4589 288.04297 1922.9629 C 257.69244 1891.467 175.23047 1733.9879 175.23047 1696.7656 C 241.0854 1691.039 292.62414 1713.373 331.56445 1759.7578 C 469.00081 1922.9635 495.91703 1876.5796 619.03711 1778.6562 C 766.7812 1661.2628 848.66882 1663.553 998.13086 1782.0918 C 1131.5587 1888.0323 1131.5589 1888.0314 1267.2773 1780.373 C 1417.312 1661.8341 1500.3478 1661.835 1650.9551 1782.0918 C 1652.6731 1783.2371 1653.8173 1784.3816 1655.5352 1786.0996 C 1782.6639 1889.1768 1827.3308 1880.5884 1968.2031 1790.1094 C 2021.1465 1756.2692 2086.0552 1683.4119 2089.5449 1683.5977 z " />
</svg>
