<?xml version="1.0" encoding="UTF-8" standalone="no"?>
<svg
   xmlns:dc="http://purl.org/dc/elements/1.1/"
   xmlns:cc="http://creativecommons.org/ns#"
   xmlns:rdf="http://www.w3.org/1999/02/22-rdf-syntax-ns#"
   xmlns:svg="http://www.w3.org/2000/svg"
   xmlns="http://www.w3.org/2000/svg"
   version="1.1"
   id="svg8"
   x="0px"
   y="0px"
   viewBox="0 0 2267.7 2267.7"
   style="enable-background:new 0 0 2267.7 2267.7;"
   xml:space="preserve"><metadata
   id="metadata2740"><rdf:RDF><cc:Work
       rdf:about=""><dc:format>image/svg+xml</dc:format><dc:type
         rdf:resource="http://purl.org/dc/dcmitype/StillImage" /><dc:title></dc:title></cc:Work></rdf:RDF></metadata><defs
   id="defs2738" />
<style
   type="text/css"
   id="style2732">
	.st0{fill:none;stroke:#000000;stroke-width:0.2646;}
</style>


<path
   id="path2953"
   style="fill:none;stroke:#000000;stroke-miterlimit:10"
   d="m 2105.3535,1668.7266 c 5.0855,-9.1229 10.2419,-18.2107 14.9565,-27.5333 22.878,-44.4132 42.7611,-90.3745 59.4466,-137.4947 4.229,-11.9279 8.2845,-24.0734 12.1028,-36.1322 5.0595,-16.0704 9.7683,-32.2055 14.096,-48.4671 4.8616,-18.2206 9.2891,-36.72 13.1923,-55.1741 2.4263,-11.4009 4.6539,-22.8436 6.7273,-34.3139 4.4362,-24.798 8.0793,-49.8631 10.8292,-74.9522 2.9589,-26.8135 4.9363,-53.7676 5.9526,-80.7678 1.6992,-45.504 0.6985,-91.1418 -3.0307,-136.5049 -1.189,-14.4798 -2.6746,-29.0375 -4.4152,-43.42937 -5.5099,-45.42705 -13.7911,-90.50149 -24.8185,-134.94535 -8.0797,-32.52903 -17.6596,-64.80849 -28.668,-96.51539 -9.5618,-27.5103 -20.1938,-54.70756 -31.9137,-81.4238 -10.8938,-24.85594 -22.7125,-49.30083 -35.4102,-73.31518 -0.5169,-0.98503 -1.0448,-1.96427 -1.5665,-2.94676 -2.4935,354.63867 -4.987,709.27735 -7.4805,1063.91605 z" /><path
   style="fill:none;stroke:#000000;stroke-miterlimit:10"
   d="m 1121.3633,12.314453 c -16.7469,0.13086 -33.4195,0.584552 -50.1405,1.422914 -18.7808,0.932974 -37.6222,2.363504 -56.3041,4.237256 -18.758,1.886288 -37.36917,4.222023 -55.99524,7.045151 -52.89781,8.002318 -105.31813,19.831993 -156.57726,35.393988 -20.57967,6.244816 -41.08324,13.127733 -61.25953,20.563875 -56.56576,20.842693 -111.48765,46.344773 -163.93994,76.120913 -25.19841,14.31863 -49.92728,29.64876 -73.96126,45.90918 -36.12995,24.43513 -70.92086,51.0538 -103.97037,79.59719 -14.1554,12.21312 -28.1005,24.86913 -41.61016,37.78226 -25.71944,24.56708 -50.23906,50.32674 -73.48512,77.21551 -17.55768,20.29836 -34.54041,41.43118 -50.57588,62.94833 -18.68886,25.08489 -36.33721,50.94137 -52.86959,77.52436 -12.12663,19.48463 -23.6541,39.36683 -34.57208,59.60497 -5.95271,11.04743 -11.76885,22.27303 -17.33196,33.48515 -15.7945,31.83301 -30.051715,64.36252 -42.739345,97.56473 -12.656608,33.12044 -23.747378,66.89841 -33.188319,101.12534 -4.745244,17.16425 -9.065204,34.48233 -12.998896,51.88466 -5.919673,26.35584 -10.936237,53.02474 -14.942325,79.78054 -4.314848,28.71838 -7.521091,57.63923 -9.622988,86.62163 -2.837152,39.2062 -3.652706,78.6392 -2.460608,117.992 0.497749,16.663 1.374591,33.3872 2.598099,50.0005 1.075876,14.5714 2.447665,29.2128 4.088111,43.7006 1.878423,16.6231 4.112834,33.1525 6.735161,49.699 2.679657,16.9265 5.768707,33.9075 9.216394,50.6937 14.704817,71.5799 36.475176,141.7758 64.929746,209.1195 14.61607,34.598 31.00609,68.5505 49.07225,101.5297 3.68094,6.7263 7.46573,13.4729 11.29516,20.1239 20.44756,35.577 42.86434,70.0208 67.10272,103.1315 15.991,21.8342 32.83206,43.1636 50.39272,63.8049 9.43851,11.0961 19.16863,22.084 29.0624,32.8321 16.97295,18.4322 34.62704,36.3613 52.84904,53.6566 7.54158,7.1552 15.30534,14.3223 23.03975,21.2615 21.77695,19.533 44.39318,38.2782 67.67218,56.0611 21.5646,16.4767 43.82128,32.2283 66.53041,47.0769 17.08034,11.1786 34.50435,21.9044 52.16834,32.1155 67.69413,39.1374 139.50759,71.0846 213.92697,95.1179 11.15508,3.6054 22.45969,7.059 33.71791,10.3058 18.04597,5.2054 36.16417,9.9231 54.46276,14.2112 34.49243,8.0787 69.45545,14.5181 104.59523,19.2735 20.66423,2.8061 41.55492,5.0426 62.34922,6.6868 10.2082,0.8081 20.4769,1.4765 30.6823,2.0103 31.1883,1.6079 62.4553,1.9536 93.6905,1.0112 9.5389,-0.2906 19.2003,-0.7011 28.7239,-1.2361 10.2548,-0.5615 20.4943,-1.2807 30.6989,-2.1208 12.4437,-1.0361 24.8701,-2.2757 37.2734,-3.7168 24.7421,-2.8906 49.4458,-6.6027 74.0006,-11.1469 34.8087,-6.4537 69.3721,-14.5674 103.4627,-24.3146 12.0076,-3.4455 24.0988,-7.116 35.9856,-10.9669 10.2165,-3.3195 20.4115,-6.714 30.5117,-10.3736 9.9334,-3.8026 19.8478,-7.729 29.3207,-12.5906 0.276,-344.1901 -0.6076,-608.8069 -0.3315,-952.997 -434.8164,0.2249 -869.63283,0.4474 -1304.44924,0.6738 -0.065,-30.4002 1.76671,-140.3864 3.84144,-170.7204 4.94704,-74.73061 17.21531,-149.13284 38.89484,-220.879 17.49973,-58.00716 41.20769,-114.20515 71.37074,-166.78004 27.81003,-48.56787 61.1182,-93.98263 99.0575,-135.12702 42.91978,-46.59117 91.71806,-87.65786 144.37726,-122.82141 54.42284,-36.3743 112.91243,-66.50309 173.58789,-90.99006 55.29762,-22.29844 112.42923,-39.96996 170.50358,-53.4102 41.60569,-9.59634 83.71019,-17.06922 126.10449,-22.17719 11.6721,-1.41054 23.3725,-2.58423 35.08,-3.6509 9.6484,-1.42215 19.4165,-1.71402 29.1522,-1.9732 22.1126,-0.47081 44.2368,0.18283 66.3149,1.41522 22.8818,1.33407 45.7471,3.36585 68.3944,6.95203 8.53,1.37633 17.0262,3.01912 25.3866,5.21388 L 1482.252,84.212891 c -21.8063,-11.376713 -44.296,-21.22674 -67.4105,-29.71227 -19.1631,-7.038047 -38.8079,-13.1072 -58.5949,-18.124984 -6.654,-1.684435 -13.4954,-3.287073 -20.2433,-4.728623 -10.9169,-2.33207 -21.9226,-4.344566 -32.924,-5.9888 -10.6814,-1.639824 -21.4553,-3.15297 -32.132,-4.500011 -10.3555,-1.29065 -20.7279,-2.443039 -31.1133,-3.464844 -24.5097,-2.381333 -49.2363,-3.991944 -73.8965,-4.78125 -14.8526,-0.482367 -29.7141,-0.667152 -44.5742,-0.597656 z"
   id="path3713-3" /><path
   id="path3713"
   style="fill:none;stroke:#000000;stroke-width:0.2646"
   d="m 1695.6973,36.75 c -233.9789,187.19054 -467.9563,374.38592 -701.93168,561.58203 66.14678,84.42866 132.29338,168.85745 198.44138,253.28516 80.1926,-63.51709 160.3846,-127.03523 240.6058,-190.51594 20.8349,-15.45075 39.7362,-33.28224 58.5558,-51.07745 26.817,-25.52619 52.9411,-51.76947 79.1872,-77.88081 24.1832,-24.0958 48.3134,-48.24361 72.4637,-72.37346 -6.1882,98.96972 -12.4032,197.93811 -18.5195,296.91211 0,495.71096 0,991.42186 0,1487.13286 142.4668,0 284.9336,0 427.4004,0 0,-735.8334 0,-1471.66671 0,-2207.500047 -118.5521,0 -237.1042,0 -355.6563,0 -0.1823,0.145182 -0.3645,0.290365 -0.5468,0.435547 z" /></svg>
