<?xml version="1.0" encoding="UTF-8" standalone="no"?>
<svg
   xmlns:dc="http://purl.org/dc/elements/1.1/"
   xmlns:cc="http://creativecommons.org/ns#"
   xmlns:rdf="http://www.w3.org/1999/02/22-rdf-syntax-ns#"
   xmlns:svg="http://www.w3.org/2000/svg"
   xmlns="http://www.w3.org/2000/svg"
   version="1.1"
   id="svg8"
   x="0px"
   y="0px"
   viewBox="0 0 2267.7 2267.7"
   style="enable-background:new 0 0 2267.7 2267.7;"
   xml:space="preserve"><metadata
   id="metadata2740"><rdf:RDF><cc:Work
       rdf:about=""><dc:format>image/svg+xml</dc:format><dc:type
         rdf:resource="http://purl.org/dc/dcmitype/StillImage" /><dc:title></dc:title></cc:Work></rdf:RDF></metadata><defs
   id="defs2738" />
<style
   type="text/css"
   id="style2732">
	.st0{fill:none;stroke:#000000;stroke-width:0.2646;}
</style>


<path
   id="path3713"
   style="fill:none;stroke:#000000;stroke-width:0.274745"
   d="m 1002.3693,580.94749 c 60.159,76.78868 120.3179,153.57733 180.4769,230.36599 C 1373.025,668.25051 1520.2231,531.43127 1671.6295,380.18846 1630.2908,1010.0628 1649.011,1700.5918 1649.013,2265.368 h 402.2542 V 14.760881 H 1710.0379 C 1474.1485,203.48976 1238.2589,392.21861 1002.3693,580.94749 Z" /><path
   style="fill:none;stroke:#000000;stroke-miterlimit:10"
   d="m 2128.2123,1635.4296 40.325,-128.2282 15.6731,-47.5276 c 6.8837,-20.8744 12.2031,-42.2637 17.358,-63.6543 3.9017,-16.2294 7.4768,-32.66 10.6531,-49.0938 5.9357,-30.6292 10.5817,-61.6185 13.9353,-92.724 2.8568,-26.4673 4.7527,-53.0273 5.731,-79.6731 0.9046,-24.9927 0.9879,-50.079 0.2738,-75.1039 -0.3138,-10.377 -0.7503,-20.9254 -1.3405,-31.3165 -8.3124,-196.0283 -75.019,-398.95676 -102.6088,-590.50284 z"
   id="path3070" /><path
   style="fill:none;stroke:#000000;stroke-miterlimit:10"
   d="m 1125.5,23.707031 c -16.6707,0.164483 -33.2894,0.60682 -49.9277,1.453125 -22.9717,1.181262 -45.8959,3.07137 -68.7934,5.677719 -28.93535,3.295108 -57.88243,7.782393 -86.52513,13.405173 -16.76561,3.28367 -33.53961,7.000485 -50.17039,11.078235 -20.26356,4.985586 -40.50028,10.580895 -60.4836,16.750106 -17.8558,5.505209 -35.69025,11.513448 -53.24226,17.943613 -27.45157,10.040768 -54.42585,21.195108 -80.96897,33.410808 -37.92763,17.4968 -74.95707,37.20036 -110.65443,58.9687 -30.49082,18.57921 -60.17436,38.71266 -88.73961,60.21534 -11.64604,8.76067 -23.20495,17.83163 -34.48906,27.05268 -34.9761,28.58778 -68.18805,59.3321 -99.39998,91.98786 -17.33931,18.17412 -34.15807,36.99497 -50.25506,56.33249 -18.61386,22.35679 -36.4531,45.58557 -53.25415,69.36451 -32.5058,45.97904 -61.49137,94.48946 -86.62367,144.90401 -20.57504,41.25017 -38.60118,83.90304 -53.883492,127.44176 -6.898581,19.62834 -13.227474,39.43976 -19.01659,59.45323 -4.131321,14.3149 -7.991805,28.76637 -11.558836,43.25986 -6.964686,28.3608 -12.849801,57.16038 -17.584631,85.99146 -3.062237,18.64132 -5.647591,37.3349 -7.766136,56.12229 -1.892139,16.666 -3.411974,33.5268 -4.54056,50.2678 -0.868462,12.6306 -1.505222,25.1963 -1.950552,37.8534 -0.806069,23.0287 -0.920109,46.1828 -0.346819,69.2578 0.311469,12.5588 0.852018,25.2434 1.567612,37.7989 0.695538,12.1314 1.600163,24.2059 2.677726,36.2982 0.767989,8.3074 1.60189,16.7272 2.545035,25.0623 2.098143,18.6787 4.678986,37.4377 7.723258,55.9967 4.042228,24.6903 8.912526,49.3019 14.601185,73.6647 6.158343,26.3521 13.300871,52.6608 21.377393,78.5466 10.561763,33.8763 22.747167,67.1863 36.498457,99.8867 8.89216,21.1151 18.41857,41.928 28.61051,62.4921 23.14,46.6617 49.63031,91.7761 79.15035,134.7469 11.59213,16.8792 23.65628,33.4334 36.15983,49.6489 7.66344,9.919 15.56059,19.8076 23.58382,29.4976 6.65486,8.0364 13.49194,16.0717 20.40304,23.9505 34.4043,39.2311 71.66123,76.1254 111.32272,110.1065 31.49754,27.0175 64.48775,52.2158 98.84225,75.4836 51.60619,34.977 106.33603,65.5686 163.22122,91.2079 34.19208,15.4135 69.1448,29.0331 104.79396,40.8411 19.79537,6.5524 39.86863,12.5576 60.04748,17.9614 20.26614,5.4289 40.71202,10.2725 61.30953,14.5281 15.01128,3.1034 30.24897,5.9106 45.41128,8.3817 18.80544,3.0626 37.7643,5.6194 56.67407,7.7018 18.7721,2.0436 37.4555,3.6109 56.3036,4.7052 12.4687,0.7154 25.0761,1.2384 37.5702,1.5291 19.7424,0.4893 39.4973,0.4182 59.2375,-0.1386 8.261,-0.2543 16.7173,-0.602 24.9844,-1.0215 16.7901,-0.8735 33.5112,-2.1246 50.2588,-3.7518 29.012,-2.8456 58.0456,-6.8468 86.7866,-12.0242 12.2987,-2.2026 24.6422,-4.6461 36.8999,-7.2806 64.2967,-12.61 128.0256,-55.0034 180.1575,-82.3379 0.072,-126.6798 0.037,-244.8667 0.037,-376.5391 l -1072.60679,0 c -33.4254,-36.5339 -64.12242,-75.5778 -91.50751,-116.8392 -44.52534,-67.0898 -80.23564,-140.021 -105.88803,-216.3474 -36.23116,-107.7539 -52.1869,-222.2665 -46.87479,-335.8238 4.44222,-95.96965 23.9456,-191.24112 57.79868,-281.16017 25.79903,-68.60601 59.85566,-134.10733 101.26838,-194.58637 34.59398,-50.57987 74.28542,-97.65873 118.18695,-140.40618 6.1216,-5.98755 12.43001,-11.78733 18.33111,-17.99684 16.19641,-16.52573 33.72658,-31.68394 51.74576,-46.17894 37.13153,-29.73125 77.09356,-55.85312 118.81829,-78.66309 85.22405,-46.45784 178.30071,-78.33752 273.99148,-94.46601 111.78187,-13.75447 234.12827,-22.56023 336.34597,-3.86531 61.1016,-48.88347 122.2031,-97.76693 183.3047,-146.650394 -80.3107,-28.837476 -154.5523,-46.574962 -228.0496,-55.008087 -20.6557,-2.349652 -41.3067,-4.119343 -62.047,-5.303809 -11.6852,-0.669289 -23.4954,-1.157368 -35.1929,-1.458294 -12.0658,-0.313897 -24.1364,-0.432077 -36.2061,-0.380875 z"
   id="path3713-2" /></svg>
