<?xml version="1.0" encoding="UTF-8" standalone="no"?>
<svg
   xmlns:dc="http://purl.org/dc/elements/1.1/"
   xmlns:cc="http://creativecommons.org/ns#"
   xmlns:rdf="http://www.w3.org/1999/02/22-rdf-syntax-ns#"
   xmlns:svg="http://www.w3.org/2000/svg"
   xmlns="http://www.w3.org/2000/svg"
   version="1.1"
   id="svg8"
   x="0px"
   y="0px"
   viewBox="0 0 2267.7 2267.7"
   style="enable-background:new 0 0 2267.7 2267.7;"
   xml:space="preserve"><metadata
   id="metadata10"><rdf:RDF><cc:Work
       rdf:about=""><dc:format>image/svg+xml</dc:format><dc:type
         rdf:resource="http://purl.org/dc/dcmitype/StillImage" /><dc:title></dc:title></cc:Work></rdf:RDF></metadata><defs
   id="defs8" />
<style
   type="text/css"
   id="style2">
	.st0{fill:none;stroke:#000000;stroke-width:0.2646;}
</style>

<path
   style="color:#000000;font-style:normal;font-variant:normal;font-weight:normal;font-stretch:normal;font-size:medium;line-height:normal;font-family:sans-serif;font-variant-ligatures:normal;font-variant-position:normal;font-variant-caps:normal;font-variant-numeric:normal;font-variant-alternates:normal;font-variant-east-asian:normal;font-feature-settings:normal;font-variation-settings:normal;text-indent:0;text-align:start;text-decoration:none;text-decoration-line:none;text-decoration-style:solid;text-decoration-color:#000000;letter-spacing:normal;word-spacing:normal;text-transform:none;writing-mode:lr-tb;direction:ltr;text-orientation:mixed;dominant-baseline:auto;baseline-shift:baseline;text-anchor:start;white-space:normal;shape-padding:0;shape-margin:0;inline-size:0;clip-rule:nonzero;display:inline;overflow:visible;visibility:visible;isolation:auto;mix-blend-mode:normal;color-interpolation:sRGB;color-interpolation-filters:linearRGB;solid-color:#000000;solid-opacity:1;vector-effect:none;fill:none;fill-opacity:1;fill-rule:nonzero;stroke:none;stroke-width:0.168654;stroke-linecap:butt;stroke-linejoin:miter;stroke-miterlimit:4;stroke-dasharray:none;stroke-dashoffset:0;stroke-opacity:1;color-rendering:auto;image-rendering:auto;shape-rendering:auto;text-rendering:auto;enable-background:accumulate;stop-color:#000000"
   d="m 1670.5348,-35.882295 c -210.2083,1.226572 -465.9359,194.628325 -629.0894,497.444235 -202.88107,376.31476 -185.98893,779.08286 37.6073,899.61326 43.6837,23.5411 92.0225,34.57 143.0444,34.2763 210.2103,-1.2099 465.9477,-194.652 629.1523,-497.46778 202.8172,-376.31486 185.9899,-779.08099 -37.6702,-899.6113307 -43.6836,-23.5286523 -92.0229,-34.5524043 -143.0444,-34.2546843 z"
   id="path891" /><path
   style="fill:none"
   d="m 2116.2,582.4 c -16.4,166.3 -70,345.5 -163.5,519 -259.1,480.8 -722.2,734.1 -1034.3,565.9 C 606.3,1499.1 563.3,973 822.5,492.2 934.3,284.8 1084.1,119.8 1243.3,12.6 1207.3,9.1 1170.8,7.2 1133.9,7.2 511.7,7.2 7.2,511.6 7.2,1133.8 c 0,622.2 504.4,1126.7 1126.6,1126.7 622.2,0 1126.6,-504.5 1126.6,-1126.7 0.1,-200.4 -52.5,-388.4 -144.2,-551.4 z"
   id="path5" />
</svg>
