<?xml version="1.0" encoding="UTF-8" standalone="no"?>
<svg
   xmlns:dc="http://purl.org/dc/elements/1.1/"
   xmlns:cc="http://creativecommons.org/ns#"
   xmlns:rdf="http://www.w3.org/1999/02/22-rdf-syntax-ns#"
   xmlns:svg="http://www.w3.org/2000/svg"
   xmlns="http://www.w3.org/2000/svg"
   xmlns:sodipodi="http://sodipodi.sourceforge.net/DTD/sodipodi-0.dtd"
   xmlns:inkscape="http://www.inkscape.org/namespaces/inkscape"
   version="1.1"
   id="Capa_1"
   x="0px"
   y="0px"
   viewBox="0 0 2267.6999 2267.7"
   xml:space="preserve"
   width="2267.7"
   height="2267.7"
   sodipodi:docname="icono_Nativa_n.svg"
   inkscape:version="1.0.2 (e86c870879, 2021-01-15)"><sodipodi:namedview
   pagecolor="#ffffff"
   bordercolor="#666666"
   borderopacity="1"
   objecttolerance="10"
   gridtolerance="10"
   guidetolerance="10"
   inkscape:pageopacity="0"
   inkscape:pageshadow="2"
   inkscape:window-width="1920"
   inkscape:window-height="1023"
   id="namedview23"
   showgrid="false"
   inkscape:zoom="0.35807206"
   inkscape:cx="1139.4354"
   inkscape:cy="1133.85"
   inkscape:window-x="0"
   inkscape:window-y="25"
   inkscape:window-maximized="1"
   inkscape:current-layer="Capa_1" /><metadata
   id="metadata15"><rdf:RDF><cc:Work
       rdf:about=""><dc:format>image/svg+xml</dc:format><dc:type
         rdf:resource="http://purl.org/dc/dcmitype/StillImage" /><dc:title></dc:title></cc:Work></rdf:RDF></metadata><defs
   id="defs13" />
<style
   type="text/css"
   id="style2">
	.st0{fill:#1D1D1B;}
</style>
<path
   id="path847-6-7"
   style="fill:none;fill-opacity:1;stroke-width:5.50556"
   d="m 2466.333,-195.87314 -756.1666,3.5312 c -132.889,19.53256 -242.5111,93.596011 -310.5985,200.3416919 l 884.328,-4.1323649 3.5054,875.283513 c 147.0741,-73.28253 183.1021,-227.41921 181.1508,-520.86328 z" /><path
   id="path847-5-5-6"
   style="fill:none;fill-opacity:1;stroke-width:11.0111"
   d="M 1399.5672,8.0049681 771.56145,10.935047 C 351.1744,72.725226 47.090752,407.28104 4.2625236,841.97039 L 8.6946612,2265.8038 1207.2082,2268.4902 c 909.8834,-4.8916 1087.1906,-244.0733 1081.1244,-1156.296 l -0.9313,-233.0433 c -81.5288,40.62415 -197.1603,56.41773 -359.4118,57.29004 l -599.2544,-1.3433 -2.2187,-711.91665 c 7.8756,-79.93472 33.4431,-153.079452 73.0512,-215.1760219 z" />
</svg>
