<?xml version="1.0" encoding="utf-8"?>
<!-- Generator: Adobe Illustrator 22.1.0, SVG Export Plug-In . SVG Version: 6.00 Build 0)  -->
<svg version="1.1"
	 id="svg8" inkscape:version="0.92.4 (5da689c313, 2019-01-14)" sodipodi:docname="naturalista-2.svg" xmlns:cc="http://creativecommons.org/ns#" xmlns:dc="http://purl.org/dc/elements/1.1/" xmlns:inkscape="http://www.inkscape.org/namespaces/inkscape" xmlns:rdf="http://www.w3.org/1999/02/22-rdf-syntax-ns#" xmlns:sodipodi="http://sodipodi.sourceforge.net/DTD/sodipodi-0.dtd" xmlns:svg="http://www.w3.org/2000/svg"
	 xmlns="http://www.w3.org/2000/svg" xmlns:xlink="http://www.w3.org/1999/xlink" x="0px" y="0px" viewBox="0 0 2267.7 2267.7"
	 style="enable-background:new 0 0 2267.7 2267.7;" xml:space="preserve">
<style type="text/css">
	.st0{fill:none;stroke:#000000;stroke-miterlimit:10;}
</style>
<sodipodi:namedview  bordercolor="#666666" borderopacity="1.0" id="base" inkscape:current-layer="layer1" inkscape:cx="-207.46786" inkscape:cy="-919.37658" inkscape:document-units="mm" inkscape:pageopacity="0.0" inkscape:pageshadow="2" inkscape:window-height="962" inkscape:window-maximized="1" inkscape:window-width="1280" inkscape:window-x="-8" inkscape:window-y="-8" inkscape:zoom="0.1400905" pagecolor="#ffffff" showgrid="false">
	</sodipodi:namedview>
<path class="st0" d="M403.9,1355.1L5.1,1133.2c303.2-357.8,648.2-450.1,973.4-467.4l-314.3,608.5
	C616.2,1366.6,495,1405.2,403.9,1355.1z M2188.5,161.4c-74.5,547.4-424.8,522.7-862.6,506.2l-427,818.5
	c112.5-49,221.9-110.1,327.7-175.2c129.1-78.5,252.9-167.1,368.2-268.2c-203.5,232.2-457.5,417.2-735.5,551.8
	c-7.3,3.8-15.1,6.5-22.1,10.2l-209.8,401.4c-18.3,35.3-40.1,67.2-64.4,98.1C1455.1,2144.7,2560.7,1573,2188.5,161.4z"/>
</svg>
