<?xml version="1.0" encoding="UTF-8" standalone="no"?>
<!-- Generator: Adobe Illustrator 22.1.0, SVG Export Plug-In . SVG Version: 6.00 Build 0)  -->

<svg
   version="1.1"
   id="svg8"
   x="0px"
   y="0px"
   viewBox="0 0 2267.7 2267.7"
   style="enable-background:new 0 0 2267.7 2267.7;"
   xml:space="preserve"
   sodipodi:docname="peces-mariscos-comerciales-certificacion.svg"
   inkscape:version="1.1.2 (0a00cf5339, 2022-02-04)"
   xmlns:inkscape="http://www.inkscape.org/namespaces/inkscape"
   xmlns:sodipodi="http://sodipodi.sourceforge.net/DTD/sodipodi-0.dtd"
   xmlns="http://www.w3.org/2000/svg"
   xmlns:svg="http://www.w3.org/2000/svg"><sodipodi:namedview
   id="namedview10"
   pagecolor="#ffffff"
   bordercolor="#666666"
   borderopacity="1.0"
   inkscape:pageshadow="2"
   inkscape:pageopacity="0.0"
   inkscape:pagecheckerboard="0"
   showgrid="false"
   inkscape:zoom="0.15588482"
   inkscape:cx="1132.2462"
   inkscape:cy="1266.9611"
   inkscape:window-width="1920"
   inkscape:window-height="1014"
   inkscape:window-x="0"
   inkscape:window-y="29"
   inkscape:window-maximized="1"
   inkscape:current-layer="svg8" /><defs
   id="defs8">
	
</defs>
<style
   type="text/css"
   id="style2">
	.st0{fill:none;stroke:#000000;stroke-miterlimit:10;}
</style>

<path
   id="path8070"
   style="fill:none;stroke:#000000;stroke-width:1.05227;stroke-miterlimit:4;stroke-dasharray:none;stroke-opacity:1"
   d="m 2332.2744,-226.48312 c -187.4746,0 -340.3586,156.834703 -340.3585,349.15397 0,192.31933 152.8839,349.15579 340.3585,349.15579 187.4747,0 340.3602,-156.83646 340.3602,-349.15579 0,-192.319267 -152.8855,-349.15397 -340.3602,-349.15397 z m 167.4129,147.609633 81.6321,83.7398937 -230.3656,236.3188333 -81.6321,83.74168 -186.7827,-191.6111 81.6321,-83.739867 105.1506,107.869407 z" /><path
   id="path8066"
   style="fill:none;stroke:#000000;stroke-width:1.05227;stroke-miterlimit:4;stroke-dasharray:none;stroke-opacity:1"
   d="m 1796.7111,-219.38916 39.1721,187.819303 c 3.8027,18.973224 -0.8061,38.7124257 -12.8754,53.760384 L 1703.096,169.21254 1842.0955,296.8763 c 14.1395,12.83799 21.3955,31.61342 20.2402,51.15468 l -13.162,191.23821 185.9163,19.5026 c 18.9649,2.18452 35.7517,12.73838 45.6552,29.23027 l 99.2047,162.91868 161.7642,-95.96715 c 16.5215,-9.6165 36.269,-10.88854 53.8379,-3.79082 l 173.6539,71.80446 75.6761,-175.62399 c 3.682,-8.73972 9.7576,-16.76304 16.6406,-22.70076 6.8829,-5.9376 15.6318,-10.70271 24.6564,-12.92473 l 181.6434,-46.35608 -39.171,-187.81794 c -3.8026,-18.9732 0.8061,-38.71245 12.8753,-53.7603 L 2961.4376,76.759953 2821.9937,-51.445691 c -14.1394,-12.837886 -21.3968,-31.612276 -20.2417,-51.153479 l 13.1611,-191.23958 -185.9155,-19.50127 c -18.9648,-2.18459 -35.75,-12.73948 -45.6536,-29.23142 l -99.2059,-162.92007 -161.7631,95.96856 c -16.5214,9.61644 -36.2687,10.88845 -53.8377,3.79074 l -173.2096,-71.26255 -75.675,175.62534 c -7.8935,17.93637 -22.7178,30.72465 -41.2973,35.62551 z m 259.2832,5.35556 c 181.0761,-156.20768 452.0433,-132.19062 604.3161,53.56493 152.2728,185.755529 128.8594,463.72613 -52.2169,619.93387 -181.076,156.20784 -452.0432,132.18834 -604.316,-53.56724 -152.2726,-185.75549 -128.8594,-463.723687 52.2168,-619.93156 z" /><path
   id="path7352"
   style="fill:none;stroke:#000000;stroke-width:1.07413;stroke-miterlimit:4;stroke-dasharray:none;stroke-opacity:1"
   d="m 1148.849,1410.0218 c -1.3289,0.02 -2.6115,0.199 -3.8161,0.6066 -81.4399,126.5059 -130.7556,278.7114 -130.7556,441.6859 0,96.462 19.2719,188.6707 49.3159,274.4566 25.7924,-4.2514 53.6633,-4.2513 83.5181,-2.0783 12.849,2.1729 23.6201,0 36.469,0 158.6286,-12.8491 300.1578,-64.3384 415.9877,-177.9954 17.195,-15.0219 32.1222,-45.066 27.8708,-64.3397 -23.5251,-109.4053 -72.8438,-208.0407 -152.2054,-289.4806 -87.8645,-87.8645 -192.9232,-143.6052 -308.7531,-180.0738 -5.2199,0 -11.8735,-2.871 -17.6313,-2.7813 z m 135.6341,300.7639 c 34.2955,2.1731 53.5691,23.6186 53.5691,57.9139 -2.0786,40.72 -23.5237,59.9947 -59.9924,59.9947 -36.4686,-2.0785 -55.7441,-23.5262 -55.7441,-59.9947 0,-36.4684 23.6206,-57.9139 62.1674,-57.9139 z" /><path
   style="fill:none;stroke:#000000;stroke-width:1.07413;stroke-miterlimit:4;stroke-dasharray:none;stroke-opacity:1"
   d="m 984.32688,2161.0677 c -10.67596,8.5974 -21.44648,15.0219 -30.04397,25.6978 -49.3175,51.4907 -122.25448,57.9153 -190.84548,47.1447 -12.84901,-2.1729 -34.29551,-27.871 -32.1225,-40.72 0,-40.7199 10.67601,-79.3614 19.27349,-124.3329 -15.02201,-6.4246 -32.1225,-10.6763 -47.14449,-19.2736 -96.462,-51.4903 -190.8455,-102.8865 -285.22896,-158.723 -23.61949,-15.022 -40.72,-25.6981 -70.76399,-15.022 -62.16651,21.4465 -162.97449,6.4246 -167.22601,-30.044 -4.2515,-47.1446 21.44653,-96.4619 34.29551,-152.204 -32.12251,-57.915 -75.0155,-126.5059 -111.48399,-199.443 C 12.904512,1316.2458 -4.1959977,1127.5732 17.250499,934.55485 27.92651,853.1148 42.948504,771.58032 68.740992,694.3918 137.33199,488.52435 285.28447,351.34235 461.10795,237.68536 c 53.56901,-32.12252 109.31101,-59.9935 167.22599,-83.61298 19.27351,-8.5975 47.14452,6.42449 72.93699,8.59749 -4.2515,23.61947 -2.17301,51.49048 -12.849,68.59099 -30.04399,40.72 -66.51248,77.18849 -98.63499,115.82998 -32.12252,34.2955 -66.51247,66.51248 -92.2105,105.05949 -40.71999,57.91501 -47.14449,117.90849 2.173,175.82348 6.42451,8.59751 10.67602,17.195 17.19499,23.6195 34.2955,57.91499 21.44651,105.05949 -42.89299,128.67898 -38.6415,15.02199 -79.36149,25.69799 -117.90849,42.89298 -113.657,49.31749 -186.59398,165.14742 -180.075,283.05593 4.25151,66.5126 34.29551,115.83 94.38348,143.7011 15.022,6.4243 30.044,10.676 45.06598,12.8491 96.462,59.9934 340.97097,180.0747 724.74049,156.5498 -68.59104,128.679 -109.31105,276.6315 -109.31105,433.1815 5.38524,161.3683 53.38003,308.565 53.38003,308.565 z"
   id="path7356" /><path
   style="fill:none;stroke:#000000;stroke-width:1.07413;stroke-miterlimit:4;stroke-dasharray:none;stroke-opacity:1"
   d="m 1824.8029,1387.497 -4.2516,8.5972 4.2516,-2.1728 100.808,25.6981 c 6.4245,2.173 10.6759,4.2516 12.8489,8.5973 l 115.8301,117.9086 c 4.2513,6.4245 6.4244,12.8489 6.4244,21.4466 v 115.8299 c 0,17.1952 -15.022,30.044 -30.044,30.044 -15.0219,0 -27.871,-12.8488 -27.871,-30.044 v -105.0595 l -98.635,-102.9808 -102.8866,-27.8712 c -8.5975,12.8489 -17.195,25.6981 -27.8709,38.6416 l 98.6349,51.4905 c 6.4248,4.2516 10.6761,8.5973 12.8491,15.022 l 55.742,115.8298 c 4.2516,8.5976 4.2516,19.2736 0,25.6981 l -57.915,115.83 c -8.5975,15.022 -25.6979,21.4465 -38.6414,12.849 -15.022,-6.4245 -21.4466,-23.6196 -12.8491,-38.6416 l 51.4905,-102.8864 -45.0661,-94.3836 -109.3108,-57.9148 c -19.2737,12.8491 -38.6416,25.698 -57.915,34.2953 l 92.2104,96.4621 c 6.4244,4.2515 8.5975,12.8489 8.5975,19.2734 l -2.1731,117.9086 c 0,10.676 -6.4244,21.4463 -15.0219,25.698 l -85.7861,40.7201 c -6.4244,-17.195 -12.8489,-36.4687 -19.2733,-53.5691 l 62.1665,-32.1225 2.1729,-85.7859 -105.0594,-107.2326 c -19.2735,4.2515 -38.6416,6.4247 -59.9934,4.2515 h 4.2513 c -4.2513,0 -6.4245,0 -8.5975,0 -6.4245,0 -12.849,0 -19.2734,2.1732 -17.1949,-23.6198 -36.4686,-47.1448 -57.9152,-68.5911 -85.7859,-87.9591 -190.8454,-143.701 -293.7318,-154.3772 l -23.6194,-2.1729 c -36.4686,-2.1729 -66.5126,4.2515 -109.3112,6.4245 -40.71987,2.1731 -83.61289,10.6761 -122.25438,10.6761 -2.173,-12.8491 -4.2515,-57.9151 -4.2515,-70.764 -79.36149,-21.4465 -77.18849,-21.4465 -79.36149,-23.6195 -57.91501,-23.6195 -102.8865,-57.915 -141.52801,-109.3111 -34.29548,-47.1445 -55.74198,-100.8079 -66.51246,-165.1475 -10.67603,-70.76392 0,-115.82988 4.25149,-214.46482 0,0 0,-2.17299 0,-4.25153 12.84903,-64.33948 53.569,-122.25446 107.2325,-158.72296 l 47.1445,-30.04398 c 77.18849,-49.3175 171.57196,-53.56901 248.76045,-12.849 l 57.9151,30.04398 c -62.1666,40.90896 -188.67258,122.44344 -210.11908,137.46543 -12.84899,8.5975 -17.19498,25.698 -8.5975,40.72 8.5975,12.84903 27.87101,17.19499 40.72001,8.59751 l 137.27647,-90.03752 c 55.742,68.59101 40.7201,171.572 -25.698,214.46497 l -62.1665,40.71994 c -42.89299,27.87108 -90.03749,47.14448 -137.27648,57.91498 6.42451,17.195 17.195,32.1225 34.29552,40.72 l 64.33947,34.2955 c 6.42451,-10.6759 15.022,-21.4466 25.69801,-27.8709 21.44649,-17.195 47.14449,-21.4466 72.93698,-15.0221 51.4906,12.849 120.0815,17.195 177.9965,-4.2514 0,-2.1731 0,-2.1731 0,-2.1731 l 6.4243,-167.22589 c -27.8708,-6.42445 -47.1443,-32.12252 -47.1443,-59.99351 2.173,-32.1225 27.8709,-59.99352 59.9934,-57.915 32.1226,0 59.9937,27.87099 57.9151,59.9935 0,27.871 -19.2736,51.49056 -47.1444,57.91501 l -6.4247,158.72289 c 10.6761,-6.4244 21.4466,-12.8488 32.1225,-21.4465 l 70.7641,-64.3395 c 30.044,-25.69797 72.9369,-25.69797 100.8081,2.17308 l 55.7418,51.49042 c 12.8491,12.849 30.044,23.6195 47.1445,32.1225 l 6.4245,-156.54987 c -27.871,-4.25158 -47.1444,-30.04404 -47.1444,-57.91503 2.1731,-32.1225 27.8708,-57.91498 59.9935,-57.91498 34.2954,0 59.9934,27.871 59.9934,59.9935 -2.1728,27.87099 -21.4465,51.49049 -49.3173,57.91496 l -6.4246,165.14752 c 53.5691,23.6195 115.83,27.8708 171.572,15.022 25.698,-6.4245 53.569,-2.1731 75.0153,15.0219 10.6763,8.5975 19.2737,19.2735 25.6982,30.044 l 64.3395,-32.1224 c 17.195,-8.5976 30.0439,-23.6196 36.4684,-42.8931 -100.8079,-23.6194 -152.204,-75.01548 -195.0968,-100.80787 -113.6573,-79.36153 -68.5911,-175.82354 -34.2956,-220.88952 l 10.6758,6.4245 c 55.7423,40.72 115.8302,81.44001 128.679,92.2105 15.022,8.59749 32.1226,6.4245 40.7202,-8.59751 10.6759,-12.84901 6.4243,-32.12251 -6.4246,-40.72 l -201.5214,-141.62247 59.9935,-27.87099 c 79.3613,-38.64149 173.6504,-34.2955 248.7604,19.2735 l 47.1444,30.044 c 53.5692,38.64149 92.2105,96.46197 102.8866,160.80151 2.1731,4.25148 0,0 4.2515,117.90844 2.173,34.29555 0,70.76381 -6.4245,102.88651 -10.6759,62.1665 -34.2953,115.8301 -70.764,160.8014 -38.6415,51.4906 -83.613,85.7861 -141.5279,107.2326 -4.2515,2.1729 0,0 -81.4399,19.2734 0.095,23.7139 -1.9841,45.1605 -8.5031,64.4341 z"
   id="path3713" />
</svg>
