<?xml version="1.0" encoding="UTF-8" standalone="no"?>
<!-- Generator: Adobe Illustrator 22.1.0, SVG Export Plug-In . SVG Version: 6.00 Build 0)  -->

<svg
   version="1.1"
   id="svg8"
   x="0px"
   y="0px"
   viewBox="0 0 2267.7 2267.7"
   style="enable-background:new 0 0 2267.7 2267.7;"
   xml:space="preserve"
   sodipodi:docname="pescadata.svg"
   inkscape:version="1.1.2 (0a00cf5339, 2022-02-04)"
   xmlns:inkscape="http://www.inkscape.org/namespaces/inkscape"
   xmlns:sodipodi="http://sodipodi.sourceforge.net/DTD/sodipodi-0.dtd"
   xmlns="http://www.w3.org/2000/svg"
   xmlns:svg="http://www.w3.org/2000/svg"><sodipodi:namedview
   id="namedview20"
   pagecolor="#ffffff"
   bordercolor="#666666"
   borderopacity="1.0"
   inkscape:pageshadow="2"
   inkscape:pageopacity="0.0"
   inkscape:pagecheckerboard="0"
   showgrid="false"
   inkscape:zoom="0.31176964"
   inkscape:cx="1132.2462"
   inkscape:cy="1133.85"
   inkscape:window-width="1920"
   inkscape:window-height="1016"
   inkscape:window-x="0"
   inkscape:window-y="27"
   inkscape:window-maximized="1"
   inkscape:current-layer="svg8" /><defs
   id="defs8">
	
</defs>
<style
   type="text/css"
   id="style2">
	.st0{fill:none;stroke:#000000;stroke-miterlimit:10;}
</style>


<path
   id="path14"
   style="fill:none;stroke:none;stroke-width:3.28491;stroke-miterlimit:4;stroke-dasharray:none;stroke-opacity:1"
   d="m 1452.7726,1898.2466 c -24.1217,-0.1578 -48.2755,0.6676 -72.301,0.4622 -34.4981,0 -53.5569,18.725 -53.5569,53.223 v 129.124 c 0,44.0262 -0.3219,88.3809 0.3339,133.0641 0,25.9557 17.0834,47.966 41.3963,48.2947 46.9832,0.6571 94.2947,4.2751 141.2779,-2.6244 101.8515,-15.1136 169.201,-108.0942 152.1162,-208.6314 -14.4563,-84.4381 -78.8529,-143.5778 -165.9194,-151.1344 -14.4152,-1.2322 -28.8742,-1.6832 -43.347,-1.7778 z m -20.7209,87.8561 c 20.0418,0.9856 40.0862,-1.3169 60.1279,2.2972 47.3117,9.1995 75.566,47.974 72.6089,100.5426 -2.2999,46.6541 -35.485,81.1498 -81.8111,84.4354 -17.0846,1.3143 -34.4955,0.331 -51.5801,0.9883 -7.5568,0.3285 -8.8683,-2.9583 -8.8683,-9.5293 v -84.7694 c 0,-27.927 0.3285,-55.8528 0,-84.1083 -0.3286,-7.5566 1.6376,-10.1851 9.5227,-9.8565 z" /><path
   id="path20"
   style="fill:none;stroke:none;stroke-width:3.28491;stroke-miterlimit:4;stroke-dasharray:none;stroke-opacity:1"
   d="m -261.90285,1897.6371 c -23.967,0.032 -47.99313,1.1141 -72.01853,0.7444 -33.84101,-0.3285 -53.55028,20.0379 -53.55028,53.5503 v 130.4395 54.2113 c 0,26.2843 -0.32847,52.5686 0,78.8529 0.32855,28.9122 20.37031,49.9347 47.64026,50.5918 27.26994,0.6571 47.64154,-19.7079 48.95568,-48.9492 0.65712,-14.4562 0.98568,-28.9178 0,-43.0456 -0.98558,-12.4851 3.94005,-15.1122 15.43939,-15.1122 27.59851,0.3286 54.86836,1.6427 82.1383,-4.9283 105.79412,-25.6272 119.921927,-139.6365 77.21003,-201.7329 -21.68455,-31.2126 -53.22694,-46.652 -90.02488,-51.5803 -18.54255,-2.4437 -37.14889,-3.0624 -55.78997,-3.0417 z m 3.88247,89.0816 c 8.21386,-0.039 16.42772,0.043 24.64149,0.6995 16.09916,1.3142 31.53845,6.5724 38.43807,22.6714 6.57108,15.4421 6.23996,31.536 -4.2738,45.6638 -8.87088,12.1563 -22.66749,15.7704 -36.79529,16.4275 -14.78493,0.6571 -29.56977,0 -44.3547,0.3339 -7.55674,0 -10.51239,-2.6337 -10.18383,-10.1904 0.32856,-11.1708 0,-22.0117 0,-33.1826 v -34.498 c -0.32856,-5.5855 1.97263,-7.8867 7.88658,-7.8867 8.21386,0.1643 16.42771,0 24.64148,-0.039 z" /><path
   id="path4"
   style="fill:none;stroke:none;stroke-width:3.28491;stroke-miterlimit:4;stroke-dasharray:none;stroke-opacity:1"
   d="m 1753.1162,662.1745 c -2.5828,0.31108 -3.3495,2.97748 -3.3495,8.72715 0.3285,36.14092 0.3285,72.2817 0,108.42262 0,8.21376 2.2997,12.4863 9.8565,16.10038 36.7979,17.74177 72.2817,38.44076 106.7797,60.78235 85.7524,55.85403 161.6455,123.20743 228.999,200.4174 5.5854,6.5711 5.2582,10.5138 -0.3285,16.4277 -8.871,9.528 -17.4134,19.7145 -26.2843,29.2426 -106.7798,114.9935 -231.9598,203.7017 -377.5088,263.1696 -158.0341,64.7251 -322.3069,87.7265 -492.1688,69.9846 -122.2218,-12.485 -238.20242,-46.6559 -347.93901,-101.5242 -129.12144,-64.3965 -239.51399,-152.1228 -333.80871,-260.5453 -5.91395,-6.8997 -5.25821,-10.8385 0.32856,-17.4095 31.21251,-35.4837 64.06392,-69.3234 99.54762,-100.53587 5.58539,-4.5997 7.55931,-9.53328 7.55931,-16.76157 V 810.53687 c 0,-3.61421 -0.32527,-7.22694 -0.65447,-13.46949 -5.91395,3.9427 -9.528,6.57374 -13.14213,9.20207 -62.09654,47.31178 -119.26998,100.2048 -171.1814,158.68732 -10.51368,11.49935 -10.18384,11.49935 -21.68319,0 C 326.47179,872.63331 235.13533,779.98665 143.46895,687.66307 123.42727,667.2927 97.474117,661.70727 73.81831,672.87813 49.505386,684.37749 37.343721,707.70454 40.6292,736.9462 c 11.499351,100.5372 23.659748,201.39777 35.15918,301.935 1.314141,11.1708 3.938669,22.6715 2.624448,34.1709 -12.485028,106.7798 -25.298601,213.5596 -37.783628,320.3394 -3.285479,29.2411 8.2178,52.2412 31.873607,63.7405 24.312911,11.828 49.938783,7.2309 70.966143,-13.7965 61.76798,-61.7681 122.8802,-124.1957 183.66252,-186.6209 31.86965,-31.8696 63.73932,-64.0704 95.28043,-96.2686 5.91395,-5.914 9.20081,-5.91 14.45765,0.661 6.2425,7.8852 13.79532,15.1148 20.69494,22.6715 139.635,150.4773 306.54134,258.8946 502.35899,321.6483 170.51902,54.5398 344.65492,67.6858 521.74512,40.0873 154.4199,-24.3128 297.9977,-78.5228 430.4046,-161.3182 119.2647,-74.2531 221.4395,-167.8959 308.5061,-277.9613 22.0131,-27.5984 22.6742,-54.8658 0.6611,-82.7928 -18.399,-23.3272 -37.4564,-45.66753 -57.1696,-67.68063 -114.008,-125.50714 -248.7147,-223.09021 -404.1204,-291.75783 -3.0801,-1.35526 -5.2844,-2.01562 -6.8342,-1.82884 z M 158.90833,874.60466 c 4.92829,-0.32862 6.57501,3.61665 8.8749,5.91663 58.48241,59.13961 116.9649,118.27911 175.77595,177.41871 4.59972,4.5997 7.22946,7.8826 1.31551,13.7965 -60.7823,60.7824 -121.23742,122.2245 -182.01973,183.3354 -0.32856,0.6571 -1.31816,0.6557 -3.94663,1.97 12.48503,-61.4395 24.31557,-121.8946 37.12916,-182.0198 1.97133,-10.1851 -0.32527,-18.7275 -2.29726,-27.927 -11.49935,-57.49677 -23.00399,-114.66505 -34.8319,-172.49044 z" /><path
   style="fill:none;stroke:none;stroke-width:3.28491;stroke-miterlimit:4;stroke-dasharray:none;stroke-opacity:1"
   d="m 1513.5356,563.46735 c 0,-168.21916 0,-336.767 0,-504.986214 0,-26.284155 13.7992,-47.968758 37.7835,-56.5111492 23.6558,-8.5423909 45.3404,-3.9425693 63.7395,13.4707032 9.8565,9.528135 15.1133,21.355978 16.4275,34.826681 0.6571,6.242548 0.6571,12.156469 0.6571,18.399017 0,332.495722 0,664.991662 0,997.487412 0,18.0705 0,18.0705 -17.7418,18.0705 -29.2412,0 -58.154,-0.6571 -87.3951,0.3285 -10.8422,0.3285 -13.4707,-2.6285 -13.4707,-13.4707 0.3285,-146.86325 0.3285,-294.05511 0.3285,-440.91849 -0.3285,-22.34158 -0.3285,-44.68317 -0.3285,-66.69626 z"
   id="path6" /><path
   style="fill:none;stroke:none;stroke-width:3.28491;stroke-miterlimit:4;stroke-dasharray:none;stroke-opacity:1"
   d="m 1252.0072,613.73595 c 0,-150.47726 0,-301.2832 0,-451.76051 0,-37.12653 24.6416,-62.425075 59.4681,-62.425075 32.1982,0 57.8254,24.641425 59.1397,56.839645 0.6571,14.78493 0,29.56974 0,44.35468 0,288.79816 0,577.92502 0,866.72331 0,16.7563 0,16.7563 -16.7563,16.7563 -29.5698,0 -59.1395,-0.3286 -88.7093,0.3285 -11.1708,0.3285 -13.4707,-3.6141 -13.4707,-14.1278 0.3285,-152.12021 0,-304.56887 0.3285,-456.68905 -0.3285,0 -0.3285,0 0,0 z"
   id="path8" /><path
   style="fill:none;stroke:none;stroke-width:3.28491;stroke-miterlimit:4;stroke-dasharray:none;stroke-opacity:1"
   d="m 1108.4296,665.9759 c 0,134.70691 -0.3287,269.41367 0.3285,403.792 0,12.4851 -3.9427,14.7849 -15.1135,14.7849 -29.8983,-0.6571 -59.7966,-0.6571 -90.0236,0 -11.49931,0.3285 -14.45627,-3.2856 -14.45627,-14.7849 0.32862,-252.00031 0.32862,-504.00071 0.32862,-756.32941 0,-16.75629 0,-33.51244 0,-50.59722 0,-36.14092 24.97005,-62.42508 58.48235,-62.7537 36.1409,-0.32849 60.4539,24.97005 60.4539,62.7537 0.3285,134.70676 0,268.75641 0,403.13463 z"
   id="path10" /><path
   style="fill:none;stroke:none;stroke-width:3.28491;stroke-miterlimit:4;stroke-dasharray:none;stroke-opacity:1"
   d="m 846.57278,715.2589 c 0,117.29363 0,234.91561 0,352.2091 0,16.7563 0,16.7563 -16.09916,16.7563 -29.89831,0 -59.79672,-0.3286 -90.02359,0 -9.19954,0 -12.81359,-2.3 -12.81359,-12.4851 0.32856,-236.55834 0.32856,-473.11668 0.32856,-709.34634 0,-28.25564 16.42762,-50.2686 43.36902,-59.13962 22.0131,-7.22815 48.95448,1.97135 64.39643,22.34172 8.87098,11.49935 10.84233,25.29855 10.84233,39.42623 0,90.0236 0,179.7187 0,269.74211 0,27.27004 0,53.88282 0,80.4956 z"
   id="path12" /><path
   style="fill:none;stroke:none;stroke-width:3.28491;stroke-miterlimit:4;stroke-dasharray:none;stroke-opacity:1"
   d="m -58.262619,2080.3974 c 0,-42.3833 0,-84.4382 0,-126.8215 0,-36.7979 18.398962,-55.1969 55.1969009,-55.1969 61.1108761,0 122.2217381,0 183.3325981,0 20.04176,0 35.4838,11.4993 42.05487,29.8983 5.5854,15.7706 0.98567,34.8266 -11.8279,45.9974 -9.19953,8.2138 -20.04177,11.828 -32.52678,11.828 -42.71189,-0.3286 -85.423884,0 -128.135771,-0.3286 -10.185117,0 -13.799249,2.957 -12.813586,13.1422 0.985676,8.5423 0.657117,17.4133 0,25.9555 -0.657104,8.8711 2.957028,11.171 11.170887,11.171 35.812263,-0.3286 71.62454,1.3141 107.10824,-0.6571 24.97004,-1.3142 47.96883,21.6843 46.98315,44.6832 -0.65711,25.627 -20.04175,43.6976 -47.96873,43.6976 -35.15524,0 -70.638956,0.3286 -105.794195,-0.3285 -9.528,0 -12.485015,2.6283 -11.827897,11.8278 0.657104,8.8709 0.657104,18.0704 0,26.9413 -0.657118,9.1995 1.971338,12.8136 12.156455,12.4851 44.354681,-0.6571 88.709357,-0.3287 133.064057,0 22.67022,0.3285 40.41207,15.442 44.02612,37.1265 3.61413,20.6989 -7.55674,39.7549 -27.59842,48.2972 -5.25692,1.9714 -10.18519,2.2999 -15.77058,2.2999 -63.73934,0 -127.150111,-0.9856 -190.8893491,0.3286 -29.8984089,0.6571 -51.2543049,-23.6558 -50.5971879,-50.9257 1.642699,-43.6977 0.985582,-87.7236 0.657118,-131.4213 0.328464,0 0,0 0,0 z"
   id="path16" /><path
   style="fill:none;stroke:none;stroke-width:3.28491;stroke-miterlimit:4;stroke-dasharray:none;stroke-opacity:1"
   d="m 540.6897,2151.0363 c 0,63.0822 -43.36896,108.4225 -110.72234,115.6508 -58.81105,6.5711 -112.03671,-8.2139 -160.334,-42.055 -20.69887,-14.4561 -25.29858,-40.7404 -11.49934,-61.7679 12.81358,-19.056 41.06911,-25.9557 61.11087,-13.4707 16.42772,10.1852 32.19822,21.0275 51.2543,26.2843 17.4133,4.9283 35.48372,6.8996 53.55422,3.2856 10.84223,-2.2999 19.38456,-7.2282 21.02735,-19.0562 1.64278,-11.8278 -7.22818,-16.7561 -15.77051,-20.6988 -19.38465,-9.528 -40.41208,-13.1421 -60.7824,-19.056 -17.4133,-4.9283 -34.49804,-9.8567 -50.5972,-18.399 -43.69756,-23.3272 -62.42509,-60.7824 -54.86835,-110.0652 7.22818,-46.3261 41.39776,-82.467 88.70937,-92.6521 54.5398,-11.828 105.7941,-1.9714 153.76293,26.2841 27.26982,16.0992 26.6127,44.6833 17.74182,61.7681 -11.49931,22.0131 -40.08349,28.9127 -63.08218,16.7562 -20.37033,-10.8422 -40.74064,-21.6845 -64.72501,-21.6845 -4.92827,0 -9.85655,0 -14.78492,0.6571 -10.51368,1.6428 -20.69878,4.9283 -22.67013,17.0848 -2.29991,12.485 6.24251,18.3989 16.42762,22.6702 21.02743,8.5423 43.04054,13.1421 64.725,19.3847 20.69888,5.9139 40.41208,13.799 58.4825,25.6271 30.22683,18.7275 43.69752,47.3115 43.0404,83.4524 z"
   id="path18" /><path
   style="fill:none;stroke:none;stroke-width:3.28491;stroke-miterlimit:4;stroke-dasharray:none;stroke-opacity:1"
   d="m 764.10583,1892.7935 c 41.72631,-0.6571 80.16704,10.1852 114.66508,34.1696 18.72752,13.1421 26.61282,32.1982 20.37032,53.5541 -5.25684,19.0561 -19.0561,30.227 -38.7693,33.5124 -11.82789,1.9714 -22.67013,-0.6571 -32.85524,-7.2282 -16.09916,-10.5136 -32.52687,-20.3702 -52.24008,-22.9987 -59.13951,-8.2137 -101.52285,34.4981 -104.47987,89.3665 -1.97135,37.1265 10.18511,68.9963 41.39775,90.6807 33.18381,23.3272 76.55281,20.0418 114.00796,-8.8708 20.37033,-15.7707 46.32594,-13.4708 60.1252,-1.9714 22.01311,18.0704 20.69888,51.9113 -0.65711,70.639 -31.54111,27.9269 -68.66761,41.3976 -109.40825,45.3401 -49.28297,4.5998 -94.95188,-8.5422 -133.39252,-39.4262 -61.76808,-49.6115 -82.79541,-114.6652 -67.35347,-191.8752 17.74196,-85.7522 96.92322,-147.8488 188.58953,-144.8919 z"
   id="path22" /><path
   style="fill:none;stroke:none;stroke-width:3.28491;stroke-miterlimit:4;stroke-dasharray:none;stroke-opacity:1"
   d="m 1102.8441,1893.122 c 30.884,-0.3285 48.9544,11.828 59.1395,35.1553 21.3561,46.9831 42.0549,94.2948 63.0823,141.2778 19.056,42.7119 37.4551,85.424 56.5112,128.1358 11.8278,26.6129 2.957,54.2113 -21.3561,64.3964 -26.9413,11.4993 -53.2256,-1.9714 -65.382,-29.8984 -28.2556,-65.382 -53.8827,-131.7498 -84.1096,-196.1461 -1.3142,-2.6284 -1.6427,-6.5711 -4.9283,-6.2425 -2.957,0.3285 -5.2568,3.2854 -6.571,6.571 -12.4851,30.884 -25.2987,61.768 -38.1123,92.652 -14.4562,34.498 -28.584,68.6676 -43.3689,102.8371 -12.4851,29.5698 -34.82659,40.7406 -61.43937,31.5411 -23.65584,-7.8852 -36.14087,-32.5268 -26.94143,-56.1826 12.48501,-31.5411 26.61281,-62.4251 40.412,-93.3091 26.28429,-59.4681 52.8971,-118.9362 78.8527,-178.7328 11.4994,-26.6129 29.2413,-42.712 54.2113,-42.055 z"
   id="path24" /><path
   style="fill:none;stroke:none;stroke-width:3.28491;stroke-miterlimit:4;stroke-dasharray:none;stroke-opacity:1"
   d="m 2474.882,2021.5864 c -16.4275,39.4264 -31.8696,75.8958 -47.3115,112.3652 -14.4564,33.841 -28.2556,68.0105 -43.0404,101.8515 -9.5282,22.3415 -29.5699,32.5266 -52.8973,28.9127 -19.056,-2.957 -33.5123,-19.3847 -36.1407,-40.0837 -0.9856,-8.5422 1.3142,-16.4275 4.5997,-23.9843 39.7549,-90.0234 79.8384,-179.7185 119.5933,-269.7421 10.8422,-24.6415 28.9128,-37.7837 56.1826,-38.1122 27.5986,-0.3285 45.3403,13.4707 56.1826,38.1122 39.0978,88.3808 78.5242,177.0902 117.6221,265.4709 12.1563,27.5986 4.2711,53.8827 -19.7133,64.7251 -25.627,11.8278 -52.897,0.6571 -65.382,-27.927 -28.2555,-66.0392 -55.854,-132.0785 -83.781,-198.1176 -1.3143,-3.6141 -2.957,-7.2282 -5.9141,-13.4707 z"
   id="path26" /><path
   style="fill:none;stroke:none;stroke-width:3.28491;stroke-miterlimit:4;stroke-dasharray:none;stroke-opacity:1"
   d="m 1852.931,2021.915 c -22.6702,53.5541 -44.0262,104.8084 -65.7107,156.3912 -8.5423,20.3704 -16.7561,41.0691 -26.2842,61.1109 -9.8567,21.0275 -32.5267,30.884 -54.5398,25.2987 -19.7133,-5.257 -33.5124,-24.313 -32.8554,-45.3405 0.3285,-7.2281 2.6285,-13.7992 5.5855,-20.0416 39.7548,-90.0236 79.8384,-179.7187 119.9218,-269.7421 14.1278,-31.2126 48.2974,-45.0118 79.1814,-32.1982 15.7705,6.571 25.6271,18.3988 32.1982,33.8409 36.1409,81.4811 71.9532,162.6338 108.0939,244.115 3.6141,8.2138 7.2282,16.4277 10.8424,24.6414 10.5136,24.6414 2.2997,49.9401 -19.7132,61.111 -23.3274,11.8278 -50.5973,3.6141 -63.0822,-20.3704 -10.8423,-21.6844 -19.7133,-44.3547 -28.9128,-66.3678 -20.3702,-47.9687 -40.412,-95.9373 -60.7823,-143.9062 -0.6571,-2.6284 -1.6428,-4.2712 -3.9426,-8.5423 z"
   id="path28" /><path
   style="fill:none;stroke:none;stroke-width:3.28491;stroke-miterlimit:4;stroke-dasharray:none;stroke-opacity:1"
   d="m 2166.3707,1898.379 c 34.1695,0 68.0105,0 102.18,0 31.2126,0 51.9114,17.7419 52.2399,44.6831 0.3286,26.6128 -20.6988,45.3405 -51.9113,45.3405 -14.785,0 -29.5698,0.6571 -44.3547,-0.3287 -10.1851,-0.6571 -11.828,3.2856 -11.828,12.485 0.3287,72.2818 0.3287,144.5635 0,216.8452 0,22.013 -12.4849,39.0978 -32.5267,45.6688 -19.0561,6.571 -40.412,0 -53.2255,-15.7705 -7.8854,-9.8567 -10.1852,-21.356 -10.1852,-33.5125 0,-70.6388 -0.3286,-141.2778 0.3285,-211.9168 0,-11.8278 -3.9427,-14.4563 -14.4563,-13.7992 -15.442,0.6572 -31.2126,0.3287 -46.6546,0.3287 -26.6127,-0.3287 -46.3259,-18.7277 -46.983,-44.0262 -0.6572,-24.9701 19.0561,-45.3403 46.3258,-45.9974 37.1266,-0.3285 74.2532,0 111.0511,0 z"
   id="path30" /><path
   style="fill:none;stroke:none;stroke-width:3.28491;stroke-miterlimit:4;stroke-dasharray:none;stroke-opacity:1"
   d="m 1913.0562,1064.1824 c 0.3285,34.8267 -27.2699,62.4252 -62.0965,62.4252 -33.5125,0 -61.1109,-28.2556 -61.1109,-62.4252 0,-33.5124 27.5984,-60.4537 61.1109,-60.7823 34.8266,0 61.7679,26.2843 62.0965,60.7823 z"
   id="path32" /></svg>
