<?xml version="1.0" encoding="utf-8"?>
<!-- Generator: Adobe Illustrator 22.1.0, SVG Export Plug-In . SVG Version: 6.00 Build 0)  -->
<svg version="1.1"
	 id="svg8" inkscape:version="0.92.4 (5da689c313, 2019-01-14)" sodipodi:docname="petomyzontidae.svg" xmlns:cc="http://creativecommons.org/ns#" xmlns:dc="http://purl.org/dc/elements/1.1/" xmlns:inkscape="http://www.inkscape.org/namespaces/inkscape" xmlns:rdf="http://www.w3.org/1999/02/22-rdf-syntax-ns#" xmlns:sodipodi="http://sodipodi.sourceforge.net/DTD/sodipodi-0.dtd" xmlns:svg="http://www.w3.org/2000/svg"
	 xmlns="http://www.w3.org/2000/svg" xmlns:xlink="http://www.w3.org/1999/xlink" x="0px" y="0px" viewBox="0 0 2267.7 2267.7"
	 style="enable-background:new 0 0 2267.7 2267.7;" xml:space="preserve">
<style type="text/css">
	.st0{fill:none;stroke:#000000;stroke-width:0.2646;}
</style>
<sodipodi:namedview  bordercolor="#666666" borderopacity="1.0" id="base" inkscape:current-layer="layer1" inkscape:cx="1485.1163" inkscape:cy="546.16532" inkscape:document-units="mm" inkscape:pageopacity="0.0" inkscape:pageshadow="2" inkscape:window-height="962" inkscape:window-maximized="1" inkscape:window-width="1280" inkscape:window-x="-8" inkscape:window-y="-8" inkscape:zoom="0.1400905" pagecolor="#ffffff" showgrid="false">
	</sodipodi:namedview>
<g id="layer1" transform="translate(-58.789948,-64.836159)" inkscape:groupmode="layer" inkscape:label="Capa 1">
	<path id="path3713" inkscape:connector-curvature="0" class="st0" d="M2266.8,1711.7c-31.6,56.5-81.3,85.9-142.3,103.9
		c-126.5,33.9-255.3,38.4-384.1,40.7c-180.8,2.3-361.5,11.3-544.5,18.1c-63.3,2.3-144.6-49.7-142.3-90.4c0-31.6,67.8-70,119.7-63.3
		c70,11.3,133.3-6.8,192-42.9c36.2-24.9,76.8-31.6,117.5-45.2c67.8-18.1,137.8-29.4,203.3-56.5c61-27.1,126.5-15.8,187.5-6.8
		c31.6,6.8,54.2,29.4,70,58.7c20.3,33.9,110.7,45.2,137.8,15.8c13.6-15.8,6.8-33.9-2.3-49.7c-29.4-72.3-94.9-99.4-158.2-131
		c-31.6-15.8-67.8-20.3-101.7-31.6c-47.4-15.8-97.2-20.3-142.3-40.7c-103.9-45.2-216.9-49.7-323.1-72.3
		c-210.1-47.4-415.7-110.7-605.5-212.4c-94.9-52-198.8-83.6-296-128.8c-76.8-33.9-153.6-70-212.4-135.6c-6.8-9-13.6-13.6-24.9-13.6
		C140.7,817,57.1,717.6,61.6,645.3c2.3-36.2,81.3-128.8,106.2-122c45.2,11.3,88.1,24.9,131,40.7c67.8,27.1,180.8,22.6,253.1,29.4
		c137.8,13.6,259.8,74.6,384.1,124.3c160.4,61,325.4,108.5,492.5,146.9c146.9,36.2,293.7,65.5,440.6,103.9
		c74.6,20.3,106.2,58.7,180.8,90.4c133.3,54.2,203.3,155.9,255.3,280.2C2343.6,1427,2318.7,1625.9,2266.8,1711.7z M759.8,918.7
		c-273.4-92.6-418-92.6-429.3-79.1c-11.3,13.6-36.2,36.2,210.1,140.1c140.1,61,366,178.5,549,232.7
		c133.3,40.7,230.5-58.7,221.4-67.8C1161.3,1021.1,759.8,918.7,759.8,918.7z"/>
</g>
</svg>
