<?xml version="1.0" encoding="utf-8"?>
<!-- Generator: Adobe Illustrator 22.1.0, SVG Export Plug-In . SVG Version: 6.00 Build 0)  -->
<svg version="1.1"
	 id="svg8" inkscape:version="0.92.4 (5da689c313, 2019-01-14)" sodipodi:docname="plantae.svg" xmlns:cc="http://creativecommons.org/ns#" xmlns:dc="http://purl.org/dc/elements/1.1/" xmlns:inkscape="http://www.inkscape.org/namespaces/inkscape" xmlns:rdf="http://www.w3.org/1999/02/22-rdf-syntax-ns#" xmlns:sodipodi="http://sodipodi.sourceforge.net/DTD/sodipodi-0.dtd" xmlns:svg="http://www.w3.org/2000/svg"
	 xmlns="http://www.w3.org/2000/svg" xmlns:xlink="http://www.w3.org/1999/xlink" x="0px" y="0px" viewBox="0 0 2267.7 2267.7"
	 style="enable-background:new 0 0 2267.7 2267.7;" xml:space="preserve">
<style type="text/css">
	.st0{fill:none;stroke:#000000;stroke-width:0.2646;}
</style>
<sodipodi:namedview  bordercolor="#666666" borderopacity="1.0" id="base" inkscape:current-layer="layer1" inkscape:cx="1406.6835" inkscape:cy="769.26714" inkscape:document-units="mm" inkscape:pageopacity="0.0" inkscape:pageshadow="2" inkscape:window-height="962" inkscape:window-maximized="1" inkscape:window-width="1280" inkscape:window-x="-8" inkscape:window-y="-8" inkscape:zoom="0.1400905" pagecolor="#ffffff" showgrid="false">
	</sodipodi:namedview>
<g id="layer1" transform="translate(-92.423234,42.879094)" inkscape:groupmode="layer" inkscape:label="Capa 1">
	<path id="path3713_2_" inkscape:connector-curvature="0" class="st0" d="M1372.8,423.2c2.5-32.2,5-34.7,29.7-39.6
		c5,0,9.9-5,12.4-9.9c34.7-64.4,64.4-133.7,47-210.4c-7.4-32.2-17.3-49.5-59.4-42.1c-59.4,9.9-118.8,24.8-180.7,22.3
		c-29.7-2.5-61.9,7.4-74.3,42.1s-24.8,76.7-14.9,111.4c42.1,131.2,17.3,269.8,52,398.5c2.5,9.9,7.4,22.3-5,32.2
		c-24.8-17.3-7.4-66.8-56.9-64.4c-29.7,0-61.9-24.8-81.7,19.8c39.6,19.8,66.8,39.6,74.3,91.6c9.9,64.4,7.4,131.2,44.6,193.1
		c27.2,49.5,44.6,104,37.1,178.2c-52-84.2-76.7-168.3-136.1-232.7c-39.6-44.6-29.7-151-76.7-183.2c-24.8-17.3-47-29.7-56.9-56.9
		c-27.2-71.8-106.4-183.2-163.4-217.8c-27.2-19.8-47,14.9-74.3,17.3c-9.9,0-19.8,5-29.7,0c-47-19.8-96.5-5-143.6-9.9
		C462,453,308.5,698,301.1,752.4c-2.5,24.8,12.4,37.1,29.7,49.5c7.4,5,22.3,7.4,22.3,2.5c-5-52,49.5-49.5,71.8-59.4
		c56.9-24.8,116.3-42.1,173.3-69.3c7.4-2.5,17.3,0,24.8,2.5c94.1,24.8,170.8,76.7,235.1,151c7.4,7.4,22.3,17.3,12.4,34.7
		c-27.2-2.5-44.6-17.3-61.9-32.2c-49.5-52-108.9-59.4-168.3-24.8c-12.4,7.4-24.8,17.3-37.1,14.9c-64.4-7.4-96.5,29.7-118.8,81.7
		c-12.4,24.8-24.8,34.7-49.5,14.9c-19.8-12.4-37.1-7.4-59.4-2.5c-148.5,44.6-207.9,173.3-274.7,292.1c-5,9.9-5,24.8-5,34.7
		c-2.5,76.7,0,153.5,0,227.7c0,29.7,9.9,49.5,37.1,64.4c2.5-49.5,14.9-86.6,54.5-111.4c42.1-24.8,84.2-49.5,91.6-106.4
		c0-12.4,14.9-27.2,27.2-34.7c29.7-22.3,49.5-47,49.5-86.6c-2.5-29.7,24.8-47,54.5-52c44.6-12.4,91.6,22.3,104,81.7
		c5,27.2,17.3,56.9-9.9,81.7c-7.4,5-19.8,9.9-9.9,22.3c9.9,9.9,22.3,5,29.7-5c14.9-17.3,24.8-44.6,42.1-56.9
		c54.5-32.2,79.2-86.6,106.4-141.1c19.8-42.1,74.3-49.5,104-12.4c32.2,44.6,76.7,79.2,131.2,74.3c44.6-5,79.2,7.4,118.8,17.3
		c94.1,24.8,180.7,133.7,185.6,232.7c-19.8-9.9-22.3-32.2-29.7-49.5c-24.8-54.5-52-64.4-104-42.1c-44.6,19.8-86.6,19.8-126.2-2.5
		c-17.3-9.9-39.6-22.3-52-7.4c-29.7,29.7-69.3,42.1-96.5,79.2c-34.7,44.6-64.4,96.5-101.5,141.1c-27.2,32.2-42.1,64.4-42.1,104
		c-2.5,56.9-12.4,111.4-24.8,165.8c-12.4,44.6-14.9,86.6,37.1,131.2c-17.3-56.9,7.4-74.3,42.1-89.1c7.4-5,14.9-14.9,22.3-19.8
		c47-34.7,84.2-79.2,131.2-113.9c52-37.1,94.1-79.2,123.8-133.7c19.8-42.1,42.1-61.9,94.1-44.6c143.6,52,131.2,34.7,136.1,168.3
		c2.5,47-14.9,279.7,5,326.7c22.3,32.2,17.3-76.7,27.2-5c5,61.9,14.9-71.8,29.7-22.3c7.4-49.5,17.3-284.6,19.8-331.7
		c0-27.2,7.4-47,27.2-61.9c27.2-22.3,54.5-47,76.7-74.3c9.9-9.9,24.8-27.2,39.6-12.4c24.8,29.7,66.8,39.6,89.1,71.8
		c37.1,54.5,96.5,81.7,148.5,118.8c32.2,22.3,61.9,59.4,104,59.4c64.4,5,106.4,39.6,146,86.6c9.9,14.9,24.8,27.2,49.5,7.4
		c-49.5-42.1-59.4-99-66.8-160.9c-5-52,9.9-106.4-2.5-155.9c-32.2-160.9-104-297-269.8-361.4c-29.7-9.9-49.5-9.9-74.3,12.4
		c-32.2,32.2-74.3,49.5-121.3,56.9c-54.5,12.4-111.4-2.5-165.8,29.7c5-37.1,17.3-59.4,39.6-79.2c32.2-29.7,59.4-66.8,76.7-104
		c27.2-66.8,29.7-71.8,99-59.4c84.2,14.9,155.9-7.4,207.9-81.7c7.4-12.4,17.3-24.8,34.7-24.8c34.7,2.5,64.4-12.4,96.5-24.8
		c19.8-7.4,42.1-12.4,54.5,9.9c32.2,79.2,96.5,106.4,173.3,118.8c22.3,2.5,37.1,12.4,49.5,29.7c29.7,42.1,47,84.2,32.2,141.1
		c27.2-22.3,49.5-39.6,44.6-64.4c-14.9-76.7,19.8-168.3-59.4-227.7c-5-5-9.9-14.9-12.4-22.3c-32.2-71.8-86.6-111.4-165.8-111.4
		c-76.7,0-155.9-14.9-215.3,52c-22.3,24.8-52,27.2-79.2,22.3c-44.6-7.4-89.1-19.8-136.1-32.2c9.9-14.9,17.3-22.3,29.7-22.3
		c54.5-5,104-17.3,146-54.5c12.4-12.4,32.2-9.9,47-2.5c44.6,17.3,79.2,7.4,104-32.2c5-7.4,9.9-17.3,19.8-14.9
		c12.4,5,9.9,14.9,7.4,24.8c-2.5,9.9-5,19.8,12.4,27.2c27.2-37.1,44.6-79.2,29.7-128.7c-24.8-74.3-14.9-89.1,64.4-89.1
		c17.3,0,32.2,7.4,47,14.9c42.1,17.3,79.2,44.6,123.8,47c69.3,2.5,121.3,37.1,170.8,84.2c7.4,7.4,9.9,22.3,32.2,14.9
		c-19.8-61.9-49.5-118.8-79.2-178.2c-17.3-37.1-24.8-151-66.8-155.9c-74.3-5-146,12.4-217.8,17.3c-49.5,2.5-94.1,12.4-131.2-34.7
		c-12.4-17.3-44.6-2.5-71.8,2.5c-47,9.9-94.1,7.4-138.6,32.2c-24.8,12.4-52,19.8-81.7,9.9c-34.7-9.9-64.4,71.8-76.7,99
		c-29.7,61.9-86.6,104-121.3,163.4c-27.2,49.5-64.4,91.6-54.5,155.9c2.5,17.3-7.4,34.7-24.8,49.5c5-52,5-101.5,12.4-148.5
		c5-52,37.1-91.6,54.5-138.6C1393.9,523.3,1372.8,423.2,1372.8,423.2z"/>
</g>
</svg>
