<?xml version="1.0" encoding="utf-8"?>
<!-- Generator: Adobe Illustrator 22.1.0, SVG Export Plug-In . SVG Version: 6.00 Build 0)  -->
<svg version="1.1"
	 id="svg8" inkscape:version="0.92.4 (5da689c313, 2019-01-14)" sodipodi:docname="porifera.svg" xmlns:cc="http://creativecommons.org/ns#" xmlns:dc="http://purl.org/dc/elements/1.1/" xmlns:inkscape="http://www.inkscape.org/namespaces/inkscape" xmlns:rdf="http://www.w3.org/1999/02/22-rdf-syntax-ns#" xmlns:sodipodi="http://sodipodi.sourceforge.net/DTD/sodipodi-0.dtd" xmlns:svg="http://www.w3.org/2000/svg"
	 xmlns="http://www.w3.org/2000/svg" xmlns:xlink="http://www.w3.org/1999/xlink" x="0px" y="0px" viewBox="0 0 2267.7 2267.7"
	 style="enable-background:new 0 0 2267.7 2267.7;" xml:space="preserve">
<style type="text/css">
	.st0{fill:none;stroke:#000000;stroke-miterlimit:10;}
</style>
<sodipodi:namedview  bordercolor="#666666" borderopacity="1.0" id="base" inkscape:current-layer="layer1" inkscape:cx="1099.027" inkscape:cy="703.14882" inkscape:document-units="mm" inkscape:pageopacity="0.0" inkscape:pageshadow="2" inkscape:window-height="962" inkscape:window-maximized="1" inkscape:window-width="1280" inkscape:window-x="-8" inkscape:window-y="-8" inkscape:zoom="0.1400905" pagecolor="#ffffff" showgrid="false">
	</sodipodi:namedview>
<g id="layer1" transform="translate(-173.82402,25.655464)" inkscape:groupmode="layer" inkscape:label="Capa 1">
	<path id="path3713" inkscape:connector-curvature="0" class="st0" d="M813.7,1996.6c12,15,27,6,45-3c75-48,123-48,192-6
		c9,6,15,0,21-6c15-30,36-15,54-3c75,48,156,93,231,147c60,45,120,78,198,90c159,30,312,21,465,3c120-12,213-90,327-123
		c24-9,39-33,45-60c30-90,48-183,42-279c-9-123-51-216-174-258c-57-18-90-63-117-114c-39-81-81-96-165-69c-57,18-102,54-150,87
		c-15,9-30,27-51,24c-48-9-78,15-111,45c-54,45-90,42-147-3c84-75,195-96,282-171c84-72,141-156,204-243c12-15,18-36,21-54
		c21-102,21-204-30-300c-27-57-60-90-120-84c-33,3-48-12-60-39c-51-102-132-174-240-216c-18-6-33-18-33-39c0-39-18-75-27-114
		c-24-138-153-234-294-225c-24,0-51,0-75,0c-45,0-90,6-132,15c-75,15-108,84-84,186c15,66,15,129-6,192c-12,42-30,57-72,45
		c-69-18-135-18-201,3c-39,15-69,9-108-6c-168-60-369,9-363,246c3,120,30,237,54,351c9,39,27,72,54,99c27,27,30,60,6,87
		c-30,42-15,66,21,93c105,81,171,174,141,315c-3,12,6,27,6,42c-3,45,51,48,60,81c15,48,48,81,93,99c54,21,84-18,111-57
		c-3,54-30,93-81,99c-96,9-123-69-159-135c-30,72,15,111,57,153c33,36,81,48,111,84c3-3,3-9,6-12c33-18,69-6,75,39
		C765.7,1978.6,786.7,1957.6,813.7,1996.6z M1008.7,1273.6c15,0,30,0,45-6c6-3,18-9,18,6c3,6,0,15-12,15c-24-6-27,12-27,30
		c0,9,6,30-12,27c-18-3-15-18-6-33c0-3,0-9,3-15c-42,9-78-3-90-39c-3-12-6-57,33-57c3-15-18-36,12-39c12,0,9-9,9-15c0-12-6-24,6-30
		c18-3,12,15,15,21c3,9,12,12,18,9c12-3,6-9,6-18c-9-57-24-114,21-165c9-9,3-30,6-42c6-24,0-57,42-51c9,3,27-6,24-21
		c-3-12-12-18,9-12c18,3,21-9,27-21c12-33,30-45,63-18c15-30-66-99,39-84c-9-27-30-18-54-30c48-3,39-57,78-60c-18-36,21-48,33-72
		c3-9,9-27,24-24c15,3,9,18,12,27c39,141,198,228,333,186c9-3,18-12,30,3c-48,30-69,87-117,114c-9,6-9,15-12,24c-3,21-15,30-39,30
		c-21-3-51-6-42,36c3,18-15,33-30,36c-27,0-24,18-18,33c9,36-3,63-45,66c-21,3-36,3-51,24c-6,9-30,12-48,0c-42-24-84-39-132-6
		c42,18,93-6,132,36c-51-9-90,24-138,3c-9-3-45-15-42,24c0,9-18,3-30,3c-39-3-63,9-81,42c-6,9-15,6-24,3c-12-3-18-21-36-12
		C978.7,1222.6,957.7,1270.6,1008.7,1273.6z M1671.7,2068.6c21,0,42,3,54,21c6,6-6,12-12,18c-21,18-39,3-57-9c-30-18-60-42-99-12
		c-9,9-18,0-27-9c-30-24-60-48-102-63c-30-9-72-18-87-57c-6-12-15-18-27-18c-15,0-27,0-33-21c-6-21-42-3-54-27c-3-9-12-42-45-15
		c-18,15-21-42-42-33c-24,15-39,12-48-12c-12-30-33-48-75-57c27-9,36-24,42-42c21-48,72-72,117-54c30,9,69-9,90,24c18-21,39,9,63-3
		c30-15,69,3,105,0c30,0,60,48,87-3c9-18,21-30,39-33c18-3,33-12,48-21c12-3,30-36,39,6c3,6,24-6,36-15c39-33,81-63,120-96
		c18-12,33-21,54-21c-54,87-42,156,45,216c54,36,84,87,96,150c15,54,21,111,66,159c-30-21-57,9-87-6c-12-6-36,33-63,18
		c-12,45-54,15-78,30c-39,24-87,15-120-27c-3-6-15-9-21-9c-36,6-66-6-93-27C1617.7,2050.6,1638.7,2068.6,1671.7,2068.6z
		 M879.7,718.6c12,0,27-18,36-3c9,15-3,36-15,42c-39,15-30,72-75,87c-12,3,6,36,27,42c30,12,30,30,0,39c-39,12-45,81-105,54
		c0,27,18,24,27,30c12,3,33-3,33,15c-3,21-24,27-36,27c-39-3-69,18-108,21c24,42,75,27,111,66c-75-15-132,36-201,12
		c27,12,6,60,51,60c30,0,60,6,93-9c-30,33-66,60-81,105c-9,21-36,24-48,6c-30-36-90-33-102-87c-24,15,0,30-15,42c-12-15-21-33-33-48
		c-15-18-57-24-45-51c9-24,51-6,69-12c24-9,39-21,45,15c18-15,21-27,12-45c-21-42-15-87,27-102c42-12,48-45,57-72c6-27,9-27,33-18
		s48,15,75,21c0-18-12-21-18-24c-66-21-54-87-75-132c-12-30,42-63,96-63c-18-39-42-72-48-114c21-12,33,6,48,12c51,21,99,21,147-12
		c9-9,21-24,33-12s6,30-3,42c-15,24-36,48-57,72C858.7,733.6,867.7,718.6,879.7,718.6z M1839.7,928.6c6,42,27,72,63,96
		c-36,27-60-15-81-9c-54,12-24-48-54-51c-15,51,6,84,96,138c-63,48-129,81-210,84c18,18,33,12,48,15c12,0,24,6,24,15
		c-3,12-15,24-24,30c-27,15-9-12-15-15c-18-9-39-24-54-9c-18,15-33,3-48-3c3,42,39,27,63,60c-57-9-99-42-147-36c9,42,51,30,87,42
		c-69,45-132,81-210,87c-18,3-48-12-54,30c-3,18-30,3-45-6c-30-15-51-42-90-39c66-39,135-6,201-6c12-12-15-21-3-36c33,18,66,24,96-3
		c-60,9-114-45-174-9c-9,6-18,0-24-9c-3-12,6-21,15-21c54-12,84-63,144-66c30,0,69-30,84-51c30-36,69-42,99-69c6-3,21,0,18-3
		c-36-51,24-63,33-93c12-39,33-72,57-102c24-27,69-33,72-90C1833.7,850.6,1836.7,889.6,1839.7,928.6z M1095.7,496.7
		c-12-3-39-51-12-87c3-6,9-18,0-18c-54-6-42-36-33-69c12-33,3-72,3-108c0-45,12-39,45-30c63,15,129,24,189,63c36,24,81,12,120,0
		c12-3,24-9,33,3c6,6,3,18-3,18c-27-6-3,42-36,33c-24-9-60,15-81,24c-99,48-141,141-198,231C1113.7,529.7,1125.7,508.7,1095.7,496.7
		z M579.7,802.6c-15,66-66,60-114,66c-15,3-42-9-45,15c-6,21,18,33,39,42c6,6,15,9,21,12c-3,3-3,9-6,9c-57-18-120-27-159-81
		c-12-15-24-36-9-54c18-18,30,9,42,12c6,3,12,3,21,6c-3-27-24-36-36-54c-15-24-57-45-6-78c12-6,3-15-3-24c-27-36-18-69,9-108
		c-9,81,39,114,102,132c57,15,111-6,168-72c12,72-63,105-69,174C549.7,799.6,564.7,802.6,579.7,802.6z M528.7,1411.6
		c18,9,36,30,60,24c66-15,75,27,81,75c6,45,6,96,78,78c6-3,18,6,27,12c18,12,9,33,15,48c3,9-6,21-18,18c-18-3-27-15-36-30
		c-3-6-6-12-12-27c-18,33-63,45-30,90c3,6-6,42-42,36c-57-9-102-36-144-75c-18-18-30-36-24-63c3-12,9-27,21-33c18-9,21,12,27,21
		c33,39,72,66,126,57c12-3,24-6,24-21c-3-15-15-9-24-9c-78-3-129-78-144-153c-6-33-30-39-57-63
		C489.7,1384.6,507.7,1399.6,528.7,1411.6z M489.7,985.6c21-3,18,24,9,39c-6,18-21,27-42,27c9-15-3-21-78-45c0,3-3,9-3,12
		c0,15,24,21,9,39c0,3-9,3-12,0c-12-9-27-24-24-33c18-36-15-57-21-90"/>
</g>
</svg>
