<?xml version="1.0" encoding="utf-8"?>
<!-- Generator: Adobe Illustrator 22.1.0, SVG Export Plug-In . SVG Version: 6.00 Build 0)  -->
<svg version="1.1"
	 id="svg8" inkscape:version="0.92.4 (5da689c313, 2019-01-14)" sodipodi:docname="preocupacion-menor-lc-evaluacion-conabio.svg" xmlns:cc="http://creativecommons.org/ns#" xmlns:dc="http://purl.org/dc/elements/1.1/" xmlns:inkscape="http://www.inkscape.org/namespaces/inkscape" xmlns:rdf="http://www.w3.org/1999/02/22-rdf-syntax-ns#" xmlns:sodipodi="http://sodipodi.sourceforge.net/DTD/sodipodi-0.dtd" xmlns:svg="http://www.w3.org/2000/svg"
	 xmlns="http://www.w3.org/2000/svg" xmlns:xlink="http://www.w3.org/1999/xlink" x="0px" y="0px" viewBox="0 0 2267.7 2267.7"
	 style="enable-background:new 0 0 2267.7 2267.7;" xml:space="preserve">
<style type="text/css">
	.st0{fill:none;stroke:#000000;stroke-width:0.2646;}
</style>
<sodipodi:namedview  bordercolor="#666666" borderopacity="1.0" id="base" inkscape:current-layer="layer1" inkscape:cx="2000.3142" inkscape:cy="2003.0733" inkscape:document-units="mm" inkscape:pageopacity="0.0" inkscape:pageshadow="2" inkscape:window-height="962" inkscape:window-maximized="1" inkscape:window-width="1280" inkscape:window-x="-8" inkscape:window-y="-8" inkscape:zoom="0.14369886" pagecolor="#ffffff" showgrid="false">
	</sodipodi:namedview>
<path class="st0" d="M2144.3,1018.7c0-558.1-452.4-1010.4-1010.5-1010.4C575.8,8.2,123.4,460.5,123.4,1018.7
	c0,246.2,88.2,471.9,234.6,647.2h-1.6c298.3,353.5,777.6,593.7,777.6,593.7s479.3-240.1,777.6-593.7h-1.9
	C2056.1,1490.5,2144.3,1264.9,2144.3,1018.7z M1041.3,1472.4H623.4V795.8h143.5v558.2h274.4V1472.4z M1446.3,1362.2
	c47.5,0,105.1-11.9,172.6-35.6v120.3c-55.5,23.2-117.5,34.7-186.1,34.7c-98.4,0-173.7-29.8-225.8-89.5
	c-52.2-59.7-78.2-145.4-78.2-257.1c0-70.3,12.8-132,38.4-184.9c25.6-52.9,62.4-93.5,110.4-121.7c48-28.2,104.2-42.3,168.7-42.3
	c65.7,0,131.7,15.9,198.1,47.7l-46.3,116.6c-25.3-12-50.8-22.5-76.4-31.5c-25.6-8.9-50.8-13.4-75.5-13.4c-54,0-95.8,20.3-125.4,60.9
	c-29.6,40.6-44.4,97.1-44.4,169.6C1276.4,1286.8,1333,1362.2,1446.3,1362.2z"/>
</svg>
