<?xml version="1.0" encoding="UTF-8" standalone="no"?>
<svg
   xmlns:dc="http://purl.org/dc/elements/1.1/"
   xmlns:cc="http://creativecommons.org/ns#"
   xmlns:rdf="http://www.w3.org/1999/02/22-rdf-syntax-ns#"
   xmlns:svg="http://www.w3.org/2000/svg"
   xmlns="http://www.w3.org/2000/svg"
   version="1.1"
   id="svg8"
   x="0px"
   y="0px"
   viewBox="0 0 2267.7 2267.7"
   style="enable-background:new 0 0 2267.7 2267.7;"
   xml:space="preserve"><metadata
   id="metadata10"><rdf:RDF><cc:Work
       rdf:about=""><dc:format>image/svg+xml</dc:format><dc:type
         rdf:resource="http://purl.org/dc/dcmitype/StillImage" /><dc:title></dc:title></cc:Work></rdf:RDF></metadata><defs
   id="defs8" />
<style
   type="text/css"
   id="style2">
	.st0{fill:none;stroke:#000000;stroke-miterlimit:10;}
</style>

<path
   class="st0"
   d="M1132.9,3.5C508.6,3.5,2.6,509.6,2.6,1133.9s506.1,1130.3,1130.3,1130.3s1130.3-506.1,1130.3-1130.3  S1757.2,3.5,1132.9,3.5z M1132.9,2024.2c-491.7,0-890.3-398.6-890.3-890.3s398.6-890.3,890.3-890.3s890.3,398.6,890.3,890.3  S1624.6,2024.2,1132.9,2024.2z"
   id="path5"
   style="fill:none" />
<path
   id="path3713_2_"
   style="fill:none;stroke:#000000;stroke-width:0.111732"
   d="m 763.03906,1788.3359 c 248.52474,-0.6705 497.04944,-1.3411 745.57424,-2.0117 0,-64.9752 0,-129.9505 0,-194.9258 -164.9382,0 -329.8763,0 -494.8145,0 0,-61.2135 0,-122.427 0,-183.6406 61.3251,-1.049 122.6648,-0.8745 183.9919,-0.094 61.3311,0.7113 122.6687,1.5676 184.0042,0.8829 0,-65.8978 0,-131.7956 0,-197.6934 -70.4365,1.1223 -140.8833,0.4583 -211.3237,0.1992 -46.6264,-0.153 -93.2566,-0.031 -139.8755,0.8795 -7.5026,0.1253 -15.0052,0.2526 -22.5078,0.3764 0,-71.6335 0,-143.2669 0,-214.9004 166.7695,-0.91062 333.5391,-1.81741 500.3086,-2.72656 0,-65.8457 0,-131.69141 0,-197.53711 -249.3431,0 -498.6862,0 -748.02931,0 0.89062,330.39717 1.78125,660.79427 2.67187,991.19137 z" /></svg>
