<?xml version="1.0" encoding="UTF-8" standalone="no"?>
<svg
   xmlns:dc="http://purl.org/dc/elements/1.1/"
   xmlns:cc="http://creativecommons.org/ns#"
   xmlns:rdf="http://www.w3.org/1999/02/22-rdf-syntax-ns#"
   xmlns:svg="http://www.w3.org/2000/svg"
   xmlns="http://www.w3.org/2000/svg"
   version="1.1"
   id="svg8"
   x="0px"
   y="0px"
   viewBox="0 0 2267.7 2267.7"
   style="enable-background:new 0 0 2267.7 2267.7;"
   xml:space="preserve"><metadata
   id="metadata10"><rdf:RDF><cc:Work
       rdf:about=""><dc:format>image/svg+xml</dc:format><dc:type
         rdf:resource="http://purl.org/dc/dcmitype/StillImage" /><dc:title></dc:title></cc:Work></rdf:RDF></metadata><defs
   id="defs8" />
<style
   type="text/css"
   id="style2">
	.st0{fill:none;stroke:#000000;stroke-miterlimit:10;}
</style>

<path
   class="st0"
   d="M1132.9,3.5C508.6,3.5,2.6,509.6,2.6,1133.9s506.1,1130.3,1130.3,1130.3s1130.3-506.1,1130.3-1130.3  S1757.2,3.5,1132.9,3.5z M1132.9,2024.2c-491.7,0-890.3-398.6-890.3-890.3s398.6-890.3,890.3-890.3s890.3,398.6,890.3,890.3  S1624.6,2024.2,1132.9,2024.2z"
   id="path5"
   style="fill:#333333" />
<path
   id="path3713_2_"
   style="fill:#333333;stroke:#000000;stroke-width:0.0790037"
   d="m 855.11914,771.30469 c 0.65662,242.39061 1.31015,484.78121 1.9668,727.17191 185.14126,-0.503 370.28256,-1.0029 555.42386,-1.5059 v -166.0703 h -349.875 v -101.7656 c 100.3209,-1.3861 159.883,1.9899 260.204,0.6037 v -168.1504 c -101.6667,1.9286 -162.5745,-0.9066 -264.2411,1.0213 V 939.10156 c 117.9192,-0.64287 235.8385,-1.28338 353.7578,-1.92773 v -167.875 H 855.11328 l 0.006,2.00586 z" /></svg>
