<?xml version="1.0" encoding="UTF-8" standalone="no"?>
<svg
   xmlns:dc="http://purl.org/dc/elements/1.1/"
   xmlns:cc="http://creativecommons.org/ns#"
   xmlns:rdf="http://www.w3.org/1999/02/22-rdf-syntax-ns#"
   xmlns:svg="http://www.w3.org/2000/svg"
   xmlns="http://www.w3.org/2000/svg"
   version="1.1"
   id="svg8"
   x="0px"
   y="0px"
   viewBox="0 0 2267.7 2267.7"
   style="enable-background:new 0 0 2267.7 2267.7;"
   xml:space="preserve"><metadata
   id="metadata9"><rdf:RDF><cc:Work
       rdf:about=""><dc:format>image/svg+xml</dc:format><dc:type
         rdf:resource="http://purl.org/dc/dcmitype/StillImage" /><dc:title></dc:title></cc:Work></rdf:RDF></metadata><defs
   id="defs7" />
<style
   type="text/css"
   id="style2">
	.st0{fill:none;stroke:#000000;stroke-width:0.2646;}
</style>


<path
   id="path3713"
   style="fill:none;stroke-width:1.15043"
   d="m 145.81422,805.7012 c -14.81212,1.17565 -29.69626,1.74788 -44.47151,2.86141 -24.010794,1.79326 -47.945635,4.67486 -71.91201,7.1114 -4.031307,0.44135 -8.075648,0.81407 -12.093845,1.33417 -4.253517,0.89344 -7.6716355,3.65419 -10.350385,6.58192 -1.7232862,1.82605 -3.5013492,3.65032 -4.8052568,5.74587 -0.7672874,1.69123 -0.6237119,3.57337 -0.4634879,5.35419 0.092727,0.77317 0.3053952,1.77101 0.5704191,2.61766 0.8281344,2.70758 2.3567952,5.18256 3.5635687,7.7608 1.8991543,3.90103 3.5008136,7.9546 6.1002599,11.54635 1.508129,2.09329 2.199093,4.52865 2.851114,6.91933 0.474155,1.80365 1.171211,3.55293 2.082175,5.2165 2.063462,3.96101 5.138436,7.44546 8.667994,10.44369 2.657616,3.44071 3.357383,7.7929 2.917585,11.88405 -0.12753,3.34771 0.377601,6.71017 1.461922,9.91529 0.07398,0.20297 0.25844,0.75184 0.395857,1.08998 1.303561,3.485 3.429779,6.67731 5.970855,9.55053 2.531023,2.84151 5.253112,5.62769 6.903165,8.9881 2.159436,4.03154 3.701989,8.29446 5.666197,12.40034 0.465062,0.98716 1.051359,2.09704 1.611725,3.113 1.848082,3.27598 2.526113,6.98026 4.571577,10.17624 1.328735,2.21165 3.194882,4.17844 5.272003,5.79867 3.175199,2.50992 4.938968,6.29623 4.909242,10.06879 0.257313,2.83871 0.288189,5.65275 0.654699,8.48663 0.06985,0.51136 0.176939,1.23635 0.304056,1.82595 1.092187,5.27906 4.226257,10.12384 8.494246,13.86215 3.338202,3.2449 4.74903,7.73302 4.881402,12.06448 0.08994,3.26931 0.417337,6.53261 1.03056,9.75741 0.08425,0.4426 0.220613,1.1137 0.339138,1.642 0.571535,2.5819 1.371115,5.2337 2.307095,7.6573 2.976781,7.7977 8.031919,14.9689 14.752287,20.6168 5.326533,4.4954 11.551033,8.0863 17.698453,11.5301 6.28386,3.5613 12.69609,6.9406 18.916,10.5916 3.01199,2.0068 5.12067,4.8381 7.51156,7.3382 7.93037,8.4754 15.77338,17.0174 23.48564,25.6526 5.86338,6.5759 11.62532,13.2228 17.25432,19.9605 -1.46103,3.8948 -3.32013,7.6827 -4.36753,11.6934 -0.65608,2.4809 -0.59657,5.042 -0.50296,7.5716 0.0799,2.8906 0.15705,5.9459 -1.37252,8.585 -2.8048,5.1001 -9.58041,8.2919 -15.86005,7.1186 -5.65581,-1.2443 -11.34155,-2.6776 -17.20979,-2.7313 -5.68432,-0.2138 -11.37485,-0.138 -17.06242,-0.1635 -0.11423,2.9557 -0.23082,5.9113 -0.34351,8.867 -1.81443,1.8731 -3.62971,3.7452 -5.4399,5.6214 1.74385,2.359 3.61829,4.6395 5.37677,6.9882 1.72194,2.3446 2.75736,5.1013 5.00785,7.119 1.19334,1.1023 2.5994,2.0419 3.89795,2.9471 2.56663,1.7235 5.19441,3.5294 7.623,5.465 4.79082,3.7604 8.97327,8.0783 13.24935,12.2914 0.54202,0.5879 1.25045,1.0852 1.43928,1.8639 2.4442,5.717 5.6962,11.3529 10.79676,15.5427 3.02398,2.4632 6.66855,4.2471 10.49644,5.4966 0.94321,0.3273 2.08804,0.6348 3.04502,1.0939 4.29848,1.8737 7.75649,4.9009 11.74465,7.203 2.83436,1.2887 6.08547,2.0176 8.39751,4.083 2.45644,2.0698 4.31007,4.6199 6.57835,6.8434 2.35101,2.4359 5.0798,4.6539 8.36723,6.0269 3.46868,1.5549 7.45251,2.2864 11.31095,1.7473 3.87972,-0.3471 8.02628,0.4561 11.02125,2.7839 2.00672,1.4838 3.9094,3.0765 5.93814,4.5371 4.38356,3.3089 8.83194,6.5146 13.31388,9.6518 3.77812,2.6507 7.57174,5.293 11.61566,7.6158 5.20737,3.0481 10.58522,5.8511 15.88231,8.77 4.66866,9.1459 9.95811,18.1379 12.81334,27.9172 4.21663,14.2163 3.04322,29.5905 -2.91761,43.2718 -1.46011,3.4622 -2.88577,6.9537 -3.71288,10.5877 -0.67217,2.4906 -1.73205,4.9005 -2.19548,7.433 -0.24406,3.4683 1.68718,6.7556 4.23062,9.2628 2.77248,2.8967 5.8969,5.7437 7.23217,9.4583 0.72799,2.1199 0.86595,4.3892 0.47107,6.5752 7.40869,4.9584 14.68009,10.0957 21.50359,15.6916 2.66762,2.0021 5.56701,4.0466 9.08555,4.6082 2.2255,0.2042 4.40793,-0.1565 6.57804,-0.3598 1.38519,-0.1262 2.80033,-0.2775 4.18369,-0.1342 2.65318,0.628 4.36768,2.6686 6.26695,4.2818 9.36235,8.2344 19.32701,15.8922 28.84393,23.98 7.66496,6.3895 15.51284,12.6008 23.1061,19.0585 2.62341,2.3062 5.22336,4.6701 7.3694,7.3488 5.66448,11.2367 9.28535,23.161 13.31372,34.9151 1.74596,4.4659 4.52823,8.8031 8.86107,11.6411 5.41041,3.4025 12.91118,3.836 18.79656,1.1546 6.63302,-2.7379 12.08456,-7.2492 17.0447,-11.9565 3.73201,-3.6128 7.29503,-7.3686 10.66146,-11.2575 4.70938,-5.8484 7.03934,-13.0816 7.16481,-20.251 0.0439,-3.1764 -0.35554,-6.3611 -1.24306,-9.4387 -0.0788,-0.2416 -0.22389,-0.7596 -0.34501,-1.1068 -2.13612,-6.5854 -6.46728,-12.5651 -12.25987,-17.0498 -0.57934,-0.4723 -1.21576,-0.9051 -1.51395,-1.5776 -2.86866,-4.5245 -4.70219,-9.4935 -6.28016,-14.4777 -1.74784,-4.7549 -4.32297,-9.473 -8.64666,-12.7785 -2.00823,-1.5784 -4.37512,-2.7365 -6.7055,-3.8693 -6.90732,-6.4786 -11.91135,-14.3326 -16.36649,-22.289 -4.21286,-7.2673 -8.42422,-14.5351 -12.64802,-21.7972 -1.47649,5.8089 -2.95244,11.6178 -4.42971,17.4267 -7.77868,-20.1724 -15.64401,-40.318 -23.42596,-60.4891 -0.8049,-2.2886 -1.5446,-4.7297 -3.46903,-6.4977 -3.1708,-3.4537 -6.45606,-6.8952 -8.68505,-10.9281 -3.13931,-4.9062 -6.68713,-9.7565 -8.14609,-15.3318 -0.87852,-3.7892 -0.44513,-7.6931 -1.08623,-11.5082 -0.86206,-7.0335 -2.77151,-14.0724 -5.14739,-20.8729 -0.7522,-2.1475 -1.56019,-4.2866 -2.36229,-6.3441 -2.32869,-5.8245 -4.80487,-11.6012 -7.30482,-17.3685 -1.04305,-2.273 -1.97207,-4.5967 -3.21689,-6.7896 -3.30003,-5.5945 -8.97414,-9.8816 -15.39001,-12.4295 -2.07735,-0.7319 -3.84842,-2.0672 -5.0766,-3.729 -1.15052,-1.4637 -1.81014,-3.166 -2.4452,-4.8452 -1.82017,-4.1448 -4.50273,-8.173 -8.64128,-10.7792 -2.97488,-2.0226 -5.68999,-4.6615 -6.59458,-7.9915 -0.87244,-2.8605 -1.40286,-5.8311 -2.85854,-8.5221 -2.56087,-5.0955 -6.56518,-9.4733 -10.7747,-13.5473 -3.18528,-3.0731 -6.61754,-5.9364 -9.75856,-9.0452 -2.21299,-2.3503 -3.89918,-5.134 -4.59197,-8.1596 -1.42025,-5.0307 -2.38109,-10.1522 -3.60021,-15.2228 -0.84321,-3.7403 -1.71162,-7.5616 -2.75192,-11.2284 -0.65995,-2.1992 -1.279,-4.4212 -2.20949,-6.5429 -1.32492,-2.4598 -3.74963,-4.2212 -5.6855,-6.2754 -1.0221,-0.986 -1.83191,-2.1294 -2.83427,-3.1264 -1.39089,-1.2436 -2.97902,-2.2925 -4.45299,-3.4536 -0.51147,-0.3821 -1.06769,-0.7874 -1.40818,-1.2908 -0.74965,-5.1713 -1.43006,-10.5202 -4.21713,-15.1915 -2.25017,-3.8696 -6.19803,-6.7843 -10.63176,-8.5025 -4.1808,-1.9698 -6.95435,-5.7575 -8.21761,-9.7516 -0.17552,-0.4336 -0.18656,-0.9313 -0.64229,-1.2196 -2.29509,-2.2869 -3.59173,-5.1854 -4.71138,-8.0469 -4.12321,-9.1122 -10.4753,-17.3284 -18.03993,-24.4237 -7.22017,-6.933 -15.41863,-12.9624 -23.04808,-19.5174 -4.08043,-3.5428 -7.74508,-7.4652 -10.90407,-11.6955 -2.14779,-2.7681 -4.32893,-5.52342 -6.28128,-8.40489 -0.94762,-1.73982 -0.95755,-3.71992 -1.44393,-5.57546 -1.21592,-5.95803 -2.22013,-11.96875 -2.44197,-18.03022 -0.67453,-8.85987 -1.10455,-17.74338 -2.17224,-26.52867 -0.25731,-1.61087 -0.33342,-3.26071 -0.83218,-4.8308 -0.69922,-1.69258 -1.76085,-3.24057 -2.56326,-4.894 -4.68314,-8.8073 -9.35799,-17.6177 -14.03621,-26.42711 11.48036,1.35979 22.92344,2.95709 34.32667,4.76147 2.1587,0.36883 4.33879,0.72873 6.54802,0.63722 2.52829,-0.006 4.9863,-0.73253 7.52224,-0.59636 4.33691,0.0821 8.41888,2.13071 11.16886,5.07087 1.025,1.09613 1.87641,2.31839 3.05537,3.29705 3.34824,3.0741 7.60129,5.27016 12.11832,6.66238 3.11777,1.03355 6.36523,2.17943 8.62522,4.46083 3.51172,3.3151 5.04315,8.08683 4.44322,12.58561 -0.0725,2.75298 0.0782,5.39702 0.4804,8.13966 0.62907,4.23786 1.87002,8.41799 3.89167,12.29942 0.22544,0.44005 0.57424,1.08647 0.86274,1.59829 1.85906,3.3391 4.3978,6.31818 6.43224,9.56742 4.93164,7.6863 8.4024,16.2832 8.91332,25.18879 0.0809,1.447 0.18177,2.9729 0.32938,4.4517 0.0315,0.2982 0.0869,0.7446 0.14109,1.1252 0.27181,2.2262 0.97176,4.394 2.00395,6.4318 1.93761,3.9483 4.57567,7.5748 6.81643,11.3838 3.72889,6.1448 7.61038,12.2227 11.00486,18.5235 2.23322,4.4484 2.58874,9.5124 5.3302,13.7745 1.64069,2.72 4.70511,4.52 6.12084,7.3675 0.97138,1.8165 0.94435,3.8392 1.46421,5.7406 1.21074,4.0071 2.93522,7.9105 4.30364,11.8382 0.16148,0.5746 0.4861,1.0693 0.96488,1.4789 4.67127,4.8446 9.09528,9.9011 12.84418,15.358 2.7823,3.7382 5.44446,7.547 7.97327,11.4264 3.05158,4.4663 6.57677,8.8639 11.49917,11.8197 3.07018,1.9261 6.14342,3.9442 8.47059,6.6104 4.59533,4.8968 7.38476,10.8442 10.91968,16.3404 2.35288,3.5955 5.78296,6.525 9.57538,8.8999 3.05122,1.9597 6.36854,3.5475 9.61629,5.2217 2.41064,1.3843 4.23024,3.402 6.38424,5.0571 2.63978,1.7623 5.92617,2.5926 8.4625,4.4891 2.21976,1.8243 3.19273,4.5492 3.34919,7.181 0.97946,6.7159 3.23193,13.2978 6.83495,19.2641 3.7353,6.2745 8.64241,12.0809 14.88264,16.528 3.54486,2.5121 7.64948,4.3849 12.01792,5.4386 5.37319,1.5908 9.67586,5.6448 11.33609,10.4685 0.82717,2.3053 1.08509,4.7473 2.08373,7.0083 2.00039,5.0703 5.71725,9.7959 11.06327,12.4232 3.37711,1.6436 7.21617,2.2167 10.86418,3.1898 4.83568,1.1769 9.68423,2.3331 14.51197,3.523 1.007,0.3378 1.36662,1.5037 0.83928,2.3117 -1.11525,2.108 -2.1696,4.2566 -3.31842,6.3569 -1.85029,3.4587 -3.75228,6.9182 -5.46696,10.3891 -1.89095,3.666 -3.3147,7.5352 -4.01551,11.5299 -1.4612,7.9014 -0.36925,16.242 3.5879,23.4623 2.95757,5.4474 7.43334,10.1702 12.69528,13.9531 0.507,0.3726 1.20909,0.8449 1.79601,1.2567 7.59637,5.3732 15.43244,10.5035 22.50293,16.4418 2.23216,1.8043 4.46431,3.6087 6.69646,5.4128 1.16764,-2.3932 2.3356,-4.7867 3.50268,-7.1803 7.11626,8.4794 14.49582,16.7423 21.84332,25.0642 3.02181,3.4494 6.03775,6.9343 8.4524,10.7581 1.12367,1.7923 2.13639,3.6679 2.57191,5.7009 0.54883,2.1458 0.88837,4.3692 2.02224,6.3523 2.35898,4.7407 6.69772,8.6327 11.92631,10.8593 2.88953,1.266 4.78826,3.6815 6.8273,5.8097 0.3697,0.3477 0.71416,0.8182 1.13042,1.0653 1.00488,-0.057 2.00978,-0.112 3.01468,-0.1683 2.9708,3.3393 6.03093,6.6473 9.6445,9.4528 3.45511,2.8381 6.85562,5.7299 10.12926,8.7357 8.39075,7.4474 17.15006,14.7152 23.84038,23.4993 3.26955,4.2869 5.81992,8.9698 8.13533,13.7164 0.21249,0.4009 0.52862,1.0188 0.79089,1.4982 5.08729,9.355 12.14128,17.6794 18.82452,26.1426 5.52371,6.9197 11.12892,13.8346 17.0834,20.4832 4.12176,4.6359 8.41447,9.257 12.60306,13.8852 3.38166,3.7217 6.74384,7.5194 9.12277,11.8442 4.19921,7.4574 6.22488,15.791 6.61391,24.1037 0.22563,4.2095 0.25795,8.4604 1.31161,12.59 0.76381,2.8849 1.52897,5.6957 2.48387,8.5501 1.32402,4.2833 4.1885,7.9772 6.44689,11.8852 5.34781,8.8535 10.33533,17.9256 14.02287,27.4481 1.5653,4.9345 -0.17861,10.4416 -4.0009,14.1939 -0.82492,0.9177 -1.5966,1.8723 -2.34466,2.8408 -0.16422,0.2164 -0.51102,0.6871 -0.74509,1.0005 -3.3122,4.6003 -5.97669,9.536 -8.96285,14.3044 -1.31922,2.1723 -2.63843,4.3448 -3.95767,6.517 1.02958,0.5047 2.05913,1.0094 3.08858,1.5141 -1.70005,4.0897 -3.80982,8.0245 -5.78739,12.0077 -1.18632,2.5304 -2.49114,5.118 -2.53592,7.913 -0.1452,3.0467 0.76135,6.037 1.97185,8.8577 5.04353,13.1086 9.86699,26.3441 16.68889,38.8236 1.86684,3.4115 4.09997,6.6453 6.40623,9.8296 5.04435,7.1485 9.77259,14.4778 15.0592,21.4885 1.81326,2.3662 3.65503,4.7829 6.21225,6.5651 2.55902,1.8697 5.29347,3.5393 7.80858,5.4586 4.64286,3.3041 9.75543,6.0973 14.8731,8.6824 5.88153,2.9821 11.90683,5.7419 17.61502,8.9907 4.20792,2.3664 8.40096,4.7544 12.57128,7.1732 4.40747,2.6252 8.52795,5.6369 12.2196,9.0354 7.95167,7.0654 14.50963,15.3176 19.83238,24.1233 2.53709,3.9655 6.17753,7.5457 10.94095,9.3761 2.36291,0.9141 4.76833,1.7377 7.11183,2.6929 10.37656,4.029 20.69711,8.1796 31.19496,11.9545 11.71502,4.3012 23.5462,8.365 35.56204,11.9462 1.78256,0.511 3.68999,0.2541 5.52823,0.2552 3.41961,0.012 6.84056,0.031 10.26096,0.035 8.08094,7.1861 14.96357,15.3424 22.69726,22.8124 4.12293,3.9491 8.91693,7.2575 13.5017,10.7541 5.06247,3.77 9.90601,7.6662 15.12035,11.2881 2.24552,1.5684 4.54438,3.0766 6.91946,4.4846 0.92827,0.5537 2.13951,1.2376 3.0853,1.7485 2.42886,1.3117 5.05656,2.5719 7.54824,3.6107 3.25224,1.3598 6.61137,2.5241 10.09113,3.3268 2.20468,0.5327 4.36841,1.1993 6.4396,2.0633 7.2524,2.7708 14.6468,5.275 21.6714,8.4978 4.5083,2.0801 8.7981,4.6102 12.3908,7.8355 2.0305,1.7135 3.8568,3.6239 5.9891,5.2369 4.2934,2.9583 9.4114,4.7175 14.4442,6.3943 2.6073,0.7746 5.3767,1.2601 7.9812,1.6565 4.661,0.6868 9.3507,1.3428 13.8573,2.6495 2.3784,0.6288 4.6393,1.5931 7.0892,2.0028 0.7775,0.1586 1.3844,0.262 2.1842,0.4034 4.413,0.7478 9.0752,1.462 13.1374,3.3775 3.5283,1.6201 6.0642,4.4751 8.1372,7.4219 1.975,2.9188 4.9743,5.1652 8.1372,7.0114 3.5143,2.0787 7.4886,3.3965 11.1201,5.2878 3.0342,1.5209 5.8602,3.3508 8.9377,4.8065 5.2744,2.6238 10.8097,4.7878 16.2914,7.032 3.3235,1.5135 6.0625,3.8505 9.3459,5.4278 2.5067,1.3083 5.206,2.3221 8.0104,2.9923 0.5076,0.1257 1.4127,0.3135 1.9264,0.4068 6.7444,1.3044 13.4752,2.6715 20.1813,4.1279 3.9648,0.8466 7.8677,1.9856 11.4973,3.6622 3.3539,1.4995 6.4408,3.4272 9.3607,5.5214 1.7756,1.183 3.5211,2.4238 5.3174,3.5697 1.8418,-0.067 3.5096,0.7532 5.2508,1.157 2.5009,0.7146 5.1054,1.4993 7.5521,2.1362 4.9981,1.3548 10.2346,2.0451 15.4603,1.839 7.8599,-0.2205 15.4342,-2.5694 22.4268,-5.6587 4.2212,-1.8477 8.2319,-4.052 12.4593,-5.8895 8.3469,-3.7377 16.9289,-7.0497 25.1512,-11.0107 3.6489,-1.6322 7.6832,-2.6455 10.947,-4.9084 3.4888,-2.0065 7.6856,-2.4327 11.5912,-3.4035 9.9655,-2.2328 19.919,-4.6949 29.9019,-6.9555 6.1243,-0.9848 12.6515,1.0941 16.8966,5.1235 2.5513,2.0215 5.8526,3.0418 9.1168,3.7291 3.7936,1.0737 6.73,3.585 9.6641,5.8689 3.2358,2.3425 6.1218,5.0413 9.3407,7.4023 2.4352,1.8783 4.7517,3.9008 6.6599,6.2248 22.1882,24.6835 45.2697,48.7151 67.3819,73.4517 1.6521,1.8116 3.203,3.7229 5.2314,5.2226 1.4927,1.166 3.186,2.2492 4.769,3.1811 5.2872,3.0396 10.7039,5.8938 16.0216,8.8897 0.5317,0.5391 0.5648,-0.2247 0.756,-0.5746 2.5363,-6.0789 5.2345,-12.106 7.6534,-18.2232 0.931,-2.7657 1.4741,-5.6217 1.8651,-8.4849 0.057,-0.4488 0.1358,-1.0417 0.1894,-1.5288 0.3396,-2.814 0.5154,-5.6067 0.8684,-8.4344 0.608,-3.8622 2.7102,-7.4187 3.028,-11.3321 0.4841,-4.1805 -0.2022,-8.4709 -2.0605,-12.3356 -1.7732,-4.4842 -1.1603,-9.5505 1.1786,-13.7779 2.9966,-5.8027 6.0296,-11.5911 9.0196,-17.3969 3.1081,-6.0126 6.1879,-12.0367 9.2568,-18.0654 20.4129,-0.1365 40.8308,0.1559 61.2395,-0.3467 4.9069,-0.4647 9.9102,-2.0977 13.2926,-5.4283 3.7009,-3.5767 5.4598,-8.4196 6.0488,-13.1873 0.5709,-3.96 1.2137,-7.9122 1.8846,-11.8587 0.3101,-3.2105 -0.2774,-6.5018 -1.7786,-9.4365 -0.1202,-0.2279 -0.3781,-0.7071 -0.573,-1.0212 -0.9527,-1.5811 -2.1914,-3.0815 -3.9492,-4.0081 -2.3726,-1.2917 -4.9516,-2.2396 -7.4209,-3.3691 -1.6557,-2.8908 -2.79,-5.9834 -3.9797,-9.0426 -0.2423,-0.5869 -0.5452,-1.3689 -0.7837,-1.9356 -0.7433,-1.7771 -1.5359,-3.5747 -2.9061,-5.0509 -1.8344,-2.0799 -4.0886,-3.9002 -6.1671,-5.7254 -2.6365,-2.2661 -5.4923,-4.4366 -7.3849,-7.2772 -3.2581,-4.9627 -3.4904,-11.3253 -0.8171,-16.5357 0.769,-1.4304 1.463,-2.8979 1.8432,-4.4541 0.9755,-3.5048 0.9903,-7.1391 1.0722,-10.7262 0.6568,-7.3671 7.7661,-13.7647 15.9727,-14.4803 3.3869,-0.1713 6.7839,-0.027 10.1748,-0.067 20.4,0.027 40.8002,0.017 61.1995,-0.094 2.1078,-0.05 4.2309,0.014 6.325,-0.22 3.6639,-0.5577 7.024,-2.2018 9.8315,-4.3408 3.2483,-2.0379 7.2765,-2.5606 11.1204,-2.9839 5.0396,-0.9457 9.3527,-3.996 12.1614,-7.7889 3.221,-4.3458 5.2843,-9.2546 7.769,-13.945 4.3306,-8.1459 8.6035,-16.3169 12.9096,-24.4737 10.6885,11.6478 21.3767,23.2958 32.0652,34.9436 2.192,-7.6463 4.3836,-15.2925 6.5755,-22.9388 -14.6015,-3.6923 -28.0773,-11.0212 -38.2579,-21.1089 -0.6113,-0.5718 -1.3638,-1.2855 -2.0293,-1.9119 -47.356,-44.6606 -94.7121,-89.3213 -142.0681,-133.9821 -0.151,10.2742 -0.5468,20.5648 -1.9038,30.774 -0.7191,3.7472 -2.9468,7.1201 -5.6771,9.9775 -4.0963,5.0602 -6.057,11.2157 -7.1393,17.3143 -0.2707,1.4368 -0.4749,2.7582 -0.654,4.1621 -0.5728,3.6413 -0.3121,7.4283 -1.7501,10.9287 -1.2476,3.1945 -3.4945,6.0288 -6.3073,8.2759 -6.6022,5.6743 -14.0854,10.4899 -21.1351,15.6348 -5.3048,3.9371 -10.5603,7.9598 -15.264,12.478 -1.1121,1.0936 -2.3188,2.2955 -3.4834,3.4171 -0.8121,0.7908 -1.6243,1.582 -2.4367,2.3727 -4.0728,-0.889 -8.0231,-2.2832 -12.2083,-2.7164 -2.9818,-0.2602 -5.9347,0.2235 -8.8747,0.5247 -8.7058,1.0262 -17.5391,1.7709 -25.9235,4.243 -2.5725,0.7529 -5.1035,1.6762 -7.4837,2.7238 -6.1842,2.6699 -11.686,6.438 -16.7347,10.568 -1.566,1.1882 -3.598,1.6936 -5.5385,2.1733 -4.8053,1.0629 -9.9232,0.6719 -14.5722,-0.7817 -6.7718,-1.4577 -13.9977,-0.2589 -20.1703,2.4799 -5.8103,2.6257 -11.3825,5.6992 -17.4601,7.8315 -2.6819,0.9896 -5.4895,1.6502 -8.2896,2.3058 -4.6252,1.1095 -9.1935,2.7887 -13.7586,4.2457 -2.3862,0.7787 -4.7725,1.5573 -7.1581,2.338 -5.6922,-6.9031 -10.6998,-14.3108 -17.3583,-20.5341 -2.0467,-1.8764 -4.302,-3.5684 -6.7133,-5.0581 -0.3127,-0.1845 -0.8639,-0.5229 -1.2757,-0.7521 -6.862,-3.8298 -14.4207,-6.4972 -21.9459,-9.0794 -5.7522,-1.9072 -11.7557,-3.4338 -17.9265,-3.5766 -5.97,0.03 -11.545,-3.6593 -13.6932,-8.578 -0.5935,-1.2124 -1.1818,-2.3899 -1.7988,-3.5414 -1.3797,-2.6439 -3.027,-5.1681 -4.8642,-7.5774 -4.5909,-6.3218 -9.0642,-12.7236 -13.0462,-19.3708 -3.0063,-5.077 -4.7237,-10.7058 -5.4197,-16.4024 -1.1308,-6.4071 -3.44,-12.6161 -6.4702,-18.4977 -0.6095,-1.1836 -1.3218,-2.4884 -2.0199,-3.6985 -3.7453,-6.497 -8.348,-12.5529 -12.8743,-18.6257 -2.9845,-4.1293 -6.5456,-7.8863 -9.7204,-11.8935 -3.3551,-4.4881 -6.16,-9.2779 -9.2786,-13.8959 -6.0627,-9.2506 -11.7662,-18.8221 -15.094,-29.1746 -1.1615,-3.5511 -2.287,-7.1222 -3.8545,-10.5514 -1.5243,-3.9544 -0.9385,-8.4397 1.3124,-12.0802 2.8253,-5.4091 3.316,-11.9299 0.5674,-17.4452 -2.5909,-5.1789 -6.9103,-9.4403 -11.2623,-13.4853 -2.4123,-2.3024 -4.9363,-4.5363 -7.0585,-7.0652 -1.5783,-1.9189 -2.3071,-4.2373 -3.0195,-6.4972 -2.2681,-7.0225 -4.6334,-14.0357 -6.1794,-21.2222 -1.5575,-7.197 -2.4413,-14.5872 -1.5469,-21.906 0.5042,-4.5663 1.6101,-9.0602 2.9727,-13.478 1.142,-4.2351 2.1135,-8.6267 2.5757,-13.0115 0.046,-0.464 0.1161,-1.1572 0.1509,-1.7114 0.2328,-3.1937 0.1104,-6.3967 0.187,-9.5946 0.2153,-22.0049 0.093,-44.0424 1.9844,-65.9973 1.052,-11.1167 2.6042,-22.1936 4.5414,-33.2139 3.1382,-17.3198 7.8789,-34.515 15.7306,-50.6383 1.8691,-3.8171 4.0761,-7.4983 5.8305,-11.3602 2.4526,-5.6875 3.8722,-11.6726 5.2222,-17.631 0.3759,-1.7223 0.736,-3.4154 1.0173,-5.0861 0.4473,-2.6955 0.2588,-5.4459 -0.095,-8.1423 -0.3712,-3.0954 -1.2883,-6.1961 -3.2142,-8.8222 -1.2725,-1.783 -2.7428,-3.4753 -4.4666,-4.9248 -1.4951,-0.807 -3.3287,-0.6297 -5.0019,-0.6564 -2.3689,0.028 -4.877,0.2492 -7.1185,0.6172 -1.1337,0.1907 -2.3074,0.4238 -3.3348,0.6829 -1.8823,0.5724 -3.9643,0.8173 -5.8823,0.2278 -2.4043,-0.6431 -4.142,-2.3521 -6.22,-3.5128 -3.0179,-1.8255 -6.4517,-3.319 -10.1562,-3.4288 -5.5975,-0.4005 -11.2677,-0.56 -16.719,-1.8787 -10.3811,-2.3102 -20.0837,-6.6265 -28.9731,-11.8901 -4.5279,-2.7421 -9.521,-4.7712 -14.4996,-6.7565 -3.293,-1.341 -6.6339,-2.6104 -9.7957,-4.1888 -1.6305,-0.8749 -3.1344,-2.1614 -3.5692,-3.8765 -2.8529,-7.7825 -5.3733,-15.7477 -9.828,-22.9551 -3.6377,-6.2148 -7.1988,-12.6372 -8.4652,-19.6293 -1.13,-6.4364 0.048,-12.9979 -0.8231,-19.4375 -0.8769,-8.0884 -5.2571,-15.9292 -12.3589,-21.0663 -1.5992,-1.2083 -3.4231,-2.1321 -5.1894,-3.1218 -3.1789,-1.8513 -5.3999,-4.7012 -7.1557,-7.6525 -1.361,-2.3295 -2.7996,-4.6201 -4.2658,-6.8978 -4.4933,-7.0946 -9.3923,-14.0849 -15.7952,-19.9432 -2.0498,-1.885 -4.0513,-3.922 -5.0704,-6.4317 -4.9763,-11.0997 -9.8824,-22.2907 -14.9089,-33.4063 -2.9009,-6.4323 -5.9098,-12.8727 -8.9338,-19.2768 -1.7875,-3.807 -3.39959,-7.7879 -6.38447,-11.0056 -2.31717,-2.5345 -4.98213,-4.7886 -7.46422,-7.19 -8.86046,-8.2931 -17.61771,-16.6786 -26.07056,-25.307 -2.26751,-2.2781 -4.46081,-4.621 -6.80263,-6.8363 -3.44572,-2.757 -8.12412,-3.9282 -12.66493,-4.0883 -3.39719,-0.2306 -6.87628,-0.9128 -10.14402,-1.3619 -1.29639,-0.1675 -2.6566,-0.3337 -4.03121,-0.3831 -2.91815,-0.042 -5.78889,0.6851 -8.71351,0.4706 -2.56823,-0.069 -5.07408,-0.8056 -7.54678,-1.2311 -1.54601,-0.2907 -3.09747,-0.5983 -4.55198,-0.8462 -5.26109,-0.9329 -10.71622,-1.4809 -16.03478,-0.5882 -1.58583,0.2496 -3.32476,0.6876 -4.71923,1.1537 -2.85846,0.9029 -5.50736,2.2385 -8.24519,3.3812 -3.30379,1.1598 -6.66181,2.3229 -9.53701,4.2267 -5.14961,3.1965 -9.19354,7.8423 -11.17561,13.1782 -1.89504,4.5689 -3.84029,9.12 -5.78018,13.6733 -3.10238,7.6441 -5.74749,15.4273 -8.61298,23.143 -0.0536,0.6672 -0.42078,0.565 -0.89412,0.2024 -8.8068,-4.9417 -17.77449,-9.6568 -26.94974,-14.0307 -6.18088,-3.0317 -12.4759,-5.9649 -18.08976,-9.8106 -3.68215,-2.4897 -6.83371,-5.5421 -9.65999,-8.7925 -1.14833,-1.2147 -2.14214,-2.6756 -3.86104,-3.3029 -1.64446,-0.6744 -3.47081,-0.8359 -5.25318,-0.9289 -1.14234,-0.1322 -1.76104,-1.0673 -2.54274,-1.7064 -4.98801,-4.6438 -8.42355,-10.6665 -9.7065,-16.9679 -1.94183,-8.3489 -2.53909,-16.99201 -5.83045,-25.0563 -0.13832,-0.33683 -0.37926,-0.89426 -0.57468,-1.31414 -0.70509,-1.53195 -1.53342,-3.01631 -2.426,-4.4672 -0.14473,-0.22999 -0.47683,-0.74339 -0.69333,-1.0819 -0.54682,-0.86518 -1.21038,-1.68575 -1.73777,-2.54933 -0.75593,-6.21422 -3.64589,-12.08376 -7.52468,-17.23165 -5.43012,-7.24414 -12.99614,-12.94551 -20.93796,-17.89056 -3.62005,-2.19577 -7.25443,-4.40378 -10.47389,-7.06633 -2.37228,-1.90659 -4.41921,-4.10599 -6.76688,-6.03663 -3.22791,-2.74822 -6.62072,-5.33727 -9.81961,-8.11328 -9.22847,-7.83596 -18.04194,-16.07299 -27.14524,-23.9946 -2.39447,-2.20721 -4.00537,-4.98334 -5.2069,-7.83908 -3.61699,-7.18191 -10.52672,-13.09612 -18.94387,-15.56347 -4.41373,-1.28039 -9.06923,-1.72291 -13.68999,-1.8207 -1.58284,-0.0309 -3.33004,-0.0337 -4.9762,-0.0189 -26.93204,0.0662 -53.86519,-0.018 -80.79633,0.21566 -5.699,0.17242 -11.48685,2.33182 -15.0903,6.37538 -2.90756,3.32859 -4.06886,7.58187 -4.43511,11.72274 -0.53066,4.37376 -1.11283,8.74252 -1.66763,13.11401 -49.13882,-0.008 -98.2777,0.019 -147.41646,-0.08 -9.11147,-0.75161 -17.69099,-3.92322 -25.99762,-7.12113 -57.67341,-21.79283 -115.81114,-42.64536 -173.53416,-64.3492 -3.33029,-1.20504 -6.84677,-2.32115 -9.47109,-4.61292 -4.64957,-3.82045 -7.09649,-9.63485 -6.49045,-15.24999 7.7e-4,-1.53871 0.002,-3.0774 0.002,-4.61609 -5.86042,0.0126 -11.72354,-0.0272 -17.58229,0.0184 -0.86277,0.071 -1.7255,0.14211 -2.58826,0.21318 z" /><path
   id="path836-6"
   style="fill:none;stroke-width:1.23552"
   d="m 1076.933,164.1495 c -13.8998,1.12292 -27.7065,2.59219 -41.5365,4.46528 -18.2697,2.48839 -36.58312,5.70963 -54.68366,9.63639 -15.62091,3.37948 -31.33679,7.35688 -46.71467,11.81454 -17.82906,5.16636 -35.28565,10.99874 -52.61191,17.56035 -10.71522,4.07168 -21.50408,8.46365 -31.95775,13.0528 -38.12625,16.69926 -74.80962,36.97549 -109.37914,60.23762 -15.20308,10.23187 -30.01739,21.04167 -44.38677,32.41489 -26.95796,21.329 -52.51195,44.748 -76.23743,69.72961 -18.25922,19.18714 -35.50815,39.33341 -51.69422,60.29818 -9.67197,12.55914 -19.0885,25.5432 -27.9596,38.68674 -15.13517,22.3962 -29.11033,45.66422 -41.76749,69.49557 -13.93485,26.13011 -25.993,53.19818 -37.84464,80.31924 -5.78794,13.25339 -11.62675,26.48357 -17.45793,39.71822 65.57305,-4.55233 131.14609,-9.10464 196.71914,-13.65695 16.7401,-31.77614 34.70665,-63.05791 56.36738,-91.77385 32.53304,-43.52691 71.62208,-82.04122 115.02416,-114.68891 56.97094,-42.56299 122.40701,-73.96407 191.55333,-90.78426 55.4397,-13.60724 113.0635,-18.18135 169.9657,-13.71291 63.9547,5.03663 126.9617,21.80946 184.9494,49.25164 46.2997,21.85581 89.4362,50.31488 127.9906,83.98737 57.5439,50.19671 105.2538,111.6216 139.6436,179.80339 24.4625,48.50106 42.261,100.35318 52.7877,153.6441 17.8274,90.22492 15.0641,184.54058 -8.7255,273.41625 -20.2283,75.752 -55.5517,147.4676 -103.541,209.4877 -11.7733,15.3385 -24.0282,30.3215 -37.0502,44.6191 -21.8323,23.7717 -46.4352,44.8551 -72.2458,64.1786 -7.108,5.3334 -14.3125,10.5373 -21.4928,15.7737 4.7825,68.8873 9.5649,137.7743 14.3472,206.6616 30.0595,-19.948 60.0663,-39.999 89.2572,-61.2077 7.5193,-5.4587 15.0609,-11.0893 22.4948,-16.7401 2.2914,-1.7414 4.5464,-3.6279 7.2938,-4.6122 6.8066,-2.7011 15.0366,-1.5751 20.7167,3.1052 3.0573,2.4271 5.7076,5.3118 8.6643,7.8551 119.2375,109.3672 238.5713,218.6373 357.864,327.9515 33.2895,30.4927 66.5709,60.9955 99.8716,91.475 16.382,13.2908 39.2519,18.3414 59.631,12.6882 7.5267,-2.0901 14.6058,-5.6618 20.9131,-10.2523 0.6346,-0.47 1.5385,-1.1457 2.2602,-1.7196 5.1573,-4.0318 9.6585,-8.8343 13.6939,-13.9741 11.6673,-14.3833 23.3025,-28.7931 34.9743,-43.173 21.8149,-26.9273 43.6759,-53.8194 65.2163,-80.9667 8.8286,-11.7268 13.5545,-26.505 14.1938,-40.9597 0.049,-1.2524 0.078,-2.3306 0.068,-3.6283 -0.054,-4.5388 -0.4213,-9.1107 -1.5111,-13.5256 -1.1121,-3.5525 -3.186,-6.6889 -4.7597,-10.0394 -2.6871,-5.2044 -5.2845,-10.4559 -8.0846,-15.6013 -0.5472,-0.9618 -1.2193,-2.2026 -1.8338,-3.2613 -2.3702,-4.2133 -5.0541,-8.3261 -8.6735,-11.582 -3.9602,-3.818 -8.2157,-7.4765 -12.1543,-11.2189 -74.9105,-69.0062 -149.8665,-137.9652 -224.7958,-206.952 -78.386,-72.1565 -156.7823,-144.3019 -235.1692,-216.4575 9.6303,-18.571 18.9512,-37.3211 27.2479,-56.4999 5.5293,-12.7194 10.813,-25.8199 15.6131,-38.8443 7.2571,-19.6194 13.6802,-39.5195 19.3066,-59.6969 3.7035,-13.3173 7.0881,-26.8596 10.0791,-40.3762 3.9673,-17.9297 7.3276,-36.1163 10.0059,-54.2675 2.7188,-18.3618 4.7574,-36.752 6.1852,-55.2441 1.1095,-14.40996 1.8542,-28.98197 2.2106,-43.39783 0.2343,-9.34094 0.3131,-18.5788 0.2386,-27.91971 -0.2053,-25.46609 -1.6165,-51.01053 -4.1627,-76.43101 -0.7642,-7.61144 -1.6514,-15.37119 -2.6253,-22.97052 -1.4742,-11.51516 -3.1805,-22.91534 -5.128,-34.36977 -5.4696,-31.96159 -12.8329,-63.71789 -22.1283,-94.83067 -5.9247,-19.88995 -12.667,-39.66068 -20.1558,-59.06523 -5.0241,-13.01881 -10.4375,-25.98633 -16.1656,-38.76541 -11.333,-25.24917 -24.1074,-50.05371 -38.1528,-73.99562 -6.2052,-10.58933 -12.7377,-21.14051 -19.4582,-31.42581 -8.8182,-13.5274 -18.0271,-26.671 -27.688,-39.61165 -9.6867,-12.98345 -19.8977,-25.75614 -30.384,-38.07322 -10.2095,-11.97225 -20.8388,-23.6963 -31.7349,-34.97484 -52.9639,-54.80397 -114.2862,-101.64183 -181.4197,-137.83887 -11.4863,-6.1962 -23.2806,-12.14159 -35.0985,-17.7017 -28.4958,-13.39254 -57.8867,-24.88084 -87.9167,-34.34634 -26.6301,-8.3898 -53.8956,-15.21976 -81.3914,-20.36652 -20.4561,-3.82749 -41.303,-6.77423 -62.0544,-8.74828 -23.04,-2.18277 -46.0483,-3.19351 -69.1937,-3.04106 -7.1792,0.049 -14.4157,0.21597 -21.6326,0.47824 -8.8072,0.34183 -17.752,0.83245 -26.5888,1.48542 z" /></svg>
