<?xml version="1.0" encoding="utf-8"?>
<!-- Generator: Adobe Illustrator 22.1.0, SVG Export Plug-In . SVG Version: 6.00 Build 0)  -->
<svg version="1.1"
	 id="svg8" inkscape:version="0.92.4 (5da689c313, 2019-01-14)" sodipodi:docname="riesgo-bajo-lr-casi-amenazado-nt.svg" xmlns:cc="http://creativecommons.org/ns#" xmlns:dc="http://purl.org/dc/elements/1.1/" xmlns:inkscape="http://www.inkscape.org/namespaces/inkscape" xmlns:rdf="http://www.w3.org/1999/02/22-rdf-syntax-ns#" xmlns:sodipodi="http://sodipodi.sourceforge.net/DTD/sodipodi-0.dtd" xmlns:svg="http://www.w3.org/2000/svg"
	 xmlns="http://www.w3.org/2000/svg" xmlns:xlink="http://www.w3.org/1999/xlink" x="0px" y="0px" viewBox="0 0 2267.7 2267.7"
	 style="enable-background:new 0 0 2267.7 2267.7;" xml:space="preserve">
<style type="text/css">
	.st0{fill:none;stroke:#000000;stroke-width:0.2646;}
</style>
<sodipodi:namedview  bordercolor="#666666" borderopacity="1.0" id="base" inkscape:current-layer="layer1" inkscape:cx="1398.7589" inkscape:cy="1167.2953" inkscape:document-units="mm" inkscape:pageopacity="0.0" inkscape:pageshadow="2" inkscape:window-height="962" inkscape:window-maximized="1" inkscape:window-width="1280" inkscape:window-x="-8" inkscape:window-y="-8" inkscape:zoom="0.1400905" pagecolor="#ffffff" showgrid="false">
	</sodipodi:namedview>
<path class="st0" d="M2242.2,5H1065.5v2.2C473.9,42.6,5.1,533.4,5.1,1133.8c0,623.4,505.3,1128.9,1128.8,1128.9
	c623.4,0,1128.8-505.4,1128.8-1128.9V25.5C2262.7,14.2,2253.5,5,2242.2,5z M1125.6,1511.2H922.2L594,940.3h-4.6
	c6.5,100.8,9.8,172.7,9.8,215.7v355.1h-143V756.6H658l327.8,565.2h3.6c-5.2-98.1-7.7-167.4-7.7-208V756.6h144V1511.2z M1811.6,889.7
	h-204.9v621.4h-160V889.7h-204.9V756.6h569.8V889.7z"/>
</svg>
