<?xml version="1.0" encoding="UTF-8" standalone="no"?>
<svg
   xmlns:dc="http://purl.org/dc/elements/1.1/"
   xmlns:cc="http://creativecommons.org/ns#"
   xmlns:rdf="http://www.w3.org/1999/02/22-rdf-syntax-ns#"
   xmlns:svg="http://www.w3.org/2000/svg"
   xmlns="http://www.w3.org/2000/svg"
   version="1.1"
   id="Capa_1"
   x="0px"
   y="0px"
   viewBox="0 0 2267.7 2267.7"
   xml:space="preserve"
   width="2267.7"
   height="2267.7"><metadata
   id="metadata11"><rdf:RDF><cc:Work
       rdf:about=""><dc:format>image/svg+xml</dc:format><dc:type
         rdf:resource="http://purl.org/dc/dcmitype/StillImage" /><dc:title></dc:title></cc:Work></rdf:RDF></metadata><defs
   id="defs9" />
<style
   type="text/css"
   id="style2">
	.st0{fill:#1D1D1B;}
</style>
<path
   id="path4"
   style="stroke-width:5.72652;fill:none"
   d="M 716.38672 0 C 322.40247 0 -1.5158245e-13 322.40247 0 716.38672 L 0 2267.6992 L 1551.3125 2267.6992 C 1945.2967 2267.6992 2267.6992 1945.2967 2267.6992 1551.3125 L 2267.6992 0 L 716.38672 0 z M 779.95117 197.56445 L 2093.041 197.56445 L 2093.041 1175.0801 C 2083.3059 1182.5246 2073.5709 1189.3977 2063.8359 1196.2695 C 2011.7246 1233.4919 1960.7598 1272.4316 1905.7852 1304.5 C 1858.8278 1331.9873 1811.2969 1324.5423 1767.7754 1287.8926 C 1728.2625 1254.1061 1687.6043 1222.0376 1645.8008 1192.2598 C 1539.2876 1116.0971 1448.808 1115.5257 1342.2949 1190.543 C 1299.9186 1220.3209 1259.2606 1252.3894 1220.3203 1286.1758 C 1171.0723 1329.1247 1124.6875 1325.6883 1075.4395 1286.748 C 1026.7641 1248.3803 978.66169 1208.8673 927.12305 1173.9355 C 846.95184 1120.1063 762.19856 1120.6781 682.02734 1172.2168 C 624.76219 1208.8665 572.07844 1252.9613 516.53125 1293.0469 C 462.12935 1332.5599 415.17304 1329.1235 367.07031 1282.166 C 344.7369 1260.4053 325.83849 1235.7811 304.65039 1212.875 C 269.71864 1175.08 227.91518 1150.4578 174.08594 1140.7227 L 174.08594 803.42969 C 174.08594 470.1465 446.66799 197.56445 779.95117 197.56445 z M 1469.9961 1323.9707 C 1516.9536 1323.9707 1554.748 1361.7653 1554.748 1408.7227 C 1554.748 1455.6802 1516.9536 1493.4746 1469.9961 1493.4746 C 1423.0387 1493.4746 1385.2441 1455.6802 1385.2441 1408.7227 C 1385.2441 1361.7653 1423.0387 1323.9707 1469.9961 1323.9707 z M 737.00195 1351.457 C 783.95937 1351.457 821.75586 1389.2535 821.75586 1436.2109 C 821.75586 1483.1683 783.95937 1520.9629 737.00195 1520.9629 C 690.04453 1520.9629 652.25 1483.1683 652.25 1436.2109 C 652.25 1389.2535 690.04453 1351.457 737.00195 1351.457 z M 2008.8613 1436.2109 C 2055.8187 1436.2109 2093.6133 1474.0055 2093.6133 1520.9629 C 2093.0407 1567.3477 2055.2461 1605.7148 2008.8613 1605.7148 C 1961.9039 1605.7148 1924.1094 1567.9204 1924.1094 1520.9629 C 1924.1094 1474.0055 1961.9039 1436.2109 2008.8613 1436.2109 z M 217.03516 1493.4746 C 263.99259 1493.4746 301.78711 1531.271 301.78711 1578.2285 C 301.78711 1625.1859 263.99259 1662.9805 217.03516 1662.9805 C 170.07774 1662.9805 132.2832 1625.1859 132.2832 1578.2285 C 132.2832 1531.271 170.07774 1493.4746 217.03516 1493.4746 z M 1173.9355 1578.2285 C 1220.8929 1578.2285 1258.6875 1616.0231 1258.6875 1662.9805 C 1258.6875 1709.9379 1220.8929 1747.7324 1173.9355 1747.7324 C 1126.9781 1747.7324 1089.1836 1709.9379 1089.1836 1662.9805 C 1089.1836 1616.0231 1126.9781 1578.2285 1173.9355 1578.2285 z M 1469.9961 1716.2363 C 1516.9536 1716.2363 1554.748 1754.0309 1554.748 1800.9883 C 1554.748 1847.9457 1516.9536 1885.7422 1469.9961 1885.7422 C 1423.0387 1885.7422 1385.2441 1847.9457 1385.2441 1800.9883 C 1385.2441 1754.0309 1423.0387 1716.2363 1469.9961 1716.2363 z M 584.10547 1747.7324 C 631.06289 1747.7324 668.85742 1785.527 668.85742 1832.4844 C 668.85742 1879.4419 631.06289 1917.2363 584.10547 1917.2363 C 537.14804 1917.2363 499.35156 1879.4419 499.35156 1832.4844 C 499.35156 1785.527 537.14804 1747.7324 584.10547 1747.7324 z M 1004.4316 1885.7422 C 1051.389 1885.7422 1089.1836 1923.5366 1089.1836 1970.4941 C 1089.1836 2017.4515 1051.389 2055.2461 1004.4316 2055.2461 C 957.47417 2055.2461 919.67773 2017.4515 919.67773 1970.4941 C 919.67773 1923.5366 957.47417 1885.7422 1004.4316 1885.7422 z " />
</svg>
