<?xml version="1.0" encoding="UTF-8" standalone="no"?>
<svg
   xmlns:dc="http://purl.org/dc/elements/1.1/"
   xmlns:cc="http://creativecommons.org/ns#"
   xmlns:rdf="http://www.w3.org/1999/02/22-rdf-syntax-ns#"
   xmlns:svg="http://www.w3.org/2000/svg"
   xmlns="http://www.w3.org/2000/svg"
   version="1.1"
   id="svg8"
   x="0px"
   y="0px"
   viewBox="0 0 2267.7 2267.7"
   style="enable-background:new 0 0 2267.7 2267.7;"
   xml:space="preserve"><metadata
   id="metadata1538"><rdf:RDF><cc:Work
       rdf:about=""><dc:format>image/svg+xml</dc:format><dc:type
         rdf:resource="http://purl.org/dc/dcmitype/StillImage" /><dc:title></dc:title></cc:Work></rdf:RDF></metadata><defs
   id="defs1536" />
<style
   type="text/css"
   id="style1530">
	.st0{fill:none;stroke:#000000;stroke-miterlimit:10;}
</style>

<path
   id="path3713"
   style="fill:none;stroke:#000000;stroke-width:0.111012"
   d="M 681.47461 1265.7188 L 681.47461 1959.2363 L 807.72852 1959.2363 L 807.72852 1704.2773 C 873.83001 1704.2673 939.93188 1704.3025 1006.0332 1704.2285 C 1008.5987 1704.1855 1011.0398 1704.1243 1013.625 1704.0117 C 1016.6642 1703.8873 1019.7009 1703.6989 1022.7344 1703.4766 C 1024.6669 1703.3178 1026.797 1703.1392 1028.8027 1702.9336 C 1038.9307 1701.9299 1049.1605 1700.2397 1059.125 1697.8398 C 1075.0392 1694.0162 1090.6835 1688.1542 1105.0938 1680.209 C 1106.4163 1679.4777 1107.6594 1678.7749 1108.9082 1678.0371 C 1122.8873 1669.8761 1135.6991 1659.6532 1146.9043 1647.9004 C 1158.594 1635.677 1168.7022 1621.9522 1176.9531 1607.1895 C 1178.8646 1603.7622 1180.7939 1600.0576 1182.5488 1596.4219 C 1184.1442 1593.1503 1185.6805 1589.6817 1187.0723 1586.4238 C 1190.297 1578.7476 1193.0953 1570.894 1195.4766 1562.916 C 1195.8093 1561.7378 1196.235 1560.3265 1196.5859 1559.0527 C 1198.0705 1553.7799 1199.3831 1548.3193 1200.5098 1543.0469 C 1202.4894 1533.6544 1203.9537 1524.1576 1205.002 1514.6172 C 1205.1252 1513.3565 1205.2867 1511.9341 1205.4043 1510.6406 C 1206.0607 1503.8113 1206.4923 1496.8675 1206.7344 1490.0703 C 1207.0113 1482.1172 1207.0216 1474.0619 1206.8008 1466.166 C 1206.6411 1461.0368 1206.3645 1455.8078 1205.9766 1450.7559 C 1205.6681 1446.8625 1205.2994 1442.9713 1204.8516 1439.1484 C 1203.6461 1428.814 1201.8766 1418.5413 1199.4258 1408.4277 C 1199.0665 1406.9794 1198.6536 1405.3069 1198.2402 1403.7812 C 1197.5325 1401.0688 1196.7457 1398.378 1195.9395 1395.6934 C 1195.6462 1394.7788 1195.2756 1393.596 1194.9531 1392.5781 C 1189.8729 1376.8559 1182.8685 1361.7188 1173.7363 1347.9316 C 1162.5235 1330.9105 1148.086 1316.0491 1131.4922 1304.2246 C 1127.9796 1301.7225 1124.2645 1299.2882 1120.6406 1297.0996 C 1105.1714 1287.7636 1088.1412 1280.7711 1070.6738 1275.9434 C 1066.8131 1274.8579 1062.7744 1273.8594 1058.957 1272.9883 C 1056.9772 1272.5512 1054.9939 1272.1304 1053.0078 1271.7227 C 1051.6561 1271.4636 1050.0724 1271.1457 1048.627 1270.8867 C 1040.4133 1269.3765 1032.1313 1268.2514 1023.8223 1267.4199 C 1022.1998 1267.2778 1020.3581 1267.0937 1018.6484 1266.9629 C 1012.5315 1266.453 1006.1895 1266.1024 1000.0332 1265.9141 C 991.85234 1265.6617 983.66598 1265.7131 975.48242 1265.7227 L 975.48242 1265.7188 C 877.47982 1265.7088 779.47721 1265.7188 681.47461 1265.7188 z M 807.72852 1368.3008 L 809.72852 1368.3008 C 859.93546 1368.3108 910.14288 1368.2704 960.34961 1368.3574 C 978.29913 1368.6614 996.38707 1370.7939 1013.4395 1376.6172 C 1027.8876 1381.5522 1041.4983 1389.5 1051.9824 1400.7012 C 1063.7205 1413.0622 1071.7622 1428.6732 1075.9961 1445.127 C 1080.5248 1462.3153 1081.4061 1480.2736 1080.3184 1497.9551 C 1079.1862 1515.1584 1075.4223 1532.4099 1067.4727 1547.8066 C 1060.2497 1561.7869 1049.3608 1573.8919 1036.0508 1582.3184 C 1021.8 1591.4789 1005.3402 1596.7035 988.68945 1599.3242 C 975.27768 1601.4687 961.6614 1601.8738 948.10156 1601.7246 L 807.72852 1601.7246 L 807.72852 1368.3008 z " /><path
   id="path1533"
   style="fill:none"
   d="M 1133.0996 2.4003906 C 508.19966 2.4003906 1.6992186 509.0004 1.6992188 1133.9004 C 1.6992188 1758.8004 508.29966 2265.3008 1133.0996 2265.3008 C 1757.8996 2265.3008 2264.5 1758.7004 2264.5 1133.9004 L 1134.4004 1133.9004 L 1134.4004 2.4003906 L 1133.0996 2.4003906 z M 631.47461 1215.6992 C 745.16862 1215.6992 858.86265 1215.6892 972.55664 1215.6992 C 982.21336 1215.6862 991.87212 1215.6512 1001.5254 1215.9551 C 1035.1989 1216.9393 1068.9609 1221.9333 1100.8477 1233.0449 C 1131.1877 1243.4324 1159.5226 1259.9535 1182.9668 1281.8906 C 1207.6261 1304.8344 1226.4212 1333.8088 1238.3164 1365.2637 C 1250.2639 1396.8464 1255.7118 1430.6037 1256.7324 1464.2676 C 1257.8134 1500.594 1254.5153 1537.241 1244.7402 1572.3203 C 1235.2854 1606.7036 1219.0206 1639.3074 1196.5312 1667.0312 C 1173.9308 1695.2929 1144.5493 1718.1625 1111.4121 1732.7578 C 1080.1563 1746.5126 1046.042 1753.0418 1012.0039 1754.0762 C 960.57915 1754.288 909.15379 1754.2288 857.72852 1754.2578 L 857.72852 2009.2168 L 631.47461 2009.2168 L 631.47461 1215.6992 z M 1603.2344 1391.6758 C 1605.4783 1391.6588 1607.7227 1391.7008 1609.9629 1391.832 C 1622.6394 1392.5789 1634.9517 1395.9704 1647.1582 1399.25 C 1651.5548 1400.4345 1655.8045 1401.5603 1660.2051 1402.6348 C 1660.2051 1455.897 1660.2055 1509.1596 1660.2285 1562.4219 C 1660.1575 1567.3478 1660.3219 1572.2739 1660.2109 1577.1992 C 1660.0582 1589.7145 1652.6902 1601.7053 1641.8965 1607.918 C 1635.3878 1611.7979 1627.5865 1613.2224 1620.0898 1612.4199 C 1613.394 1611.4913 1606.7769 1610.3013 1600.0586 1609.4961 C 1594.229 1608.7618 1588.251 1608.2942 1582.4492 1608.1328 C 1573.1908 1607.8939 1563.9027 1608.385 1554.7402 1609.7539 C 1550.8793 1610.3583 1546.7423 1611.19 1542.8633 1612.2715 C 1541.2195 1612.72 1539.4648 1613.2621 1537.9297 1613.7812 C 1534.2612 1615.0322 1530.6828 1616.5677 1527.3008 1618.4648 C 1521.0294 1621.9359 1515.464 1626.7419 1511.3887 1632.6602 C 1510.9165 1633.3258 1510.3775 1634.16 1510.002 1634.748 C 1508.0876 1637.8012 1506.5009 1641.052 1505.1602 1644.3945 C 1500.3636 1656.5429 1498.7394 1669.6697 1498.2559 1682.6426 C 1498.0957 1791.5194 1498.144 1900.3964 1498.125 2009.2734 L 1279.7578 2009.2734 L 1279.7578 1401.5684 L 1498.125 1401.5684 L 1498.125 1425.9609 C 1501.1086 1423.8202 1504.1621 1421.7767 1507.2734 1419.8262 C 1535.787 1401.7136 1569.4544 1391.8357 1603.2344 1391.6758 z " /><path
   style="fill:none"
   d="m 857.73242,1418.3027 v 133.4239 c 25.04479,-0.01 50.08998,-0.017 75.13477,-0.027 10.3581,-0.072 20.71984,0.1626 31.07422,-0.1992 2.07394,-0.081 4.26756,-0.2088 6.25976,-0.3613 9.15439,-0.7161 18.31231,-2.2202 27,-5.2617 1.10069,-0.3807 2.32381,-0.8665 3.30863,-1.2637 4.8252,-2.0373 9.5066,-4.5795 13.4414,-8.0723 5.2094,-4.5193 8.9469,-10.5209 11.4082,-16.9199 3.2862,-8.531 4.6427,-17.6796 5.1328,-26.7695 0.1784,-3.3188 0.2532,-6.6528 0.2012,-10.0235 -0.2146,-11.6435 -1.6209,-23.4981 -6.2832,-34.2715 -0.2665,-0.6094 -0.6366,-1.4119 -0.8692,-1.8906 -0.7142,-1.4755 -1.4939,-2.9195 -2.3457,-4.3203 -4.2315,-7.2057 -10.8726,-12.8788 -18.5078,-16.2187 -10.41393,-4.6257 -21.81457,-6.4622 -33.10547,-7.3106 -4.67918,-0.3875 -9.44995,-0.4237 -14.19531,-0.5137 z"
   id="path1636" />
<path
   style="fill:none;stroke:#000000;stroke-width:0.111012"
   d="m 1602.7285,1441.6699 c -18.3715,0.2093 -36.7271,4.2259 -53.3758,12.035 -9.8927,4.6359 -19.2993,10.3511 -27.839,17.174 -0.9415,0.7607 -2.0686,1.6826 -3.0546,2.5419 -10.459,9.0434 -19.6592,19.497 -27.5763,30.8214 -0.9667,1.4018 -2.0541,2.9792 -3.0309,4.4751 -8.2692,12.527 -15.0086,26.0103 -20.6645,39.8994 -1.4931,3.4413 -2.7581,6.9861 -4.4299,10.3469 -3.9788,7.1705 -7.911,14.3684 -11.8708,21.5501 -0.8677,-8.6473 -1.8844,-17.2797 -2.7187,-25.9297 -0.098,-10.8215 -0.014,-21.6438 -0.043,-32.4656 0,-23.5167 0,-47.0334 0,-70.55 -39.4557,0 -78.9115,0 -118.3672,0 0,169.235 0,338.47 0,507.705 39.4557,0 78.9115,0 118.3672,0 0.01,-91.302 -0.019,-182.6042 0.042,-273.9061 0.2377,-19.4572 2.8134,-39.0898 9.6797,-57.3831 6.139,-16.3892 16.1639,-31.4846 29.6971,-42.6848 12.827,-10.7037 28.3478,-17.861 44.485,-21.9317 16.823,-4.3143 34.2897,-5.6057 51.6117,-5.2676 8.8863,0.2398 17.7484,1.0741 26.5568,2.2554 0,-39.4519 0,-78.9037 0,-118.3555 -2.4797,-0.2676 -4.9756,-0.3601 -7.4688,-0.3301 z"
   id="path1644" /></svg>
