<?xml version="1.0" encoding="UTF-8" standalone="no"?>
<svg
   xmlns:dc="http://purl.org/dc/elements/1.1/"
   xmlns:cc="http://creativecommons.org/ns#"
   xmlns:rdf="http://www.w3.org/1999/02/22-rdf-syntax-ns#"
   xmlns:svg="http://www.w3.org/2000/svg"
   xmlns="http://www.w3.org/2000/svg"
   version="1.1"
   id="svg8"
   x="0px"
   y="0px"
   viewBox="0 0 2267.7 2267.7"
   style="enable-background:new 0 0 2267.7 2267.7;"
   xml:space="preserve"><metadata
   id="metadata1538"><rdf:RDF><cc:Work
       rdf:about=""><dc:format>image/svg+xml</dc:format><dc:type
         rdf:resource="http://purl.org/dc/dcmitype/StillImage" /><dc:title></dc:title></cc:Work></rdf:RDF></metadata><defs
   id="defs1536" />
<style
   type="text/css"
   id="style1530">
	.st0{fill:none;stroke:#000000;stroke-miterlimit:10;}
</style>

<path
   id="path1533"
   style="fill:none;stroke-width:1.03426"
   d="m 1093.0546,5.7304646 c -13.0003,0.4818992 -25.9114,1.1285978 -38.8788,2.0271839 -19.3125,1.3336165 -38.7541,3.1793935 -57.99794,5.5080115 -27.64928,3.344246 -55.20327,7.708707 -82.56824,13.09892 -44.27572,8.719446 -88.06058,20.123581 -131.00211,34.153364 -14.37002,4.688644 -28.76136,9.708831 -42.93623,14.980209 -24.33808,9.063864 -48.47648,18.999457 -72.17124,29.742127 -25.30807,11.4727 -50.36973,23.97698 -74.78943,37.31785 -18.97612,10.37055 -37.63571,21.26807 -55.95821,32.70088 -20.06407,12.50543 -39.87514,25.75316 -59.13252,39.51443 -56.21884,40.18445 -108.79598,85.56564 -156.82096,135.32016 -31.52961,32.67555 -61.19381,67.33917 -88.60589,103.60428 -22.05883,29.18536 -42.74439,59.49878 -61.89463,90.70459 -5.96581,9.71776 -11.84641,19.64148 -17.51222,29.53954 -27.46112,47.9412 -51.35911,97.92176 -71.458655,149.38496 -11.021217,28.25135 -20.953024,57.06413 -29.663115,86.16273 -8.064881,26.91953 -15.141933,54.2483 -21.164882,81.74401 -4.285717,19.54196 -8.070702,39.36912 -11.29325,59.14097 -6.53804,40.04741 -10.9170365,80.49912 -13.1313453,121.06152 -1.6532669,30.0278 -2.1054962,60.1969 -1.3741514,90.3193 0.3121022,12.9499 0.8775884,26.0394 1.6252031,38.9838 1.25907,21.5859 3.1214172,43.0129 5.6058556,64.5128 3.705061,32.1326 8.826809,64.1813 15.308772,95.9299 1.713379,8.3991 3.560579,16.9023 5.474042,25.2626 6.632344,29.0251 14.427962,57.7483 23.335229,86.1267 18.052138,57.4206 40.724769,113.4242 67.758287,167.2346 14.50034,28.8753 30.34679,57.2738 47.31728,84.8567 20.46239,33.2464 42.71387,65.5223 66.53128,96.5079 23.47518,30.5108 48.61858,60.0213 75.09733,88.0138 16.10231,17.0206 32.65616,33.4835 49.77663,49.4863 21.85924,20.4365 44.69428,40.1406 68.17937,58.8341 8.52173,6.7851 17.18025,13.4825 25.92929,20.0372 17.40654,13.0634 35.29123,25.6738 53.46308,37.7331 19.80446,13.1442 40.22384,25.7727 60.78908,37.6029 13.1307,7.5594 26.54267,14.9158 39.96224,21.9448 41.96668,21.9284 85.2169,41.192 129.60657,57.6512 30.23849,11.2178 60.93415,21.1172 92.03549,29.6958 37.24082,10.2748 75.07582,18.6154 113.21969,24.9792 22.97305,3.8399 46.14533,6.9844 69.3537,9.3928 12.8714,1.3387 25.8495,2.4576 38.7479,3.3442 14.842,1.0274 29.7283,1.7685 44.5806,2.2179 24.1394,0.7328 48.3009,0.6847 72.4387,-0.085 29.9397,-0.9981 59.9473,-3.153 89.7141,-6.5 33.9242,-3.8219 67.6204,-9.1513 101.0906,-16.0297 31.5388,-6.4845 62.8602,-14.3364 93.7715,-23.536 32.8661,-9.783 65.3589,-21.0851 97.1651,-33.8401 19.9192,-7.9849 39.7255,-16.5812 59.1121,-25.6854 21.7215,-10.1838 43.0362,-21.0274 64.0644,-32.5773 5.9075,-3.2485 11.9045,-6.6096 17.7632,-9.9694 13.0638,-7.4856 26.1157,-15.3176 38.8799,-23.3269 28.679,-17.998 56.5798,-37.3254 83.5039,-57.8061 34.3374,-26.1282 67.1748,-54.2248 98.3216,-84.0844 52.7164,-50.5567 100.6219,-106.2589 142.6579,-166.035 19.9455,-28.3207 38.534,-57.5153 55.783,-87.5531 18.3197,-31.8865 35.1115,-64.7774 50.248,-98.3823 5.0589,-11.229 9.9827,-22.6601 14.6634,-34.055 9.8833,-24.0476 18.9163,-48.3916 27.1018,-73.0541 3.288,-9.8924 6.4701,-19.9537 9.4728,-29.9401 12.4338,-41.3494 22.4559,-83.3205 30.0542,-125.8443 2.9566,-16.4975 5.5323,-33.1766 7.7521,-49.7731 2.2727,-17.1506 4.1687,-34.3126 5.6517,-51.5622 1.4909,-17.1813 2.5755,-34.4118 3.2905,-51.6832 0.072,-1.8399 0.14,-3.6799 0.2106,-5.5198 -89.2454,0 -178.491,0 -267.7366,0 -0.01,30.8734 0.1728,61.7524 -0.633,92.6186 -0.1979,8.8829 -0.3943,17.7659 -0.5932,26.6488 -19.2443,-5.5241 -38.1941,-12.0111 -57.3974,-17.6702 -4.0014,-1.1044 -7.9951,-2.0073 -12.1193,-2.7501 -4.0913,-0.7349 -8.1668,-1.2822 -12.346,-1.6417 -2.4744,-0.2125 -4.9715,-0.3655 -7.3773,-0.4539 -10.2621,-0.3702 -20.7534,0.3459 -30.9473,2.0934 -1.7778,0.2941 -3.5424,0.6591 -5.31,1.0079 -0.6071,0.1285 -1.5497,0.3379 -2.2856,0.4975 -5.5785,1.2482 -11.1833,2.8607 -16.523,4.7062 -25.0595,8.6942 -48.1964,24.2223 -64.3569,45.4824 -9.2233,12.0833 -16.0594,25.9963 -19.8668,40.7189 -0.1842,0.7055 -0.3854,1.4993 -0.5606,2.2489 -1.1236,4.6919 -1.9625,9.452 -2.5159,14.2447 -0.1358,1.2273 -0.2875,2.7166 -0.38,4.0493 -0.5424,8.04 -0.3228,16.1055 -0.3625,24.1578 -0.1395,146.4007 -0.1372,292.8015 -0.1646,439.2021 -0.014,11.935 0.044,23.8734 -0.098,35.8059 -0.7871,8.5562 -8.0682,16.1522 -16.69,16.9231 -8.3485,0.1552 -16.7044,0.096 -25.056,0.1097 -118.614,-0.01 -237.228,0 -355.8421,0 0,-193.6502 0,-387.3005 0,-580.9506 -20.426,40.2899 -47.4312,77.3172 -80.096,108.5581 -33.6409,32.0969 -73.3763,57.8497 -116.5917,75.0533 -38.07,15.163 -78.4997,24.0696 -119.2841,27.6034 -13.2492,1.1692 -26.5496,1.6706 -39.8486,1.7272 -13.70377,0.085 -27.40799,-0.01 -41.1118,0.081 -42.99002,0.07 -85.98009,0.09 -128.97014,0.1222 0,122.5743 0,245.1485 0,367.7227 -136.34626,0 -272.69252,0 -409.03877,0 0,-409.0455 0,-818.091 0,-1227.13645 186.86996,0.012 373.74003,0.0276 560.60993,0.0795 35.34448,0.40719 70.74258,3.14375 105.48558,9.81261 0,-226.73382 0,-453.46764 0,-680.201446 z M 836.03426,1160.6484 c 35.97215,-0.041 71.94558,0.054 107.91654,-0.2537 2.38405,-0.07 4.76528,-0.2087 7.1472,-0.3281 0.5833,-0.04 1.62125,-0.1108 2.27263,-0.1617 4.21403,-0.3232 8.28263,-0.7499 12.46553,-1.4243 6.71827,-1.099 13.40765,-2.685 19.69282,-5.3407 3.84601,-1.6196 7.76808,-3.8031 9.909,-7.5398 3.4208,-5.8357 4.86612,-12.5644 5.88892,-19.1802 0.7685,-5.1061 1.1506,-10.4026 1.2943,-15.4748 0.2661,-12.2068 -0.2395,-24.6213 -3.79294,-36.3844 -1.34867,-4.2798 -3.16256,-8.5463 -6.17206,-11.9343 -2.98233,-3.0482 -7.08693,-4.6084 -11.04523,-5.9552 -8.88314,-2.8027 -18.14402,-4.1996 -27.4122,-4.9194 -0.87551,-0.056 -2.03234,-0.1394 -3.01592,-0.206 -1.42902,-0.083 -3.09778,-0.1683 -4.62248,-0.2233 -11.18524,-0.4304 -22.38192,-0.2938 -33.57292,-0.3296 -25.65106,0 -51.30213,-0.014 -76.95319,-0.019 0,36.558 0,73.1161 0,109.6742 z" />
<path
   id="path839-3"
   style="fill:none;stroke-width:1.33355"
   d="m 1821.0762,1046.9316 c -11.0023,0.2441 -21.9828,1.0369 -32.9802,1.419 -24.4828,1.0969 -49.0313,2.2297 -73.2757,6.0127 -13.4558,2.1926 -26.9373,5.4617 -39.0775,11.8384 -9.2726,4.9072 -17.4181,11.7271 -24.4949,19.4298 -7.6437,8.2134 -14.4155,17.1749 -21.5565,25.8164 -0.7227,0.8904 -1.4453,1.7808 -2.168,2.6712 0.058,-20.3873 0.1019,-40.7747 0.1426,-61.1621 -63.9134,0 -127.8268,0 -191.7402,0 0,236.9812 0,473.9623 0,710.9434 63.914,0 127.8281,0 191.7422,0 0.06,-127.2698 0.09,-254.5396 0.2641,-381.8093 -0.037,-4.66 0.1484,-9.3544 0.5005,-13.9393 0.3737,-4.9019 0.9585,-9.8725 1.6924,-14.6791 0.2764,-1.7869 0.5877,-3.6183 0.9023,-5.3633 0.8551,-4.7247 1.9028,-9.413 3.0918,-14.0645 0.232,-0.8777 0.537,-2.0285 0.8026,-3.0103 1.4924,-5.41 3.2154,-10.7788 5.1376,-15.9947 1.108,-2.9946 2.2157,-5.7907 3.47,-8.7361 5.9904,-14.1023 13.6466,-27.4997 22.8008,-39.7882 10.5171,-14.1355 23.0435,-26.9523 36.8723,-37.9606 7.6639,-6.1051 15.9188,-11.799 24.3461,-16.7981 4.6786,-2.7764 9.4361,-5.3812 14.273,-7.7844 22.216,-11.0889 46.2807,-18.413 70.8758,-21.7694 0.845,-0.1121 1.9004,-0.2529 2.7964,-0.3576 5.9917,-0.7343 11.9054,-1.2284 17.9479,-1.4924 3.4685,-0.1521 6.9387,-0.2628 10.408,-0.3941 -0.01,-44.1914 -0.023,-88.3828 -0.033,-132.5742 -7.5778,-0.2364 -15.1566,-0.5502 -22.7402,-0.4532 z" /><path
   id="path837-6"
   style="fill:none;stroke-width:1.33355"
   d="m 571.4043,807.08984 c 0,318.91146 0,637.82296 0,956.73436 67.41927,0 134.83854,0 202.25781,0 0,-113.3333 0,-226.6666 0,-340 84.89459,-0.055 169.78964,0.01 254.68359,-0.3828 17.7987,-0.4554 35.5477,-2.446 53.0467,-5.7077 30.7768,-5.8326 60.8297,-16.4093 87.6759,-32.6803 28.7812,-17.329 53.9322,-40.5319 73.9381,-67.4935 20.8096,-27.8455 36.4549,-59.4704 46.4125,-92.7579 12.5515,-41.6015 17.1017,-85.2883 16.4398,-128.6357 -0.2472,-16.6764 -1.2883,-33.3504 -3.47,-49.8893 -3.3028,-25.1684 -9.0478,-50.08829 -18.0404,-73.85282 -9.3648,-24.72119 -22.4686,-48.06977 -39.115,-68.62961 -12.3506,-15.29035 -26.6369,-29.00885 -42.4041,-40.7426 -22.7068,-16.97807 -48.3296,-29.93216 -75.248,-38.76291 -38.3385,-12.74794 -78.8008,-18.19989 -119.104,-18.89019 -18.98758,-0.38661 -37.98038,-0.23114 -56.97056,-0.27483 -126.70078,-0.024 -253.40156,-0.0345 -380.10234,-0.0342 0,0.66667 0,1.33334 0,2 z m 242.78711,168.73243 c 49.61558,0.0221 99.23194,-0.0356 148.84673,0.26121 4.11089,0.1109 8.2598,0.29935 12.29522,0.58421 1.5275,0.0916 2.95601,0.22077 4.52741,0.35046 8.05255,0.70707 16.00656,1.74437 23.91533,3.30989 17.4405,3.4433 34.8045,9.41096 49.6804,19.44089 4.7177,3.16587 9.3331,6.85887 13.481,10.86197 9.6499,9.3096 17.4008,20.5088 23.0703,32.6425 0.5137,1.1162 1.1247,2.4557 1.6393,3.6751 1.0238,2.382 1.9628,4.8186 2.8088,7.1931 3.0359,8.6472 5.2237,17.5815 6.7062,26.6221 0.2023,1.2874 0.4399,2.8144 0.629,4.1966 1.1035,7.9001 1.6919,16.1711 1.8428,24.1526 0.099,4.8217 0.069,9.7066 -0.093,14.4564 -0.065,1.9321 -0.171,4.0173 -0.2774,5.8506 -0.072,1.0373 -0.1553,2.2455 -0.2194,3.1778 -1.2769,16.0186 -4.2941,32.0069 -10.1697,47.0067 -6.591,16.6147 -17.0539,31.8511 -30.9807,43.1557 -1.5187,1.2424 -2.9797,2.362 -4.5892,3.5387 -10.9602,7.9854 -23.3843,13.8367 -36.3145,17.8438 -11.723,3.6604 -24.01919,5.9946 -36.28984,7.3196 -4.08134,0.4452 -7.97767,0.7515 -12.09821,0.9939 -10.2923,0.607 -20.73338,0.6376 -31.0916,0.7015 -49.5096,0.01 -99.01928,0.01 -148.52891,0.033 -6.43789,0 -12.87578,0 -19.31367,0.01 0,-92.4616 0,-184.9232 0,-277.3848 13.50781,0.003 27.01562,0.007 40.52344,0.01 z" /></svg>
