<?xml version="1.0" encoding="UTF-8" standalone="no"?>
<svg
   xmlns:dc="http://purl.org/dc/elements/1.1/"
   xmlns:cc="http://creativecommons.org/ns#"
   xmlns:rdf="http://www.w3.org/1999/02/22-rdf-syntax-ns#"
   xmlns:svg="http://www.w3.org/2000/svg"
   xmlns="http://www.w3.org/2000/svg"
   version="1.1"
   id="Capa_1"
   x="0px"
   y="0px"
   viewBox="0 0 2267.7 2267.7"
   xml:space="preserve"
   width="2267.7"
   height="2267.7"><metadata
   id="metadata122"><rdf:RDF><cc:Work
       rdf:about=""><dc:format>image/svg+xml</dc:format><dc:type
         rdf:resource="http://purl.org/dc/dcmitype/StillImage" /><dc:title></dc:title></cc:Work></rdf:RDF></metadata><defs
   id="defs120" />
<style
   type="text/css"
   id="style109">
	.st0{fill:#1D1D1B;}
</style>
<path
   id="path113"
   style="stroke-width:5.72652;fill:none"
   d="M 716.38672 0 C 322.40248 0 -7.5791225e-14 322.40248 0 716.38672 L 0 2267.6992 L 1551.3125 2267.6992 C 1945.2967 2267.6992 2267.6992 1945.2967 2267.6992 1551.3125 L 2267.6992 0 L 716.38672 0 z M 476.44531 634.49805 L 858.97656 634.49805 C 1082.3107 634.49805 1217.457 766.78128 1217.457 958.04688 L 1217.457 960.33594 L 1216.8848 960.33594 C 1216.8848 1176.7982 1048.5244 1289.0391 838.36133 1289.0391 L 682.02734 1289.0391 L 682.02734 1569.6387 L 476.44531 1569.6387 L 476.44531 634.49805 z M 1696.2383 840.30469 C 1701.6441 840.2697 1707.1637 840.38391 1712.8008 840.65234 L 1712.8008 1052.5332 L 1701.9199 1052.5332 C 1566.7742 1052.5332 1484.3125 1133.8495 1484.3125 1305.0723 L 1484.3125 1569.6387 L 1281.0215 1569.6387 L 1281.0215 853.82422 L 1484.3125 853.82422 L 1484.3125 998.13086 C 1523.6107 903.706 1586.3197 841.01614 1696.2383 840.30469 z " /><path
   style="stroke-width:5.72652;fill:none"
   d="M 853.82342,820.03698 H 694.62629 v 286.32572 h 163.20569 c 103.07727,0 163.20572,-61.2737 163.20572,-141.44489 v -2.86326 c 0,-92.19689 -64.13701,-142.01757 -167.21428,-142.01757 z"
   id="path111" />
</svg>
