<?xml version="1.0" encoding="UTF-8" standalone="no"?>
<svg
   xmlns:dc="http://purl.org/dc/elements/1.1/"
   xmlns:cc="http://creativecommons.org/ns#"
   xmlns:rdf="http://www.w3.org/1999/02/22-rdf-syntax-ns#"
   xmlns:svg="http://www.w3.org/2000/svg"
   xmlns="http://www.w3.org/2000/svg"
   version="1.1"
   id="Capa_1"
   x="0px"
   y="0px"
   viewBox="0 0 2267.7 2267.7"
   xml:space="preserve"
   width="2267.7"
   height="2267.7"><metadata
   id="metadata15"><rdf:RDF><cc:Work
       rdf:about=""><dc:format>image/svg+xml</dc:format><dc:type
         rdf:resource="http://purl.org/dc/dcmitype/StillImage" /><dc:title></dc:title></cc:Work></rdf:RDF></metadata><defs
   id="defs13" />
<style
   type="text/css"
   id="style2">
	.st0{fill:#1D1D1B;}
</style>
<path
   id="path4"
   style="stroke-width:5.72651;fill:none"
   d="M 716.38672 0 C 322.40248 0 7.5791225e-14 322.40248 0 716.38672 L 0 2267.6992 L 1551.3125 2267.6992 C 1945.2967 2267.6992 2267.6992 1945.2967 2267.6992 1551.3125 L 2267.6992 0 L 716.38672 0 z M 789.68555 262.84766 L 2071.2812 262.84766 L 2071.2812 1476.8691 L 2070.1348 1476.8691 C 2023.1773 1409.2962 2008.2894 1338.8587 1909.2207 1171.6445 C 1704.2115 826.33564 1670.9976 934.56788 1520.9629 1155.6113 C 1394.4069 1342.2957 1325.1152 1437.3555 1325.1152 1437.3555 C 1325.1152 1437.3555 1078.302 1062.269 986.67773 950.0293 C 755.32653 665.99415 692.90773 737.00154 493.625 1105.7891 C 412.30849 1256.3965 274.87202 1536.9973 198.13672 1633.7754 L 198.13672 854.39648 C 198.13672 529.13043 464.4195 262.84766 789.68555 262.84766 z " /><path
   style="stroke-width:5.72651;fill:none"
   d="m 1494.0478,1099.4909 c 0,0 -4.5812,0 -100.7867,-94.4875 -148.3167,-146.02615 -142.0176,-126.556 -266.2829,-14.88896 -12.0257,10.88036 -21.7608,20.04276 -21.7608,20.04276 0,0 96.7781,127.7013 225.6247,300.0694 0,0.5727 108.8038,-131.1372 163.2057,-210.7357 z"
   id="path6" />
</svg>
