<?xml version="1.0" encoding="UTF-8" standalone="no"?>
<svg
   xmlns:dc="http://purl.org/dc/elements/1.1/"
   xmlns:cc="http://creativecommons.org/ns#"
   xmlns:rdf="http://www.w3.org/1999/02/22-rdf-syntax-ns#"
   xmlns:svg="http://www.w3.org/2000/svg"
   xmlns="http://www.w3.org/2000/svg"
   id="b6059ebe-38db-42f5-b6d4-5a7b6a2a60a6"
   data-name="Capa 1"
   viewBox="0 0 2268.0001 2268"
   version="1.1"
   width="2268"
   height="2268">
  <metadata
     id="metadata15">
    <rdf:RDF>
      <cc:Work
         rdf:about="">
        <dc:format>image/svg+xml</dc:format>
        <dc:type
           rdf:resource="http://purl.org/dc/dcmitype/StillImage" />
        <dc:title>ic_uso</dc:title>
      </cc:Work>
    </rdf:RDF>
  </metadata>
  <defs
     id="defs13" />
  <title
     id="title2">ic_uso</title>
  <path
     style="color:#000000;font-style:normal;font-variant:normal;font-weight:normal;font-stretch:normal;font-size:medium;line-height:normal;font-family:sans-serif;font-variant-ligatures:normal;font-variant-position:normal;font-variant-caps:normal;font-variant-numeric:normal;font-variant-alternates:normal;font-variant-east-asian:normal;font-feature-settings:normal;font-variation-settings:normal;text-indent:0;text-align:start;text-decoration:none;text-decoration-line:none;text-decoration-style:solid;text-decoration-color:#000000;letter-spacing:normal;word-spacing:normal;text-transform:none;writing-mode:lr-tb;direction:ltr;text-orientation:mixed;dominant-baseline:auto;baseline-shift:baseline;text-anchor:start;white-space:normal;shape-padding:0;shape-margin:0;inline-size:0;clip-rule:nonzero;display:inline;overflow:visible;visibility:visible;opacity:1;isolation:auto;mix-blend-mode:normal;color-interpolation:sRGB;color-interpolation-filters:linearRGB;solid-color:#000000;solid-opacity:1;vector-effect:none;fill:none;fill-opacity:1;fill-rule:nonzero;stroke:none;stroke-width:41.4722;stroke-linecap:butt;stroke-linejoin:miter;stroke-miterlimit:4;stroke-dasharray:none;stroke-dashoffset:0;stroke-opacity:1;color-rendering:auto;image-rendering:auto;shape-rendering:auto;text-rendering:auto;enable-background:accumulate;stop-color:#000000;stop-opacity:1"
     d="m 936.04517,2154.6001 c -36.08077,-4.1473 -72.16155,-7.8798 -108.24231,-12.8563 -100.53987,-10.0397 -197.58285,-42.3402 -284.08426,-94.5566 -104.42127,-64.95 -172.52714,-174.9318 -184.13633,-297.3554 -3.5994,-30.5617 -5.53765,-61.2963 -5.80614,-92.0682 V 875.18413 c -2.24445,-73.57078 10.59897,-146.82204 37.73967,-215.24048 24.62555,-61.91617 66.33438,-115.56236 120.26925,-154.69112 18.78725,-11.29047 29.18304,-32.56933 26.54217,-54.32852 -2.0736,-39.39855 0,-79.21184 0,-120.26928 H 1718.21 v 95.8007 c -6.3067,39.36234 11.4808,78.6906 45.2046,99.9479 94.9218,69.95062 150.0957,181.53464 148.0556,299.42893 2.9031,295.28174 4.9767,590.14874 0,885.43044 -3.3177,179.9892 -98.289,306.4793 -264.5923,376.9819 -91.2423,36.5722 -187.9671,57.5994 -286.1579,62.2082 -9.48,0.7718 -18.9001,2.1574 -28.2011,4.1473 z M 631.22485,422.30819 v 97.04487 c 1.56267,12.29333 -5.20434,24.1355 -16.58887,29.0305 -66.87471,33.8667 -118.44115,91.80483 -144.32309,162.15612 -18.00182,52.68303 -26.42912,108.16273 -24.88329,163.815 v 782.16482 c -0.008,23.4125 1.23794,46.8087 3.7325,70.0879 8.71184,104.0493 68.12643,197.1269 158.83834,248.8329 85.27537,48.8007 181.30646,75.7293 279.52231,78.3824 121.92815,6.2208 244.27095,6.2208 366.19915,6.6356 96.8244,2.4804 193.4958,-9.1145 286.9873,-34.4219 87.0268,-20.4187 164.2726,-70.4013 218.5582,-141.42 43.7418,-65.627 65.3905,-143.5044 61.7935,-222.2908 V 867.71914 c 1.1985,-52.90478 -8.2508,-105.51063 -27.7863,-154.69113 -29.5247,-68.83544 -82.8063,-124.76649 -150.1292,-157.59418 -12.759,-5.34708 -20.2704,-18.6628 -18.2478,-32.34828 V 421.47878 Z"
     id="path4" />
  <path
     style="color:#000000;font-style:normal;font-variant:normal;font-weight:normal;font-stretch:normal;font-size:medium;line-height:normal;font-family:sans-serif;font-variant-ligatures:normal;font-variant-position:normal;font-variant-caps:normal;font-variant-numeric:normal;font-variant-alternates:normal;font-variant-east-asian:normal;font-feature-settings:normal;font-variation-settings:normal;text-indent:0;text-align:start;text-decoration:none;text-decoration-line:none;text-decoration-style:solid;text-decoration-color:#000000;letter-spacing:normal;word-spacing:normal;text-transform:none;writing-mode:lr-tb;direction:ltr;text-orientation:mixed;dominant-baseline:auto;baseline-shift:baseline;text-anchor:start;white-space:normal;shape-padding:0;shape-margin:0;inline-size:0;clip-rule:nonzero;display:inline;overflow:visible;visibility:visible;opacity:1;isolation:auto;mix-blend-mode:normal;color-interpolation:sRGB;color-interpolation-filters:linearRGB;solid-color:#000000;solid-opacity:1;vector-effect:none;fill:none;fill-opacity:1;fill-rule:nonzero;stroke:none;stroke-width:34.1996;stroke-linecap:butt;stroke-linejoin:miter;stroke-miterlimit:4;stroke-dasharray:none;stroke-dashoffset:0;stroke-opacity:1;color-rendering:auto;image-rendering:auto;shape-rendering:auto;text-rendering:auto;enable-background:accumulate;stop-color:#000000;stop-opacity:1"
     d="m 1133.3556,113.46524 h 547.4324 c 53.9139,0 75.8941,15.22935 76.3088,51.89238 v 50.48235 c 0.4628,22.78903 -26.212,41.55868 -59.7199,42.02161 -6.0754,0.28452 -12.1723,0.28452 -18.2478,0 H 587.99682 c -8.96674,0.56057 -17.99015,0.56057 -26.95689,0 -28.04132,-2.50461 -49.18764,-18.56243 -49.76659,-37.79122 V 159.9992 c -4.34644,-27.02178 29.60781,-49.69692 69.2585,-46.2519 h 552.82376 z"
     id="path6" />
  <path
     style="color:#000000;font-style:normal;font-variant:normal;font-weight:normal;font-stretch:normal;font-size:medium;line-height:normal;font-family:sans-serif;font-variant-ligatures:normal;font-variant-position:normal;font-variant-caps:normal;font-variant-numeric:normal;font-variant-alternates:normal;font-variant-east-asian:normal;font-feature-settings:normal;font-variation-settings:normal;text-indent:0;text-align:start;text-decoration:none;text-decoration-line:none;text-decoration-style:solid;text-decoration-color:#000000;letter-spacing:normal;word-spacing:normal;text-transform:none;writing-mode:lr-tb;direction:ltr;text-orientation:mixed;dominant-baseline:auto;baseline-shift:baseline;text-anchor:start;white-space:normal;shape-padding:0;shape-margin:0;inline-size:0;clip-rule:nonzero;display:inline;overflow:visible;visibility:visible;opacity:1;isolation:auto;mix-blend-mode:normal;color-interpolation:sRGB;color-interpolation-filters:linearRGB;solid-color:#000000;solid-opacity:1;vector-effect:none;fill:none;fill-opacity:1;fill-rule:nonzero;stroke:none;stroke-width:52.0579;stroke-linecap:butt;stroke-linejoin:miter;stroke-miterlimit:4;stroke-dasharray:none;stroke-dashoffset:0;stroke-opacity:1;color-rendering:auto;image-rendering:auto;shape-rendering:auto;text-rendering:auto;enable-background:accumulate;stop-color:#000000;stop-opacity:1"
     d="m 1653.4598,1209.1915 c -14.0556,-6.247 -27.07,-13.535 -41.1256,-18.7408 -69.7574,-23.9466 -139.5148,-47.3726 -208.2311,-69.7574 -10.4115,-3.6442 -16.1379,-7.2881 -15.0966,-19.782 1.0413,-12.4939 0,-38.0021 0,-56.7429 0.2404,-96.84404 -55.2753,-185.18035 -142.6383,-226.9718 l -11.4527,-6.24695 c 30.7389,-45.01843 72.0231,-81.83463 120.2534,-107.23898 4.3786,-1.54816 9.1561,-1.54816 13.535,0 14.3591,5.01527 30.1335,-2.07195 35.9199,-16.13789 5.5973,-13.56015 0.2446,-29.16737 -12.4939,-36.44042 -13.5538,-7.09319 -30.2893,-2.2789 -38.0022,10.93214 -4.6425,5.95341 -10.2782,11.06071 -16.6585,15.09673 -51.7846,27.66479 -96.2225,67.28413 -129.6237,115.56822 -3.4684,6.57047 -11.4504,9.3073 -18.2203,6.24694 -37.3104,-8.85555 -76.1755,-8.85555 -113.4858,0 -7.3397,2.74754 -15.579,-0.3691 -19.2614,-7.28811 -31.6095,-45.77426 -73.27903,-83.70427 -121.81518,-110.88301 -8.47056,-5.15578 -15.88919,-11.86792 -21.86425,-19.78192 -8.76144,-10.86559 -23.82857,-14.30944 -36.44046,-8.32928 -12.36086,6.81616 -18.06245,21.50888 -13.53502,34.87871 4.03814,13.82059 18.35645,21.9036 32.27583,18.2202 10.71582,-4.43582 23.04919,-1.9695 31.23467,6.24696 14.05558,9.37038 28.63176,18.74077 42.16677,29.15231 24.99162,19.4163 46.62344,42.80673 64.03104,69.23685 v 2.60279 l -8.8498,4.68518 c -74.02391,34.15456 -126.28807,102.80002 -139.51482,183.24333 -4.86165,34.4779 -6.43046,69.3403 -4.6852,104.1155 0,10.9321 -3.12367,16.1379 -14.05557,19.2613 -20.82313,5.2058 -42.16681,11.4527 -62.4693,18.2203 -68.18672,19.3333 -134.55271,44.5907 -198.34007,75.4837 -24.85567,12.2936 -46.5775,30.0983 -63.51045,52.0578 -153.69911,203.3138 97.57066,464.3955 306.62017,318.5934 9.89099,-7.2881 19.26137,-15.6173 31.23467,-24.9877 v 100.992 c -0.37326,32.5796 8.66129,64.5752 26.02887,92.1423 28.69115,42.5763 68.22791,76.7216 114.5271,98.9097 27.9836,15.6066 54.9356,32.995 80.6895,52.0577 18.2964,16.1295 45.7347,16.1295 64.031,0 12.3301,-10.9195 25.3735,-21.0063 39.0433,-30.1935 24.4672,-15.0967 52.0578,-27.07 74.4426,-42.6873 70.7509,-37.1427 113.1344,-112.3328 108.2802,-192.0931 v -81.2101 l 16.6584,13.535 c 83.9132,72.397 208.3907,71.7301 291.5234,-1.5618 121.614,-100.7971 99.8946,-293.2475 -41.1256,-364.4043 z M 1039.6989,917.14747 c 50.2529,-38.36423 118.9231,-41.88044 172.8318,-8.84982 62.1294,37.99679 93.774,110.86275 79.1277,182.20215 -34.3581,-8.3293 -68.1956,-15.0967 -100.4715,-25.5083 -38.316,-13.0106 -79.855,-13.0106 -118.1711,0 -32.2758,9.8909 -65.5927,16.6585 -99.43025,24.9877 -12.99381,-65.5276 12.70371,-132.70546 66.11335,-172.83173 z m 219.6837,492.98693 c 16.8012,-0.4023 31.1877,11.9612 33.317,28.6318 v 68.1956 H 972.54439 v -69.7574 c 2.14205,-16.2998 16.37044,-28.2697 32.79641,-27.5906 z m -168.1465,-160.3379 41.6462,-67.1545 41.1256,67.1545 z m -266.53574,230.0953 c -33.04792,47.8633 -94.38325,67.1646 -148.88516,46.852 -85.65364,-31.8775 -112.63331,-139.7962 -52.05774,-208.231 11.08346,-11.5163 24.60098,-20.4094 39.56388,-26.0289 67.67509,-24.9878 135.35014,-52.0577 204.06639,-72.3603 49.45487,-16.1379 100.47147,-28.6318 150.96747,-42.1668 h 10.4116 c -14.5762,23.426 -27.0701,45.8108 -41.64623,67.1545 -54.14007,76.0044 -106.71838,156.6939 -162.42021,234.7805 z m 455.50534,225.41 c -17.2869,26.5877 -41.6165,47.8537 -70.2779,61.4283 -23.9466,13.0143 -46.852,27.5905 -70.278,40.605 -3.9158,2.0371 -8.5784,2.0371 -12.4938,0 -27.5907,-15.0968 -54.6607,-31.2347 -81.7308,-46.852 -23.7234,-12.0573 -43.9723,-29.9768 -58.82523,-52.0577 -6.50412,-13.1927 -12.24005,-26.7503 -17.17905,-40.6052 h 325.88148 c -3.8386,12.9422 -8.8932,25.4921 -15.0967,37.4816 z m 354.5134,-208.231 c -51.6532,49.8496 -134.3894,46.7764 -182.2023,-6.7675 -34.4153,-41.3701 -66.2316,-84.835 -95.2656,-130.1444 -39.0433,-58.3046 -76.0044,-118.6916 -113.4859,-178.0374 -2.2428,-3.4593 -4.1599,-7.1188 -5.7264,-10.9322 30.7141,8.3293 60.3871,15.0967 88.4982,24.4672 86.4158,27.5906 172.3112,55.1811 260.2888,84.8541 20.7241,6.7671 39.7301,17.9576 55.7017,32.7964 51.5267,52.5904 47.948,137.7634 -7.8085,185.8461 z"
     id="path8" />
</svg>
