<?xml version="1.0" encoding="UTF-8" standalone="no"?>
<svg
   xmlns:dc="http://purl.org/dc/elements/1.1/"
   xmlns:cc="http://creativecommons.org/ns#"
   xmlns:rdf="http://www.w3.org/1999/02/22-rdf-syntax-ns#"
   xmlns:svg="http://www.w3.org/2000/svg"
   xmlns="http://www.w3.org/2000/svg"
   id="b6059ebe-38db-42f5-b6d4-5a7b6a2a60a6"
   data-name="Capa 1"
   viewBox="0 0 2268.0001 2268"
   version="1.1"
   width="2268"
   height="2268">
  <metadata
     id="metadata15">
    <rdf:RDF>
      <cc:Work
         rdf:about="">
        <dc:format>image/svg+xml</dc:format>
        <dc:type
           rdf:resource="http://purl.org/dc/dcmitype/StillImage" />
        <dc:title>ic_uso</dc:title>
      </cc:Work>
    </rdf:RDF>
  </metadata>
  <defs
     id="defs13" />
  <title
     id="title2">ic_uso</title>
  <path
     id="path8"
     style="color:#000000;font-style:normal;font-variant:normal;font-weight:normal;font-stretch:normal;font-size:medium;line-height:normal;font-family:sans-serif;font-variant-ligatures:normal;font-variant-position:normal;font-variant-caps:normal;font-variant-numeric:normal;font-variant-alternates:normal;font-variant-east-asian:normal;font-feature-settings:normal;font-variation-settings:normal;text-indent:0;text-align:start;text-decoration:none;text-decoration-line:none;text-decoration-style:solid;text-decoration-color:#000000;letter-spacing:normal;word-spacing:normal;text-transform:none;writing-mode:lr-tb;direction:ltr;text-orientation:mixed;dominant-baseline:auto;baseline-shift:baseline;text-anchor:start;white-space:normal;shape-padding:0;shape-margin:0;inline-size:0;clip-rule:nonzero;display:inline;overflow:visible;visibility:visible;opacity:1;isolation:auto;mix-blend-mode:normal;color-interpolation:sRGB;color-interpolation-filters:linearRGB;solid-color:#000000;solid-opacity:1;vector-effect:none;fill:none;fill-opacity:1;fill-rule:nonzero;stroke:none;stroke-width:65.9372;stroke-linecap:butt;stroke-linejoin:miter;stroke-miterlimit:4;stroke-dasharray:none;stroke-dashoffset:0;stroke-opacity:1;color-rendering:auto;image-rendering:auto;shape-rendering:auto;text-rendering:auto;enable-background:accumulate;stop-color:#000000;stop-opacity:1"
     d="m 1202.9902,646.91211 c -2.1534,-0.51378 -4.2015,-1.43429 -6.3711,-1.88086 -5.697,-1.3887 -11.4291,-2.46481 -17.1914,-3.47266 -3.7538,-0.63888 -7.5205,-1.18613 -11.2929,-1.67773 -5.6516,-0.71081 -11.5811,-1.29872 -17.2696,-1.66016 -7.6824,-0.51007 -15.3484,-0.67509 -23.0644,-0.55468 -5.8079,0.0938 -11.6122,0.3718 -17.3887,0.83984 -3.8505,0.30418 -7.5775,0.67419 -11.4473,1.14844 -3.8387,0.45542 -7.7058,1.00509 -11.4609,1.625 -6.5412,1.085 -13.0647,2.33096 -19.5234,3.89843 -3.277,0.79786 -6.4885,1.92484 -9.877,2.16211 -81.45263,-45.15444 -126.97209,-92.01366 -210.78123,-185.79296 -12.62282,-10.75942 -28.55876,-10.67813 -35.17383,4.30273 6.22599,77.6827 149.92568,158.72212 211.26956,192.1875 -9.2367,5.0164 -18.3927,10.21748 -27.80472,14.8418 -31.16237,16.08991 -59.70353,38.19819 -83.70898,65.13476 -5.11193,5.72873 -10.00875,11.68345 -14.69336,17.82813 -0.89694,1.1969 -1.94249,2.56543 -2.875,3.84765 -5.13361,6.96556 -9.96022,14.19694 -14.50782,21.62696 -0.72445,1.20769 -1.5771,2.60765 -2.33789,3.90039 -15.79057,26.75135 -27.59808,56.28418 -34.66992,87.12695 -1.35993,5.93496 -2.5597,11.91499 -3.55273,17.93555 -1.6431,10.26288 -2.70123,20.79786 -3.73438,31.21679 -0.81147,8.44715 -1.45128,16.84913 -1.96093,25.34766 -0.46265,7.73074 -0.78646,15.48243 -1.01172,23.25391 -0.32666,12.72413 -0.33628,25.59711 -0.002,38.37504 0.11547,6.3988 0.59318,12.9019 0.52149,19.3593 -0.20796,8.1142 -2.08152,16.4333 -6.5918,23.0313 -4.68551,6.7974 -11.74116,11.2687 -19.14062,13.6914 -5.74025,1.9149 -11.64991,3.1391 -17.4375,4.8633 -19.99893,5.5285 -39.84253,11.7101 -59.54297,18.3808 -9.50163,3.1139 -19.11019,5.8208 -28.63086,8.8653 -57.36376,18.0197 -113.76752,39.6492 -168.82422,64.7656 -16.23505,7.4099 -32.37795,15.1251 -48.35938,23.1406 -31.30142,15.6297 -59.1214,39.6317 -79.7539,69.6485 -6.31733,9.1114 -12.18545,18.5917 -17.54688,28.4003 -0.72564,1.3538 -1.57285,2.8947 -2.31836,4.3399 -3.9724,7.5734 -7.61218,15.3514 -10.91601,23.2949 -0.43247,1.0564 -1.01533,2.4893 -1.43946,3.5371 -6.5217,16.356 -11.53365,33.4335 -14.73828,50.9199 -0.83635,4.5439 -1.54745,9.1343 -2.14062,13.6621 -0.78882,6.1657 -1.37275,12.3082 -1.7207,18.4981 -0.35076,6.1951 -0.50024,12.5768 -0.39063,18.8496 0.0383,2.4876 0.11663,4.8296 0.21094,7.3027 0.0639,1.2249 0.12863,2.7095 0.21289,4.0332 0.30288,5.2508 0.79269,10.6263 1.40039,15.7579 2.96081,24.8194 9.50197,49.254 19.00195,72.1093 8.79449,21.2081 20.10619,41.1592 33.40235,59.3828 0.91529,1.2353 1.95388,2.6607 2.93945,3.9493 11.15135,14.758 23.62186,28.3321 37.13867,40.5332 15.99954,14.4183 33.57809,27.0061 52.18164,37.2148 5.18483,2.8494 10.24587,5.4195 15.58985,7.9141 3.99728,1.8626 7.93342,3.5814 12.01562,5.2363 12.52245,5.0975 25.5282,9.1862 38.67383,12.1719 2.71443,0.6156 5.48959,1.1854 8.19336,1.7109 5.55503,1.0565 11.14051,1.9153 16.74609,2.5859 2.15816,0.243 4.49122,0.4988 6.72266,0.6895 3.93329,0.3534 7.78384,0.5958 11.7539,0.7461 7.68287,0.2902 15.54095,0.2247 23.28711,-0.252 3.90366,-0.2358 7.68418,-0.5674 11.58789,-1.0019 9.54742,-1.056 19.19957,-2.7439 28.64258,-4.9746 5.54813,-1.3145 11.30989,-2.8883 16.76758,-4.6016 6.74721,-2.1025 13.50982,-4.5418 20.02148,-7.1973 13.43435,-5.4826 26.47107,-12.0988 39.00782,-19.6835 2.32999,-1.4195 4.82,-2.9594 7.09375,-4.4356 4.97775,-3.2234 9.75524,-6.4451 14.52343,-10.0195 9.96979,-7.6478 19.39023,-16.0916 29.07618,-24.1485 10.83458,-9.057 21.81321,-17.9076 32.72461,-26.8554 0.009,56.7595 -0.0388,113.5182 0.0566,170.2773 0.30914,14.2742 2.11832,28.6924 5.36718,42.6387 0.71609,3.0653 1.46779,5.9939 2.33594,9.0762 0.98936,3.5114 2.11127,7.1278 3.24805,10.4902 5.08294,14.9138 11.73864,29.2293 20.08008,42.3105 6.75756,10.3482 14.12293,20.2216 21.87109,29.711 19.32221,23.5437 41.4971,44.2996 65.6875,61.7344 9.61968,6.917 19.70865,13.4221 29.98438,19.2832 5.4976,3.187 11.12677,6.0876 16.73437,9.0351 6.63604,3.5726 13.05764,7.5903 19.53514,11.4844 27.4938,16.7839 54.2655,34.9795 80.0742,54.6738 2.3506,1.7976 4.7049,3.5898 6.9512,5.5391 6.9288,5.5595 15.3196,8.8953 23.8965,9.6562 0.412,0.034 1.0108,0.082 1.5039,0.1035 4.9121,0.2913 10.0481,-0.3061 14.6836,-1.6425 1.7054,-0.4844 3.5604,-1.1596 5.0898,-1.8067 5.4314,-2.2743 10.3413,-5.8141 14.7149,-9.9551 10.7119,-9.748 21.8172,-18.9901 33.2851,-27.664 5.8679,-4.4083 11.8031,-8.7192 17.8985,-12.7481 24.5412,-15.4285 50.4707,-28.0502 75.0371,-43.4297 4.9368,-3.0951 9.7525,-6.4107 14.5703,-9.7167 4.0931,-2.5914 8.3936,-4.7713 12.4746,-7.3887 3.3137,-2.0578 6.7568,-4.2963 10.043,-6.5723 15.814,-10.8898 30.4127,-23.8575 43.3808,-38.5293 10.5756,-11.9819 20.133,-25.2461 28.3164,-39.3379 6.0754,-10.4826 11.492,-21.6006 16.0235,-33.0332 7.6328,-19.2059 12.9901,-39.6695 15.6777,-60.4609 0.4335,-3.2811 0.8069,-6.7607 1.125,-10.1406 0.069,-0.8667 0.1695,-1.9315 0.2363,-2.8399 0.1282,-1.5475 0.2149,-3.2023 0.3203,-4.7187 0.4247,-7.4169 0.5886,-14.855 0.3418,-22.2832 -0.1624,-5.2794 -0.39,-10.662 -0.3535,-15.9864 0.04,-20.8506 -4e-4,-41.7001 0.016,-62.5507 v -68.5332 c 17.8253,15.0312 35.6628,30.0469 53.418,45.1757 4.4001,3.643 9.0137,7.1964 13.5527,10.4844 3.2625,2.3427 6.5715,4.622 9.961,6.8399 6.5006,4.2386 13.3313,8.2848 20.2129,11.9296 10.2875,5.4633 21.0228,10.2364 31.9394,14.2305 7.263,2.648 14.6582,4.9712 22.1485,6.9512 5.6099,1.4809 11.2405,2.7658 16.9609,3.8672 9.4248,1.8175 19.1132,3.0986 28.7031,3.8222 7.6616,0.5795 15.2597,0.8035 22.9434,0.6778 4.009,-0.067 7.9299,-0.2092 11.9492,-0.461 9.4363,-0.6035 19.0995,-1.742 28.543,-3.4453 3.9895,-0.7113 8.0008,-1.525 11.8632,-2.4082 12.2908,-2.7971 24.3969,-6.5419 36.2071,-11.1777 16.0655,-6.3168 31.7257,-14.3651 46.4121,-23.9824 3.3256,-2.1711 6.5781,-4.4082 9.8379,-6.7598 3.1728,-2.2832 6.5274,-4.8278 9.6094,-7.2656 7.0934,-5.6018 13.8461,-11.7032 20.5761,-17.7657 22.3116,-20.3153 41.4578,-44.8011 55.916,-72.2734 1.0462,-1.9907 2.1827,-4.2186 3.2227,-6.3301 9.6848,-19.676 16.9707,-40.738 21.6426,-62.4648 0.8375,-3.9397 1.63,-8.0745 2.3066,-12.1211 0.4199,-2.5058 0.8026,-5.0752 1.1543,-7.5488 1.1218,-8.1137 1.9119,-16.4879 2.3086,-24.6758 0.3024,-6.1628 0.3998,-12.3207 0.293,-18.5352 -0.066,-3.9323 -0.2224,-7.9026 -0.4492,-11.7851 -0.6262,-10.3752 -1.8312,-20.9692 -3.6407,-31.3242 -1.4157,-8.1522 -3.2208,-16.3489 -5.3711,-24.379 -1.1111,-4.1215 -2.2648,-8.0844 -3.5605,-12.1543 -10.7265,-33.8331 -28,-65.1767 -50.3027,-91.5019 -6.6145,-7.8235 -13.6704,-15.2061 -21.0879,-22.127 -1.2622,-1.1565 -2.6703,-2.4647 -4.0117,-3.6504 -15.4071,-13.7295 -32.2899,-25.4999 -50.1641,-35.0644 -5.7913,-2.9898 -11.7051,-5.685 -17.5059,-8.6523 -12.59,-6.3075 -25.1317,-12.8585 -38.332,-17.5547 -45.6033,-16.1748 -91.3629,-32.3314 -137.1172,-48.2032 -37.1833,-12.9248 -74.4286,-25.6527 -111.6875,-38.3476 -6.989,-2.4011 -14.165,-4.6205 -20.3945,-8.957 -5.0427,-3.4374 -9.3587,-8.286 -11.8438,-14.209 -2.5519,-5.8468 -3.3921,-12.4299 -3.039,-18.8516 0.1248,-3.2734 0.3642,-6.5788 0.4629,-9.7422 0.4362,-17.68767 -0.1936,-35.37644 -0.3008,-53.06443 -0.1481,-12.12721 -0.042,-24.27653 -1.0274,-36.36915 -0.1138,-1.6798 -0.2751,-3.3489 -0.4218,-5.08984 -0.3222,-3.55539 -0.7263,-7.24076 -1.1563,-10.69531 -3.9727,-31.52399 -12.695,-62.32384 -25.668,-90.84766 -13.6593,-30.14201 -31.9869,-57.75393 -53.8711,-81.48242 -13.664,-14.84286 -28.6979,-28.1849 -44.7695,-39.83594 -0.9233,-0.65367 -2.1174,-1.51095 -3.039,-2.16992 -3.4742,-2.43685 -7.0296,-4.8399 -10.5372,-7.08008 -8.5759,-5.53546 -17.4524,-10.50018 -26.4531,-15.16406 -6.4671,-3.40736 -12.7958,-7.1118 -19.1816,-10.69336 -3.3933,-1.90086 -6.7596,-3.87795 -10.1778,-5.7168 -1.3667,-0.43151 -1.9753,-2.34672 -1.1757,-3.61523 32.6909,-46.09471 247.7762,-117.81553 218.5351,-190.67668 -13.7936,-36.38589 -181.0012,155.53849 -254.1133,188.58879 z m -71.7793,78.50781 c 34.5024,-0.14309 69.0683,8.808 99.6094,26.30469 33.3889,19.11113 62.3707,47.35764 83.1192,81.63672 19.1031,31.44329 31.1631,67.94979 34.5097,105.46679 2.1546,23.71146 0.8066,47.77018 -3.7871,71.06058 -0.4951,2.743 -1.3059,5.5211 -3.0644,7.6347 -3.4689,4.4608 -9.4763,6.4583 -14.6036,4.5645 -41.6483,-10.5349 -83.773,-19.3053 -124.7519,-32.82618 -4.2736,-1.4605 -8.701,-2.8942 -12.9395,-4.14844 -11.1374,-3.26569 -22.6127,-5.53777 -34.1328,-6.87109 -9.5783,-1.09075 -19.0555,-1.52682 -28.6894,-1.28321 -7.6109,0.18794 -15.3757,0.82108 -22.9981,1.87305 -11.2033,1.54327 -22.4205,3.98515 -33.3359,7.44922 -7.4025,2.35572 -14.7782,4.81575 -22.2422,6.93555 -33.423,9.8302 -67.34959,17.4129 -101.08399,25.8418 -3.90212,0.9524 -7.82444,2.0475 -11.76953,2.873 -6.54055,1.2286 -13.39784,-3.9674 -14.80078,-10.9746 -1.78197,-9.1669 -3.15466,-18.43336 -3.93164,-27.76755 -2.60256,-30.29935 0.32909,-61.16092 8.70312,-90.20703 10.16987,-35.59526 28.2728,-68.44441 52.19922,-95.13867 15.67226,-17.53457 33.6935,-32.62729 53.416,-44.40234 29.0434,-17.22456 61.8623,-26.81558 94.9297,-27.89063 1.8807,-0.0712 3.7629,-0.0907 5.6445,-0.13086 z m 122.0508,365.43168 c 3.1215,0.1271 6.0714,1.4077 9.0977,2.125 28.3135,7.9777 56.8093,15.1739 85.0488,23.455 11.7008,3.4739 23.4003,7.2017 34.9336,11.1524 98.4947,32.7003 196.9605,65.5093 295.043,99.6348 10.3643,3.6142 20.7403,7.1855 31.0586,10.9511 24.8157,9.4434 48.006,24.0588 67.6191,43.1113 4.0671,4.0244 7.7643,8.4689 11.3516,12.9922 17.1289,21.8132 29.4843,48.1118 35.2129,76.1309 6.8084,32.8011 4.668,67.7398 -6.1778,99.2402 -9.5949,28.1042 -25.907,53.4173 -46.7773,73.0039 -6.8086,6.428 -13.8451,12.5669 -20.7305,18.8965 -2.5104,2.2781 -5.0196,4.555 -7.5293,6.834 v -4.6855 c -25.1198,17.1279 -54.3068,27.0507 -83.9043,28.8261 -35.6865,2.2099 -72.0353,-7.2764 -102.5566,-27.5937 -15.4609,-10.2111 -29.4552,-23.082 -41.0684,-38.1699 -50.5404,-64.9186 -98.6111,-113.2643 -137.3742,-174.7461 -43.6724,-68.9179 -77.284,-150.7672 -119.7449,-220.5684 -5.02,-8.4264 -8.4826,-17.7749 -12.166,-26.9375 -1.6149,-4.788 0.619,-10.7754 5.0253,-12.709 1.1465,-0.5493 2.3812,-0.9139 3.6387,-0.9433 z m -120.5781,3.8769 c 0.5255,0.8899 1.0527,1.7799 1.5781,2.6699 25.6806,43.5186 51.3576,87.0391 77.0371,130.5586 -59.3482,94.8369 -110.2505,68.5907 -158.1992,0 26.5279,-44.4099 53.057,-88.8181 79.584,-133.2285 z m -142.49805,7.7813 h 40.81055 c -12.9466,21.2704 -25.5286,42.7985 -38.03712,64.375 -106.12813,153.3095 -180.37547,354.7897 -312.46875,417.2109 -34.77052,13.6686 -73.47268,15.3226 -109.08203,4.4395 -31.93143,-9.6318 -61.53284,-28.8163 -83.83008,-55.5391 -19.83672,-23.6411 -33.82507,-53.0368 -39.98242,-84.3281 -5.46269,-27.5298 -4.84977,-56.4813 1.9668,-83.6641 4.81473,-19.3552 12.74321,-37.7654 23.1875,-54.2871 5.44656,-8.6282 11.52871,-16.8088 18.36719,-24.1836 15.06709,-15.779 33.38991,-27.7222 53.04297,-35.4375 5.22283,-2.0335 10.47189,-3.9865 15.6914,-6.0312 65.17166,-25.1992 130.05314,-51.3857 196.10547,-73.7774 15.39333,-5.2162 30.87991,-10.0958 46.35156,-15.0293 60.22302,-20.1373 121.59501,-35.8475 182.60938,-52.8027 1.72643,-0.4776 3.48061,-0.8895 5.26758,-0.9453 z m -18.11328,298.916 c 102.84783,-57.1945 210.54613,-44.4499 320.48243,0.7422 17.1575,0.418 34.0322,9.8111 44.041,25.0175 5.5903,8.4818 9.3122,18.602 9.7637,29.0821 v 103.5586 c -130.2453,44.9262 -270.8891,52.388 -428.14456,0 v -107.5235 c 1.85943,-17.6627 11.96032,-33.9413 26.16016,-42.707 8.36758,-5.2813 18.0221,-8.1168 27.69727,-8.1699 z m -44.94532,333.2324 c 160.59775,-93.5373 294.80435,-49.8861 427.80665,0.016 -5.223,18.8688 -10.4511,37.8389 -18.2109,55.7012 -2.9399,6.8369 -5.8741,13.7222 -9.6661,20.0625 -21.5182,33.652 -51.1024,61.0792 -84.8886,79.2383 -5.7187,3.0386 -11.4603,6.0355 -17.0157,9.418 -25.9152,15.1242 -51.1977,31.4943 -77.1699,46.5019 -5.4698,2.9981 -11.7146,4.3773 -17.8222,3.6543 -5.4763,-0.575 -10.7175,-2.7655 -15.42,-5.8125 -33.5768,-19.1833 -66.5087,-39.6577 -99.8183,-59.3789 -29.57782,-16.0889 -55.64886,-39.8562 -75.03713,-69.002 -2.12275,-2.9914 -3.71395,-6.5533 -5.25391,-9.9902 -5.66502,-12.2791 -10.81154,-24.8345 -15.51758,-37.582 -1.73533,-4.7041 -3.44876,-9.4229 -5.06836,-14.1739 -1.87797,-6.7121 1.40946,-14.7324 7.45117,-17.3925 1.76934,-0.8467 3.7016,-1.2434 5.63086,-1.2598 z" />
  <path
     id="path4"
     style="color:#000000;font-style:normal;font-variant:normal;font-weight:normal;font-stretch:normal;font-size:medium;line-height:normal;font-family:sans-serif;font-variant-ligatures:normal;font-variant-position:normal;font-variant-caps:normal;font-variant-numeric:normal;font-variant-alternates:normal;font-variant-east-asian:normal;font-feature-settings:normal;font-variation-settings:normal;text-indent:0;text-align:start;text-decoration:none;text-decoration-line:none;text-decoration-style:solid;text-decoration-color:#000000;letter-spacing:normal;word-spacing:normal;text-transform:none;writing-mode:lr-tb;direction:ltr;text-orientation:mixed;dominant-baseline:auto;baseline-shift:baseline;text-anchor:start;white-space:normal;shape-padding:0;shape-margin:0;inline-size:0;clip-rule:nonzero;display:inline;overflow:visible;visibility:visible;opacity:1;isolation:auto;mix-blend-mode:normal;color-interpolation:sRGB;color-interpolation-filters:linearRGB;solid-color:#000000;solid-opacity:1;vector-effect:none;fill:none;fill-opacity:1;fill-rule:nonzero;stroke:none;stroke-width:48.4584;stroke-linecap:butt;stroke-linejoin:miter;stroke-miterlimit:4;stroke-dasharray:none;stroke-dashoffset:0;stroke-opacity:1;color-rendering:auto;image-rendering:auto;shape-rendering:auto;text-rendering:auto;enable-background:accumulate;stop-color:#000000;stop-opacity:1"
     d="M 365.5293 348.6582 C 365.5193 349.31445 365.5098 349.9707 365.5 350.62695 L 365.49805 350.62695 C 365.01591 379.97189 363.91963 409.36278 364.88086 438.72266 C 364.99637 442.44734 365.1837 446.31572 365.42969 450.00195 C 365.75744 455.5644 366.51532 461.13227 366.05078 466.71094 C 364.95501 480.07973 359.61774 492.98489 351.2793 503.45898 C 344.7018 511.76992 336.35057 518.5668 327.20898 523.87891 C 323.66185 526.01721 319.89279 527.75158 316.35547 529.90625 C 277.24939 552.78166 241.43815 581.63658 212.10938 616.25586 C 205.67306 623.8528 199.40165 631.94303 193.64258 640.11328 C 183.35131 654.68816 174.27199 670.11765 166.5625 686.20898 C 162.81865 693.88917 159.26864 701.73426 155.98242 709.55859 C 145.77755 733.8547 137.68518 759.04389 131.93555 784.76367 C 130.62173 790.71494 129.37156 796.86095 128.30078 802.92969 C 124.68707 823.23239 122.51751 843.95601 121.91992 864.63477 C 121.74711 870.70995 121.70608 876.98596 121.79883 883.14062 C 121.97863 894.80607 122.09358 906.47173 122.04492 918.13867 C 122.05872 1180.7203 122.06885 1443.3012 122.09375 1705.8828 C 122.24087 1714.2541 122.52322 1722.549 122.97266 1730.9238 C 123.30504 1737.1843 123.73257 1743.5971 124.24414 1749.8438 C 124.73101 1755.9413 125.32393 1762.1121 125.9707 1768.1426 C 127.31883 1780.5744 129.05502 1792.9352 130.86328 1805.3047 C 134.35561 1828.7475 140.69246 1851.7404 149.38086 1873.7832 C 156.03719 1890.6389 164.16245 1907.0991 173.47656 1922.7227 C 175.58388 1926.2786 177.79648 1929.8553 180.06641 1933.3848 C 181.38884 1935.4595 182.6911 1937.4087 184.0625 1939.4785 C 187.44939 1944.5158 191.05889 1949.6352 194.73438 1954.5586 C 196.45875 1956.8719 198.14758 1959.0959 199.94141 1961.3906 C 211.29527 1975.9491 223.80411 1989.8122 237.08594 2002.7324 C 260.66314 2025.6486 286.98607 2045.9312 314.92969 2063.3633 C 332.40992 2074.2654 350.63255 2084.1828 369.35156 2092.8867 C 384.47937 2099.9185 399.71764 2106.4613 415.17188 2112.6973 C 461.46251 2131.3392 509.12744 2146.4819 557.63867 2158.2441 C 586.03761 2165.132 614.78176 2170.8725 643.69531 2175.457 C 668.48244 2179.3895 693.40478 2182.4728 718.43945 2184.7305 C 733.6106 2186.0722 748.7592 2187.6568 763.91602 2189.1504 C 792.45411 2191.9066 821.03238 2194.403 849.60156 2196.9492 C 857.49242 2197.6277 865.37987 2198.3799 873.27734 2198.9629 C 882.6893 2199.2076 892.10405 2198.9801 901.51758 2199.0723 L 1394.6309 2199.0723 C 1411.3328 2196.3268 1428.2223 2194.8216 1445.1348 2194.2402 C 1456.368 2193.7708 1467.6476 2193.0807 1478.8418 2192.334 C 1502.9129 2190.6723 1526.9434 2188.4266 1550.9043 2185.5879 C 1565.4156 2183.8507 1580.0522 2181.9065 1594.5059 2179.7285 C 1619.7653 2175.9523 1644.9204 2171.479 1669.9395 2166.3477 C 1704.7184 2159.1966 1739.3309 2150.707 1773.5 2140.9023 C 1784.4615 2137.7317 1795.4408 2134.4884 1806.3242 2130.9785 C 1823.8835 2125.2391 1841.0866 2118.7969 1858.2051 2111.8691 C 1869.6527 2107.2247 1881.1441 2102.2216 1892.3711 2096.9844 C 1907.1375 2090.1006 1921.7294 2082.651 1935.8867 2074.6875 C 1948.5178 2067.5754 1960.8939 2060.0069 1972.9355 2051.9355 C 1976.4976 2049.5489 1980.1346 2047.0396 1983.6797 2044.5391 C 2017.0153 2020.9465 2047.6312 1992.9776 2072.5938 1960.5039 C 2082.2609 1947.943 2090.9768 1934.8587 2098.8086 1921.0723 C 2107.8716 1905.1165 2115.6303 1888.2713 2121.8672 1870.9609 C 2125.3311 1861.3626 2128.3802 1851.5139 2130.9551 1841.582 C 2133.0066 1833.7078 2134.8104 1825.5333 2136.2832 1817.5293 C 2137.5263 1810.8135 2138.5588 1803.9632 2139.416 1797.248 C 2140.5565 1788.208 2141.3517 1779.0886 2141.834 1769.9668 C 2141.9883 1766.9715 2142.1226 1763.7578 2142.2109 1760.7598 C 2143.209 1717.5073 2143.9013 1674.2479 2144.5098 1630.9883 C 2147.0561 1442.5109 2146.5256 1254.0053 2144.7695 1065.5234 C 2144.1825 1000.6439 2143.4128 935.76664 2142.6836 870.88867 C 2142.5179 857.17235 2142.4341 843.45441 2142.2695 829.73828 C 2142.0554 819.63296 2141.2502 809.34239 2139.8848 799.24414 C 2139.3467 795.2093 2138.729 791.28485 2138.0098 787.25195 C 2134.4478 767.27878 2128.6764 747.50274 2120.9707 728.65039 C 2103.983 686.89049 2077.7031 649.23116 2045.9453 617.36523 C 2042.8717 614.27965 2039.6426 611.14423 2036.4785 608.16992 C 2032.0244 603.99369 2027.4876 599.92102 2022.8848 595.97266 C 2013.5766 587.99543 2003.925 580.42478 1993.9336 573.26172 C 1984.0389 566.14982 1973.7303 559.39165 1963.248 553.07812 C 1955.3308 548.26712 1946.9225 544.28271 1939.2734 539.0293 C 1924.3471 528.99921 1911.241 516.08012 1901.6719 500.81055 C 1893.644 487.99485 1888.2501 473.48647 1886.3574 458.46289 C 1885.1287 449.16898 1885.3299 439.68543 1886.8008 430.44531 C 1887.4362 426.08353 1887.1222 421.66678 1887.1973 417.27734 C 1887.1973 394.40417 1887.209 371.53138 1887.209 348.6582 L 365.5293 348.6582 z M 1800.0176 406.57227 L 1800.0176 408.57422 L 1800.0176 529.36523 C 1801.0031 529.08323 1800.4462 529.97125 1800.334 530.52148 C 1799.7889 532.21237 1799.3469 534.02482 1799.8418 535.78711 C 1800.3576 538.19496 1801.9507 540.19488 1803.8242 541.7207 C 1807.8262 545.11042 1813.0233 546.41348 1817.7715 548.38477 C 1861.7459 565.78427 1903.2993 589.69424 1939.4707 620.24805 C 1968.3473 644.65007 1993.6952 673.40021 2013.2988 705.77539 C 2018.6473 714.51944 2023.364 723.63688 2027.5391 732.99609 C 2031.5896 742.08854 2035.3336 751.32187 2038.707 760.6875 C 2050.7622 794.3872 2057.7253 829.93682 2058.8984 865.7207 C 2059.1957 875.65843 2058.9903 885.60253 2058.9883 895.54297 C 2058.9463 914.05513 2058.9887 932.56783 2058.9727 951.08008 L 2058.9727 1707.4199 C 2061.233 1748.3936 2055.5136 1789.7623 2042.4082 1828.6406 C 2028.3903 1870.3318 2006.1909 1909.0903 1978.3965 1943.1113 C 1974.0657 1948.5858 1969.2454 1953.6503 1964.1934 1958.4609 C 1953.6506 1968.6486 1942.6862 1978.4054 1931.2598 1987.5938 C 1888.7334 2021.8791 1840.5678 2048.9063 1789.7852 2068.8887 C 1756.4253 2082.0326 1721.8811 2092.1311 1686.7598 2099.3223 C 1673.6699 2101.9893 1660.5668 2104.6004 1647.4629 2107.1953 C 1611.3625 2114.2438 1575.0162 2120.0363 1538.5273 2124.6602 C 1458.0694 2134.8381 1376.8802 2139.142 1295.793 2137.7969 C 1282.4635 2137.6663 1269.1327 2137.6907 1255.8027 2137.6211 C 1151.7386 2137.2661 1047.6667 2137.0473 943.62109 2134.8516 C 903.66259 2134.0259 863.71379 2132.8655 823.77344 2131.4238 C 800.96307 2130.6288 778.13297 2130.0454 755.36914 2128.3184 C 686.22508 2123.2467 617.57396 2111.1235 551.00195 2091.7148 C 516.92236 2081.7856 483.39985 2069.938 450.67969 2056.1738 C 429.1409 2047.1184 407.92774 2037.1807 387.75977 2025.3477 C 353.07816 2005.0908 321.05855 1980.075 293.86523 1950.4648 C 265.9375 1920.0263 243.2009 1884.5941 228.6543 1845.8574 C 220.21236 1823.445 214.66463 1799.9651 211.97852 1776.1719 C 210.64784 1765.2496 209.42354 1754.3127 208.59961 1743.3398 C 207.53117 1729.6052 207.10816 1715.8287 207.04688 1702.0547 C 206.96138 1687.6716 207.07684 1673.2875 207.02344 1658.9043 C 207.01264 1403.3479 207.00924 1147.7927 206.99414 892.23633 C 205.70645 849.9423 211.19206 807.46145 223.07617 766.85547 C 227.12797 753.1116 231.82031 739.55158 237.21094 726.27539 C 241.85216 714.90289 247.27725 703.8491 253.50781 693.26172 C 267.08612 669.9392 283.77728 648.47534 302.73633 629.28516 C 336.16006 595.41297 376.32472 568.54919 419.47461 548.68359 C 426.88204 545.27854 434.36728 542.0429 441.95703 539.06445 C 445.39246 537.65846 449.09345 536.13544 451.26562 532.95117 C 452.27807 531.56355 452.71461 529.81307 452.4668 528.11328 C 452.31003 525.75796 452.18226 523.39912 452.29102 521.03906 L 452.29102 407.46484 C 901.5332 407.16584 1350.7754 406.87126 1800.0176 406.57227 z " />
  <path
     style="color:#000000;font-style:normal;font-variant:normal;font-weight:normal;font-stretch:normal;font-size:medium;line-height:normal;font-family:sans-serif;font-variant-ligatures:normal;font-variant-position:normal;font-variant-caps:normal;font-variant-numeric:normal;font-variant-alternates:normal;font-variant-east-asian:normal;font-feature-settings:normal;font-variation-settings:normal;text-indent:0;text-align:start;text-decoration:none;text-decoration-line:none;text-decoration-style:solid;text-decoration-color:#000000;letter-spacing:normal;word-spacing:normal;text-transform:none;writing-mode:lr-tb;direction:ltr;text-orientation:mixed;dominant-baseline:auto;baseline-shift:baseline;text-anchor:start;white-space:normal;shape-padding:0;shape-margin:0;inline-size:0;clip-rule:nonzero;display:inline;overflow:visible;visibility:visible;opacity:1;isolation:auto;mix-blend-mode:normal;color-interpolation:sRGB;color-interpolation-filters:linearRGB;solid-color:#000000;solid-opacity:1;vector-effect:none;fill:none;fill-opacity:1;fill-rule:nonzero;stroke:none;stroke-width:51.097;stroke-linecap:butt;stroke-linejoin:miter;stroke-miterlimit:4;stroke-dasharray:none;stroke-dashoffset:0;stroke-opacity:1;color-rendering:auto;image-rendering:auto;shape-rendering:auto;text-rendering:auto;enable-background:accumulate;stop-color:#000000;stop-opacity:1"
     d="m 1133.1493,43.472441 h 722.6538 c 71.1706,0 100.1862,25.753152 100.7336,87.751109 v 85.36672 c 0.611,38.53673 -34.6019,70.2766 -78.8349,71.05942 -8.02,0.48113 -16.0684,0.48113 -24.0886,0 H 413.23289 c -11.8368,0.94794 -23.74841,0.94794 -35.58522,0 -37.01674,-4.23534 -64.93155,-31.38945 -65.69581,-63.90575 V 122.16235 C 306.21422,76.467948 351.0365,38.123808 403.37853,43.949411 h 729.77077 z"
     id="path6" />
</svg>
