<?xml version="1.0" encoding="UTF-8" standalone="no"?>
<svg
   xmlns:dc="http://purl.org/dc/elements/1.1/"
   xmlns:cc="http://creativecommons.org/ns#"
   xmlns:rdf="http://www.w3.org/1999/02/22-rdf-syntax-ns#"
   xmlns:svg="http://www.w3.org/2000/svg"
   xmlns="http://www.w3.org/2000/svg"
   version="1.1"
   id="svg8"
   x="0px"
   y="0px"
   viewBox="0 0 2267.7 2267.7"
   style="enable-background:new 0 0 2267.7 2267.7;"
   xml:space="preserve"><metadata
   id="metadata10"><rdf:RDF><cc:Work
       rdf:about=""><dc:format>image/svg+xml</dc:format><dc:type
         rdf:resource="http://purl.org/dc/dcmitype/StillImage" /><dc:title></dc:title></cc:Work></rdf:RDF></metadata><defs
   id="defs8" />
<style
   type="text/css"
   id="style2">
	.st0{fill:none;stroke:#000000;stroke-width:0.2646;}
</style>

<path
   class="st0"
   d="m 829.76698,1270.4272 h 164.3345 l -445.578,856.6898 -443.92359,-856.6898 h 161.85289 l 2.4816,4.963 c 17.0951,32.8118 36.1204,69.7595 57.3516,110.2916 24.5398,46.5982 48.804,94.2993 73.0681,142.2761 24.2642,47.7012 48.5284,94.8508 72.241,139.5189 22.3341,42.1865 41.6351,79.4099 57.3516,110.5673 l 38.0507,0.2757 c 19.8524,-38.0505 42.1865,-81.6157 67.5535,-130.144 26.47,-51.0099 52.6642,-101.4683 78.307,-151.6509 25.6428,-50.1827 49.6313,-96.7809 71.1381,-139.5189 16.8195,-33.0874 31.1574,-60.6604 42.738,-81.6158 z m 371.68272,880.4025 H 1343.45 v -876.5424 h -142.0003 z m 2294.3405,-439.2362 v 439.2362 h -437.3061 c -59.5575,0 -116.6333,-11.5807 -169.849,-34.1904 -53.2157,-22.6098 -100.6411,-54.5944 -140.6218,-94.8508 -40.2564,-40.2564 -72.241,-87.4061 -94.8508,-140.6218 -22.6097,-52.9399 -34.1903,-110.0158 -34.1903,-169.849 0,-60.9361 11.5806,-118.2877 34.1903,-170.6762 22.6098,-52.3885 54.3186,-98.9867 94.5751,-138.6917 40.2564,-39.4292 87.406,-71.138 140.8975,-93.7478 53.2157,-22.6098 110.2915,-34.1904 169.849,-34.1904 60.9361,0 118.2877,11.5806 170.6762,34.1904 52.3885,22.6098 99.2624,54.3186 138.6917,93.7478 39.4293,39.4293 71.1381,86.3032 93.7479,138.6917 22.8854,52.6643 34.1903,110.0159 34.1903,170.952 z m -143.9305,0 c 0,-40.2565 -7.7204,-78.5828 -22.8855,-114.1519 -15.165,-35.2932 -36.1205,-66.4506 -62.8662,-93.1963 -26.7457,-26.7457 -58.1788,-47.7011 -93.1964,-62.8662 -71.138,-30.3302 -156.614,-30.6059 -229.1308,0 -35.8447,15.1651 -67.5535,36.3962 -94.2993,62.8662 -26.4699,26.7457 -47.7011,57.9031 -62.8661,93.1963 -15.1651,35.2933 -22.8856,73.8954 -22.8856,114.1519 0,40.2563 7.7205,78.8584 22.8856,114.9789 15.165,36.1205 36.3962,67.8293 62.8661,94.2993 26.7458,26.7457 58.4546,47.9769 94.2993,62.8662 36.1205,15.1651 74.7226,22.8855 114.979,22.8855 h 270.7659 l 22.334,-22.3341 z M 2406.3851,499.21325 c -82.1672,0 -106.9828,12.68353 -113.876,18.19811 -4.4117,3.58447 -12.6836,13.51072 -17.0952,41.63507 l 0.2757,340.24952 c 3.5845,17.92238 9.9263,30.33019 19.301,36.94768 9.6505,6.61749 37.2234,17.64665 115.2547,18.47384 h 9.3748 V 508.58803 l -1.6544,-9.09905 z m 12.1321,595.57445 1.3787,9.3749 v 607.4309 c 0,59.5574 -11.5807,116.6333 -34.1904,169.849 -22.6098,53.2156 -54.3186,100.641 -93.7479,140.6217 -39.4292,40.2565 -86.5789,71.9653 -139.5188,94.5751 -52.94,22.6097 -110.2916,34.1904 -169.8491,34.1904 -59.5574,0 -116.6333,-11.5807 -169.849,-34.1904 -53.2157,-22.6098 -100.6411,-54.5944 -140.6218,-94.8508 -40.2564,-40.2564 -71.9652,-87.4061 -94.8507,-140.6218 -22.6098,-52.9399 -34.1904,-110.0158 -34.1904,-169.849 0,-60.9361 11.5806,-118.2877 34.1904,-170.6762 22.6098,-52.3885 54.5943,-98.9867 94.575,-138.6917 40.2564,-39.4292 87.4061,-71.138 140.8975,-93.7478 52.94,-22.6098 110.2916,-34.1904 169.849,-34.1904 h 270.7659 l 22.334,-22.3341 v -164.0587 l 10.4777,1.6544 c 11.0292,1.6544 19.8525,2.7573 27.8486,3.0331 22.3341,1.3786 52.94,2.2058 93.7479,2.2058 v 9.099 l 1.1029,-9.099 z m -550.9064,346.5914 c -35.8448,15.1651 -67.5536,36.3962 -94.2993,62.8662 -26.47,26.7457 -47.7011,57.9031 -62.8662,93.1963 -15.1651,35.2933 -22.8855,73.8954 -22.8855,114.1519 0,40.2563 7.7204,78.8584 22.8855,114.9789 15.1651,36.1205 36.3962,67.8293 62.8662,94.2993 26.7457,26.7457 58.4545,47.9769 94.2993,62.8662 72.241,30.3302 157.9927,30.3302 229.1307,0 35.2933,-15.1651 66.7264,-36.3962 93.1964,-62.8662 26.7457,-26.7457 47.7011,-58.4545 62.8662,-94.2993 15.1651,-36.1205 22.8855,-74.7226 22.8855,-114.9789 v -270.7659 l -22.334,-22.3341 h -270.7659 c -40.2564,0 -79.1342,7.7205 -114.9789,22.8856 z M 4596.7759,688.36331 c -33.0874,106.7071 -49.0797,208.45108 -53.7672,294.75424 -122.1479,-83.27014 -221.1346,-131.24698 -309.9193,-157.71696 19.5768,44.66809 32.8118,90.99055 40.2565,138.96739 81.6157,34.74185 175.3635,90.99062 293.3756,180.60252 18.4738,14.0621 43.2894,15.9923 63.6933,4.6874 20.4039,-11.0292 32.2604,-33.0875 30.3302,-55.973 -0.8272,-10.4777 -9.0991,-132.62566 27.8486,-293.65137 -14.0621,-20.9554 -45.2195,-64.24485 -91.8177,-111.67022 z m 457.9858,-558.90258 c -12.1321,-9.65051 -27.0214,-13.51072 -41.6351,-12.4078 -14.0621,-0.82719 -28.4,3.03302 -40.2565,12.4078 -153.3052,121.32073 -255.8763,269.11145 -322.327,416.35071 35.0175,30.60592 64.7963,61.21183 89.3361,88.78473 51.8371,-130.14407 136.4858,-268.28427 273.7988,-386.84772 132.0742,113.87605 215.3444,245.95022 267.7328,371.68262 24.54,-27.5729 54.3186,-57.90308 89.0605,-87.6818 -66.4507,-142.8276 -167.3675,-284.82801 -315.7096,-402.28854 z m 429.8614,853.65682 c -4.9631,-89.88764 -22.0583,-196.59473 -57.903,-308.26496 -43.5652,42.73798 -74.4469,82.99441 -91.8178,107.25856 41.635,169.84903 32.8117,300.82025 31.9845,311.57375 -1.6543,23.1612 10.2021,44.9438 30.3302,55.973 20.404,11.0291 45.2196,9.3747 63.6934,-4.6874 111.3945,-84.3731 201.0064,-139.5189 279.3134,-174.53648 6.0661,-48.25257 18.4739,-94.85076 36.9477,-139.79458 -84.373,27.57289 -178.3966,74.44682 -292.5484,152.47811 z M 5263.7642,840.84142 c -2.2058,0.27572 -4.6874,0.55145 -6.8932,0.55145 -12.9593,0 -25.6428,-3.58447 -36.6719,-10.20196 -16.2681,-9.92625 -27.2972,-25.09134 -31.9846,-42.18654 -62.3147,79.9614 -118.2877,173.70924 -167.6432,279.31343 -15.9923,-74.44682 -22.6098,-150.82373 -23.437,-223.61618 1.3786,-3.58448 2.4816,-7.72041 2.2058,-11.85634 -0.2756,-7.16895 -0.8272,-15.16509 -2.2058,-23.98842 0.5515,-31.43311 1.6544,-61.76329 3.8602,-90.71483 1.103,-1.37865 2.2059,-2.48156 2.7573,-4.13593 26.47,-50.73413 93.1964,-94.57503 118.2878,-110.84304 13.5107,-8.82333 26.1942,-17.37092 23.9884,-36.12049 -1.3786,-11.02916 -9.3748,-20.67967 -19.8525,-24.26414 -11.0292,-3.58449 -22.6098,-0.55147 -30.0545,7.16895 -1.3786,1.10291 -3.5844,2.20582 -6.066,4.13593 -16.268,10.75343 -47.9768,31.70883 -78.307,59.28172 13.5107,-100.36534 31.1574,-167.6432 31.4331,-169.02184 4.1359,-15.71655 -4.9631,-31.70883 -20.6797,-36.1205 -15.7166,-4.13593 -31.7088,4.96313 -36.1205,20.67968 -2.2059,8.82332 -33.0875,124.62948 -44.6681,281.24352 -11.3048,-9.65051 -25.0913,-18.47384 -41.0836,-26.19425 -7.1689,-4.96312 -16.5437,-6.34177 -25.6428,-3.30875 -11.5806,3.86021 -19.5768,14.33791 -20.1282,26.19426 -0.5514,9.37478 2.7573,22.05832 20.6796,30.33018 34.1904,15.71655 54.8702,40.80788 61.7634,74.44682 -0.5515,53.49141 1.6543,109.74011 8.2719,166.54028 -36.672,-67.00213 -76.377,-127.93823 -118.8393,-182.53256 -4.6874,17.09519 -15.7165,32.26028 -31.9845,42.18653 -11.3049,6.61749 -23.9885,10.20197 -36.9477,10.20197 -2.2059,0 -4.6874,-0.27573 -6.8932,-0.55146 72.241,91.81774 136.2101,204.03949 190.2529,334.45919 0.2758,1.6544 0.8272,3.3088 1.3787,5.2389 1.6543,5.5146 9.6505,32.8117 20.1282,51.837 0.2758,0.5515 0.2758,1.3786 0.5515,1.9302 1.3786,3.033 3.033,5.7902 4.9631,8.2718 10.4777,19.8524 35.0176,30.0545 56.5245,22.0583 11.5805,-4.4117 20.6796,-12.6836 25.6428,-23.9884 3.5844,-7.9961 4.6873,-16.5438 3.5844,-25.0913 58.7303,-150.5481 129.0412,-278.76202 209.8297,-381.33318 z m 1065.141,924.24348 c -5.7903,-34.7419 -38.0507,-59.2818 -74.4468,-53.4914 l -1237.4716,203.2121 -1212.9316,-208.451 c -3.5845,-0.5515 -7.4447,-0.8272 -11.0292,-0.8272 -31.4331,0 -58.1788,22.6098 -63.6933,53.7672 -3.0331,17.0952 0.8272,34.1903 11.0291,48.2526 9.9262,14.0621 24.8156,23.4369 41.9108,26.4699 l 1137.1061,195.4918 -0.5514,11.3049 c 0,1.1029 -0.2758,2.4816 -0.2758,3.5845 0,55.1458 44.3925,99.8138 99.2625,99.8138 54.8701,0 99.2624,-44.668 99.2624,-99.2624 l -0.5514,-3.3087 -0.5515,-11.5806 1159.4403,-190.5288 c 35.2932,-5.7902 59.2816,-39.1535 53.4914,-74.4467 z M 4578.8536,1562.6998 c -33.3633,-16.268 -68.3809,-31.9845 -104.777,-47.1496 35.2932,29.503 59.0059,44.1166 62.3147,45.771 12.6835,7.7204 28.9515,7.7204 42.4623,1.3786 z m 20.1281,-18.7496 c 11.8564,-21.5068 4.6874,-48.804 -16.5437,-61.4875 -2.2058,-1.3787 -204.8666,-127.1111 -316.2611,-439.2362 -8.2719,12.1321 -19.8525,22.0583 -34.4661,27.2972 -7.9962,3.033 -16.5437,4.4116 -24.8156,4.4116 -10.202,0 -19.8525,-2.2058 -28.6758,-6.3418 67.5535,192.7346 166.2645,320.6728 242.9172,397.6012 63.6933,24.5399 122.9751,50.7341 177.8451,77.7555 z M 6271.8293,841.39287 c -9.9263,-14.33791 -25.6428,-23.43696 -43.0137,-25.09133 -18.4739,-1.65437 -36.3963,-3.58448 -53.7672,-5.23886 -76.1012,-7.7204 -145.5849,-14.3379 -216.723,-11.02915 -33.3632,47.42538 -51.837,90.16336 -62.3147,124.62949 82.7187,-13.51072 159.9228,-7.16895 250.6376,1.65437 -82.9944,250.36191 -229.1308,417.17791 -429.5857,493.55481 97.8838,-31.4331 204.5909,-57.6273 320.1214,-75.274 109.4643,-113.8761 191.9073,-266.6299 242.9172,-454.40131 4.4116,-16.81946 1.3786,-34.74184 -8.2719,-48.80402 z m -853.6569,699.24863 c 53.7672,-27.2971 111.946,-53.7671 174.5365,-78.5827 76.9284,-76.6527 176.1907,-204.8667 244.5716,-399.5313 -8.8234,3.8602 -18.7497,6.3418 -28.6758,6.3418 -8.2719,0 -16.8195,-1.3786 -24.8157,-4.4117 -14.6136,-5.5146 -26.4699,-15.4408 -34.4661,-27.5729 -112.4974,315.4339 -314.331,438.1333 -316.5368,439.2362 -21.5069,12.6835 -28.9516,40.8079 -16.2681,62.5905 0.5516,0.5514 1.103,1.1029 1.6544,1.9301 z m 770.111,-138.6917 c -2.7573,-26.47 -24.8156,-46.3224 -51.2856,-46.3224 -1.9301,0 -3.8602,0 -5.7903,0.2757 -621.493,67.2778 -1008.3407,389.605 -1119.4595,494.9334 -129.0412,-117.4605 -509.2714,-416.3507 -1104.0188,-480.5955 -1.93,-0.2757 -3.8602,-0.2757 -5.7902,-0.2757 -25.9186,0 -48.5284,20.404 -51.5614,46.3224 -3.033,28.4002 17.6467,54.0429 46.0467,57.076 466.8092,50.4584 799.3383,258.9094 966.1543,388.7777 l 154.1325,26.47 29.503,-4.9631 v 0 l 105.8799,-17.3709 c 156.8898,-127.3868 497.6907,-354.036 990.1426,-407.2516 13.7865,-1.3788 26.1943,-8.2719 34.7419,-19.0254 8.8234,-10.7534 12.6835,-24.2641 11.3049,-38.0506 z M 3739.2589,890.19689 c 51.0098,187.77141 133.4528,340.52521 242.9172,454.40131 115.5304,17.6467 222.2375,43.8409 320.1213,75.274 -200.455,-76.6526 -346.5913,-243.1929 -429.5857,-493.55481 90.7148,-9.09906 167.9189,-15.44083 250.6376,-1.65437 -10.202,-34.46613 -28.6758,-77.47984 -62.3148,-124.62949 -71.4137,-3.30875 -140.6217,3.58448 -216.7229,11.02915 -17.6466,1.65438 -35.569,3.58449 -53.7671,5.23886 -17.3709,1.65437 -33.0875,10.75342 -43.0137,25.09133 -9.6506,14.06218 -12.9593,31.98456 -8.2719,48.80402 z"
   id="path5"
   style="fill:none" />
</svg>
