<?xml version="1.0" encoding="utf-8"?>
<!-- Generator: Adobe Illustrator 22.1.0, SVG Export Plug-In . SVG Version: 6.00 Build 0)  -->
<svg version="1.1"
	 id="svg8" inkscape:version="0.92.4 (5da689c313, 2019-01-14)" sodipodi:docname="vida.svg" xmlns:cc="http://creativecommons.org/ns#" xmlns:dc="http://purl.org/dc/elements/1.1/" xmlns:inkscape="http://www.inkscape.org/namespaces/inkscape" xmlns:rdf="http://www.w3.org/1999/02/22-rdf-syntax-ns#" xmlns:sodipodi="http://sodipodi.sourceforge.net/DTD/sodipodi-0.dtd" xmlns:svg="http://www.w3.org/2000/svg"
	 xmlns="http://www.w3.org/2000/svg" xmlns:xlink="http://www.w3.org/1999/xlink" x="0px" y="0px" viewBox="0 0 2267.7 2267.7"
	 style="enable-background:new 0 0 2267.7 2267.7;" xml:space="preserve">
<style type="text/css">
	.st0{fill:none;stroke:#000000;stroke-width:0.2646;}
</style>
<sodipodi:namedview  bordercolor="#666666" borderopacity="1.0" id="base" inkscape:current-layer="layer1" inkscape:cx="1270.7735" inkscape:cy="1099.2636" inkscape:document-units="mm" inkscape:pageopacity="0.0" inkscape:pageshadow="2" inkscape:window-height="962" inkscape:window-maximized="1" inkscape:window-width="1280" inkscape:window-x="-8" inkscape:window-y="-8" inkscape:zoom="0.1400905" pagecolor="#ffffff" showgrid="false">
	</sodipodi:namedview>
<path class="st0" d="M268,1183.4h59.6L166,1494.1L5,1183.4h58.7l0.9,1.8c6.2,11.9,13.1,25.3,20.8,40c8.9,16.9,17.7,34.2,26.5,51.6
	c8.8,17.3,17.6,34.4,26.2,50.6c8.1,15.3,15.1,28.8,20.8,40.1l13.8,0.1c7.2-13.8,15.3-29.6,24.5-47.2c9.6-18.5,19.1-36.8,28.4-55
	c9.3-18.2,18-35.1,25.8-50.6c6.1-12,11.3-22,15.5-29.6L268,1183.4z M402.8,1502.7h51.5v-317.9h-51.5V1502.7z M1234.9,1343.4v159.3
	h-158.6c-21.6,0-42.3-4.2-61.6-12.4c-19.3-8.2-36.5-19.8-51-34.4c-14.6-14.6-26.2-31.7-34.4-51c-8.2-19.2-12.4-39.9-12.4-61.6
	c0-22.1,4.2-42.9,12.4-61.9c8.2-19,19.7-35.9,34.3-50.3c14.6-14.3,31.7-25.8,51.1-34c19.3-8.2,40-12.4,61.6-12.4
	c22.1,0,42.9,4.2,61.9,12.4c19,8.2,36,19.7,50.3,34c14.3,14.3,25.8,31.3,34,50.3C1230.8,1300.5,1234.9,1321.3,1234.9,1343.4z
	 M1182.7,1343.4c0-14.6-2.8-28.5-8.3-41.4c-5.5-12.8-13.1-24.1-22.8-33.8c-9.7-9.7-21.1-17.3-33.8-22.8c-25.8-11-56.8-11.1-83.1,0
	c-13,5.5-24.5,13.2-34.2,22.8c-9.6,9.7-17.3,21-22.8,33.8c-5.5,12.8-8.3,26.8-8.3,41.4c0,14.6,2.8,28.6,8.3,41.7
	c5.5,13.1,13.2,24.6,22.8,34.2c9.7,9.7,21.2,17.4,34.2,22.8c13.1,5.5,27.1,8.3,41.7,8.3h98.2l8.1-8.1V1343.4z M839.8,903.7
	c-29.8,0-38.8,4.6-41.3,6.6c-1.6,1.3-4.6,4.9-6.2,15.1l0.1,123.4c1.3,6.5,3.6,11,7,13.4c3.5,2.4,13.5,6.4,41.8,6.7l3.4,0V907.1
	l-0.6-3.3L839.8,903.7z M844.2,1119.7l0.5,3.4v220.3c0,21.6-4.2,42.3-12.4,61.6c-8.2,19.3-19.7,36.5-34,51
	c-14.3,14.6-31.4,26.1-50.6,34.3c-19.2,8.2-40,12.4-61.6,12.4c-21.6,0-42.3-4.2-61.6-12.4c-19.3-8.2-36.5-19.8-51-34.4
	c-14.6-14.6-26.1-31.7-34.4-51c-8.2-19.2-12.4-39.9-12.4-61.6c0-22.1,4.2-42.9,12.4-61.9c8.2-19,19.8-35.9,34.3-50.3
	c14.6-14.3,31.7-25.8,51.1-34c19.2-8.2,40-12.4,61.6-12.4h98.2l8.1-8.1v-59.5l3.8,0.6c4,0.6,7.2,1,10.1,1.1c8.1,0.5,19.2,0.8,34,0.8
	v3.3l0.4-3.3L844.2,1119.7z M644.4,1245.4c-13,5.5-24.5,13.2-34.2,22.8c-9.6,9.7-17.3,21-22.8,33.8c-5.5,12.8-8.3,26.8-8.3,41.4
	c0,14.6,2.8,28.6,8.3,41.7c5.5,13.1,13.2,24.6,22.8,34.2c9.7,9.7,21.2,17.4,34.2,22.8c26.2,11,57.3,11,83.1,0
	c12.8-5.5,24.2-13.2,33.8-22.8c9.7-9.7,17.3-21.2,22.8-34.2c5.5-13.1,8.3-27.1,8.3-41.7v-98.2l-8.1-8.1h-98.2
	C671.5,1237.1,657.4,1239.9,644.4,1245.4z M1634.2,972.3c-12,38.7-17.8,75.6-19.5,106.9c-44.3-30.2-80.2-47.6-112.4-57.2
	c7.1,16.2,11.9,33,14.6,50.4c29.6,12.6,63.6,33,106.4,65.5c6.7,5.1,15.7,5.8,23.1,1.7c7.4-4,11.7-12,11-20.3
	c-0.3-3.8-3.3-48.1,10.1-106.5C1662.4,1005.2,1651.1,989.5,1634.2,972.3z M1800.3,769.6c-4.4-3.5-9.8-4.9-15.1-4.5
	c-5.1-0.3-10.3,1.1-14.6,4.5c-55.6,44-92.8,97.6-116.9,151c12.7,11.1,23.5,22.2,32.4,32.2c18.8-47.2,49.5-97.3,99.3-140.3
	c47.9,41.3,78.1,89.2,97.1,134.8c8.9-10,19.7-21,32.3-31.8C1890.7,863.7,1854.1,812.2,1800.3,769.6z M1956.2,1079.2
	c-1.8-32.6-8-71.3-21-111.8c-15.8,15.5-27,30.1-33.3,38.9c15.1,61.6,11.9,109.1,11.6,113c-0.6,8.4,3.7,16.3,11,20.3
	c7.4,4,16.4,3.4,23.1-1.7c40.4-30.6,72.9-50.6,101.3-63.3c2.2-17.5,6.7-34.4,13.4-50.7C2031.7,1033.9,1997.6,1050.9,1956.2,1079.2z
	 M1876.1,1027.6c-0.8,0.1-1.7,0.2-2.5,0.2c-4.7,0-9.3-1.3-13.3-3.7c-5.9-3.6-9.9-9.1-11.6-15.3c-22.6,29-42.9,63-60.8,101.3
	c-5.8-27-8.2-54.7-8.5-81.1c0.5-1.3,0.9-2.8,0.8-4.3c-0.1-2.6-0.3-5.5-0.8-8.7c0.2-11.4,0.6-22.4,1.4-32.9c0.4-0.5,0.8-0.9,1-1.5
	c9.6-18.4,33.8-34.3,42.9-40.2c4.9-3.2,9.5-6.3,8.7-13.1c-0.5-4-3.4-7.5-7.2-8.8c-4-1.3-8.2-0.2-10.9,2.6c-0.5,0.4-1.3,0.8-2.2,1.5
	c-5.9,3.9-17.4,11.5-28.4,21.5c4.9-36.4,11.3-60.8,11.4-61.3c1.5-5.7-1.8-11.5-7.5-13.1c-5.7-1.5-11.5,1.8-13.1,7.5
	c-0.8,3.2-12,45.2-16.2,102c-4.1-3.5-9.1-6.7-14.9-9.5c-2.6-1.8-6-2.3-9.3-1.2c-4.2,1.4-7.1,5.2-7.3,9.5c-0.2,3.4,1,8,7.5,11
	c12.4,5.7,19.9,14.8,22.4,27c-0.2,19.4,0.6,39.8,3,60.4c-13.3-24.3-27.7-46.4-43.1-66.2c-1.7,6.2-5.7,11.7-11.6,15.3
	c-4.1,2.4-8.7,3.7-13.4,3.7c-0.8,0-1.7-0.1-2.5-0.2c26.2,33.3,49.4,74,69,121.3c0.1,0.6,0.3,1.2,0.5,1.9c0.6,2,3.5,11.9,7.3,18.8
	c0.1,0.2,0.1,0.5,0.2,0.7c0.5,1.1,1.1,2.1,1.8,3c3.8,7.2,12.7,10.9,20.5,8c4.2-1.6,7.5-4.6,9.3-8.7c1.3-2.9,1.7-6,1.3-9.1
	C1821.3,1111.3,1846.8,1064.8,1876.1,1027.6z M2262.4,1362.8c-2.1-12.6-13.8-21.5-27-19.4l-448.8,73.7l-439.9-75.6
	c-1.3-0.2-2.7-0.3-4-0.3c-11.4,0-21.1,8.2-23.1,19.5c-1.1,6.2,0.3,12.4,4,17.5c3.6,5.1,9,8.5,15.2,9.6l412.4,70.9l-0.2,4.1
	c0,0.4-0.1,0.9-0.1,1.3c0,20,16.1,36.2,36,36.2c19.9,0,36-16.2,36-36l-0.2-1.2l-0.2-4.2l420.5-69.1
	C2255.8,1387.7,2264.5,1375.6,2262.4,1362.8z M1627.7,1289.4c-12.1-5.9-24.8-11.6-38-17.1c12.8,10.7,21.4,16,22.6,16.6
	C1616.9,1291.7,1622.8,1291.7,1627.7,1289.4z M1635,1282.6c4.3-7.8,1.7-17.7-6-22.3c-0.8-0.5-74.3-46.1-114.7-159.3
	c-3,4.4-7.2,8-12.5,9.9c-2.9,1.1-6,1.6-9,1.6c-3.7,0-7.2-0.8-10.4-2.3c24.5,69.9,60.3,116.3,88.1,144.2
	C1593.6,1263.3,1615.1,1272.8,1635,1282.6z M2241.7,1027.8c-3.6-5.2-9.3-8.5-15.6-9.1c-6.7-0.6-13.2-1.3-19.5-1.9
	c-27.6-2.8-52.8-5.2-78.6-4c-12.1,17.2-18.8,32.7-22.6,45.2c30-4.9,58-2.6,90.9,0.6c-30.1,90.8-83.1,151.3-155.8,179
	c35.5-11.4,74.2-20.9,116.1-27.3c39.7-41.3,69.6-96.7,88.1-164.8C2246.3,1039.4,2245.2,1032.9,2241.7,1027.8z M1932.1,1281.4
	c19.5-9.9,40.6-19.5,63.3-28.5c27.9-27.8,63.9-74.3,88.7-144.9c-3.2,1.4-6.8,2.3-10.4,2.3c-3,0-6.1-0.5-9-1.6
	c-5.3-2-9.6-5.6-12.5-10c-40.8,114.4-114,158.9-114.8,159.3c-7.8,4.6-10.5,14.8-5.9,22.7C1931.7,1280.9,1931.9,1281.1,1932.1,1281.4
	z M2211.4,1231.1c-1-9.6-9-16.8-18.6-16.8c-0.7,0-1.4,0-2.1,0.1c-225.4,24.4-365.7,141.3-406,179.5
	c-46.8-42.6-184.7-151-400.4-174.3c-0.7-0.1-1.4-0.1-2.1-0.1c-9.4,0-17.6,7.4-18.7,16.8c-1.1,10.3,6.4,19.6,16.7,20.7
	c169.3,18.3,289.9,93.9,350.4,141l55.9,9.6l10.7-1.8v0l38.4-6.3c56.9-46.2,180.5-128.4,359.1-147.7c5-0.5,9.5-3,12.6-6.9
	C2210.5,1241,2211.9,1236.1,2211.4,1231.1z M1323.2,1045.5c18.5,68.1,48.4,123.5,88.1,164.8c41.9,6.4,80.6,15.9,116.1,27.3
	c-72.7-27.8-125.7-88.2-155.8-179c32.9-3.3,60.9-5.6,90.9-0.6c-3.7-12.5-10.4-28.1-22.6-45.2c-25.9-1.2-51,1.3-78.6,4
	c-6.4,0.6-12.9,1.3-19.5,1.9c-6.3,0.6-12,3.9-15.6,9.1C1322.7,1032.9,1321.5,1039.4,1323.2,1045.5z"/>
</svg>
