<?xml version="1.0" encoding="UTF-8" standalone="no"?>
<!-- Generator: Adobe Illustrator 22.1.0, SVG Export Plug-In . SVG Version: 6.00 Build 0)  -->

<svg
   version="1.1"
   id="svg8"
   x="0px"
   y="0px"
   viewBox="0 0 2267.7 2267.7"
   style="enable-background:new 0 0 2267.7 2267.7;"
   xml:space="preserve"
   xmlns="http://www.w3.org/2000/svg"
   xmlns:svg="http://www.w3.org/2000/svg"><defs
   id="defs61">
	
</defs>
<style
   type="text/css"
   id="style55">
	.st0{fill:none;stroke:#000000;stroke-width:0.2646;}
</style>

<path
   id="path264"
   style="fill:none;stroke-width:37.3045"
   d="m 1341.3092,968.75908 c -32.694,-0.23899 -64.3808,5.79998 -90.5871,16.43175 -104.8255,42.52707 -149.2179,205.54817 -62.6716,324.17627 86.5462,118.6283 348.0509,87.6655 354.0196,-124.5969 v 1.1194 c 4.4765,-159.1968 -102.6793,-216.41358 -200.7609,-217.13052 z m 1.3288,33.92892 c 80.8748,0.3148 167.2582,48.1586 163.6209,179.0973 -4.8496,174.5848 -218.6041,199.5784 -290.6019,101.4677 -71.9976,-97.3647 -37.3045,-229.7949 51.4803,-266.3533 22.196,-9.1395 48.5423,-14.3166 75.5007,-14.2117 z" /><path
   id="path261"
   style="fill:none;stroke-width:37.3045"
   d="m 1146.2693,747.9347 c -240.2407,-1.11913 -338.72415,58.56818 -351.03462,63.0447 -44.76535,15.66788 -26.85975,111.91269 -13.05709,120.86576 13.80264,8.95306 94.3814,-58.9404 368.56931,-58.9404 274.1877,-2.23828 347.3041,49.9876 361.1067,49.9876 13.8026,0 16.4146,-74.60853 13.0571,-91.39555 -3.3574,-16.78699 -138.4006,-82.44298 -378.6414,-83.56211 z m -66.4214,33.7818 c 24.7339,-0.196 51.2204,0.30394 79.4785,1.65623 226.0651,10.8183 332.0098,48.4976 332.0098,60.80807 0,12.31047 7.8339,32.45307 0,32.45307 A 1081.8305,1081.8305 0 0 0 1148.8813,835.59906 1610.8082,1610.8082 0 0 0 817.99081,882.9769 c -12.68352,-3.73045 -9.7005,-42.52826 -6.71615,-47.37784 8.16035,-16.97352 95.43614,-52.51061 268.57324,-53.88256 z" /><path
   id="path258"
   style="fill:none;stroke-width:37.3045"
   d="m 1640.7248,37.08045 c -38.379,0.67031 -109.0535,12.5605 -222.1322,52.42947 a 1412.7214,1412.7214 0 0 0 -345.4401,191.74595 c 0,0 -37.3043,-66.40222 -223.8259,-134.66907 A 1035.5728,1035.5728 0 0 0 532.61059,71.97747 c -7.83388,0 5.22218,60.43274 18.2787,151.45529 13.05652,91.02251 28.35291,258.52067 28.35291,262.99721 0,4.47648 -44.76659,6.71391 -149.21865,5.96783 -104.45211,-0.74605 -331.6377,-11.19023 -346.932442,-4.84847 -15.294784,6.34172 -14.920712,89.9049 55.957512,240.98732 a 1044.526,1044.526 0 0 0 167.87047,252.54987 c 0,0 -66.0306,49.98988 -141.75835,111.91498 A 863.22607,863.22607 0 0 0 3.2601805,1292.952 c -4.4765186,12.3104 48.4970455,46.2588 149.2186495,57.8231 a 830.39812,830.39812 0 0 1 206.29346,57.0748 c 0,0 -27.60519,32.8289 -81.3234,85.8008 -53.71821,52.9723 -188.388236,282.0226 -200.325619,305.1514 -11.937383,23.1287 19.026205,54.0919 45.512239,53.7188 26.48609,-0.373 349.915,-13.431 368.56715,-15.2958 18.65213,-1.8651 -57.0754,245.0912 -60.05976,252.9251 -2.9843,7.8334 49.61618,19.771 149.21866,8.2065 a 351.03532,351.03532 0 0 0 180.17926,-94.3805 318.95346,318.95346 0 0 0 84.30835,67.5221 476.37844,476.37844 0 0 0 169.36303,45.1371 c 0,0 5.2223,89.9052 8.5796,100.7235 3.3575,10.8183 45.1382,10.4453 61.9254,10.4453 a 373.04498,373.04498 0 0 1 58.9423,0 79.085535,79.085535 0 0 0 37.3037,0 183.91118,183.91118 0 0 1 58.9405,0 37.304498,37.304498 0 0 0 32.4551,-7.8334 c 2.9843,-6.3418 3.7312,-111.915 3.7312,-111.915 a 274.18807,274.18807 0 0 0 60.4328,-16.04 c 32.4548,-12.6836 169.7361,-85.0547 169.7361,-85.0547 a 307.38907,307.38907 0 0 0 45.1371,37.3037 828.90593,828.90593 0 0 0 216.3676,72.7437 c 82.0695,14.9218 133.1759,-16.4136 139.1445,-37.3036 5.9687,-20.8905 4.1035,-267.8462 0,-280.5297 -4.1034,-12.6836 5.9697,-12.3108 158.5446,-103.3333 a 433.85131,433.85131 0 0 0 199.2062,-275.6811 c 0.7461,-24.994 -58.1947,-22.3818 -172.719,-46.2565 -114.8973,-23.8747 -119.7474,-57.8223 -115.2709,-64.164 4.4766,-6.3417 57.0764,-14.5488 176.8232,-173.4652 a 574.11622,574.11622 0 0 0 95.8708,-392.44471 c -6.3416,-18.65214 -34.319,-15.29335 -86.5449,6.71614 a 1044.526,1044.526 0 0 1 -151.4574,50.73385 c -6.3418,0 10.8203,-23.12938 80.5792,-186.52229 69.759,-163.39286 54.8372,-291.72146 39.5424,-293.21364 -15.2948,-1.49217 -176.0791,77.21995 -277.9199,111.91296 a 828.5329,828.5329 0 0 1 -245.8358,40.6617 c -15.6679,-4.47654 74.6078,-418.93007 69.3858,-429.74832 -1.9586,-4.05686 -13.3601,-7.69253 -36.3876,-7.29034 z m -41.5426,67.76259 c 5.8855,-0.0923 8.5444,0.81208 8.5444,2.19933 0,6.34172 -53.3458,272.32287 -63.7909,321.93761 -10.4454,49.61471 -16.4131,102.21457 -5.2217,105.19888 a 1041.5415,1041.5415 0 0 0 307.7613,-37.30363 c 146.9787,-41.40777 251.8063,-99.60403 253.298,-88.78578 a 2036.0795,2036.0795 0 0 1 -135.0422,338.7259 c -44.3917,68.63995 -62.6718,127.58071 -53.3457,132.05724 9.3263,4.47649 61.9253,-11.19146 162.2739,-41.40794 100.3484,-30.21647 111.915,-35.06602 111.915,-30.21643 a 505.47595,505.47595 0 0 1 -82.0718,285.00708 1227.318,1227.318 0 0 1 -207.4128,218.6043 156.30585,156.30585 0 0 0 74.6093,96.9903 c 43.6457,19.7714 212.6362,44.7658 211.1441,54.0919 a 468.5445,468.5445 0 0 1 -200.6987,222.7086 v -1.8655 c -130.9384,67.5206 -146.6053,74.6095 -149.2168,86.1739 -2.6107,11.5644 6.7142,270.831 -4.1041,272.6962 a 972.90131,972.90131 0 0 1 -186.5223,-34.3207 c -52.9723,-18.2792 -74.6095,-35.0658 -74.6095,-39.5424 a 789.73621,789.73621 0 0 0 105.5721,-168.2435 437.95481,437.95481 0 0 0 30.2165,-111.913 c 0,0 170.4813,7.8314 186.5223,-111.915 16.0408,-119.7469 -67.8945,-139.1453 -92.5149,-143.2488 a 232.03398,232.03398 0 0 0 -49.6146,-5.9678 c 0,0 43.2722,-384.6111 -86.9201,-596.87258 -130.1922,-212.26153 -268.9663,-324.54916 -550.6142,-312.98481 -281.64735,11.56434 -432.35968,159.66461 -501.37264,447.6539 -69.01299,287.98919 -50.73385,452.50449 -50.73385,452.50449 0,0 -137.65314,5.596 -133.17659,176.077 4.47648,170.4805 183.91044,136.5347 183.91044,136.5347 a 261.13149,261.13149 0 0 0 40.6617,145.4874 c 45.51128,69.3858 65.65654,95.4978 65.65654,95.4978 0,0 -181.6741,69.3877 -183.16629,58.9425 -1.49217,-10.4453 46.63242,-169.3622 40.29066,-186.5223 -6.34171,-17.16 -37.3059,-50.7338 -48.4972,-50.7338 -11.19129,0 -362.22686,15.2943 -365.58426,0 -3.35736,-15.2949 77.96737,-139.8931 159.29081,-242.853 81.32337,-102.9599 121.23856,-141.757 119.74637,-155.9327 -1.49212,-14.1757 -56.33013,-78.713 -175.70389,-96.2461 C 141.2868,1279.5233 93.163844,1283.2538 96.148202,1276.912 A 1231.0485,1231.0485 0 0 1 295.72758,1073.9746 286.12549,286.12549 0 0 0 389.73497,992.65115 1319.087,1319.087 0 0 1 223.73009,760.9918 C 157.70144,637.51454 153.97018,555.44369 158.44667,550.96715 c 11.1913,-11.19129 503.23864,2.23686 504.73077,-7.08927 1.49217,-9.32607 -69.76005,-417.06433 -55.58439,-417.06433 a 1710.7842,1710.7842 0 0 1 335.74093,138.40027 c 98.11032,62.67124 102.95922,85.80053 129.07222,84.30835 26.1133,-1.49217 149.2196,-119.00264 314.4774,-182.04692 123.9437,-47.28323 186.1975,-61.20166 209.577,-62.53063 0.974,-0.0554 1.8808,-0.0884 2.7216,-0.10154 z M 1103.742,580.81046 c 149.2176,0 330.1458,8.20685 471.1564,254.7886 141.0102,246.58174 125.7165,443.92604 87.2932,664.39464 -38.4235,220.4689 -99.6037,352.1545 -137.654,394.3082 l -0.3732,-1.8656 a 424.52518,424.52518 0 0 1 -47.7488,48.4952 584.56147,584.56147 0 0 0 -91.7708,-59.6866 c -7.8339,2.9843 -18.6511,14.1755 -15.2937,20.1443 3.3575,5.9686 74.6088,56.7026 71.6243,61.5522 -2.9843,4.8496 -43.2723,32.8274 -47.7488,28.3509 a 969.91695,969.91695 0 0 0 -91.7708,-70.5051 c -6.3418,0 -24.6188,14.1756 -21.6345,20.1443 2.9843,5.9686 88.7838,61.1804 79.4577,67.5221 -9.3257,6.3418 -58.5685,28.35 -64.9103,23.8734 -6.3418,-4.4765 -71.9967,-72.3705 -77.9654,-71.9975 -5.9683,0.3731 -23.1304,9.3276 -18.2808,17.1615 4.8496,7.834 53.3457,66.0276 53.3457,66.0276 a 1159.7968,1159.7968 0 0 1 -303.65886,-3.7292 C 809.78326,2014.4224 712.41809,1861.8447 668.02591,1699.5711 623.63372,1537.2969 623.63448,1191.858 671.75711,1000.8598 719.87971,809.8615 804.93424,583.04874 1103.742,580.81046 Z m 650.1603,902.63754 c 19.0543,-1.3312 81.521,10.2963 69.4436,73.6205 -13.8026,72.3708 -104.0778,99.2312 -105.9431,89.5321 a 835.62076,835.62076 0 0 1 24.2467,-86.9202 c 10.4452,-43.6462 -2.237,-63.4176 7.0891,-72.7437 v -2.2388 c 0.6064,-0.6062 2.4417,-1.0598 5.1637,-1.2499 z m -1199.28181,0.5037 a 1007.2214,1007.2214 0 0 1 26.11418,182.42 c -4.4765,0 -88.41274,-10.0738 -88.78578,-70.5071 a 139.89186,139.89186 0 0 1 62.6716,-111.9129 z m 522.39181,631.9085 c 15.7028,-0.017 47.2472,3.4799 78.5829,1.5215 41.7811,-2.6114 61.9255,-1.8648 61.9255,2.6118 0,4.4765 5.5975,69.3859 -0.7442,70.8781 a 111.91349,111.91349 0 0 1 -57.4501,1.8656 111.91349,111.91349 0 0 0 -55.9574,-11.9377 c -15.2949,3.3574 -24.6207,14.1752 -29.4701,7.8334 a 229.79571,229.79571 0 0 1 -6.7142,-71.2512 c 1.1191,-1.1192 4.5933,-1.5157 9.8276,-1.5215 z" /><path
   id="path255"
   style="fill:none;stroke-width:37.3045"
   d="m 908.81009,963.27422 c -30.05923,-0.46631 -59.111,4.75706 -82.98585,14.08318 -95.49942,37.3045 -138.39859,189.5062 -57.44792,298.4352 80.95068,108.929 320.07098,82.0703 325.66678,-111.9129 4.1967,-146.6065 -95.05533,-199.20655 -185.23301,-200.60548 z m 0.0643,34.48865 c 73.86284,0.50711 154.86051,43.66453 152.34241,164.25123 -3.3575,160.7822 -201.44573,183.165 -267.84767,93.6343 -66.40193,-89.5307 -32.82674,-211.8887 47.37784,-245.4627 19.67811,-8.0205 43.50648,-12.59186 68.12742,-12.42283 z" /><path
   style="fill:none;stroke-width:37.3045"
   d="m 1106.7274,1799.9211 c -174.95821,5.9688 -249.94025,-45.1384 -257.40115,-47.3767 -7.46089,-2.2382 -13.80265,27.9784 -10.44525,34.3201 3.3574,6.3418 83.93512,48.869 261.1315,52.2263 177.1964,3.3574 301.4204,-59.6871 302.9126,-66.0289 a 69.386366,69.386366 0 0 0 -6.3418,-30.9628 1033.7076,1033.7076 0 0 1 -289.483,57.822 z"
   id="path252" /><path
   style="fill:none;stroke-width:37.3045"
   d="m 1423.0695,1650.7031 c -6.3418,0 -26.1131,23.5019 -26.1131,23.5019 a 124.22397,124.22397 0 0 1 54.4645,35.0662 c 17.1601,24.621 2.2382,66.402 2.2382,71.2516 0,4.8496 18.6523,0 29.4707,0 10.8183,0 10.4452,-37.3045 -3.7306,-74.6091 a 100.3491,100.3491 0 0 0 -55.9566,-54.0915 z"
   id="path249" /><path
   style="fill:none;stroke-width:37.3045"
   d="m 816.12525,1670.8475 c -6.34176,0 -33.94709,22.0097 -42.90016,42.1541 a 198.08688,198.08688 0 0 0 -7.08786,65.2829 45.511487,45.511487 0 0 0 26.48619,8.9531 c 4.47654,0 2.98436,-33.9471 4.1035,-52.5993 1.11914,-18.6524 29.0975,-34.3202 33.57404,-40.662 4.47654,-6.3417 -7.83394,-20.1444 -13.80267,-21.6366 z"
   id="path246" /><path
   style="fill:none;stroke-width:37.3045"
   d="m 1138.4361,1656.2988 c -63.4176,0 -56.3299,-229.0496 -58.568,-236.5106 -2.2384,-7.4608 -29.4705,0 -29.0976,3.7306 0.3731,3.7304 -22.7557,271.5767 89.1579,273.0688 111.9134,1.4922 76.4742,-281.6489 76.4742,-281.6489 a 83.189029,83.189029 0 0 0 -29.4705,0 c -5.9689,5.2226 15.2948,241.3601 -48.496,241.3601 z"
   id="path243" /><path
   style="fill:none;stroke-width:37.3045"
   d="m 1531.9985,1363.0854 a 333.50221,333.50221 0 0 1 -99.976,54.8377 202.56343,202.56343 0 0 1 -121.9857,0 c -4.4765,0 -11.5645,27.6053 -5.2227,31.7087 a 186.52249,186.52249 0 0 0 122.3588,7.0879 245.09055,245.09055 0 0 0 123.8509,-67.5212 c -2.2381,-6.7147 -11.1914,-27.2322 -19.0253,-26.1131 z"
   id="path240" /><path
   style="fill:none;stroke-width:37.3045"
   d="m 991.08335,1414.9387 c 0,-5.9687 0,-28.3515 -7.4609,-30.2167 a 335.74048,335.74048 0 0 1 -113.77872,11.5644 202.56343,202.56343 0 0 1 -111.91349,-48.1228 c -4.47654,0 -21.26357,21.2636 -17.16007,27.2323 a 186.52249,186.52249 0 0 0 111.9135,53.7184 245.09055,245.09055 0 0 0 138.39968,-14.1756 z"
   id="path237" /><path
   style="fill:none;stroke-width:37.3045"
   d="m 1385.3919,1184.3969 a 39.915812,39.915812 0 0 0 -57.076,-39.1697 41.781037,41.781037 0 0 0 -12.3104,63.4176 39.542767,39.542767 0 0 0 70.8786,-24.621 z"
   id="path234" /><path
   style="fill:none;stroke-width:37.3045"
   d="m 947.06404,1167.6099 a 39.915812,39.915812 0 0 0 -57.07588,-39.1698 41.781037,41.781037 0 0 0 -12.31048,63.4177 39.542767,39.542767 0 0 0 69.38636,-24.2479 z"
   id="path231" /><path
   style="fill:none;stroke-width:37.3045"
   d="m 1402.552,214.85299 a 590.15716,590.15716 0 0 0 -119.7476,79.83163 c 6.3418,5.96872 10.8184,20.14442 20.1446,23.12878 9.3262,2.98437 10.8183,-10.8183 46.2575,-34.32013 a 746.08996,746.08996 0 0 1 111.9136,-48.86889 c 4.4765,-2.98437 -4.8496,-27.97838 -12.6835,-37.3045 -7.834,-9.32613 -1.1193,1.49218 -45.8846,17.53311 z"
   id="path228" /><path
   style="fill:none;stroke-width:37.3045"
   d="m 674.7412,218.95649 a 1537.6914,1537.6914 0 0 0 30.96274,168.98937 c 2.98436,4.47654 30.96273,-18.65225 32.45491,-23.50183 1.49218,-4.84959 -11.5644,-72.74377 -11.5644,-77.22031 a 629.69992,629.69992 0 0 1 80.57772,16.41398 c 4.47654,0 4.47654,-26.4862 4.47654,-32.45492 A 753.9239,753.9239 0 0 0 674.7412,218.95649 Z"
   id="path225" />
</svg>
