<?xml version="1.0" encoding="UTF-8" standalone="no"?>
<!-- Generator: Adobe Illustrator 22.1.0, SVG Export Plug-In . SVG Version: 6.00 Build 0)  -->

<svg
   version="1.1"
   id="svg8"
   x="0px"
   y="0px"
   viewBox="0 0 2267.7 2267.7"
   style="enable-background:new 0 0 2267.7 2267.7;"
   xml:space="preserve"
   xmlns="http://www.w3.org/2000/svg"
   xmlns:svg="http://www.w3.org/2000/svg"><defs
   id="defs61"><style
   id="style455">.cls-1{fill:#fff;}.cls-2{fill:#1d1d1b;}</style>
	
</defs>
<style
   type="text/css"
   id="style55">
	.st0{fill:none;stroke:#000000;stroke-width:0.2646;}
</style>

<path
   class="cls-2"
   d="m 2006.9491,1196.6311 c 0,0 75.3517,-148.1198 -43.0581,-672.56711 C 1845.4813,-0.38331 1194.4434,-67.98448 801.32316,61.18974 408.20298,190.36395 341.46296,439.67018 341.46296,439.67018 A 462.44368,462.44368 0 0 0 214.87224,708.78313 c -29.71007,185.58029 43.05807,449.52627 43.05807,449.52627 0,0 -156.3008,70.1847 -62.00361,255.765 94.29716,185.5803 260.93191,139.9386 260.93191,139.9386 a 568.79712,568.79712 0 0 0 196.3448,228.6384 451.24858,451.24858 0 0 0 -117.11797,113.6733 c -58.98953,80.9492 -112.81213,174.8158 -110.22865,220.8879 2.58349,46.0722 142.52222,40.4746 207.10932,45.6415 64.58712,5.167 230.36069,69.7543 290.64198,85.2551 a 990.33563,990.33563 0 0 0 312.17101,-15.9316 c 102.4783,-21.5289 105.0616,-8.1808 322.9355,5.5977 217.8738,13.7786 288.0585,-26.6961 312.171,-34.8771 24.1126,-8.1811 75.3517,-86.1162 40.4747,-177.3993 -34.8771,-91.283 -263.5155,-277.2939 -263.5155,-277.2939 a 341.01994,341.01994 0 0 0 93.8667,-77.9351 1504.449,1504.449 0 0 0 115.8261,-145.1057 c 0,0 201.9424,2.5834 245.0004,-139.9388 a 148.55035,148.55035 0 0 0 -95.5889,-188.5943 z M 273.8618,1366.2799 c -34.87704,-91.2831 45.64155,-118.4097 59.42013,-129.1742 0,0 34.87705,99.4641 53.8226,145.5363 a 301.4065,301.4065 0 0 1 21.52904,83.5326 165.77357,165.77357 0 0 1 -134.77177,-99.8947 z m 72.76813,-664.81666 c -10.76452,8.18105 -10.76452,43.05807 -10.76452,43.05807 0,0 62.00363,64.58713 59.42015,72.76815 a 731.9872,731.9872 0 0 0 -48.22503,174.81578 347.90922,347.90922 0 0 1 -29.71007,118.40966 c 0,0 -99.46415,-290.64195 -29.71008,-427.9972 69.75408,-137.35525 76.2128,-150.70325 76.2128,-150.70325 0,0 120.99318,-277.29398 374.17462,-360.39606 253.18142,-83.10208 616.161,-156.30079 921.8733,32.29356 305.7122,188.59435 307.004,812.93635 303.9899,847.81345 -3.0138,34.877 -10.7644,37.8911 -10.7644,37.8911 A 852.54981,852.54981 0 0 0 1815.7714,629.1257 C 1667.6517,403.07082 1490.2523,249.78409 1150.9547,254.95106 811.65712,260.11802 518.86222,525.78632 497.3332,580.47007 c -21.52905,54.68376 -40.47459,91.7137 -40.47459,91.7137 0,0 -37.46054,-56.40608 -45.64155,-56.40608 -8.18105,0 -29.71009,10.76453 -24.11253,27.12659 5.59755,16.36206 45.64155,59.42012 45.64155,70.18465 a 202.80351,202.80351 0 0 1 -10.76453,40.47459 c 0,0 -64.58709,-60.28129 -75.35162,-52.10028 z M 1840.3144,2028.0824 c 29.7102,67.1705 24.1124,113.2428 10.7647,115.8262 a 163.62068,163.62068 0 0 1 -37.4606,0 c 0,0 -137.3552,-223.4713 -164.0514,-226.0548 -26.696,-2.5834 -34.8769,5.5975 -29.7099,18.9455 5.167,13.348 142.5222,215.2904 134.7716,217.8738 -7.7503,2.5836 -32.2935,24.1126 -48.225,13.348 -15.9315,-10.7644 -124.4377,-178.2604 -136.9247,-178.2604 -12.4868,0 -43.0581,8.1811 -40.4745,16.3621 2.5834,8.181 124.0072,169.6488 113.2428,174.8157 a 285.90558,285.90558 0 0 1 -62.0037,5.5976 c 0,0 -107.6452,-158.8842 -123.5766,-158.8842 -15.9316,0 -26.6961,27.1265 -26.6961,27.1265 0,0 94.2972,139.9387 83.5328,139.9387 a 899.05252,899.05252 0 0 0 -223.4715,-26.696 c -107.6451,5.5977 -191.1779,48.6557 -285.0446,37.8911 -93.86646,-10.7645 -210.55383,-86.9773 -303.12866,-91.7136 -92.57486,-4.7364 -180.41334,-5.167 -182.99682,-15.9315 -2.58348,-10.7645 27.12659,-151.5645 199.35888,-280.7386 23.25136,-17.2232 164.05124,126.5907 481.8198,94.2972 317.7685,-32.2936 363.4101,-115.8262 376.7582,-115.8262 13.348,0 233.8053,164.9124 263.5153,232.0829 z m -129.1741,-435.7477 c -193.7614,177.8299 -368.5772,285.4751 -697.1102,234.2359 C 685.49695,1775.3315 553.73926,1592.3347 454.27513,1366.2799 354.81097,1140.225 406.91125,343.65068 1188.8459,338.05313 c 220.8877,0 476.2221,120.99319 610.994,438.76175 134.7717,317.76862 105.0616,637.69002 -88.6996,815.51982 z m 331.9776,-210.1233 c -15.9315,72.7681 -139.9387,80.9492 -139.9387,80.9492 a 313.89335,313.89335 0 0 0 32.2937,-83.5327 c 16.3619,-58.9896 29.7099,-112.8122 29.7099,-112.8122 a 96.88066,96.88066 0 0 1 77.9351,115.3957 z M 697.55323,736.3403 c 18.94554,5.59753 223.47138,-45.64155 245.00042,-45.64155 21.52903,0 10.76451,-21.52905 -2.58349,-37.46054 -13.34799,-15.93149 -283.32211,37.8911 -263.51539,37.8911 1.29173,-0.43056 1.29173,40.04401 20.2373,45.21099 z M 1478.196,704.04674 a 1980.6712,1980.6712 0 0 0 231.6524,37.89109 c 27.1267,-2.58348 10.7646,-8.18102 8.1811,-26.69599 -2.5835,-18.51497 -228.6383,-51.2391 -239.4028,-51.2391 -1.7225,0 -20.668,34.01586 -1.7225,40.044 z M 1128.5645,1016.2178 C 1136.7456,752.70236 929.20565,736.3403 781.51645,771.21733 509.82002,835.80443 514.98699,1113.0984 663.10676,1218.1601 c 148.11976,105.0617 455.98504,62.0036 464.16614,-201.9423 z M 690.66391,1188.45 C 565.36493,1099.3198 561.4897,864.65334 790.98923,809.9696 c 125.29898,-29.71007 301.40637,-15.93149 294.08667,207.5399 -7.3198,223.4714 -270.40473,258.3484 -395.70371,169.6488 z M 1416.1924,781.12069 c -207.1094,110.22866 -180.4133,314.75451 -45.6415,425.41371 134.7718,110.6593 403.8847,59.4202 395.7036,-180.4133 -8.1811,-239.83344 -223.4713,-314.75449 -351.3539,-246.72273 z m -21.9596,390.53671 c -111.5204,-91.2831 -133.48,-260.50134 37.891,-351.78445 105.9229,-56.40606 282.8916,4.30581 289.3504,202.80355 6.4588,198.4977 -215.721,239.4029 -327.2414,148.9809 z M 817.68525,962.39516 c -24.11254,18.94556 -58.98957,86.11614 8.18101,110.22864 a 73.19872,73.19872 0 0 0 102.47823,-77.93508 c -4.7364,-50.80853 -71.47641,-62.43421 -110.65924,-32.29356 z m 669.98365,0 c -24.1125,18.94556 -58.9897,86.11614 8.181,110.22864 a 73.19872,73.19872 0 0 0 102.4781,-77.93508 c -3.014,-50.80853 -71.907,-62.43421 -110.6591,-32.29356 z m -384.9393,384.93914 a 585.15919,585.15919 0 0 0 177.8299,99.4642 c 64.5872,16.3621 113.2428,-8.1811 99.4642,-88.6997 a 118.40969,118.40969 0 0 0 -91.2831,-100.3253 16.792649,16.792649 0 0 0 -18.9456,21.5291 c 2.5834,13.348 0,0 27.1265,21.529 27.1265,21.529 43.0582,83.5327 21.5291,96.8807 -21.5291,13.348 -176.5381,-78.3657 -188.1638,-80.5186 -11.6255,-2.1529 -34.4465,19.3761 -27.5572,30.1406 z m 269.113,231.6525 a 790.1156,790.1156 0 0 1 -215.2903,32.2935 c -185.58033,8.1811 -258.34847,-86.1161 -277.29402,-83.5327 -18.94556,2.5836 -37.46052,21.5291 -32.29356,32.2936 5.16699,10.7645 58.12839,82.6715 250.16738,99.4642 182.9968,16.362 303.9899,-34.877 307.0041,-43.0581 a 40.474587,40.474587 0 0 0 -32.2936,-37.4605 z"
   id="path463-1"
   style="fill:none;stroke-width:43.058" />
</svg>
