<?xml version="1.0" encoding="utf-8"?>
<!-- Generator: Adobe Illustrator 22.1.0, SVG Export Plug-In . SVG Version: 6.00 Build 0)  -->
<svg version="1.1"
	 id="svg8" inkscape:version="0.92.4 (5da689c313, 2019-01-14)" sodipodi:docname="amphibia.svg" xmlns:cc="http://creativecommons.org/ns#" xmlns:dc="http://purl.org/dc/elements/1.1/" xmlns:inkscape="http://www.inkscape.org/namespaces/inkscape" xmlns:rdf="http://www.w3.org/1999/02/22-rdf-syntax-ns#" xmlns:sodipodi="http://sodipodi.sourceforge.net/DTD/sodipodi-0.dtd" xmlns:svg="http://www.w3.org/2000/svg"
	 xmlns="http://www.w3.org/2000/svg" xmlns:xlink="http://www.w3.org/1999/xlink" x="0px" y="0px" viewBox="0 0 2267.7 2267.7"
	 style="enable-background:new 0 0 2267.7 2267.7;" xml:space="preserve">
<style type="text/css">
	.st0{fill:none;stroke:#000000;stroke-width:0.25;}
</style>
<sodipodi:namedview  bordercolor="#666666" borderopacity="1.0" id="base" inkscape:current-layer="layer1" inkscape:cx="1458.54" inkscape:cy="749.02127" inkscape:document-units="mm" inkscape:pageopacity="0.0" inkscape:pageshadow="2" inkscape:window-height="962" inkscape:window-maximized="1" inkscape:window-width="1280" inkscape:window-x="-8" inkscape:window-y="-8" inkscape:zoom="0.280181" pagecolor="#ffffff" showgrid="false">
	</sodipodi:namedview>
<path id="path3713" inkscape:connector-curvature="0" class="st0" d="M2261.1,1430c-2.8,36-91.3,362.6-149.5,409.7
	c-24.9,13.8-113.5,30.4-157.8,30.4c-47.1,0-66.4-13.8-146.7,83c-77.5,96.9-105.2,72-105.2,58.1c0-16.6,13.8-27.7,27.7-80.3
	c16.6-49.8-69.2-47.1-69.2-47.1l-105.2,5.5c0,0-127.3-5.5-157.8-2.8c-30.4,2.8-66.4,66.4-83,66.4c-13.8,0-22.1-49.8-11.1-77.5
	c11.1-27.7,47.1-41.5,47.1-41.5l83-16.6l83-11.1c0,0,22.1-41.5,41.5-49.8c22.1-5.5,69.2,8.3,58.1-5.5c-5.5-5.5-11.1-22.1-16.6-41.5
	c-2.8,0-2.8-2.8-2.8-2.8c-8.3-24.9-24.9-22.1-41.5-11.1c-52.6,27.7-113.5,33.2-168.9,44.3c-63.7,13.8-135.6-2.8-199.3-33.2
	c-27.7-11.1-55.4-24.9-83-33.2c-72-24.9-99.6-13.8-146.7,44.3c-22.1,24.9-83,49.8-119,94.1c38.8,19.4-221.4,38.8-287.9,5.5
	c-55.4-27.7-116.3-47.1-171.6,2.8c-11.1,11.1-24.9,13.8-36,2.8c-11.1-11.1-13.8-22.1-8.3-36c8.3-19.4,16.6-36,27.7-58.1
	c-24.9-11.1-52.6-5.5-77.5,0c-19.4,2.8-36,5.5-44.3-13.8c-8.3-22.1,8.3-36,24.9-44.3c27.7-19.4,60.9-24.9,94.1-27.7
	c55.4,0,108,2.8,160.5,5.5c16.6,0,24.9-2.8,24.9-19.4c5.5-44.3,24.9-49.8,58.1-22.1c24.9,22.1,47.1,30.4,49.8-13.8
	c2.8-19.4,16.6-16.6,27.7-19.4c27.7-5.5,110.7-85.8,110.7-102.4c0-19.4-22.1-30.5-27.7-58.1c-8.3-27.7-177.2-102.4-213.1-146.7
	c-8.3-8.3-351.5-334.9-390.3-376.5c-38.8-41.5-80.3-77.5-113.5-121.8c-58.1-72-52.6-143.9,13.8-210.4c24.9-22.1,49.8-41.5,77.5-60.9
	c41.5-30.4,77.5-55.4,77.5-121.8c0-63.7,60.9-102.4,121.8-121.8c69.2-22.1,138.4-11.1,185.5,44.3c30.4,38.8,66.4,58.1,113.5,58.1
	c74.7,2.8,138.4,30.4,207.6,60.9c69.2,30.4,146.7,30.4,221.4,38.8c235.3,27.7,442.9,110.7,609,279.6c27.7,27.7,55.4,44.3,96.9,47.1
	c55.4,2.8,102.4,36,146.7,66.4c55.4,36,232.5,384.8,260.2,415.2C2216.8,1311,2263.8,1391.3,2261.1,1430z M304,652.2
	c-52.6-22.1-108-11.1-124.6,27.7c-16.6,36,13.8,85.8,66.4,108c52.6,22.1,108,11.1,124.6-27.7C388.5,692.2,304,652.2,304,652.2z"/>
</svg>
