<?xml version="1.0" encoding="utf-8"?>
<!-- Generator: Adobe Illustrator 14.0.0, SVG Export Plug-In . SVG Version: 6.00 Build 43363)  -->
<!DOCTYPE svg PUBLIC "-//W3C//DTD SVG 1.1//EN" "http://www.w3.org/Graphics/SVG/1.1/DTD/svg11.dtd">
<svg version="1.1"
	 id="svg8" sodipodi:docname="bone.svg" inkscape:version="0.92.4 (5da689c313, 2019-01-14)" xmlns:dc="http://purl.org/dc/elements/1.1/" xmlns:cc="http://creativecommons.org/ns#" xmlns:rdf="http://www.w3.org/1999/02/22-rdf-syntax-ns#" xmlns:svg="http://www.w3.org/2000/svg" xmlns:sodipodi="http://sodipodi.sourceforge.net/DTD/sodipodi-0.dtd" xmlns:inkscape="http://www.inkscape.org/namespaces/inkscape"
	 xmlns="http://www.w3.org/2000/svg" xmlns:xlink="http://www.w3.org/1999/xlink" x="0px" y="0px" width="2267.717px"
	 height="2267.717px" viewBox="-262.784 235.931 2267.717 2267.717" enable-background="new -262.784 235.931 2267.717 2267.717"
	 xml:space="preserve">
<sodipodi:namedview  id="base" inkscape:window-height="962" inkscape:document-units="mm" inkscape:window-x="-8" inkscape:window-y="-8" inkscape:pageopacity="0.0" inkscape:pageshadow="2" inkscape:current-layer="layer1" inkscape:window-width="1280" inkscape:window-maximized="1" borderopacity="1.0" bordercolor="#666666" showgrid="false" pagecolor="#ffffff" inkscape:cy="1110.6021" inkscape:cx="1346.4132" inkscape:zoom="0.1400905">
	</sodipodi:namedview>
<path fill="none" stroke="#000000" stroke-width="0.25" d="M1471.473,1524.509c-53.091-34.58-161.919-86.364-239.873-125.063
	c-30.874-13.086-56.961-26.785-67.455-32.742c-136.245-79.311-244.571-208.782-353.83-328.158
	c-53.895-73.093-99.476-139.361-122.461-180.355c-59.16-63.003-91.314-105.127-51.948-158.831
	c8.352-10.802,21.187-24.611,33.715-40.814c68.35-74.445,193.69-217.015,28.903-363.848c-5.401-4.176-89.423-71.301-201.036-49.726
	c-73.917,11.888-140.845,59.382-201.399,137.697c-41.455,56.405-65.984,169.047,41.73,250.176
	c7.795,3.87,13.252,27.507,7.043,55.068c-2.645,17.372-13.086,30.875-19.962,34.188c-11.665,3.925-36.833-2.589-70.463-37.223
	c-8.102-6.265-65.731-57.297-125.839-32.575c-34.382,16.564-58.521,56.153-67.932,115.759
	c-21.105,158.441,30.176,293.023,136.052,359.786c41.983,23.832,128.901,56.518,193.045,82.382
	c25.474,8.909,45.854,16.036,53.648,19.906c58.156,27.345,142.541,109.954,214.756,187.523
	c52.206,66.723,118.195,150.543,199.367,253.504c15.952,29.594,46.577,59.747,77.507,92.291
	c75.976,80.322,121.635,132.886,82.572,188.983c-8.045,13.195-20.881,27.005-33.408,43.209
	c-68.044,76.839-195.471,222.108,21.543,415.797c5.708,6.571,116.734,94.577,244.855,87.924c11.973-1.531,21.549-2.756,31.127-3.981
	c71.522-11.579,134.274-53.675,183.471-125.669c41.147-58.799,54.264-184.583-86.469-295.557
	c-8.104-6.265-18.96-34.078-15.452-63.727c-0.056-19.461,10.386-32.962,19.656-36.583c11.665-3.925,42.542,9.161,87.278,54.542
	c10.803,8.352,87.336,74.001,150.45,53.761c42.18-12.694,63.617-54.371,64.62-122.636
	C1686.566,1779.279,1607.362,1616.634,1471.473,1524.509z"/>
</svg>
