<?xml version="1.0" encoding="utf-8"?>
<!-- Generator: Adobe Illustrator 14.0.0, SVG Export Plug-In . SVG Version: 6.00 Build 43363)  -->
<!DOCTYPE svg PUBLIC "-//W3C//DTD SVG 1.1//EN" "http://www.w3.org/Graphics/SVG/1.1/DTD/svg11.dtd">
<svg version="1.1"
	 id="svg8" sodipodi:docname="cites.svg" inkscape:version="0.92.4 (5da689c313, 2019-01-14)" xmlns:dc="http://purl.org/dc/elements/1.1/" xmlns:cc="http://creativecommons.org/ns#" xmlns:rdf="http://www.w3.org/1999/02/22-rdf-syntax-ns#" xmlns:svg="http://www.w3.org/2000/svg" xmlns:sodipodi="http://sodipodi.sourceforge.net/DTD/sodipodi-0.dtd" xmlns:inkscape="http://www.inkscape.org/namespaces/inkscape"
	 xmlns="http://www.w3.org/2000/svg" xmlns:xlink="http://www.w3.org/1999/xlink" x="0px" y="0px" width="2267.717px"
	 height="2267.717px" viewBox="1379.948 282.209 2267.717 2267.717" enable-background="new 1379.948 282.209 2267.717 2267.717"
	 xml:space="preserve">
<sodipodi:namedview  id="base" inkscape:window-height="962" inkscape:document-units="mm" inkscape:window-x="-8" inkscape:window-y="-8" inkscape:pageopacity="0.0" inkscape:pageshadow="2" inkscape:current-layer="layer1" inkscape:window-width="1280" inkscape:window-maximized="1" borderopacity="1.0" bordercolor="#666666" showgrid="false" pagecolor="#ffffff" inkscape:cy="1174.2849" inkscape:cx="1410.1257" inkscape:zoom="0.1400905">
	</sodipodi:namedview>
<g id="layer1" transform="translate(0.08753925,149.13229)" inkscape:groupmode="layer" inkscape:label="Capa 1">
	<path id="path3713" inkscape:connector-curvature="0" fill="none" stroke="#000000" stroke-width="0.2646" d="M2412.112,1041.836
		h242.213v624.653h286.83c0-206.519,0-416.861,0-624.653c77.763,0,158.075,2.549,234.563,0
		c-28.046-82.438-55.241-166.149-81.588-251.136h-601.706C2465.653,872.287,2438.883,957.699,2412.112,1041.836z M3553.06,876.113
		c-43.662-23.804-93.14-34.847-142.778-31.871c-94.336,6.374-146.603,67.564-173.374,138.954h73.94
		c36.543,103.684,72.663,208.218,108.357,313.601h-124.932c14.024,36.971,34.421,81.587,50.992,118.557
		c6.585,13.143,12.126,26.783,16.573,40.795c7.649,28.043-2.55,61.189-25.497,65.014c-17.846,3.825-35.693-2.55-56.09,0
		c-12.749,48.442-24.223,96.886-36.97,145.328c49.717,0,101.983-2.551,150.427,0c-5.101,20.396-10.198,40.794-15.297,62.465
		c122.379,11.474,202.693-28.046,239.661-108.358c13.917-28.825,22.554-59.912,25.497-91.785
		c3.824-52.268-14.023-82.862-30.596-121.106c-29.32-62.466-52.268-113.457-80.313-174.649
		c-14.023-28.044-42.068-70.112-30.595-105.808c9.353-31.119,37.63-52.714,70.114-53.542c19.795,1.646,38.76,8.703,54.815,20.397
		c1.275,1.275,3.824,5.1,6.375,2.549C3606.6,1025.263,3579.83,950.051,3553.06,876.113z M3206.314,1062.233h-239.663v623.377
		h-112.183v215.442h451.279c17.848-71.389,35.695-145.328,54.817-216.717c-71.39,0-144.053,2.55-214.166,0v-101.984h87.96
		c16.998-70.538,33.995-141.077,50.992-211.617h-127.479c0-33.145-2.551-67.563,0-98.16h229.463
		c-30.595-90.51-62.465-178.472-94.335-268.982h-103.259C3192.291,1022.714,3202.489,1041.836,3206.314,1062.233z
		 M2349.071,1072.718c-1.169,0.783-1.482,2.368-0.7,3.537v827.347c91.787,0,187.396,0,280.457,0c0-275.356,0-554.539,0-831.17
		c-90.512,0-186.121,0-279.183,0C2349.444,1072.503,2349.25,1072.598,2349.071,1072.718z M2125.28,1861.533
		c-2.549,53.542,85.413,54.816,84.138,2.549c-0.119-1.572-0.329-3.137-0.628-4.687c-4.289-22.116-25.697-36.57-47.814-32.281
		C2142.243,1828.275,2127.122,1842.856,2125.28,1861.533z M2136.755,1857.71c2.98-10.233,11.277-18.043,21.671-20.398
		c4.74-1.526,9.781-1.874,14.685-1.013c16.643,2.927,27.762,18.792,24.834,35.434c-6.375,34.418-72.665,28.046-62.465-14.022
		H2136.755z M2150.777,1851.335c-19.121,26.771,29.321,53.542,35.694,17.848c-12.747-1.275-7.648,10.198-16.571,10.198
		c-16.572,1.275-16.572-28.046,0-28.046c8.923,1.275,3.825,8.924,17.846,7.649
		C2186.471,1841.137,2159.701,1841.137,2150.777,1851.335z M1809.13,1637.169c53.765,10.451,108.863,12.173,163.176,5.099
		c47.22-6.702,93.451-19.117,137.678-36.969c71.917-26.115,139.414-63.088,200.144-109.635c11.047-3.46,18.376-13.93,17.847-25.495
		c-15.297,10.198-28.045,22.946-44.618,33.146c-49.57,33.205-102.566,60.986-158.076,82.862
		c-84.139,38.44-176.856,54.26-268.982,45.893c-44.382-5.123-88.019-15.391-130.03-30.596
		c-110.433-38.075-209.21-103.927-286.83-191.221c89.236,61.19,196.319,130.029,340.372,137.68
		c48.367,1.999,96.789-2.288,144.052-12.748c81.11-16.207,158.222-48.267,226.915-94.336
		c48.331-30.573,94.348-64.66,137.678-101.984c15.638-10.384,29.426-23.31,40.794-38.244c1.084-10.595,1.084-21.273,0-31.869
		v-99.436c-57.365,40.794-116.005,98.161-216.716,90.512c-40.873-3.26-79.681-19.317-110.907-45.893
		c-30.311-23.773-51.839-56.966-61.19-94.334c-21.691-83.226,16.884-170.417,93.062-210.345
		c38.802-21.702,83.15-31.459,127.479-28.044c41.763,4.3,82.154,17.33,118.557,38.245c22.946-77.763,48.442-154.252,71.389-230.74
		c-61.178-28.696-126.628-47.211-193.77-54.815c-73.373-8.863-147.797-1.462-217.992,21.671
		c-115.279,41.544-208.4,128.671-257.511,240.937c-28.753,65.822-42.261,137.291-39.518,209.067
		c2.779,67.944,22.499,134.115,57.365,192.495c31.32,50.256,72.522,93.626,121.106,127.481
		c50.167,37.086,106.181,65.524,165.724,84.136c-56.922,15.934-115.565,24.923-174.646,26.771
		c-59.14,0.063-117.829-10.295-173.374-30.595c-93.696-34.242-180.168-85.691-254.961-151.703"/>
</g>
</svg>
