<?xml version="1.0" encoding="utf-8"?>
<!-- Generator: Adobe Illustrator 14.0.0, SVG Export Plug-In . SVG Version: 6.00 Build 43363)  -->
<!DOCTYPE svg PUBLIC "-//W3C//DTD SVG 1.1//EN" "http://www.w3.org/Graphics/SVG/1.1/DTD/svg11.dtd">
<svg version="1.1"
	 id="svg8" sodipodi:docname="cobi-1.svg" inkscape:version="0.92.4 (5da689c313, 2019-01-14)" xmlns:dc="http://purl.org/dc/elements/1.1/" xmlns:cc="http://creativecommons.org/ns#" xmlns:rdf="http://www.w3.org/1999/02/22-rdf-syntax-ns#" xmlns:svg="http://www.w3.org/2000/svg" xmlns:sodipodi="http://sodipodi.sourceforge.net/DTD/sodipodi-0.dtd" xmlns:inkscape="http://www.inkscape.org/namespaces/inkscape"
	 xmlns="http://www.w3.org/2000/svg" xmlns:xlink="http://www.w3.org/1999/xlink" x="0px" y="0px" width="2267.717px"
	 height="2267.717px" viewBox="4058.171 283.84 2267.717 2267.717" enable-background="new 4058.171 283.84 2267.717 2267.717"
	 xml:space="preserve">
<sodipodi:namedview  id="base" inkscape:window-height="962" inkscape:document-units="mm" inkscape:window-x="-8" inkscape:window-y="-8" inkscape:pageopacity="0.0" inkscape:pageshadow="2" inkscape:current-layer="layer1" inkscape:window-width="1280" inkscape:window-maximized="1" borderopacity="1.0" bordercolor="#666666" showgrid="false" pagecolor="#ffffff" inkscape:cy="1174.8543" inkscape:cx="1410.2949" inkscape:zoom="0.1400905">
	</sodipodi:namedview>
<g id="layer1" transform="translate(0.13229166,150.13229)" inkscape:groupmode="layer" inkscape:label="Capa 1">
	<path id="path3713" inkscape:connector-curvature="0" fill="none" stroke="#000000" stroke-width="0.25" d="M4679.407,1267.567
		c0,170.111-138.062,308.172-308.172,308.172s-308.172-138.061-308.172-308.172c0-170.111,138.061-308.173,308.172-308.173
		S4679.407,1097.456,4679.407,1267.567z M4660.917,1267.567c0-159.634-130.048-290.299-289.682-290.299
		s-289.681,130.665-289.681,290.299c0,159.633,130.048,290.298,289.681,290.298S4660.917,1427.199,4660.917,1267.567z
		 M4320.688,1115.323c-0.341-14.635-12.479-26.221-27.112-25.88c-14.637,0-26.503,11.866-26.503,26.503l0,0
		c0,14.637,11.866,26.502,26.503,26.502c0.208,0.005,0.416,0.007,0.623,0.007c14.638-0.003,26.5-11.873,26.497-26.51
		C4320.695,1115.738,4320.693,1115.53,4320.688,1115.323z M4414.379,1143.065c1.849,46.226,5.546,71.497,44.376,85.056
		c38.829,39.446,73.961,130.049,58.552,121.42c-5.546,3.082-17.874-14.177-43.76-58.553c-7.396-12.943-12.943-17.874-18.491-8.63
		c0,6.163,7.396,33.283,8.63,43.146c1.232,9.86,27.119,92.45,1.232,84.438c-8.629-5.548-22.805-59.169-22.805-59.169l-19.723-9.862
		c0,0,1.232,46.844-1.233,49.925c-9.245,8.629-19.723,3.082-24.653-11.095l2.466-150.388c0,0-7.396-115.872,3.081-126.966
		C4411.914,1091.909,4414.379,1143.065,4414.379,1143.065z M4455.057,1159.09c-11.573,0-20.955,9.382-20.955,20.957
		c0,11.573,9.381,20.955,20.955,20.955c11.574,0,20.956-9.381,20.956-20.955C4476.013,1168.472,4466.631,1159.09,4455.057,1159.09z
		 M5123.791,1377.275c21.573,21.573,52.39,67.182,52.39,69.647c0,3.698-2.466,8.013-6.78,14.177
		c-41.911,48.69-101.696,54.237-171.343,54.237c-70.879,0-128.815-23.421-173.192-71.495
		c-43.144-46.227-64.716-104.779-64.716-175.042c0-68.415,20.955-126.351,63.483-173.81c43.761-49.923,99.848-71.497,168.262-74.577
		c30.201-1.233,131.897,1.849,173.809,46.842c4.314,4.93,6.78,9.245,6.78,12.943c0,4.315-38.213,85.672-103.545,64.716
		c-19.107-5.547-44.377-6.779-64.101-6.779c-33.282,0-62.867,18.49-83.206,43.144c-18.491,23.421-27.736,51.157-27.736,85.055
		c0,33.898,9.246,62.866,27.736,85.673c20.339,25.269,47.458,46.842,80.741,50.54
		C5065.855,1409.324,5109.615,1363.099,5123.791,1377.275z M5614.4,1091.909c45.61,48.074,69.032,106.626,69.032,176.272
		c0,69.647-22.806,128.817-68.414,175.659c-46.227,48.074-104.779,72.111-175.659,72.111c-70.879,0-129.433-24.037-175.657-72.729
		c-46.227-47.458-69.03-105.395-69.03-175.042c0-69.646,22.804-128.815,69.03-176.272c46.225-48.692,104.778-72.73,175.657-72.73
		C5509.005,1019.179,5567.559,1043.217,5614.4,1091.909z M5553.382,1267.567c0-33.899-10.477-62.252-30.817-86.289
		c-22.188-24.654-49.924-36.98-83.206-36.98c-32.666,0-59.785,12.943-81.974,38.829c-21.572,24.654-32.666,53.006-32.666,85.055
		c0,33.899,9.861,62.867,30.201,85.673c21.571,24.037,49.924,35.748,84.438,35.748c32.05,0,59.168-12.328,81.974-37.597
		C5542.906,1327.351,5553.382,1299.616,5553.382,1267.567z M6141.375,1358.169c0,41.295-13.56,75.811-39.445,102.93
		c-30.201,30.816-82.592,46.842-157.785,46.842c-5.547,0-13.56,0-24.653-0.616c-10.479,0-19.107,0-24.038,0
		c-84.439,0-51.773,0-68.414,0c-51.773,0.616-73.345-42.528-80.741-63.483v-412.334c7.396-1.233,33.899-1.233,78.893-1.233
		c73.345,0,115.872,0,128.199,0.617c56.087,1.85,97.382,11.094,123.885,26.503c35.749,21.572,53.006,57.32,53.006,108.477
		c0,12.944-3.698,27.119-11.711,41.912c-6.163,10.477-14.176,20.956-23.421,31.433c-8.63,9.245-12.943,13.559-12.943,12.944
		c0,1.848,3.082,4.315,9.245,7.396c16.026,9.246,28.353,23.421,37.597,42.528C6137.06,1319.956,6141.375,1338.447,6141.375,1358.169
		z M5862.788,1225.038h70.879c19.107,0,33.898-1.85,44.378-5.547c10.478-3.699,18.489-10.478,24.036-20.956
		c4.314-6.779,6.164-15.409,6.164-24.038c0-19.106-6.779-32.05-20.34-38.213c-13.559-6.164-34.515-9.861-62.251-9.861h-62.866
		V1225.038z M6023.653,1352.622c0-19.725-6.779-33.283-20.34-41.912c-13.558-8.629-33.282-12.943-60.401-12.943h-80.124v110.942
		h82.59C5997.766,1408.709,6023.653,1389.603,6023.653,1352.622z M6320.731,1088.209v414.801c-1.233,0.616-2.465,0.616-3.698,0.616
		c-11.094,1.85-86.904-12.327-105.395-50.541v-421.579C6251.084,1032.123,6305.322,1060.475,6320.731,1088.209z M4275.085,1180.046
		c53.622-32.667,130.048-146.691,130.048-146.691c24.038-1.849-60.401,150.388-60.401,150.388l0.616,189.218
		c-3.698,20.956-19.723,25.271-27.735,5.547c-1.849-4.932-1.233-53.622-1.233-53.622l-27.735,27.12c0,0-4.931,41.295-16.642,48.689
		c-34.515,11.095-16.024-36.363-5.547-87.52c3.082-12.944,5.547-56.088,5.547-64.717c-7.396-12.943-11.094-7.396-20.956,9.245
		c-7.396,13.56-33.899,73.345-40.679,69.646C4188.797,1327.968,4219.615,1252.773,4275.085,1180.046z M4590.038,1415.489
		c0,0-75.194,123.269-218.803,123.269c-139.91,0-217.569-123.269-217.569-123.269c1.233-18.489,41.912-54.237,84.439,0
		c28.968,37.597,77.043,13.561,89.369,0.616c11.711-12.327,48.692-42.528,88.138-3.082c36.364,36.365,70.263,26.503,94.917,1.851
		C4510.529,1414.873,4557.038,1350.99,4590.038,1415.489z"/>
</g>
</svg>
