<?xml version="1.0" encoding="utf-8"?>
<!-- Generator: Adobe Illustrator 22.1.0, SVG Export Plug-In . SVG Version: 6.00 Build 0)  -->
<svg version="1.1"
	 id="svg8" inkscape:version="0.92.4 (5da689c313, 2019-01-14)" sodipodi:docname="dulceacuicola.svg" xmlns:cc="http://creativecommons.org/ns#" xmlns:dc="http://purl.org/dc/elements/1.1/" xmlns:inkscape="http://www.inkscape.org/namespaces/inkscape" xmlns:rdf="http://www.w3.org/1999/02/22-rdf-syntax-ns#" xmlns:sodipodi="http://sodipodi.sourceforge.net/DTD/sodipodi-0.dtd" xmlns:svg="http://www.w3.org/2000/svg"
	 xmlns="http://www.w3.org/2000/svg" xmlns:xlink="http://www.w3.org/1999/xlink" x="0px" y="0px" viewBox="0 0 2267.7 2267.7"
	 style="enable-background:new 0 0 2267.7 2267.7;" xml:space="preserve">
<style type="text/css">
	.st0{fill:none;stroke:#000000;stroke-width:0.2646;}
</style>
<sodipodi:namedview  bordercolor="#666666" borderopacity="1.0" id="base" inkscape:current-layer="layer1" inkscape:cx="1172.1847" inkscape:cy="940.52366" inkscape:document-units="mm" inkscape:pageopacity="0.0" inkscape:pageshadow="2" inkscape:window-height="962" inkscape:window-maximized="1" inkscape:window-width="1280" inkscape:window-x="-8" inkscape:window-y="-8" inkscape:zoom="0.1400905" pagecolor="#ffffff" showgrid="false">
	</sodipodi:namedview>
<g id="layer1" transform="translate(-62.867708,88.132292)" inkscape:groupmode="layer" inkscape:label="Capa 1">
	<path id="path3713" inkscape:connector-curvature="0" class="st0" d="M2321.2-80.3v1125.8c0,622-503.8,1125.8-1125.8,1125.8
		S72.3,1670,72.3,1045.5S573.5-80.3,1195.4-80.3H2321.2z M2146.4,1405.3c12.9-20.6,20.6-46.3,25.7-72
		c-95.1,7.7-192.8,38.6-269.9,97.7c-82.2,64.3-185.1,90-287.9,90s-205.6-33.4-290.4-90c-95.1-64.3-205.6-97.7-321.3-97.7
		s-223.6,33.4-321.3,97.7c-82.2,56.5-179.9,82.2-282.7,82.2c-38.6,0-82.2-5.1-120.8-12.9c12.9,25.7,30.8,51.4,43.7,77.1
		c25.7,7.7,51.4,7.7,77.1,7.7c115.7,0,226.2-33.4,321.3-97.7c84.8-64.3,187.6-90,290.4-90s205.6,33.4,287.9,90
		c97.7,64.3,205.6,97.7,321.3,97.7c115.7,0,226.2-33.4,321.3-97.7C2005.1,1443.8,2082.2,1418.1,2146.4,1405.3z M2218.4,1114.9
		c0-25.7,0-43.7,0-69.4v-7.7c-90-56.5-200.5-90-308.4-82.2c-115.7,0-226.2,30.8-321.3,95.1c-84.8,64.3-187.6,90-290.4,90
		s-205.6-30.8-287.9-90c-97.7-64.3-205.6-95.1-321.3-95.1s-226.2,30.8-321.3,95.1c-59.1,38.6-128.5,64.3-200.5,77.1
		c0,25.7,0,46.3,7.7,72c82.2-12.9,159.4-46.3,231.3-90c82.2-64.3,185.1-90,287.9-90s205.6,30.8,290.4,90
		c95.1,64.3,205.6,95.1,321.3,95.1c115.7,0,223.6-30.8,321.3-95.1c82.2-64.3,185.1-90,287.9-90s205.6,30.8,290.4,90L2218.4,1114.9z
		 M239.3,659.9c51.4-12.9,95.1-20.6,146.5-20.6c102.8,0,205.6,33.4,290.4,90c95.1,64.3,205.6,97.7,321.3,97.7s223.6-33.4,321.3-97.7
		c82.2-64.3,185.1-90,287.9-90s205.6,33.4,290.4,90c95.1,64.3,205.6,97.7,321.3,97.7h5.1V17.4H1195.4
		C528.2,9.3,239.3,659.9,239.3,659.9z"/>
</g>
</svg>
