<?xml version="1.0" encoding="utf-8"?>
<!-- Generator: Adobe Illustrator 22.1.0, SVG Export Plug-In . SVG Version: 6.00 Build 0)  -->
<svg version="1.1"
	 id="svg8" inkscape:version="0.92.4 (5da689c313, 2019-01-14)" sodipodi:docname="en-peligro-de-extincion-p-evaluacion-conabio.svg" xmlns:cc="http://creativecommons.org/ns#" xmlns:dc="http://purl.org/dc/elements/1.1/" xmlns:inkscape="http://www.inkscape.org/namespaces/inkscape" xmlns:rdf="http://www.w3.org/1999/02/22-rdf-syntax-ns#" xmlns:sodipodi="http://sodipodi.sourceforge.net/DTD/sodipodi-0.dtd" xmlns:svg="http://www.w3.org/2000/svg"
	 xmlns="http://www.w3.org/2000/svg" xmlns:xlink="http://www.w3.org/1999/xlink" x="0px" y="0px" viewBox="0 0 2267.7 2267.7"
	 style="enable-background:new 0 0 2267.7 2267.7;" xml:space="preserve">
<style type="text/css">
	.st0{fill:none;stroke:#000000;stroke-width:0.2646;}
</style>
<sodipodi:namedview  bordercolor="#666666" borderopacity="1.0" id="base" inkscape:current-layer="layer1" inkscape:cx="1996.5347" inkscape:cy="1999.2939" inkscape:document-units="mm" inkscape:pageopacity="0.0" inkscape:pageshadow="2" inkscape:window-height="962" inkscape:window-maximized="1" inkscape:window-width="1280" inkscape:window-x="-8" inkscape:window-y="-8" inkscape:zoom="0.14369886" pagecolor="#ffffff" showgrid="false">
	</sodipodi:namedview>
<path class="st0" d="M2146.7,1016.5c0-557.2-451.6-1008.8-1008.8-1008.8C580.7,7.6,129.1,459.3,129.1,1016.5
	c0,245.9,88,471.3,234.2,646.2h-1.5c297.8,352.9,776.3,592.7,776.3,592.7s478.6-239.8,776.4-592.7h-1.9
	C2058.7,1487.8,2146.7,1262.3,2146.7,1016.5z M1303.1,1171.3c-45.4,38.5-110,57.8-193.8,57.8h-61.5v240.3H904.6V793.8h215.8
	c81.9,0,144.2,17.6,186.9,52.9c42.7,35.3,64,87.9,64,157.8C1371.3,1077.2,1348.6,1132.8,1303.1,1171.3z M1199.1,935.2
	c18.3,16,27.5,40.8,27.5,74.4c0,33.3-10.9,58.6-32.8,76c-21.8,17.4-54.8,26.1-98.9,26.1h-47.1V911.2h65.2
	C1152.1,911.2,1180.8,919.2,1199.1,935.2z"/>
</svg>
