<?xml version="1.0" encoding="utf-8"?>
<!-- Generator: Adobe Illustrator 22.1.0, SVG Export Plug-In . SVG Version: 6.00 Build 0)  -->
<svg version="1.1"
	 id="svg8" inkscape:version="0.92.4 (5da689c313, 2019-01-14)" sodipodi:docname="ev1.svg" xmlns:cc="http://creativecommons.org/ns#" xmlns:dc="http://purl.org/dc/elements/1.1/" xmlns:inkscape="http://www.inkscape.org/namespaces/inkscape" xmlns:rdf="http://www.w3.org/1999/02/22-rdf-syntax-ns#" xmlns:sodipodi="http://sodipodi.sourceforge.net/DTD/sodipodi-0.dtd" xmlns:svg="http://www.w3.org/2000/svg"
	 xmlns="http://www.w3.org/2000/svg" xmlns:xlink="http://www.w3.org/1999/xlink" x="0px" y="0px" viewBox="0 0 2267.7 2267.7"
	 style="enable-background:new 0 0 2267.7 2267.7;" xml:space="preserve">
<style type="text/css">
	.st0{fill:none;stroke:#000000;stroke-width:0.2646;}
</style>
<sodipodi:namedview  bordercolor="#666666" borderopacity="1.0" id="base" inkscape:current-layer="layer1" inkscape:cx="937.85394" inkscape:cy="539.50727" inkscape:document-units="mm" inkscape:pageopacity="0.0" inkscape:pageshadow="2" inkscape:window-height="962" inkscape:window-maximized="1" inkscape:window-width="1280" inkscape:window-x="-8" inkscape:window-y="-8" inkscape:zoom="0.1400905" pagecolor="#ffffff" showgrid="false">
	</sodipodi:namedview>
<g id="layer1" transform="translate(-124.86771,-382.89448)" inkscape:groupmode="layer" inkscape:label="Capa 1">
	<path id="path3713" inkscape:connector-curvature="0" class="st0" d="M1017.2,1647.8c-13.9,0-30.2-7-37.1-20.9
		c-7-13.9-192.6-313.3-503.6-313.3c-74.3,0-153.2,18.6-229.8,53.4l-20.9,9.3l18.6,11.6c16.2,9.3,39.5,23.2,60.3,41.8
		c127.6,106.8,201.9,232.1,218.2,373.6l2.3,7c7,20.9-7,44.1-27.8,51.1c-23.2,7-48.7-2.3-55.7-25.5c-4.6-7-4.6-13.9-7-23.2
		c-4.6-44.1-20.9-178.7-188-318c-20.9-18.6-48.7-32.5-67.3-46.4l-7-4.6c-4.6-2.3-7-4.6-11.6-7c-20.9-13.9-32.5-39.5-32.5-67.3
		c2.3-23.2,13.9-55.7,39.5-69.6c104.4-53.4,208.9-81.2,308.7-81.2c362,0,577.9,352.8,580.2,355.1c11.6,20.9,4.6,48.7-16.2,60.3
		C1033.5,1638.5,1026.5,1640.8,1017.2,1647.8z M2077.8,1824.2c-9.3,23.2-34.8,37.1-58,27.8c-20.9-7-32.5-30.2-25.5-53.4v-7
		c16.2-139.2,88.2-266.9,218.2-373.6c20.9-18.6,41.8-32.5,58-41.8l20.9-11.6l-23.2-9.3c-76.6-34.8-153.2-51.1-227.4-51.1
		c-46.4,0-95.2,7-139.2,20.9c-16.2,4.6-32.5,4.6-58-9.3l-18.6-9.3v20.9c0,18.6-7,32.5-25.5,39.5c-164.8,90.5-259.9,246-259.9,248.3
		c-7,11.6-20.9,20.9-37.1,20.9c-9.3,0-16.2-2.3-23.2-7c-23.2-11.6-30.2-39.5-16.2-60.3c2.3-4.6,92.8-153.2,257.6-257.6l9.3-4.6
		l-7-16.2c-16.2-39.5-27.8-62.7-18.6-88.2c2.3-13.9,11.6-20.9,25.5-27.8c32.5-13.9,62.7,7,111.4,37.1h2.3
		c11.6,7,27.8,16.2,37.1,23.2h4.6h4.6c148.5-41.8,304-20.9,459.5,60.3c30.2,11.6,37.1,44.1,39.5,67.3c2.3,30.2-9.3,53.4-32.5,67.3
		c-4.6,0-9.3,4.6-16.2,9.3h-2.3c-20.9,13.9-46.4,30.2-69.6,46.4c-164.8,141.6-181,273.9-185.7,318
		C2080.1,1812.6,2080.1,1819.5,2077.8,1824.2z M604.1,1422.7c0-23.2-18.6-39.5-39.5-39.5c-23.2,0-39.5,16.2-39.5,39.5
		c0,20.9,16.2,39.5,39.5,39.5C583.2,1462.1,601.8,1445.9,604.1,1422.7z M2005.9,1422.7c0-23.2-18.6-39.5-39.5-39.5
		s-39.5,16.2-39.5,39.5c0,20.9,18.6,39.5,39.5,39.5S2005.9,1445.9,2005.9,1422.7z"/>
</g>
</svg>
