<?xml version="1.0" encoding="utf-8"?>
<!-- Generator: Adobe Illustrator 22.1.0, SVG Export Plug-In . SVG Version: 6.00 Build 0)  -->
<svg version="1.1"
	 id="svg8" inkscape:version="0.92.4 (5da689c313, 2019-01-14)" sodipodi:docname="macaulay_library.svg" xmlns:cc="http://creativecommons.org/ns#" xmlns:dc="http://purl.org/dc/elements/1.1/" xmlns:inkscape="http://www.inkscape.org/namespaces/inkscape" xmlns:rdf="http://www.w3.org/1999/02/22-rdf-syntax-ns#" xmlns:sodipodi="http://sodipodi.sourceforge.net/DTD/sodipodi-0.dtd" xmlns:svg="http://www.w3.org/2000/svg"
	 xmlns="http://www.w3.org/2000/svg" xmlns:xlink="http://www.w3.org/1999/xlink" x="0px" y="0px" viewBox="0 0 2267.7 2267.7"
	 style="enable-background:new 0 0 2267.7 2267.7;" xml:space="preserve">
<style type="text/css">
	.st0{fill:none;stroke:#000000;stroke-miterlimit:10;}
</style>
<sodipodi:namedview  bordercolor="#666666" borderopacity="1.0" id="base" inkscape:current-layer="layer1" inkscape:cx="19665.043" inkscape:cy="167.16536" inkscape:document-units="mm" inkscape:pageopacity="0.0" inkscape:pageshadow="2" inkscape:window-height="962" inkscape:window-maximized="1" inkscape:window-width="1280" inkscape:window-x="-8" inkscape:window-y="-8" inkscape:zoom="0.108" pagecolor="#ffffff" showgrid="false">
	</sodipodi:namedview>
<g id="layer1" transform="translate(0.13229166,150.13229)" inkscape:groupmode="layer" inkscape:label="Capa 1">
	<path id="path3713" inkscape:connector-curvature="0" class="st0" d="M3,1059.4h45.9V899.9h0.6l52.6,159.5h34.8l54.3-159.5h0.6
		v159.5h45.9V851.7h-68.9l-48.2,135.8h-0.6L71.9,851.7H3V1059.4z M356.7,918.9c8.8,3.2,14.9,7.9,20.2,14c5,6.1,8.8,14,10.5,23.4
		c1.8,9.1,2.9,19.6,2.9,31.8v72.7H350v-19h-0.6c-5.5,7.3-12.3,12.9-20.2,16.4c-7.9,3.2-16.4,5-25.7,5c-6.7,0-12.9-1.2-19-3.2
		c-5.8-1.8-11.4-4.7-16.4-8.5c-5-3.5-8.5-8.5-11.1-14c-2.3-5.5-4.1-11.7-4.1-19c0-7.9,1.2-15.2,4.1-20.7c3.2-5.5,7.3-10.2,12.3-14
		c5-3.8,11.1-6.7,17.8-8.5c6.7-2,13.4-3.8,20.7-4.4c7.3-1.2,14-1.8,21.3-1.8h19.6c0-7.9-2.9-14-8.5-18.4c-5.5-5-12.3-6.7-19.6-6.7
		c-7.3,0-14,1.2-19.6,4.4c-6.1,2.9-11.1,7.3-15.8,12l-23.4-23.7c7.9-7.3,17.8-13.4,28.6-17.2c11.1-3.5,22.2-5.5,34.5-5.5
		C337.7,913.9,348.3,916,356.7,918.9z M326.3,997.7c-5,0-9.9,1.2-14.6,2.3c-5,1.5-8.8,3.8-11.7,6.1c-3.2,2.6-5,6.7-5,11.7
		c0,5.5,2.3,9.1,6.7,11.7c4.4,2.3,9.1,3.5,14,3.5c4.4,0,8.5-0.6,12.3-1.8c4.4-1.2,7.3-2.9,11.1-5c2.9-2.3,5.3-4.7,7.3-7.9
		c1.8-2.9,2.9-7.3,2.9-11.7v-9.1h-10.8v-0.6C335.4,997.2,331,997.2,326.3,997.7z M535.8,931.7c-7.3-6.7-15.2-11.7-24.2-14.6
		c-9.3-3.2-17.8-4.4-26.3-4.4c-11.1,0-21.6,2-31.3,5.5c-9.6,3.8-17.8,8.5-25.1,15.2s-12.9,14.9-16.9,24c-4.4,9.1-6.1,19-6.1,30.7
		c0,10.8,1.8,21.3,6.1,30.4c4.1,9.3,9.6,17.2,16.9,24c6.7,6.7,15.5,11.7,25.1,15.2c9.6,3.8,20.2,5.5,31.3,5.5
		c7.9,0,16.9-1.2,26.3-4.4c9.6-2.3,17.5-7.3,24.2-14.6l-29.2-30.7c-2.3,2.6-5.5,5-9.1,7.6c-3.8,1.8-8.2,2.9-12.9,2.9
		c-11.1,0-19.6-2.9-25.7-9.6s-9.3-15.5-9.3-26.3c0-11.1,3.2-19.6,9.3-26.3s14.6-9.9,25.7-9.9c4.7,0,9.1,1.2,12.9,3.2
		c4.1,2.3,6.7,4.7,9.1,7.9L535.8,931.7z M651.4,918.9c8.5,3.2,14.6,7.9,20.2,14c4.7,6.1,8.5,14,10.2,23.4c2,9.1,3.2,19.6,3.2,31.8
		v72.7h-40.3v-19h-0.6c-5.5,7.3-12.3,12.9-20.2,16.4c-8.2,3.2-16.6,5-25.7,5c-6.7,0-12.9-1.2-19-3.2c-6.1-1.8-11.7-4.7-16.6-8.5
		c-4.7-3.5-8.5-8.5-10.8-14c-2.6-5.5-4.4-11.7-4.4-19c0-7.9,1.2-15.2,4.4-20.7c2.9-5.5,7.3-10.2,12.3-14c4.7-3.8,10.8-6.7,17.5-8.5
		c6.7-2,13.4-3.8,20.7-4.4c7.3-1.2,14-1.8,21.6-1.8h19.6c0-7.9-3.2-14-8.8-18.4c-5.5-5-12.3-6.7-19.6-6.7s-14,1.2-19.6,4.4
		c-6.1,2.9-10.8,7.3-15.8,12l-23.4-23.7c8.2-7.3,17.8-13.4,28.9-17.2c10.8-3.5,21.9-5.5,34.2-5.5C632.4,913.9,642.7,916,651.4,918.9
		z M620.8,997.7c-5,0-9.6,1.2-14.6,2.3c-5,1.5-8.5,3.8-11.7,6.1c-2.9,2.6-5,6.7-5,11.7c0,5.5,2.6,9.1,6.7,11.7
		c4.4,2.3,9.3,3.5,14.3,3.5c4.1,0,8.5-0.6,12-1.8c4.4-1.2,7.3-2.9,11.1-5c2.9-2.3,5.5-4.7,7.3-7.9c1.8-2.9,3.2-7.3,3.2-11.7v-9.1
		H633v-0.6C629.8,997.2,625.7,997.2,620.8,997.7z M841.9,917.1h-43.8v71.6c0,4.7,0,9.1-0.6,13.4c-0.6,4.1-2,7.9-3.8,11.4
		c-1.8,3.2-4.1,6.1-7.9,8.2c-3.8,1.8-8.5,2.9-14,2.9s-9.9-1.2-12.9-3.5c-3.2-2.6-5.5-5.5-6.7-9.3c-1.2-3.5-2.3-7.9-2.3-12.3
		c-0.9-4.1-0.9-8.5-0.9-12.9v-69.5h-43.8v78.3c0,9.6,0.6,19,1.8,26.9c1.2,7.9,3.8,15.2,7.3,21.3c3.8,6.1,9.3,10.5,16.1,14
		c6.7,3.2,15.8,5,26.9,5c5.3,0,10.2-0.6,14.6-1.8c5-2,8.5-3.2,12.3-5.5c3.5-2.6,6.7-5,9.1-7.3c2.3-2.6,4.4-5.5,6.1-8.2h0.6v19.6
		h42.1V917.1z M870.8,1059.4h43.8V837.7h-43.8V1059.4z M1035.8,918.9c8.5,3.2,14.6,7.9,20.2,14c4.7,6.1,8.5,14,10.2,23.4
		c1.8,9.1,3.2,19.6,3.2,31.8v72.7h-40.3v-19h-0.6c-5.5,7.3-12.3,12.9-20.4,16.4c-7.9,3.2-16.4,5-25.4,5c-6.7,0-12.9-1.2-19-3.2
		c-6.1-1.8-11.7-4.7-16.6-8.5c-4.7-3.5-8.5-8.5-10.8-14c-2.6-5.5-4.4-11.7-4.4-19c0-7.9,1.2-15.2,4.4-20.7c2.9-5.5,7.3-10.2,12-14
		c5-3.8,11.1-6.7,17.8-8.5c6.7-2,13.4-3.8,20.7-4.4c7.3-1.2,14-1.8,21.3-1.8h19.6c0-7.9-2.9-14-8.5-18.4c-5.5-5-12.3-6.7-19.6-6.7
		s-14,1.2-19.6,4.4c-6.1,2.9-10.8,7.3-15.8,12l-23.4-23.7c8.2-7.3,17.8-13.4,28.9-17.2c10.8-3.5,21.9-5.5,34.2-5.5
		C1016.8,913.9,1027,916,1035.8,918.9z M1005.1,997.7c-5,0-9.6,1.2-14.6,2.3c-5,1.5-8.8,3.8-11.7,6.1c-2.9,2.6-5,6.7-5,11.7
		c0,5.5,2.6,9.1,6.7,11.7c4.4,2.3,9.3,3.5,14,3.5c4.4,0,8.8-0.6,12.3-1.8c4.4-1.2,7.3-2.9,11.1-5c2.9-2.3,5.5-4.7,7.3-7.9
		c1.8-2.9,3.2-7.3,3.2-11.7v-9.1h-11.1v-0.6C1014.2,997.2,1010.1,997.2,1005.1,997.7z M1235.6,917.1h-45.3l-31.3,94h-0.6l-36.5-94
		h-47.9l63.1,142.8l-3.2,8.2c-1.2,4.1-2.9,7.3-4.1,10.2c-1.2,3.2-3.2,5.5-5,7.3c-2.3,2.6-5,3.8-7.9,5c-3.2,1.2-7.3,1.8-12.3,1.8
		c-7.3,0-14-1.2-20.7-4.1l-6.1,35.9c11.1,3.8,21.3,5.5,33,5.5c11.1,0,19-1.2,25.7-2.9c6.1-2,11.7-5,15.8-9.3
		c4.4-3.5,7.9-8.5,10.5-14.6c2.9-5.5,5.5-12.9,8.5-20.2L1235.6,917.1z M1331.4,1059.4h130.9v-42.1h-85V851.7h-45.9V1059.4z
		 M1485.9,890.8c5.5,5,11.1,7.3,18.4,7.3s13.4-2.3,18.4-7.3c5-5.5,7.3-11.1,7.3-18.4s-2.3-13.4-7.3-18.4c-5.5-4.7-11.1-7.3-18.4-7.3
		s-13.4,2.6-18.4,7.3c-4.7,5.5-7.3,11.1-7.3,18.4C1478.6,879.2,1481.2,885.3,1485.9,890.8z M1482.4,1059.4h44.1V917.1h-44.1V1059.4z
		 M1603.3,837.7v94.6h0.6c5-6.7,11.7-11.7,19.6-14.6s16.6-4.4,25.7-4.4c10.5,0,19.6,2,27.5,6.1c7.9,4.4,14.6,9.9,20.2,17.2
		c5.5,7.3,9.9,15.2,12.9,24.5c3.2,9.1,4.4,18.1,4.4,28.6c0,11.1-2,20.7-5,29.2c-2.9,9.3-7.9,16.6-14,23.4
		c-6.1,6.7-13.4,11.7-21.9,15.2c-8.8,3.8-18.4,5.5-28.9,5.5c-4.7,0-9.6-0.6-14.6-1.8c-4.4-1.5-8.5-3.2-12.3-5.5
		c-3.5-2.6-7.3-4.4-9.6-7.3c-3.2-2.6-5-5.5-6.7-8.2h-0.6v19h-40.3V837.7H1603.3z M1608.9,962.4c-6.1,6.7-9.1,15.2-9.1,26.3
		c0,10.8,2.9,19.6,9.1,26.3c6.1,6.7,14.6,9.6,25.7,9.6c10.8,0,19.6-2.9,25.7-9.6c6.1-6.7,9.1-15.5,9.1-26.3
		c0-11.1-2.9-19.6-9.1-26.3c-6.1-6.7-14.9-9.9-25.7-9.9C1623.5,952.5,1615,955.7,1608.9,962.4z M1732.4,1059.4h43.8v-59.3
		c0-7.3,0.6-13.4,1.2-19.6c0.6-5.8,2.6-10.8,5-15.2c2.3-4.1,6.1-7.3,11.1-9.6c4.7-2.6,11.7-3.8,20.2-3.8c3.5,0,6.7,0,9.6,0.6
		c3.2,0.6,6.1,1.2,9.3,2.6v-40.3c-2.6-0.9-7.3-1.5-7.3-1.5h-7.6c-9.6,0-17.5,2.6-24.2,6.7c-6.1,4.4-11.7,11.1-16.6,19.6h-0.6v-22.5
		h-43.8V1059.4z M1941.3,918.9c8.5,3.2,14.6,7.9,20.2,14c5,6.1,8.5,14,10.5,23.4c1.8,9.1,2.9,19.6,2.9,31.8v72.7h-40.3v-19h-0.6
		c-5.5,7.3-12.3,12.9-20.2,16.4c-7.9,3.2-16.6,5-25.7,5c-6.7,0-12.9-1.2-19-3.2c-6.1-1.8-11.7-4.7-16.4-8.5c-5-3.5-8.8-8.5-11.1-14
		c-2.3-5.5-4.4-11.7-4.4-19c0-7.9,1.5-15.2,4.4-20.7c2.9-5.5,7.3-10.2,12.3-14c5-3.8,11.1-6.7,17.8-8.5c6.7-2,13.4-3.8,20.7-4.4
		c7.3-1.2,14-1.8,21.3-1.8h19.6c0-7.9-3.2-14-8.5-18.4c-5.5-5-12.3-6.7-19.6-6.7s-14.3,1.2-19.6,4.4c-6.1,2.9-11.1,7.3-16.1,12
		l-23.1-23.7c7.9-7.3,17.5-13.4,28.6-17.2c11.1-3.5,21.9-5.5,34.2-5.5C1922.3,913.9,1932.8,916,1941.3,918.9z M1910.6,997.7
		c-4.7,0-9.6,1.2-14.6,2.3c-4.7,1.5-8.5,3.8-11.7,6.1c-2.9,2.6-4.7,6.7-4.7,11.7c0,5.5,2.3,9.1,6.7,11.7c4.1,2.3,9.1,3.5,14,3.5
		c4.4,0,8.5-0.6,12.3-1.8c4.1-1.2,7.3-2.9,10.8-5c3.2-2.3,5.5-4.7,7.3-7.9c2-2.9,3.2-7.3,3.2-11.7v-9.1h-11.1v-0.6
		C1919.9,997.2,1915.6,997.2,1910.6,997.7z M1994.4,1059.4h44.1v-59.3c0-7.3,0.6-13.4,1.2-19.6c0.6-5.8,2.3-10.8,5-15.2
		c2.3-4.1,6.1-7.3,10.8-9.6c5-2.6,11.7-3.8,20.2-3.8c3.8,0,6.7,0,9.9,0.6c2.9,0.6,6.1,1.2,9.1,2.6v-40.3c-2.3-0.9-7.3-1.5-7.3-1.5
		h-7.3c-9.9,0-17.8,2.6-24.5,6.7c-6.1,4.4-11.7,11.1-16.4,19.6h-0.6v-22.5h-44.1V1059.4z M2215.5,917.1l-31,94h-0.6l-36.8-94h-47.6
		l62.2,142.8l-2.9,8.2c-1.2,4.1-3.2,7.3-4.4,10.2c-1.2,3.2-2.9,5.5-5,7.3c-2.3,2.6-4.7,3.8-7.9,5c-2.9,1.2-7.3,1.8-12.3,1.8
		c-7.3,0-14-1.2-20.7-4.1l-6.1,35.9c11.1,3.8,21.6,5.5,33,5.5c11.1,0,19-1.2,25.7-2.9c6.1-2,11.7-5,16.1-9.3
		c4.1-3.5,7.9-8.5,10.2-14.6c3.2-5.5,5.5-12.9,8.5-20.2l68.5-165.6H2215.5z"/>
</g>
</svg>
