<?xml version="1.0" encoding="utf-8"?>
<!-- Generator: Adobe Illustrator 22.1.0, SVG Export Plug-In . SVG Version: 6.00 Build 0)  -->
<svg version="1.1"
	 id="svg8" inkscape:version="0.92.4 (5da689c313, 2019-01-14)" sodipodi:docname="myriapoda.svg" xmlns:cc="http://creativecommons.org/ns#" xmlns:dc="http://purl.org/dc/elements/1.1/" xmlns:inkscape="http://www.inkscape.org/namespaces/inkscape" xmlns:rdf="http://www.w3.org/1999/02/22-rdf-syntax-ns#" xmlns:sodipodi="http://sodipodi.sourceforge.net/DTD/sodipodi-0.dtd" xmlns:svg="http://www.w3.org/2000/svg"
	 xmlns="http://www.w3.org/2000/svg" xmlns:xlink="http://www.w3.org/1999/xlink" x="0px" y="0px" viewBox="0 0 2267.7 2267.7"
	 style="enable-background:new 0 0 2267.7 2267.7;" xml:space="preserve">
<style type="text/css">
	.st0{fill:none;stroke:#000000;stroke-miterlimit:10;}
</style>
<sodipodi:namedview  bordercolor="#666666" borderopacity="1.0" id="base" inkscape:current-layer="layer1" inkscape:cx="948.4762" inkscape:cy="1095.218" inkscape:document-units="mm" inkscape:pageopacity="0.0" inkscape:pageshadow="2" inkscape:window-height="962" inkscape:window-maximized="1" inkscape:window-width="1280" inkscape:window-x="-8" inkscape:window-y="-8" inkscape:zoom="0.1400905" pagecolor="#ffffff" showgrid="false">
	</sodipodi:namedview>
<g id="layer1" transform="translate(-213.65724,129.09015)" inkscape:groupmode="layer" inkscape:label="Capa 1">
	<path id="path3713_2_" inkscape:connector-curvature="0" class="st0" d="M1896.2,53.8c-10.2-37.5-89.4-182-89.4-182
		c49.7,194.4,40.8,296.5-33.7,487.1c-40.4-48.8-45.7-91.8-73.8-137.6c-9.9,62.8,39.8,116.4,52,174.1c-56.9-34.5-82-92.7-143.2-130.9
		c31.9,62.4,74.7,101.4,111.3,144.1c10,12.8,32.2,28.6,13.9,39.8c-12.8,10-29.3,24.2-45.1,46.5c-44.2,75.4-98.1-36.6-170.6-103.6
		c0.6-2.5-31.2-54.4-13.5,2c10,12.8,64.8,99,74.8,111.8c13.7,18.9,45.3,50,19.7,69.9c-23.2,20.5-44.2,10.2-49.5,32.4
		c-0.6,2.5-11.6,5-14.1,4.4c-20.4-12.7-26.1-32.3-34.9-50.1c-25.1-58.2-65.3-86.1-135-110.7c49.7,53.6,96.1,88.3,111.9,141.6
		c7.6,22.7,24.4,50.2-3.2,56.6c-31.3,10.7-47.2,12.1-80.9,22.2c-45.3,15.2-52-43.8-73.2-74.9c-19.3-28.1-20.9-65-55-96.6
		c-7.5,52.9,28.5,98.1,41.2,142.8c9.5,25.7,21.4,52.1-11.2,57.3c-31.9,2.7-43.6,7.8-62.5,21.5c-18.3,11.2-33.9-10.8-50.7-27.8
		c-53.4-59.8-101.3-120.8-152.2-180c17.8,66.8,67.5,120.5,105.5,179.1c15,24.5,40.4,48.8,9.8,67.5c-30,16.3-75.3,31.4-93.7,42.6
		c-18.3,11.2-28.4-12-43.9-23.6c-68.1-52.9-121-125.5-196.4-169.7c58.3,60.9,116.1,124.3,164.6,193.4c13.7,18.9,27.4,37.9,10.9,52.1
		c-17.7,19.2-42.7,36.6-76.9,59.7c-28.1,19.3-46.2-13.7-69.2-37.5c-51.5-56.7-103.6-110.9-172.1-140.4
		c54,57.3,112.8,105.3,163.8,164.5c22.4,26.2,41.7,54.3,15.4,76.7c-28.7,21.8-24.3,35.9-45,57c-20.7,21.1-39.4-9.5-59.2-24.7
		c-68.1-52.9-133.8-115.6-219-151.7c17.5,35.5,43.4,46.9,66.3,60.3c48.9,35.2,96.6,75.3,138.1,119.2c18.6,20.1,43.4,36.5,24.5,60.6
		c-17.7,19.2-21.3,23.5-50.4,68.7c-27.9,40.2-49.9-9.4-83.3-33.1c-50.7-38.3-124.4-89.8-174.5-130.6
		c48.1,81.9,118.6,135.4,188.6,191.3c13.6,8.5,29.1,20,24.9,37.3c-3.6,14.8-34.6,46.4-43.5,83.4c-7,40-58.3,14.7-91.6,1.4
		c-35.8-13.8-71-30.1-102.6-61.2c-14.3-16.5-29.9-38.5-64.9-44.3c55.4,73.3,112.3,118.2,182,142.8c16.7,6.6,49.8-1.1,50.7,38.3
		c3.3,29.5-0.2,44.3,11.8,81c-46.4,30.5-81.7,69-127.8,76.1c-48.5,6.6-109.6-21.1-175.9-16.2c117.4,64.7,202,48.6,298.2,6.5
		c-89.1,142.8-267.5,126-373.1,207.4c33.8,0.3,61.9-19,94.5-13.8c118.8,15.5,228.5-18,289.2-97.3c7.3-8.7,17.1-16.7,33.7-10.1
		c16.1,9.1,9.5,25.7,9.5,36.2c5.5,63.9,6.1,126.6,14.6,188.6c15.5,87.1,33.5,174.9,82.9,262.3c-8.7-82.9-32.9-166.9-39.1-249.2
		c-8.7-82.9-29.8-168.8-4.7-251.4c48.1,157.5,87.9,208.8,197.1,253.3c-104.1-87.6-170.6-179.2-144.1-300.5
		c19.5-16.2,19.4-26.6,38.4-40.3c22.6-18,41.4,23,60.6,40.6c42.8,39,80.1,89.6,145.4,110.6c-54-57.3-101.8-107.9-149.6-158.5
		c-18.6-20.1-44-44.5-26.4-63.7s20.4-52.4,35-69.8c15.8-22.3,40,7,58,19.1c24.1,18.8,47.7,40.1,71.2,61.4
		c26.6,19.4,47.2,53.1,100.1,60.6c-59.5-56-105.4-103.5-156.2-141.8c-24.1-18.8-48.9-35.2-35.6-58.1c14.5-27.8,42.9-15.8,41.4-42.2
		c-2-13.5,0.4-23.4,11.4-25.9c25.1-7,43.2,15.6,59.3,35.1c50.2,51.2,107.2,96.2,168.4,134.3c-36.8-63.6-102.3-95-147-147.4
		c-18-22.6-57.5-42.5-33.2-67.9c21.3-23.5,37.9-27.4,48.1-48.4c10.9-23.5,28.2-8.9,47.4,8.8c16.7,17.1,33.5,34.1,50.8,48.7
		c49.5,32.7,83.8,95.7,157.8,113.5c-60.8-61.5-116-113.9-168.7-165.7c-21.1-20.7-50.7-38.3-29.4-61.8c21.9-26,55.8-15.3,54.3-41.7
		c-0.1-10.4,7.8-21.6,15.8-22.3c26.4-1.5,40.2,27.9,57.5,42.5c10.5,10.4,20.5,23.2,31,33.5c48.3,37.7,97.8,80.9,175.3,83.9
		c-38.9-22.4-59.3-35.1-80.3-45.4c-50.1-30.3-92.8-69.2-125.2-118.7c-11.2-18.3-20.6-33.6-7.8-43.6c15.9-11.8,36.8-12,79-35.7
		c36.1-20,53.8,36.4,76.2,62.6c38.5,45.8,63,106.4,139.6,145.6c-55.4-73.3-98.3-133.1-142.5-188c-22.4-26.2-19.4-38.5-3.5-50.4
		c18.3-11.2,47.9-4.1,74.2-16c29.4-13.8,42,20.5,60.6,40.6c40.4,48.8,60.6,105.8,88.2,164.6c33.8-64.8-26.3-118.4-55-172.2
		c-18.1-33-24.4-50.2,0-65.2c28.1-19.3,44.9,8.2,67.9,32c49.7,53.6,82.8,121.6,146.7,181.2c-16.7-82.2-80.5-131.4-119.1-187.6
		c-16.8-27.5-39.1-43.3-18.4-64.4c17.1-16.7,69.8-30.1,88-51.8c16.4-24.7,36.9-1.6,56.7,13.6c45.8,37.1,82.6,90.2,146.8,126.5
		c-33.1-57.5-77.6-89-112.4-128.7c-16.7-17.1-51.9-33.3-37.4-61.1c18.2-32.1,45.3-25.6,56.7-51.5c12.6-30.8,41.1-8.4,64,5
		c29.7,17.6,55.7,39.5,90.8,45.3c-14.5-37.4-47.7-40.1-69.4-58.4c-19.8-15.2-40.8-25.4-35.5-47.6c4.7-19.7,36-30.4,35.1-59.3
		c-2.1-24,23.9-12.5,39.2-11.4c49.2,1.4,98.4,2.8,151.1-10.6c-53.7-25.9-92.3-6.5-134.8-24.6c13.8-35.8,67.4-20.3,81.2-56.1
		c-27.2-17-39.8,13.9-67-3.1c18.1-42.6,70.7-66.4,46.2-127c-19.5-49,1.9-62.1,31.3-75.9c41.6-21.3,85.9-21.1,136.4-3.7
		c53.6,15.5,109.1,34.1,160.8,46.5c47.4,8.8,99.2,21.2,127.7-21.4c-43.6,7.8-86.5,13.1-134.1-6.2c-149.3-62-294.1-99.4-409.5-20.3
		C1896.9,240.4,1908.9,100.5,1896.2,53.8z"/>
</g>
</svg>
