<?xml version="1.0" encoding="utf-8"?>
<!-- Generator: Adobe Illustrator 22.1.0, SVG Export Plug-In . SVG Version: 6.00 Build 0)  -->
<svg version="1.1"
	 id="svg8" inkscape:version="0.92.4 (5da689c313, 2019-01-14)" sodipodi:docname="naturalista.svg" xmlns:cc="http://creativecommons.org/ns#" xmlns:dc="http://purl.org/dc/elements/1.1/" xmlns:inkscape="http://www.inkscape.org/namespaces/inkscape" xmlns:rdf="http://www.w3.org/1999/02/22-rdf-syntax-ns#" xmlns:sodipodi="http://sodipodi.sourceforge.net/DTD/sodipodi-0.dtd" xmlns:svg="http://www.w3.org/2000/svg"
	 xmlns="http://www.w3.org/2000/svg" xmlns:xlink="http://www.w3.org/1999/xlink" x="0px" y="0px" viewBox="0 0 2267.7 2267.7"
	 style="enable-background:new 0 0 2267.7 2267.7;" xml:space="preserve">
<style type="text/css">
	.st0{fill:none;stroke:#000000;stroke-width:0.2646;}
</style>
<sodipodi:namedview  bordercolor="#666666" borderopacity="1.0" id="base" inkscape:current-layer="layer1" inkscape:cx="1408.9787" inkscape:cy="1174.854" inkscape:document-units="mm" inkscape:pageopacity="0.0" inkscape:pageshadow="2" inkscape:window-height="962" inkscape:window-maximized="1" inkscape:window-width="1280" inkscape:window-x="-8" inkscape:window-y="-8" inkscape:zoom="0.1400905" pagecolor="#ffffff" showgrid="false">
	</sodipodi:namedview>
<path class="st0" d="M2028.6,552.2L1088.8,30.3c-65.9-36.5-148.7-10.9-184.1,56.8l-64.3,123.5c0,0,0,0-0.2,0.2L200.1,1438
	c-19.8,38.3-29.4,79.2-30.9,120.1c-9.8,108.6,42.9,218.5,141.4,273.2l700.7,389.4c131.7,73.1,297.3,21.6,368.3-114.2l587.9-1127.5
	L2083.8,756c11.1-21.4,15.8-44.3,15.6-66.8c0-4.5,0.4-9,0.2-13.7C2099.3,626,2073.9,577.7,2028.6,552.2z M889.7,1833.8
	c-7.1,27.2-23.9,47.9-47.1,59.8c-14.2,8.5-30,13-45.5,13.2c-9.5,0-19.2-1.7-28.8-4.6c-26-8.6-45.2-25-57.4-49.2
	c-12.7-23.5-15.3-50.8-7.4-76.8c7.4-25.3,23.1-45.3,46.5-59.4c23.9-12.8,48.9-14.5,74-6.8c26.3,7.8,45.4,23.3,58.4,47.5
	C894.8,1782.7,897.1,1808.2,889.7,1833.8z M1998.1,721.2c0.3,20-3.8,40.1-13.5,58.7l-102.6,197l-135.6,259.4l0,0l-45.4,89.9l0.6,0.3
	l-195.9,375.9c0,0,0,0.1-0.2,0.1l-56.7,108.6c-31.2,60-104,82.4-162.2,50.2l-828.5-460c-39.9-22.1-62.2-64.8-62.2-108.6
	c-0.2-3.9,0-8.1,0.2-11.6c-0.4-20.3,3.6-40.7,13.7-59.3l102.2-196.5l129.5-248.2l51.6-101.5l-0.6-0.3l196.1-375.6l0.1-0.1
	l56.8-108.6c31.1-60,103.9-82.6,162-50.1l828.6,459.9c39.9,22.2,62.2,64.8,62.2,108.8C1998.4,713.4,1998.3,717.2,1998.1,721.2z
	 M776,1875.9c18.7,5.9,36.7,3.7,54.5-6.4c16.7-8.6,28.4-23.6,33.9-43.4c5.6-18.9,3.6-37.2-5-55.7c-9.7-17.9-23.8-28.9-42.9-34.4
	c-18.3-5.9-36.7-4.5-53.7,4.7c-17.1,10.4-28.5,24.9-34,43.4c-6,19-3.8,38.8,5.4,55.7C743.2,1858.3,757.5,1869.9,776,1875.9z
	 M1645,582c-168.9-49.5-447.9-107.5-616.7,0.6c-326.3,208.7-382.9,565-294.9,928.9l117.3,65.1c-1.5-7-3.4-13.6-4.7-20.8
	c-26.5-150.5-16.9-303.1,13.2-448.8c-3,74.3-5.6,148.6-0.7,222.7c3.1,73.3,11.8,146.6,29.3,217c5,20.4,10.7,40.4,17.2,60.1
	l390.2,216.7C1783.7,1335.6,947.6,733.5,1645,582z M1293.8,716.1c-20.2,12.7-46.9,6.3-59.4-15.1c-12.5-20.9-6.3-48.9,14-61.3
	c20.3-13.2,47.5-6.3,60.1,14.7C1320.5,675.4,1314.2,702.8,1293.8,716.1z"/>
</svg>
