<?xml version="1.0" encoding="utf-8"?>
<!-- Generator: Adobe Illustrator 22.1.0, SVG Export Plug-In . SVG Version: 6.00 Build 0)  -->
<svg version="1.1"
	 id="svg8" inkscape:version="0.92.4 (5da689c313, 2019-01-14)" sodipodi:docname="naturalista-4.svg" xmlns:cc="http://creativecommons.org/ns#" xmlns:dc="http://purl.org/dc/elements/1.1/" xmlns:inkscape="http://www.inkscape.org/namespaces/inkscape" xmlns:rdf="http://www.w3.org/1999/02/22-rdf-syntax-ns#" xmlns:sodipodi="http://sodipodi.sourceforge.net/DTD/sodipodi-0.dtd" xmlns:svg="http://www.w3.org/2000/svg"
	 xmlns="http://www.w3.org/2000/svg" xmlns:xlink="http://www.w3.org/1999/xlink" x="0px" y="0px" viewBox="0 0 2267.7 2267.7"
	 style="enable-background:new 0 0 2267.7 2267.7;" xml:space="preserve">
<style type="text/css">
	.st0{fill:none;stroke:#000000;stroke-width:0.25;}
</style>
<sodipodi:namedview  bordercolor="#666666" borderopacity="1.0" id="base" inkscape:current-layer="layer1" inkscape:cx="1410.413" inkscape:cy="252.91692" inkscape:document-units="mm" inkscape:pageopacity="0.0" inkscape:pageshadow="2" inkscape:window-height="962" inkscape:window-maximized="1" inkscape:window-width="1280" inkscape:window-x="-8" inkscape:window-y="-8" inkscape:zoom="0.1400905" pagecolor="#ffffff" showgrid="false">
	</sodipodi:namedview>
<path class="st0" d="M383.7,621.4l-214.3,1027L8,1648.8l201.6-964.9L383.7,621.4z M630,689l-161.4,0.2l-28.2,135.4l161.1-0.2
	L630,689z M434.6,851.9l-166.3,796.5l161.3-0.5L596,851.3L434.6,851.9z M901.1,1201c-84.6-45.8-123-91.9-113.7-136.4
	c13.9-66.3,54.8-97.4,129.6-97.7c25.3,0,58.1,3.8,72.7,21.2c10.2,12.6,12.2,34.1,6.1,63.3l-7.8,37.2h161.4l5-24.6
	c12.7-60.7,4-109.6-25.4-146.2c-36.9-45.3-102.3-67-203.1-66.7c-211.2,1-278.3,109.7-297.1,200.9c-18.9,91,37.1,172.1,163.7,239.7
	l10.1,6c84.9,44.6,123.1,89.9,113.8,134.6c-14.2,67.3-55,98.7-130.1,99.2c-25,0-57.8-3.7-72.1-21.3c-10.5-12.9-12.5-34.6-6.4-64.9
	l7.8-37l-161.4,0.2l-5,24.4c-13,61.3-4.1,111.1,25.6,147.5c37,45.5,102.3,67.4,200.1,67.4l2.5-0.3
	c211.3-0.9,278.4-110.7,297.7-202.6C1093.9,1353.6,1035.2,1271.8,901.1,1201z M1488.1,1484c-26.1,31-61.2,46.2-108.2,46.4
	c-34.3-0.1-58.3-8.3-71.6-24.6c-17.9-22.1-21-63.5-9.1-120.3l87.6-419.7l209-0.2l98.3-116.3l-283.2,0.4l48.1-230.1l-174.2,61.9
	l-35.1,168.8l-49.2,0l-24.1,115.8l49.2,0l-84.9,406.9c-18,87-7.9,154.7,30,201.7c38.6,47.6,105.5,71.5,198,71.3l1.2,0.2
	c81.8-0.6,150.4-19.9,203.6-57.4l25.7-18.1l-85.6-117.1L1488.1,1484z M2252.8,1120.5L2143.3,1645l-162.6,0.4l4.2-20.4
	c-32.5,13.7-69.6,20.4-110,20.4c-96.6,0.3-163.1-23.8-201.8-71.5c-38.3-46.8-48.2-114.6-30-201.6c35.4-169.3,147.7-259,325-259.8
	l123.7-0.3l0.8-3.9c12-56.4,8.9-97.7-8.8-119.3c-13-16.2-36.7-24.3-70.3-24.1c-47.3,0.3-82.5,15.3-108.2,46.4l-25.8,30.9l-84.8-120
	l25.3-17.7c52.2-36.7,120.3-55.2,202.1-55.5c95.2-0.1,162.1,23.8,200.8,71.4C2260.8,967.1,2270.9,1034.3,2252.8,1120.5z
	 M1810.9,1504.7c13.5,16.6,37.3,24.7,71.7,24.7c52.8-0.3,125.7-17.1,155.1-157.6l29.9-143.7l-109,0l-0.8-30.7l0,0l0.2,30.9
	c-53.1,0.1-126.9,16.7-156,156.4C1789.8,1441.4,1793.1,1482.8,1810.9,1504.7z"/>
</svg>
