<?xml version="1.0" encoding="utf-8"?>
<!-- Generator: Adobe Illustrator 22.1.0, SVG Export Plug-In . SVG Version: 6.00 Build 0)  -->
<svg version="1.1"
	 id="svg8" inkscape:version="0.92.4 (5da689c313, 2019-01-14)" sodipodi:docname="no-evaluado-ne.svg" xmlns:cc="http://creativecommons.org/ns#" xmlns:dc="http://purl.org/dc/elements/1.1/" xmlns:inkscape="http://www.inkscape.org/namespaces/inkscape" xmlns:rdf="http://www.w3.org/1999/02/22-rdf-syntax-ns#" xmlns:sodipodi="http://sodipodi.sourceforge.net/DTD/sodipodi-0.dtd" xmlns:svg="http://www.w3.org/2000/svg"
	 xmlns="http://www.w3.org/2000/svg" xmlns:xlink="http://www.w3.org/1999/xlink" x="0px" y="0px" viewBox="0 0 2267.7 2267.7"
	 style="enable-background:new 0 0 2267.7 2267.7;" xml:space="preserve">
<style type="text/css">
	.st0{fill:black;stroke:#000000;stroke-width:0.2646;}
</style>
<sodipodi:namedview  bordercolor="#666666" borderopacity="1.0" id="base" inkscape:current-layer="layer1" inkscape:cx="1398.7589" inkscape:cy="1167.2953" inkscape:document-units="mm" inkscape:pageopacity="0.0" inkscape:pageshadow="2" inkscape:window-height="962" inkscape:window-maximized="1" inkscape:window-width="1280" inkscape:window-x="-8" inkscape:window-y="-8" inkscape:zoom="0.1400905" pagecolor="#ffffff" showgrid="false">
	</sodipodi:namedview>
<path class="st0" d="M2241.1,6.1H1065.6v2.2C474.5,43.7,6.2,534,6.2,1133.8c0,622.8,504.8,1127.7,1127.7,1127.7
	c622.8,0,1127.7-504.9,1127.7-1127.7V26.6C2261.5,15.3,2252.4,6.1,2241.1,6.1z M1172.5,1510.8H969.4l-328-570.3h-4.7
	c6.5,100.8,9.8,172.6,9.8,215.6v354.8H503.8V756.9h201.6l327.4,564.6h3.6c-5.2-97.9-7.7-167.2-7.7-207.8V756.9h143.9V1510.8z
	 M1764,887.9h-274.3v165.5h255.2v130.9h-255.2v194.4H1764v132h-434.1V756.9H1764V887.9z"/>
</svg>
