<?xml version="1.0" encoding="utf-8"?>
<!-- Generator: Adobe Illustrator 22.1.0, SVG Export Plug-In . SVG Version: 6.00 Build 0)  -->
<svg version="1.1"
	 id="svg8" inkscape:version="0.92.4 (5da689c313, 2019-01-14)" sodipodi:docname="pinidae.svg" xmlns:cc="http://creativecommons.org/ns#" xmlns:dc="http://purl.org/dc/elements/1.1/" xmlns:inkscape="http://www.inkscape.org/namespaces/inkscape" xmlns:rdf="http://www.w3.org/1999/02/22-rdf-syntax-ns#" xmlns:sodipodi="http://sodipodi.sourceforge.net/DTD/sodipodi-0.dtd" xmlns:svg="http://www.w3.org/2000/svg"
	 xmlns="http://www.w3.org/2000/svg" xmlns:xlink="http://www.w3.org/1999/xlink" x="0px" y="0px" viewBox="0 0 2267.7 2267.7"
	 style="enable-background:new 0 0 2267.7 2267.7;" xml:space="preserve">
<style type="text/css">
	.st0{fill:black;stroke:#000000;stroke-miterlimit:10;}
</style>
<sodipodi:namedview  bordercolor="#666666" borderopacity="1.0" id="base" inkscape:current-layer="layer1" inkscape:cx="1379.0503" inkscape:cy="728.74023" inkscape:document-units="mm" inkscape:pageopacity="0.0" inkscape:pageshadow="2" inkscape:window-height="962" inkscape:window-maximized="1" inkscape:window-width="1280" inkscape:window-x="-8" inkscape:window-y="-8" inkscape:zoom="0.1400905" pagecolor="#ffffff" showgrid="false">
	</sodipodi:namedview>
<g id="layer1" transform="translate(-99.734522,32.132292)" inkscape:groupmode="layer" inkscape:label="Capa 1">
	<path id="path3713" inkscape:connector-curvature="0" class="st0" d="M2083.7,149.9c-5.7,39.9-33.6,51.9-42.8,77.2
		c16.4-6.6,26.2-29.5,55.2-26.3c-35.9,42.2-70.6,78.9-102.3,117.5c54.1-41.5,117.1-56.9,180.7-80.1
		c-76.5,54.7-101.3,153.2-185.6,196.9c47.2-6.4,80.1-40.1,123.8-61.1c3.4,45.4-33,54.3-56.7,72.9c12.6,20,29.7-4.7,42.9,7.5
		c0.6,2.4-0.1,10.3-4.9,11.5c-65,39-135.9,64-207.4,86.6c-14.5,3.6-45.4,3.4-35.9,31.9c8.3,23.6,29.6,5.6,44.2,2
		c61.2-12.4,121.8-37.5,180.6-59.6c16.4-6.6,31-20.4,56.3-11.2c-29.2,27.7-70.9,25-97.1,54.6c26,11.6,45.5-13.7,73.2-5.1
		c-36.5,39.7-87.4,52.2-136.6,82.2c33.2,9.9,54.6-18.5,79.3-11.7c9.5,28.5-90.3,19.5-21.5,69.5c-16.4,16.9-40,14.9-60.6,25.1
		c-16.4,6.6-53.9,0.3-32.9,44c4.8,9.1-14.6,13.8-20.7,20.5c-41.3,30.6-97.6,31.6-129.3,80.4c-16.5,27.1-59.3,9.4-89.1,24.3
		c-18.8,7.2-18.8,7.2-26.2,39.8c-8,19.9-29.8,25.3-46.7,29.4c-26.1,8.9-43.7,20.9-51.7,51.2c64.1-0.3,119.3-26.6,179.9-31.1
		c-169.2,64.5-346.7,105.3-509.4,206.7c124.7-15.1,236.3-52.6,350.8-78c-131.1,83.4-294.5,77.1-423.2,159.9
		c156.2-12.5,295.7-72.3,440.6-130.8c-56,54.8-141.9,60.4-193.7,121.8c40.6-2.2,78.1-6.2,126.5-7.8c-20.1,22.9-40.1,25.2-57,29.3
		c-41.8,7.6-78.8,24.4-107.4,54.5c-18.9,17.4-41.8,17.9-64.3,20.8c-50.8,2.2-101.7,4.3-163,37.3c80.4,13.7,141.6-8.9,211.8-5.5
		c-37.1,37.3-92.1,22.5-122,68.3c31.3,23.2,67.2,1.6,106.4,15.1c-68.5,24.4-131.4,19.3-191.4,36.5c32.6,7.4,65.3,14.9,97.3,19.9
		c-106.6,15.8-219.6-15.7-322.8,45.5c66.3,40.3,138.6-10.8,216,11.4c-34.6,16.2-60.1,27.5-90.4,40.1c32.5,28,62.7,36,102.2,18.7
		c-51.8,61.4-109.5,108.9-194.2,109.1c58,16.6,115.5,20.6,167.4,43.8c-96.3,15.8-188.8-5.2-283.1-13c-1.8,3-0.6,7.9-1.9,13.3
		c111.2,24.2,224.8,47.8,336.1,72c-48.5,22.1-94.4,2.5-150.1,5.9c24.7,27.4,60.4,26.3,79.6,52.5c-96.1-15-186.7-49.4-282.7-95.3
		c37.2,57.7,98.9,58,147.8,79.4c48.9,21.4,101.5,36.8,147.9,58.9c-56.9,8.8-110-19.3-179-28.2c42.2,35.9,77.7,65.8,113.3,95.6
		c-100.3-32-171.9-104.4-261.1-175c15.7,116.9,27.9,219.2,43.1,323.4c-2.4,0.6-4.8,1.2-9.7,2.4c-25.1-50.4-50.9-103.1-76-153.5
		c-4.2-6.7,3.2-29-19.9-18.3c-18.8,7.2-26.1,19.2-13.5,39.3c10.2,20.6,33.7,32.9,37.8,60.1c-2.4,0.6-6.7,4.2-6.7,4.2
		c-50.6-39-72.5-13.1-86.1,36.5c-7.4,22.3-18.4,40.4-42.1,59.1c-8.7-67.2,70.3-132.8-2.6-199.7c-19.6,45.9-28.9,91.8-63.1,141.3
		c-9.4-49.1,7.7-84.1,17-119.7c6.8-24.8,26.9-57.9-2.6-73.8c-23.5-12.2-39.4,17.3-58.9,32.4c-60.2,48.1-129.3,80.4-190.7,123.6
		c15.5-73.1,71.4-107.3,130.8-137.3c6.7-4.2,17-14.4,17.7-22.3c5.1-42.3,31.2-71.8,56.2-106.2c-62.6,48.7-132.9,65.9-212.1,67.3
		c57.2-60.2,131.2-93.7,210.7-146.5c-83.5-5.3-149.3-22.6-213.3-53.2c59.3-9.4,113,21.2,186.3,16.1c-52.4-46.3-97.6-84-142.8-121.8
		c84,18,139.3,86.7,234.2,117.4c-39.8-26.2-44.5-55.9-72.2-74.8c-29.6-15.9-49.4-44.4-88.1-55.5c-30.2-8-56.1-29.9-88.7-47.7
		c33.4-21,60.5,5.8,93.2,2.9c-32.5-28-62-54.2-91.6-80.4c1.8-3,3.7-6,5.5-9c40.4,18.4,80.9,36.7,123.8,54.5
		c13.9,4.3,26,11.6,39.9,15.9c8.5,3.1,22.3,7.4,24.8-3.5c4.3-13.9-7.2-18.8-16.2-24.3c-46.5-22-91.1-47.1-135.8-72.1
		c-35.6-19.6-40.2-69.8-78.8-91.2c44.8,4.5,71.7,51.8,120.1,50.3c-10.2-20.6-31.9-25.6-45.2-37.8c-12.7-9.7-47.7-16.6-8.9-36.4
		c9.1-4.8,3.7-16.3-2.3-20c-59.7-34.2-79.4-93.6-91.8-154.8c80.9,36.7,137.4,110.2,209.1,172.3c1.9-23.6-12-27.9-19.2-36.4
		c-22.2-38.2-59.6-65.1-90.3-96.1c-13.8-14.6-30.1-28.6-29.3-57c49.5,23.9,69.8,75.4,119.9,91.4c-57.1-75.9-128.2-135.6-212-184.5
		c25.4,9.2,41.8-17.9,58.8-11.8c25.4,9.2,35.5,40.1,73.6,48.8c-24.7-27.4-43.3-51.1-63.8-71.7c-18-21.3-46.4-32.3-52.3-66.8
		c27.2,6.2,54.4,2.1,82.8,13.1c-44.6-35.3-88.6-68.2-135.6-103c43.5,20.2,98.8-37,126.9,25.5c13.9-6,7.3-12.1,4.3-13.9
		c-19.9-18.3-40.3-49.2-23.9-66.1c18.3-19.9,42.9,7.5,61,18.5c-5.1-73.2-17.4-144.7-69.1-209.1c15.1,9.2,30.8,20.7,48.3,29.3
		c17.1-24.7-12.4-50.9-1.4-79.3c21.7,15.2,22.2,38.2,31.2,54c9,15.8,5.2,42.4,32.5,38.3l4.3-3.6l1.2-5.4c1.9-13.3,3.8-26.6,8.1-40.5
		l1.8-3l4.3-3.6c13.5-29-17.8-62.4,10.2-94.9c16.2,24.3,5.8,55.1,25,81.2c18.9-27.7,8.2-61.1,21.7-90c22.3,17.7,2.8,43,20.2,61.8
		c8.6-17.5,14.7-34.4,21.4-48.9c11.8,58.8-1.8,118.6-2.2,180.3c16.5-27.1,33-54.3,56.2-95.9c2.1,61.1-27.1,99.1-36.5,155.3
		c34.1-49.4,72.4-71.6,119-80.5c-2,33.9-28.7,50.7-49.4,71.1c-14,16.3-55.2,26.3-23.9,59.8c30.7,31,31.6-18,50.4-25.1
		c6.7-4.2,14.6-13.8,31-30.7c-13.1,72.5-61.7,115.2-75.4,185.4c23.8-39.2,53.5-54.2,90.5-70.9c-46.4,73-53.4,149.2-68.9,222.3
		c14.8-44.7,60.8-45.7,90.5-70.9c-11.4,90.1,55.5,153.4,74.4,230.9c24.8-108.8-52.8-195.1-59.5-306.5c38.5,42,35.8,94,63.4,133.5
		c20-12.6,5.7-39.9,28.8-61c9.7,102.9,6.2,204,66.9,284.1c18.5-61,17-130-20.1-208.3c-25.7-63.1-34.4-130.3-40.1-195.7
		c30.7,31,31.1,74.6,49.6,118.9c8-19.9-4-47.8,31.7-38.6c21.8,5,24.9-13.8,20.1-33.2c-10.1-41.2-20.1-82.4-27.8-124.2
		c60,98.3,69.7,211.5,108.4,317.6c13.3-113.7-10.9-223.3-42.4-331.2c2.4-0.6,2.4-0.6,4.8-1.2c4.2,6.7,10.2,10.3,13.8,14.6
		c15.6,21.9,26.4,44.9,28.1,72.8c8.4,13.4,3.4,35.1,29.5,36.5l-2.4,0.6c10.9,2.5,22.3,7.4,33.3-0.4c3.7-6,9.7-12.7,15.2-21.7
		c-3-12.1-8.9-26.1-11.9-38.2l0,0c-1.8-7.3-6-13.9-7.2-18.8c-3.6-4.3-7.2-8.5-10.2-10.3c0.1-10.3-2.3-20-4.7-29.7l0,0
		c-5.4-11.5-8.3-23.6-13.1-32.7l-0.6-2.4c-3-1.8-6-3.7-12.1-7.3c-2.4-9.7-7.2-18.8-12-27.9c38.8-19.8,41.7,12.9,54.9,35.4
		c6,13.9,1,46,29.5,36.5c23.6-8.3,31.6-28.3,22.7-54.3c-10.1-30.9-10.6-64.2-1.3-99.8c13.7,35.2,25,70.9,38.8,106.1
		c2.4-0.6,5.4,1.2,7.9,0.6c3.2-29,5.8-60.5,8.9-89.5c33.4,84.3,24.5,173.8,61.6,252c60.1-37.8,69.3-63.2,28.5-125.1
		c-28.8-44.3-35.2-91.6-38.6-147.2c21.6,25.5,19.7,59.4,54.6,86.8c-15.9-75.7-28.3-136.9-38.9-201.1c-0.5-12.7-38.5-42,17.2-45.3
		c7.9,0.6,1.5-46.6-6.9-70.2c-11.4-25.5-27.6-49.8-18.9-87.8c51.5,95.3,80.1,191,113.5,285.6c9.5,28.5,16.6,57.6,28.6,85.5
		c6.6,16.4,11.4,15.2,22.4-2.9c1.2-5.4,3.1-8.5,2.5-10.9c11.3-69.5,8-135.5-15.9-201.6c-8.3-23.6-4-47.8,3.4-70.2l1.8-3
		c48.2,39.6,49.1,95.9,57.3,150.4c3.4,35.1,2,71.4,13.9,109.6c42.8-77.2,20.2-159,10.9-239c1.8-3,0.6-7.9,0.1-10.3
		c28-32.5,6.5-78.6,33.3-126.3c41.9,87.4,25.1,176.2,54.9,256.2c4.3-129.5,16.5-258.3,41.4-387.7c27.5,70.3,8.9,141.6,16.4,214.3
		c24.7-88.2,25.2-180.8,61.3-264.1c10.3,115.6,14.5,227.6-47.8,340.4c52.8-36,74.9-92.8,98-219.1c12.5-75,15.9-155.4,52.6-226
		c8.2,54.5-18.7,112.4,32.4,164.2c22.7-64.6,33.4-136.6,74.9-198.1c-11.4,100.4-48.2,191.6-65.7,288.3
		c69.9-60.7,82.5-156.3,142.2-227.4c-5.8,70.8-46.1,126.8-60.9,192.1c34.7-47,73.7-87.3,122.4-140.3
		c-25.2,75.5-76.3,118.8-105,179.8C2004,243.8,2031.5,188.3,2083.7,149.9z M1826,246.3c-31.6,18,12.8,94.5-22.2,87.6
		c-84-18-41.2,35.8-49.3,76.3c-10,53.8-31.4,102.7-84.8,126c-8.9-26.1,32.8-23.4,18.4-50.7c-71.9-21-60.4-16.1-68.6,45
		c-13.1,72.5,21.4,182.2-96,195.5c34.1-39.2,69.3-86,15.8-157.7c-10.3,10.2-24.9,13.8-27.4,24.7c-20.9,61.6-50.8,130.2-68.7,193.7
		c-3.7,16.3,3.4,45.4-28,32.5c-92.4-41.6-87.8,8.6-78.4,68c3.5,24.8-2.7,52-31.7,48.8c-62.9-5.2-82.3-0.4-86.8,54.6
		c-2,33.9,0.2,74.4-32.5,77.3c-133.2,12-131.6,165.7-252.1,187.5c37.7,80.7-73,79.5-51.7,156.4c8.9,36.4-21.5,69.5-42.3,100.2
		c-9.2,15.1-17.8,42.9-51,33c-39.9-15.9,12.9-41.7-25.7-63.1c-15.2,21.7-22.1,56.8-60.8,45.7c-41.7-12.9-119.3-446-142.7-468.5
		c-33.7-32.9-15.2-93.9-32.8-92.1c-83.6,15.3-48.7-62.6-90.3-85.8c-3.8,36.9-18.5,61,28.5,106c38.6,31.7,48.6,72.9,52,118.3
		c5,83.5,181,561.9,236.9,622.7c34.3,35.3,45.2,61.1,126.3,67c-21.4-77-37.9-62.9-69.7-129.6c-6-13.9-43.5-20.2-28.8-44.3
		c9.2-15.1,13.5-29,40.7-22.8c35.1,6.8,50.7-6.3,82.8-11.6c27.3-4.1,72.2-30.5,37.8-55.5c-104.9-72-24.9-56.5,19.3-75
		c9.1-4.8,18.9-17.4,14.6-24.1c-30.4-82.5,34.8-57.3,77.1-52.2c18.1,0.7,35.1,6.8,40-14.9c6.2-27.2-20.4-31-36.7-45
		c-9.6-7.9-17.4-18.9-36.1-42.5c79.2,8.9,134.4-17.4,200.5-31c-49.4-34.1-83.5-5.3-125.7-30.9c8.7-38.1,48-34.8,77.7-39.5
		c43.6-10.7,88.4-16.5,123.7-40.5c12.8-10.8,35.2-24,7.5-42.9c-64.5-43.3-20.9-43.7,0.3-51.4c26.1-8.9,70.3-27.5,53.5-43.9
		c-57.2-55.4-4.6-40,11.2-49c35.8-21.6,90.8-6.8,121.2-39.9c53.5-54.2,65.5-141.9,144.3-176.5c0,0-1.2-4.8,0.6-7.9
		c29.4-58.5,76.8-106.1,92.9-176.8c17.3-65.9,84-87.3,145.8-107.5c-13.1-32.7-96-35.6-52.2-77.1c0,0,28.3-18.1,20.6-52.4
		C1835.3,275.9,1810.1,293.5,1826,246.3z"/>
</g>
</svg>
