<?xml version="1.0" encoding="utf-8"?>
<!-- Generator: Adobe Illustrator 22.1.0, SVG Export Plug-In . SVG Version: 6.00 Build 0)  -->
<svg version="1.1"
	 id="svg8" inkscape:version="0.92.4 (5da689c313, 2019-01-14)" sodipodi:docname="polypodiidae.svg" xmlns:cc="http://creativecommons.org/ns#" xmlns:dc="http://purl.org/dc/elements/1.1/" xmlns:inkscape="http://www.inkscape.org/namespaces/inkscape" xmlns:rdf="http://www.w3.org/1999/02/22-rdf-syntax-ns#" xmlns:sodipodi="http://sodipodi.sourceforge.net/DTD/sodipodi-0.dtd" xmlns:svg="http://www.w3.org/2000/svg"
	 xmlns="http://www.w3.org/2000/svg" xmlns:xlink="http://www.w3.org/1999/xlink" x="0px" y="0px" viewBox="0 0 2267.7 2267.7"
	 style="enable-background:new 0 0 2267.7 2267.7;" xml:space="preserve">
<style type="text/css">
	.st0{fill:black;stroke:#000000;stroke-miterlimit:10;}
</style>
<sodipodi:namedview  bordercolor="#666666" borderopacity="1.0" id="base" inkscape:current-layer="layer1" inkscape:cx="1095.6669" inkscape:cy="804.91981" inkscape:document-units="mm" inkscape:pageopacity="0.0" inkscape:pageshadow="2" inkscape:window-height="962" inkscape:window-maximized="1" inkscape:window-width="1280" inkscape:window-x="-8" inkscape:window-y="-8" inkscape:zoom="0.1400905" pagecolor="#ffffff" showgrid="false">
	</sodipodi:namedview>
<g id="layer1" transform="translate(-174.71305,52.020116)" inkscape:groupmode="layer" inkscape:label="Capa 1">
	<path id="path3713" inkscape:connector-curvature="0" class="st0" d="M1126.2,1724.5c2.8,44.9-260.9,75.8-263.7,75.8
		c87,25.3,174,50.5,260.9,75.8c-81.4,36.5-165.5,58.9-252.5,70.1c58.9,25.3,117.8,50.5,176.8,75.8c-75.8,89.8-216,39.3-238.5,188
		l-11.2-72.9c-56.1-25.3-115-36.5-176.8-33.7c30.9-50.5,72.9-92.6,120.6-126.3c-44.9-19.6-241.3,58.9-258.1,0
		c-14-50.5,176.8-129.1,221.6-143.1c2.8,0,2.8,0,5.6,0c5.6-2.8,2.8-2.8-5.6,0c-131.9-19.6-246.9,64.5-378.8,22.4
		c103.8-115,263.7-112.2,387.2-193.6c-148.7-30.9-294.6,11.2-443.3-25.3c129.1-47.7,258.1-95.4,387.2-143.1
		c-140.3-2.8-258.1,58.9-401.2,30.9c129.1-115,303-129.1,454.5-196.4c-131.9-5.6-263.7-19.6-392.8-39.3
		c106.6-50.5,216-87,331.1-109.4c-30.9-5.6-303-16.8-297.4-78.6c8.4-89.8,317,19.6,319.8-75.8c0-84.2-249.7-16.8-291.8-98.2
		c101-8.4,199.2-28.1,294.6-53.3c-95.4-22.4-193.6-30.9-291.8-25.3c72.9-64.5,159.9-92.6,255.3-89.8
		c-72.9-25.3-143.1-56.1-210.4-95.4c64.5-14,129.1-22.4,193.6-28.1c-58.9-16.8-115-33.7-174-47.7c56.1-47.7,117.8-72.9,190.8-78.6
		c-39.3-30.9-81.4-58.9-123.4-89.8c39.3-2.8,81.4-5.6,120.6-8.4c-28.1-33.7-58.9-64.5-92.6-89.8c39.3,11.2,75.8,5.6,112.2-14
		c-8.4-30.9-28.1-56.1-56.1-75.8c33.7-19.6,106.6-289,165.5-277.8c58.9,14,22.4,232.9-39.3,241.3c179.6,42.1,8.4,42.1,36.5,120.6
		c22.4-2.8,42.1,0,61.7,5.6c-14,25.3-30.9,47.7-50.5,70.1c33.7,0,70.1,2.8,106.6,5.6c-33.7,44.9-75.8,75.8-129.1,95.4
		c58.9,0,117.8,2.8,174,5.6c-42.1,39.3-87,78.6-134.7,112.2c53.3-5.6,109.4-8.4,165.5-8.4c-53.3,53.3-112.2,98.2-182.4,129.1
		c89.8,0,179.6,5.6,269.3,11.2c-81.4,36.5-159.9,75.8-235.7,117.8c81.4-19.6,165.5-22.4,246.9-14
		c-89.8,61.7-185.2,117.8-280.6,168.3c109.4-16.8,218.8-19.6,331.1-14c-101,58.9-204.8,115-308.6,162.7c115,11.2,230.1,14,347.9,5.6
		c-81.4,112.2-221.6,72.9-325.5,137.5c120.6,2.8,244.1-2.8,364.7-16.8c-92.6,95.4-232.9,103.8-328.3,193.6
		c109.4-2.8,218.8-5.6,331.1-11.2c-42.1,56.1-311.4,101-305.8,168.3C887.7,1727.3,1120.6,1629.1,1126.2,1724.5z M842.8,2083.6
		L708.2,274C595.9,321.7,842.8,2083.6,842.8,2083.6z M2125,481.6c25.3,44.9,42.1,92.6,50.5,143.1c-42.1-19.6-81.4-42.1-117.8-67.3
		c44.9,42.1,64.5,89.8,58.9,145.9c-61.7-11.2-117.8-42.1-162.7-92.6c22.4,70.1,56.1,137.5,95.4,199.2
		c-67.3-33.7-131.9-75.8-190.8-120.6c56.1,78.6,112.2,154.3,168.3,230.1c-115-16.8-188-120.6-305.8-140.3
		c47.7,123.4,199.2,165.5,230.1,297.4c-120.6-14-190.8-120.6-289-174c36.5,95.4,129.1,140.3,196.4,235.7
		c-109.4-42.1-204.8-103.8-289-185.2c-2.8,103.8,185.2,204.8,241.3,246.9c-67.3,11.2-249.7-148.7-283.4-109.4
		c-50.5,64.5,249.7,224.5,277.8,244.1c-145.9,30.9-227.3-95.4-353.5-134.7c95.4,123.4,235.7,199.2,317,333.9
		c-134.7-50.5-238.5-159.9-378.8-207.6c72.9,131.9,216,218.8,260.9,367.5c-115-61.7-196.4-162.7-317-216
		c67.3,140.3,210.4,188,275,314.2c-61.7-2.8-269.3-204.8-305.8-171.1c-28.1,28.1,202,235.7,216,263.7
		c-101-25.3-193.6-67.3-283.4-120.6c53.3,36.5,92.6,81.4,112.2,137.5c-28.1,39.3-263.7,64.5-342.3,159.9l-2.8-72.9
		c115-143.1,67.3-213.2-78.6-283.4c67.3-5.6,137.5-14,204.8-28.1c-67.3-56.1-137.5-103.8-216-145.9c81.4,0,162.7,5.6,241.3,14
		c-19.6-64.5-263.7-162.7-216-224.5c25.3-30.9,224.5,87,263.7,87c-70.1-98.2-151.5-185.2-244.1-258.1
		c103.8,19.6,199.2,56.1,289,112.2c8.4-75.8-202-159.9-148.7-224.5c25.3-30.9,182.4,56.1,218.8,87c0,2.8,2.8,2.8,2.8,8.4
		c8.4,0,5.6-2.8-2.8-8.4c-19.6-117.8-120.6-168.3-196.4-244.1c101,19.6,199.2,50.5,291.8,87c-58.9-81.4-117.8-162.7-176.8-246.9
		c92.6,22.4,171.1,67.3,235.7,134.7c-50.5-72.9-87-148.7-109.4-235.7c70.1,50.5,131.9,103.8,190.8,165.5
		c0-98.2-30.9-185.2-92.6-260.9c137.5-11.2,120.6,151.5,232.9,182.4c-8.4-14-154.3-202-120.6-227.3
		c44.9-28.1,145.9,95.4,182.4,103.8c14-36.5-64.5-140.3-44.9-159.9c56.1-44.9,117.8,137.5,171.1,112.2
		c42.1-22.4-56.1-134.7-8.4-165.5c36.5,8.4,64.5,28.1,84.2,58.9c-11.2-36.5-8.4-72.9,5.6-109.4c39.3,14,67.3,39.3,84.2,78.6
		c14-39.3,28.1-78.6,42.1-117.8c19.6-2.8,235.7-50.5,272.1-25.3C2282.1,366.6,2231.6,515.3,2125,481.6z M2063.3,462
		c0,0-33.7,14-87,53.3c-109.4,70.1-308.6,210.4-499.4,426.5c-289,325.5-361.9,900.6-361.9,900.6
		c275-852.9,684.6-1209.2,861.3-1327.1"/>
</g>
</svg>
