<?xml version="1.0" encoding="utf-8"?>
<!-- Generator: Adobe Illustrator 22.1.0, SVG Export Plug-In . SVG Version: 6.00 Build 0)  -->
<svg version="1.1"
	 id="svg3721" inkscape:version="0.92.4 (5da689c313, 2019-01-14)" sodipodi:docname="reptilia.svg" xmlns:cc="http://creativecommons.org/ns#" xmlns:dc="http://purl.org/dc/elements/1.1/" xmlns:inkscape="http://www.inkscape.org/namespaces/inkscape" xmlns:rdf="http://www.w3.org/1999/02/22-rdf-syntax-ns#" xmlns:sodipodi="http://sodipodi.sourceforge.net/DTD/sodipodi-0.dtd" xmlns:svg="http://www.w3.org/2000/svg"
	 xmlns="http://www.w3.org/2000/svg" xmlns:xlink="http://www.w3.org/1999/xlink" x="0px" y="0px" viewBox="0 0 2267.7 2267.7"
	 style="enable-background:new 0 0 2267.7 2267.7;" xml:space="preserve">
<style type="text/css">
	.st0{fill:black;stroke:#000000;stroke-width:0.2646;}
</style>
<sodipodi:namedview  bordercolor="#666666" borderopacity="1.0" id="base" inkscape:current-layer="layer1" inkscape:cx="991.18653" inkscape:cy="1994.0139" inkscape:document-units="mm" inkscape:pageopacity="0.0" inkscape:pageshadow="2" inkscape:window-height="962" inkscape:window-maximized="1" inkscape:window-width="1280" inkscape:window-x="-8" inkscape:window-y="-8" inkscape:zoom="0.12374369" pagecolor="#ffffff" showgrid="false">
	</sodipodi:namedview>
<g id="layer1" transform="translate(-58.314031,35.602141)" inkscape:groupmode="layer" inkscape:label="Capa 1">
	<path id="path3723_2_" inkscape:connector-curvature="0" class="st0" d="M1583.6,834.8c-80.5-9.2-158.7-4.6-232.3,29.9
		c-32.2,16.1-39.1,4.6-46-23c-9.2-62.1-16.1-119.6-66.7-170.2c-27.6-25.3-25.3-85.1-55.2-126.5c-16.1,23-18.4,43.7-6.9,64.4
		c2.3,2.3,2.3,2.3,4.6,4.6c11.5,27.6,18.4,64.4-6.9,78.2c-25.3,16.1-55.2-6.9-71.3-29.9c-23-34.5-50.6-62.1-80.5-89.7
		c-11.5-9.2-23-16.1-46-29.9c20.7,96.6,98.9,135.7,151.8,195.5c-59.8,36.8-156.4-25.3-188.6,82.8c52.9-23,103.5-34.5,161-29.9
		c-16.1,20.7-36.8,27.6-57.5,39.1c-27.6,13.8-27.6,43.7-16.1,59.8c13.8,18.4,29.9-6.9,43.7-16.1c13.8-9.2,27.6-43.7,43.7-27.6
		c16.1,20.7,57.5,20.7,52.9,62.1c-2.3,20.7,0,43.7,11.5,62.1c29.9,59.8,4.6,101.2-36.8,138c-89.7,85.1-165.6,181.7-239.2,278.3
		c-9.2,11.5-18.4,32.2-34.5,27.6c-16.1-2.3-13.8-23-16.1-34.5c-16.1-48.3-46-78.2-94.3-69c-50.6,6.9-96.6-34.5-147.2-4.6
		c-11.5,6.9-20.7-6.9-23-20.7c-6.9-16.1-6.9-34.5-13.8-50.6c-4.6-13.8-2.3-34.5-18.4-34.5c-20.7,0-16.1,25.3-20.7,39.1
		c-2.3,4.6,0,9.2,0,13.8c0,20.7,25.3,46,4.6,59.8c-23,13.8-46-11.5-69-20.7c-50.6-25.3-101.2-55.2-170.2-71.3
		c32.2,80.5,108.1,75.9,161,119.6c-75.9,27.6-156.4-4.6-234.6,29.9c62.1,55.2,131.1,23,195.5,27.6c-48.3,25.3-110.4,25.3-144.9,89.7
		c64.4,6.9,110.4-41.4,167.9-39.1c11.5,11.5-16.1,27.6,2.3,36.8c16.1,9.2,25.3-6.9,36.8-16.1c39.1-32.2,82.8-43.7,133.4-43.7
		c50.6-2.3,85.1,27.6,89.7,75.9c2.3,36.8-29.9,73.6-75.9,78.2c-156.4,11.5-294.4,78.2-437,131.1c-36.8,13.8-71.3,36.8-101.2,62.1
		c-32.2,23-46,69-9.2,89.7c87.4,50.6,165.6,117.3,271.4,133.4c108.1,16.1,197.8-25.3,292.1-59.8c105.8-39.1,216.2-73.6,331.2-64.4
		c55.2,4.6,105.8,0,133.4-66.7c11.5-27.6,59.8-41.4,94.3-55.2c110.4-46,239.2-174.8,239.2-177.1c34.5-41.4,71.3-85.1,108.1-124.2
		c18.4-18.4,20.7-41.4,27.6-64.4c32.2-75.9,64.4-156.4,115-227.7c39.1,48.3,71.3,94.3,108.1,135.7c43.7,48.3,92,48.3,124.2-2.3
		c34.5-57.5,78.2-105.8,115-161c23-36.8,43.7-50.6,66.7-2.3c4.6,9.2,9.2,20.7,23,18.4c16.1-18.4-4.6-41.4,6.9-62.1
		c39.1,13.8,71.3,46,117.3,59.8c2.3-64.4-52.9-64.4-87.4-92c48.3-18.4,98.9-11.5,151.8-36.8c-57.5-34.5-110.4-4.6-174.8-11.5
		c59.8-41.4,110.4-78.2,135.7-140.3c-71.3,29.9-115,101.2-195.5,112.7c-9.2-29.9,13.8-57.5,0-87.4c-18.4,2.3-29.9,11.5-29.9,27.6
		c-4.6,59.8-48.3,89.7-92,121.9c-25.3,13.8-43.7,36.8-64.4,55.2c-6.9,4.6-11.5,16.1-20.7,9.2c-4.6-4.6-11.5-16.1-9.2-18.4
		c18.4-32.2-9.2-46-25.3-62.1c-39.1-34.5,62.1-92-6.9-75.9c75.9-101.2,216.2-243.8,193.2-230c25.3-57.5,69-89.7,92-135.7
		c41.4-89.7,23-195.5-41.4-266.8c-87.4-98.9-188.6-133.4-319.7-108.1c-156.4,32.2-319.7,29.9-478.4,43.7
		c-138,11.5-246.1,62.1-331.2,177.1C863.7,545,767.1,660,638.3,752c41.4,18.4,66.7-6.9,89.7-23c94.3-64.4,165.6-149.5,234.6-236.9
		c80.5-101.2,179.4-158.7,310.5-158.7c133.4,0,266.8-9.2,400.2-16.1c75.9-4.6,149.5,9.2,220.8,39.1c115,46,133.4,147.2,32.2,220.8
		c-69,52.9-145.3,97.8-216.2,147.2C1675.7,748.4,1583.6,834.8,1583.6,834.8z"/>
</g>
</svg>
