<?xml version="1.0" encoding="utf-8"?>
<!-- Generator: Adobe Illustrator 22.1.0, SVG Export Plug-In . SVG Version: 6.00 Build 0)  -->
<svg version="1.1"
	 id="svg8" inkscape:version="0.92.4 (5da689c313, 2019-01-14)" sodipodi:docname="salobre.svg" xmlns:cc="http://creativecommons.org/ns#" xmlns:dc="http://purl.org/dc/elements/1.1/" xmlns:inkscape="http://www.inkscape.org/namespaces/inkscape" xmlns:rdf="http://www.w3.org/1999/02/22-rdf-syntax-ns#" xmlns:sodipodi="http://sodipodi.sourceforge.net/DTD/sodipodi-0.dtd" xmlns:svg="http://www.w3.org/2000/svg"
	 xmlns="http://www.w3.org/2000/svg" xmlns:xlink="http://www.w3.org/1999/xlink" x="0px" y="0px" viewBox="0 0 2267.7 2267.7"
	 style="enable-background:new 0 0 2267.7 2267.7;" xml:space="preserve">
<style type="text/css">
	.st0{fill:black;stroke:#000000;stroke-width:0.2646;}
</style>
<sodipodi:namedview  bordercolor="#666666" borderopacity="1.0" id="base" inkscape:current-layer="layer1" inkscape:cx="1172.1847" inkscape:cy="940.52333" inkscape:document-units="mm" inkscape:pageopacity="0.0" inkscape:pageshadow="2" inkscape:window-height="962" inkscape:window-maximized="1" inkscape:window-width="1280" inkscape:window-x="-8" inkscape:window-y="-8" inkscape:zoom="0.1400905" pagecolor="#ffffff" showgrid="false">
	</sodipodi:namedview>
<g id="layer1" transform="translate(-62.867708,88.132292)" inkscape:groupmode="layer" inkscape:label="Capa 1">
	<path id="path3713" inkscape:connector-curvature="0" class="st0" d="M2325.9-84.6v1130.5c0,624.6-505.9,1130.5-1130.5,1130.5
		S67.5,1673,67.5,1045.9S570.8-84.6,1195.4-84.6H2325.9z M2184,1373.6c-33.6,7.7-59.4,7.7-85.2,7.7c-160,5.2-309.7-51.6-425.9-162.6
		l-25.8-25.8l-25.8,25.8c-116.1,111-271,167.8-425.9,162.6c-160,5.2-309.7-51.6-425.9-162.6l-25.8-25.8l-25.8,25.8
		c-116.1,111-271,167.8-425.9,162.6c-25.8,0-43.9-7.7-69.7-7.7c5.2,25.8,12.9,46.5,12.9,72.3h51.6c167.8,0,322.6-59.4,451.7-162.6
		c129.1,111,283.9,167.8,451.7,162.6c167.8,0,322.6-59.4,451.7-162.6c129.1,111,283.9,167.8,451.7,162.6c12.9,0,31,0,51.6,0
		C2150.4,1425.3,2163.3,1399.4,2184,1373.6z M2248.5,831.6l-33.6,20.6c-116.1,108.4-271,167.8-425.9,160
		c-160,7.7-309.7-51.6-425.9-160l-25.8-25.8l-25.8,25.8c-116.1,108.4-271,167.8-425.9,160c-160,7.7-309.7-51.6-425.9-160L434,826.5
		l-25.8,25.8C338.5,916.8,253.4,960.7,163,986.5c0,20.6,0,43.9,0,51.6s0,12.9,0,20.6c98.1-25.8,188.4-72.3,265.8-136.8
		c129.1,111,283.9,167.8,451.7,162.6c167.8,0,322.6-59.4,451.7-162.6c129.1,111,283.9,167.8,451.7,162.6
		c160,5.2,322.6-51.6,443.9-154.9L2248.5,831.6z M2227.8,710.3V13.4H1195.4c-418.1,0-800.1,250.4-955,637.5
		c103.2,51.6,214.2,77.4,330.4,77.4c167.8,0,322.6-56.8,451.7-160c129.1,108.4,283.9,167.8,451.7,160c167.8,0,322.6-56.8,451.7-160
		C2016.2,632.9,2119.4,684.5,2227.8,710.3"/>
</g>
</svg>
