<?xml version="1.0" encoding="utf-8"?>
<!-- Generator: Adobe Illustrator 22.1.0, SVG Export Plug-In . SVG Version: 6.00 Build 0)  -->
<svg version="1.1"
	 id="svg8" inkscape:version="0.92.4 (5da689c313, 2019-01-14)" sodipodi:docname="vista-especialista.svg" xmlns:cc="http://creativecommons.org/ns#" xmlns:dc="http://purl.org/dc/elements/1.1/" xmlns:inkscape="http://www.inkscape.org/namespaces/inkscape" xmlns:rdf="http://www.w3.org/1999/02/22-rdf-syntax-ns#" xmlns:sodipodi="http://sodipodi.sourceforge.net/DTD/sodipodi-0.dtd" xmlns:svg="http://www.w3.org/2000/svg"
	 xmlns="http://www.w3.org/2000/svg" xmlns:xlink="http://www.w3.org/1999/xlink" x="0px" y="0px" viewBox="0 0 2267.7 2267.7"
	 style="enable-background:new 0 0 2267.7 2267.7;" xml:space="preserve">
<style type="text/css">
	.st0{fill:black;stroke:#000000;stroke-width:0.2646;}
</style>
<sodipodi:namedview  bordercolor="#666666" borderopacity="1.0" id="base" inkscape:current-layer="layer1" inkscape:cx="1411.1914" inkscape:cy="1174.8542" inkscape:document-units="mm" inkscape:pageopacity="0.0" inkscape:pageshadow="2" inkscape:window-height="962" inkscape:window-maximized="1" inkscape:window-width="1280" inkscape:window-x="-8" inkscape:window-y="-8" inkscape:zoom="0.1400905" pagecolor="#ffffff" showgrid="false">
	</sodipodi:namedview>
<g id="layer1" transform="translate(0.36949184,400.0166)" inkscape:groupmode="layer" inkscape:label="Capa 1">
	<path id="path3713" inkscape:connector-curvature="0" class="st0" d="M1299.7-291.3c72.2,83,72.2,83,184.1-5.4
		c52.3-39.7,68.6-21.7,84.8,88.4c12.6,102.9,27.1,115.5,88.4,84.8c37.9-21.7,41.5-18.1,46.9,30.7c5.4,63.2,32.5,68.6,149.8,36.1
		c93.9-27.1,104.7-18.1,86.6,66.8c-19.9,93.9-5.4,137.2,46.9,137.2c21.7,0,23.5,16.2,9,70.4c-18.1,68.6,3.6,101.1,90.3,133.6
		c63.2,23.5,63.2,37.9,9,97.5c-41.5,46.9-50.5,70.4-52.3,128.2c-3.6,59.6,3.6,72.2,77.6,122.7c25.3,16.2,21.7,32.5-19.9,86.6
		c-75.8,97.5-75.8,97.5,10.8,180.5c52.3,52.3,21.7,117.3-72.2,155.2c-72.2,28.9-83,43.3-81.2,117.3c1.8,61.4-5.4,68.6-95.7,83
		c-117.3,19.9-111.9,18.1-151.6,92.1c-151.6,290.6-426,481.9-639,442.2c-194.9-34.3-407.9-220.2-530.7-467.5
		c-25.3-50.5-27.1-50.5-122.7-65c-93.9-14.4-97.5-19.9-97.5-101.1c0-90.3-12.6-117.3-66.8-139c-101.1-41.5-126.4-81.2-90.3-146.2
		c34.3-65,54.2-117.3,54.2-142.6c0-1.8-10.8-18.1-25.3-34.3c-32.5-34.3-34.3-45.1-9-70.4c41.5-43.3,39.7-39.7,36.1-65
		c-3.6-39.7-21.7-92.1-45.1-131.8c-66.8-119.1-65-133.6,37.9-202.2c153.4-102.9,178.7-148,173.3-314.1
		c-3.6-144.4,1.8-149.8,110.1-88.4c75.8,43.3,95.7,37.9,122.7-34.3c23.5-65,28.9-68.6,56-43.3c74,72.2,83,68.6,140.8-65
		c50.5-117.3,59.6-120.9,106.5-56c74,99.3,90.3,101.1,142.6,16.2c41.5-66.8,70.4-101.1,102.9-101.1
		C1202.2-394.2,1240.1-359.9,1299.7-291.3z M1332.2,261C1195,291.7,1056,277.3,964,255.6c-274.4-63.2-413.4,130-413.4,496.4
		c0,36.1-9,30.7,86.6,63.2c88.4,30.7,81.2,28.9,99.3,1.8c79.4-119.1,247.3-101.1,308.7,34.3c5.4,12.6,12.6,23.5,14.4,25.3
		c7.2,3.6,139,3.6,148,0c3.6-1.8,10.8-12.6,16.2-27.1c59.6-133.6,220.2-151.6,303.2-36.1c23.5,30.7,18.1,30.7,110.1-1.8
		c90.3-30.7,84.8-23.5,77.6-122.7C1693.2,470.4,1592.1,174.4,1332.2,261z M803.3,1028.2c27.1,34.3,83,48.7,119.1,28.9
		c101.1-50.5,70.4-222-41.5-222C792.5,835,745.6,950.5,803.3,1028.2z M1339.4,1055.2c25.3,12.6,61.4,14.4,84.8,3.6
		c104.7-48.7,75.8-223.8-37.9-223.8C1278,835,1241.9,999.3,1339.4,1055.2z M516.3,885.6c-83,50.5-75.8,283.4,10.8,333.9
		c30.7,16.2,46.9,39.7,72.2,102.9c110.1,279.8,366.4,514.4,536.1,492.8c5.4,0,21.7-1.8,36.1-3.6c175.1-16.2,393.5-236.5,496.4-500
		c19.9-52.3,34.3-74,66.8-92.1c84.8-50.5,93.9-263.5,16.2-330.3c-23.5-19.9-185.9,52.3-185.9,83c0,222-306.9,249.1-359.2,30.7
		c-5.4-23.5-7.2-23.5-74-23.5c-68.6,0-70.4,0-75.8,23.5c-52.3,218.4-359.2,191.3-359.2-30.7c0-9-3.6-18.1-7.2-23.5
		c-10.8-12.6-146.2-61.4-169.7-63.2C518.1,885.6,518.1,885.6,516.3,885.6z M996.4,598.6c-16.2,12.6-30.7,14.4-99.3,0
		c-93.9-18.1-144.4-12.6-194.9,18.1c-10.8,5.4-21.7,12.6-25.3,14.4c-10.8,3.6-23.5,0-25.3-9c0-10.8,12.6-48.7,23.5-70.4
		C718.5,490.3,1018.1,396.4,996.4,598.6z M1146.3,1262.8c43.3,1.8,50.5,1.8,86.6,16.2c21.7,7.2,56,18.1,75.8,25.3
		c48.7,14.4,74,28.9,97.5,50.5c30.7,32.5,48.7,83,48.7,139c0,30.7-1.8,30.7-32.5,18.1c-23.5-10.8-39.7-7.2-66.8,10.8
		c-27.1,18.1-43.3,18.1-77.6,1.8c-43.3-21.7-59.6-21.7-102.9,9c-21.7,12.6-28.9,16.2-43.3,16.2c-14.4,0-21.7-3.6-43.3-18.1
		c-43.3-28.9-59.6-28.9-102.9-9c-34.3,18.1-48.7,16.2-77.6-1.8c-27.1-18.1-41.5-19.9-68.6-9c-28.9,10.8-30.7,10.8-30.7-16.2
		c0-30.7,10.8-77.6,25.3-102.9c12.6-25.3,46.9-59.6,68.6-70.4c21.7-10.8,142.6-52.3,171.5-57.8c10.8-1.8,28.9-1.8,50.5-1.8l0,0
		C1131.8,1262.8,1139,1262.8,1146.3,1262.8z M1348.4,466.8c-21.7,3.6-146.2,21.7-83,135.4c16.2,12.6,30.7,14.4,99.3,3.6
		c95.7-12.6,144.4-5.4,193.1,23.5c10.8,7.2,21.7,12.6,27.1,14.4c10.8,3.6,23.5,0,23.5-7.2c1.8-9-9-45.1-21.7-65
		C1586.7,571.5,1563,462.8,1348.4,466.8z"/>
</g>
</svg>
