<?xml version="1.0" encoding="utf-8"?>
<!-- Generator: Adobe Illustrator 22.1.0, SVG Export Plug-In . SVG Version: 6.00 Build 0)  -->
<svg version="1.1"
	 id="svg8" inkscape:version="0.92.4 (5da689c313, 2019-01-14)" sodipodi:docname="vista-general.svg" xmlns:cc="http://creativecommons.org/ns#" xmlns:dc="http://purl.org/dc/elements/1.1/" xmlns:inkscape="http://www.inkscape.org/namespaces/inkscape" xmlns:rdf="http://www.w3.org/1999/02/22-rdf-syntax-ns#" xmlns:sodipodi="http://sodipodi.sourceforge.net/DTD/sodipodi-0.dtd" xmlns:svg="http://www.w3.org/2000/svg"
	 xmlns="http://www.w3.org/2000/svg" xmlns:xlink="http://www.w3.org/1999/xlink" x="0px" y="0px" viewBox="0 0 2267.7 2267.7"
	 style="enable-background:new 0 0 2267.7 2267.7;" xml:space="preserve">
<style type="text/css">
	.st0{fill:black;stroke:#000000;stroke-width:0.25;stroke-miterlimit:10;}
</style>
<sodipodi:namedview  bordercolor="#666666" borderopacity="1.0" id="base" inkscape:current-layer="layer1" inkscape:cx="1409.7949" inkscape:cy="1174.8537" inkscape:document-units="mm" inkscape:pageopacity="0.0" inkscape:pageshadow="2" inkscape:window-height="962" inkscape:window-maximized="1" inkscape:window-width="1280" inkscape:window-x="-8" inkscape:window-y="-8" inkscape:zoom="0.1400905" pagecolor="#ffffff" showgrid="false">
	</sodipodi:namedview>
<g id="layer1" transform="translate(0,150.13229)" inkscape:groupmode="layer" inkscape:label="Capa 1">
	<path id="path3713" inkscape:connector-curvature="0" class="st0" d="M1965,296.2c0,244.8-197.4,443.3-441,443.3l0,0
		c-243.6,0-441-198.5-441-443.3l0,0c0-244.8,197.4-443.3,441-443.3S1965,51.4,1965,296.2z M1521.7,92.7
		c-113.7,0-205.8,94.2-205.8,210.3c0,0.8,0,1.5,0,2.3c0,116.2,92.2,210.3,205.8,210.3c0.7,0,1.5,0,2.2,0
		c113.7-1.2,204.8-96.4,203.6-212.6C1727.5,186.8,1635.4,92.7,1521.7,92.7L1521.7,92.7z M2141.4,1951.7h-262.3
		c-230.7-1393.2-649.1-771.2-689.8-6.8c-29.4-334.7-133.4-479.5-217.1-549.6c101.8-370.9,318.9-590.3,533.7-599.3
		C1811.2,780.2,2127.8,1157.9,2141.4,1951.7z M646.5,565.3c193.6,0,350.5,158,350.5,352.8c0,1.5,0,3,0,4.6
		c-1.3,194.8-159.2,351.8-352.8,350.5c-0.8,0-1.5,0-2.3,0C448.4,1272,292.4,1113,293.7,918.1l0,0c0-194.9,156.9-352.8,350.6-352.8
		C645,565.3,645.7,565.3,646.5,565.3z M637.4,771.1c-77.4,0-140.2,64.8-140.2,144.8c0,0.8,0,1.6,0,2.4
		c1.2,79.9,65,143.7,142.5,142.4l0,0c77.4,0,140.2-64.8,140.2-144.7s-62.8-144.7-140.2-144.7C638.9,771.1,638.2,771.1,637.4,771.1z
		 M638.6,1328.5c383.5,0,494.2,786,494.2,786H865.9c-90.5-581.2-375.4-667.2-499.8,0c-76.9,0-149.3,0-239.7,0
		C126.3,2016.3,293.7,1328.5,638.6,1328.5z"/>
</g>
</svg>
