<?xml version="1.0" encoding="utf-8"?>
<!-- Generator: Adobe Illustrator 22.1.0, SVG Export Plug-In . SVG Version: 6.00 Build 0)  -->
<svg version="1.1"
	 id="svg8" inkscape:version="0.92.4 (5da689c313, 2019-01-14)" sodipodi:docname="youtube.svg" xmlns:cc="http://creativecommons.org/ns#" xmlns:dc="http://purl.org/dc/elements/1.1/" xmlns:inkscape="http://www.inkscape.org/namespaces/inkscape" xmlns:rdf="http://www.w3.org/1999/02/22-rdf-syntax-ns#" xmlns:sodipodi="http://sodipodi.sourceforge.net/DTD/sodipodi-0.dtd" xmlns:svg="http://www.w3.org/2000/svg"
	 xmlns="http://www.w3.org/2000/svg" xmlns:xlink="http://www.w3.org/1999/xlink" x="0px" y="0px" viewBox="0 0 2267.7 2267.7"
	 style="enable-background:new 0 0 2267.7 2267.7;" xml:space="preserve">
<style type="text/css">
	.st0{fill:black;stroke:#000000;stroke-width:0.2646;}
</style>
<sodipodi:namedview  bordercolor="#666666" borderopacity="1.0" id="base" inkscape:current-layer="layer1" inkscape:cx="1353.602" inkscape:cy="1174.8542" inkscape:document-units="mm" inkscape:pageopacity="0.0" inkscape:pageshadow="2" inkscape:window-height="962" inkscape:window-maximized="1" inkscape:window-width="1280" inkscape:window-x="-8" inkscape:window-y="-8" inkscape:zoom="0.1400905" pagecolor="#ffffff" showgrid="false">
	</sodipodi:namedview>
<g id="layer1" transform="translate(-14.867708,150.13229)" inkscape:groupmode="layer" inkscape:label="Capa 1">
	<path id="path3713" inkscape:connector-curvature="0" class="st0" d="M1355.6,1338.6c-19.6,0-38.4,9-56.5,27.1v379.7
		c18.1,18.1,36.9,27.1,56.5,27.1c33.2,0,49.7-27.9,49.7-83.6v-266.7C1405.3,1366.5,1388.7,1338.6,1355.6,1338.6z M1773.7,1338.6
		c-37.7,0-56.5,28.6-56.5,85.9v56.5h115.3v-56.5C1831,1367.2,1811.4,1338.6,1773.7,1338.6z M611.9,1867.5H487.6v-718.8H354.2v-117.5
		h393.3v117.5H611.9V1867.5z M975.8,1799.7c-45.2,51.2-88.2,76.9-128.8,76.9c-37.7,0-61.8-15.8-72.3-47.5
		c-7.5-19.6-11.3-50.5-11.3-92.7v-492.8h113v458.9c0,27.1,0.8,42.2,2.3,45.2c1.5,16.6,9.8,24.9,24.9,24.9c22.6,0,46.7-17.3,72.3-52
		v-476.9h113v623.9h-113V1799.7z M1507,1806.5c-15.1,46.7-45.2,70.1-90.4,70.1c-40.7,0-79.9-23.4-117.5-70.1v61h-113v-836.4h113
		v273.5c36.2-45.2,75.3-67.8,117.5-67.8c45.2,0,75.3,23.4,90.4,70.1c7.5,21.1,11.3,62.5,11.3,124.3v248.6
		C1518.3,1741.7,1514.5,1783.9,1507,1806.5z M1941,1741c-3,22.6-12.1,45.2-27.1,67.8c-30.1,45.2-75.3,67.8-135.6,67.8
		c-57.3,0-102.5-21.9-135.6-65.6c-24.1-31.6-36.2-80.6-36.2-146.9v-217c0-66.3,11.3-115.3,33.9-146.9
		c33.2-42.2,78.4-63.3,135.6-63.3c55.8,0,100.2,21.1,133.4,63.3c22.6,31.6,33.9,80.6,33.9,146.9V1576h-226v110.8
		c0,57.3,19.6,85.9,58.8,85.9c27.1,0,43.7-15.1,49.7-45.2c1.5-7.5,2.3-33.2,2.3-76.9h115.3v15.8
		C1943.3,1708.6,1942.5,1733.4,1941,1741z M1122.7,604c-36.2,0-54.2-29.4-54.2-88.2V251.4c0-58.8,18.1-88.2,54.2-88.2
		s54.2,29.4,54.2,88.2v264.5C1177,574.6,1158.9,604,1122.7,604z M2051.8,1022.2c-10.5-51.2-34.7-93.4-72.3-126.6
		c-37.7-33.2-81.4-52.7-131.1-58.8c-153.7-16.6-386.5-24.9-698.5-24.9s-545.5,8.3-700.7,24.9c-48.2,4.5-91.2,24.1-128.8,58.8
		c-37.7,34.7-61.8,76.9-72.3,126.6c-22.6,96.4-33.9,243.4-33.9,440.8c0,200.4,11.3,347.4,33.9,440.8c10.5,51.2,34.7,93.4,72.3,126.6
		s80.6,52,128.8,56.5c155.2,18.1,388.8,27.1,700.7,27.1s544.8-9,698.5-27.1c48.2-3,91.2-21.9,128.8-56.5
		c37.7-34.7,62.5-76.9,74.6-126.6c21.1-96.4,31.6-243.4,31.6-440.8C2083.4,1262.5,2072.9,1115.6,2051.8,1022.2z M738.5,185.8
		l-88.2-332.3H514.7c24.1,70.8,52,149.2,83.6,235.1c39.2,116,64.8,205.7,76.9,269v341.3h126.6V357.6l151.4-504.1H824.4L738.5,185.8z
		 M1256.1,124.8c-31.6-42.2-76.1-63.3-133.4-63.3c-55.8,0-100.2,21.1-133.4,63.3c-22.6,31.6-33.9,81.4-33.9,149.2v219.3
		c0,67.8,11.3,117.5,33.9,149.2c33.2,43.7,77.6,65.6,133.4,65.6c57.3,0,101.7-21.9,133.4-65.6c24.1-30.1,36.2-79.9,36.2-149.2V274
		C1292.3,206.1,1280.2,156.4,1256.1,124.8z M1599.7,68.3v481.5c-25.6,36.2-49.7,54.2-72.3,54.2c-15.1,0-24.1-9-27.1-27.1
		c0-1.5,0-16.6,0-45.2V68.3h-115.3v497.3c0,43.7,3,75.3,9,94.9c12.1,31.6,36.9,47.5,74.6,47.5c42.2,0,85.9-26.4,131.1-79.1v70.1
		H1715V68.3H1599.7z"/>
</g>
</svg>
