<?xml version="1.0" encoding="utf-8"?>
<!-- Generator: Adobe Illustrator 22.1.0, SVG Export Plug-In . SVG Version: 6.00 Build 0)  -->
<svg version="1.1"
	 id="svg8" inkscape:version="0.92.4 (5da689c313, 2019-01-14)" sodipodi:docname="amenazada-a-evaluacion-conabio.svg" xmlns:cc="http://creativecommons.org/ns#" xmlns:dc="http://purl.org/dc/elements/1.1/" xmlns:inkscape="http://www.inkscape.org/namespaces/inkscape" xmlns:rdf="http://www.w3.org/1999/02/22-rdf-syntax-ns#" xmlns:sodipodi="http://sodipodi.sourceforge.net/DTD/sodipodi-0.dtd" xmlns:svg="http://www.w3.org/2000/svg"
	 xmlns="http://www.w3.org/2000/svg" xmlns:xlink="http://www.w3.org/1999/xlink" x="0px" y="0px" viewBox="0 0 2267.7 2267.7"
	 style="enable-background:new 0 0 2267.7 2267.7;" xml:space="preserve">
<style type="text/css">
	.st0{fill:none;stroke:#000000;stroke-width:0.2646;}
</style>
<sodipodi:namedview  bordercolor="#666666" borderopacity="1.0" id="base" inkscape:current-layer="layer1" inkscape:cx="2007.8733" inkscape:cy="2010.6327" inkscape:document-units="mm" inkscape:pageopacity="0.0" inkscape:pageshadow="2" inkscape:window-height="962" inkscape:window-maximized="1" inkscape:window-width="1280" inkscape:window-x="-8" inkscape:window-y="-8" inkscape:zoom="0.14369886" pagecolor="#ffffff" showgrid="false">
	</sodipodi:namedview>
<path class="st0" d="M2148,1018.2C2148,458.1,1694,4.1,1133.9,4.1C573.8,4.1,119.7,458.1,119.7,1018.2
	c0,247.1,88.6,473.7,235.5,649.6h-1.6c299.4,354.8,780.5,595.8,780.5,595.8s481-241.1,780.4-595.8h-1.9
	C2059.5,1491.9,2148,1265.3,2148,1018.2z M1306.9,1474.8l-49.2-161.7h-247.6l-49.2,161.7H805.7l239.7-681.9h176l240.6,681.9H1306.9z
	 M1146.4,943.9c5.7,19.2,31.4,102,76.9,248.5h-177c48.3-156.4,77.6-254.4,87.8-294C1136.6,909.5,1140.6,924.7,1146.4,943.9z"/>
</svg>
