<?xml version="1.0" encoding="utf-8"?>
<!-- Generator: Adobe Illustrator 22.1.0, SVG Export Plug-In . SVG Version: 6.00 Build 0)  -->
<svg version="1.1"
	 id="svg8" inkscape:version="0.92.4 (5da689c313, 2019-01-14)" sodipodi:docname="bryophyta.svg" xmlns:cc="http://creativecommons.org/ns#" xmlns:dc="http://purl.org/dc/elements/1.1/" xmlns:inkscape="http://www.inkscape.org/namespaces/inkscape" xmlns:rdf="http://www.w3.org/1999/02/22-rdf-syntax-ns#" xmlns:sodipodi="http://sodipodi.sourceforge.net/DTD/sodipodi-0.dtd" xmlns:svg="http://www.w3.org/2000/svg"
	 xmlns="http://www.w3.org/2000/svg" xmlns:xlink="http://www.w3.org/1999/xlink" x="0px" y="0px" viewBox="0 0 2267.7 2267.7"
	 style="enable-background:new 0 0 2267.7 2267.7;" xml:space="preserve">
<style type="text/css">
	.st0{fill:none;stroke:#000000;stroke-width:0.2646;}
</style>
<sodipodi:namedview  bordercolor="#666666" borderopacity="1.0" id="base" inkscape:current-layer="layer1" inkscape:cx="453.02084" inkscape:cy="922.97731" inkscape:document-units="mm" inkscape:pageopacity="0.0" inkscape:pageshadow="2" inkscape:window-height="962" inkscape:window-maximized="1" inkscape:window-width="1280" inkscape:window-x="-8" inkscape:window-y="-8" inkscape:zoom="0.1400905" pagecolor="#ffffff" showgrid="false">
	</sodipodi:namedview>
<path id="path3713" inkscape:connector-curvature="0" class="st0" d="M807.4,1640.9c-29.5,29.1-12,68.1-0.6,87.9
	c18.3,31.1-32.6,34.1-13.6,57.3c-5.5,2.1-14,6.6-16.3,3.7c-15.1-9.5-2.7-26.9-9.8-35.6c-14-20-7.5-32.7-5.6-51.2
	c-0.3-24,7.8-52.5-17.3-68.3c-24.8-18.4-25.4-39.8-20.7-60.6c40.9-145.2,21-296.3,40.8-443.6c2.3-23.8,6.8-42,35-57.8
	c50.6-27,61.8-87.2,31.7-132.8c-28-40-129.7-63.3-179-49.5c-41.1,12-51.9,40.2-57.4,69c-6.8,42,2.8,80.2,48.5,103.3
	c27.7,16,36.5,35.5,38.9,65.1c4.9,85.7-19.4,171.3-14.3,254.4c7.1,117.9-53.1,215.9-100.4,317.9c-13.9,33.3,29.7,77.5,36.9,112.8
	c8.8,46.2,12.6,89.1-28.2,125.1c-5.8,4.8-4.3,98.2,32.2,133.7c31.7,29.8,46.3,71.1,75.1,103.3c19.6,17.9,29.1,56.1,41.9,89.4
	c30.5-39.6,224.1-58,254.2-65.7c5.5-2.1,291.6,15.3,367-20c16.9-9,27.5-90.6,41.8-99.8c23.2-19,37.1-52.3,44.7-75.5
	c8.9-36.4,31.5-76.8,16.2-83.7c-7.9-0.8,8.3-57.8,26.2-77.4c20.8-21.9-10.5-83.6-4.1-93.7c9.5-15.1-56.7-101.5-112.3-77.6
	c-24.8,8.2,6.4,16.6,8.5,48.8c-11.2-75.7,8.7-143,33.6-207.2c71.9-190.1,133.3-381.2,160.8-581c3.4-34.3,13.1-52,56.6-61.1
	c54.3-10.7,82-47.9,84-95.7c4.4-44.9-13.2-137.2-88.7-155.2c-57.3-13.6-164.1-10.8-211,32.6c-44.2,43.6-69.9,142.3-17.1,174.2
	c62.6,40.8,85.4,80.3,77.8,130.2c-36.8,185.5-91.9,366.6-154.8,547c-25.2,66.8-42.5,134.4-55.5,213c-9.5-11.6-14.5-14.7-14-20
	c-14.1-46.7,39.1-100.1-26.9-133.2c-2.6-0.3,0.8-7.9,1-10.6c18.9-30.1,4.7-47.5-31.8-56.4c-18-7.1-21.9-20.8-23-36.9
	c-15.3-142.7-1.4-285.2,25.5-423.8c36-204.3,82.3-404.9,107.8-610.2c5.2-26.1,17.3-40.9,44.8-48.9c90.2-23.1,114.9-84.7,111.3-156.9
	c-0.9-72-71-172.1-148.4-198.4c-80-26.5-157.3-26.1-226.3,25.8c-63,44.4-135.1,128-112.5,196.8c25.2,69.1,106.3,111.7,181.8,129.7
	c41.7,9.4,58.6,27.1,52.6,61.1c-6.5,39.3-10.7,81.5-19.8,120.6c-38.6,204-88.1,409.6-111.2,617.9c-8.3,84.4-13.7,166.5-6.1,252.5
	c3.5,19,13.8,49.3-11.2,60.2c-36.4,17.7-52.2,42.8-57.4,69c-5.7,31.4-6.7,68.6,16.8,100.2c23.5,31.6,12.5,62.5,27.6,98.6
	c-30.6-13.7-77.9-21-68.1-38.6c13.7-30.6-21.2-55.4-2.3-85.5c6.1-7.4-2.4-29.5-22.2-44.8c-24.8-18.4-4-40.4-3.3-74.9
	c-2.3-85.5-1.9-170.7,14.3-254.4c27.4-143.8,17.9-291.3-0.1-434.3c-6.7-40.6-6.2-72.5,29.1-106.4c50.3-51,34.3-132.5-27.3-183.8
	c-54.2-45.3-187.5-98.3-250.2-56.5c-74.3,51.3-95.5,158.5-51.5,226.7c29.9,48.2,86.7,67.1,142.1,72.5c45.1,1.8,59.7,16.5,64.2,51.6
	c14.5,124,15.5,249.3,3.1,376c-7.4,103.2-28.1,205.1-19.4,307.1c0.8,18.7,36.8,59.6-29.4,55.7c-8.2,1.9-3.9,12.9,0.8,18.7
	c4.2,11.1,28.3,10.8,26.4,29.2C828.2,1618.9,769.1,1597.1,807.4,1640.9z M1259.1,294.4c-19.5,8.7-55.9-0.2-58.6-0.4
	c-39.4-33.2-74.4-2-99.4,8.9c-35.9,12.5-42.2-4.1-51.5-18.4C999,202.3,1020,124.4,1131,79.4c63.8-25.7,178.6-1.1,227.5,43.6
	c46.3,44.5,30,101.5-33.5,124.6c-30.3,10.3-62.8,15.2-101,24.7C1239,281.8,1249.1,288.1,1259.1,294.4z M854.9,558.5
	c-3.2,5-6.3,10,3.7,16.4c44.7,33.7,42.3,57.4-14.9,70.5c-29.8,5.1-47.7,24.6-72.7,35.5c-14,6.6-28.2,15.9-40.1,1.4
	c-12.2-11.8-13.5-25.3-1.9-34.8c34.8-28.6,30-61,17.7-99.5c-14.1-46.7,44.3-17,59-31.5C836.9,524.8,871.7,522.9,854.9,558.5z
	 M1523.5,696c-31.2-8.4-28.5,18.5-42.9,30.4c-26.1-5.2-5.3-27.2-25.7-37.1c-15.7,51.7,28.1,66.7,71.7,84.3
	c-36.7-6.3-28.1,42.5-67.7,38.7c-21.1-2.1-31.4-5.7-40.9-17.3c-39.7-57.2,4.8-130.1,79.9-136c37.7-4.3,73.3-14.1,102.7,12.7
	c12.2,11.8,24.3,23.7,17.2,41.7c-2.9,2.4-14,6.6-19.2,6.1c-24,0.3-16.9-17.6-21.2-28.7c-4-13.7-10.9-25-34.4-30
	C1553.8,685.6,1583.1,712.5,1523.5,696z M1120.8,129c4,13.7-6,34,14.9,38.8c20.9,4.7,22.9-16.4,29.2-26.4
	c3.7-10.3,5.2-26.1,25.6-16.1c15.1,9.5,35.9,14.2,45.4-0.9c7.1-18-24.8-18.4-25.9-34.5c34.8-1.9,60.2,11.2,70.5,41.5
	c12.5,35.9,6.5,69.9-35.2,87.1c-41.7,17.2-89.7,17.9-126.7-12.4c-34.6-27.4-28.6-61.4-9.2-96.8
	C1124.7,116.1,1118.7,123.5,1120.8,129z M1118.6,206c37,30.3,85,29.6,126.7,12.4c41.7-17.2,47.7-51.3,35.2-87.1
	c-10.4-30.3-35.7-43.5-70.5-41.5c1.1,16.1,35.6,16.8,25.9,34.5c-9.5,15.1-30.3,10.4-45.4,0.9c-20.3-10-21.6,3.2-25.6,16.1
	c-6.3,10-8.4,31.1-29.2,26.4c-20.9-4.7-10.9-25-14.9-38.8c-2.1-5.5,3.9-12.9-11.4-19.8"/>
</svg>
