<?xml version="1.0" encoding="utf-8"?>
<!-- Generator: Adobe Illustrator 14.0.0, SVG Export Plug-In . SVG Version: 6.00 Build 43363)  -->
<!DOCTYPE svg PUBLIC "-//W3C//DTD SVG 1.1//EN" "http://www.w3.org/Graphics/SVG/1.1/DTD/svg11.dtd">
<svg version="1.1"
	 id="svg8" sodipodi:docname="cycadidae.svg" inkscape:version="0.92.4 (5da689c313, 2019-01-14)" xmlns:dc="http://purl.org/dc/elements/1.1/" xmlns:cc="http://creativecommons.org/ns#" xmlns:rdf="http://www.w3.org/1999/02/22-rdf-syntax-ns#" xmlns:svg="http://www.w3.org/2000/svg" xmlns:sodipodi="http://sodipodi.sourceforge.net/DTD/sodipodi-0.dtd" xmlns:inkscape="http://www.inkscape.org/namespaces/inkscape"
	 xmlns="http://www.w3.org/2000/svg" xmlns:xlink="http://www.w3.org/1999/xlink" x="0px" y="0px" width="2267.717px"
	 height="2267.717px" viewBox="154.287 -60.981 2267.717 2267.717" enable-background="new 154.287 -60.981 2267.717 2267.717"
	 xml:space="preserve">
<sodipodi:namedview  id="base" inkscape:window-height="962" inkscape:document-units="mm" inkscape:window-x="-8" inkscape:window-y="-8" inkscape:pageopacity="0.0" inkscape:pageshadow="2" inkscape:current-layer="layer1" inkscape:window-width="1280" inkscape:window-maximized="1" borderopacity="1.0" bordercolor="#666666" showgrid="false" pagecolor="#ffffff" inkscape:cy="714.98108" inkscape:cx="1395.3944" inkscape:zoom="0.1400905">
	</sodipodi:namedview>
<g id="layer1" transform="translate(-95.41015,28.517215)" inkscape:groupmode="layer" inkscape:label="Capa 1">
	<path id="path3713" inkscape:connector-curvature="0" fill="none" stroke="#000000" stroke-width="0.2646" d="M1418.944,1967.057
		c-9.948-7.462-22.384-44.768-29.846-99.482c32.332-24.87,59.689-52.229,84.561-79.585c-9.948,62.176-22.384,124.353-27.357,184.041
		C1436.353,1972.03,1426.404,1969.542,1418.944,1967.057z M2513.245,688.712l-79.585,144.25l-19.897,101.968h-29.844l-4.975-62.177
		l-7.461,49.741l-22.384-44.768l-9.947,57.203l-27.358-64.662l-12.436,64.662l-42.279-54.715l-17.41,49.741l-37.306-44.768
		l-12.435,59.689l-27.357-49.739l-14.922,62.175l-24.87-44.766l-17.411,52.227l-22.382-44.768l-14.924,39.794l-14.922-24.871
		l-14.922,57.203l-19.897-47.255l-14.922,62.175l-9.947-32.331l-22.384,32.331c0,0-126.84,82.074-156.684,111.917
		c-29.846,32.333-92.022,111.918-92.022,111.918s-52.227,82.073-62.175,87.047c-12.437,2.485-17.41,7.462-17.41,7.462
		s-44.767,14.921-17.409,67.15c22.383,47.253,42.279,4.974,32.331,114.402l-159.171,206.427l74.612-375.544
		c-22.384,119.379-54.717,243.729-82.072,365.597l-87.047-186.529c17.408-64.665,44.766-116.891,87.047-141.762
		c19.896-12.436-7.462-79.585-29.846-42.279c-24.87,44.765-124.353,213.886-174.094,238.756
		c-87.045,44.768-109.429-77.1-74.61-144.25c32.331-67.15,74.61-92.021,74.61-92.021l-89.532,24.87l-39.794,39.795l12.436-57.203
		l-27.357,34.817l-9.949,34.82l-7.46,37.307l-27.357-52.229l-22.384,74.611l-19.896-57.203l-2.488,99.482l-39.791-74.611
		l-14.923,111.917l-24.871-59.688l-9.949,121.864l-22.384-72.123l-14.92,96.994l-29.846-96.994l-34.819,124.353l-7.462-116.891
		l-32.329,161.655l-34.821-64.661l-19.896,111.917l-27.357-39.794l-17.409,106.944l-44.768-82.073l-17.409,131.814l-24.871-57.203
		l-19.897,79.586l-29.845-64.662l-7.461,94.506l-27.357-57.203l-14.922,104.459l-37.306-114.406l-22.384,109.43l-19.896-94.506
		l-42.281,109.43l-14.922-101.968l-24.87,87.044v-67.15l-54.715,39.795l27.357-67.15l-69.638,34.817l79.586-77.097l-74.612,12.433
		l84.56-49.738c0,0-96.995,2.485-111.917,2.485c-14.922,0,121.865-67.15,121.865-67.15l-99.482-4.974l119.379-37.306
		l-136.788-14.924l114.405-7.459c0,0-19.897-14.924-77.098-14.924c-57.203,0,181.554-44.768,181.554-44.768
		s-131.814-34.817-154.197-39.791c-22.384-2.488,131.814,4.974,131.814,4.974l-22.384-49.741l114.404,12.436l-39.793-84.559
		l169.12,49.741c0,0-69.638-77.101-96.995-87.048c-24.871-12.435,111.917,22.383,111.917,22.383l-54.715-67.15l184.043,62.177
		l-104.458-116.892l87.047,37.307l-9.949-62.177l74.612,39.794l-22.384-72.127l106.942,49.741l-52.226-64.661l119.378,34.817
		l-37.306-49.741l87.046,27.355l-7.46-49.738l72.125,19.895v-27.355l92.021,19.896l109.429-7.462l124.353,37.307l29.846-29.845
		l-96.996-96.997l-69.638-54.715l-151.709,17.409l32.331-42.279l-99.481,34.817l34.818-34.817l-104.456,32.332l99.482-47.253
		l-164.146,4.974l34.819-42.279l-114.404,34.817l4.974-22.384l-99.481,24.872l4.974-39.794l-44.768,32.332l9.949-44.768
		l-89.534,79.586l17.409-27.356l-136.787,47.253l-2.488-34.819l-42.28,74.613l7.461-104.458l-67.15,94.509l9.949-94.509
		l-87.047,82.074l22.383-114.405l-14.922-44.766l-67.15-74.612l136.788,24.871l-84.56-94.509l131.813,54.716L406.713,748.4
		l114.405,59.691l-59.689-104.456l124.353,89.533c0,0-44.766-89.533-64.663-101.969c-19.896-9.949,136.788,72.125,136.788,72.125
		l-92.021-106.944l151.709,106.944l-52.228-139.275l159.171,144.248l12.435-134.3l29.846,126.838l67.15-104.456l-14.922,111.917
		c0,0,114.403-87.047,129.327-104.456c14.922-14.922-99.482,99.482-99.482,99.482l151.709-94.509l-82.071,109.431l82.071-29.845
		l-9.947,49.741l67.15-19.896l7.462,79.587l64.663,7.46l19.896,47.254c0,0,37.306,9.947,64.665,9.947
		c24.871,0,7.462,44.768,7.462,44.768l59.688,42.28l-2.488,42.28l72.125,37.306l2.486,42.279l87.047,99.482c0,0,0,0-2.486-94.509
		c-4.974-96.994-47.253-99.481-47.253-99.481l-14.924-44.766l-22.384-27.359l4.976-42.28l-47.255-7.461l-9.948-37.306
		l-54.713-37.304l9.947-24.871l-42.279-44.767l44.766-7.461l-121.865-34.819l29.844-14.922l-146.737-44.768h67.15l-96.994-42.279
		l74.612-7.46c0,0-124.353-9.949-136.788-9.949c-9.947,0,39.794-39.794,39.794-39.794s-129.328,19.897-149.224,19.897
		c-17.409,0,64.663-22.382,64.663-22.382l-59.689-14.924l-57.202,19.897l-14.922,4.974h-72.125l57.201-72.124l-126.839,47.253
		l19.897-64.662l-99.483,14.92l-32.331-62.176c0,0,94.507-29.844,14.922-37.305s57.202-14.922,57.202-14.922l-24.871-37.307h99.483
		l-67.15-49.74l116.891,44.767c0,0-84.56-99.482-116.891-131.814c32.332,24.871,116.891,87.047,116.891,87.047l-72.124-144.25
		l121.865,121.865l-42.279-124.352l94.507,74.611L881.74,104.255l79.585,121.866L948.89,104.255l92.021,121.866l2.488-104.458
		l64.662,126.84l27.359-121.866l34.818,129.328l42.281-94.508l-17.41,159.171l96.994-114.404l-49.74,171.606l129.327-104.457
		l-42.28,79.586l89.534-7.461l-32.333,47.254l42.281,9.948l-106.942,121.866l139.273-94.509l-49.741,67.15l77.099,7.461
		l-59.688,54.715l67.15,37.306l-44.768,27.357l57.203,24.87l-54.717,42.28l37.308,22.384l-24.87,34.818l32.33,27.358l-7.46,37.306
		l34.817,14.92l-7.462,42.282l22.384,7.459l-9.946,37.306l17.408,7.461l19.896,134.302l37.307,159.172l42.279-39.794l29.846-109.43
		l19.896-59.691l-34.817-14.92l22.383-34.819l-22.383-29.846l22.383-19.896l-22.383-37.305l29.844-37.306
		c0,0-37.306-42.282-49.741-42.282c-9.948,0,47.254-34.818,47.254-34.818s-27.356,0-39.792,0c-9.949,0,42.279-29.844,42.279-29.844
		l-32.331-42.279l44.767-22.384l-29.845-29.846l17.409-29.844l-44.768-34.817l74.611-14.924l-47.253-12.435l52.229-57.203
		l-34.819-42.279l57.201,4.975l-34.817-42.28l57.201-7.461l-37.306-24.871h64.665l-49.743-42.281l92.022,24.871l-27.357-44.767
		l77.099,42.279l-57.203-64.663l89.534,42.279l-29.846-54.715l37.306,14.922l34.819-17.409l14.922,7.461l22.384,14.923
		l14.922-42.281l27.359,57.203l52.228-29.845l12.434,67.151v171.607l-22.382,12.435c0,0-4.974,37.306-7.462,47.253
		c-4.974,12.436-29.844,32.333-29.844,32.333l-12.436,39.792c0,0-14.922,0-37.306,0c-22.383,0-12.436,47.255-12.436,47.255
		l-17.409,22.382l-24.872,29.845l-59.688,29.845l44.766,12.434l-89.532,37.306l59.688,22.385l-82.072,14.922l44.766,34.819
		l-49.739,12.436l19.896,9.947l-62.177,34.819l12.436,42.279c0,0-77.099,94.508-129.326,218.86
		c-52.229,124.354,42.279-2.485,101.969-82.073c62.177-79.584,149.224-179.066,149.224-179.066l37.306-62.175l7.461,19.894
		l34.819-27.356l4.973-14.924l12.436-37.306l14.922,29.846l27.359-64.664l22.382,12.436l12.436-49.741l42.281,22.382l7.46-64.662
		l29.844,27.356l22.385-64.662l37.306,44.766l19.896-59.69l37.308,49.741l12.434-57.201l29.846,37.305l22.382-49.74l27.359,54.716
		l39.793-57.203l-2.487,114.403l44.767-54.715L2513.245,688.712z M1483.607,1733.274l-94.509,121.864
		c-12.434-87.047-14.922-211.399,7.462-315.855C1413.968,1611.409,1446.301,1671.098,1483.607,1733.274z M1570.653,1872.548
		c-42.279,67.15-87.046,99.482-121.865,99.482l37.306-198.965c4.976-4.974,9.949-9.947,12.436-14.921
		C1523.4,1795.451,1548.27,1832.757,1570.653,1872.548z M677.802,213.685c-12.436-9.949-17.409-14.923-12.436-12.435
		C667.854,203.736,672.827,208.711,677.802,213.685z M1657.699,1521.874c-2.486,27.359-7.46,64.665-14.922,114.403
		c-12.436,101.971-39.793,179.067-72.125,233.782l-59.688-126.838L1657.699,1521.874z"/>
</g>
</svg>
