<?xml version="1.0" encoding="utf-8"?>
<!-- Generator: Adobe Illustrator 14.0.0, SVG Export Plug-In . SVG Version: 6.00 Build 43363)  -->
<!DOCTYPE svg PUBLIC "-//W3C//DTD SVG 1.1//EN" "http://www.w3.org/Graphics/SVG/1.1/DTD/svg11.dtd">
<svg version="1.1"
	 id="svg8" sodipodi:docname="datos-ecologicos.svg" inkscape:version="0.92.4 (5da689c313, 2019-01-14)" xmlns:dc="http://purl.org/dc/elements/1.1/" xmlns:cc="http://creativecommons.org/ns#" xmlns:rdf="http://www.w3.org/1999/02/22-rdf-syntax-ns#" xmlns:svg="http://www.w3.org/2000/svg" xmlns:sodipodi="http://sodipodi.sourceforge.net/DTD/sodipodi-0.dtd" xmlns:inkscape="http://www.inkscape.org/namespaces/inkscape"
	 xmlns="http://www.w3.org/2000/svg" xmlns:xlink="http://www.w3.org/1999/xlink" x="0px" y="0px" width="2267.717px"
	 height="2267.717px" viewBox="250.535 227.146 2267.717 2267.717" enable-background="new 250.535 227.146 2267.717 2267.717"
	 xml:space="preserve">
<sodipodi:namedview  id="base" inkscape:window-height="962" inkscape:document-units="mm" inkscape:window-x="-8" inkscape:window-y="-8" inkscape:pageopacity="0.0" inkscape:pageshadow="2" inkscape:current-layer="layer1" inkscape:window-width="1280" inkscape:window-maximized="1" borderopacity="1.0" bordercolor="#666666" showgrid="false" pagecolor="#ffffff" inkscape:cy="1110.6021" inkscape:cx="1372.4996" inkscape:zoom="0.1400905">
	</sodipodi:namedview>
<g id="layer1" transform="translate(-9.8677083,127.13229)" inkscape:groupmode="layer" inkscape:label="Capa 1">
	<path id="path3713" inkscape:connector-curvature="0" fill="none" stroke="#000000" stroke-width="0.25" d="M310.426,1055.645
		c0-92.586,76.385-168.969,171.286-168.969c32.406,0,62.497,9.257,87.955,25.46l266.186-212.948
		c-9.259-20.832-13.889-43.979-13.889-69.438c0-92.588,76.386-168.97,168.971-168.97c92.586,0,168.969,76.381,168.969,168.97
		c0,2.312,0,2.312,0,4.628l208.32,60.181c30.091-39.35,78.698-64.809,131.934-64.809c32.404,0,60.181,9.256,85.641,25.459
		l277.761-277.756c-16.203-25.463-25.464-53.239-25.464-85.643c0-92.587,78.7-168.97,171.284-168.97
		c92.587,0,166.655,76.383,166.655,168.97c0,92.586-74.068,168.97-168.969,168.97c-30.09,0-60.181-9.26-85.644-23.146
		l-277.756,275.443c16.202,25.459,25.459,55.549,25.459,87.955c0,92.587-74.066,168.97-168.968,168.97
		c-94.9,0-171.283-76.383-171.283-168.97c0-9.259,2.313-18.517,4.627-27.774l-196.745-55.553
		c-30.09,50.921-83.327,83.327-145.823,83.327c-37.034,0-74.068-13.886-101.844-34.718L629.849,972.318
		c13.889,25.458,20.833,53.234,20.833,83.327c0,92.584-76.383,168.97-168.97,168.97
		C389.125,1224.615,310.426,1148.229,310.426,1055.645z M1923.738,294.125c0,23.146,9.257,43.979,25.46,57.866l0,0
		c0,2.316,0,2.316,0,2.316c13.888,13.887,37.034,23.146,60.181,23.146c46.294,0,83.327-39.349,83.327-85.643
		s-37.033-83.327-83.327-83.327C1963.086,208.484,1923.738,245.517,1923.738,294.125z M1414.514,801.032
		c0,46.293,37.034,85.644,85.643,85.644c46.294,0,83.328-39.35,83.328-85.644c0-46.292-37.034-85.642-83.328-85.642
		C1453.864,715.39,1414.514,754.74,1414.514,801.032z M905.293,632.062c0,20.833,6.943,37.034,18.517,53.237l0,0l0,0
		c16.203,18.519,39.35,32.407,67.125,32.407c46.293,0,83.327-37.034,83.327-85.644c0-48.604-37.034-85.64-83.327-85.64
		C944.64,546.422,905.293,583.457,905.293,632.062z M396.069,1055.645c0,46.293,39.35,85.639,85.643,85.639
		c46.293,0,85.643-39.346,85.643-85.639c0-46.293-39.35-85.643-85.643-85.643C435.419,970.002,396.069,1009.352,396.069,1055.645z
		 M2092.706,1506.998V886.676h-168.968v583.29c-30.09-2.313-57.866-4.629-85.644-4.629V842.698
		c0-23.147,18.519-41.666,41.665-41.666h254.609c23.146,0,43.979,18.519,43.979,41.666v696.707
		C2150.573,1527.833,2122.799,1516.258,2092.706,1506.998z M1583.485,1504.687v-111.105h-168.971v187.489
		c-30.091,16.201-57.867,34.717-85.641,53.235V1351.92c0-23.146,20.831-41.667,43.977-41.667h254.613
		c23.146,0,41.661,18.521,41.661,41.667v131.932C1641.351,1490.799,1611.26,1497.742,1583.485,1504.687z M1236.286,2159.732H1118.24
		h-254.61H609.016h-254.61h-48.607c-23.147,0-41.664-20.832-41.664-43.979c0-23.146,18.517-41.664,41.664-41.664h4.627v-467.562
		c0-23.146,20.833-41.66,43.98-41.66h254.61c23.146,0,41.666,18.514,41.666,41.66v467.562H819.65v-888.824
		c0-23.146,20.833-43.981,43.979-43.981h254.61c23.147,0,41.664,20.834,41.664,43.981v599.493
		c-30.09,30.09-57.866,64.809-85.642,99.53v-657.361H905.293v847.162h168.968v-87.956
		C1125.183,2050.942,1178.42,2108.811,1236.286,2159.732z M565.039,1650.51h-168.97v423.579h168.97V1650.51z M2513.972,1967.615
		c-175.913,233.778-412.007,377.29-675.878,377.29c-261.555,0-499.963-143.512-675.875-377.29
		c-13.889-18.515-13.889-46.292,0-64.809c175.912-233.781,414.321-377.288,675.875-377.288
		c263.871,0,499.965,143.507,675.878,377.288C2527.86,1921.323,2527.86,1949.1,2513.972,1967.615z M1819.579,1645.878
		c-143.509,9.259-259.241,127.308-268.501,270.815c-11.573,173.598,131.937,317.105,305.535,305.534
		c143.51-9.26,261.553-124.992,270.813-268.5C2139,1780.13,1995.492,1636.619,1819.579,1645.878z M1988.547,1895.86
		c4.631,16.202,6.945,32.405,4.631,48.609c-4.631,78.698-67.125,141.195-145.822,145.822
		c-92.587,6.944-171.285-71.755-164.341-164.339c4.628-78.698,67.124-141.194,145.823-145.822c18.518-2.315,34.721,0,50.922,4.628
		l-41.665,150.45L1988.547,1895.86z"/>
</g>
</svg>
