<?xml version="1.0" encoding="utf-8"?>
<!-- Generator: Adobe Illustrator 22.1.0, SVG Export Plug-In . SVG Version: 6.00 Build 0)  -->
<svg version="1.1"
	 id="svg8" inkscape:version="0.92.4 (5da689c313, 2019-01-14)" sodipodi:docname="en-peligro-critico-cr.svg" xmlns:cc="http://creativecommons.org/ns#" xmlns:dc="http://purl.org/dc/elements/1.1/" xmlns:inkscape="http://www.inkscape.org/namespaces/inkscape" xmlns:rdf="http://www.w3.org/1999/02/22-rdf-syntax-ns#" xmlns:sodipodi="http://sodipodi.sourceforge.net/DTD/sodipodi-0.dtd" xmlns:svg="http://www.w3.org/2000/svg"
	 xmlns="http://www.w3.org/2000/svg" xmlns:xlink="http://www.w3.org/1999/xlink" x="0px" y="0px" viewBox="0 0 2267.7 2267.7"
	 style="enable-background:new 0 0 2267.7 2267.7;" xml:space="preserve">
<style type="text/css">
	.st0{fill:none;stroke:#000000;stroke-width:0.2646;}
</style>
<sodipodi:namedview  bordercolor="#666666" borderopacity="1.0" id="base" inkscape:current-layer="layer1" inkscape:cx="1188.0825" inkscape:cy="940.52369" inkscape:document-units="mm" inkscape:pageopacity="0.0" inkscape:pageshadow="2" inkscape:window-height="962" inkscape:window-maximized="1" inkscape:window-width="1280" inkscape:window-x="-8" inkscape:window-y="-8" inkscape:zoom="0.1400905" pagecolor="#ffffff" showgrid="false">
	</sodipodi:namedview>
<path class="st0" d="M2237.2,9.3H1065.7v2.2C476.6,46.7,9.8,535.3,9.8,1133.1C9.8,1753.8,512.9,2257,1133.7,2257
	c620.7,0,1123.9-503.2,1123.9-1123.9V29.6C2257.6,18.4,2248.4,9.3,2237.2,9.3z M834.1,1386.8c52.8,0,116.7-13.2,191.7-39.6v133.6
	c-61.7,25.7-130.5,38.5-206.6,38.5c-109.3,0-192.9-33.2-250.8-99.4c-57.9-66.3-86.8-161.4-86.8-285.5c0-78.1,14.2-146.5,42.6-205.3
	c28.5-58.7,69.3-103.8,122.5-135.1c53.3-31.4,115.7-47,187.3-47c73,0,146.3,17.6,220,52.9l-51.4,129.5c-28.1-13.3-56.4-25-84.8-34.9
	c-28.5-9.9-56.4-14.9-83.8-14.9c-59.9,0-106.4,22.5-139.3,67.5c-32.9,45.1-49.3,107.9-49.3,188.3
	C645.5,1303,708.3,1386.8,834.1,1386.8z M1609,1509l-179.3-288.3h-84.8V1509h-159.3V757.7h218.9c102.1,0,177.6,18.6,226.6,55.8
	c49,37.2,73.5,93.6,73.5,169.3c0,44.2-12.2,83.5-36.5,117.9c-24.3,34.5-58.8,61.5-103.3,81c113.1,168.9,186.7,278,221,327.3H1609z
	 M1543.7,986.9c0,36-12,62.4-35.9,79.1c-24,16.8-61.2,25.2-111.5,25.2h-51.4v-203h48.3c51.4,0,89.3,7.5,113.8,22.6
	C1531.5,926,1543.7,951.3,1543.7,986.9z"/>
</svg>
