<?xml version="1.0" encoding="utf-8"?>
<!-- Generator: Adobe Illustrator 22.1.0, SVG Export Plug-In . SVG Version: 6.00 Build 0)  -->
<svg version="1.1"
	 id="svg8" inkscape:version="0.92.4 (5da689c313, 2019-01-14)" sodipodi:docname="enciclovida_correo.svg" xmlns:cc="http://creativecommons.org/ns#" xmlns:dc="http://purl.org/dc/elements/1.1/" xmlns:inkscape="http://www.inkscape.org/namespaces/inkscape" xmlns:rdf="http://www.w3.org/1999/02/22-rdf-syntax-ns#" xmlns:sodipodi="http://sodipodi.sourceforge.net/DTD/sodipodi-0.dtd" xmlns:svg="http://www.w3.org/2000/svg"
	 xmlns="http://www.w3.org/2000/svg" xmlns:xlink="http://www.w3.org/1999/xlink" x="0px" y="0px" viewBox="0 0 2267.7 2267.7"
	 style="enable-background:new 0 0 2267.7 2267.7;" xml:space="preserve">
<style type="text/css">
	.st0{fill:none;stroke:#000000;stroke-width:0.2646;}
</style>
<sodipodi:namedview  bordercolor="#666666" borderopacity="1.0" id="base" inkscape:current-layer="layer1" inkscape:cx="922.73583" inkscape:cy="566.35025" inkscape:document-units="mm" inkscape:pageopacity="0.0" inkscape:pageshadow="2" inkscape:window-height="962" inkscape:window-maximized="1" inkscape:window-width="1280" inkscape:window-x="-8" inkscape:window-y="-8" inkscape:zoom="0.1400905" pagecolor="#ffffff" showgrid="false">
	</sodipodi:namedview>
<g id="layer1" transform="translate(-128.86771,29.132292)" inkscape:groupmode="layer" inkscape:label="Capa 1">
	<path id="path3713" inkscape:connector-curvature="0" class="st0" d="M146.2,1103.9c7.6,9.5,18.7,13.2,31.9,13.2
		c5.5,0,11.1-1.8,14.8-1.8c5.5,0,9.2-1.8,13.2-3.9v-12.9c-9.5,3.7-18.7,5.5-28,5.5c-7.6,0-16.9-1.8-20.6-7.4s-7.4-12.9-7.4-24.3
		h59.6v-9.2c0-13.2-1.8-22.4-9.5-29.8c-5.5-7.4-15-11.3-26.1-11.3s-20.3,3.9-28,13.2c-7.4,9.2-11.1,20.6-11.1,35.4
		C135.1,1085.4,138.5,1094.4,146.2,1103.9z M157.5,1042.4c3.7-5.5,9-7.4,16.6-7.4s13.2,1.8,16.9,5.5c3.7,5.5,5.5,11.1,5.5,20.6
		h-46.5C150.1,1053.5,153.8,1048,157.5,1042.4z M248.8,1115.2v-46.7c0-12.9,1.8-20.6,5.5-26.1c3.7-5.5,11.3-7.4,20.6-7.4
		c7.4,0,10.9,1.8,14.8,5.5c3.9,3.7,5.8,9.2,5.8,16.9v55.9h12.9v-57.8c0-11.3-1.8-18.7-7.4-24.3c-5.5-5.5-13.2-7.6-24.3-7.6
		c-5.5,0-11.3,2.1-16.9,3.9c-5.5,1.8-9.2,5.5-12.9,11.1l-1.8-12.9H234v89.5H248.8z M345.6,1103.9c7.6,7.4,16.9,11.3,29.8,11.3
		c9.5,0,16.9-1.8,22.4-5.8v-11.1c-7.4,3.7-14.8,5.5-22.4,5.5c-9.2,0-14.8-1.8-20.3-9.2c-5.5-7.4-7.6-15-7.6-26.1
		c0-24.3,9.5-35.4,28-35.4c1.8,0,5.8,0,9.5,1.8c3.7,1.8,5.5,1.8,9.2,3.7l3.7-11.1c-1.8-1.8-5.5-2.1-9.2-3.9
		c-3.7-1.8-9.2-1.8-13.2-1.8c-14.8,0-24.3,3.9-31.7,13.2c-7.4,9.2-11.1,20.6-11.1,35.4C332.7,1085.4,338,1096.5,345.6,1103.9z
		 M418.4,1008.9c1.8,1.8,3.7,1.8,5.5,1.8s3.7,0,5.5-1.8c1.8-1.8,1.8-3.7,1.8-7.4s0-5.8-1.8-7.6c-1.8-1.8-3.7-1.8-5.5-1.8
		s-3.7,0-5.5,1.8c-1.8,1.8-1.8,3.9-1.8,7.6C416.6,1003.4,416.6,1007.1,418.4,1008.9z M429.5,1115.2v-89.5h-12.9v89.5H429.5z
		 M467,1105.8c7.4,7.6,16.6,11.3,29.8,11.3c9.2,0,16.6-1.8,22.2-5.8v-11.1c-7.4,3.7-14.8,5.5-22.2,5.5c-9.5,0-15-1.8-20.6-9.2
		c-5.5-7.4-7.4-15-7.4-26.1c0-24.3,9.2-35.4,28-35.4c1.8,0,5.5,0,9.2,1.8c3.7,1.8,5.5,1.8,9.2,3.7l3.7-12.9
		c-1.8-1.8-5.5-2.1-9.2-3.9c-3.7-1.8-9.2-1.8-12.9-1.8c-15,0-24,3.9-31.7,13.2c-7.6,9.2-11.3,20.6-11.3,35.4
		C453.8,1085.4,459.6,1098.1,467,1105.8z M552.7,1115.2V988.3h-13.2v126.9H552.7z M582.6,1094.7c3.7,7.4,9.2,12.9,14.8,16.6
		c5.5,3.9,13.2,5.8,20.6,5.8c12.9,0,22.4-5.8,29.8-13.2c7.4-7.4,11.1-18.5,11.1-33.5c0-12.9-3.7-26.1-11.1-33.5
		c-7.4-9.2-16.9-13.2-29.8-13.2c-13.2,0-22.4,5.8-29.8,13.2c-7.4,7.4-11.3,18.7-11.3,33.5C576.8,1079.6,578.6,1087.3,582.6,1094.7z
		 M597.4,1044.3c5.5-5.5,11.1-9.2,20.6-9.2c9.2,0,16.6,3.7,20.6,9.2c5.5,5.5,7.4,15,7.4,26.1c0,11.1-3.7,20.6-7.4,26.1
		c-5.8,5.5-11.3,9.2-20.6,9.2c-9.5,0-16.9-3.7-20.6-9.2c-5.5-5.5-7.4-15-7.4-26.1C590,1059.3,593.7,1049.8,597.4,1044.3z
		 M700,1115.2h16.6l33.5-89.5h-14.8c-11.3,29.8-18.7,50.2-22.4,59.6c-3.7,9.2-5.5,14.8-5.5,18.5c0-3.7-3.7-11.1-7.4-24.3l-18.7-53.9
		h-15L700,1115.2z M765.2,1008.9c1.8,1.8,3.7,1.8,5.5,1.8c1.8,0,3.7,0,5.5-1.8c1.8-1.8,1.8-3.7,1.8-7.4s0-5.8-1.8-7.6
		c-1.8-1.8-3.7-1.8-5.5-1.8c-1.8,0-3.7,0-5.5,1.8c-1.8,1.8-1.8,3.9-1.8,7.6C763.3,1003.4,763.3,1007.1,765.2,1008.9z M776.3,1115.2
		v-89.5h-12.9v89.5H776.3z M811.9,1105.8c7.4,7.6,16.6,11.3,27.7,11.3c13.2,0,22.4-3.7,28-13.2l2.1,11.3h11.1V988.3h-13.2v46.7h-1.8
		c-5.5-9.2-15-13.2-28-13.2c-12.9,0-22.2,5.8-28,13.2c-5.5,9.2-9.2,20.6-9.2,35.4C800.5,1085.4,804.2,1096.5,811.9,1105.8z
		 M821.1,1044.3c3.7-5.5,11.1-9.2,18.5-9.2c9.5,0,16.9,1.8,20.6,7.4s5.5,15,5.5,28v3.7c0,11.3-1.8,18.7-5.5,24.3s-11.1,7.4-20.6,7.4
		c-7.4,0-14.8-3.7-18.5-9.2s-5.5-15-5.5-26.1C815.6,1059.3,817.4,1049.8,821.1,1044.3z M912.4,1109.5c3.7,5.8,11.1,7.6,20.6,7.6
		c7.4,0,12.9-1.8,16.6-3.7c3.7-2.1,9.5-5.8,13.2-11.3l1.8,13.2h9.2v-61.7c0-9.2-1.8-16.6-7.4-22.2c-5.5-5.5-13.2-7.6-24.3-7.6
		c-3.7,0-9.2,0-14.8,2.1c-5.8,1.8-11.3,3.7-15,5.5l3.7,11.1c9.2-5.5,18.7-7.4,26.1-7.4c7.4,0,11.1,1.8,15,5.5
		c1.8,1.8,3.7,7.4,3.7,15v7.4h-15c-28,0-42.8,9.2-42.8,28C903.2,1098.4,905,1105.8,912.4,1109.5z M923.5,1075.9
		c5.8-3.7,13.2-5.5,24.3-5.5h13.2v7.4c0,9.5-1.8,16.9-7.6,20.6c-5.5,5.5-11.1,7.4-20.3,7.4c-5.5,0-11.3-1.8-13.2-3.7
		c-1.8-1.8-3.7-5.5-3.7-11.1C916.1,1083.6,919.8,1079.6,923.5,1075.9z M1013,1113.4c11.3,11.1,26.1,16.6,46.7,16.6
		c13.2,0,24.3-3.7,35.4-7.4v-11.3c-11.1,5.8-24.3,7.6-35.4,7.6c-16.6,0-28-3.7-37.2-13.2c-9.5-9.2-13.2-22.2-13.2-39.1
		c0-11.1,1.8-22.4,7.6-31.7c3.7-9.2,10.9-15,20.3-20.6c9.5-5.5,18.7-7.4,31.7-7.4c9.5,0,16.9,1.8,29.8,5.5
		c7.6,3.7,13.2,9.2,16.9,16.9c3.7,7.4,5.5,16.9,5.5,26.1s-1.8,16.4-5.5,22.2c-3.7,5.8-7.4,9.5-12.9,9.5c-7.6,0-11.3-5.8-11.3-15
		v-1.8l1.8-39.1c-3.7,0-7.4-1.8-12.9-1.8c-5.5-1.8-9.5-1.8-13.2-1.8c-11.1,0-20.3,3.7-26.1,11.1c-5.5,7.4-9.2,16.9-9.2,28
		c0,9.2,3.5,16.9,7.4,22.4s11.3,7.4,18.7,7.4c5.5,0,11.3,0,15-3.7c3.7-3.7,7.4-5.5,9.2-11.3c0,5.8,5.5,9.5,7.4,11.3
		c1.8,1.8,5.5,3.7,11.3,3.7c5.5,0,11.1-1.8,14.8-5.5c3.7-3.7,7.4-9.5,9.2-15c1.8-5.5,3.7-12.9,3.7-20.3c0-11.3-1.8-22.4-7.4-31.9
		c-3.7-9.2-11.1-14.8-20.3-20.3c-9.5-5.5-20.6-7.6-31.9-7.6c-14.8,0-28,3.9-37.2,9.5c-9.2,5.5-18.7,14.8-24.3,26.1
		c-5.5,11.1-9.2,22.2-9.2,37.2C998.2,1087.3,1001.6,1102.3,1013,1113.4z M1050.4,1044.3c3.7-5.5,9.2-7.4,16.6-7.4
		c5.8,0,9.5,0,13.2,1.8l-1.8,22.4c-1.8,16.6-7.6,26.1-18.7,26.1s-16.6-7.6-16.6-20.6C1043,1057.5,1046.7,1049.8,1050.4,1044.3z
		 M1162.3,1103.9c7.4,7.4,16.6,11.3,29.8,11.3c9.2,0,16.6-1.8,22.2-5.8v-11.1c-7.4,3.7-14.8,5.5-22.2,5.5c-9.5,0-16.9-3.7-20.6-9.2
		c-5.5-7.4-7.4-15-7.4-26.1c0-24.3,9.2-35.4,28-35.4c1.8,0,5.5,0,9.2,1.8s5.5,1.8,9.2,3.7l3.7-11.1c-1.8-1.8-5.5-2.1-9.2-3.9
		c-3.7-1.8-9.2-1.8-12.9-1.8c-15,0-24.3,5.8-31.7,13.2c-7.6,9.2-11.3,20.6-11.3,35.4C1149.1,1085.4,1150.9,1096.5,1162.3,1103.9z
		 M1233,1094.7c3.7,7.4,9.5,12.7,15,16.6s12.9,5.8,20.3,5.8c13.2,0,22.4-5.8,29.8-13.2c7.6-7.4,11.3-18.5,11.3-33.5
		c0-12.9-3.7-26.1-11.3-33.5c-7.4-9.2-16.6-13.2-29.8-13.2c-12.9,0-22.2,5.8-29.8,13.2c-7.4,7.4-11.1,18.7-11.1,33.5
		C1227.5,1079.6,1229.3,1087.3,1233,1094.7z M1249.9,1044.3c5.5-5.5,11.1-9.2,20.3-9.2c9.5,0,16.9,3.7,20.6,9.2
		c5.5,5.5,7.4,15,7.4,26.1c0,11.1-3.7,20.6-7.4,26.1c-5.5,5.5-11.3,9.2-20.6,9.2c-9.2,0-16.6-3.7-20.3-9.2c-5.8-5.5-7.6-15-7.6-26.1
		C1242.2,1059.3,1244.1,1049.8,1249.9,1044.3z M1348.6,1115.2v-46.7c0-12.9,3.7-20.6,7.4-26.1c3.7-5.5,11.3-7.4,20.6-7.4
		c5.5,0,11.3,1.8,15,5.5s5.5,9.2,5.5,16.9v57.8h12.9v-57.8c0-13.2-5.5-18.7-11.1-24.3s-13.2-7.4-24.3-7.4c-5.5,0-13.2,1.8-16.9,3.7
		c-3.7,1.8-9.2,5.5-11.1,9.2l-1.8-12.9h-11.1v89.5H1348.6z M1441.7,1109.5c3.7,5.8,11.3,7.6,20.6,7.6c7.4,0,12.9-1.8,16.9-3.7
		c3.7-2.1,9.2-5.8,12.9-11.3l1.8,13.2h9.2v-61.7c0-9.2-3.7-16.6-9.2-22.2c-5.5-5.5-12.9-7.6-24.3-7.6c-3.7,0-9.2,0-14.8,2.1
		c-5.5,1.8-11.3,3.7-15,5.5l3.7,11.1c9.5-5.5,18.5-7.4,26.1-7.4s11.3,1.8,15,5.5c1.8,1.8,3.7,7.4,3.7,15v7.4h-15
		c-28,0-42.8,9.2-42.8,28C1430.6,1098.4,1432.5,1105.8,1441.7,1109.5z M1453.1,1075.9c5.5-3.7,12.9-5.5,24.3-5.5h12.9v7.4
		c0,9.5-1.8,16.9-7.4,20.6c-5.5,5.5-11.3,7.4-20.6,7.4c-5.5,0-11.1-1.8-12.9-3.7c-1.8-1.8-3.9-5.5-3.9-11.1
		C1445.4,1083.6,1447.5,1079.6,1453.1,1075.9z M1540.7,1115.2v-11.3h1.8c3.7,3.7,7.4,7.4,12.9,9.5c5.5,1.8,11.3,3.7,16.9,3.7
		c12.9,0,20.6-5.8,28-13.2c5.5-7.4,9.2-18.7,9.2-33.5c0-14.8-1.8-26.1-9.2-33.5c-7.4-7.4-16.9-11.1-28-11.1
		c-13.2,0-22.4,3.7-28,12.9v-50.4h-13.2v126.9H1540.7z M1551.8,1042.4c3.7-5.5,11.3-7.4,20.6-7.4c7.4,0,14.6,3.7,18.5,9.2
		s5.8,15,5.8,26.1c0,11.1-3.9,20.6-7.6,26.1s-11.1,9.2-18.5,9.2c-9.5,0-16.9-1.8-20.6-7.4s-5.5-14.8-5.5-28
		C1544.4,1057.5,1546.2,1048,1551.8,1042.4z M1633.8,1008.9c1.8,1.8,3.7,1.8,5.5,1.8c1.8,0,3.7,0,5.5-1.8c1.8-1.8,1.8-3.7,1.8-7.4
		s0-5.8-1.8-7.6c-1.8-1.8-3.7-1.8-5.5-1.8c-1.8,0-3.7,0-5.5,1.8c-1.8,1.8-1.8,3.9-1.8,7.6C1632,1003.4,1633.8,1007.1,1633.8,1008.9z
		 M1646.8,1115.2v-89.5h-12.9v89.5H1646.8z M1676.6,1094.7c3.9,7.4,9.5,12.7,15,16.6s12.9,5.8,20.6,5.8c12.9,0,22.2-5.8,29.8-13.2
		c7.4-7.4,11.1-18.5,11.1-33.5c0-12.9-3.7-26.1-11.1-33.5c-7.6-9.2-16.9-13.2-29.8-13.2c-13.2,0-22.4,5.8-29.8,13.2
		c-7.6,7.4-11.3,18.7-11.3,33.5C1671,1079.6,1672.9,1087.3,1676.6,1094.7z M1691.6,1044.3c5.5-5.5,11.1-9.2,20.6-9.2
		c9.2,0,16.6,3.7,20.3,9.2c5.8,5.5,7.6,15,7.6,26.1c0,11.1-3.7,20.6-7.6,26.1c-5.5,5.5-10.9,9.2-20.3,9.2s-16.9-3.7-20.6-9.2
		c-5.5-5.5-7.4-15-7.4-26.1C1684.2,1059.3,1687.9,1049.8,1691.6,1044.3z M1777.3,1115.2c1.8,1.8,5.5,1.8,7.4,1.8
		c3.7,0,5.3-1.6,7.4-3.7c2.1-2.1,2.1-3.9,2.1-7.6s0-5.5-2.1-7.4c-1.8-1.8-3.7-3.7-7.4-3.7c-3.7,0-5.5,1.8-7.4,3.7
		c-1.8,1.8-1.8,3.7-1.8,7.4C1775.5,1111.3,1775.5,1113.4,1777.3,1115.2z M1822,1146.9c5.8,5.5,15,7.4,26.1,7.4
		c16.9,0,28.2-1.8,35.6-7.4c7.4-5.5,11.1-13.2,11.1-22.4c0-7.4-3.7-13.2-7.4-18.7c-5.5-3.7-13.2-5.5-22.4-5.5h-16.9
		c-5.5,0-9.2,1.8-11.1,0s-3.7-3.7-3.7-5.5c0-3.7,3.7-7.4,9.2-11.1h7.4c9.5,0,18.7-2.1,24.3-7.6s9.5-11.1,9.5-20.3
		c0-3.9,0-7.6-1.8-11.3c0-3.7-2.1-5.5-3.9-7.4l16.9-1.8v-9.2H1865c-3.7-2.1-7.4-2.1-12.9-2.1c-9.5,0-18.7,2.1-24.3,7.6
		c-5.8,5.5-9.5,12.9-9.5,22.2c0,5.8,1.6,11.3,3.7,15c2.1,3.7,5.8,7.4,11.3,9.2c-3.7,1.8-5.5,3.9-7.4,7.6c-1.8,3.7-1.8,5.5-1.8,9.2
		c0,1.8,0,5.5,1.8,7.4c1.8,3.7,3.7,3.7,5.5,5.5c-7.4,0-11.3,2.1-15,7.6s-5.5,9.2-5.5,14.8C1810.9,1137.4,1814.6,1145.1,1822,1146.9z
		 M1827.7,1117.1c3.7-1.8,9.2-3.7,14.8-3.7h16.9c7.4,0,12.9,1.8,16.6,3.7c1.8,1.8,3.7,3.7,3.7,9.2s-1.8,9-7.4,12.9
		s-14.8,5.8-26.1,5.8c-7.4,0-12.9-1.8-16.6-3.7c-3.7-2.1-5.5-5.8-5.5-11.3C1824,1124.5,1825.9,1120.8,1827.7,1117.1z M1837,1040.6
		c3.7-3.7,9.2-5.5,15-5.5c12.9,0,20.3,7.6,20.3,20.6s-7.4,18.5-20.3,18.5c-5.8,0-11.3-1.8-15-5.5c-3.7-3.7-5.5-9.2-5.5-15
		C1831.4,1048,1833.3,1042.4,1837,1040.6z M1913.5,1094.7c3.7,7.4,11.1,12.7,16.6,16.6s13.2,5.8,20.6,5.8c12.9,0,22.4-5.8,29.8-13.2
		c7.4-7.4,11.1-18.5,11.1-33.5c0-12.9-3.7-26.1-11.1-33.5c-7.4-9.2-16.9-13.2-29.8-13.2c-13.2,0-22.4,5.8-29.8,13.2
		c-7.4,7.4-11.1,18.7-11.1,33.5C1909.8,1079.6,1909.8,1087.3,1913.5,1094.7z M1930.1,1044.3c5.5-5.5,11.3-9.2,20.6-9.2
		c9.2,0,16.9,3.7,20.6,9.2c5.5,5.5,7.4,15,7.4,26.1c0,11.1-3.7,20.6-7.4,26.1c-5.8,5.5-11.3,9.2-20.6,9.2c-9.2,0-16.9-3.7-20.6-9.2
		c-5.5-5.5-7.4-15-7.4-26.1C1922.7,1059.3,1924.6,1049.8,1930.1,1044.3z M2025.4,1115.2v-11.3h1.8c3.7,3.7,7.4,7.4,12.9,9.5
		c5.5,1.8,11.1,3.7,16.9,3.7c12.9,0,20.3-5.8,28-13.2c5.5-7.4,9.2-18.7,9.2-33.5c0-14.8-1.6-26.1-9.2-33.5
		c-7.6-7.4-16.9-11.1-28-11.1c-13.2,0-22.4,3.7-28,12.9v-50.4h-13.2v126.9H2025.4z M2034.6,1042.4c3.7-5.5,11.1-7.4,20.6-7.4
		c7.4,0,14.8,3.7,18.5,9.2s5.5,15,5.5,26.1c0,11.1-1.8,20.6-5.5,26.1s-11.1,9.2-18.5,9.2c-9.5,0-16.9-1.8-20.6-7.4
		c-3.7-5.5-5.5-14.8-5.5-28C2029.1,1057.5,2030.9,1048,2034.6,1042.4z M2118.5,1115.2c1.8,1.8,5.5,1.8,7.4,1.8
		c3.7,0,5.5-1.6,7.4-3.7c1.8-2.1,1.8-3.9,1.8-7.6s0-5.5-1.8-7.4c-1.8-1.8-3.7-3.7-7.4-3.7s-5.5,1.8-7.4,3.7
		c-1.8,1.8-1.8,3.7-1.8,7.4C2116.7,1111.3,2116.7,1113.4,2118.5,1115.2z M2163.1,1113.4h13.2v-46.7c0-11.1,1.8-18.7,5.5-24.3
		s9.2-7.4,18.7-7.4c7.4,0,12.9,1.8,14.8,5.5s3.7,9.2,3.7,16.9v57.8h13.2v-50.4c0-9.2,1.8-16.9,5.5-22.4c3.7-5.5,9.2-7.4,18.7-7.4
		c7.4,0,12.9,1.8,14.8,5.5s3.7,9.2,3.7,16.9v57.8h13.2v-57.8c0-11.3-1.8-18.7-7.6-24.3c-3.7-5.5-12.9-7.4-22.2-7.4
		c-5.8,0-13.2,0-16.9,3.7c-3.7,3.7-9.2,7.4-11.1,11.1c-5.8-9.2-13.2-14.8-28-14.8c-5.8,0-9.5,1.8-15,3.7c-5.5,1.8-9.2,5.5-11.1,9.2
		l-1.8-12.9h-11.3v89.5V1113.4z M2323.5,1117.1l26.1-37.4l24.3,37.4h14.8l-33.5-46.7l31.7-44.6h-14.8l-24.3,33.5l-24.3-33.5h-15
		l31.7,42.8l-33.5,46.7L2323.5,1117.1z"/>
</g>
</svg>
