<?xml version="1.0" encoding="utf-8"?>
<!-- Generator: Adobe Illustrator 22.1.0, SVG Export Plug-In . SVG Version: 6.00 Build 0)  -->
<svg version="1.1"
	 id="svg8" inkscape:version="0.92.4 (5da689c313, 2019-01-14)" sodipodi:docname="extinto-en-estado-silvestre-ew-evaluacion-conabio.svg" xmlns:cc="http://creativecommons.org/ns#" xmlns:dc="http://purl.org/dc/elements/1.1/" xmlns:inkscape="http://www.inkscape.org/namespaces/inkscape" xmlns:rdf="http://www.w3.org/1999/02/22-rdf-syntax-ns#" xmlns:sodipodi="http://sodipodi.sourceforge.net/DTD/sodipodi-0.dtd" xmlns:svg="http://www.w3.org/2000/svg"
	 xmlns="http://www.w3.org/2000/svg" xmlns:xlink="http://www.w3.org/1999/xlink" x="0px" y="0px" viewBox="0 0 2267.7 2267.7"
	 style="enable-background:new 0 0 2267.7 2267.7;" xml:space="preserve">
<style type="text/css">
	.st0{fill:none;stroke:#000000;stroke-width:0.2646;}
</style>
<sodipodi:namedview  bordercolor="#666666" borderopacity="1.0" id="base" inkscape:current-layer="layer1" inkscape:cx="2000.3142" inkscape:cy="2003.0734" inkscape:document-units="mm" inkscape:pageopacity="0.0" inkscape:pageshadow="2" inkscape:window-height="962" inkscape:window-maximized="1" inkscape:window-width="1280" inkscape:window-x="-8" inkscape:window-y="-8" inkscape:zoom="0.14369886" pagecolor="#ffffff" showgrid="false">
	</sodipodi:namedview>
<path class="st0" d="M1133.9,5.4C574.5,5.4,121,458.9,121,1018.3c0,246.9,88.4,473.2,235.2,648.8h-1.6
	c299,354.4,779.4,595.2,779.4,595.2s480.5-240.8,779.5-595.2h-1.9c146.8-175.7,235.1-401.9,235.1-648.8
	C2146.7,458.9,1693.3,5.4,1133.9,5.4z M849,912.6H602.2v148.9h229.7v117.8H602.2v174.9H849V1473H458.3V794.7H849V912.6z
	 M1651.1,1473h-163.8l-91.9-356.3c-3.4-12.7-9.2-38.9-17.4-78.6c-8.2-39.8-12.9-66.4-14.1-80c-1.9,16.7-6.5,43.5-13.9,80.5
	c-7.4,37-13.2,63.3-17.1,79.1l-91.4,355.4h-163.3L905.1,794.7h141.5l86.8,370.2c15.1,68.4,26.1,127.6,32.9,177.7
	c1.8-17.6,6.1-44.9,12.8-81.9c6.7-37,12.9-65.7,18.8-86.1l98.8-380h135.9l98.8,380c4.4,17,9.7,43,16.3,77.9
	c6.5,34.9,11.4,64.9,14.8,90c3.1-24.1,8-54.2,14.8-90.2c6.8-36,13-65.2,18.6-87.4l86.3-370.2h141.5L1651.1,1473z"/>
</svg>
