<?xml version="1.0" encoding="utf-8"?>
<!-- Generator: Adobe Illustrator 22.1.0, SVG Export Plug-In . SVG Version: 6.00 Build 0)  -->
<svg version="1.1"
	 id="svg8" inkscape:version="0.92.4 (5da689c313, 2019-01-14)" sodipodi:docname="myxini.svg" xmlns:cc="http://creativecommons.org/ns#" xmlns:dc="http://purl.org/dc/elements/1.1/" xmlns:inkscape="http://www.inkscape.org/namespaces/inkscape" xmlns:rdf="http://www.w3.org/1999/02/22-rdf-syntax-ns#" xmlns:sodipodi="http://sodipodi.sourceforge.net/DTD/sodipodi-0.dtd" xmlns:svg="http://www.w3.org/2000/svg"
	 xmlns="http://www.w3.org/2000/svg" xmlns:xlink="http://www.w3.org/1999/xlink" x="0px" y="0px" viewBox="0 0 2267.7 2267.7"
	 style="enable-background:new 0 0 2267.7 2267.7;" xml:space="preserve">
<style type="text/css">
	.st0{fill:none;stroke:#000000;stroke-miterlimit:10;}
</style>
<sodipodi:namedview  bordercolor="#666666" borderopacity="1.0" id="base" inkscape:current-layer="layer1" inkscape:cx="1412.9289" inkscape:cy="675.55307" inkscape:document-units="mm" inkscape:pageopacity="0.0" inkscape:pageshadow="2" inkscape:window-height="962" inkscape:window-maximized="1" inkscape:window-width="1280" inkscape:window-x="-8" inkscape:window-y="-8" inkscape:zoom="0.1400905" pagecolor="#ffffff" showgrid="false">
	</sodipodi:namedview>
<g id="layer1" transform="translate(-90.770801,28.564592)" inkscape:groupmode="layer" inkscape:label="Capa 1">
	<path id="path3713" inkscape:connector-curvature="0" class="st0" d="M2252.7,1751.8c-85.5,129.4-210,205.1-363.9,232
		c-44,7.3-85.5,12.2-127,24.4c-100.1,29.3-185.6-24.4-268.6-65.9c-90.4-46.4-183.1-95.2-254-175.8c-9.8-12.2-31.7-19.5-48.8-26.9
		c-217.3-85.5-427.3-185.6-627.6-305.2c-46.4-29.3-87.9-65.9-129.4-105c-58.6-56.2-31.7-249.1,46.4-275.9
		c168.5-53.7,327.2-31.7,483.5,46.4c144.1,73.3,258.8,183.1,385.8,280.8c92.8,73.3,188,144.1,305.2,180.7
		c70.8,22,141.6,29.3,214.9,2.4c122.1-41.5,170.9-190.5,95.2-293c-34.2-46.4-75.7-87.9-119.7-122.1
		c-107.4-87.9-217.3-170.9-324.8-258.8c-151.4-124.5-334.6-183.1-520.1-234.4c-122.1-34.2-251.5-48.8-368.7-95.2
		c-22-7.3-51.3,136.8-53.7,161.2c-4.9,29.3-24.4,26.9-41.5,26.9c-19.5-2.4-41.5-2.4-44-29.3c-2.4-4.9,0-12.2-4.9-17.1
		c-44-51.3-65.9-232-227.1-65.9c-9.8,9.8-46.4,7.3-58.6-7.3c-24.4-22-34.2-12.2-46.4-44c-4.9-9.8,9.8-14.7,17.1-19.5
		c14.7-7.3,173.4-119.7,188-134.3c-22-22-249.1-39.1-256.4-70.8c-2.4-9.8,14.7-151.4,22-161.2c7.3-7.3,17.1-4.9,26.9,0
		c78.1,29.3,334.6,95.2,415.1,85.5c183.1-24.4,363.9-7.3,544.6,24.4c197.8,34.2,380.9,100.1,561.7,180.7
		c217.3,95.2,410.3,227.1,549.4,420C2360.1,1099.8,2399.2,1529.5,2252.7,1751.8z M2103.7,1512.4
		c-273.5,263.7-371.2,158.7-429.8,139.2c-80.6-29.3-105-36.6-175.8-87.9c-70.8-53.7-141.6-105-210-161.2
		c-163.6-134.3-339.4-232-549.4-261.3c-63.5-9.8-124.5-2.4-185.6,24.4c-12.2,7.3-31.7,12.2-24.4,36.6c7.3,19.5,149,95.2,161.2,80.6
		c31.7-41.5,53.7-4.9,78.1-7.3c31.7-2.4,12.2,44,41.5,41.5c61-9.8,105,19.5,136.8,68.4c2.4,2.4,4.9,4.9,7.3,4.9
		c70.8-9.8,92.8,61,139.2,90.4c31.7,22,68.4,31.7,107.4,48.8c-12.2,36.6,14.7,48.8,44,61c19.5,7.3,44,9.8,51.3,31.7
		c19.5,44,44,39.1,78.1,9.8c0,19.5-22,34.2-12.2,51.3c22,31.7,34.2,78.1,87.9,68.4c31.7-4.9,58.6,2.4,68.4,46.4
		c0,4.9,14.7,36.6,36.6,24.4c34.2-22,56.2-7.3,80.6,12.2c17.1,14.7,7.3,9.8,63.5,9.8C1698.3,1844.6,2063.5,1887.4,2103.7,1512.4z"/>
</g>
</svg>
