<?xml version="1.0" encoding="utf-8"?>
<!-- Generator: Adobe Illustrator 22.1.0, SVG Export Plug-In . SVG Version: 6.00 Build 0)  -->
<svg version="1.1"
	 id="svg8" inkscape:version="0.92.4 (5da689c313, 2019-01-14)" sodipodi:docname="semaforo-no-datos.svg" xmlns:cc="http://creativecommons.org/ns#" xmlns:dc="http://purl.org/dc/elements/1.1/" xmlns:inkscape="http://www.inkscape.org/namespaces/inkscape" xmlns:rdf="http://www.w3.org/1999/02/22-rdf-syntax-ns#" xmlns:sodipodi="http://sodipodi.sourceforge.net/DTD/sodipodi-0.dtd" xmlns:svg="http://www.w3.org/2000/svg"
	 xmlns="http://www.w3.org/2000/svg" xmlns:xlink="http://www.w3.org/1999/xlink" x="0px" y="0px" viewBox="0 0 2267.7 2267.7"
	 style="enable-background:new 0 0 2267.7 2267.7;" xml:space="preserve">
<style type="text/css">
	.st0{fill:none;stroke:#000000;stroke-width:0.25;stroke-miterlimit:10;}
</style>
<sodipodi:namedview  bordercolor="#666666" borderopacity="1.0" id="base" inkscape:current-layer="layer1" inkscape:cx="1410.5045" inkscape:cy="1174.8538" inkscape:document-units="mm" inkscape:pageopacity="0.0" inkscape:pageshadow="2" inkscape:window-height="962" inkscape:window-maximized="1" inkscape:window-width="1280" inkscape:window-x="-8" inkscape:window-y="-8" inkscape:zoom="0.1400905" pagecolor="#ffffff" showgrid="false">
	</sodipodi:namedview>
<g id="layer1" transform="translate(0.18776406,150.24111)" inkscape:groupmode="layer" inkscape:label="Capa 1">
	<path id="path3713" inkscape:connector-curvature="0" class="st0" d="M2120.9,839c0,244-88.1,465.4-232.7,637l-628-628V601.8h-244
		L498.9,86.8C670.6-57.8,892-145.9,1133.7-145.9C1680.4-145.9,2120.9,294.6,2120.9,839z M2168.3,1860.1l-155.9,158.1L99,104.9
		L257.2-51L2168.3,1860.1z M1000.4,375.9c-2.3,67.8,49.7,126.5,131,126.5c83.6,0,137.8-58.7,137.8-126.5
		c-2.3-74.5-54.2-128.8-135.5-128.8S998.1,301.4,1000.4,375.9z M1007.2,1415.1h253v-45.2L1599,1711
		c-137.8,74.5-295.9,117.5-465.4,117.5c-6.8,0-13.6-2.3-20.3-2.3L648,2113.1l11.3-408.9c-305-167.2-512.8-492.5-512.8-865.2
		c0-167.2,42.9-325.3,117.5-463.1l736.4,736.6L1007.2,1415.1z"/>
</g>
</svg>
