<?xml version="1.0" encoding="utf-8"?>
<!-- Generator: Adobe Illustrator 22.1.0, SVG Export Plug-In . SVG Version: 6.00 Build 0)  -->
<svg version="1.1"
	 id="svg8" inkscape:version="0.92.4 (5da689c313, 2019-01-14)" sodipodi:docname="semaforo-moderado.svg" xmlns:cc="http://creativecommons.org/ns#" xmlns:dc="http://purl.org/dc/elements/1.1/" xmlns:inkscape="http://www.inkscape.org/namespaces/inkscape" xmlns:rdf="http://www.w3.org/1999/02/22-rdf-syntax-ns#" xmlns:sodipodi="http://sodipodi.sourceforge.net/DTD/sodipodi-0.dtd" xmlns:svg="http://www.w3.org/2000/svg"
	 xmlns="http://www.w3.org/2000/svg" xmlns:xlink="http://www.w3.org/1999/xlink" x="0px" y="0px" viewBox="0 0 2267.7 2267.7"
	 style="enable-background:new 0 0 2267.7 2267.7;" xml:space="preserve">
<style type="text/css">
	.st0{fill:none;stroke:#000000;stroke-width:0.2646;}
</style>
<sodipodi:namedview  bordercolor="#666666" borderopacity="1.0" id="base" inkscape:current-layer="layer1" inkscape:cx="2127.8685" inkscape:cy="1924.6451" inkscape:document-units="mm" inkscape:pageopacity="0.0" inkscape:pageshadow="2" inkscape:window-height="962" inkscape:window-maximized="1" inkscape:window-width="1280" inkscape:window-x="-8" inkscape:window-y="-8" inkscape:zoom="0.14369886" pagecolor="#ffffff" showgrid="false">
	</sodipodi:namedview>
<g id="layer1" transform="translate(-24.118972,119.13154)" inkscape:groupmode="layer" inkscape:label="Capa 1">
	<path id="path3713" inkscape:connector-curvature="0" class="st0" d="M1955.3,1806.4c-439.3,439.3-1155.4,439.3-1594.7,0
		C-81,1369.5-81,660.5,360.6,221.3c439.3-436.9,1153-436.9,1594.7,0C2397,660.5,2397,1369.5,1955.3,1806.4z M1045.8,548.3
		l19.1,642.2c0,50.1,43,90.7,93.1,90.7c52.5,0,93.1-40.6,93.1-90.7l19.1-642.2c2.4-62.1-47.7-114.6-112.2-114.6
		C1095.9,433.7,1045.8,486.3,1045.8,548.3z M1275,1479.3c0-64.5-52.5-117-117-117c-64.5,0-117,52.5-117,117
		c0,64.5,57.7,114.6,117,114.6C1229.1,1593.9,1275,1532.5,1275,1479.3z"/>
</g>
</svg>
