<?xml version="1.0" encoding="utf-8"?>
<!-- Generator: Adobe Illustrator 22.1.0, SVG Export Plug-In . SVG Version: 6.00 Build 0)  -->
<svg version="1.1"
	 id="svg8" inkscape:version="0.92.4 (5da689c313, 2019-01-14)" sodipodi:docname="sujetas-a-proteccion-especial-pr-evaluacion-conabio.svg" xmlns:cc="http://creativecommons.org/ns#" xmlns:dc="http://purl.org/dc/elements/1.1/" xmlns:inkscape="http://www.inkscape.org/namespaces/inkscape" xmlns:rdf="http://www.w3.org/1999/02/22-rdf-syntax-ns#" xmlns:sodipodi="http://sodipodi.sourceforge.net/DTD/sodipodi-0.dtd" xmlns:svg="http://www.w3.org/2000/svg"
	 xmlns="http://www.w3.org/2000/svg" xmlns:xlink="http://www.w3.org/1999/xlink" x="0px" y="0px" viewBox="0 0 2267.7 2267.7"
	 style="enable-background:new 0 0 2267.7 2267.7;" xml:space="preserve">
<style type="text/css">
	.st0{fill:none;stroke:#000000;stroke-width:0.2646;}
</style>
<sodipodi:namedview  bordercolor="#666666" borderopacity="1.0" id="base" inkscape:current-layer="layer1" inkscape:cx="1194.8618" inkscape:cy="1144.6178" inkscape:document-units="mm" inkscape:pageopacity="0.0" inkscape:pageshadow="2" inkscape:window-height="962" inkscape:window-maximized="1" inkscape:window-width="1280" inkscape:window-x="-8" inkscape:window-y="-8" inkscape:zoom="0.1400905" pagecolor="#ffffff" showgrid="false">
	</sodipodi:namedview>
<path class="st0" d="M2143.4,1018.7c0-557.5-451.9-1009.5-1009.5-1009.5c-557.7,0-1009.7,452-1009.7,1009.5
	c0,246.1,88.1,471.6,234.4,646.8h-1.5c298.1,353.2,776.9,593.1,776.9,593.1s478.9-240,777-593.1h-1.9
	C2055.4,1490.3,2143.4,1264.8,2143.4,1018.7z M1072.8,1171.6c-45.5,38.5-110.1,57.8-194,57.8h-61.5v240.5H674v-676h215.9
	c82,0,144.3,17.6,187,52.9c42.7,35.3,64.1,87.9,64.1,157.9C1141,1077.4,1118.3,1133.1,1072.8,1171.6z M1583.1,1079.6
	c-11.4-3.1-25.3-4.6-41.6-4.6c-45,0-80.1,11.6-105.2,34.7c-25.1,23.1-37.7,55.5-37.7,97.1v263.1h-141v-517h106.8l20.8,86.9h6.9
	c16.1-29,37.7-52.3,65-70.1c27.2-17.8,57-26.6,89-26.6c19.1,0,35,1.4,47.6,4.2L1583.1,1079.6z M968.8,935.3
	c18.3,16,27.6,40.9,27.6,74.5c0,33.3-11,58.7-32.9,76c-21.9,17.5-54.9,26.2-99,26.2h-47.2V911.3h65.2
	C921.7,911.3,950.4,919.3,968.8,935.3z"/>
</svg>
