<?xml version="1.0" encoding="utf-8"?>
<!-- Generator: Adobe Illustrator 22.1.0, SVG Export Plug-In . SVG Version: 6.00 Build 0)  -->
<svg version="1.1"
	 id="svg8" inkscape:version="0.92.4 (5da689c313, 2019-01-14)" sodipodi:docname="sujeta-a-proteccion-especial-pr-2.svg" xmlns:cc="http://creativecommons.org/ns#" xmlns:dc="http://purl.org/dc/elements/1.1/" xmlns:inkscape="http://www.inkscape.org/namespaces/inkscape" xmlns:rdf="http://www.w3.org/1999/02/22-rdf-syntax-ns#" xmlns:sodipodi="http://sodipodi.sourceforge.net/DTD/sodipodi-0.dtd" xmlns:svg="http://www.w3.org/2000/svg"
	 xmlns="http://www.w3.org/2000/svg" xmlns:xlink="http://www.w3.org/1999/xlink" x="0px" y="0px" viewBox="0 0 2267.7 2267.7"
	 style="enable-background:new 0 0 2267.7 2267.7;" xml:space="preserve">
<style type="text/css">
	.st0{fill:none;stroke:#000000;stroke-width:0.2646;}
</style>
<sodipodi:namedview  bordercolor="#666666" borderopacity="1.0" id="base" inkscape:current-layer="layer1" inkscape:cx="679.3343" inkscape:cy="-382.3109" inkscape:document-units="mm" inkscape:pageopacity="0.0" inkscape:pageshadow="2" inkscape:window-height="962" inkscape:window-maximized="1" inkscape:window-width="1280" inkscape:window-x="-8" inkscape:window-y="-8" inkscape:zoom="0.1400905" pagecolor="#ffffff" showgrid="false">
	</sodipodi:namedview>
<g id="layer1" transform="translate(-284.86771,-76.867708)" inkscape:groupmode="layer" inkscape:label="Capa 1">
	<path id="path3713" inkscape:connector-curvature="0" class="st0" d="M1074.8,1453.3c157,0,281.1-50.3,372.2-150.8
		c94.2-103.6,141.3-241.8,141.3-414.6c0-169.6-47.1-299.9-141.3-391s-229.3-136.6-405.1-136.6H288.1v1700.7h348.6v-607.7H1074.8z
		 M636.7,652.5h329.8c91.1,0,158.6,20.4,202.6,61.2c47.1,44,70.7,108.4,70.7,193.1c0,169.6-91.1,254.4-273.2,254.4H636.7V652.5z
		 M1833.3,2061.1h329.8v-669c0-191.6,95.8-287.4,287.4-287.4c28.3,0,61.2,3.1,98.9,9.4V784.4c-12.6-3.1-25.1-4.7-37.7-4.7
		c-75.4,0-144.5,23.6-207.3,70.7c-59.7,47.1-106.8,113.1-141.3,197.9v-245h-329.8V2061.1z"/>
</g>
</svg>
