<?xml version="1.0" encoding="utf-8"?>
<!-- Generator: Adobe Illustrator 22.1.0, SVG Export Plug-In . SVG Version: 6.00 Build 0)  -->
<svg version="1.1"
	 id="svg8" inkscape:version="0.92.4 (5da689c313, 2019-01-14)" sodipodi:docname="vulnerable-vu.svg" xmlns:cc="http://creativecommons.org/ns#" xmlns:dc="http://purl.org/dc/elements/1.1/" xmlns:inkscape="http://www.inkscape.org/namespaces/inkscape" xmlns:rdf="http://www.w3.org/1999/02/22-rdf-syntax-ns#" xmlns:sodipodi="http://sodipodi.sourceforge.net/DTD/sodipodi-0.dtd" xmlns:svg="http://www.w3.org/2000/svg"
	 xmlns="http://www.w3.org/2000/svg" xmlns:xlink="http://www.w3.org/1999/xlink" x="0px" y="0px" viewBox="0 0 2502.4 2487.4"
	 style="enable-background:new 0 0 2502.4 2487.4;" xml:space="preserve">
<style type="text/css">
	.st0{fill:none;stroke:#000000;stroke-width:0.2646;}
</style>
<sodipodi:namedview  bordercolor="#666666" borderopacity="1.0" id="base" inkscape:current-layer="layer1" inkscape:cx="1188.0825" inkscape:cy="940.52369" inkscape:document-units="mm" inkscape:pageopacity="0.0" inkscape:pageshadow="2" inkscape:window-height="962" inkscape:window-maximized="1" inkscape:window-width="1280" inkscape:window-x="-8" inkscape:window-y="-8" inkscape:zoom="0.1400905" pagecolor="#ffffff" showgrid="false">
	</sodipodi:namedview>
<path class="st0" d="M2467.8,4.6H1176.2v2.5C526.8,45.8,12.2,584.6,12.2,1243.7c0,684.3,554.7,1239.1,1239,1239.1
	c684.3,0,1239.1-554.8,1239.1-1239.1V27.1C2490.3,14.6,2480.2,4.6,2467.8,4.6z M957.4,1652.2H765.9l-281-828.3h177.3L818,1316.8
	c8.7,29.1,17.7,63,26.9,101.7c9.3,38.7,15,65.6,17.3,80.7c4.2-34.7,18.3-95.6,42.5-182.4l156.9-492.9H1239L957.4,1652.2z
	 M2017.5,1359.8c0,61.2-13.7,114.9-41.1,160.9c-27.3,46.1-66.9,81.4-118.7,106c-51.8,24.6-113,36.9-183.5,36.9
	c-106.5,0-189.3-27.3-248.2-81.9c-58.9-54.6-88.4-129.3-88.4-224.1V823.9h175.1v507c0,63.9,12.8,110.7,38.5,140.6
	c25.7,29.8,68.2,44.7,127.5,44.7c57.4,0,99.1-15,125-45.1c25.9-30,38.8-77.2,38.8-141.3V823.9h175.1V1359.8z"/>
</svg>
