<svg id="Capa_1" data-name="Capa 1" xmlns="http://www.w3.org/2000/svg" viewBox="0 0 306.6 100"><defs><style>.cls-1{fill:#899c46;}.cls-2{fill:#fff;}.cls-3{fill:#2e4d5b;}</style></defs><title>enciclovida</title><path class="cls-1" d="M41.16,78.09q-1.9,3.7-3.85,7.44l-3.44,6.63-2.42,0c-0.78-1.56-1.77-3.47-2.93-5.66S26.16,82,25,79.63s-2.39-4.68-3.59-7l-2.82-5.41H11.64l21,40.6,21.11-40.6h-7c-0.56,1-1.26,2.36-2.09,4Q43.05,74.4,41.16,78.09Z" transform="translate(-9.7 -10)"/><path class="cls-1" d="M32.66,108.84L10.9,66.8h7.94L19,67l2.82,5.41q1.8,3.44,3.59,7c1.19,2.34,2.38,4.65,3.55,6.85s2,3.9,2.81,5.42h1.87l3.32-6.39q1.95-3.74,3.84-7.44h0q1.9-3.69,3.5-6.84c0.83-1.63,1.53-3,2.09-4l0.13-.24h8.06ZM12.38,67.7l20.28,39.17L53,67.7H47c-0.53,1-1.19,2.25-2,3.75q-1.6,3.15-3.5,6.84h0q-1.9,3.7-3.85,7.44l-3.44,6.63-0.13.25-3,0L31,92.35c-0.78-1.57-1.77-3.47-2.92-5.65s-2.37-4.52-3.56-6.87-2.39-4.68-3.58-7L18.29,67.7h-5.9Z" transform="translate(-9.7 -10)"/><rect class="cls-1" x="55.46" y="57.45" width="6.07" height="42.1"/><path class="cls-1" d="M71.68,110h-7V67h7v43Zm-6.07-.91h5.16V67.9H65.61v41.19Z" transform="translate(-9.7 -10)"/><path class="cls-1" d="M136.36,80.25a21.22,21.22,0,0,0,0,16.34,21.28,21.28,0,0,0,11.31,11.31,20.62,20.62,0,0,0,8.15,1.64h21V88.45a20.54,20.54,0,0,0-1.64-8.19A21.18,21.18,0,0,0,164,69.09a21.22,21.22,0,0,0-16.34,0,21.8,21.8,0,0,0-6.77,4.51A20.91,20.91,0,0,0,136.36,80.25Zm8.87-2.3A14.87,14.87,0,0,1,150,74.77a14.89,14.89,0,0,1,19.49,7.9,14.6,14.6,0,0,1,1.16,5.78V102l-1.36,1.36H155.82A15,15,0,0,1,145.23,99a15,15,0,0,1-4.34-10.59A14.58,14.58,0,0,1,142,82.67,15,15,0,0,1,145.23,78Z" transform="translate(-9.7 -10)"/><path class="cls-1" d="M177.27,110H155.82a21.07,21.07,0,0,1-8.33-1.67,21.73,21.73,0,0,1-11.55-11.55,21.67,21.67,0,0,1,0-16.7,21.36,21.36,0,0,1,4.64-6.8,22.26,22.26,0,0,1,6.91-4.6,21.67,21.67,0,0,1,16.7,0,21.64,21.64,0,0,1,11.41,11.4,21,21,0,0,1,1.67,8.37V110ZM155.82,67.9a20.2,20.2,0,0,0-8,1.6,21.34,21.34,0,0,0-6.63,4.42,20.46,20.46,0,0,0-4.45,6.51h0a20.77,20.77,0,0,0,0,16,20.82,20.82,0,0,0,11.07,11.07,20.16,20.16,0,0,0,8,1.6h20.55V88.45a20.08,20.08,0,0,0-1.6-8A20.73,20.73,0,0,0,163.83,69.5,20.09,20.09,0,0,0,155.82,67.9Zm13.66,35.93H155.82a15.41,15.41,0,0,1-10.91-4.47,15.21,15.21,0,0,1-3.28-4.92,15.38,15.38,0,0,1-1.19-6,15,15,0,0,1,1.19-6,15.48,15.48,0,0,1,3.28-4.86h0a15.33,15.33,0,0,1,4.92-3.28,15.34,15.34,0,0,1,20.08,8.14,15.06,15.06,0,0,1,1.19,6v13.76ZM145.55,78.28a14.55,14.55,0,0,0-3.09,4.58,14.13,14.13,0,0,0-1.12,5.6,14.47,14.47,0,0,0,1.12,5.64,14.21,14.21,0,0,0,7.72,7.72,14.51,14.51,0,0,0,5.64,1.12h13.29l1.09-1.09V88.45a14.15,14.15,0,0,0-1.12-5.6,14.42,14.42,0,0,0-18.9-7.66A14.43,14.43,0,0,0,145.55,78.28Z" transform="translate(-9.7 -10)"/><path class="cls-1" d="M118.62,50c0.35,0.24,1.58.79,5.41,0.83V29.43h-0.2c-4.1,0-5.13.66-5.3,0.79a2.74,2.74,0,0,0-.67,1.69V48.51A2.34,2.34,0,0,0,118.62,50Z" transform="translate(-9.7 -10)"/><path class="cls-1" d="M124.47,51.32H124c-3.83,0-5.19-.59-5.66-0.91h0a2.73,2.73,0,0,1-.95-1.81V31.9a3.16,3.16,0,0,1,.84-2c0.34-.27,1.55-0.89,5.58-0.89h0.57l0.08,0.45V51.32Zm-0.91-21.44c-3.89,0-4.73.66-4.76,0.69a2.47,2.47,0,0,0-.5,1.41V48.51a1.77,1.77,0,0,0,.56,1.15h0c0.23,0.16,1.24.67,4.7,0.74V29.88Z" transform="translate(-9.7 -10)"/><path class="cls-1" d="M123.89,58.65c-2,0-3.53,0-4.63-.1-0.45,0-.92-0.08-1.41-0.16v7.71l-1.36,1.36H103a20.64,20.64,0,0,0-8.15,1.64,21.79,21.79,0,0,0-6.77,4.51,20.92,20.92,0,0,0-4.55,6.66,21.23,21.23,0,0,0,0,16.34,21.28,21.28,0,0,0,11.31,11.31,20.89,20.89,0,0,0,23-4.54,21.79,21.79,0,0,0,4.51-6.77A20.65,20.65,0,0,0,124,88.45V58.65h-0.13Zm-6,29.8a14.85,14.85,0,0,1-9.06,13.77,14.62,14.62,0,0,1-5.77,1.16,15,15,0,0,1-5.81-1.15,14.86,14.86,0,0,1-9.12-13.78,14.58,14.58,0,0,1,1.16-5.77A15,15,0,0,1,92.43,78,15,15,0,0,1,103,73.62H116.5L117.85,75V88.45Z" transform="translate(-9.7 -10)"/><path class="cls-1" d="M103,110a21.08,21.08,0,0,1-8.33-1.67A21.73,21.73,0,0,1,83.15,96.78a21.68,21.68,0,0,1,0-16.7,21.37,21.37,0,0,1,4.64-6.8,22.25,22.25,0,0,1,6.91-4.6A21.09,21.09,0,0,1,103,67h13.29l1.09-1.09v-8l0.52,0.08c0.54,0.08,1,.13,1.37.15,1.09,0.07,2.6.1,4.6,0.1v0.45l0.06-.45h0.46l0.07,0.46v29.8a21.1,21.1,0,0,1-1.67,8.33,22.24,22.24,0,0,1-4.6,6.91A21.23,21.23,0,0,1,103,110Zm0-42.1a20.18,20.18,0,0,0-8,1.6,21.34,21.34,0,0,0-6.63,4.42A20.47,20.47,0,0,0,84,80.43a20.77,20.77,0,0,0,0,16,20.82,20.82,0,0,0,11.07,11.07,20.44,20.44,0,0,0,22.5-4.44A21.35,21.35,0,0,0,122,96.42a20.19,20.19,0,0,0,1.6-8V59.1c-1.86,0-3.28,0-4.34-.1-0.28,0-.59,0-0.93-0.09v7.37l-1.62,1.62H103Zm0,35.93a15.41,15.41,0,0,1-10.91-4.47,15.21,15.21,0,0,1-3.28-4.92,15.38,15.38,0,0,1-1.19-6,15,15,0,0,1,1.19-6,15.45,15.45,0,0,1,3.28-4.86A15.42,15.42,0,0,1,103,73.16h13.66l1.62,1.62V88.45A15.3,15.3,0,0,1,109,102.64,15.07,15.07,0,0,1,103,103.83Zm0-29.76a14.4,14.4,0,0,0-13.36,8.78,14.13,14.13,0,0,0-1.12,5.6,14.47,14.47,0,0,0,1.12,5.64,14.21,14.21,0,0,0,7.72,7.72,14.73,14.73,0,0,0,11.24,0,14.55,14.55,0,0,0,4.58-3.09,14.51,14.51,0,0,0,4.21-10.27V75.16l-1.09-1.09H103Z" transform="translate(-9.7 -10)"/><path class="cls-2" d="M9.7,34.47v12.6q0,9.76,14.65,9.76a53.09,53.09,0,0,0,11.54-1.32V51a44.38,44.38,0,0,1-10.75,1.58q-4.68,0-7.06-1.42a5.12,5.12,0,0,1-2.38-4.78V41.53H37.14V34.47q0-6.07-3.2-8.48T23.82,23.59q-7.39,0-10.75,2.51T9.7,34.47Zm6-1.85q0-3,1.91-4a12.59,12.59,0,0,1,5.87-1.06q4.16,0,5.94,1.09t1.78,4v5H15.7v-5Z" transform="translate(-9.7 -10)"/><path class="cls-2" d="M68.74,56.18V32.76q0-4.62-2.38-6.89t-8.71-2.28q-9.57,0-10.49,4.55V24.25H41.23V56.18h5.94V33.09q0-3,1.78-4.16t7-1.12a13.65,13.65,0,0,1,3.73.43,3.93,3.93,0,0,1,2.11,1.25,4.53,4.53,0,0,1,.82,1.62,8.33,8.33,0,0,1,.2,2V56.18h5.94Z" transform="translate(-9.7 -10)"/><path class="cls-2" d="M77.12,25.11A10.76,10.76,0,0,0,74.94,27a7.34,7.34,0,0,0-1.55,3.1,18.37,18.37,0,0,0-.5,4.55V46.41a13.66,13.66,0,0,0,.79,5,8.58,8.58,0,0,0,1.88,3.07,7.12,7.12,0,0,0,3.17,1.62,18.81,18.81,0,0,0,3.69.66q1.62,0.1,4.52.1a49.8,49.8,0,0,0,10.23-.92V51.43a39.19,39.19,0,0,1-9.63,1.25q-5.21,0-6.89-1.15T79,46.88V33.81q0-3.83,1.48-5t6.43-1.19a39.53,39.53,0,0,1,9.83,1.32V24.58a42.75,42.75,0,0,0-9.1-1q-2.51,0-4,.1t-3.43.4A7.85,7.85,0,0,0,77.12,25.11Z" transform="translate(-9.7 -10)"/><rect class="cls-2" x="90.05" y="2.7" width="5.94" height="6.2"/><rect class="cls-2" x="90.05" y="14.25" width="5.94" height="31.93"/><path class="cls-2" d="M114.06,25.11A10.76,10.76,0,0,0,111.88,27a7.34,7.34,0,0,0-1.55,3.1,18.37,18.37,0,0,0-.5,4.55V46.41a13.66,13.66,0,0,0,.79,5,8.58,8.58,0,0,0,1.88,3.07,7.12,7.12,0,0,0,3.17,1.62,18.81,18.81,0,0,0,3.69.66q1.62,0.1,4.52.1a49.8,49.8,0,0,0,10.23-.92V51.43a39.19,39.19,0,0,1-9.63,1.25q-5.21,0-6.89-1.15t-1.68-4.65V33.81q0-3.83,1.48-5t6.43-1.19a39.53,39.53,0,0,1,9.83,1.32V24.58a42.75,42.75,0,0,0-9.1-1q-2.51,0-4,.1t-3.43.4A7.86,7.86,0,0,0,114.06,25.11Z" transform="translate(-9.7 -10)"/><rect class="cls-2" x="126.99" width="5.94" height="46.18"/><path class="cls-2" d="M173.63,54.26a8.39,8.39,0,0,0,1.85-3.17,15.09,15.09,0,0,0,.73-5V35a16.39,16.39,0,0,0-.76-5.34,9.67,9.67,0,0,0-1.85-3.37,6.91,6.91,0,0,0-3.2-1.81,18.68,18.68,0,0,0-3.93-.76q-1.81-.13-5-0.13t-5,.13a18.66,18.66,0,0,0-3.93.76,6.9,6.9,0,0,0-3.2,1.81,9.65,9.65,0,0,0-1.85,3.37,16.37,16.37,0,0,0-.76,5.34V46.08a15.36,15.36,0,0,0,1,5.94,6.12,6.12,0,0,0,3.17,3.27,14.57,14.57,0,0,0,4.42,1.29,55.48,55.48,0,0,0,6.17.26q3.1,0,5-.13a19.4,19.4,0,0,0,4-.73A7.24,7.24,0,0,0,173.63,54.26Zm-3.5-7.32a10,10,0,0,1-.46,3.36A3.1,3.1,0,0,1,168,52.12a8.27,8.27,0,0,1-2.57.69q-1.32.13-3.89,0.13t-3.89-.13a8.25,8.25,0,0,1-2.57-.69,3.09,3.09,0,0,1-1.72-1.81,10,10,0,0,1-.46-3.36V34q0-4.42,1.78-5.48t6.86-1.06q5.08,0,6.86,1.06T170.13,34V46.94Z" transform="translate(-9.7 -10)"/><path class="cls-1" d="M202.26,71.07a100.58,100.58,0,0,1,30.2,9.69c0.75-1.31-.81-3-2.08-3.83a4,4,0,0,0-2.36-.55c-16.1-.58-26.28-9.74-31.85-26.56a48.32,48.32,0,0,1,11.57-.19,21.42,21.42,0,0,0-3.17-6,79.34,79.34,0,0,0-9.79.57l-2.64.26A2.88,2.88,0,0,0,189.62,48C192.23,57.66,196.53,65.4,202.26,71.07Z" transform="translate(-9.7 -10)"/><path class="cls-1" d="M230.4,81.14q-2.45-1.19-5.14-2.32a24.67,24.67,0,0,0,3.05,2.25A2.27,2.27,0,0,0,230.4,81.14Z" transform="translate(-9.7 -10)"/><path class="cls-1" d="M231.4,80.22a2.25,2.25,0,0,0-.81-3c-0.11-.06-10.05-6.23-15.52-21.55a3.47,3.47,0,0,1-4.32,1.26,51.65,51.65,0,0,0,11.92,19.51C225.78,77.62,228.7,78.89,231.4,80.22Z" transform="translate(-9.7 -10)"/><path class="cls-1" d="M313.46,45.65a2.89,2.89,0,0,0-2.11-1.23l-2.64-.26a72.4,72.4,0,0,0-10.64-.55A21,21,0,0,0,295,49.73c4.06-.67,7.85-0.36,12.3.08C303.25,62.1,296.08,70.28,286.24,74A101.28,101.28,0,0,1,302,70.34c5.37-5.59,9.41-13.08,11.92-22.3A2.89,2.89,0,0,0,313.46,45.65Z" transform="translate(-9.7 -10)"/><path class="cls-1" d="M271.58,80.06c2.64-1.34,5.49-2.64,8.57-3.85a51.55,51.55,0,0,0,12-19.6,3.48,3.48,0,0,1-1.41.31,3.56,3.56,0,0,1-1.22-.22,3.5,3.5,0,0,1-1.69-1.35c-5.52,15.48-15.43,21.49-15.53,21.55A2.26,2.26,0,0,0,271.5,80Z" transform="translate(-9.7 -10)"/><path class="cls-1" d="M196.93,76.76a94.24,94.24,0,0,1,47.39,19.08l7.57,1.3,1.45-.24c-3.86-3.84-23.32-21.67-55.86-25.19l-0.28,0A2.54,2.54,0,0,0,196.93,76.76Z" transform="translate(-9.7 -10)"/><path class="cls-1" d="M251.9,97.14L258.54,96a93.71,93.71,0,0,1,48.57-20,2.54,2.54,0,0,0-.26-5.07l-0.28,0c-35.14,3.8-55,24.25-56.48,25.82Z" transform="translate(-9.7 -10)"/><path class="cls-1" d="M231.28,38.25a60.91,60.91,0,0,0-2.64,14.46c-6-4.09-10.85-6.44-15.2-7.74a26.84,26.84,0,0,1,2,6.82,69.49,69.49,0,0,1,14.4,8.86,2.88,2.88,0,0,0,4.61-2.52,52.36,52.36,0,0,1,1.36-14.41A38.2,38.2,0,0,0,231.28,38.25Z" transform="translate(-9.7 -10)"/><path class="cls-1" d="M253.75,10.82a3.63,3.63,0,0,0-4,0,54.27,54.27,0,0,0-15.81,20.43,48.52,48.52,0,0,1,4.38,4.36,48.43,48.43,0,0,1,13.44-19,48.3,48.3,0,0,1,13.13,18.23,46.22,46.22,0,0,1,4.38-4.31A54.17,54.17,0,0,0,253.75,10.82Z" transform="translate(-9.7 -10)"/><path class="cls-1" d="M274.84,52.71A61.05,61.05,0,0,0,272,37.59a39.79,39.79,0,0,0-4.51,5.26,52.88,52.88,0,0,1,1.57,15.29,2.88,2.88,0,0,0,4.61,2.52,72.09,72.09,0,0,1,13.7-8.56,26.81,26.81,0,0,1,1.81-6.86A56.77,56.77,0,0,0,274.84,52.71Z" transform="translate(-9.7 -10)"/><path class="cls-2" d="M240.37,44.48a2.25,2.25,0,0,0,.77-3.08c-0.11-.18-11-17.93-29.36-17.93a33.8,33.8,0,0,0-15.56,4.1,4.12,4.12,0,0,0-2,3.49,3.64,3.64,0,0,0,1.63,3.31l0.59,0.36,0.4,0.24a26.12,26.12,0,0,1,3.43,2.32c8.46,7.1,9.24,13.83,9.5,16a4.7,4.7,0,0,0,.23,1.16,2.28,2.28,0,0,0,2.89,1.33,2.24,2.24,0,0,0,1.4-2.65l0-.37c-0.84-7.11-4.56-13.49-11.07-19a25.68,25.68,0,0,0-3-2.12l-1-.63,1.1-.49A28.41,28.41,0,0,1,211.84,28c15.76,0,25.06,15.09,25.44,15.73A2.25,2.25,0,0,0,240.37,44.48Z" transform="translate(-9.7 -10)"/><path class="cls-2" d="M293.07,53c0.26-2.23,1.07-9,9.5-16.05A26.2,26.2,0,0,1,306,34.64l0.19-.11L307,34a3.64,3.64,0,0,0,1.62-3.31,4.11,4.11,0,0,0-2-3.48c-7.88-4.09-15.75-5.12-23.25-3.06l-0.24.07L283,24.14c-0.54-.28-1.32-0.77-1.9-1.12L281,23c-2.4-1.49-4.11-2.52-5.67-1.84a2.43,2.43,0,0,0-1.3,1.37c-0.49,1.27.08,2.54,0.94,4.47l0.33,0.77-0.46.29a43.42,43.42,0,0,0-13.07,13.06,2.25,2.25,0,1,0,3.86,2.31,38.77,38.77,0,0,1,13.26-12.53,2.2,2.2,0,0,0,1.28-2.08v-1l0.91,0.45a3.69,3.69,0,0,0,2.9.49A24.31,24.31,0,0,1,291,27.65a28.44,28.44,0,0,1,11.58,2.63l1.1,0.49-1,.63a25.44,25.44,0,0,0-3,2.12c-6.51,5.47-10.24,11.84-11.08,19l0,0.3a2.25,2.25,0,0,0,4.27,1.4A4.55,4.55,0,0,0,293.07,53Z" transform="translate(-9.7 -10)"/><circle class="cls-3" cx="205.88" cy="23.79" r="1.32"/><path class="cls-2" d="M215.58,35.74a2,2,0,1,1,2-2A2,2,0,0,1,215.58,35.74Zm0-2.63a0.68,0.68,0,1,0,.68.68A0.68,0.68,0,0,0,215.58,33.11Z" transform="translate(-9.7 -10)"/><circle class="cls-3" cx="276.95" cy="23.79" r="1.32"/><path class="cls-2" d="M286.65,35.74a2,2,0,1,1,2-2A2,2,0,0,1,286.65,35.74Zm0-2.63a0.68,0.68,0,1,0,.68.68A0.68,0.68,0,0,0,286.65,33.11Z" transform="translate(-9.7 -10)"/><path class="cls-1" d="M264,45.73l-0.34,0a3.49,3.49,0,0,1-3.37-2.57,71.05,71.05,0,0,0-8.22,13.71,55.63,55.63,0,0,1-1.15-11,1.48,1.48,0,0,0,.11-0.58,9.71,9.71,0,0,0-.11-1.18c0-1.54.09-3,.19-4.46a1.33,1.33,0,0,0,.14-0.2c1.3-2.48,4.57-4.63,5.8-5.44,0.66-.44,1.29-0.85,1.17-1.77a1.45,1.45,0,0,0-1-1.18,1.44,1.44,0,0,0-1.48.35l-0.3.2a30.23,30.23,0,0,0-3.84,2.91,74,74,0,0,1,1.55-8.29,1.44,1.44,0,0,0-2.78-.75,80.67,80.67,0,0,0-2.18,13.79,9.35,9.35,0,0,0-2-1.28,1.43,1.43,0,0,0-1.25-.17,1.45,1.45,0,0,0-1,1.29,1.49,1.49,0,0,0,1,1.48,5,5,0,0,1,3,3.65,65.59,65.59,0,0,0,.41,8.17,66.55,66.55,0,0,0-5.83-9A3.49,3.49,0,0,1,241,45.57a3.53,3.53,0,0,1-1.81.5l-0.34,0a69.54,69.54,0,0,1,9.34,16.41c0,0.08,0,.16.06,0.25a15.42,15.42,0,0,0,1,2.54l0,0.09a2.26,2.26,0,0,0,.24.41,2.29,2.29,0,0,0,2.78,1.08,2.24,2.24,0,0,0,1.43-2.41A71.86,71.86,0,0,1,264,45.73Z" transform="translate(-9.7 -10)"/><path class="cls-1" d="M316.26,91.07a3.16,3.16,0,0,0-3.65-2.62l-60.72,10L192.38,88.19a3.22,3.22,0,0,0-.54,0,3.18,3.18,0,0,0-.53,6.31L247.09,104l0,0.55a1.4,1.4,0,0,1,0,.18,4.87,4.87,0,1,0,9.74,0l0-.17,0-.56,56.89-9.35A3.18,3.18,0,0,0,316.26,91.07Z" transform="translate(-9.7 -10)"/><path class="cls-1" d="M230.4,81.14q-2.45-1.19-5.14-2.32a24.67,24.67,0,0,0,3.05,2.25A2.27,2.27,0,0,0,230.4,81.14Z" transform="translate(-9.7 -10)"/><path class="cls-1" d="M231.4,80.22a2.25,2.25,0,0,0-.81-3c-0.11-.06-10.05-6.23-15.52-21.55a3.47,3.47,0,0,1-4.32,1.26,51.65,51.65,0,0,0,11.92,19.51C225.78,77.62,228.7,78.89,231.4,80.22Z" transform="translate(-9.7 -10)"/><path class="cls-1" d="M313.46,45.75a2.89,2.89,0,0,0-2.11-1.23l-2.64-.26a72.4,72.4,0,0,0-10.64-.55A21,21,0,0,0,295,49.84c4.06-.67,7.85-0.36,12.3.08-4.07,12.28-11.24,20.46-21.08,24.22A101.28,101.28,0,0,1,302,70.44c5.37-5.59,9.41-13.08,11.92-22.3A2.89,2.89,0,0,0,313.46,45.75Z" transform="translate(-9.7 -10)"/><path class="cls-1" d="M271.58,80.06c2.64-1.34,5.49-2.64,8.57-3.85a51.55,51.55,0,0,0,12-19.6,3.48,3.48,0,0,1-1.41.31,3.56,3.56,0,0,1-1.22-.22,3.5,3.5,0,0,1-1.69-1.35c-5.52,15.48-15.43,21.49-15.53,21.55A2.26,2.26,0,0,0,271.5,80Z" transform="translate(-9.7 -10)"/><path class="cls-1" d="M309.36,73.26A2.54,2.54,0,0,0,306.85,71l-0.28,0c-30.49,3.3-49.47,19.12-54.92,24.28-6.33-5.77-25-20.42-54.16-23.58l-0.28,0a2.54,2.54,0,0,0-.27,5.07,94.24,94.24,0,0,1,47.39,19.08l7.57,1.3,1.45-.24h0l5.19-.85a93.71,93.71,0,0,1,48.57-20A2.54,2.54,0,0,0,309.36,73.26Z" transform="translate(-9.7 -10)"/><path class="cls-1" d="M189.62,45.75a2.89,2.89,0,0,1,2.11-1.23l2.64-.26A72.4,72.4,0,0,1,205,43.72a21,21,0,0,1,3.05,6.12c-4.06-.67-7.85-0.36-12.3.08C199.83,62.2,207,70.38,216.84,74.14a101.28,101.28,0,0,0-15.71-3.69c-5.37-5.59-9.41-13.08-11.92-22.3A2.89,2.89,0,0,1,189.62,45.75Z" transform="translate(-9.7 -10)"/></svg>