<svg id="Layer_1" data-name="Layer 1" xmlns="http://www.w3.org/2000/svg" viewBox="0 0 80.96 50"><defs><style>.cls-1{fill:#c1d72e;}.cls-2{fill:#333;}</style></defs><title>img_logo_eol</title><path class="cls-1" d="M57.32-8.15a11.69,11.69,0,0,0-10.9-7.5,11.69,11.69,0,0,0-10.9,7.5,11.58,11.58,0,0,0-.68,2.72H58A11.57,11.57,0,0,0,57.32-8.15Zm-18.81,0a9,9,0,0,1,7.91-4.78,9,9,0,0,1,7.91,4.78H38.51Z" transform="translate(-29.31 21.09)"/><polygon class="cls-1" points="67.49 25.29 67.49 0 64.77 0 64.77 25.29 64.77 28.01 64.77 28.01 80.96 28.01 80.96 25.29 67.49 25.29"/><path class="cls-1" d="M74.4-15.65A11.68,11.68,0,0,0,62.73-4a11.71,11.71,0,0,0,.07,1.27h-28A11.57,11.57,0,0,0,35.46,0a11.69,11.69,0,0,0,11,7.68,11.66,11.66,0,0,0,9.53-5H52.32A8.88,8.88,0,0,1,46.42,5a9,9,0,0,1-8-5h25a11.69,11.69,0,0,0,11,7.68A11.68,11.68,0,0,0,86.07-4,11.68,11.68,0,0,0,74.4-15.65ZM74.4,5a9,9,0,0,1-9-8.95,9,9,0,0,1,9-9,9,9,0,0,1,9,9A9,9,0,0,1,74.4,5Z" transform="translate(-29.31 21.09)"/><path class="cls-1" d="M91.07,10V-0.1h0v-21H88.35v7.2h0a17.08,17.08,0,0,0-13.94-7.2,17.09,17.09,0,0,0-14,7.33A17.09,17.09,0,0,0,46.42-21,17.11,17.11,0,0,0,29.31-3.86,17.11,17.11,0,0,0,46.42,13.26a17.09,17.09,0,0,0,14-7.33,17.09,17.09,0,0,0,13.95,7.2,17.08,17.08,0,0,0,13.94-7.2h0v6.81h21.92V10H91.07Zm-16.67.39A14.4,14.4,0,0,1,62,3.27c-0.1-.18-0.19-0.36-0.29-0.54H59.14c-0.09.16-.17,0.33-0.26,0.48a14.4,14.4,0,0,1-12.45,7.19A14.41,14.41,0,0,1,32-4,14.41,14.41,0,0,1,46.42-18.37a14.4,14.4,0,0,1,12.45,7.19,14.29,14.29,0,0,1,1.54,3.83,14.3,14.3,0,0,1,1.5-3.78A14.4,14.4,0,0,1,74.4-18.37,14.42,14.42,0,0,1,88.35-7.54h0c0.07,0.26.13,0.53,0.18,0.79l0,0.22q0.05,0.3.09,0.6c0,0.09,0,.18,0,0.27s0,0.39.06,0.59,0,0.17,0,.25c0,0.28,0,.56,0,0.84h0c0,0.28,0,.56,0,0.84,0,0.09,0,.17,0,0.25s0,0.39-.06.59,0,0.18,0,.27-0.06.39-.09,0.59l0,0.23c-0.05.26-.11,0.52-0.17,0.78A14.42,14.42,0,0,1,74.4,10.41Z" transform="translate(-29.31 21.09)"/><path class="cls-2" d="M34.31,26.79H31v-6.3h3.2v0.67H31.71v2.09H34v0.66H31.71v2.2h2.6v0.67Z" transform="translate(-29.31 21.09)"/><path class="cls-2" d="M39.16,26.79H38.44V24.23q0-1.43-1-1.43a1.13,1.13,0,0,0-.89.41,1.5,1.5,0,0,0-.35,1v2.56H35.43v-4.5h0.72V23h0a1.62,1.62,0,0,1,1.48-.85,1.38,1.38,0,0,1,1.13.48A2.12,2.12,0,0,1,39.16,24v2.75Z" transform="translate(-29.31 21.09)"/><path class="cls-2" d="M43.58,26.58a2.34,2.34,0,0,1-1.23.31,2,2,0,0,1-1.55-.63,2.27,2.27,0,0,1-.59-1.62,2.49,2.49,0,0,1,.64-1.78,2.23,2.23,0,0,1,1.7-.67,2.37,2.37,0,0,1,1,.22v0.74a1.83,1.83,0,0,0-1.07-.35,1.45,1.45,0,0,0-1.13.49,1.87,1.87,0,0,0-.44,1.3,1.79,1.79,0,0,0,.42,1.25,1.43,1.43,0,0,0,1.11.46,1.8,1.8,0,0,0,1.11-.39v0.68Z" transform="translate(-29.31 21.09)"/><path class="cls-2" d="M48.25,22.29l-2.07,5.22a1.77,1.77,0,0,1-1.55,1.4,1.67,1.67,0,0,1-.47-0.06V28.2a1.34,1.34,0,0,0,.43.08,0.88,0.88,0,0,0,.82-0.65l0.36-.85L44,22.29h0.8L46,25.75s0,0.16.09,0.34h0q0-.11.09-0.33l1.28-3.47h0.75Z" transform="translate(-29.31 21.09)"/><path class="cls-2" d="M52,26.58a2.34,2.34,0,0,1-1.23.31,2,2,0,0,1-1.55-.63,2.27,2.27,0,0,1-.59-1.62,2.49,2.49,0,0,1,.64-1.78,2.23,2.23,0,0,1,1.7-.67,2.37,2.37,0,0,1,1,.22v0.74A1.83,1.83,0,0,0,51,22.79a1.45,1.45,0,0,0-1.13.49,1.87,1.87,0,0,0-.44,1.3,1.78,1.78,0,0,0,.42,1.25,1.43,1.43,0,0,0,1.11.46A1.8,1.8,0,0,0,52,25.9v0.68Z" transform="translate(-29.31 21.09)"/><path class="cls-2" d="M53.8,25.53a0.5,0.5,0,0,0,.48.62,1.16,1.16,0,0,0,.35,0v0.65l-0.22,0-0.29,0a1.14,1.14,0,0,1-.4-0.07,0.86,0.86,0,0,1-.33-0.22,1,1,0,0,1-.22-0.36,1.45,1.45,0,0,1-.08-0.51V20.13H53.8v5.4Z" transform="translate(-29.31 21.09)"/><path class="cls-2" d="M57.29,26.9a2.09,2.09,0,0,1-1.59-.63,2.33,2.33,0,0,1-.59-1.67,2.43,2.43,0,0,1,.62-1.77,2.23,2.23,0,0,1,1.67-.64,2,2,0,0,1,1.57.62,2.46,2.46,0,0,1,.56,1.72,2.42,2.42,0,0,1-.61,1.72A2.13,2.13,0,0,1,57.29,26.9Zm0.05-4.1a1.37,1.37,0,0,0-1.1.47,1.94,1.94,0,0,0-.4,1.3,1.83,1.83,0,0,0,.41,1.26,1.39,1.39,0,0,0,1.09.46,1.32,1.32,0,0,0,1.07-.45,2,2,0,0,0,.38-1.29,2,2,0,0,0-.38-1.3A1.31,1.31,0,0,0,57.34,22.79Z" transform="translate(-29.31 21.09)"/><path class="cls-2" d="M61.42,26.14h0v2.72H60.68V22.29H61.4v0.79h0a1.7,1.7,0,0,1,1.55-.9,1.65,1.65,0,0,1,1.36.6,2.5,2.5,0,0,1,.49,1.62,2.79,2.79,0,0,1-.55,1.81,1.83,1.83,0,0,1-1.5.68A1.5,1.5,0,0,1,61.42,26.14Zm0-1.81V25a1.33,1.33,0,0,0,.36.95,1.29,1.29,0,0,0,1.95-.11,2.3,2.3,0,0,0,.37-1.39,1.81,1.81,0,0,0-.35-1.18,1.15,1.15,0,0,0-.94-0.43,1.28,1.28,0,0,0-1,.44A1.61,1.61,0,0,0,61.4,24.33Z" transform="translate(-29.31 21.09)"/><path class="cls-2" d="M69.58,24.72H66.41a1.68,1.68,0,0,0,.4,1.16,1.39,1.39,0,0,0,1.06.41,2.21,2.21,0,0,0,1.4-.5v0.68a2.61,2.61,0,0,1-1.57.43,1.9,1.9,0,0,1-1.5-.61,2.51,2.51,0,0,1-.54-1.72,2.46,2.46,0,0,1,.59-1.71,1.91,1.91,0,0,1,1.48-.66,1.69,1.69,0,0,1,1.37.57,2.38,2.38,0,0,1,.48,1.59v0.38Zm-0.74-.61a1.46,1.46,0,0,0-.3-1,1,1,0,0,0-.82-0.35,1.16,1.16,0,0,0-.87.36,1.65,1.65,0,0,0-.44,1h2.43Z" transform="translate(-29.31 21.09)"/><path class="cls-2" d="M74.51,26.79H73.79V26h0a1.66,1.66,0,0,1-1.55.87,1.68,1.68,0,0,1-1.35-.6,2.48,2.48,0,0,1-.51-1.64,2.69,2.69,0,0,1,.56-1.79,1.86,1.86,0,0,1,1.5-.67,1.44,1.44,0,0,1,1.35.73h0V20.13h0.72v6.66Zm-0.72-2V24.09a1.28,1.28,0,0,0-.36-0.92,1.21,1.21,0,0,0-.91-0.38,1.24,1.24,0,0,0-1,.48,2.12,2.12,0,0,0-.38,1.34,1.9,1.9,0,0,0,.36,1.23,1.18,1.18,0,0,0,1,.45,1.23,1.23,0,0,0,1-.44A1.62,1.62,0,0,0,73.79,24.76Z" transform="translate(-29.31 21.09)"/><path class="cls-2" d="M76.29,21.15A0.46,0.46,0,0,1,76,21a0.45,0.45,0,0,1-.14-0.33,0.46,0.46,0,0,1,.47-0.47,0.47,0.47,0,0,1,.34.13,0.47,0.47,0,0,1,0,.67A0.46,0.46,0,0,1,76.29,21.15Zm0.35,4.38a0.5,0.5,0,0,0,.48.62,1.15,1.15,0,0,0,.35,0v0.65l-0.22,0-0.29,0a1.15,1.15,0,0,1-.4-0.07,0.86,0.86,0,0,1-.33-0.22A1,1,0,0,1,76,26.17a1.45,1.45,0,0,1-.08-0.51V22.29h0.72v3.24Z" transform="translate(-29.31 21.09)"/><path class="cls-2" d="M81.46,26.79H80.74v-0.7h0a1.51,1.51,0,0,1-1.38.81,1.48,1.48,0,0,1-1.05-.36,1.23,1.23,0,0,1-.38-0.94,1.43,1.43,0,0,1,1.48-1.47l1.35-.19a0.93,0.93,0,0,0-.93-1.15,2.21,2.21,0,0,0-1.47.55V22.61a2.79,2.79,0,0,1,1.53-.42,1.44,1.44,0,0,1,1.59,1.68v2.92Zm-0.72-2.27-1.08.15a1.75,1.75,0,0,0-.76.25,0.72,0.72,0,0,0-.25.63,0.69,0.69,0,0,0,.23.54,0.91,0.91,0,0,0,.63.21,1.16,1.16,0,0,0,.89-0.38,1.34,1.34,0,0,0,.35-1V24.52Z" transform="translate(-29.31 21.09)"/><path class="cls-2" d="M87.16,26.9a2.08,2.08,0,0,1-1.59-.63A2.33,2.33,0,0,1,85,24.6a2.43,2.43,0,0,1,.62-1.77,2.22,2.22,0,0,1,1.67-.64,2,2,0,0,1,1.57.62,2.46,2.46,0,0,1,.56,1.72,2.42,2.42,0,0,1-.61,1.72A2.13,2.13,0,0,1,87.16,26.9Zm0.05-4.1a1.37,1.37,0,0,0-1.1.47,1.94,1.94,0,0,0-.4,1.3,1.84,1.84,0,0,0,.41,1.26,1.39,1.39,0,0,0,1.09.46,1.31,1.31,0,0,0,1.07-.45,2,2,0,0,0,.38-1.29,2,2,0,0,0-.38-1.3A1.31,1.31,0,0,0,87.22,22.79Z" transform="translate(-29.31 21.09)"/><path class="cls-2" d="M92.61,20.77a1,1,0,0,0-.48-0.12,0.77,0.77,0,0,0-.76,1v0.69h1.05v0.61H91.38v3.88H90.66V22.91H89.89V22.29h0.77V21.57a1.52,1.52,0,0,1,.41-1.12,1.38,1.38,0,0,1,1-.41,1.42,1.42,0,0,1,.52.08v0.65Z" transform="translate(-29.31 21.09)"/><path class="cls-2" d="M99,26.79H95.76v-6.3H96.5v5.63H99v0.67Z" transform="translate(-29.31 21.09)"/><path class="cls-2" d="M100.22,21.15A0.46,0.46,0,0,1,99.89,21a0.44,0.44,0,0,1-.14-0.33,0.46,0.46,0,0,1,.47-0.47,0.46,0.46,0,0,1,.34.13,0.47,0.47,0,0,1,0,.67A0.46,0.46,0,0,1,100.22,21.15Zm0.35,4.38a0.5,0.5,0,0,0,.48.62,1.16,1.16,0,0,0,.35,0v0.65l-0.22,0-0.29,0a1.14,1.14,0,0,1-.4-0.07,0.86,0.86,0,0,1-.33-0.22,1.06,1.06,0,0,1-.22-0.36,1.43,1.43,0,0,1-.08-0.51V22.29h0.72v3.24Z" transform="translate(-29.31 21.09)"/><path class="cls-2" d="M104.4,20.77a1,1,0,0,0-.48-0.12,0.77,0.77,0,0,0-.76,1v0.69h1.05v0.61h-1.05v3.88h-0.72V22.91h-0.77V22.29h0.77V21.57a1.52,1.52,0,0,1,.41-1.12,1.38,1.38,0,0,1,1-.41,1.42,1.42,0,0,1,.52.08v0.65Z" transform="translate(-29.31 21.09)"/><path class="cls-2" d="M108.61,24.72h-3.17a1.68,1.68,0,0,0,.4,1.16,1.39,1.39,0,0,0,1.06.41,2.21,2.21,0,0,0,1.4-.5v0.68a2.61,2.61,0,0,1-1.57.43,1.9,1.9,0,0,1-1.5-.61,2.51,2.51,0,0,1-.54-1.72,2.46,2.46,0,0,1,.6-1.71,1.91,1.91,0,0,1,1.48-.66,1.69,1.69,0,0,1,1.37.57,2.38,2.38,0,0,1,.48,1.59v0.38Zm-0.74-.61a1.47,1.47,0,0,0-.3-1,1,1,0,0,0-.82-0.35,1.16,1.16,0,0,0-.87.36,1.66,1.66,0,0,0-.44,1h2.43Z" transform="translate(-29.31 21.09)"/></svg>