<?xml version="1.0" encoding="utf-8"?>
<!-- Generator: Adobe Illustrator 19.2.1, SVG Export Plug-In . SVG Version: 6.00 Build 0)  -->
<svg version="1.1" id="Layer_1" xmlns="http://www.w3.org/2000/svg" xmlns:xlink="http://www.w3.org/1999/xlink" x="0px" y="0px"
	 viewBox="0 0 118.6 40" style="enable-background:new 0 0 118.6 40;" xml:space="preserve">
<style type="text/css">
	.st0{fill:#FFFFFF;}
</style>
<title>img_logo_biomex</title>
<path class="st0" d="M1.9,10c0-0.6,0-3.6-0.1-4c0.9,0,1.7,0,2.6,0.1C8,6.5,8.6,7.9,8.6,8.9c-0.1,1.3-1,2.4-2.3,2.8l0,0
	c1.5,0.2,2.7,1.4,2.8,2.9c0,2.2-2.7,4.3-7.1,4.3H1.8c0.1-1,0.1-6.5,0.1-6.8V10z M3.5,11.6c2,0,3.3-1.3,3.3-2.5
	c0-1.6-2.1-1.9-3.3-1.9V11.6z M3.5,17.6c2-0.2,3.8-1.1,3.8-2.9c0-1.3-1.5-2.2-3.8-2.1C3.5,12.7,3.5,17.6,3.5,17.6z"/>
<path class="st0" d="M13.3,14.1c0,1.6,0,4.3,0.1,4.7h-1.7c0-0.7,0-4.3,0-4.7v-1.7c0.1-0.2,0-4.1-0.1-4.5h1.8c0,0.3-0.1,2.6-0.1,4.5
	L13.3,14.1L13.3,14.1z"/>
<path class="st0" d="M15.1,13.9c0-3.4,2.7-6.2,6-6.2c0.2,0,0.3,0,0.5,0c3.2,0,5.5,1.9,5.5,5.3c0,3.4-2.7,6.1-6.1,6.1
	c-0.1,0-0.2,0-0.3,0C17.1,19,15.1,16.6,15.1,13.9z M25.5,13c0.2-2.1-1.4-4-3.5-4.1c-0.2,0-0.4,0-0.6,0c-2.5-0.1-4.6,1.9-4.6,4.4
	c0,0.1,0,0.3,0,0.4c-0.1,2.2,1.6,4,3.7,4.1c0.1,0,0.2,0,0.4,0c2.5,0.1,4.6-1.9,4.6-4.4C25.5,13.3,25.5,13.2,25.5,13z"/>
<path class="st0" d="M29,12c0-0.3,0-3.6-0.1-4C29.8,8,31.5,8,33,8c5.4,0.4,5.9,3,5.9,4c0,4.9-5.6,6.7-10,6.7c0.1-0.7,0.1-4.5,0.1-5
	L29,12L29,12z M30.6,17.5c4.4-0.3,6.6-2.8,6.6-5s-2.5-3.4-6.6-3.3C30.6,9.2,30.6,17.5,30.6,17.5z"/>
<path class="st0" d="M42.1,14.1c0,1.6,0,4.3,0.1,4.7h-1.7c0-0.7,0-4.3,0-4.7v-1.7c0-0.3,0-4.1-0.1-4.5h1.8c0,0.3-0.1,2.6-0.1,4.5
	L42.1,14.1L42.1,14.1z"/>
<path class="st0" d="M55,8.4c-0.5,0.8-5.5,9.8-6.1,10.8l0,0c-0.3-0.5-5.1-10.1-5.6-10.8l1.5-0.8c0.2,0.7,3.9,8.2,4.2,8.7
	c0.3-0.4,4.3-8.2,4.5-8.7L55,8.4z"/>
<path class="st0" d="M61.7,18.9c-0.6,0-5.5-0.2-5.9-0.2c0-0.8,0-4.1,0-4.5v-2.1c0-0.3,0-4,0-4.3c0.4,0,4.7-0.2,5.5-0.3l0.1,1.3
	c-0.7,0-3.7,0.1-4,0.1v3.8c0.3,0,2.4-0.1,3.4-0.2v1.3h-1.8h-1.6v3.7c0.4,0,2.6,0,4.2,0L61.7,18.9z"/>
<path class="st0" d="M65.6,14c0,0.6,0,4.5,0.1,4.7H64c0-0.4,0-5.3,0-5.6v-1.3c0-0.5,0-3.7-0.1-4c1.2,0,2.4,0,3.6,0.1
	c2.2,0.3,3.4,1.1,3.4,2.5c-0.2,1.4-1,2.6-2.3,3.2c0.4,0.6,3.3,3.8,3.8,4.2l-1.3,1.1c-0.2-0.2-3.9-4.8-4.4-5.4
	c0.8-0.4,2.5-1.3,2.5-2.8c0-0.7-0.6-1.7-3.7-1.7C65.6,9.2,65.6,14,65.6,14z"/>
<path class="st0" d="M73.3,17.8c1.7-0.3,3.8-1,3.8-2.2c0-0.8-0.6-1.2-1.8-1.8c-1.4-0.7-2.4-1.3-2.4-2.5c0-1.7,2.6-3.2,4.9-3.7
	L78.1,9c-1.2,0.2-3.6,0.8-3.6,2.1c0,0.8,1.2,1.3,1.9,1.7c1.3,0.7,2.3,1.2,2.3,2.5c0,1.6-1.8,3.2-5.1,3.8L73.3,17.8z"/>
<path class="st0" d="M82.6,14.1c0,1.6,0,4.3,0.1,4.7H81c0-0.7,0-4.3,0-4.7v-1.7c0-0.3,0-4.1-0.1-4.5h1.8c0,0.3-0.1,2.6-0.1,4.5
	L82.6,14.1L82.6,14.1z"/>
<path class="st0" d="M85.9,12c0-0.3,0-3.6,0-4C86.9,8,88.6,8,90,8c5.4,0.4,5.9,3,5.9,4c0,4.9-5.6,6.7-10,6.7c0-0.7,0-4.5,0-4.9V12z
	 M87.5,17.5c4.4-0.3,6.6-2.8,6.6-5s-2.4-3.4-6.6-3.3L87.5,17.5L87.5,17.5z"/>
<path class="st0" d="M94.5,18.3c0.9-1.6,5.6-10.3,6-10.9l0,0c1.4,2.2,5.3,9.2,6.4,10.8l-1.5,0.9c-0.3-0.6-2-3.6-2.2-3.8l-5.6,0.2
	c-0.1,0.4-1.4,3.2-1.7,3.7L94.5,18.3z M102.7,14.1c-0.2-0.3-2.1-3.8-2.3-4.1c-0.2,0.4-2,4-2.2,4.3L102.7,14.1z"/>
<path class="st0" d="M108.1,12c0-0.3,0-3.6-0.1-4c0.9,0,2.6,0,4.1,0.1c5.4,0.4,5.9,3,5.9,4.1c0,4.9-5.6,6.7-10,6.7
	c0.1-0.7,0.1-4.5,0.1-5L108.1,12L108.1,12z M109.7,17.5c4.4-0.3,6.6-2.8,6.6-5s-2.4-3.4-6.6-3.3C109.7,9.2,109.7,17.5,109.7,17.5z"
	/>
<path class="st0" d="M30.5,33.4c0.4-0.7,4.2-12.5,4.3-12.9l0,0c0.6,1.1,4,7.9,4.5,8.8c0.6-1,4.4-7.7,4.8-8.2l0,0
	c0.6,1.5,3.8,10.3,4.7,12.3L47.3,34c-0.4-1.4-3.2-9-3.5-9.6c-0.7,1-3.8,6.7-4.6,7.9l0,0c-1.1-2-3.3-6.4-4-8c-0.4,1.1-3,9.1-3.1,9.8
	L30.5,33.4z"/>
<path class="st0" d="M56.4,33.6c-0.6,0-5.5-0.2-5.9-0.2c0-0.8,0-4.1,0-4.5v-2.1c0-0.3,0-4,0-4.3c0.4,0,4.7-0.2,5.5-0.3l0.1,1.3
	c-0.7,0-3.7,0.1-4,0.1v3.8c0.3,0,2.4-0.1,3.4-0.2v1.3h-1.8h-1.7v3.7c0.4,0,2.6,0,4.2,0L56.4,33.6z"/>
<path class="st0" d="M57.1,32.7c0.4-0.3,3.9-4.2,4.4-4.8l-3.8-4.2l1.2-1.1c0.4,0.6,2.4,3,3.6,4.4c0.6-0.6,3.4-3.8,3.8-4.4l1.2,1.2
	c-0.5,0.5-3.8,3.7-4.2,4.2c0.5,0.6,3.8,4.1,4.4,4.8l-1.3,1.1c-0.4-0.5-3.8-4.5-4.2-4.9c-0.2,0.3-3.8,4.7-4.1,4.9L57.1,32.7z"/>
<path class="st0" d="M71,28.8c0,1.6,0,4.3,0.1,4.7h-1.7c0-0.7,0-4.3,0-4.7v-1.7c0-0.3,0-4.1-0.1-4.4h1.8c0,0.3-0.1,2.6-0.1,4.5
	L71,28.8L71,28.8z"/>
<path class="st0" d="M82,33.6c-0.7,0.1-1.4,0.1-2.1,0.1c-5.6,0-7-3.1-7-4.6c0-2.6,2.5-5.8,8.1-6.8l0.3,1.3c-3.6,0.4-6.7,2.4-6.7,5.1
	c0,1.8,1.6,3.5,5.5,3.5c0.6,0,1.2-0.1,1.7-0.2L82,33.6z"/>
<path class="st0" d="M81.5,33c0.9-1.6,5.6-10.3,6-10.9l0,0c1.4,2.2,5.3,9.2,6.4,10.8l-1.5,0.9c-0.3-0.6-2-3.6-2.2-3.8l-5.5,0.2
	c-0.2,0.5-1.5,3.2-1.7,3.7L81.5,33z M89.7,28.8c-0.2-0.3-2.1-3.8-2.3-4.1c-0.2,0.4-2,4-2.2,4.3L89.7,28.8z"/>
<path class="st0" d="M94.6,33.5c0.1-1.2,0.6-9.8,0.6-11.4h0.1c0.5,0.5,8,8.1,8.6,8.6c0-0.4,0-7.6,0-8.1l1.6,0.1
	c-0.1,0.9-0.4,7.3-0.4,11.1H105c-0.5-0.4-8.4-8.4-8.6-8.6l0,0c0,0.3-0.1,7.9-0.1,8.4L94.6,33.5z"/>
<path class="st0" d="M106.3,33c0.9-1.6,5.6-10.3,6-10.9l0,0c1.4,2.2,5.3,9.2,6.4,10.8l-1.5,0.9c-0.3-0.6-2-3.6-2.2-3.8l-5.6,0.2
	c-0.2,0.5-1.5,3.2-1.7,3.7L106.3,33z M114.5,28.8c-0.2-0.3-2.1-3.8-2.3-4.1c-0.2,0.4-2,4-2.2,4.3L114.5,28.8z"/>
</svg>
