<svg id="Layer_1" data-name="Layer 1" xmlns="http://www.w3.org/2000/svg" viewBox="0 0 61.81 60"><defs><style>.cls-1{fill:#a3ca72;}.cls-2{fill:#4e9d2d;}</style></defs><title>img_logo_gbif</title><path class="cls-1" d="M324.08,28.17c0-11.71,5.71-21.84,22.72-21.84,0,11.73-7.72,21.84-22.72,21.84" transform="translate(-297.66 1.09)"/><path class="cls-2" d="M351.33,58.91a22.34,22.34,0,0,0,8.14-1.38c0-9.27-5.53-15.89-15.29-20.66a57.79,57.79,0,0,0-25.05-5.68c3.68-11,1-24.75-2.57-32.28-4,7.88-6.42,21.4-2.62,32.39-7.45.54-13.36,3.79-15.86,8.07-0.19.32-.57,1-0.34,1.14a0.83,0.83,0,0,0,.64-0.36,14.32,14.32,0,0,1,9.68-3.71c7.91,0,13.49,6.57,17.44,10.51,8.48,8.48,16.77,12,25.83,12" transform="translate(-297.66 1.09)"/><path d="M304.25,51.89l-1,.53a0.4,0.4,0,0,1-.16.07,0.12,0.12,0,0,1-.1-0.09,1,1,0,0,0-.92-0.77h-0.86a1,1,0,0,0-.94.94v3.85a1,1,0,0,0,.94.94h0.64a0.92,0.92,0,0,0,.92-0.94V55.8a0.11,0.11,0,0,0-.13-0.13h-1.22a0.11,0.11,0,0,1-.13-0.13V54.43a0.11,0.11,0,0,1,.13-0.13h2.72a0.11,0.11,0,0,1,.13.13v2a2.24,2.24,0,0,1-2.42,2.3h-0.64a2.23,2.23,0,0,1-2.42-2.3V52.56a2.23,2.23,0,0,1,2.42-2.3H302a2.21,2.21,0,0,1,2.05,1.05,1.82,1.82,0,0,1,.25.48A0.11,0.11,0,0,1,304.25,51.89Z" transform="translate(-297.66 1.09)"/><path d="M308.38,58.58h-2.92a0.11,0.11,0,0,1-.13-0.13V50.52a0.11,0.11,0,0,1,.13-0.13h2.92a2.26,2.26,0,0,1,2.42,2.42v0.13a2.16,2.16,0,0,1-.69,1.4,0.11,0.11,0,0,0-.05.09,0.11,0.11,0,0,0,.05.09A2.31,2.31,0,0,1,310.8,56v0.2A2.24,2.24,0,0,1,308.38,58.58Zm0.94-5.89a1,1,0,0,0-.94-0.94H307a0.11,0.11,0,0,0-.13.13v1.73a0.11,0.11,0,0,0,.13.13h1.43a1,1,0,0,0,.94-0.94V52.69Zm0,3.34a0.92,0.92,0,0,0-.94-0.92H307a0.11,0.11,0,0,0-.13.13v1.85a0.11,0.11,0,0,0,.13.13h1.43a0.93,0.93,0,0,0,.94-0.94V56Z" transform="translate(-297.66 1.09)"/><path d="M313.4,58.58h-1.23a0.11,0.11,0,0,1-.13-0.13V50.52a0.11,0.11,0,0,1,.13-0.13h1.23a0.11,0.11,0,0,1,.13.13v7.93A0.11,0.11,0,0,1,313.4,58.58Z" transform="translate(-297.66 1.09)"/><path d="M319.88,51.76h-3.09a0.11,0.11,0,0,0-.13.13v1.73a0.11,0.11,0,0,0,.13.13h2.53a0.11,0.11,0,0,1,.13.13V55a0.11,0.11,0,0,1-.13.13h-2.53a0.11,0.11,0,0,0-.13.13v3.21a0.11,0.11,0,0,1-.13.13H315.3a0.11,0.11,0,0,1-.13-0.13V50.52a0.11,0.11,0,0,1,.13-0.13h4.59a0.11,0.11,0,0,1,.13.13v1.1A0.11,0.11,0,0,1,319.88,51.76Z" transform="translate(-297.66 1.09)"/></svg>