<svg id="Layer_1" data-name="Layer 1" xmlns="http://www.w3.org/2000/svg" viewBox="0 0 88.66 50"><defs><style>.cls-1{fill-rule:evenodd;}</style></defs><title>img_logo_cites</title><path class="cls-1" d="M66.43-4.21H90q1.57,5,3.23,9.87c-3,.09-6.15,0-9.2,0,0,8.15,0,16.4,0,24.49H72.78V5.66h-9.5C64.31,2.35,65.34-1,66.43-4.21Z" transform="translate(-22.91 10.49)"/><path class="cls-1" d="M111.18,7.82c-0.1.09-.2-0.07-0.26-0.11a4.24,4.24,0,0,0-2.15-.82A2.94,2.94,0,0,0,106,9c-0.43,1.41.68,3.06,1.19,4.16,1.12,2.4,2,4.39,3.15,6.86,0.67,1.51,1.37,2.69,1.22,4.75a10.49,10.49,0,0,1-1,3.6c-1.47,3.15-4.58,4.69-9.42,4.23,0.2-.83.44-1.62,0.63-2.45-1.89-.09-3.95,0-5.9,0,0.48-1.9.94-3.81,1.45-5.68,0.78-.11,1.48.15,2.19,0,0.88-.18,1.28-1.45,1-2.56a11,11,0,0,0-.67-1.6c-0.65-1.46-1.44-3.22-2-4.64h4.93q-2.1-6.19-4.27-12.32H95.59c1.08-2.78,3.14-5.2,6.83-5.42A10.42,10.42,0,0,1,108-.83C109.07,2.06,110.1,5,111.18,7.82Z" transform="translate(-22.91 10.49)"/><path class="cls-1" d="M93.74,4.18h4.08c1.23,3.51,2.47,7,3.67,10.54h-9c-0.09,1.2,0,2.56,0,3.82h5q-1,4.15-2,8.31H92.07v4c2.72,0.09,5.6,0,8.38,0-0.73,2.83-1.42,5.71-2.15,8.53H80.61V30.89H85V6.44h9.42C94.27,5.66,93.84,4.92,93.74,4.18Z" transform="translate(-22.91 10.49)"/><path class="cls-1" d="M60.83,6.85c3.64,0,7.37,0,10.95,0,0,10.86,0,21.82,0,32.61-3.65,0-7.4,0-11,0V7A0.1,0.1,0,0,1,60.83,6.85Z" transform="translate(-22.91 10.49)"/><path class="cls-1" d="M53.41,36.45A1.58,1.58,0,0,1,55.3,37.9c0.06,2.08-3.4,2-3.27-.07A1.48,1.48,0,0,1,53.41,36.45Zm-1,1.19c-0.38,1.67,2.18,1.91,2.45.56a1.18,1.18,0,0,0-1.56-1.34A1.16,1.16,0,0,0,52.44,37.64Z" transform="translate(-22.91 10.49)"/><path class="cls-1" d="M54.45,37.71c-0.56.07-.36-0.27-0.7-0.3-0.65,0-.64,1.17,0,1.08,0.35,0,.14-0.45.67-0.37-0.26,1.38-2.18.35-1.41-.7C53.34,37,54.42,37,54.45,37.71Z" transform="translate(-22.91 10.49)"/><path class="cls-1" d="M22.91,17.91a31.4,31.4,0,0,0,10,5.94,19.75,19.75,0,0,0,6.79,1.22A28.77,28.77,0,0,0,46.55,24a21.93,21.93,0,0,1-6.49-3.3,17.17,17.17,0,0,1-4.75-5,16,16,0,0,1-2.23-7.53A18.69,18.69,0,0,1,34.6-.05,17.48,17.48,0,0,1,44.69-9.47a19.74,19.74,0,0,1,8.57-.89,24.36,24.36,0,0,1,7.61,2.15c-0.93,3-1.89,6-2.82,9.05A11.75,11.75,0,0,0,53.41-.64a8.87,8.87,0,0,0-5,1.11,7.24,7.24,0,0,0-3.64,8.24,6.79,6.79,0,0,0,2.41,3.71,7.65,7.65,0,0,0,4.34,1.78c3.92,0.33,6.26-1.93,8.5-3.56v3.9a6.16,6.16,0,0,1,0,1.26,6.61,6.61,0,0,1-1.63,1.52,45.73,45.73,0,0,1-5.38,4A24.66,24.66,0,0,1,44.13,25a21.94,21.94,0,0,1-5.68.52c-5.63-.33-9.84-3-13.36-5.42a26.72,26.72,0,0,0,11.28,7.53,22.62,22.62,0,0,0,5.08,1.19A20.86,20.86,0,0,0,52,27a32.67,32.67,0,0,0,6.23-3.23c0.61-.42,1.13-0.93,1.74-1.3a1,1,0,0,1-.7,1,29.41,29.41,0,0,1-7.87,4.27A23.12,23.12,0,0,1,46,29.22,20,20,0,0,1,39.61,29,26,26,0,0,1,22.91,17.91Z" transform="translate(-22.91 10.49)"/></svg>