<svg id="Layer_1" data-name="Layer 1" xmlns="http://www.w3.org/2000/svg" viewBox="0 0 54.59 40"><defs><style>.cls-1,.cls-2{fill:#fff;}.cls-2{fill-rule:evenodd;}</style></defs><title>img_logo_conabio</title><path class="cls-1" d="M51.72,34.1a97.09,97.09,0,0,1-10.15-.27,97.05,97.05,0,0,1,10.15-.27H65.79V34.1H51.72Z" transform="translate(-40.46 5.9)"/><path class="cls-1" d="M83.79,33.57a97.26,97.26,0,0,1,10.16.27,97.22,97.22,0,0,1-10.16.27H69.7V33.57H83.79Z" transform="translate(-40.46 5.9)"/><path class="cls-1" d="M44.68,31.84c-2.33,0-4.22-1.27-4.22-4,0-2.53,1.71-4.06,4.36-4.06,1,0,2.16.3,2.67,0.3a6,6,0,0,1,.06.67,12.25,12.25,0,0,1-.15,1.76H47.07a2,2,0,0,0-2.27-2.18c-1.92,0-3,1.37-3,3.49s1.32,3.45,3.09,3.45a2.16,2.16,0,0,0,2.3-1.73h0.3a5.48,5.48,0,0,1-.33,1.75A4.9,4.9,0,0,1,44.68,31.84Z" transform="translate(-40.46 5.9)"/><path class="cls-1" d="M48.94,27.86a3.94,3.94,0,0,1,4.15-4.1,3.81,3.81,0,0,1,4.05,4A3.94,3.94,0,0,1,53,31.84,3.8,3.8,0,0,1,48.94,27.86Zm6.88-.05c0-1.77-.87-3.5-2.87-3.5-1.82,0-2.7,1.47-2.7,3.42s0.92,3.53,2.93,3.53C55,31.27,55.82,29.69,55.82,27.81Z" transform="translate(-40.46 5.9)"/><path class="cls-1" d="M59.9,25.44l-0.07,0,0,4.05c0,1.66.11,1.81,0.62,1.85L61,31.42v0.26H58V31.42l0.53-.05c0.52,0,.61-0.22.62-1.85l0-4.33a0.85,0.85,0,0,0-.87-1l-0.35,0V23.92h1.92a1.27,1.27,0,0,1,.67.49c1.2,1.3,3,3.43,4.4,5.11l0.06,0,0-3.67c0-1.36-.13-1.54-0.61-1.58l-0.51-.05V23.92h2.88v0.27l-0.45.05c-0.53.05-.6,0.32-0.6,1.85v5.59a2,2,0,0,1-.45.09C63.68,29.77,62.06,27.9,59.9,25.44Z" transform="translate(-40.46 5.9)"/><path class="cls-1" d="M66.93,31.68V31.44a1.37,1.37,0,0,0,1.21-1.07l2.8-6.51a0.89,0.89,0,0,1,.25-0.05c0.46,1.21,2.5,6.4,2.92,7.08a0.92,0.92,0,0,0,.83.51v0.27H71.59V31.42l0.42,0c0.49,0,.64-0.13.64-0.42a3.72,3.72,0,0,0-.31-1.09L72,29l-2.58,0-0.27.66a5.81,5.81,0,0,0-.4,1.28c0,0.3.23,0.38,1,.47v0.26H66.93Zm3.85-5.78H70.71c-0.34.8-.76,1.8-1.08,2.59l2.17,0Z" transform="translate(-40.46 5.9)"/><path class="cls-1" d="M75.64,31.42l0.53-.05c0.47,0,.55-0.28.55-1.85V26.1c0-1.56-.08-1.78-0.55-1.82l-0.53-.05V24c0.81,0,2.22-.06,2.92-0.06,1.69,0,2.51.68,2.51,1.8a1.83,1.83,0,0,1-1.44,1.71v0.05a2,2,0,0,1,2,1.89c0,1.39-1.15,2.33-3,2.33h-3V31.42Zm2.89-4.12a1.27,1.27,0,0,0,1.27-1.45,1.19,1.19,0,0,0-1.17-1.42,2.29,2.29,0,0,0-.74.12v2.77Zm1.76,2.31a1.69,1.69,0,0,0-1.64-1.85l-0.76,0V29.5c0,1.58.16,1.7,0.86,1.7A1.45,1.45,0,0,0,80.29,29.61Z" transform="translate(-40.46 5.9)"/><path class="cls-1" d="M82.56,31.68V31.42l0.53-.05c0.48-.05.55-0.28,0.55-1.85V26.1c0-1.58-.08-1.8-0.55-1.85l-0.53-.05V23.92h3.32v0.27l-0.53.05c-0.48.05-.55,0.27-0.55,1.85v3.42c0,1.57.07,1.8,0.55,1.85l0.53,0.05v0.26H82.56Z" transform="translate(-40.46 5.9)"/><path class="cls-1" d="M86.85,27.86A3.94,3.94,0,0,1,91,23.77a3.81,3.81,0,0,1,4.05,4,3.94,3.94,0,0,1-4.14,4.08A3.8,3.8,0,0,1,86.85,27.86Zm6.88-.05c0-1.77-.87-3.5-2.88-3.5-1.82,0-2.7,1.47-2.7,3.42s0.92,3.53,2.93,3.53C92.9,31.27,93.73,29.69,93.73,27.81Z" transform="translate(-40.46 5.9)"/><path class="cls-2" d="M72.22-1.7a0.3,0.3,0,0,1,.32.27,0.3,0.3,0,0,1-.32.27,0.3,0.3,0,0,1-.32-0.27,0.3,0.3,0,0,1,.32-0.27m-0.82-.73a2.35,2.35,0,0,1,1.44,0A5.5,5.5,0,0,1,74-1.95a5.34,5.34,0,0,1,1,1,1.09,1.09,0,0,1,0,.62,1.41,1.41,0,0,1-.38.47,4.25,4.25,0,0,1-1.13.41,7,7,0,0,1-1,.11c-0.19,0-1.31-.53-1.39-0.51a1.49,1.49,0,0,0-.27.43,1.22,1.22,0,0,1-.59-1.09,1.44,1.44,0,0,1,.34-1A2.17,2.17,0,0,0,71-1.88,1,1,0,0,1,71.39-2.43Z" transform="translate(-40.46 5.9)"/><path class="cls-2" d="M74.64,0.48c0.28-.2.49-0.54,0.54-0.54a2.56,2.56,0,0,1,.68.58,9.16,9.16,0,0,1,.68.94,9.16,9.16,0,0,1,1.22,2.38,11.82,11.82,0,0,1,.09,3.1c-0.11.95-.18,1.91-0.2,2s-0.19.42-.36,0.3a11.65,11.65,0,0,1-3.41-4c-0.19-.35-0.35-0.7-0.51-1a17.6,17.6,0,0,1-.7-1.67,4.31,4.31,0,0,1-.29-1.11A0.73,0.73,0,0,1,72.49.91a1.1,1.1,0,0,1,.31,0,3.59,3.59,0,0,0,.52,0A2,2,0,0,0,74.64.48" transform="translate(-40.46 5.9)"/><path class="cls-2" d="M74.89,7.42a0.63,0.63,0,0,1,.33.29c0.14,0.13.92,0.88,1.09,1.07a2.39,2.39,0,0,1,.44.67,1.94,1.94,0,0,1-.07,1.25c-0.19.82-1.06,4.46-1.57,6.11s-0.55,2-.6,2.12a0.26,0.26,0,0,1-.29.23,0.29,0.29,0,0,1-.31-0.34,12.59,12.59,0,0,1,0-2.08c0.08-.87.31-2.4,0.31-3.28s-0.12-1.32-.09-1.94a27.81,27.81,0,0,1,.43-3,3.58,3.58,0,0,1,.33-1.12" transform="translate(-40.46 5.9)"/><path class="cls-2" d="M68.71,1.22c0-.3.19-0.35,0.57-0.39a2.13,2.13,0,0,1,.9.08,8.13,8.13,0,0,1,.92.43,6.38,6.38,0,0,1,.78.81,5.27,5.27,0,0,1,.85,1.41,2.5,2.5,0,0,1,.21.92,3.4,3.4,0,0,1-.54.78A2,2,0,0,1,70.64,6,3.19,3.19,0,0,1,68.72,4.9a2.74,2.74,0,0,0-.63-0.4c-0.3-.12-0.33-0.24-0.29-0.41a0.45,0.45,0,0,1,.53-0.32,5.44,5.44,0,0,1,.78.11,0.63,0.63,0,0,0-.36-0.24c-0.25-.07-0.73-0.09-1-0.18s-0.24-.26-0.23-0.31a0.4,0.4,0,0,1,.42-0.38c0.41,0,1.3-.05,1.3-0.05S68,2.52,67.91,2.48a0.26,0.26,0,0,1-.19-0.29A0.38,0.38,0,0,1,68,1.79a2.93,2.93,0,0,1,.75-0.07c0.29,0,1.09.16,1.09,0.16s0-.11-0.27-0.22-0.91-.14-0.91-0.44" transform="translate(-40.46 5.9)"/><path class="cls-2" d="M69.86,6.82a0.36,0.36,0,0,1,.06-0.36c0.05,0,.83-0.2,1.13-0.24a6,6,0,0,0,1-.17,1.92,1.92,0,0,0,.39-0.24,3.38,3.38,0,0,1,.77-0.63,0.35,0.35,0,0,1,.47.15,0.6,0.6,0,0,1,.12.57,2.3,2.3,0,0,1-1,1,1.93,1.93,0,0,1-1,.38,9.8,9.8,0,0,1-1.58,0,0.44,0.44,0,0,1-.43-0.49" transform="translate(-40.46 5.9)"/><path class="cls-2" d="M70.25,7.65c0.37,0,1.55,0,1.74-.06a2.35,2.35,0,0,0,.88-0.31,6.12,6.12,0,0,1,1-.62,0.43,0.43,0,0,1,.38.33,1.26,1.26,0,0,1-.45,1.07,3.54,3.54,0,0,1-1.8.64,6.39,6.39,0,0,1-1.16.14,1.13,1.13,0,0,1-.91-0.38c0-.27-0.07-0.82.31-0.82" transform="translate(-40.46 5.9)"/><path class="cls-2" d="M73.89,8.68a7.22,7.22,0,0,1-.13,2.19c-0.18.82-.8,3.28-0.91,3.46a5,5,0,0,1-1.22.74,9.31,9.31,0,0,1-1,.35s-0.36.15-.34-0.24a34,34,0,0,0,0-3.56c-0.11-1.29-.14-1.83-0.16-2s0-.43.23-0.44a13.33,13.33,0,0,0,1.68-.09c0.6-.1,1.76-0.38,1.83-0.41" transform="translate(-40.46 5.9)"/><path class="cls-2" d="M62,11.36a1.14,1.14,0,0,1,.23.27,5.3,5.3,0,0,0,2.79,2c1.6,0.34,2.13-.05,2.3-0.25a7.71,7.71,0,0,0,.6-1.44,0.89,0.89,0,0,1,.67-0.62,3.4,3.4,0,0,1,.56-0.1,1.36,1.36,0,0,1,.76.12,4.68,4.68,0,0,1,.12,2c-0.08.67-.25,2-0.28,2a3.5,3.5,0,0,1-2.07.46,13,13,0,0,1-5.18-1.12A8.64,8.64,0,0,1,60.13,13c-0.53-.53-0.41-0.48-0.37-0.6A0.72,0.72,0,0,1,60,12c0.08,0,.5,0,0.83-0.12a2.54,2.54,0,0,0,1-.33A0.55,0.55,0,0,1,62,11.36" transform="translate(-40.46 5.9)"/><path class="cls-2" d="M76.19,14.95a1.62,1.62,0,0,0,1.13-.71,7,7,0,0,0,1-1.25A14.09,14.09,0,0,0,80,9a12.11,12.11,0,0,0,.37-3.12,15.34,15.34,0,0,0-.88-4.55,10,10,0,0,0-2.12-3.6,13.67,13.67,0,0,0-5.48-3.06,12.61,12.61,0,0,0-3.79-.58,23.76,23.76,0,0,0-4,.37c-1.26.25-1.66,0.42-2,.5A11.63,11.63,0,0,0,56.83-.93a13.65,13.65,0,0,0-1.69,7.06c0.08,1.56.47,5.85,2.66,8.31S62.68,18,67,18.21s6.56-1.51,6.56-1.51l0.27-2.12a15.34,15.34,0,0,1-6.24,1.69A10.62,10.62,0,0,1,59.48,13C57.66,11,57,7,57.33,4.15A7.94,7.94,0,0,1,62.76-3c3.89-1.48,8.57-.28,9.84.08a9.33,9.33,0,0,1,5.57,7,9.89,9.89,0,0,1-1,7,10.24,10.24,0,0,0-.88,2.29,4.25,4.25,0,0,0-.1,1.57" transform="translate(-40.46 5.9)"/><path class="cls-2" d="M60.12,8.62a0.78,0.78,0,0,1,.74.5,0.54,0.54,0,0,1-.44.59,0.89,0.89,0,0,1-1-.25,0.56,0.56,0,0,1,.2-0.71,0.77,0.77,0,0,1,.46-0.14M60,8.44a1.25,1.25,0,0,1,1.27,1,0.77,0.77,0,0,1-.88.86,1.12,1.12,0,0,1-1.23-1.07A0.88,0.88,0,0,1,60,8.44Zm4.39-2.83a1.12,1.12,0,0,1,1-.19,0.58,0.58,0,0,1-.11.34,2.3,2.3,0,0,1-.38.45A1,1,0,0,1,64,6.5,1,1,0,0,1,64.38,5.61Zm3.53,1a0.33,0.33,0,0,1-.1.33,0.3,0.3,0,0,1-.37.07c-0.14-.12-0.06-0.28.13-0.38S67.83,6.53,67.91,6.6Zm-1-9.88a2.38,2.38,0,0,1,.73,1.53A4.84,4.84,0,0,1,67.43.73a4.21,4.21,0,0,1-1.2,2l-0.39.06a2.61,2.61,0,0,0-1.65-.59,3.59,3.59,0,0,0-2.23,1A3.22,3.22,0,0,0,60.8,4.92a3.62,3.62,0,0,0,.14,1.75C61.13,7.1,61.22,7,61.22,7a0.19,0.19,0,0,0,.16,0,4.86,4.86,0,0,1-.14-2.16A3.14,3.14,0,0,1,63.31,2.7a1.88,1.88,0,0,1,2.27.53c0.35,0.26.65,0.44,0.88,0.59A12.79,12.79,0,0,1,68.58,5.5c0.56,0.64.62,0.69,0.56,0.92a4.92,4.92,0,0,0-.37.69,1.49,1.49,0,0,1,.18.83,1,1,0,0,1-.59.53,0.83,0.83,0,0,0-.49.47,0.33,0.33,0,0,0,.31,0,0.93,0.93,0,0,1,.52-0.13,0.67,0.67,0,0,1,.69.68,1.38,1.38,0,0,1-.11,1.18,1.39,1.39,0,0,1-.75.4,2,2,0,0,0-.67.25,3.23,3.23,0,0,0-.49,1.18,1.43,1.43,0,0,1-.41.83,5.85,5.85,0,0,1-2.22-.15A4,4,0,0,1,63.08,12a8.41,8.41,0,0,1-.88-1H61.93a1.82,1.82,0,0,1-1.49.55,2.4,2.4,0,0,1-2.28-2.41,2,2,0,0,1,1.25-2c0.06-.11.09-0.27-0.16-0.26a1.93,1.93,0,0,0-.86.28c-0.23.15-.67,0.5-0.71,0.18a1.64,1.64,0,0,1,.89-1.6c0.83-.41,1-0.33,1-0.64S59,4.94,58.75,5a4.42,4.42,0,0,0-.71.37c0,0.05-.36.29-0.36-0.07a1.69,1.69,0,0,1,.82-1.47c0.7-.42,1.44-0.24,1.46-0.5S59.67,3,59.4,3a3.91,3.91,0,0,0-1.17.39c-0.15.12-.39,0.15-0.32-0.21a1.9,1.9,0,0,1,1.25-1.46,6.43,6.43,0,0,1,1.63.05,0.48,0.48,0,0,0-.34-0.61,1.31,1.31,0,0,0-1.12-.07c-0.52.16-.64,0.08-0.55-0.12A1.63,1.63,0,0,1,60.38-.2c1.23,0,1.55,1.13,1.84,1.05s-0.12-1-.36-1.39-1.07-1-.76-1.21a1.68,1.68,0,0,1,1.56.17,1.46,1.46,0,0,1,.61.54A7.38,7.38,0,0,0,64,.17,1.86,1.86,0,0,0,64-.94a5.14,5.14,0,0,0-.86-1.6C63-2.71,63-2.86,63.35-2.88a2.22,2.22,0,0,1,1.72.71,2.8,2.8,0,0,1,.46,1.86c-0.06.15,0,.56,0.18,0.31a4,4,0,0,0,.79-1.77C66.62-2.53,66.64-3.27,66.87-3.28Z" transform="translate(-40.46 5.9)"/></svg>