<svg id="Layer_1" data-name="Layer 1" xmlns="http://www.w3.org/2000/svg" viewBox="0 0 65.06 60"><defs><style>.cls-1{fill:#231f20;}.cls-2{fill:#ed2d24;}.cls-3{fill:#fff;}</style></defs><title>img_logo_redlist</title><path class="cls-1" d="M68.8,23.73h2.41a1.18,1.18,0,0,0,1.33-1.3,1.24,1.24,0,0,0-1.45-1.19H68.8v2.49Zm-2.87-4.79h5.62c1.95,0,3.86.88,3.86,3.1a2.83,2.83,0,0,1-1.73,2.76v0c1.17,0.28,1.51,1.59,1.61,2.64,0,0.46.08,2.08,0.46,2.49H72.91a5.34,5.34,0,0,1-.33-1.76C72.51,27.1,72.32,26,71,26H68.8v4H65.93v-11Z" transform="translate(-34.74 15.18)"/><polygon class="cls-1" points="42.03 34.12 50.82 34.12 50.82 36.42 44.9 36.42 44.9 38.35 50.31 38.35 50.31 40.58 44.9 40.58 44.9 42.68 50.97 42.68 50.97 45.15 42.03 45.15 42.03 34.12"/><path class="cls-1" d="M89.91,27.5h1.36c2.18,0,3-.9,3-3.1,0-2-1.08-3-3-3H89.91V27.5ZM87,18.94h4.74c3.38,0,5.4,2.05,5.4,5.47,0,3.61-2.05,5.56-5.4,5.56H87v-11Z" transform="translate(-34.74 15.18)"/><polygon class="cls-1" points="31.19 46.28 34.06 46.28 34.06 54.83 39.2 54.83 39.2 57.3 31.19 57.3 31.19 46.28"/><rect class="cls-1" x="40.01" y="46.28" width="2.87" height="11.03"/><path class="cls-1" d="M81.23,38.42c0.06,1.3.86,1.71,2.08,1.71,0.86,0,1.76-.31,1.76-1.13,0-1-1.57-1.16-3.16-1.61s-3.23-1.16-3.23-3.18c0-2.41,2.42-3.35,4.49-3.35s4.4,1.06,4.42,3.55H84.72c0-1-.9-1.33-1.78-1.33a1.17,1.17,0,0,0-1.39.94c0,0.85,1.59,1,3.2,1.45s3.2,1.19,3.2,3.18c0,2.79-2.38,3.69-4.8,3.69s-4.77-1.11-4.79-3.94h2.87Z" transform="translate(-34.74 15.18)"/><polygon class="cls-1" points="62.29 48.75 59 48.75 59 57.3 56.13 57.3 56.13 48.75 52.84 48.75 52.84 46.28 62.29 46.28 62.29 48.75"/><path class="cls-2" d="M87.24-6.85C85-4.71,84.56-1.61,86.18.07s4.74,1.31,7-.82S95.82-6,94.19-7.67s-4.74-1.31-7,.82" transform="translate(-34.74 15.18)"/><path class="cls-2" d="M85.47,3.54c-2.21,2.14-2.69,5.23-1.06,6.92s4.74,1.31,6.95-.82,2.69-5.23,1.06-6.92-4.74-1.31-7,.82" transform="translate(-34.74 15.18)"/><path class="cls-2" d="M70.27-11.66c-2.21,2.14-2.69,5.23-1.06,6.92s4.74,1.31,7-.82,2.69-5.23,1.06-6.92-4.74-1.32-7,.82" transform="translate(-34.74 15.18)"/><path class="cls-2" d="M80.75-13.3c-2.21,2.14-2.69,5.23-1.06,6.92s4.74,1.32,7-.82,2.69-5.24,1.06-6.92-4.74-1.31-7,.82" transform="translate(-34.74 15.18)"/><path class="cls-2" d="M82.75,5.63A8.71,8.71,0,1,1,74-3.08a8.71,8.71,0,0,1,8.71,8.71" transform="translate(-34.74 15.18)"/><path class="cls-2" d="M62.53,0.41A13.88,13.88,0,1,1,48.64-13.47h13.9Z" transform="translate(-34.74 15.18)"/><path class="cls-2" d="M62.68,30.85a14,14,0,1,1-14-14,14,14,0,0,1,14,14" transform="translate(-34.74 15.18)"/><rect class="cls-3" x="7.74" y="44.69" width="0.62" height="2.81"/><path class="cls-3" d="M45.63,32.11a1.55,1.55,0,0,1-1.77,0,1.07,1.07,0,0,1-.31-0.85V29.51h0.62v1.75a1.31,1.31,0,0,0,0,.23,0.46,0.46,0,0,0,.08.2,0.49,0.49,0,0,0,.18.14,0.73,0.73,0,0,0,.3.05,0.58,0.58,0,0,0,.46-0.15,0.71,0.71,0,0,0,.13-0.46V29.51H46v1.75a1.07,1.07,0,0,1-.32.85" transform="translate(-34.74 15.18)"/><path class="cls-3" d="M48.21,30.26a0.63,0.63,0,0,0-.14-0.16,0.67,0.67,0,0,0-.19-0.1,0.63,0.63,0,0,0-.22,0,0.72,0.72,0,0,0-.36.08,0.66,0.66,0,0,0-.24.22,1,1,0,0,0-.13.31,1.57,1.57,0,0,0,0,.36,1.46,1.46,0,0,0,0,.34,1,1,0,0,0,.13.3,0.69,0.69,0,0,0,.24.21,0.72,0.72,0,0,0,.36.08,0.57,0.57,0,0,0,.44-0.17,0.81,0.81,0,0,0,.19-0.46h0.6a1.45,1.45,0,0,1-.12.48,1.15,1.15,0,0,1-.26.36,1.09,1.09,0,0,1-.38.23,1.38,1.38,0,0,1-.48.08,1.46,1.46,0,0,1-.58-0.11A1.25,1.25,0,0,1,46.65,32a1.41,1.41,0,0,1-.27-0.46,1.69,1.69,0,0,1-.09-0.57,1.76,1.76,0,0,1,.09-0.59,1.44,1.44,0,0,1,.27-0.47,1.24,1.24,0,0,1,.43-0.31,1.43,1.43,0,0,1,.58-0.11,1.4,1.4,0,0,1,.44.07,1.18,1.18,0,0,1,.37.19,1,1,0,0,1,.27.32,1.13,1.13,0,0,1,.13.43h-0.6a0.52,0.52,0,0,0-.07-0.19" transform="translate(-34.74 15.18)"/><polygon class="cls-3" points="15.12 44.69 16.3 46.58 16.3 46.58 16.3 44.69 16.88 44.69 16.88 47.5 16.26 47.5 15.09 45.62 15.08 45.62 15.08 47.5 14.51 47.5 14.51 44.69 15.12 44.69"/><path class="cls-3" d="M48.37,33.86L48.22,34a4.5,4.5,0,1,1,0-6.36L48.48,28h1.84a6,6,0,1,0-.08,5.9H48.37Z" transform="translate(-34.74 15.18)"/><path class="cls-1" d="M99.09,20.08a0.72,0.72,0,0,1-.72.62,0.85,0.85,0,0,1-.86-0.92,0.82,0.82,0,0,1,.85-0.87,0.68,0.68,0,0,1,.72.61H98.81a0.43,0.43,0,0,0-.44-0.35,0.54,0.54,0,0,0-.52.61,0.58,0.58,0,0,0,.53.65,0.42,0.42,0,0,0,.44-0.36h0.28Zm-0.76-1.54a1.25,1.25,0,1,0,1.16,1.25,1.17,1.17,0,0,0-1.16-1.25m0,2.76a1.51,1.51,0,1,1,1.48-1.51,1.45,1.45,0,0,1-1.48,1.51" transform="translate(-34.74 15.18)"/></svg>