<svg id="Layer_1" data-name="Layer 1" xmlns="http://www.w3.org/2000/svg" viewBox="0 0 57.2 60"><defs><style>.cls-1{fill:#0eab69;}.cls-1,.cls-2,.cls-3,.cls-4,.cls-5,.cls-7{fill-rule:evenodd;}.cls-2{fill:#ffe13f;}.cls-3{fill:#5c84c3;}.cls-4{fill:#fff;}.cls-5{fill:#d2d2d2;}.cls-6{fill:#f0f0f0;}.cls-7{fill:#e14e3c;}.cls-8{fill:#883129;}</style></defs><title>img_logo_gmaps</title><path class="cls-1" d="M39.15,39.41V-3.21A4.49,4.49,0,0,1,43.64-7.7H86.27Z" transform="translate(-39.15 15.2)"/><path class="cls-2" d="M39.15,40.31V39.41L86.27-7.7h0.89a4.49,4.49,0,0,1,4.49,4.49v0.9L44.54,44.8H43.64A4.49,4.49,0,0,1,39.15,40.31Z" transform="translate(-39.15 15.2)"/><polygon class="cls-3" points="5.38 60 26.25 39.13 47.11 60 5.38 60"/><path class="cls-4" d="M86.27,44.8L65.08,23.61l5.38-5.38L91.65,39.41v0.89a4.49,4.49,0,0,1-4.49,4.49H86.27Z" transform="translate(-39.15 15.2)"/><polygon class="cls-5" points="52.5 54.62 31.63 33.75 52.5 12.89 52.5 54.62"/><path class="cls-6" d="M59.29,3.64h-7V6.07h4.16a4.4,4.4,0,1,1-1.29-4.73l1.94-1.9a7.11,7.11,0,1,0,2.29,5.22A7.16,7.16,0,0,0,59.29,3.64Z" transform="translate(-39.15 15.2)"/><path class="cls-7" d="M82.24,29.72h0A0.77,0.77,0,0,1,81.45,29c-1.14-8.28-3.31-11.39-5.17-14.47-3.09-5.11-8.17-10.78-8.17-16.4C68.11-9,73.9-15.2,82.21-15.2h0c8.31,0,14.1,6.24,14.1,13.32,0,5.62-5.08,11.28-8.17,16.4C86.32,17.59,84.15,20.7,83,29A0.77,0.77,0,0,1,82.24,29.72Z" transform="translate(-39.15 15.2)"/><circle class="cls-8" cx="82.23" cy="-1.72" r="4.86" transform="translate(-13.85 72.85) rotate(-45.01)"/></svg>